<svg xmlns="http://www.w3.org/2000/svg" viewBox="0 0 392.845 392.908"><path fill="#d40000" d="M98.23 26.342C54.305 51.702 23.853 91.484 9.456 136.268c.34-.054.68-.09 1.015-.116 2.486.048 5.082-.43 7.588-.484 14.19-41.7 42.996-78.626 84.171-102.398 20.978-12.112 43.292-19.728 65.869-23.163 4.932-7.8-1.063-.17 11.55-7.245.913-.513 1.19-1.382 1.447-2.243a194.915 194.915 0 0 0-38.204 6.83c.448.566.874 1.09 1.298 1.56-1.282 1.065-2.506 2.189-3.601 3.45-.016.019-.023.04-.039.058-2.068-1.026-4.065-1.898-5.95-2.555a195.748 195.748 0 0 0-14.894 5.64c-.134 1.28-.111 2.759.07 4.434-1.965 1.226-3.769 2.365-5.346 3.99-.706-1.86-1.35-3.572-1.988-5.132a198.415 198.415 0 0 0-14.212 7.448zm25.67-10.6c.268-.297.977.688.719.993-.988 1.163-2.513 1.733-3.764 2.606-.363.228-.674.446-1.024.664.88-1.384 3.034-3.109 4.07-4.263zm-4.135 4.337c.063.576.172 1.165.275 1.79-.01-.008-.032-.007-.042-.012-.732-.411-.68-1.036-.233-1.778zm-16.004 15.843C22.323 82.941-9.915 182.475 25.078 267.076c.652-.11 1.31-.261 1.98-.385-34.874-83.78-2.994-182.446 77.703-229.037 19.593-11.312 40.395-18.585 61.466-22.1a29.509 29.509 0 0 0-.202-1.976c-21.344 3.544-42.423 10.89-62.264 22.344zM181.735.54c1.283 2.898 4.006 4.855 8.221 2.614-.29-.933-.265-1.991-.211-3.053-2.672.088-5.337.24-8.01.439zm8.221 2.614a3.463 3.463 0 0 0 1.299 1.812c-1.046.29-2.093.59-3.14.875-.156-.115-.329-.22-.482-.335-2.377-.306-7.966-3.147-7.124-.903.355.947.76 1.87 1.148 2.802-1.381.296-2.76.612-4.148.879-1.145.22-2.358.12-3.455.515-1.488.534-4.008.693-5.692 1.266 48.564-7.316 98.247 4.75 137.983 33.243l.1.05c4.308 2.174 8.551 4.59 12.567 6.89l-2.17 1.18a187.078 187.078 0 0 1 18.787 17.914c.31-1.112.647-2.42 1.04-3.885 1.571-.332 3.188-.605 4.709-1.095l.356-.133A195.103 195.103 0 0 0 303.67 31.86c.224.273.433.543.65.815-1.3-.628-2.134-1.012-3.891-1.866l-1.053-.511c.246-.175.562-.358.931-.574C268.385 9.882 231.312-.455 193.772.012c-.017.218-.163.46-.474.742-1.202 1.089-2.317 1.854-3.342 2.4zm-22.878 10.25c.198.64.413 1.277.633 1.908 40.774-6.457 82.427 1.2 118.056 21.041 2.2.479 4.417.952 6.6 1.494-37.306-22.519-81.81-31.403-125.289-24.443zM127.474 42.62l5.402 12.794c.316-.045.63-.137.98-.24s.688-.209 1.002-.327c.332-.11.619-.218.89-.333l.67-.278c.58-.245 1.112-.54 1.57-.907s.818-.798 1.071-1.268a3.431 3.431 0 0 0 .424-1.58c.027-.593-.112-1.198-.393-1.866-.208-.495-.428-.911-.703-1.218a2.956 2.956 0 0 0-.856-.732 2.42 2.42 0 0 0-.97-.306c-.322-.04-.653-.062-.98-.011l-.048-.082c.287-.251.517-.542.663-.851.16-.315.23-.648.263-.982a3.58 3.58 0 0 0-.047-1.02 4.718 4.718 0 0 0-.299-1.017c-.276-.656-.589-1.14-.983-1.454a2.79 2.79 0 0 0-1.352-.59c-.47-.08-.964-.05-1.507.076a9.763 9.763 0 0 0-1.606.53c-.594.25-1.177.518-1.757.834-.573.298-1.057.582-1.434.828zM95.501 61.115a8.152 8.152 0 0 0-.7.476c-.365.272-.793.636-1.266 1.056s-.885.84-1.254 1.265l8.329 11.177 2.036-1.536-3.47-4.636 1.01-.439 5.288 2.973 2.345-1.751-5.303-2.748-1.04-.05a3.267 3.267 0 0 0 .526-2.215c-.089-.837-.47-1.705-1.152-2.62-.473-.634-.974-1.09-1.494-1.337a3.144 3.144 0 0 0-1.575-.354c-.518.001-1.013.129-1.518.371-.256.116-.518.224-.762.368zm-5.222 4.205-5.383 4.552 9.076 10.781 5.464-4.598-1.508-1.8-3.518 2.97-2.323-2.773 3.105-2.622-1.508-1.8-3.132 2.638-2.217-2.653 3.452-2.895-1.508-1.8zm47.053-26.877 4.691 13.313 6.703-2.39-.762-2.195-4.319 1.52-1.213-3.414 3.84-1.35-.762-2.194-3.84 1.35-1.161-3.262 4.249-1.515-.789-2.18-6.637 2.317zm-23.97 13.983a4.13 4.13 0 0 0-1.48 1.937c-.806 2.17.296 4.59 2.466 5.397s4.59-.296 5.397-2.466-.296-4.59-2.466-5.397a4.218 4.218 0 0 0-3.917.53zm17.228-8.972c.19-.138.527-.31 1.033-.524.235-.099.465-.16.69-.181.23-.04.441-.015.647.059.2.061.387.172.567.358s.345.448.48.769c.209.494.268.945.138 1.364a2.357 2.357 0 0 1-.65 1.06c-.1.073-.23.133-.406.235-.168.085-.312.166-.449.223l-.545.243-1.504-3.606zM96.375 63.316c.463-.344.935-.444 1.383-.293.44.141.83.453 1.19.937.48.645.704 1.233.678 1.737-.033.494-.299.918-.804 1.295l-.695.546-2.574-3.458c.073-.105.175-.239.328-.37s.322-.265.494-.393zM148.378 34.7a3.274 3.274 0 0 0-1.046 1c-.266.385-.434.852-.506 1.375-.062.507-.016 1.083.175 1.74.205.709.512 1.264.899 1.682s.814.773 1.28 1.03c.478.252.96.45 1.464.597.516.144 1.004.279 1.44.432.448.15.822.335 1.153.56.327.213.567.527.687.94.291 1.005-.226 1.69-1.515 2.065-.515.15-1.019.212-1.514.188s-.896-.058-1.199-.138l-.163 2.404c.378.1.91.135 1.547.118.65-.021 1.362-.15 2.161-.382.631-.184 1.197-.427 1.663-.744s.829-.675 1.096-1.102c.277-.443.423-.94.47-1.498.06-.562.016-1.196-.182-1.88s-.497-1.236-.884-1.654a4.703 4.703 0 0 0-1.307-1.014 6.44 6.44 0 0 0-1.48-.625c-.507-.16-.98-.325-1.428-.474a5.872 5.872 0 0 1-1.138-.534c-.327-.213-.562-.481-.666-.842-.116-.4-.05-.747.162-1.032s.564-.506 1.067-.652.966-.218 1.429-.212c.475.002.865.05 1.128.142l.126-2.345c-.437-.111-.959-.18-1.563-.145s-1.225.175-1.882.365c-.541.157-1.039.355-1.474.635zm-68.47 39.783-1.84 1.749 9.658 10.229 5.473-5.145-1.627-1.694-3.59 3.407-8.073-8.546zm74.916-41.556.53 2.292 3.244-.754 2.648 11.461 2.443-.58-2.605-11.45 3.094-.704c.021-.15.031-.312.056-.466l-.42-1.85-8.99 2.051zM73.36 81.08l-1.736 1.868 10.215 9.691 5.146-5.46-1.678-1.594-3.41 3.593-8.537-8.098zm-3.352 3.631-4.55 5.37 10.755 9.126 4.615-5.443-1.786-1.53-2.953 3.508-2.786-2.324 2.641-3.113-1.786-1.53-2.625 3.139-2.642-2.264 2.903-3.408-1.786-1.531zm62.855-35.82.955-.407c.26-.11.505-.194.755-.256.263-.067.513-.061.756-.003.237.046.465.165.68.365.21.189.414.481.585.89.27.642.294 1.2.1 1.673s-.537.826-1.057 1.044c-.197.083-.432.16-.685.251-.245.074-.423.126-.538.13l-1.551-3.687zm38.145-18.992a3.33 3.33 0 0 0-.56.467c-.317.343-.52.778-.664 1.286-.134.493-.173 1.064-.078 1.741.103.73.332 1.353.656 1.823.142.206.278.398.44.575.34-.758.717-1.566 1.098-2.474.12-.286.223-.591.31-.9l.011-.043c.006-.022-.009-.048-.004-.07l.012-.043a9.055 9.055 0 0 0 .265-3.04 5.09 5.09 0 0 0-.836.302 3.553 3.553 0 0 0-.65.375zM17.31 118.996c.986.225 2.464.724 4.01 1.258-.48 1.404-.94 2.803-1.245 4.219-.029.13-.023.332-.025.52-1.526-1.528-3.047-3.055-4.587-4.57.611-.477 1.227-.961 1.847-1.427zm46.342-26.358c-.22.14-.453.307-.684.503a8.669 8.669 0 0 0-1.316 1.409 5.51 5.51 0 0 0-.784 1.391 3.245 3.245 0 0 0-.222 1.427c.017.467.148.928.405 1.39.254.443.665.874 1.211 1.285.59.444 1.141.72 1.702.822s1.129.13 1.655.055a7.845 7.845 0 0 0 1.53-.414c.499-.195.971-.352 1.412-.49a4.64 4.64 0 0 1 1.258-.258 1.6 1.6 0 0 1 1.099.34c.836.63.876 1.486.07 2.558-.323.429-.717.77-1.128 1.048s-.765.491-1.055.609l1.338 2.006c.363-.147.784-.381 1.283-.777.508-.407 1.012-.967 1.513-1.631.395-.525.7-1.06.884-1.593s.229-1.05.187-1.552a3.257 3.257 0 0 0-.495-1.482c-.289-.486-.733-.95-1.3-1.378s-1.126-.692-1.687-.795a4.627 4.627 0 0 0-1.64-.028 6.575 6.575 0 0 0-1.571.403c-.502.176-.98.314-1.428.464-.44.138-.838.234-1.216.269a1.514 1.514 0 0 1-1.04-.302c-.333-.25-.487-.555-.489-.909s.134-.743.448-1.16.657-.756 1.03-1.029c.383-.282.71-.477.975-.562l-1.307-1.952a4.028 4.028 0 0 0-.638.333zM174.062 29c.445.809.884 1.635 1.337 2.44.322.064.594.135.784.233l.463-2.324c-.417-.171-.93-.291-1.533-.342a8.153 8.153 0 0 0-1.05-.007zm4.976-.382 1.152 14.057 7.117-.61-.207-2.297-4.557.358-.315-3.608 4.069-.328-.197-2.34-4.053.355-.306-3.468 4.514-.369-.223-2.324-6.994.574zM56.315 102.43l-4.907 7.812 1.978 1.24 1.763-2.822 9.95 6.235 1.356-2.154-9.951-6.235 1.763-2.822-1.952-1.254zm116.097-65.477c.144.076.272.16.42.226.49.216.973.432 1.382.645.423.212.77.45 1.066.72.293.257.464.608.524 1.033.146 1.036-.44 1.627-1.767 1.814-.532.075-1.04.074-1.528-.02s-.864-.187-1.152-.309l-.517 2.355c.36.153.856.258 1.49.33a8.868 8.868 0 0 0 2.21-.048c.65-.092 1.226-.248 1.733-.496s.919-.586 1.244-.97c.337-.4.573-.868.7-1.415.139-.548.168-1.176.069-1.88s-.328-1.284-.652-1.753c-.054-.08-.11-.152-.168-.228-1.682.115-3.36.077-5.054-.005zm16.034-9.041.369 14.076 7.507-.184-.084-2.333-4.95.115-.311-11.728-2.53.054zM50.95 111.95c-.388.23-.794.6-1.196 1.052s-.753.963-1.083 1.563a5.536 5.536 0 0 0-.582 1.49c-.122.5-.12.992-.025 1.458.084.46.264.903.584 1.323.314.403.781.75 1.38 1.08.647.355 1.244.554 1.813.577s1.117-.034 1.627-.182a8.08 8.08 0 0 0 1.474-.634c.467-.264.887-.481 1.304-.68.422-.212.841-.35 1.234-.425a1.614 1.614 0 0 1 1.144.17c.917.504 1.066 1.361.419 2.537-.259.47-.597.872-.964 1.205s-.68.572-.95.73l1.593 1.822c.338-.196.72-.53 1.159-.994a8.752 8.752 0 0 0 1.279-1.784c.317-.576.533-1.15.64-1.705s.101-1.09-.012-1.581c-.118-.51-.365-.956-.727-1.385-.355-.44-.847-.829-1.47-1.172s-1.2-.543-1.77-.565a4.78 4.78 0 0 0-1.654.197 6.482 6.482 0 0 0-1.49.607c-.472.246-.908.485-1.33.696a6 6 0 0 1-1.192.436 1.526 1.526 0 0 1-1.075-.174c-.364-.2-.556-.453-.608-.803s.052-.764.305-1.222.536-.863.867-1.187c.337-.334.618-.56.869-.682l-1.563-1.768zm146.783-84.203-.387 14.08 7.474.195.07-2.315-4.95-.136.359-11.754-2.566-.07zm-151.75 92.411-3.05 6.344 12.687 6.099 3.1-6.445-2.117-.979-1.978 4.137-3.26-1.582 1.767-3.69-2.117-.98-1.74 3.675-3.142-1.505 1.955-4.052-2.105-1.022zM207.048 28.07l-1.174 14.03 7.092.596.184-2.307-4.56-.399.302-3.602 4.067.358.195-2.35-.872-.073c-.536.633-1.066 1.26-1.64 1.848.18-.641.339-1.286.542-1.937l-2.082-.169.283-3.447 2.955.243c.26-.74.537-1.515.815-2.275l-6.107-.516zM126.48 75.272a140.367 140.367 0 0 0-23.36 16.915c1.045-.081 2.191-.175 3.236-.208a138.907 138.907 0 0 1 21.124-14.975c26.887-15.523 56.815-20.992 85.43-17.532a38.386 38.386 0 0 1-1.064-2.092c-28.637-3.195-58.503 2.383-85.366 17.892zm-116.472 67.39a22.696 22.696 0 0 0-3.133 2.386 197.592 197.592 0 0 0-6.188 35.219c2.443-.013 4.927.36 7.374.397l.596-.092a189.217 189.217 0 0 1 7.337-38.48c-.87-.284-1.715-1.474-2.575-1.147a19.247 19.247 0 0 0-3.411 1.717zm90.908-48.48a138.846 138.846 0 0 0-9.403 9.65l1.572-.402c.282.192.545.444.813.72.08-.087.171-.164.25-.252l-.374-.65c.408-.108.819-.203 1.227-.311a136.843 136.843 0 0 1 10.038-9.801c-1.353.387-2.699.762-4.069 1.014l-.054.031zm-9.403 9.65c-26.697 30.241-38.99 70.733-33.901 110.47.69.105 1.38.15 2.07.211-.029-.222-.067-.444-.095-.666l-.736-.586.652.129c-4.767-38.62 7.112-77.863 32.81-107.422l-1.002-.36c-.008-.802.074-1.383.202-1.776zm37.53-24.122c-11.954 6.902-22.47 15.371-31.402 24.986a45.3 45.3 0 0 1 .653 2.943c2.164.83 4.772 2.522 3.435 1.95-1.15-.492-2.256-.924-3.344-1.353.994 6.093-.509 8.61-4.289 9.946-.5-.756-.904-1.537-1.111-2.426-.41-1.754-.742-3.264-.99-4.589-23.418 28.71-34.006 66.037-29.273 102.674.7.058 1.32.058 1.78.019a6.136 6.136 0 0 0 1.355-.278c.013.307.027.791.036 1.062 1.64-.043 3.308-.075 4.976-.13-2.794-19.411-.98-39.073 4.997-57.409l-.016-.027c-.37-.427-.577-.99-.724-1.566l1.155-.812.426-.137a126.338 126.338 0 0 1 29.253-47.02 14.629 14.629 0 0 0-1.11-1.235c-.293-.532-1.36-2.465-2.216-4.026 2.993.643 6.089 1.526 7.866-.5a92.518 92.518 0 0 0 2.807-3.388c.348.482.668.955.968 1.426a127.85 127.85 0 0 1 18.752-13.208c23.883-13.79 50.363-18.922 75.837-16.397.606-.98.78-1.81.572-2.82.683-.056 1.492-.123 2.314-.181.296-.4.606-.79.91-1.175.011.275.088.498.277.67-.049.138-.064.288-.114.426.398-.026.74-.06 1.143-.082.214.017.457.029.729.012.043.19.102.376.146.565.2-.218.404-.424.606-.638.037-.001.075.009.112.007-.004-.01.016-.032.011-.043a19.408 19.408 0 0 0 2.185-.467l-.464.448c.259-.006.54-.017.783-.02-.511.24-1.016.489-1.524.736l-.517.48c-.026-.065-.04-.114-.067-.179-.288.143-.584.283-.87.43l-.08.047c.045.189.098.377.145.566-.6.578-1.219 1.15-1.814 1.733a127.193 127.193 0 0 1 52.617 19.634l-.022-.6c1.011.053 2.162.464 3.483 1.345 1.326.884 2.171 2.238 2.896 3.704 13.396 10 25.04 22.808 33.935 38.215.318.55.617 1.112.926 1.666.083-.274.151-.553.244-.827 2.953.12 5.71.153 8.366.114.167 1.298.322 2.479.465 3.557-.277.393-.567.803-.851 1.213a170.059 170.059 0 0 0-7.31-2.348c6.302 11.704 10.6 23.957 12.966 36.394.077-.49.18-.978.276-1.459l.058.038c2.767 1.09 5.453 2.308 8.152 3.557-2.372-14.744-7.252-29.328-14.797-43.13-2.329-.068-4.534-.137-6.4-.273.273-.672.503-1.364.773-2.035a56.194 56.194 0 0 1 2.44-3.212C273.623 63.97 192.556 43.04 129.042 79.71zm85.972-11.278c-.064-.265-.112-.536-.174-.802-.56.614-1.124 1.227-1.666 1.864a25.681 25.681 0 0 1 1.84-1.062zm-1.84 1.062c-.517.33-1.016.687-1.561 1.046.214.026.433.032.647.06.302-.37.606-.744.914-1.106zm2.792-1.54c.195-.096.388-.205.584-.3l.74-.717a81.07 81.07 0 0 0-1.732.062c.135.334.279.647.408.956zm-3.144-.819-1.073.079a436.627 436.627 0 0 0-2.239 3.06c.662.07 1.315.153 1.974.232a56.397 56.397 0 0 0 1.338-3.37zm-146.93 147.51c-1.02.026-2.038.043-3.05.028.095.704.173 1.409.28 2.112 2.537 2.04 2.904 1.82 2.77-2.14zm32.492-106.41c-.03-.188-.056-.4-.091-.596-.673-.257-1.31-.427-1.762-.426l-.713.015c.842.314 1.68.658 2.566 1.008zm-2.566-1.007-.373-.146c-.046.052-.07.123-.116.175l.489-.03zm-54.054 23.125a3.956 3.956 0 0 0-1.038 1.14c-.29.462-.526.969-.75 1.515-.242.597-.46 1.183-.646 1.817-.194.617-.358 1.155-.45 1.595l12.872 5.234c.191-.255.377-.539.55-.86s.338-.618.477-.924c.157-.313.284-.604.396-.877l.268-.66c.238-.584.39-1.195.453-1.778s.015-1.104-.139-1.616a3.39 3.39 0 0 0-.812-1.407 4.4 4.4 0 0 0-1.606-1.094c-.497-.202-.94-.316-1.35-.339-.419-.04-.814-.014-1.143.083a2.33 2.33 0 0 0-.882.473c-.256.2-.49.418-.687.685l-.1-.05c.024-.38-.019-.72-.133-1.042a2.851 2.851 0 0 0-.49-.908 3.627 3.627 0 0 0-.781-.668 4.621 4.621 0 0 0-.913-.519c-.659-.268-1.225-.358-1.727-.302a2.731 2.731 0 0 0-1.37.502zm174.542-99.87-1.832 12.388 2.513.353.831-5.748 1.049.441 1.638 5.838 2.882.43-1.785-5.718-.69-.756c.77-.16 1.388-.563 1.902-1.207.53-.654.878-1.566 1.042-2.694.115-.783.06-1.437-.132-1.98-.177-.555-.442-1.01-.824-1.365a3.484 3.484 0 0 0-1.337-.816 7.88 7.88 0 0 0-1.65-.419c-.276-.04-.64-.05-.984-.08a53.68 53.68 0 0 0-2.298 1.145c-.113.06-.215.122-.325.188zM42.628 132.849c.084-.07.2-.125.298-.172.185-.098.376-.154.635-.15s.558.082.881.213c.497.203.843.488 1.047.876.208.375.306.784.296 1.2a5.1 5.1 0 0 1-.1.454 6.889 6.889 0 0 1-.18.5l-.206.517-3.615-1.449c.036-.231.16-.605.367-1.114a2.45 2.45 0 0 1 .354-.637c.068-.095.14-.167.224-.238zm176.08-101.334c.125-.023.287-.045.488-.03s.408.044.62.075c.571.084.957.347 1.167.77.21.41.276.918.188 1.515-.024.167-.062.307-.098.454.114.206.246.398.37.58-.854.986-1.615 2.024-2.19 3.141-.542-.324-.508-1.142-.282-2.11l-.043-.012-.833-.132.612-4.251zm-90.045 52.6.144.062c.003.023 0 .046.004.07-.054-.045-.094-.085-.148-.131zm-80.23 50.724c.2-.136.433-.23.727-.24.281-.015.626.065 1.036.232.646.264 1.058.643 1.257 1.115s.204.963-.01 1.484c-.08.2-.181.433-.295.676a2.41 2.41 0 0 1-.308.467l-3.689-1.515.376-.975c.106-.26.216-.486.35-.707.138-.233.343-.406.555-.537zM37.52 150.63a4.201 4.201 0 0 0-1.33 5.134c.964 2.105 3.451 3.024 5.556 2.06s3.025-3.45 2.061-5.556-3.45-3.024-5.556-2.06c-.263.12-.506.257-.73.422zM237.105 36.193c-2.105.964-3.024 3.45-2.06 5.556s3.45 3.024 5.555 2.06 3.04-3.424 2.077-5.529-3.467-3.051-5.572-2.087zm-24.414 21.276c.145.676.277 1.355.416 2.033.044.005.085.029.128.034a15.729 15.729 0 0 1-.207-2.045l-.337-.022zM.584 181.589a196.496 196.496 0 0 0-.013 30.102c1.888-.223 3.767-.355 5.604-.168-.459 2.173-1.142 4.337-1.471 6.514-1 .25-2.14.479-3.447.655 2.946 26.011 11.137 51.853 25.056 75.961 11.23 19.45 25.318 36.248 41.388 50.186.703-1.684 1.442-3.34 1.807-5.12.183-.896.078-1.826-.12-2.71 1.13.607 2.304 1.182 3.465 1.753-15.377-13.364-28.85-29.47-39.611-48.109C19.585 267 11.642 241.618 8.97 216.115c-.81.738-2.032 1.296-3.675 1.76a235.031 235.031 0 0 0 2.081-6.145c.412.077.83.145 1.234.262a187.841 187.841 0 0 1-.292-26.57c-.61-.481-1.336-.845-2.18-1.086-1.275-.366-2.62-.722-4.013-1.076-.513-.555-1.025-1.122-1.542-1.671zm215.183-123.73c-.196.641-.392 1.282-.585 1.925 33.59 4.626 65.176 21.57 87.651 48.879-1.524-2.552-2.736-4.575-3.503-5.88.176-.22.342-.44.52-.662-.28-.307-.57-.61-.852-.914-.101.134-.212.262-.312.396a23.193 23.193 0 0 1-.825-1.616c-22.116-23.29-51.272-37.81-82.094-42.129zm40.696-18.95-5.25 12.846c.256.19.54.376.86.55s.619.337.924.477c.313.156.605.283.878.395l.703.28c.584.238 1.152.378 1.735.442s1.12.041 1.63-.112a3.523 3.523 0 0 0 1.435-.828c.439-.4.778-.947 1.051-1.618.203-.496.316-.94.34-1.35.04-.418.03-.787-.068-1.116a2.5 2.5 0 0 0-.461-.924 3.584 3.584 0 0 0-.713-.672l.05-.1c.381.024.72-.018 1.042-.133a2.85 2.85 0 0 0 .91-.489 3.56 3.56 0 0 0 .682-.755 4.75 4.75 0 0 0 .503-.94c.269-.658.36-1.225.303-1.726a2.73 2.73 0 0 0-.502-1.37c-.277-.388-.651-.716-1.125-1.01a9.767 9.767 0 0 0-1.504-.792 19.134 19.134 0 0 0-1.844-.632 17.06 17.06 0 0 0-1.58-.423zM31.078 169.469a2.856 2.856 0 0 0-.614.498 3.6 3.6 0 0 0-.843 1.353 7.884 7.884 0 0 0-.42 1.649c-.065.451-.101 1-.14 1.632s-.031 1.202.009 1.764l13.8 2.028.353-2.514-5.748-.83.414-1.033 5.838-1.639.43-2.882-5.718 1.785-.741.717a3.28 3.28 0 0 0-1.195-1.944c-.655-.53-1.566-.878-2.694-1.043-.784-.114-1.437-.059-1.98.133a3.333 3.333 0 0 0-.751.325zm187.074-105.23c.08.578.173 1.132.228 1.709.395.107.705.208 1.083.313l-.627.29a28.54 28.54 0 0 1-1.61-1.416c.308-.3.612-.604.926-.896zM32.329 171.885c.41-.211.89-.26 1.488-.173.796.116 1.385.362 1.724.736.325.373.446.867.355 1.491l-.116.861-4.294-.624c-.022-.125-.018-.303-.002-.504s.044-.408.075-.62c.083-.571.347-.957.77-1.167zM258.072 41.697c.232.036.59.132 1.099.34.236.096.437.226.61.369.19.136.343.308.436.506.099.185.143.419.139.678s-.081.557-.213.88c-.203.497-.487.843-.875 1.047-.375.21-.785.306-1.2.296-.123-.02-.274-.075-.47-.126-.18-.058-.349-.097-.485-.153l-.532-.234 1.491-3.603zm-38.75 25.258c.903.029 1.664.048 1.986.19.427.187.3.657-.068 1.193-.655-.449-1.3-.9-1.917-1.383zm36.515-19.818.947.391c.261.107.502.243.723.377.233.138.418.3.549.513.136.2.202.45.212.743.016.282-.064.626-.232 1.036-.263.646-.626 1.085-1.098 1.284s-.98.177-1.5-.036a14.96 14.96 0 0 1-.676-.295c-.226-.121-.367-.204-.451-.281l1.526-3.732zM28.67 178.797l-.6 7.022 14.044 1.201.58-7.119-2.307-.183-.398 4.56-3.602-.302.33-4.052-2.322-.21-.358 4.067-3.447-.283.402-4.49-2.322-.21zM266.365 42.935l-6.083 12.713 4.987 2.39c.013-.731.007-1.47-.006-2.199l.15-.303-1.845-.883 1.567-3.286 1.802.872c.314-.724.626-1.441.921-2.155l-1.701-.822 1.478-3.127 1.542.733c.309-.748.616-1.464.92-2.155l-3.732-1.778zm-38.639 29.2c.94-.426 1.9-.842 2.867-1.222a74.364 74.364 0 0 1 3.108 4.196 228.047 228.047 0 0 1-5.975-2.974zM27.805 192.612l-.059 2.523 14.053.403.222-7.49-2.34-.055-.138 4.95-11.738-.331zM300.534 43.054c-.56.423-1.14.838-1.673 1.29.84.566 1.68 1.146 2.512 1.726.634-.356 1.277-.71 1.894-1.094-.91-.641-1.813-1.298-2.733-1.922zM27.83 201.906l.096 2.543 14.061-.396-.196-7.465-2.349.057.143 4.934-11.755.327zM285.854 53.442c-.75.45-1.492.915-2.242 1.366l.61.37-.561.901c1.088-.658 2.165-1.33 3.254-1.987l-1.06-.65zm-9.053 5.443c-1.57.948-3.13 1.91-4.7 2.858l.212.058a3.857 3.857 0 0 0 1.582-.011c.254-.06.505-.163.739-.283s.474-.252.688-.433c.44-.355.829-.847 1.172-1.47.136-.248.221-.48.307-.719zM4.504 220.065c-.006.444.004.896.052 1.341a38.7 38.7 0 0 0 .388 2.735l-.794 1c-.535.321-1.089.6-1.655.883.409-1.406 1.155-3.559 2.009-5.959zm23.539-13.23.589 7.022 14.015-1.163-.567-7.107-2.34.197.4 4.568-3.623.287-.355-4.052-2.313.18.328 4.069-3.44.29-.381-4.471-2.313.18zm250.375-142.46-.446.726.334.204 2.266.424.523-.843c-.771-.148-1.608-.317-2.677-.512zm-94.594 62.407c-2.55 1.473-4.76 3.193-6.62 5.158-1.897 1.904-3.252 4.02-4.085 6.363-.868 2.283-1.152 4.824-.862 7.57.317 2.652 1.375 5.506 3.163 8.603 1.928 3.34 4.137 5.83 6.623 7.47s5.063 2.822 7.744 3.54a41.39 41.39 0 0 0 8.235 1.2c2.8.083 5.384.252 7.785.485 2.462.197 4.69.662 6.65 1.393 1.925.67 3.438 1.955 4.56 3.898 2.735 4.736 1.061 8.878-5.01 12.383-2.43 1.403-4.9 2.357-7.446 2.855s-4.637.726-6.272.699l2.203 12.44c2.044.035 4.676-.388 7.89-1.271 3.274-.92 6.792-2.479 10.557-4.652 2.975-1.718 5.447-3.644 7.42-5.836s3.374-4.543 4.198-7.042c.849-2.595 1.04-5.346.583-8.24-.396-2.928-1.524-6.015-3.382-9.233a28.471 28.471 0 0 0-.7-1.148c-.08.226-.169.453-.252.687-.557.507-1.139.978-1.781 1.353-.056.086-.12.166-.181.25-.015-.04-.02-.085-.035-.125-.22.122-.447.221-.681.321-.89.378-1.788-.142-2.678-.763a14.762 14.762 0 0 0 2.68-1.295c-.08-.206-.167-.41-.247-.615.178-.204.384-.379.568-.58l.03.054c-.183.38-.3.754-.27 1.094l.109-.063c.21-.135.383-.399.532-.704.135.047.291.029.441-.11.323-.3.527-.659.693-1.05a21.669 21.669 0 0 0-1.956-2.262c-.142.727-.062 1.666.158 2.398a9.901 9.901 0 0 1-.356 1.072c-.045-.118-.087-.238-.133-.356-.233-1.423-.396-2.72-.56-3.97a16.905 16.905 0 0 0-1.895-1.47c-2.52-1.701-5.157-2.874-7.9-3.557-2.716-.78-5.469-1.24-8.27-1.324a508.09 508.09 0 0 1-7.859-.55c-2.4-.233-4.542-.657-6.432-1.266-1.925-.67-3.375-1.847-4.357-3.547-1.087-1.882-1.261-3.678-.547-5.385s2.228-3.235 4.596-4.602 4.738-2.354 7.092-2.904c2.415-.585 4.331-.802 5.784-.67l-2.252-12.087c-.02-.022-.025-.058-.047-.08-2.347-.01-5.032.462-8.036 1.392-3.022.935-6.095 2.292-9.192 4.08zm40.387 37.016-.08.047c.223.58.455 1.157.678 1.737l.216-.125c.24-.365.423-.767.588-1.17-.42.403-.792.572-1.139.153a1.144 1.144 0 0 1-.263-.642zm1.402.49c.355-.341.758-.83 1.153-1.315a25.4 25.4 0 0 0-.597-.847 8.154 8.154 0 0 1-.556 2.162zM29.348 216.222c-.172.417-.292.93-.342 1.532s-.021 1.265.074 1.942a5.55 5.55 0 0 0 .457 1.54c.202.473.471.868.827 1.183.343.318.75.536 1.259.68.493.134 1.09.158 1.768.063.73-.104 1.326-.317 1.795-.64s.874-.698 1.193-1.122c.318-.438.583-.886.8-1.364.216-.49.42-.93.634-1.34a4.92 4.92 0 0 1 .731-1.108c.257-.294.608-.464 1.033-.524 1.036-.146 1.627.439 1.814 1.767.075.532.074 1.04-.02 1.527s-.214.88-.336 1.169l2.382.5c.153-.36.257-.856.33-1.49.072-.646.041-1.37-.075-2.193-.092-.65-.248-1.227-.496-1.734s-.56-.934-.944-1.26a3.32 3.32 0 0 0-1.414-.699c-.548-.14-1.176-.168-1.88-.069s-1.284.328-1.753.651c-.482.326-.902.7-1.22 1.138a6.459 6.459 0 0 0-.827 1.38c-.23.479-.45.932-.66 1.355a5.86 5.86 0 0 1-.694 1.05c-.256.293-.548.479-.92.531-.412.058-.745-.041-.997-.29s-.417-.643-.49-1.16-.074-.986-.003-1.443c.07-.47.17-.861.297-1.11l-2.323-.462zm69.906-40.108a100.232 100.232 0 0 0-8.557 5.554c-2.775 1.926-5.08 3.638-6.873 5.159l36.281 62.841c1.607-.442 3.314-1.037 5.058-1.802s3.386-1.567 4.94-2.382a65.971 65.971 0 0 0 4.466-2.326l3.275-1.891c2.853-1.648 5.348-3.596 7.478-5.797s3.714-4.595 4.72-7.2c1.067-2.64 1.462-5.444 1.187-8.443-.248-3.095-1.328-6.3-3.22-9.58-1.403-2.428-2.922-4.337-4.546-5.747-1.598-1.506-3.226-2.58-4.898-3.234-1.708-.714-3.442-1.047-5.199-1.004a18.522 18.522 0 0 0-5.04.709l-.312-.542c1.324-1.493 2.235-3.09 2.793-4.788.618-1.733.918-3.476.876-5.232a18.737 18.737 0 0 0-.973-5.248c-.547-1.79-1.255-3.486-2.166-5.064-1.858-3.218-3.933-5.523-6.182-6.896-2.285-1.433-4.699-2.172-7.247-2.239-2.488-.102-5.108.34-7.843 1.353-2.674.977-5.347 2.257-8.018 3.8zM313.429 53.326c-.454.263-.89.542-1.338.809a181.885 181.885 0 0 1 21.196 20.274c.143-.697.372-1.84.497-2.451a183.875 183.875 0 0 0-19.868-18.913l-.487.282zm-185.216 107.26 36.812 63.76 32.26-18.624-3.813-6.604c-.307.556-.652 1.1-1.008 1.629a35.631 35.631 0 0 1-4.94 5.883c-1.272.7-2.54 1.387-3.792 2.117a1.14 1.14 0 0 0-.482-.335c-.93-.308-1.585-.547-2.473-.845.722-2.415 1.17-4.927 1.754-7.4l-12.125 7-9.468-16.4 18.484-10.672-6.094-10.555-18.484 10.672-9.047-15.67 20.406-11.78-6.11-10.583-31.88 18.407zm77.698-44.86c1.471.111 2.93.212 4.386.283-1.806.66-3.473 1.717-5.14 2.787l4.97 8.606 15.1-8.719 30.704 53.18 11.475-6.626-11.953-20.703c-.666-.572-1.28-1.075-1.693-1.368l.119-.358c.1-.157.208-.309.308-.466l-17.484-30.284 15.128-8.734-6.11-10.582-31.799 18.36c-.072.07-.126.15-.197.221l-.128-.034-7.686 4.437zm7.25-4.005.128.034c-.27.292-.499.553-.72.814.123-.166.442-.644.592-.848zm79.251-44.42c.12.314.236.599.334.89 1.023.22 2.043.454 3.065.683a6.268 6.268 0 0 0-.178-.87c-1.071-.249-2.149-.46-3.22-.704zm-74.174 43.401a184.45 184.45 0 0 1 2.829 3.275c-.958-.355-1.904-.743-2.865-1.088.093-.91.1-1.633.036-2.187zm82.257-46.589c-.128.173-.262.34-.389.514l.499-.324c-.026-.064-.078-.125-.11-.19zm-82.384 49.369c1.283.468 2.514.94 3.74 1.414a66.876 66.876 0 0 1 2.455 3.128c-2.17.101-4.346.195-6.38-.177-.208-.038-.413-.114-.614-.187.404-1.682.652-3.054.8-4.178zm84.677-48.022-9.084 10.765 5.428 4.589 1.504-1.77-3.51-2.954 2.34-2.759 3.14 2.626 1.504-1.77-3.112-2.642 2.22-2.653 3.452 2.915 1.503-1.77-5.385-4.577zm-7.027 5.14c-.794 1.081-1.372 1.897-2.07 2.854.45-.287.888-.682 1.286-1.211.417-.553.675-1.097.784-1.643zM103.824 186.719c.523-.323 1.11-.641 1.732-1 1.154-.666 2.27-1.138 3.417-1.396 1.172-.353 2.335-.398 3.449-.15 1.079.186 2.145.696 3.2 1.543s2.024 2.068 2.935 3.646c1.403 2.43 1.927 4.767 1.528 7.021-.338 2.22-1.2 4.168-2.575 5.853-.476.437-1.133.997-1.973 1.644a36.527 36.527 0 0 1-2.227 1.394l-2.652 1.531-10.203-17.672c.669-.63 1.802-1.449 3.37-2.414zm-72.95 42.334 2.052 8.991 2.265-.514-.728-3.26 11.45-2.606-.569-2.486-11.45 2.606-.755-3.245-2.265.514zM309.948 71.61l-9.676 10.241 3.445 3.28c.767-.337 1.519-.705 2.275-1.06l-2.3-2.173 8.097-8.536-1.841-1.752zM33.816 239.587c-.11.437-.152.942-.117 1.547s.148 1.24.338 1.898c.157.54.382 1.022.662 1.458.268.439.62.811 1.016 1.073.385.266.808.422 1.332.494.507.062 1.11 0 1.767-.19.708-.205 1.263-.512 1.682-.9s.746-.798 1.002-1.263c.252-.478.478-.976.625-1.48.144-.516.279-1.004.432-1.44a4.64 4.64 0 0 1 .56-1.154c.213-.326.543-.54.955-.659 1.005-.291 1.676.199 2.05 1.487.149.516.212 1.02.188 1.515s-.058.896-.138 1.198l2.404.164c.1-.378.15-.883.133-1.52-.021-.65-.166-1.39-.397-2.188-.184-.631-.412-1.17-.729-1.637s-.717-.84-1.144-1.107c-.444-.276-.94-.422-1.498-.47-.563-.06-1.181.012-1.864.21s-1.252.47-1.67.856c-.432.39-.762.829-1.014 1.307a6.44 6.44 0 0 0-.625 1.48c-.16.507-.283.991-.432 1.44a5.87 5.87 0 0 1-.534 1.138 1.48 1.48 0 0 1-.857.64c-.4.115-.775.064-1.06-.147s-.478-.58-.624-1.083-.218-.967-.212-1.43c.002-.474.05-.864.142-1.128l-2.372-.11zm37.94-19.848c-.077.302-.159.611-.224.923-1.778 1.019-4.227 2.477-6.94 4.043.691 3.226 1.49 6.446 2.427 9.64 2.396-1.586 4.735-3.068 7.05-4.539a126.206 126.206 0 0 1-2.312-10.067zm270.025-155.43c1.034 3.813.992 6.783 1.476 12.932-.134.165-.295.316-.447.475a190.113 190.113 0 0 1 16.815 24.5c18.26 31.628 26.287 66.348 25.16 100.33.429.177.857.36 1.24.583 3.398.296 3.25.13 3.492.799-.54.85-.839 2.028-.583 3.115.72-.3 1.452-.566 2.19-.832l.074.066c-.76.345-1.575.71-2.209.987.324 1.043 1.195 1.982 2.918 2.429.17-.142.335-.295.506-.437 2.485-37.48-5.708-76.074-25.887-111.025a196.853 196.853 0 0 0-24.745-33.922zm47.208 142.955c-.023-.073-.038-.147-.055-.221-.953.398-1.872.828-2.777 1.315a30.27 30.27 0 0 0 2.832-1.094zm-2.832 1.094c-.584.187-1.13.333-1.67.422-3.314 49.95-26.43 97.803-66.134 131.389.252.342.493.708.71 1.105a29.91 29.91 0 0 0-1.003-.864c-.337.284-.689.565-1.028.846a28.818 28.818 0 0 0 3.185 3.141c.314 1.55.1 2.75-1.035 2.582a80.636 80.636 0 0 1-5.167-.95c.177-.857.293-1.739.403-2.614a189.839 189.839 0 0 1-23.766 16.211c-22.43 12.95-46.408 20.774-70.575 23.823.314 3.066.555 5.329.54 6.436-.26.24-.538.441-.8.678-.677-.701-2.06-2.776-3.904-5.576.623-.407 1.27-.81 1.94-1.264-51.58 5.88-103.831-9.902-143.6-43.785-1.716 4.804-2.612 6.96-2.922 8.001 61.433 50.695 150.335 60.79 223.337 18.642 5.232-3.02 10.24-6.268 15.085-9.683-.102-.336-.192-.685-.3-1.019.44-1.042 1.015-2.059 1.596-3.05 1.611.072 3.666-1.304 4.847-.416a195.12 195.12 0 0 0 53.97-63.708c-.134.016-.274.015-.418.025.479-3.288.936-6.583 1.41-9.871.727 1.164 1.495 2.557 1.975 3.983a196.597 196.597 0 0 0 2.507-5.344c-1.363-.696-2.656-1.5-3.949-2.34.048-.338.088-.677.135-1.016 1.411.68 2.964 1.646 4.198 2.52a197.67 197.67 0 0 0 14.717-49.633c-.874-1.11-2.067-2.399-3.54-3.945a19.007 19.007 0 0 1 4.24-.969c.1-.757.22-1.514.311-2.273a84.881 84.881 0 0 1-2.743-2.313c-.584-.514.34 1.507.514 2.265-1.031.567-1.966 1.36-3.09 1.712-.191.06-.41.085-.607.134-.458-.47-.83-.869-1.344-1.39-.023-.022-.05-.042-.074-.065.169-2.408 1.126-4.897.836-7.302-.162-1.347-.293-2.45-.45-3.53.54-.347 1.099-.692 1.663-.995zM59.933 227.323a138.697 138.697 0 0 0 2.677 10.073c.566-.412 1.145-.808 1.72-1.209a136.51 136.51 0 0 1-2.568-9.884c-.6.336-1.217.684-1.829 1.02zM317.294 78.772c-.655.75-1.325 1.524-1.963 2.288l-7.128 8.59 1.137 1.22c.527-.607 1.03-1.213 1.53-1.786l-1.016-1.073 8.546-8.074-1.106-1.165zm16.537-6.733c-.173 1.035-.27 1.89-.35 2.583l.016.027.405.452c.169-.45.417-1.341.692-2.24-.25-.28-.512-.544-.763-.822zm6.472-1.103c-.08.02-.177.142-.258.366-.28.765-.475 1.53-.645 2.32.667.779 1.32 1.57 1.976 2.36-.196-1.946-.588-5.163-1.073-5.046zM36.099 248.914l2.343 6.622 11.285-3.954c.408-.913.828-1.811 1.31-2.668l-1.672-4.772-2.195.761 1.535 4.347-3.429 1.185-1.35-3.839-2.222.778 1.366 3.866-3.278 1.135-1.488-4.265-2.205.804zM322.995 84.898l-.946.798a20.316 20.316 0 0 1-.943 4.117l1.745-1.477 2.896 3.453 1.8-1.508-4.552-5.383zm14.024-6.148c.396.475.8.96 1.192 1.44.155.069.32.127.474.196.018-.4.048-.796.068-1.194l-1.734-.442zm1.734.442c.525.133 1.006.256 1.521.384-.477-.589-.939-1.195-1.422-1.776-.033.464-.075.926-.099 1.392zm-.068 1.194c-.005.121-.001.242-.006.364.099.122.19.253.288.375.137-.14.262-.281.41-.417-.232-.106-.457-.216-.692-.322zm.691.322c.71.328 1.414.658 2.09.995-.05.782-.13 1.57-.195 2.35 5.034 6.504 9.715 13.389 13.942 20.71 39.433 68.3 29.916 151.415-17.641 208.757 1.117.113 1.619.262.668.408-.34.052-.784.137-1.204.226-13.41 16.02-29.787 30.008-48.932 41.061-18.147 10.477-37.349 17.49-56.826 21.262.044.215.098.408.092.596-.085.21-.481 1.157-.514 1.235a2.327 2.327 0 0 1-.51.367c20.143-3.747 40.006-10.901 58.758-21.728 88.635-51.173 118.987-164.534 67.814-253.169a186.623 186.623 0 0 0-16.449-23.99c-.372.305-.752.606-1.093.92zM320.65 91.087c-.32.82-.663 1.636-1.043 2.442l1.445 1.692 1.784-1.536-2.186-2.598zM49.847 248.915c-.29.96.111 2.637-.863 2.88a3.715 3.715 0 0 1-1.593.053c.47-.731.931-1.471 1.393-2.211.36-.249.68-.453 1.063-.722zM317.83 97.01c-.39.742-.74 1.496-1.126 2.238l.136.174 1.773-1.493-.783-.919zM41.539 257.212a2.695 2.695 0 0 0-.583.553c-.327.4-.533.842-.607 1.324-.079.47-.077.98.05 1.524a9.82 9.82 0 0 0 .53 1.606c.25.593.544 1.16.86 1.74.299.573.556 1.073.802 1.45l12.81-5.375c-.046-.315-.126-.673-.23-1.022s-.193-.661-.31-.976c-.111-.331-.235-.645-.35-.917s-.205-.496-.278-.669c-.21-.5-.48-.944-.781-1.353-1.486-.237-3.16-.681-4.796-1.056l.135-.33a4.836 4.836 0 0 0-.205.082 4.297 4.297 0 0 0-1.203.73 2.957 2.957 0 0 0-.732.856 2.33 2.33 0 0 0-.322.944 3.51 3.51 0 0 0 .016.965l-.108.062a2.683 2.683 0 0 0-.852-.663 2.65 2.65 0 0 0-.955-.279 3.58 3.58 0 0 0-1.019.048 4.72 4.72 0 0 0-1.018.299c-.328.138-.612.29-.855.457zm287.416-164.93-11.176 8.33 1.536 2.035 4.663-3.486.427 1.053-2.988 5.261 1.75 2.345 2.791-5.291.023-1.024c.413.271.854.43 1.332.494.099-.79.15-1.412.17-1.83-.246.042-.48.087-.72.127-.284.73-.419 1.153-.07.004-.639.107-1.308.213-1.914.311-.43-2.382-.237-4.364.908-3.303.119.11.225.233.343.344l1.835-1.384c.283-.97.717-2.437 1.114-3.82.285.994.978 3.304 1.968 6.659a23.17 23.17 0 0 0-2.147.843c-.138.024-.252.055-.388.079.454.483.909.962 1.348 1.459a7.166 7.166 0 0 0 1.04-.636c.634-.474 1.09-.975 1.338-1.495a3.49 3.49 0 0 0 .264-.73c-.203.065-.4.14-.603.204-1.274-2.916-2.15-5.167-2.637-6.38-.064-.057-.143-.114-.207-.17zm-.543 7.747c-.161-.172-.315-.347-.479-.517a2.17 2.17 0 0 1-.441.11c.006.132 0 .34-.01.547.317-.054.607-.083.93-.14zm-1.72.271.07-.004c.087-.224.174-.466.269-.66l-.128-.034-.21.699zm-210.83 115.517 4.654-2.687a27.136 27.136 0 0 1 3.81-1.839c1.32-.519 2.604-.698 3.9-.556 1.262.081 2.523.569 3.771 1.468 1.212.838 2.416 2.248 3.573 4.251 1.823 3.158 2.387 6.035 1.694 8.621s-2.334 4.631-4.884 6.104a75.849 75.849 0 0 1-3.322 1.809c-1.223.545-2.137.864-2.728.962l-10.469-18.133zm-90.165 52.706a186.9 186.9 0 0 0 10.224 20.583c31.08 53.833 85.116 86.177 142.604 91.811.002-.526-.008-.96-.003-1.442l3.837-.23c-1.28-.1-2.552-.19-3.828-.316-56.803-5.617-110.157-37.61-140.879-90.823a185.367 185.367 0 0 1-8.923-17.58c-1.03-.572-2.043-1.27-3.032-2.003zm17.788-9.44c.127-.079.26-.14.422-.207.494-.208.96-.24 1.38-.11.412.117.758.321 1.045.623.072.1.158.215.261.39.085.168.155.355.212.491l.227.518-3.606 1.505c-.138-.19-.311-.525-.524-1.033a2.368 2.368 0 0 1-.181-.689 1.255 1.255 0 0 1 .059-.647c.06-.2.199-.403.385-.583.093-.09.193-.179.32-.258zm5.45-2.497c.149-.096.31-.211.515-.297.643-.27 1.226-.31 1.7-.116s.799.554 1.017 1.073c.083.198.187.417.278.67.074.245.1.439.104.553l-3.687 1.552-.408-.956c-.109-.26-.166-.52-.228-.77-.067-.263-.088-.498-.03-.74.045-.238.164-.465.365-.68.094-.106.226-.194.375-.29zm28.48-16.298c-.245.45-.465.903-.646 1.383-.393 1.046-.624 2.155-.784 3.267a164.062 164.062 0 0 1-4.423 2.338c2.297 5.628 4.969 11.17 8.093 16.58a135.188 135.188 0 0 0 15.718 21.85c-.207-3.147-.142-5.677.186-7.865l.386-.332c.996-.026 1.92-.047 2.896-.047a128.026 128.026 0 0 1-12.23-17.621 127.886 127.886 0 0 1-9.197-19.553zm-10.437 9.237a141.082 141.082 0 0 0 8.293 16.863 140.087 140.087 0 0 0 22.223 28.991 61.05 61.05 0 0 1-.687-1.877c.412-.084.83-.206 1.239-.354a138.193 138.193 0 0 1-21.07-27.745c-3.16-5.473-5.868-11.08-8.203-16.77-.611.302-1.186.595-1.795.892zm247.15-128.8c-.583.355-1.15.71-1.743 1.043.434.675.86 1.352 1.284 2.037.24-.266.491-.525.737-.786.107.875.19 1.567.301 2.46.396.66.797 1.318 1.184 1.987 25.51 44.187 23.803 96.619.07 137.873.38.811.573 1.252 1.015 2.194 24.724-42.034 26.764-95.831.647-141.067a141.66 141.66 0 0 0-3.495-5.74zM53.376 273.652a4.13 4.13 0 0 0-1.48 1.937c-.807 2.17.296 4.59 2.466 5.396s4.59-.296 5.396-2.466-.323-4.573-2.493-5.38a4.16 4.16 0 0 0-3.889.513zM334.604 112.44a4.13 4.13 0 0 0-1.48 1.937c-.807 2.17.296 4.59 2.466 5.396s4.573-.323 5.38-2.493-.28-4.562-2.45-5.369a4.218 4.218 0 0 0-3.916.529zM69.699 285.049l-2.775 5.319-.023 1.023c-.656-.431-1.381-.59-2.2-.498-.837.089-1.732.486-2.646 1.167-.634.473-1.063.959-1.311 1.479-.267.517-.39 1.027-.37 1.548.002.518.102 1.028.345 1.533a8.06 8.06 0 0 0 .886 1.473c.273.366.594.782 1.014 1.255s.84.886 1.265 1.254l11.177-8.329-1.494-2.024-4.679 3.459-.438-1.01 3-5.304-1.751-2.345zm65.579-35.914c-1.718.992-3.216 2.123-4.47 3.447-1.277 1.283-2.19 2.717-2.752 4.295-.585 1.538-.785 3.253-.59 5.104.213 1.786.923 3.722 2.127 5.808 1.3 2.25 2.786 3.933 4.46 5.039s3.418 1.876 5.225 2.36a27.72 27.72 0 0 0 5.523.817 79.55 79.55 0 0 1 5.269.314c1.658.133 3.16.457 4.481.949 1.297.45 2.314 1.32 3.07 2.63 1.842 3.19.713 5.975-3.378 8.337-1.636.944-3.307 1.59-5.022 1.925-1.715.336-3.141.483-4.243.465l1.5 8.408c1.376.023 3.145-.27 5.31-.865 2.205-.619 4.597-1.68 7.133-3.144 2.004-1.157 3.642-2.476 4.971-3.952s2.27-3.05 2.824-4.734c.572-1.748.717-3.591.41-5.54-.267-1.974-1.04-4.052-2.292-6.22s-2.708-3.797-4.382-4.903c-1.698-1.146-3.45-1.965-5.298-2.426a22.607 22.607 0 0 0-5.582-.855 340.79 340.79 0 0 1-5.3-.368c-1.618-.157-3.049-.45-4.322-.86a5.596 5.596 0 0 1-1.784-1.027c-.177.252-.361.497-.543.746-.356-.135-.754-.263-1.13-.394-.043-.529-.075-1.059-.22-1.569-.198-.7-1.987-1.433-1.321-1.727.463-.204.906-.425 1.377-.614a3.591 3.591 0 0 1 .292-1.432c.019-.045.04-.098.061-.144-.098-.008-.196-.004-.294-.01.144-.102.301-.188.444-.293.543-.981 1.496-1.873 2.891-2.68 1.596-.92 3.212-1.569 4.798-1.94 1.627-.393 2.915-.532 3.894-.443l-1.53-8.21c-1.587-.011-3.409.312-5.445.942s-4.076 1.56-6.162 2.764zm130.613-75.084c-1.391.803-3.011 1.845-4.84 3.118s-3.467 2.558-4.932 3.895l24.547 42.516 7.713-4.453-10.234-17.727 3.782-1.137 17.25 12.63 8.904-5.141-17.387-11.865-3.603-.554a11.202 11.202 0 0 0 2.05-3.637l-.32-.429c.297-.843.597-1.682.9-2.504.023-.314.067-.618.07-.942.033-2.965-.983-6.2-2.99-9.677-1.393-2.413-2.924-4.142-4.64-5.224-1.698-1.146-3.482-1.805-5.31-1.95-1.812-.208-3.64.012-5.506.653a27.55 27.55 0 0 0-5.454 2.428zm71.59-41.189c.046.316.11.646.214.995s.209.689.326 1.003c.111.332.235.645.35.917s.205.496.278.67c.245.58.55 1.07.917 1.526s.771.834 1.242 1.088a3.432 3.432 0 0 0 1.58.423c.593.027 1.24-.1 1.908-.38.495-.209.896-.456 1.203-.73.324-.268.568-.555.732-.857a2.42 2.42 0 0 0 .306-.97c.04-.322.035-.637-.016-.965l.124-.036c.252.287.527.49.836.636.315.159.636.272.97.306a3.44 3.44 0 0 0 1.004-.075c.353-.06.712-.136 1.034-.272.655-.275 1.123-.616 1.437-1.01.327-.4.533-.842.607-1.324.079-.47.05-.964-.077-1.508a9.742 9.742 0 0 0-.503-1.622c-.25-.593-.56-1.187-.876-1.767a16.449 16.449 0 0 0-.812-1.407l-12.783 5.359zM151.134 241.1l24.797 42.95 21.705-12.531-4.11-7.118-13.991 8.078-6.375-11.042 12.476-7.203-4.11-7.118-12.476 7.204-6.093-10.555 5.25-3.031c-.024-.024-.051-.041-.074-.066.157-.054.322-.114.48-.169l1.678-.968c-.803.285-1.603.57-2.4.844-.78-.893-1.547-1.91-2.372-2.672.291-.205.463-.342.738-.534-.378-.08-.756-.13-1.133-.212.906-.292 1.805-.606 2.705-.877.508-.35 1.144-.76 1.589-1.061-.791-.246-1.526-.619-2.044-1.166.397-.195.8-.387 1.199-.548.7.26 1.378.554 2.054.871.408-.271.674-.434 1.025-.663.087.428.166.848.23 1.274.048.026.084.077.132.104 1.09-.302 2.177-.592 3.28-.883.109.07.225.13.334.204-1.278.533-2.295.902-2.976 1.033.687.425.997 1.308 1.049 2.317l3.004-1.735-4.11-7.117-21.46 12.39zm21.518-5.855c-.01-.005-.007-.023-.016-.028-.2-.119-.419-.214-.622-.326l-.124.035c-.006-.046-.002-.093-.008-.14-.407-.22-.836-.414-1.254-.61-.366.244-.793.56-1.21.843.4.124.817.21 1.234.262-.938.266-1.883.516-2.822.799l-1.573 1.088c1.925.404 3.853.796 5.792 1.095.061-.964.017-1.942-.106-2.934.176-.01.349-.02.515-.045l.194-.04zm-.603 3.018c-.006.089-.019.18-.026.267l.379-.218-.353-.05zm5.445-12.381 17.094 29.607c.24-.945.51-2.048.822-3.326 1.374-.254 2.743-.462 4.026-.34.053 2.085.167 4.171.334 6.267-.043.066-.098.125-.143.19a65.747 65.747 0 0 0-2.832-1.468c-.56-.275-.989-.184-1.337.123l-.09-.093 6.923 11.989 22.814-13.172-4.11-7.117-15.1 8.718-7.313-12.665a4.115 4.115 0 0 1-.985-1.02l.125-.469-12.515-21.678-7.713 4.454zm26.008-15.016 24.797 42.95 22.814-13.172-4.11-7.118-15.1 8.719-10.829-18.755-.224.237-.479-.517.422-.207-9.578-16.59-7.713 4.453zm25.98-15 24.797 42.95 21.732-12.547-4.11-7.118-13.991 8.078-6.375-11.042 12.45-7.187-4.11-7.118-12.45 7.188-6.093-10.555 13.748-7.938-4.11-7.117-21.488 12.406zM64.43 293.612c.458-.266.888-.39 1.266-.37.494.033.918.298 1.295.804l.518.71-3.457 2.574c-.105-.072-.212-.19-.343-.343s-.266-.322-.394-.494c-.344-.463-.429-.908-.277-1.356.14-.44.437-.856.92-1.217.162-.12.32-.22.472-.308zm275.876-159.17 3.687-1.55.392.928c.11.26.194.504.255.755.067.262.078.54.02.782a1.376 1.376 0 0 1-.366.68c-.188.21-.496.387-.904.559-.643.27-1.184.32-1.659.127s-.84-.565-1.059-1.084c-.083-.198-.16-.433-.25-.685-.075-.246-.111-.397-.116-.511zm5.544-2.334 3.59-1.532c.139.19.326.554.54 1.06.099.235.133.48.155.705.038.23.041.426-.033.632-.06.2-.198.403-.385.583s-.447.345-.769.48c-.494.208-.934.225-1.352.095a2.257 2.257 0 0 1-1.045-.623 4.964 4.964 0 0 1-.278-.417c-.084-.168-.166-.313-.222-.45l-.2-.533zM162.31 240.205c-.04.186-.104.369-.149.554-.002-.143.002-.29.002-.434l.147-.12zm108.422-59.458c1.759-1.016 3.382-1.19 4.885-.476 1.48.673 2.75 1.95 3.812 3.79 1.417 2.454 1.992 4.557 1.695 6.31-.32 1.712-1.45 3.111-3.373 4.22l-2.652 1.532-7.578-13.126c.297-.335.758-.707 1.348-1.103s1.208-.77 1.863-1.147zM76.043 293.475l-1.773 1.492 2.927 3.506-2.757 2.35-2.638-3.132-1.773 1.493 2.638 3.131-2.653 2.218-2.907-3.41-1.772 1.493 4.551 5.383 10.74-9.087-4.583-5.437zm265.111-151.439 2.364 6.719 2.178-.79-1.519-4.318 3.413-1.213 1.366 3.866 2.222-.777-1.366-3.867 3.235-1.146 1.515 4.25 2.195-.762-2.333-6.665-13.27 4.703zM101.97 281.068c.145 1.004.288 2.024.49 3.037-.674.646-1.44 1.253-2.069 1.916-.802.847-1.565 1.746-2.349 2.619.94 1.003 1.874 2.01 2.84 2.98.967-.673 1.924-1.495 2.838-2.397a119.146 119.146 0 0 0 2.194 7.177 134.065 134.065 0 0 0 19.82 14.827l.387-.08c-.069.07-.144.129-.213.195.875.536 1.73 1.079 2.616 1.593-.548-.69-.935-1.41-1.09-2.076a43.11 43.11 0 0 1 6.31-.757c2.299 4.545 2.142 3.44 2.81-.07.306-.002.605.012.91.015-.19 1.896-.653 3.729-1.549 5.44a1.6 1.6 0 0 1-1.097.85 135.287 135.287 0 0 0 19.188 8.047l.201-.152a29.21 29.21 0 0 0 1.733-.748c-.17.223-.305.371-.482.603-.155.203-.276.432-.423.642a135.406 135.406 0 0 0 49.91 6.258c1.463-3.92 3.311-6.495 5.61-8.47a126.56 126.56 0 0 1-23.608.422c2.01.884 3.496 1.634 4.515 2.445-2.502-.007-5.01-.223-7.31-.037.57-.678 1.07-1.212 1.461-1.53.4-.325.828-.607 1.264-.874-32.057-2.446-62.733-17.06-84.907-41.875zm-20.64 18.627-.092.09.108-.062-.016-.028zm-.768.733-.942.868 1.017 1.073a3.213 3.213 0 0 1-.266-1.398c.01-.212.079-.378.191-.543zm1.426-.03c-.356.746-.735 1.479-1.098 2.222l2.138 2.266-8.546 8.073 1.722 1.857 10.255-9.674-4.47-4.744zm262.32-150.837c-.1.378-.15.883-.133 1.52.021.65.15 1.363.382 2.161.183.631.427 1.197.744 1.664s.702.813 1.129 1.08a3.29 3.29 0 0 0 1.487.513c.562.06 1.207-.028 1.89-.226s1.21-.48 1.628-.867a4.88 4.88 0 0 0 1.04-1.323c.27-.469.455-.947.599-1.464.16-.507.325-.98.474-1.428a5.87 5.87 0 0 1 .534-1.138 1.48 1.48 0 0 1 .857-.64c.4-.116.732-.076 1.017.135s.506.564.652 1.067c.009.033.01.064.02.097.792.097 1.605.12 2.43.148a9.853 9.853 0 0 0-.229-1.023 5.521 5.521 0 0 0-.661-1.458 3.274 3.274 0 0 0-1.001-1.046 3.15 3.15 0 0 0-1.375-.505c-.507-.063-1.067.01-1.724.201-.708.206-1.279.485-1.697.872s-.773.815-1.03 1.28a7.99 7.99 0 0 0-.582 1.491c-.144.516-.294.977-.447 1.413-.15.448-.32.85-.545 1.18-.213.328-.543.54-.955.66-1.005.291-1.676-.199-2.05-1.487-.149-.515-.212-1.02-.188-1.515s.058-.896.138-1.198l-2.404-.164zM87.176 305.883l-1.605 1.72 3.577 3.384-8.07 8.52 1.84 1.752 9.692-10.214-5.434-5.162zm17.686-6.242c-.617.332-1.147.734-1.564 1.228a139.609 139.609 0 0 0 45.261 27.02c.725-.42 1.428-.854 2.134-1.304a137.729 137.729 0 0 1-45.831-26.944zm43.697 28.248c35.811 13.023 76.665 11.439 112.72-7.451l.45-.657c-.158-.43-.517-.767-1.136-.968-.119-.039-.223-.053-.341-.092-34.159 17.857-72.673 19.995-106.93 8.729-.008.012-.006.03-.012.042a12.93 12.93 0 0 0-2.888-.064c-.602.054-1.243.225-1.863.462zm113.17-8.108a1.8 1.8 0 0 1 .08.387 142.848 142.848 0 0 0 3.186-1.731 18.999 18.999 0 0 0-.892-1.795l-.162.094c-.725.984-1.482 1.992-2.212 3.045zm85.24-158.55.569 2.487 8.975-2.079-.21-.24.491-1.149c-.465-.3-.915-.621-1.372-.94l-8.453 1.922zm9.825-.98c.01.007.031.003.043.01.175.377.32.778.45 1.22l1.685-.395.514 2.265.828-.442c-.024-.26-.01-.527-.02-.783.29.122.579.222.874.326l.109-.063c-.17-.747-.343-1.464-.479-2.141.1-.12.199-.236.3-.354l-.177-.871c-.105.026-.213.048-.318.075-.017-.13-.043-.289-.052-.403-.11-.915-.617-1.787-1.345-2.58.253-.396.469-.824.68-1.259l-.91.237a33.7 33.7 0 0 1-.18.5c-.011.028-.01.06-.022.086a9.053 9.053 0 0 0-.502-.432l-.608.135.755 3.245-1.05.245-.44 1.048c-.075.015-.147.041-.221.056.04.07.06.155.097.232-.006.014-.006.03-.011.043zm4.483 2.138.02.097-.129-.034-.854.457c.041.45.11.887.118 1.267l1.56-.36-.375-1.587c-.113.054-.229.104-.34.16zm-39.183 16.885a127.144 127.144 0 0 1-13.186 75.848c.467.816.977 1.759 1.38 2.452-.149.338-.253.59-.346.776.125-.164.31-.313.517-.479.64 1.097 1.21 2.012 1.695 2.81-.428-.175-.87-.348-1.316-.466-1.404-.372-2.816-.65-4.24-.908-10.769 18.905-26.525 35.305-46.743 46.978-.885.51-1.791.99-2.683 1.477.109.115.235.229.342.343.153.023.314.032.466.056.393.064.677.685.835 1.322a54.243 54.243 0 0 1 3.083 3.777 197.908 197.908 0 0 0-7.74 3.531l-2.155-.669c-.46-1.182-.8-2.46-1.322-3.602.34-.482.673-1.164.991-1.908a126.096 126.096 0 0 1-38.686 11.618c.2.38.409.757.63 1.153a264.308 264.308 0 0 1-6.51 7.475c.502-.04 1.001-.101 1.503-.146a292.048 292.048 0 0 0 5.49-6.49 93.396 93.396 0 0 0 3.085 4.967c-.196.014-.418.004-.6.022-.602.058-.06.082.72.125l.063.108c-.715.192-1.565.359-2.765.586a134.015 134.015 0 0 0 44.86-14.425l.054-.032c1.056-.768 1.907-1.34 2.701-1.884l.215.31c.469-.266.94-.543 1.407-.813a136.868 136.868 0 0 0 6.51-3.975c.827-1.003 1.594-2.05 2.246-3.173.184.074.354.159.532.234.092.298.185.572.275.852a134.397 134.397 0 0 0 11.85-9.224 34.058 34.058 0 0 0-1.539-1.854c.302-.125.602-.248.902-.376 1.521-.647 2.915-1.632 4.51-2.063.225-.06.424.053.64.172 9.77-9.36 17.911-20.034 24.33-31.548-.144.02-.277.017-.418.025.013-.309.02-.62.042-.926a19.385 19.385 0 0 1-.516-.207l.443-.545c-.285-.68-.526-1.253-.815-1.911l.87 1.88c.239-.294.478-.586.716-.883.176.28.365.601.547.947 13.879-25.713 19.237-55.556 14.735-84.79-1.855 1.533-4.725 2.496-7.605 3.453zm-8.394 81.273c-.012.015-.042.016-.054.031.201.481.413.95.588 1.393.022-.04.054-.076.077-.117l-.61-1.307zm-54.885 48.936c-.398-.447-.865-.912-1.3-1.378-.255-.038-.521-.06-.776-.093-.295.16-.602.289-.898.446.691.729 1.55 1.53 2.709 2.441.421.331.477-.559.265-1.416zm-165.08 2.572-1.489 1.798 3.483 2.969-2.34 2.759-3.113-2.642-1.504 1.77 3.112 2.642-2.22 2.653-3.451-2.915-1.504 1.77 5.369 4.55 9.1-10.738-5.443-4.616zm255.73-141.187c-.152.36-.273.83-.346 1.463-.072.647-.052 1.413.064 2.237.092.65.276 1.211.523 1.718s.56.934.944 1.26c.4.336.868.573 1.414.699.548.14 1.16.141 1.864.042s1.3-.3 1.77-.624a4.825 4.825 0 0 0 1.203-1.165 6.41 6.41 0 0 0 .827-1.38c.23-.479.45-.932.661-1.355a5.66 5.66 0 0 1 .666-1.034 1.54 1.54 0 0 1 .963-.52c.412-.058.746.041.997.29s.417.643.49 1.161.074.985.003 1.442c-.07.47-.185.834-.313 1.083l2.324.462c.171-.417.292-.93.342-1.532s.037-1.237-.059-1.915a5.553 5.553 0 0 0-.456-1.54 3.247 3.247 0 0 0-.827-1.183 3.108 3.108 0 0 0-1.275-.707c-.493-.134-1.075-.13-1.752-.035-.73.103-1.327.316-1.796.64s-.873.697-1.193 1.121a7.814 7.814 0 0 0-.8 1.364c-.215.491-.447.947-.66 1.356-.212.423-.45.77-.72 1.065a1.613 1.613 0 0 1-1.017.551c-1.037.146-1.643-.466-1.83-1.794-.075-.531-.074-1.04.02-1.527s.214-.88.336-1.168l-2.367-.474zm-250.21 148.5c-.485.29-.923.717-1.35 1.285s-.692 1.126-.795 1.686c-.111.571-.14 1.122-.055 1.656.067.536.208 1.072.403 1.572.176.502.341.964.49 1.412a5.8 5.8 0 0 1 .243 1.232c.026.389-.076.74-.302 1.04-.25.332-.539.513-.893.515s-.732-.176-1.15-.49-.755-.658-1.028-1.031c-.284-.381-.477-.708-.562-.974l-1.979 1.323c.174.416.445.86.836 1.321s.862.904 1.409 1.316c.45.339.933.588 1.418.769.477.191.952.25 1.427.222a3.071 3.071 0 0 0 1.39-.405c.443-.254.89-.638 1.3-1.184.445-.59.704-1.168.807-1.729s.102-1.114.028-1.64a7.938 7.938 0 0 0-.387-1.544c-.195-.5-.38-.957-.518-1.397a4.65 4.65 0 0 1-.23-1.275 1.598 1.598 0 0 1 .34-1.098c.63-.836 1.475-.833 2.546-.027.429.323.781.674 1.06 1.085s.491.765.609 1.055l2.021-1.311c-.147-.363-.424-.795-.82-1.295a8.931 8.931 0 0 0-1.603-1.528c-.525-.395-1.044-.674-1.578-.857s-1.065-.256-1.567-.214a3.388 3.388 0 0 0-1.51.51zm31.015-14.406c-.794 1.706-1.788 3.368-2.905 4.78.128-1.75 1.417-3.31 2.905-4.78zm219.938-124.744.594 7.09 2.34-.196-.4-4.568 3.607-.314.344 4.095 1.616-.139.672-.46-.291-3.693 3.456-.263.353 4.487 2.34-.197-.589-7.02-14.042 1.178zm.67 8.598.212 7.492 2.322-.041-.131-4.977 11.728-.312-.054-2.53-8.178.21c-.708.085-1.41.156-2.104.169.018-.033.033-.069.05-.101l-3.845.09zM112.741 326.413l-6.235 9.95-2.822-1.762-1.24 1.979 7.771 4.895 1.24-1.978-2.823-1.763 6.263-9.966-2.154-1.355zm5.491 4.949a3.55 3.55 0 0 0-.672.46c-.44.355-.829.848-1.172 1.47s-.527 1.228-.55 1.798a4.54 4.54 0 0 0 .209 1.611c.141.522.344 1.023.607 1.49.246.472.458.923.67 1.346a6 6 0 0 1 .435 1.192c.08.381.034.73-.147 1.058-.2.365-.48.572-.83.624s-.764-.052-1.223-.304-.836-.552-1.159-.883c-.335-.337-.56-.618-.682-.869l-1.753 1.59c.232.386.557.783 1.01 1.185s.963.752 1.563 1.082a5.648 5.648 0 0 0 1.518.567c.5.122.98.163 1.446.067.46-.084.913-.306 1.334-.626.403-.314.765-.754 1.095-1.354.356-.646.54-1.27.562-1.84s-.034-1.116-.182-1.627a7.758 7.758 0 0 0-.619-1.447 22.651 22.651 0 0 1-.696-1.33 4.745 4.745 0 0 1-.424-1.234c-.08-.382-.022-.741.185-1.118.505-.916 1.335-1.05 2.51-.402.47.259.884.553 1.217.92s.572.68.73.951l1.822-1.593c-.197-.339-.53-.72-.994-1.159-.474-.445-1.083-.862-1.812-1.263-.575-.317-1.15-.534-1.704-.64s-1.048-.09-1.539.023c-.254.059-.52.135-.754.255zm232.824-133.988-.195 7.474 2.314.071.137-4.95 7.404.2c-.157-.5-.289-1.015-.44-1.514.52-.32 1.048-.65 1.565-.976l-10.785-.305zM126.172 334.175l-1.022 2.106 4.137 1.978-1.54 3.27-3.69-1.766-1.022 2.105 3.69 1.767-1.494 3.1-4.078-1.94-.98 2.117 6.329 3.022 6.098-12.686-6.428-3.073zm224.596-128.3-.596 7.093 2.323.21.382-4.587 3.618.329-.358 4.068 2.35.195.315-4.08 3.447.284-.36 4.501 2.323.211.585-7.05-14.029-1.173zm-.756 8.628-.369 2.487 5.764.858-.414 1.033-5.854 1.611-.413 2.909 5.702-1.812.756-.69a3.28 3.28 0 0 0 1.195 1.945c.655.529 1.55.85 2.679 1.015.783.114 1.453.086 1.996-.106a3.072 3.072 0 0 0 1.349-.85c.365-.368.63-.81.815-1.338a7.881 7.881 0 0 0 .42-1.65c.065-.45.144-.989.182-1.62s.017-1.23-.023-1.79l-13.785-2.002zM134.188 339.434a3.743 3.743 0 0 0-.684.503c-.439.401-.793.92-1.067 1.59-.203.497-.3.967-.323 1.378-.04.418-.03.787.067 1.116.092.342.233.637.446.897.2.256.444.475.712.672l-.034.128a2.673 2.673 0 0 0-1.07.148c-.334.11-.62.26-.881.473a3.56 3.56 0 0 0-.683.755c-.206.292-.387.59-.52.913-.268.658-.37 1.268-.313 1.769.051.513.225.934.514 1.327.276.388.666.743 1.14 1.038.461.29.942.541 1.488.764.596.244 1.226.472 1.86.659.616.193 1.139.33 1.58.423l5.248-12.846c-.255-.19-.539-.376-.859-.55s-.646-.322-.951-.461c-.313-.157-.594-.327-.867-.438s-.513-.182-.687-.253c-.584-.238-1.168-.405-1.75-.469s-1.131.001-1.643.155a3.12 3.12 0 0 0-.723.31zm1.405 2.184c.105-.077.234-.153.352-.203.472-.199.978-.177 1.5.036.199.081.39.17.633.284a2.4 2.4 0 0 1 .466.308l-1.514 3.69-.932-.365a5.216 5.216 0 0 1-.723-.377 1.542 1.542 0 0 1-.549-.513c-.136-.2-.202-.449-.212-.743-.016-.281.064-.626.232-1.036.197-.484.432-.848.747-1.08zm221.509-123.522 4.251.613c.022.125.045.287.03.488s-.045.408-.076.62c-.083.571-.33.985-.754 1.194-.41.211-.933.249-1.53.162-.797-.116-1.343-.35-1.682-.725-.325-.373-.446-.867-.355-1.491l.116-.861zM133.614 347.379c.375-.21.785-.306 1.2-.296.123.02.258.048.455.099.179.058.337.14.473.196l.56.218-1.492 3.604c-.232-.037-.605-.16-1.114-.367a2.352 2.352 0 0 1-.61-.37 1.208 1.208 0 0 1-.421-.479c-.099-.184-.143-.418-.139-.677s.081-.558.213-.881c.203-.497.488-.843.875-1.047zm17.921 2.103a4.201 4.201 0 0 0-1.33 5.134c.964 2.105 3.424 3.04 5.53 2.076s3.05-3.467 2.087-5.572-3.45-3.024-5.556-2.06a4.16 4.16 0 0 0-.73.422zm158.384-91.046c-.108.15-.178.273-.204.334.035-.05.11-.15.204-.334zm40.485-22.941c-1.574 1.15-2.189 3.265-1.346 5.107.964 2.105 3.467 3.051 5.572 2.087s3.025-3.45 2.06-5.555-3.45-3.025-5.555-2.061c-.263.12-.506.257-.731.422zm-37.645 26.172c.15.239.239.374.371.58-.435-.036-.71-.157-.513-.39.05-.06.092-.13.143-.19zm-143.265 87.045 1.785 5.717.69.756c-.77.16-1.388.563-1.902 1.207-.53.654-.893 1.539-1.058 2.667-.114.783-.086 1.453.106 1.996.176.554.469.995.85 1.349a3.6 3.6 0 0 0 1.353.843 7.88 7.88 0 0 0 1.65.419c.45.066.973.118 1.605.156s1.245.043 1.806.004l1.985-13.812-2.486-.369-.858 5.764-1.033-.414-1.611-5.854-2.882-.429zm171.62-97.497c-.192.255-.377.539-.551.86s-.322.645-.461.95c-.157.314-.284.605-.396.879l-.268.66c-.238.583-.405 1.167-.469 1.75s-.026 1.147.128 1.658c.148.524.419.987.812 1.408.4.438.947.777 1.617 1.05.497.203.955.344 1.366.367.419.04.771.003 1.1-.094a2.5 2.5 0 0 0 .925-.462c.256-.2.475-.445.671-.712l.101.05c-.025.38.034.747.149 1.069.11.335.26.62.472.882.225.265.47.494.755.682.293.207.618.372.94.504.659.269 1.241.386 1.742.33a2.714 2.714 0 0 0 1.355-.53 3.741 3.741 0 0 0 1.026-1.098c.29-.46.553-.984.776-1.53.243-.596.445-1.21.631-1.844.194-.617.33-1.14.424-1.58l-12.846-5.249zm-27.264 17.653a137.125 137.125 0 0 1-19.858 25.105c1.029-.094 2.1-.23 3.223-.417a139.084 139.084 0 0 0 16.851-21.313l-.216-3.375zm-102.494 60.726c-.023.284-.015.574.023.853l.43-.068c-.144-.252-.315-.544-.453-.785zm130.659-75.255 3.716 1.5-.391.947c-.107.26-.216.486-.35.707a1.661 1.661 0 0 1-.54.564c-.2.136-.45.202-.743.213-.282.015-.626-.065-1.036-.232-.646-.264-1.043-.616-1.242-1.088s-.204-.963.01-1.484c.08-.199.181-.433.295-.676.121-.226.203-.367.28-.451zM179.9 350.173l-.195 2.35 4.572.356-.287 3.629-4.094-.342-.184 2.307 4.068.358-.283 3.447-4.518-.387-.168 2.334 7.007.574 1.174-14.03-7.092-.596zm157.32-89.89-3.073 6.429 2.105 1.021 2.005-4.152 3.244 1.555-1.767 3.69 2.106 1.022 1.766-3.69 3.127 1.478-1.94 4.079 2.106 1.022 3.034-6.37-12.714-6.084zm-164.8 97.06c.373-.326.882-.42 1.506-.329l.861.116-.612 4.251c-.126.023-.303.018-.504.002s-.408-.043-.62-.074c-.572-.084-.942-.32-1.152-.743-.21-.41-.276-.918-.188-1.515.116-.797.334-1.37.71-1.709zm175.148-100.761 3.63 1.476c-.036.231-.159.605-.367 1.114a2.347 2.347 0 0 1-.37.61 1.326 1.326 0 0 1-.505.437c-.185.098-.392.127-.65.123s-.543-.055-.866-.186c-.497-.203-.859-.515-1.062-.903-.21-.374-.318-.741-.308-1.157.021-.122.06-.3.11-.497.06-.179.113-.322.17-.458l.218-.56zm-159.521 94.264-.083 2.357 4.95.137-.33 11.739 2.538.085.414-14.095-7.49-.223zM334.16 267.86c-.338.196-.736.504-1.174.967-.445.474-.862 1.083-1.263 1.811-.318.576-.534 1.15-.64 1.705s-.118 1.064-.005 1.554c.118.51.381.983.743 1.412.354.44.82.844 1.443 1.187s1.227.528 1.797.55a4.781 4.781 0 0 0 1.654-.197 6.483 6.483 0 0 0 1.49-.607c.472-.246.907-.485 1.33-.696a5.64 5.64 0 0 1 1.165-.42c.381-.081.757-.05 1.086.13.364.201.572.48.624.831s-.053.764-.305 1.223-.551.835-.882 1.159c-.338.334-.619.559-.87.682l1.563 1.768c.388-.23.783-.557 1.185-1.01s.78-.978 1.11-1.578a5.648 5.648 0 0 0 .566-1.518c.122-.5.136-.964.04-1.43-.084-.46-.29-.887-.61-1.308-.314-.402-.77-.792-1.37-1.122-.646-.355-1.243-.554-1.812-.577s-1.101.06-1.612.209a8.235 8.235 0 0 0-1.49.607c-.466.264-.913.497-1.33.696-.422.212-.798.361-1.191.436-.382.08-.784.01-1.16-.197-.917-.504-1.05-1.334-.403-2.51.259-.47.596-.872.964-1.206s.664-.598.934-.756l-1.577-1.795zm-137.6 83.232.084 2.333 4.934-.142.327 11.755 2.53-.054-.384-14.103-7.491.211zm90.325-50.49a138.018 138.018 0 0 1-12.43 9.595c.267.696.546 1.33.799 1.884a139.934 139.934 0 0 0 12.407-9.509 18.936 18.936 0 0 0-.776-1.97zm40.882-22.628-1.355 2.154 9.966 6.262-1.79 2.837 1.979 1.24 4.907-7.813-1.978-1.24-1.79 2.838-9.94-6.278zM205.575 350.83l.18 2.313 4.584-.373.315 3.608-4.096.343.208 2.298 4.069-.328.29 3.44-4.498.397.18 2.313 7.021-.59-1.163-14.014-7.09.593zm116.564-63.979c-.215.137-.46.32-.71.519-.508.407-1.001.924-1.501 1.588-.396.525-.686 1.087-.87 1.62s-.27 1.038-.229 1.54c.015.175.072.342.115.511l1.299-.75c-.45.32-.817.595-1.248.901.087.282.205.564.372.832.289.486.69.939 1.258 1.366s1.152.677 1.713.78c.571.11 1.121.14 1.655.054a6.335 6.335 0 0 0 1.545-.386c.502-.177.991-.357 1.44-.507a5.8 5.8 0 0 1 1.231-.242c.39-.026.74.076 1.04.302.333.25.487.554.489.909s-.15.715-.464 1.133-.668.798-1.042 1.071a3.285 3.285 0 0 1-.963.52l1.296 1.994c.416-.174.86-.445 1.322-.835s.904-.863 1.316-1.41c.338-.45.588-.932.768-1.418.192-.477.294-.94.265-1.415a3.205 3.205 0 0 0-.42-1.417c-.254-.444-.65-.847-1.196-1.259-.59-.443-1.184-.73-1.744-.833s-1.087-.117-1.613-.043a7.846 7.846 0 0 0-1.53.414c-.499.195-.971.352-1.412.49-.448.15-.886.256-1.285.274-.39.026-.744-.125-1.087-.383-.836-.63-.861-1.46-.054-2.531.322-.429.7-.797 1.111-1.075s.754-.45 1.044-.566l-1.327-2.049a3.643 3.643 0 0 0-.584.301zm-105.557 62.857c-.507.247-.907.544-1.233.928-.336.4-.557.894-.683 1.44-.14.549-.169 1.177-.07 1.88s.301 1.3.625 1.77c.325.482.71.859 1.148 1.177a6.46 6.46 0 0 0 1.38.827l1.356.66c.41.214.758.45 1.05.693.293.257.451.564.504.936.058.412-.042.746-.29.998s-.616.4-1.134.474-1.012.09-1.47.018a3.943 3.943 0 0 1-.88-.213l-.228.168-.436 2.056c.417.172.929.292 1.532.342s1.237.037 1.915-.059a5.633 5.633 0 0 0 1.556-.43 3.242 3.242 0 0 0 1.167-.853c.317-.343.562-.767.707-1.275.134-.493.158-1.09.062-1.768-.103-.73-.316-1.326-.64-1.795s-.697-.874-1.121-1.193a7.952 7.952 0 0 0-1.391-.785c-.491-.215-.931-.42-1.34-.633a4.619 4.619 0 0 1-1.066-.72c-.293-.257-.464-.608-.524-1.033-.146-1.036.424-1.654 1.752-1.841.531-.075 1.04-.074 1.527.02s.88.214 1.168.336l.501-2.382c-.36-.152-.856-.257-1.49-.33-.646-.072-1.37-.041-2.193.075-.651.092-1.254.264-1.761.512zm100.06-56.002-.404.486.595-.344-.19-.142zm.471.377c-.649.464-1.411 1.018-2.013 1.451l-3.046 3.6 1.77 1.503 2.97-3.482 2.758 2.34-2.641 3.113 1.797 1.488 2.641-3.113 2.627 2.237-2.915 3.45 1.797 1.489 4.55-5.37-10.295-8.706zm-87.936 53.44 2.621 11.478-3.26.727.514 2.266 8.99-2.052-.513-2.265-3.288.743-2.605-11.45-2.459.553zm81.84-47.25-5.136 5.419 1.694 1.62 3.41-3.593 8.521 8.071 1.752-1.84-10.242-9.677zm-137.264 79.502 3.879-.218c-1.138.583-2.518.702-3.88.218zm64.225-34.446c-.467.317-.829.675-1.096 1.102a3.37 3.37 0 0 0-.497 1.514c-.06.562.012 1.18.21 1.863s.496 1.237.883 1.655c.39.432.828.762 1.307 1.014a6.41 6.41 0 0 0 1.48.625c.507.16.98.325 1.428.475a5.87 5.87 0 0 1 1.138.533c.327.213.535.497.64.858.115.4.075.731-.136 1.016s-.564.506-1.066.652-1.01.206-1.472.2c-.476-.002-.823-.04-1.086-.13l-.126 2.345c.438.11.943.153 1.548.117s1.24-.147 1.897-.338a5.52 5.52 0 0 0 1.459-.661c.439-.268.8-.577 1.061-.974.266-.384.434-.85.506-1.374.062-.507-.027-1.094-.217-1.751-.206-.709-.486-1.28-.872-1.698s-.8-.746-1.264-1.002a7.99 7.99 0 0 0-1.492-.583 21.803 21.803 0 0 1-1.412-.447 4.744 4.744 0 0 1-1.17-.588 1.548 1.548 0 0 1-.67-.912c-.292-1.005.21-1.718 1.498-2.092.515-.149 1.019-.212 1.515-.188s.884.1 1.187.18l.148-2.43c-.378-.1-.867-.124-1.505-.106a8.81 8.81 0 0 0-2.177.354 5.824 5.824 0 0 0-1.647.771zm67.673-38.35c.183 1.497.369 2.923.534 4.239l6.788 7.195 1.841-1.749-5.693-5.986c-.13.067-.264.124-.395.191.043-.157.103-.321.153-.485l-3.228-3.404zm-61.51 36.524.777 2.222 4.319-1.52 1.213 3.414-3.867 1.366.79 2.179 3.838-1.35 1.162 3.261-4.265 1.488.778 2.222 6.648-2.36-4.675-13.285-6.719 2.363zm-62.3 36.22c-.578.323.897.705 6.742 1.052-.025.278-.04.553-.062.83 12.794.558 25.718-.184 38.53-2.327-1.805-.037-3.956-.474-6.06-1.12-.007-.002-.02.017-.027.016a182.943 182.943 0 0 1-37.578 1.163c-.697.112-1.299.25-1.544.387zm110.377-61.885-1.997 1.478 3.486 4.663-1.037.455-5.277-3.016-2.345 1.751 5.318 2.775 1.024.023c-.431.656-.601 1.424-.51 2.242.089.838.47 1.705 1.152 2.62.473.634.959 1.062 1.478 1.31.517.268 1.044.417 1.564.397.518-.001 1.04-.145 1.545-.387a7.778 7.778 0 0 0 1.446-.87c.366-.273.809-.61 1.282-1.03s.885-.84 1.254-1.265l-7.218-9.69c-.223.025-.456.044-.682.07-.163-.51-.317-1.018-.483-1.526zm-36.597 21.238a6.216 6.216 0 0 0-.726.492 4.176 4.176 0 0 0-1.072 1.268 3.431 3.431 0 0 0-.424 1.58c-.026.593.085 1.214.365 1.882.208.494.456.895.73 1.202.268.324.555.568.857.732.307.177.636.272.97.306.322.04.637.035.965-.016l.036.124c-.288.252-.49.527-.636.836a2.777 2.777 0 0 0-.306.97c-.029.348.022.696.09 1.031.06.353.148.67.283.991.276.656.605 1.166 1 1.48.399.327.826.506 1.308.58.47.079 1.007.062 1.55-.065a9.763 9.763 0 0 0 1.606-.53c.594-.25 1.176-.517 1.756-.834a17.192 17.192 0 0 0 1.435-.828l-5.402-12.794c-.316.045-.646.11-.996.213s-.672.236-.986.354c-.332.11-.634.191-.906.306s-.48.232-.654.305c-.29.123-.583.262-.843.415zm1.93-.284c.665.234 1.317.468 2.03.704-.497-.128-1-.189-1.479-.373l-.516-.207-.036-.124zm-.674 2.085c.11-.07.238-.121.368-.176.198-.084.417-.187.669-.279.245-.074.44-.098.554-.103l1.551 3.687-.955.407a5.02 5.02 0 0 1-.755.256c-.263.067-.54.077-.783.019-.238-.046-.438-.18-.653-.381-.21-.188-.414-.48-.585-.889-.27-.643-.294-1.2-.1-1.674.144-.356.36-.656.69-.867zm44.96-25.128a57.775 57.775 0 0 0-1.767 1.814l.725.88-3.105 2.623 1.492 1.773 3.105-2.623 2.244 2.638-3.436 2.922 1.492 1.772 5.383-4.55-6.133-7.249zm-27.22 17.917a4.13 4.13 0 0 0-1.48 1.936c-.807 2.17.296 4.59 2.466 5.397s4.574-.323 5.38-2.493-.306-4.547-2.477-5.354a4.16 4.16 0 0 0-3.889.514zm20.111-8.292 2.574 3.458c-.073.104-.19.212-.343.342s-.296.25-.468.378c-.462.345-.935.445-1.382.293-.44-.14-.83-.452-1.19-.936-.482-.646-.704-1.233-.679-1.738.034-.493.299-.917.804-1.294l.684-.503zm-34.95 20.9c.167-.084.328-.138.464-.195l.545-.243 1.505 3.606c-.19.138-.527.31-1.033.524-.235.099-.465.16-.69.181-.23.04-.468.03-.674-.043-.2-.061-.387-.172-.567-.358s-.345-.448-.48-.77c-.209-.494-.241-.96-.111-1.379a2.25 2.25 0 0 1 .623-1.045c.1-.072.242-.175.417-.277zm85.548-29.075c.844.484 1.621.906 2.825 1.58-1.062-.555-2.105-1.12-2.825-1.58z"/></svg>