<?xml version="1.0" encoding="UTF-8"?>
<svg viewBox="0 0 392.84454 392.90775" xmlns="http://www.w3.org/2000/svg">
 <g transform="translate(-69.279 -318.75)">
  <path d="m167.50904,345.09168c-43.92511,25.36018-74.37717,65.14213-88.77377,109.92679 .34052-.0549.68053-.0898 1.01502-.11693 2.48526.0481 5.0815-.43017 7.58729-.48343 14.1912-41.69922 42.99686-78.62606 84.17146-102.39823 20.97811-12.11172 43.2924-19.72837 65.86849-23.16242 4.93236-7.80138-1.06252-.17107 11.54962-7.24551 .91387-.51331 1.19022-1.38204 1.44742-2.24297-12.80681.991-25.5986,3.25131-38.20368,6.82928 .44785.56635.87415,1.09105 1.29771,1.56018-1.28167,1.0653-2.5058,2.18908-3.60107,3.45029-.0153.0192-.0228.0402-.0385.0584-2.06761-1.0262-4.06459-1.89826-5.94961-2.55502-5.00724,1.66477-9.9739,3.54635-14.89407,5.64019-.13482,1.27993-.11167,2.75826.0701,4.43398-1.96533,1.22544-3.76913,2.36467-5.34678,3.98908-.70554-1.85985-1.35017-3.5716-1.98805-5.1309-4.79833,2.27552-9.53233,4.74571-14.21161,7.4473zm25.6709-10.59923c.2673-.29769.97655.68796.71767.99296-.98722,1.16298-2.51266,1.73307-3.76374,2.60599-.36253.22767-.67437.44536-1.02423.66351 .8808-1.38424 3.03449-3.10868 4.07034-4.26248zm-4.13591,4.33642c.0633.57584.17242,1.1649.27544,1.78954-.01-.007-.0322-.006-.0428-.0114-.73192-.4112-.68003-1.03586-.23273-1.77811zm-16.00374,15.84322c-81.43866,47.01863-113.67637,146.55243-78.68321,231.15414 .65203-.11005 1.31048-.26171 1.97898-.38481-34.87282-83.78068-2.99302-182.4467 77.70423-229.03728 19.59237-11.31166 40.39432-18.58471 61.46607-22.10014-.0478-.6613-.11064-1.321-.2026-1.97593-21.3437,3.54382-42.42305,10.88914-62.26347,22.34402zm77.97348-35.38349c1.28364,2.89878 4.00657,4.85496 8.22128,2.61467-.28962-.93314-.26468-1.99169-.21128-3.05345-2.67204.088-5.3367.24077-8.01.43878zm8.22128,2.61467c.2162.69646.61448,1.30484 1.29882,1.81211-1.0459.2905-2.09238.58923-3.13964.87448-.15596-.11452-.3289-.22003-.48213-.33507-2.3774-.30596-7.96633-3.14674-7.12447-.90242 .35493.94631.75969,1.87033 1.14818,2.8012-1.38094.29639-2.7606.61229-4.14742.87896-1.14493.22017-2.3579.12137-3.4552.51541-1.48776.53429-4.00775.69332-5.69226,1.2657 48.56385-7.31602 98.24684,4.75039 137.98299,33.24355l.10097.0499c4.30738,2.17365 8.55012,4.59009 12.56607,6.89007l-2.16927,1.18025c6.60782,5.48794 12.90336,11.45595 18.78594,17.91319 .31067-1.1117.64774-2.42049 1.04089-3.88463 1.57083-.33157 3.18794-.60518 4.70848-1.09465l.35602-.13338c-11.39426-12.54143-24.22445-23.36746-38.06424-32.3667 .22393.27246.43272.54227.65091.81498-1.30049-.62835-2.13438-1.01212-3.89219-1.86646l-1.0527-.51084c.24598-.17493.56188-.35789.93152-.57407-31.92189-19.84309-68.99556-30.17916-106.53579-29.71287-.0168.21806-.16238.46067-.47345.74243-1.20185,1.08862-2.31729,1.85395-3.34217,2.3987zm-22.87777,10.24957c.19772.63966.41236,1.27703.63255,1.90809 40.77374-6.45666 82.42671,1.20064 118.05576,21.04109 2.20072.47879 4.41745.9521 6.59996,1.49395-37.30533-22.51883-81.80914-31.40266-125.28827-24.44313zm-39.60405,29.21625 5.40214,12.79428c.31562-.0454.63007-.13757.97958-.24079s.68814-.20853 1.00247-.32618c.33181-.11063.61809-.2188.89002-.33347l.66929-.27822c.58099-.24479 1.11277-.53934 1.56968-.90625s.81855-.79804 1.07192-1.26839c.26571-.47554.40343-1.00361.42322-1.57948 .027-.59343-.11123-1.19878-.39205-1.86654-.20807-.49458-.42875-.9112-.70313-1.21785-.26729-.32416-.55415-.56853-.85602-.73264-.30703-.17652-.63592-.27175-.97038-.30579-.32206-.0392-.65276-.0618-.98071-.0111l-.0469-.0812c.28708-.25165.51634-.54282.66291-.85182 .15893-.31419.22906-.64738.26308-.98183 .0288-.34679.021-.68405-.0472-1.01922-.0611-.35264-.16399-.69652-.29913-1.01808-.27553-.65543-.58901-1.1386-.98329-1.45303-.39937-.32686-.86937-.51713-1.35152-.5909-.46977-.079-.96408-.0501-1.50747.0765-.53112.12134-1.06208.30175-1.60623.53043-.59358.24963-1.17602.517-1.75602.83346-.57333.29811-1.05742.58244-1.43436.82813zm-31.9732,18.49577c-.24336.14512-.4682.30368-.69947.476-.36576.27249-.79317.63629-1.26667,1.05609s-.88527.83983-1.25409,1.26531l8.32916,11.17655 2.03588-1.53626-3.47039-4.63591 1.00972-.43857 5.28866,2.97269 2.345-1.75082-5.30313-2.74782-1.03903-.0496c.43122-.65607.61651-1.39702.52503-2.2156-.0887-.83736-.46981-1.70476-1.15124-2.61901-.47314-.6345-.97463-1.08999-1.4944-1.33836-.51703-.26712-1.05472-.37338-1.57527-.35347-.51781.001-1.01263.12855-1.5178.37111-.25642.11618-.51806.22359-.76194.36774zm-5.2218,4.20559-5.38306,4.55128 9.07549,10.78173 5.46426-4.59815-1.50808-1.79956-3.51792,2.96927-2.32252-2.77271 3.10474-2.62246-1.5081-1.79956-3.13179,2.63808-2.21731-2.65303 3.45236-2.89533-1.50807-1.79956zm47.05275-26.87724 4.69124,13.31299 6.70281-2.39042-.76173-2.19437-4.319,1.51928-1.21293-3.41334 3.8391-1.35047-.76173-2.19437-3.8391,1.35049-1.16187-3.26242 4.24924-1.51508-.78879-2.17876-6.63724,2.31647zm-23.96969,13.98329c-.65682.46963-1.1772,1.12312-1.4798,1.93689-.80694,2.17007.29593,4.58928 2.46599,5.39622s4.58924-.2959 5.3962-2.46597-.29595-4.58928-2.46597-5.39624c-1.35628-.50432-2.82164-.25351-3.91642.5291zm17.2282-8.97242c.18929-.13815.52629-.30963 1.03257-.52398 .23506-.0986.46526-.16008.68915-.18139 .23102-.0389.44194-.0144.64758.0591 .20039.0612.38726.17187.56751.35796s.345.44774.48032.76914c.20808.49459.26756.94542.13786,1.36378-.11735.41314-.34888.77433-.65035,1.06107-.1004.0723-.23068.13204-.40595.23438-.1681.0848-.3125.1661-.4487.2228l-.54546.24275-1.50448-3.60585zm-34.21529,19.86241c.46249-.34473.93487-.4446 1.38246-.293 .43959.14083.82947.45263 1.19026.9366 .48102.64536.70386,1.23312.67832,1.73737-.0336.49355-.29891.91743-.80435,1.29432l-.69524.5458-2.57366-3.45768c.0729-.10442.17454-.23861.32784-.36966s.32236-.26532.49443-.39365zm52.00259-28.61638c-.43896.26775-.78406.60362-1.04597,1.00084-.26568.38435-.43389.85079-.50553,1.37438-.0625.507-.0162,1.08257.17443,1.73962 .20545.70866.51214,1.26357.89899,1.68211s.81447.77308 1.27983,1.02922c.47827.25235.96035.4509 1.46397.59815 .5165.14351 1.00448.27852 1.43996.43159 .44834.14933.82297.33544 1.1537.56079 .32696.21244.56694.52649.68642.93881 .29151,1.00509-.22575,1.69133-1.51411,2.06496-.51538.14949-1.01899.21277-1.51473.18892s-.89582-.0582-1.19833-.13808l-.16373,2.40392c.37813.0998.90961.13441 1.5471.11717 .65039-.021 1.36235-.1501 2.16117-.38174 .63102-.18353 1.19665-.42694 1.66342-.74388s.82854-.6751 1.09592-1.10183c.27647-.44332.42253-.93975.47009-1.49826 .0604-.56225.0153-1.19627-.18278-1.87912s-.49669-1.2364-.88338-1.65505c-.39046-.43151-.82864-.76118-1.30689-1.01359-.4691-.26902-.96307-.4817-1.47958-.62522-.50738-.16015-.98016-.32495-1.42853-.47427-.43548-.15307-.81483-.33416-1.13809-.53373-.32713-.21239-.56196-.48126-.66653-.84204-.11583-.39942-.0487-.7471.16209-1.03177s.56449-.50629 1.06684-.6522 .96679-.21733 1.42934-.21181c.47539.002.86479.0509 1.12858.14228l.12521-2.34562c-.43713-.11067-.95848-.17976-1.56271-.1442s-1.22511.1744-1.88217.36498c-.5411.15697-1.03837.35456-1.47397.63451zm-68.46901,39.78321-1.84113,1.74856 9.65834,10.22874 5.47344-5.14474-1.62776-1.69437-3.58962,3.4076-8.07327-8.54579zm74.91487-41.55617 .5296,2.29232 3.24482-.75479 2.64805,11.46153 2.44325-.58066-2.60535-11.4501 3.0939-.70372c.0215-.14983.0315-.3121.0561-.46539l-.41911-1.85092-8.99122,2.05173zm-81.46328,48.15147-1.73595,1.86827 10.21412,9.69134 5.14643-5.46111-1.67771-1.59337-3.4105,3.59284-8.53639-8.09797zm-3.35219,3.63135-4.54992,5.36931 10.75425,9.12689 4.61548-5.44323-1.78594-1.53088-2.9535,3.50942-2.78565-2.32489 2.64129-3.11267-1.78597-1.53086-2.62566,3.13972-2.64196-2.26353 2.90354-3.40841-1.78596-1.53087zm62.85465-35.82005 .95561-.40734c.25968-.10917.50421-.19354.75469-.25534 .26291-.0669.51315-.0614.75582-.003 .23753.0457.46461.16472.67997.3652 .20994.18823.41365.4809.58538.88891 .27042.64298.29397,1.19978.10049,1.67403s-.538.82523-1.05741,1.04351c-.19787.0832-.43246.15949-.68498.25109-.24542.074-.42364.12577-.53819.13033l-1.55137-3.68704zm38.14565-18.9923c-.19709.13953-.40213.28967-.55993.46767-.31746.3428-.51972.77781-.66484,1.28595-.13372.49305-.17306,1.06329-.0775,1.74072 .10314.73051.33194,1.3535.65542,1.82274 .14269.20674.27843.39784.44052.5756 .3399-.75806.71668-1.56676 1.09754-2.47396 .12036-.28669.22306-.59138.30998-.90065l.0115-.0428c.006-.0217-.009-.048-.004-.0698l.0115-.0428c.25147-.96537.35561-2.01676.26555-3.04006-.30079.0788-.56412.17783-.83588.30221-.23635.10112-.45243.23546-.64951.375zm-153.69858,89.09875c.98571.22456 2.46412.72356 4.00964,1.2574-.48017,1.40383-.9388,2.80294-1.24482,4.21888-.02827.13064-.02231.33227-.02483.51952-1.52573-1.5275-3.04645-3.05457-4.5864-4.56891 .61098-.47771 1.22668-.96157 1.84642-1.42689zm46.34186-26.35855c-.2196.1411-.45278.3076-.68385.50302-.46213.39095-.904.86247-1.3155,1.40902-.33887.45014-.60386.90587-.78454,1.39113-.19132.47724-.25096.95248-.22231,1.42742 .0179.46692.14888.92765.40541,1.38971 .25366.44337.66466.87387 1.2112,1.28536 .58943.44379 1.14085.71894 1.70141.82191s1.12934.1288 1.65535.0546c.53406-.0849 1.03785-.2297 1.52921-.4138 .49936-.195.97233-.35215 1.41262-.4908 .44835-.14939.8588-.23949 1.25858-.25754 .38911-.0261.75553.0819 1.09846.34006 .83595.62937.87643,1.48623.0695,2.55794-.32272.4287-.71614.76948-1.12717,1.0477s-.7655.49185-1.05546.60937l1.33843,2.0058c.36246-.14691.78368-.38086 1.28334-.77719 .5078-.40692 1.01193-.96638 1.51218-1.63082 .39535-.52515.70104-1.05954.88443-1.59315s.2289-1.04949.18689-1.5513c-.0447-.52053-.19804-1.00693-.495-1.48233-.28879-.48618-.73275-.95036-1.30076-1.37799s-1.12523-.69188-1.68579-.79485c-.57126-.11105-1.10565-.11244-1.6397-.0276-.53671.0661-1.07251.20748-1.57192.40235-.50204.17612-.97989.3143-1.42823.46375-.44028.13864-.83754.23482-1.21591.269-.38905.0262-.74012-.0756-1.04013-.30159-.33234-.25009-.48662-.5545-.48852-.90874s.13367-.743.44834-1.16096 .65696-.75485 1.03034-1.02789c.38206-.2827.70848-.47717.97428-.5625l-1.30714-1.95159c-.2081.0868-.41851.19116-.63811.33227zm110.41096-63.6376c.44388.80842.88335,1.63481 1.3365,2.43988 .32154.0635.59338.13499.78403.23295l.46253-2.32386c-.41706-.1715-.92941-.29159-1.53258-.34202-.33537-.028-.69219-.024-1.05047-.007zm4.97524-.38264 1.15178,14.05744 7.11774-.60923-.20793-2.29762-4.55673.35752-.31452-3.60727 4.06847-.3282-.19648-2.3403-4.05284.35525-.30615-3.46774 4.51404-.36897-.22354-2.32467-6.99384.57379zm-122.72276,73.81295-4.90728,7.81285 1.97848,1.2393 1.76268-2.82192 9.95066,6.23503 1.3548-2.1534-9.95065-6.23503 1.76272-2.8219-1.95141-1.25493zm116.09682-65.4769c.1439.0766.272.15973.41963.22682 .49097.21527.97339.43181 1.38278.64503 .42265.21133.76976.45021 1.06526.72009 .29358.25666.46404.60754.52399,1.03259 .1461,1.03613-.43883,1.62687-1.76717,1.81412-.53133.0749-1.03988.0735-1.52728-.0203s-.86444-.18692-1.15259-.30884l-.51666,2.35509c.36017.15244.85638.25737 1.4899.33062 .64678.0714 1.38558.0675 2.20918-.0486 .65086-.0918 1.22733-.24841 1.73429-.49612s.91861-.58625 1.24379-.97067c.33653-.39967.57296-.86787.69916-1.41402 .13952-.54801.16841-1.17621.0692-1.88025s-.32777-1.28376-.65124-1.75298c-.0542-.0798-.11076-.15243-.16781-.22786-1.6826.11514-3.36129.0766-5.05448-.005zm16.03404-9.04076 .36888,14.07643 7.50723-.18458-.084-2.33305-4.9493.11506-.31193-11.72777-2.53083.0539zm-137.49564,84.03809c-.38799.22978-.79475.59956-1.19691,1.05189s-.75234.96364-1.08223,1.56301c-.27166.4936-.47248.98506-.58253,1.49103-.1218.49951-.1202.99145-.0245,1.45752 .084.45961.26391.9021.58347,1.32304 .31432.40263.78147.74927 1.38083,1.07915 .6464.35576 1.24324.55472 1.81272.57723s1.11696-.0338 1.62716-.18168c.5166-.1598 1.01351-.38289 1.47398-.63448 .46676-.26371.88696-.48079 1.30324-.68026 .42262-.21143.84148-.34942 1.23458-.42411 .38144-.081.76815-.0377 1.1442.16933 .91669.50455 1.06514,1.36176.4183,2.53699-.25874.47008-.59628.87211-.96366,1.20588s-.68024.57108-.95029.72904l1.59345,1.82243c.33819-.19639.71987-.53051 1.15841-.99356 .44504-.47475.87788-1.05617 1.27892-1.78484 .31732-.57569.53379-1.15025.63973-1.70446s.10168-1.0906-.0109-1.58142c-.11797-.50897-.36578-.95588-.72712-1.3844-.3548-.44034-.84752-.82899-1.47038-1.1718s-1.20056-.54329-1.77004-.5658c-.58124-.029-1.13756.0377-1.65423.19731-.52187.14157-1.0227.344-1.48961.60743-.47202.2455-.9077.48434-1.33028.69587-.41614.19973-.8222.3481-1.19191.43556-.38146.081-.74539.008-1.07445-.17352-.36427-.20053-.55611-.4532-.60829-.8035s.0524-.76403.30464-1.22233 .5359-.8629.86685-1.18609c.33744-.33491.61829-.55965.86911-.68216l-1.56219-1.76831zm146.78211-84.20341-.38694,14.07978 7.47404.19542 .0711-2.31436-4.95042-.13688 .35854-11.754-2.56631-.07zm-151.74963,92.4119-3.04941,6.34328 12.68659,6.09881 3.09933-6.44429-2.11685-.979-1.97777,4.13688-3.25912-1.58245 1.76659-3.69018-2.11685-.97899-1.73953,3.67457-3.14249-1.50545 1.95491-4.0515-2.1054-1.02168zm161.06538-92.08904-1.17401,14.02903 7.09209.59637 .18353-2.3071-4.56009-.39834 .3018-3.60225 4.06765.35788 .19496-2.34981-.87244-.0736c-.53609.63348-1.06576,1.26103-1.63911,1.84845 .17888-.64122.33828-1.2861.54177-1.9366l-2.08223-.16903 .28311-3.44714 2.95469.24267c.26072-.74002.5374-1.51492.81548-2.27505l-6.1072-.51545zm-80.56824,47.20172c-8.51874,4.9183-16.30298,10.61011-23.35971,16.91474 1.04451-.0811 2.19062-.17533 3.23561-.20821 6.44026-5.53858 13.4979-10.57151 21.1241-14.97449 26.88718-15.52333 56.81541-20.99225 85.42923-17.53225-.3802-.70873-.74755-1.40419-1.06358-2.09225-28.63713-3.19463-58.50291,2.38325-85.36561,17.89244zm-116.47203,67.38948c-1.12786.70798-2.16829,1.51561-3.13293,2.38613-3.11946,11.50799-5.19164,23.30168-6.18838,35.21889 2.44319-.0124 4.92698.36122 7.37416.39742l.5965-.0918c1.11302-13.06354 3.56836-25.96224 7.33672-38.47995-.87054-.28469-1.7155-1.47389-2.57498-1.1475-1.24057.47115-2.36553,1.06046-3.41109,1.71682zm90.90792-48.48034c-3.30648,3.08334-6.44648,6.30153-9.40313,9.65077l1.57191-.40237c.28246.1924.54526.44445.81332.72121 .0792-.0881.17125-.16515.25084-.25301l-.37501-.64953c.40855-.10784.81892-.20325 1.22736-.31167 3.15367-3.41779 6.50385-6.68197 10.03816-9.80091-1.35309.38739-2.69943.76188-4.06929,1.01428l-.0541.0313zm-9.40313,9.65077c-26.69637,30.24099-38.98895,70.73309-33.90097,110.4693 .68996.10555 1.37949.151 2.07079.21174-.0293-.22216-.0678-.44406-.096-.66628l-.73519-.58589 .65176.12888c-4.76712-38.61905 7.11215-77.86275 32.80983-107.4217l-1.00164-.35989c-.008-.80251.0734-1.38343.20142-1.77616zm37.52973-24.12155c-11.954,6.90164-22.46869,15.37063-31.40161,24.98576 .26815,1.06204.48791,2.0368.65265,2.94296 2.16461.82915 4.772,2.52185 3.43518,1.9499-1.14906-.49163-2.25544-.9245-3.34338-1.3534 .99391,6.0934-.50932,8.61099-4.28921,9.94586-.49952-.75538-.9038-1.53702-1.11161-2.42537-.40918-1.75426-.7416-3.26404-.98947-4.58881-23.41815,28.70928-34.00609,66.03625-29.27269,102.67321 .69921.0585 1.3188.058 1.77921.0192 .40755-.0343.85514-.11802 1.35543-.27736 .013.30666.0266.79076.0357,1.06191 1.64033-.0432 3.30826-.0755 4.97636-.1307-2.79407-19.41108-.97967-39.07286 4.99653-57.40827l-.0157-.0271c-.36916-.42721-.577-.98938-.72408-1.56658l1.15531-.8114 .42574-.13761c6.07739-17.39944 15.94767-33.50656 29.25306-47.01973-.34715-.42168-.7049-.84314-1.11021-1.23542-.29249-.5314-1.35965-2.46477-2.21573-4.02514 2.99258.64225 6.08865,1.52522 7.8663-.50017 1.01818-1.16006 1.92542-2.28445 2.80674-3.38859 .34789.48217.66793.95499.96766,1.42596 5.74247-4.86807 11.99901-9.30921 18.75201-13.20806 23.88287-13.78878 50.36355-18.9214 75.837-16.39646 .60593-.98036.77946-1.81041.57273-2.82049 .68255-.0553 1.49148-.12229 2.31326-.18085 .29603-.40013.60621-.79005.90952-1.17463 .0118.27443.089.4978.27823.6693-.0495.13894-.0641.28827-.11438.42689 .39805-.0259.73936-.0594 1.14308-.0826 .21339.0175.45655.0293.72877.0123 .0432.18926.10171.3763.14596.56524 .19917-.21787.40412-.42393.6057-.63837 .0373-.001.0755.009.1124.007-.004-.0102.0159-.032.0115-.0428 .61568-.0973 1.33641-.23315 2.18406-.4671l-.46316.44778c.25817-.006.53938-.0168.7829-.019-.5117.23977-1.01604.488-1.52395.73546l-.51728.47903c-.0265-.064-.0397-.1129-.0666-.17808-.28808.14323-.58406.28317-.87021.43025l-.0811.0469c.0458.18868.0989.37703.14596.56524-.59952.57844-1.21899,1.1501-1.81406,1.73297 18.68911,2.5254 36.70347,9.2125 52.61666,19.6347-.0164-.45765-.007-.18025-.022-.60068 1.0116.053 2.16205.46411 3.48287,1.34499 1.32643.88464 2.17154,2.23836 2.89645,3.70432 13.39561,10.00107 25.04008,22.80818 33.93508,38.21478 .31808.55093.61711,1.11286.92593,1.66656 .0826-.27419.1512-.55361.24439-.82671 2.95297.11862 5.70911.15213 8.36518.11392 .16738,1.29772.32266,2.4782.46546,3.55621-.27726.39316-.56729.80359-.85123,1.21314-2.64415-.91737-5.06695-1.68021-7.30918-2.3474 6.30163,11.70337 10.60025,23.9562 12.96489,36.39335 .0774-.48903.18073-.9782.27645-1.45865l.0584.0384c2.76665,1.08987 5.45233,2.3077 8.15182,3.55685-2.37257-14.74445-7.25222-29.32793-14.79728-43.12963-2.32869-.0688-4.53371-.13806-6.4007-.27383 .27347-.67213.50368-1.36341.77392-2.03454 .78233-1.11711 1.59829-2.17782 2.43928-3.21254-37.9398-62.31248-119.00625-83.24292-182.52088-46.57273zm85.9726-11.2786c-.0642-.26502-.11202-.53587-.1741-.80159-.56069.61335-1.12434,1.22639-1.66619,1.86408 .69635-.4436 1.35155-.80583 1.84029-1.06249zm-1.84029,1.06249c-.51719.32944-1.01582.68672-1.56128,1.04581 .21447.0261.4333.032.64758.0591 .30136-.36869.6063-.74309.91372-1.10488zm2.7917-1.53961c.19529-.0964.3882-.20577.58398-.30102l.74103-.7165c-.56283.0128-1.1248.0349-1.73234.062 .13505.33352.27854.64645.40733.95561zm-3.1433-.81938-1.07335.0784c-.76485,1.03377-1.52312,2.07588-2.23839,3.06045 .66109.069 1.31436.15227 1.97398.23153 .48406-1.1055.92528-2.23454 1.33776-3.37042zm-146.93047,147.50897c-1.02027.0268-2.03761.0439-3.05038.0291 .0954.70368.17397,1.40818.28073,2.11124 2.53718,2.04084 2.90354,1.82021 2.76965-2.14032zm32.49262-106.40861c-.0306-.18844-.0562-.40135-.0918-.59652-.67287-.25773-1.30968-.42687-1.76166-.42628l-.71313.0148c.8421.31447 1.68043.65865 2.56659,1.008zm-2.56659-1.008-.37277-.14563c-.0462.0522-.0694.12276-.11553.1749l.48827-.0293zm-54.05425,23.12533c-.38801.27632-.74285.66655-1.03759,1.14032-.28965.46134-.52611.96852-.74909,1.51502-.24323.59621-.46083,1.18293-.64699,1.81691-.19354.61648-.35761,1.15479-.45028,1.59509l12.87266,5.2336c.19105-.25532.3764-.53894.55047-.85908s.33744-.61918.47652-.92464c.15659-.31281.28388-.60451.39533-.87777l.26838-.66014c.23817-.58373.38955-1.1948.45335-1.77728s.0145-1.10401-.13898-1.61572c-.14855-.52404-.41924-.98615-.81249-1.40728-.40054-.43872-.93498-.82005-1.60572-1.09369-.49682-.20267-.93954-.31622-1.35041-.33896-.41823-.0402-.81359-.0148-1.14309.0826-.34191.0923-.62104.26064-.88166.47289-.25548.20004-.49069.41766-.6869.68526l-.10098-.0499c.025-.38094-.0177-.7199-.13254-1.04208-.10988-.33451-.27609-.64819-.48861-.90869-.22491-.26555-.49679-.47832-.78207-.66708-.29251-.20626-.59024-.3875-.91321-.51922-.65828-.26857-1.22509-.35871-1.72621-.3024-.51354.0513-.9769.21337-1.36991.50225zm174.54293-99.8703-1.83251,12.3885 2.51331.35316 .83102-5.74811 1.04853.44109 1.63845,5.83789 2.88187.42905-1.78522-5.71708-.68946-.75666c.76884-.15897 1.38756-.56268 1.90172-1.20615 .52936-.6548.87767-1.56636 1.0423-2.69467 .11424-.78316.0591-1.43697-.13286-1.98011-.17674-.55443-.44175-1.01061-.82398-1.36458-.36697-.36533-.8083-.63018-1.33702-.81578-.52684-.19885-1.07845-.33574-1.64922-.41902-.2765-.0404-.64073-.051-.98489-.0809-.71746.33778-1.48079.71341-2.29729,1.14596-.1137.0599-.21525.12197-.32477.1875zm-173.67905,102.36655c.0833-.071.19893-.12525.29768-.17187 .18487-.0987.37603-.15429.63501-.15013s.55789.0814.88084.21315c.4969.20267.84309.48735 1.04657.87521 .20868.37545.30641.78436.29605,1.20028-.0208.12203-.0475.25745-.0987.45395-.0584.17911-.12394.36439-.17994.50082l-.20703.51644-3.61511-1.44907c.0363-.23149.15936-.60485.36714-1.11408 .0963-.23597.21052-.46396.35378-.63726 .0679-.0952.14044-.16642.22378-.2374zm176.07907-101.33456c.12529-.0224.28721-.0449.48827-.0293s.40814.0438.62052.0748c.57078.0833.95686.34642 1.16627.77003 .21121.41043.27605.91739.18893,1.51473-.0245.1673-.0629.30685-.0988.45393 .11461.20652.246.39769.37095.5797-.85512.9865-1.61583,2.0248-2.19154,3.14167-.54129-.32396-.50693-1.14229-.28074-2.11125l-.0429-.0115-.83393-.13191 .61287-4.25096zm-90.04458,52.60071 .14367.0614c.003.0234.00069.0466.004.0698-.054-.0443-.0934-.0849-.14788-.13114zm-80.23083,50.72358c.20006-.13594.43356-.2293.72762-.23971 .28155-.0155.62607.0647 1.03595.23183 .64586.26357 1.05839.64245 1.25697,1.11461s.20391.96292-.009,1.4846c-.081.19871-.18173.43236-.29545.67575-.1212.22581-.23023.38232-.30801.46651l-3.68906-1.51464 .3755-.97458c.10644-.26085.21609-.48615.34959-.707 .13862-.23322.3433-.40655.55577-.5374zm-10.91076,15.78952c-1.5741,1.15071-2.1733,3.29211-1.32991,5.13405 .96386,2.10504 3.45085,3.02448 5.55591,2.06061s3.02448-3.45086 2.06062-5.5559-3.45085-3.02449-5.55592-2.06063c-.26306.12059-.50581.25751-.7307.42187zm199.58371-114.43584c-2.10506.96384-3.02449,3.45083-2.0606,5.5559s3.45084,3.02447 5.5559,2.06063 3.04012-3.42381 2.07624-5.52885-3.46645-3.05158-5.57154-2.08768zm-24.414,21.27622c.14472.6764.27737,1.35494.41606,2.03312 .0435.005.0846.0289.128.0343-.11888-.69424-.18143-1.38505-.20679-2.04568l-.3373-.0217zm-212.10698,124.11991c-.7664,9.97315-.78622,20.04814-.01325,30.10202 1.88776-.22247 3.76723-.35481 5.60412-.16835-.45882,2.17376-1.14189,4.33702-1.47104,6.51455-.99909.25028-2.13926.4786-3.44683.65492 2.94611,26.01116 11.13721,51.85271 25.05627,75.96123 11.22961,19.45026 25.31741,36.24747 41.3879,50.18595 .70246-1.68464 1.44209-3.34051 1.80671-5.12065 .18338-.89527.0778-1.82591-.12059-2.70889 1.13019.60637 2.30432,1.18104 3.46531,1.75208-15.37635-13.36324-28.85006-29.46974-39.61114-48.10849-13.65652-23.65378-21.60015-49.03551-24.27083-74.53832-.81025.73853-2.03215,1.29576-3.67449,1.76062 .67548-1.91686 1.38577-3.98326 2.08126-6.14518 .41164.0769.83004.14431 1.23377.26196-.73216-8.87748-.81571-17.74842-.29273-26.56952-.60891-.48209-1.33573-.84559-2.17935-1.08724-1.27497-.36519-2.62037-.72148-4.01271-1.0752-.51299-.55517-1.02558-1.12192-1.54239-1.67149zm215.1825-123.7305c-.19538.64163-.39113,1.28269-.58448,1.92517 33.59005,4.62676 65.17614,21.57027 87.65136,48.87912-1.52479-2.55143-2.73693-4.57431-3.50301-5.88001 .1754-.21886.34138-.43983.52033-.66125-.27999-.30755-.57055-.61022-.85295-.91483-.1008.13464-.21143.26215-.3122.39674-.31979-.57869-.60437-1.12799-.82511-1.61652-22.11587-23.28924-51.27136-37.8092-82.09394-42.12842zm40.69631-18.9494-5.24922,12.84561c.2553.19103.53892.37639.85908.55046s.61918.33742.92465.4765c.31278.1566.60448.28387.87777.39534l.70282.27983c.58376.2382 1.15213.37814 1.73459.4419s1.11966.0416 1.63135-.1119c.52405-.14857 1.01309-.435 1.43436-.82813 .43869-.40053.77734-.94642 1.05097-1.61716 .20268-.49682.3162-.93952.33897-1.35039 .0402-.41824.0304-.78655-.067-1.11603-.0923-.34191-.24907-.66379-.4615-.92434-.20003-.25546-.44465-.47508-.71232-.67129l.0499-.10097c.38098.025.71991-.0177 1.0421-.13254 .33459-.10969.64821-.2761.90874-.48852 .26557-.22492.49399-.46968.68272-.75501 .20627-.29253.37184-.61729.50357-.94026 .26856-.65833.35873-1.22513.30241-1.72622-.0512-.51355-.21336-.9769-.50224-1.36992-.27634-.38804-.65094-.71583-1.1247-1.01054-.46134-.28968-.95708-.56881-1.5036-.79179-.59619-.24323-1.20999-.44517-1.84395-.63134-.61647-.19355-1.13916-.33055-1.57948-.42322zm-225.38504,130.55914c-.22735.13934-.4371.30778-.61406.49891-.36533.36697-.65727.82391-.84286,1.35264-.19883.52684-.33572,1.07846-.41903,1.64922-.06581.45136-.10208,1.00086-.14002,1.63247s-.0322,1.20195.0079,1.76361l13.80028,2.02777 .35316-2.51329-5.7481-.83103 .41402-1.03289 5.8379-1.63846 .42904-2.88188-5.7171,1.78522-.74102.71651c-.15897-.76879-.55122-1.43022-1.19475-1.94437-.65483-.52932-1.56637-.87769-2.69467-1.04231-.78318-.11424-1.43697-.059-1.98012.13286-.27729.0883-.52338.18539-.7505.3251zm187.07381-105.22863c.0813.57748.17303,1.13152.22856,1.70837 .39443.10687.70513.20826 1.08283.31301l-.62664.28963c-.56235-.45794-1.09274-.92464-1.61102-1.41538 .30857-.30085.61238-.60377.92627-.89563zm-185.8227,107.64563c.41043-.21121.89033-.26044 1.48767-.17329 .79647.11619 1.38583.3618 1.72428.73654 .32528.37279.44645.86686.35548,1.49072l-.11632.86102-4.29365-.62431c-.0225-.12529-.0181-.30295-.002-.50389s.0438-.40814.0747-.62052c.0833-.57079.34641-.95684.77003-1.16627zm225.74333-130.18858c.2315.0363.5892.1323 1.09846.34009 .23597.0963.4369.22613.61018.36938 .19072.13594.34293.30845.43643.50582 .0987.18486.14288.41868.13867.6777s-.0814.55787-.21314.88083c-.20274.49677-.48735.84308-.87522,1.04657-.37443.2104-.78434.3064-1.20028.29606-.12204-.0208-.27311-.0746-.46956-.12582-.17911-.0584-.34878-.0969-.48521-.15288l-.53206-.23409 1.49176-3.60367zm-38.74955,25.25882c.9023.0282 1.66365.0477 1.98542.18883 .4272.18736.29928.65795-.0683,1.19416-.65525-.44922-1.3001-.90025-1.91709-1.38299zm36.51399-19.81842 .94752.39115c.26084.10642.50179.24315.72264.37663 .23336.13852.41795.30058.54882.51308 .13593.20005.20211.44927.21262.74329 .0155.28154-.0646.62603-.23183,1.03595-.26353.64584-.62685,1.08546-1.09898,1.28402s-.97856.17686-1.50022-.036c-.19872-.081-.43239-.18173-.67576-.29544-.22596-.1211-.3667-.20316-.45088-.28095l1.52607-3.73176zm-227.16704,131.66014-.60054,7.02233 14.04467,1.20107 .58073-7.11913-2.30711-.18355-.39832,4.56009-3.60227-.30179 .33081-4.05202-2.32273-.2106-.35787,4.06764-3.44713-.2831 .40251-4.49034-2.32275-.2106zm237.69527-135.86222-6.08317,12.71364 4.98758,2.38873c.0124-.73061.007-1.46982-.006-2.19773l.14981-.303-1.84509-.88328 1.56681-3.2862 1.80243.87185c.31413-.72365.62566-1.4413.92066-2.15532l-1.70139-.82192 1.47838-3.12688 1.54209.73349c.30889-.74806.61582-1.46401.92067-2.15536l-3.73287-1.77802zm-38.63898,29.20033c.93988-.42668 1.90056-.84193 2.86676-1.22211 1.07828,1.34801 2.10773,2.74762 3.10797,4.19564-1.94185-.93541-3.91471-1.90661-5.97473-2.97353zm-199.92116,120.47637-.05855,2.52361 14.05274.40257 .22248-7.48966-2.34142-.0555-.13688,4.95043-11.73838-.33147zm272.72871-149.55752c-.55967.42289-1.13867.83759-1.67262,1.29046 .84074.56543 1.67944,1.14525 2.51165,1.72531 .6344-.35587 1.27703-.70946 1.89443-1.09374-.91069-.64137-1.81254-1.29806-2.73346-1.92203zm-272.70284,158.85235 .09659,2.5423 14.06083-.39595-.19603-7.46454-2.34868.057 .14212,4.93366-11.75483.32756zm258.02368-148.46487c-.74999.45137-1.49204.91524-2.24206,1.36663l.61019.36939-.56189.90176c1.08854-.65838 2.16571-1.33017 3.25488-1.9874l-1.06111-.65037zm-9.05363,5.44363c-1.57042.9478-3.13022,1.91036-4.70062,2.8583l.21339.0572c.55419.10597 1.09071.10183 1.58141-.0109 .25453-.059.5047-.16255.7391-.28234s.47376-.25263.688-.43336c.44031-.35479.82898-.84753 1.1718-1.4704 .13628-.24761.22122-.47928.30689-.71845zm-272.2971,161.18008c-.0057.44391.0048.89547.05248,1.34091 .10878,1.01695.23937,1.90928.38817,2.73482l-.79404.99969c-.53539.32135-1.08894.59983-1.65506.88338 .40866-1.40576 1.15463-3.559 2.00845-5.95879zm23.53893-13.22936 .58943,7.02092 14.01477-1.16322-.56655-7.1063-2.34032.19647 .40022,4.56817-3.62291.28747-.35525-4.05284-2.31325.18084 .32821,4.06848-3.44071.29051-.38038-4.47134-2.31325.18084zm250.3757-142.46158-.4464.72683 .33426.20394 2.26554.42403 .5234-.84345c-.77117-.14773-1.60803-.31658-2.6768-.51135zm-94.59413,62.40817c-2.55014,1.4724-4.75973,3.19271-6.62071,5.15759-1.89601,1.90432-3.25108,4.02045-4.08423,6.36341-.86815,2.28235-1.15218,4.82334-.8617,7.57003 .31621,2.65102 1.37468,5.50596 3.16249,8.60254 1.92808,3.33954 4.13693,5.82962 6.62266,7.47081s5.0631,2.82081 7.74474,3.53931c2.74241.68353 5.49451,1.0816 8.23436,1.19981 2.80059.0832 5.38419.25197 7.78542.48474 2.46193.19779 4.68993.6625 6.64988,1.39292 1.92484.66978 3.43837,1.95552 4.56019,3.89846 2.73429,4.73604 1.06083,8.87772-5.01098,12.38328-2.42873,1.40223-4.89913,2.35665-7.44493,2.85496s-4.63731.72602-6.27233.6985l2.20275,12.4403c2.04379.0344 4.67631-.38766 7.89001-1.27161 3.27441-.91899 6.79269-2.47839 10.55723-4.65185 2.97516-1.71771 5.44703-3.64404 7.42005-5.83559s3.37376-4.5427 4.19748-7.04223c.84937-2.59526 1.03988-5.34549.5835-8.23936-.39571-2.92887-1.52441-6.01528-3.38234-9.23338-.22696-.3931-.46193-.77889-.69906-1.14802-.0804.2256-.16921.45315-.25277.6872-.55705.5067-1.13881.97775-1.78086,1.35295-.0563.0859-.12036.16545-.18106.24892-.015-.04-.02-.0839-.0353-.12399-.22027.1214-.44649.22118-.68076.32087-.88903.37811-1.78769-.1424-2.67794-.7633 .93188-.34701 1.83572-.76727 2.6804-1.29494-.0796-.20584-.1671-.40943-.24697-.61517 .17745-.20406.38394-.37853.5672-.58008l.0313.0541c-.18352.38049-.30011.75422-.27033,1.09427l.10829-.0625c.21041-.1358.3834-.39928.53176-.70393 .1356.0465.29148.0285.44142-.11047 .3234-.29999.52735-.65887.69303-1.04964-.61966-.82886-1.27887-1.57809-1.95589-2.2627-.14177.72731-.0625,1.66648.15796,2.39862-.10152.3785-.22295.73292-.3557,1.07139-.0458-.11794-.0874-.2381-.13337-.35601-.2335-1.42258-.39568-2.71962-.56034-3.97053-.61178-.54239-1.23877-1.03562-1.89421-1.46838-2.52081-1.70188-5.15751-2.87445-7.89987-3.55798-2.71674-.77923-5.46922-1.24046-8.26978-1.3237-2.77495-.17892-5.39743-.35251-7.85936-.5503-2.40122-.23275-4.54243-.65691-6.43225-1.266-1.92485-.66968-3.37549-1.84645-4.35707-3.54662-1.0867-1.88221-1.26143-3.67766-.54725-5.38537s2.22798-3.23483 4.59598-4.60205 4.73776-2.35406 7.092-2.90379c2.41498-.58464 4.33118-.80179 5.78409-.66919l-2.25159-12.08735c-.021-.0224-.0258-.0588-.0469-.0811-2.34703-.01-5.03199.46261-8.03677,1.39244-3.02214.93534-6.09485,2.29207-9.19149,4.07984zm40.38735,37.01546-.0812.0469c.22384.57929.4556,1.15762.67832,1.73736l.21649-.12499c.23934-.36512.42312-.76766.58785-1.16935-.41929.40222-.79162.57113-1.1389.15238-.1647-.19846-.24306-.41952-.26261-.64225zm1.40145.4899c.35538-.34097.75781-.83018 1.15311-1.31526-.19529-.29264-.39524-.56917-.59677-.84624-.0878.7551-.27514,1.47594-.55629,2.16148zm-196.26496,51.93409c-.17149.41705-.29158.9294-.34201,1.53259s-.02098,1.26414.07453,1.9416c.07867.55791.2411,1.06979.4565,1.54066 .20215.47274.47101.86682.82705,1.18239 .34279.31746.75076.53536 1.2589.68048 .49301.13369 1.09035.15741 1.76779.0619 .73051-.10314 1.32641-.31632 1.79565-.6398s.87326-.69723 1.19273-1.12163c.31762-.43766.58304-.8864.80017-1.36409 .21526-.49094.42039-.93069.63359-1.34007 .21136-.42267.46162-.81245.73152-1.10796 .25665-.29359.60755-.46405 1.0326-.52401 1.03614-.14609 1.62686.43887 1.81414,1.76719 .0749.53135.0736,1.0399-.0203,1.52729s-.21393.88007-.3359,1.1682l2.38218.50105c.15242-.36019.25734-.85642.33058-1.4899 .0714-.6468.0405-1.36997-.0757-2.19356-.0918-.65087-.24842-1.22735-.49612-1.73429s-.55967-.93397-.94362-1.25942c-.39968-.3365-.86789-.57294-1.41402-.69915-.54802-.1395-1.17619-.16839-1.88023-.0692s-1.28376.32779-1.75299.65125c-.48246.32543-.90215.69961-1.21978,1.13726-.33279.42624-.61194.88874-.82721,1.37971-.23043.47955-.4493.93303-.66067,1.3557-.21323.40939-.44963.75798-.69302,1.04964-.25665.29358-.5482.47888-.92017.53125-.41182.058-.74553-.0412-.99745-.29013s-.41662-.64262-.48972-1.16065-.0736-.98484-.003-1.4419c.0692-.47036.16989-.86162.29741-1.10991l-2.32386-.46253zm69.90562-40.10743c-2.91446,1.68274-5.75708,3.53257-8.55701,5.55382-2.77423,1.9256-5.07926,3.63765-6.87265,5.15872l36.28124,62.84096c1.60685-.44198 3.3135-1.0373 5.05808-1.80166s3.38616-1.56689 4.9392-2.38255c1.64879-.78996 3.13075-1.55495 4.46656-2.32618l3.27465-1.89062c2.85373-1.6476 5.34884-3.59614 7.47837-5.79711s3.71416-4.5949 4.72006-7.19959c1.06655-2.63971 1.46147-5.44456 1.18726-8.44361-.24859-3.09475-1.32809-6.30024-3.22106-9.57907-1.40226-2.42868-2.92142-4.33712-4.54516-5.74743-1.59817-1.50599-3.22574-2.58062-4.89832-3.23413-1.70768-.71414-3.44204-1.04658-5.19848-1.00403-1.69578.008-3.37212.23156-5.03967.70851l-.3125-.54126c1.32386-1.49292 2.23503-3.08951 2.79275-4.78782 .61841-1.73329.91854-3.47626.87595-5.23278-.0777-1.81713-.40022-3.55453-.97301-5.24782-.54714-1.78895-1.25463-3.48547-2.16605-5.0642-1.85797-3.21799-3.93236-5.52246-6.18212-6.89524-2.28481-1.43333-4.69838-2.17215-7.24668-2.23914-2.4876-.10189-5.1083.34062-7.84314,1.35281-2.67409.97726-5.34667,2.25705-8.01827,3.79942zm214.17501-122.78799c-.45372.26224-.88955.54142-1.33752.80836 7.53028,6.11782 14.6198,12.8843 21.19577,20.27464 .14289-.69797.37229-1.84118.49686-2.4519-6.19879-6.85211-12.84501-13.16142-19.86795-18.9123l-.48714.28125zm-185.21587,107.25919 36.8125,63.76112 32.25944-18.62499-3.8125-6.60344c-.30692.55568-.65258,1.09992-1.00829,1.62858-1.53503,2.28151-3.18961,4.20577-4.93913,5.8827-1.27259.70101-2.54078,1.38689-3.79305,2.11775-.12118-.1317-.26965-.26444-.48212-.33508-.92882-.30867-1.58424-.54704-2.47285-.84561 .72227-2.41432 1.17023-4.92716 1.75395-7.39958l-12.12436,7-9.46875-16.40037 18.48421-10.67186-6.09375-10.55469-18.48421,10.67187-9.04688-15.66965 20.40573-11.78125-6.10937-10.58174-31.88056,18.40625zm77.69872-44.85937c1.47101.11116 2.9297.21208 4.38515.28282-1.80596.65972-3.47217,1.71675-5.13895,2.78659l4.96875,8.60612 15.10133-8.71876 30.70313,53.17938 11.47482-6.62499-11.95312-20.70342c-.66536-.57173-1.27922-1.07477-1.69221-1.36849l.11857-.35713c.10103-.15694.20797-.30925.30801-.46651l-17.48438-30.28383 15.12838-8.73438-6.10937-10.58174-31.79936,18.35937c-.0717.0713-.12631.15006-.19673.22178l-.12799-.0343-7.68598,4.4375zm7.24986-4.00533 .128.0343c-.27043.29173-.49914.55256-.72121.81332 .12349-.16575.44327-.64368.59315-.84763zm79.25113-44.42052c.12042.31458.23576.59955.33346.88999 1.02339.2209 2.0435.4546 3.06519.68405-.0371-.30124-.10062-.58186-.1783-.87132-1.07083-.2479-2.14855-.45932-3.22032-.70274zm-74.17406,43.40175c.92586,1.0452 1.86647,2.13536 2.82866,3.27436-.95813-.35475-1.90367-.74281-2.86543-1.08805 .0936-.90958.10005-1.63254.0368-2.18631zm82.25709-46.58904c-.12857.17307-.26203.33902-.38919.51337l.49854-.32397c-.0263-.0636-.0779-.12497-.10937-.18945zm-82.38424,49.36879c1.2823.46834 2.51395.94033 3.739,1.41363 .85239,1.03406 1.69512,2.08366 2.4559,3.12874-2.17059.10064-4.34615.19512-6.38091-.17703-.20692-.0378-.41265-.11458-.61327-.1872 .40442-1.682.65249-3.05398.79928-4.17814zm84.67716-48.02237-9.08421,10.7657 5.42762,4.58841 1.5038-1.77033-3.50942-2.95347 2.34053-2.75862 3.13971,2.62568 1.50382-1.77034-3.11266-2.6413 2.22083-2.6534 3.4511,2.91499 1.50382-1.77033-5.38494-4.57699zm-7.02779,5.14003c-.79373,1.08152-1.37175,1.89774-2.06876,2.85429 .44929-.28677.88688-.682 1.28535-1.2112 .41643-.55308.67483-1.09703.78341-1.64309zm-191.93638,116.11893c.52243-.32207 1.10969-.64065 1.73205-1 1.15364-.666 2.26963-1.13777 3.4164-1.39512 1.17245-.353 2.33485-.39818 3.44909-.15101 1.07919.18659 2.14477.69647 3.20079,1.54396s2.0235,2.06736 2.93495,3.64598c1.40223,2.42878 1.92615,4.76653 1.52746,7.02061-.33797,2.21913-1.19962,4.16832-2.57482,5.85279-.47634.43699-1.13268.99735-1.97339,1.64451-.81501.55149-1.55848,1.00821-2.22646,1.39364l-2.65221,1.53125-10.20312-17.67233c.66901-.62906 1.80168-1.44855 3.36924-2.41432zm-72.95008,42.33424 2.05174,8.99124 2.26525-.51397-.72773-3.26047 11.45009-2.60535-.56923-2.48594-11.45009,2.60534-.75478-3.24482-2.26525.51397zm279.0737-157.44265-9.67573,10.24117 3.44497,3.27936c.7668-.3366 1.51853-.70514 2.27445-1.06056l-2.30045-2.17202 8.09797-8.53638-1.84121-1.75157zm-276.13134,167.97649c-.11067.43718-.1527.94285-.11714,1.54711s.14734,1.24075.33792,1.8978c.15698.5411.38163,1.02272.66159,1.45833 .26773.43892.61923.81112 1.01644,1.07303 .38434.26567.80812.42244 1.33172.4941 .50698.0625 1.1096.00054 1.76665-.19005 .70866-.20544 1.2635-.51232 1.68211-.899s.74605-.79882 1.00217-1.2642c.25239-.47824.47798-.97594.62524-1.4796 .14352-.5165.27853-1.00449.43159-1.43996 .14934-.44837.33542-.82297.56076-1.1537 .21247-.32697.54214-.53989.9545-.65928 1.00494-.29141 1.6757.19868 2.04934,1.48706 .14947.51534.21276,1.01895.18892,1.51473s-.0582.89583-.13809,1.19833l2.40392.16372c.0999-.37812.15004-.88255.13277-1.52003-.021-.65039-.1657-1.38945-.39734-2.18823-.18337-.6311-.4113-1.16958-.72825-1.63637s-.71779-.83999-1.1445-1.10735c-.44332-.27646-.93977-.42253-1.49829-.47009-.56226-.0604-1.18066.0118-1.86347.20985s-1.25214.46947-1.67065.85636c-.43151.39045-.76123.8286-1.01361,1.3069-.26904.46907-.48168.9631-.62522,1.47957-.16013.50739-.28225.99162-.4316,1.43997-.15305.43547-.33413.81482-.53371,1.13808-.21248.32699-.49688.53491-.85763.63953-.39938.11581-.77416.0643-1.05883-.14644s-.47929-.58007-.625-1.08253-.21733-.96681-.21179-1.42935c.002-.47539.0509-.86487.14227-1.1286l-2.3727-.10958zm37.94028-19.84801c-.0776.30249-.15927.61185-.22458.92353-1.77794,1.01841-4.22708,2.47711-6.93961,4.04272 .69091,3.22635 1.48961,6.44596 2.42674,9.64075 2.39572-1.58687 4.73496-3.06899 7.04983-4.53934-.91252-3.33401-1.68197-6.70251-2.31235-10.06761zm270.02416-155.42943c1.03358,3.81308.99191,6.78246 1.47624,12.93194-.134.16512-.29482.31562-.44751.47486 6.14177,7.59461 11.77628,15.77213 16.81518,24.49977 18.26046,31.62804 26.28693,66.34803 25.16091,100.32996 .42795.17758.85642.35971 1.23907.58364 3.39826.29526 3.24976.1288 3.49208.79845-.53949.85096-.83877,2.02834-.58305,3.11513 .71976-.30066 1.4518-.56564 2.19017-.83151l.074.0655c-.76019.34502-1.57465.70951-2.20887.98662 .32392,1.04344 1.19461,1.98233 2.91791,2.42896 .17088-.14161.33526-.29437.50581-.43642 2.48532-37.47916-5.70793-76.07391-25.88686-111.02483-7.16563-12.41124-15.48798-23.72355-24.74504-33.92219zm47.20816,142.95443c-.0233-.0722-.0379-.14704-.0552-.22068-.9526.39782-1.87204.82819-2.7772,1.31475 .83565-.2681 1.77138-.63052 2.83244-1.09407zm-2.83244,1.09407c-.58328.18704-1.12949.33296-1.66873.42217-3.31534,49.95082-26.43187,97.80353-66.13469,131.38886 .25208.34242.4931.70809.71037,1.1054-.31901-.28653-.66-.58164-1.00389-.86379-.33649.28365-.68833.5643-1.02727.8457 .98445,1.12716 2.04526,2.18655 3.18466,3.14099 .31368,1.54937.0995,2.74905-1.03507,2.58222-1.72948-.25423-3.46358-.58436-5.16724-.94989 .17725-.8577.29346-1.73895.40311-2.61429-7.39133,5.91765-15.31275,11.33065-23.76597,16.21112-22.42958,12.94972-46.40749,20.77354-70.57503,23.82292 .31436,3.0663.55525,5.32866.54029,6.43584-.26024.24009-.5377.44133-.79934.678-.67765-.70132-2.06151-2.77562-3.90483-5.57584 .62289-.40708 1.26996-.81069 1.94018-1.26455-51.58015,5.88054-103.83131-9.90125-143.59992-43.78485-1.71666,4.80463-2.61259,6.96035-2.92185,8.00171 61.43208,50.69445 150.3348,60.78931 223.3361,18.64199 5.23278-3.02115 10.24016-6.26887 15.0854-9.68383-.10228-.33555-.19164-.68475-.29912-1.01809 .43949-1.04295 1.0144-2.05911 1.59501-3.04986 1.61129.0709 3.66649-1.30464 4.84718-.41696 22.89694-17.49952 41.05544-39.35265 53.97043-63.70795-.13467.0158-.2744.0153-.41851.0251 .47889-3.28785.93627-6.58253 1.40959-9.87101 .72741,1.16431 1.495,2.55762 1.97518,3.98362 .86208-1.76567 1.69923-3.55586 2.50731-5.34471-1.36318-.6957-2.65622-1.4997-3.94855-2.3391 .0478-.33843.0876-.67769.13502-1.01614 1.41083.67966 2.96327,1.64603 4.19743,2.52017 7.06424-15.83439 12.01128-32.52969 14.71758-49.63342-.87429-1.11021-2.0673-2.39912-3.54097-3.94561 1.37434-.47812 2.7932-.81526 4.24005-.96854 .10034-.75741.22002-1.51404.31161-2.2728-.94051-.75835-1.84631-1.52594-2.74298-2.31347-.5846-.51342.34062,1.50677.51397,2.26525-1.03122.56697-1.96646,1.35947-3.08939,1.7115-.19176.0601-.41058.0857-.60796.13451-.45809-.47004-.82895-.86895-1.34345-1.38944-.0236-.0228-.0509-.0425-.074-.0655 .16825-2.40785 1.12608-4.89748.83573-7.30247-.16254-1.34633-.2935-2.45048-.44983-3.52915 .53989-.34726 1.09871-.69288 1.66227-.99585zm-326.22318,18.96489c.76453,3.37556 1.65133,6.73346 2.67675,10.07374 .56539-.41269 1.1446-.80788 1.71949-1.20924-.99032-3.2796-1.83156-6.57125-2.56737-9.88431-.60051.33632-1.21695.68425-1.82894,1.01968zm257.36056-148.55093c-.6551.75076-1.32512,1.52398-1.96276,2.2879l-7.1287,8.59022 1.13726,1.21978c.52706-.60626 1.02925-1.21207 1.53086-1.78596l-1.01645-1.07303 8.5458-8.07325-1.10601-1.16566zm16.53658-6.73282c-.17302,1.03542-.26974,1.89103-.34898,2.58305l.0157.0272 .40516.45168c.16819-.45036.41679-1.34086.6916-2.23961-.24963-.27976-.51221-.54426-.76338-.8222zm6.47209-1.1025c-.0793.0192-.17649.14173-.25808.36549-.27912.7649-.47488,1.52975-.64472,2.32081 .66663.77809 1.32019,1.56851 1.9757,2.35951-.19588-1.94604-.58715-5.16313-1.0729-5.04581zm-304.2042,177.97787 2.34353,6.6216 11.28518-3.95351c.40755-.91288.82754-1.81164 1.30987-2.66872l-1.67247-4.77182-2.19438.76174 1.53492,4.34606-3.42897,1.18584-1.35047-3.83909-2.22143.77736 1.36609,3.86617-3.27801,1.13479-1.48804-4.26486-2.20582.80444zm286.89745-164.01654-.94608.79882c-.16386,1.40668-.4935,2.77752-.94297,4.11676l1.74545-1.47681 2.89533,3.45234 1.79956-1.50805-4.55129-5.38306zm14.02359-6.14796c.39652.47498.80014.96075 1.19251,1.44049 .15453.0687.32072.12655.47376.19557 .0178-.39947.048-.79529.0683-1.19415-.56711-.14354-1.15911-.29418-1.73458-.44191zm1.73458.44191c.52527.13294 1.00542.25612 1.52115.38471-.47718-.58883-.93923-1.19493-1.42268-1.77668-.0327.46396-.0747.92587-.0985,1.39197zm-.0683,1.19415c-.005.12171-.00078.24272-.006.36439 .0987.12175.19008.25263.2885.3747 .13675-.13912.26155-.28088.40903-.41654-.23096-.10673-.45667-.21662-.69138-.32252zm.69137.32252c.70977.32802 1.41352.65768 2.08979.99461-.0502.78224-.12906,1.56971-.19497,2.3498 5.03364,6.50395 9.71485,13.38915 13.94159,20.71008 39.43292,68.29982 29.9164,151.4149-17.64097,208.75742 1.11731.11317 1.61888.26206.66853.4079-.34095.0522-.78386.13728-1.20448.2263-13.40991,16.01956-29.78669,30.00732-48.93154,41.0606-18.14739,10.4774-37.34897,17.48912-56.8262,21.26161 .044.21579.098.40821.0918.59652-.0845.20914-.4812,1.15699-.51391,1.2349-.14149.14266-.31705.25683-.51001.36663 20.1429-3.74677 40.0061-10.90102 58.7583-21.72761 88.63476-51.1733 118.98676-164.53392 67.81347-253.16865-4.93341-8.54492-10.43702-16.54863-16.44856-23.98974-.37215.30446-.75164.60555-1.09285.91963zm-18.72588,10.37831c-.32014.82057-.66305,1.63667-1.04344,2.44275l1.44559,1.69128 1.78393-1.53512-2.18608-2.59891zm-270.80421,157.82835c-.29035.961.1109,2.63709-.86319,2.87993-.6138.15293-1.1351.13528-1.59285.0536 .4701-.73192.93138-1.47142 1.39332-2.21171 .36055-.2487.67922-.45312 1.06274-.72177zm267.98162-151.90469c-.39052.74144-.74015,1.49561-1.12574,2.23767l.13648.1738 1.77249-1.49246-.78319-.91903zm-276.28998,160.20171c-.2425.16738-.42556.35597-.58283.55299-.32685.3994-.53274.84235-.60652,1.32447-.079.46979-.0772.97969.0494,1.5231 .12133.5311.30175,1.06207.53042,1.60623 .24945.59364.54399,1.16041.86046,1.74044 .29836.57317.55517,1.07317.80093,1.45005l12.80992-5.37506c-.0454-.31561-.12599-.67284-.22938-1.02228s-.19289-.66106-.31055-.97541c-.11063-.33182-.23459-.64507-.34909-.91706s-.2055-.49615-.27823-.66931c-.211-.50048-.4799-.94461-.78125-1.35317-1.4862-.23666-3.15915-.68112-4.79557-1.05622l.13418-.33006c-.0679.0249-.13677.0536-.2051.0823-.49458.20806-.8956.45576-1.20218.73022-.32418.2673-.56854.55418-.73266.85602-.17651.30706-.28737.60888-.32138.94334-.0392.32204-.0346.63705.0159.96506l-.1083.0625c-.25165-.28707-.5428-.51635-.8518-.66289-.31422-.15894-.62034-.2447-.95479-.27872-.34681-.0288-.68402-.021-1.01919.0472-.35265.0611-.69653.16398-1.0181.2991-.32764.13789-.61216.28981-.85462.45727zm287.41668-164.92973-11.17654,8.32917 1.53625,2.03587 4.66296-3.48602 .42721,1.05238-2.98832,5.26159 1.75082,2.34501 2.79049-5.29171 .0226-1.0234c.41287.27138.85445.42974 1.33171.4941 .0993-.79108.15053-1.4118.17016-1.83029-.24587.0422-.47898.0867-.7204.12724-.28317.72998-.41828,1.15316-.0698.004-.6385.10712-1.30743.21278-1.91343.31085-.43053-2.3822-.23707-4.36378.90783-3.30262 .11879.11016.22487.23228.34266.34343l1.83499-1.38421c.28304-.97013.71722-2.43703 1.11482-3.81907 .28487.99386.97736,3.30319 1.96771,6.65819-.73538.24541-1.45649.53305-2.14749.84291-.13725.0244-.2514.0553-.38728.0792 .4536.48317.90844.96234 1.34763,1.45918 .3411-.17465.68727-.3737 1.03983-.63648 .63446-.47312 1.08997-.97463 1.33836-1.49439 .12284-.23782.20206-.49134.26419-.72989-.20329.0644-.4007.13955-.60378.20422-1.27345-2.91675-2.14947-5.16795-2.63704-6.38-.0636-.0577-.14235-.11436-.20615-.16966zm-.54306,7.7469c-.16138-.17193-.3156-.34723-.47903-.51727-.14935.0552-.3017.0901-.44142.11047 .006.13122.00053.34062-.009.54657 .31603-.054.60624-.083.92964-.13982zm-1.71979.27126 .0698-.004c.0869-.22403.17404-.4666.26839-.66014l-.128-.0343c-.0839.28003-.15459.51576-.21007.69864zm-210.8313,115.51698 4.65489-2.6875c1.27509-.73613 2.55098-1.3548 3.80981-1.83874 1.31952-.51893 2.60437-.69818 3.90077-.55616 1.26131.0814 2.52265.56895 3.77026,1.46777 1.21248.83818 2.41647,2.24804 3.57332,4.2517 1.82288,3.15739 2.38636,6.03483 1.69349,8.62071s-2.33372,4.63108-4.88387,6.10338c-.9715.5609-2.07212,1.16909-3.32151,1.80948-1.2238.54458-2.13745.86354-2.72838.96181l-10.46875-18.13241zm-90.16427,52.70589c2.95539,6.97689 6.33838,13.85339 10.22384,20.58321 31.0803,53.83266 85.11591,86.17681 142.60442,91.81058 .002-.5257-.008-.96036-.003-1.4419l3.83633-.23027c-1.27885-.0995-2.55154-.19018-3.82714-.3163-56.80373-5.61638-110.15702-37.61009-140.879-90.82212-3.32634-5.76138-6.2871-11.63334-8.92361-17.58112-1.02966-.57104-2.04311-1.26842-3.03229-2.00208zm17.78813-9.44004c.12681-.079.26061-.14008.42166-.20719 .4946-.20808.96107-.24052 1.3794-.11081 .41316.11735.75857.32194 1.04545.62329 .0723.10041.15878.21521.26157.39025 .0848.16812.15454.35527.21149.49132l.22713.51839-3.60585,1.50449c-.13778-.18944-.31135-.52528-.524-1.0326-.0986-.23502-.15998-.46528-.18137-.68912-.0389-.23102-.0144-.44195.0591-.64759 .0612-.20039.19891-.40287.38502-.58314 .0931-.0899.19364-.17842.32057-.25725zm5.45034-2.49724c.14858-.0962.31023-.21098.5142-.29688 .64311-.27026 1.22682-.3096 1.7011-.11611s.79818.55362 1.01647,1.07305c.0832.19786.18659.41678.27822.6693 .074.24539.0986.4393.10323.55382l-3.68703,1.55137-.40734-.95561c-.10925-.25963-.16655-.51978-.22825-.77033-.0669-.26291-.0885-.49753-.0304-.7402 .0457-.23751.16473-.46462.36521-.67995 .094-.10497.22563-.19309.37469-.2885zm28.47898-16.29796c-.24484.44937-.46453.90286-.64502,1.38276-.39361,1.0465-.62463,2.15565-.78395,3.2672-1.37237.74823-2.85512,1.54309-4.42388,2.33761 2.29759,5.62857 4.96933,11.16963 8.09354,16.58091 4.58499,7.94145 9.87509,15.22555 15.71807,21.84949-.20679-3.14652-.14175-5.67709.18592-7.86548l.38616-.33115c.99555-.0262 1.91894-.0474 2.89525-.0478-4.49088-5.42649-8.5893-11.31462-12.23011-17.62068-3.66994-6.35653-6.7319-12.89607-9.19595-19.55285zm-10.43603,9.23675c2.35552,5.72403 5.11258,11.35525 8.29247,16.86298 6.26282,10.84752 13.77183,20.52968 22.22298,28.99135-.24137-.62283-.46699-1.24984-.68667-1.87686 .41218-.084.83033-.20623 1.23878-.35437-7.99144-8.14241-15.10102-17.40576-21.0701-27.7445-3.16022-5.47366-5.86819-11.08102-8.20291-16.77033-.61143.30162-1.18639.59536-1.79457.8917zm247.14954-128.79941c-.58249.35466-1.14983.709-1.74345,1.04272 .43405.67519.86049,1.35181 1.28428,2.03703 .24106-.26599.49171-.52486.73683-.78627 .10768.875.19059,1.56678.30167,2.46001 .39555.66032.79702,1.31788 1.18335,1.98702 25.51118,44.18667 23.80333,96.61889.0712,137.87342 .3792.81119.57216,1.25134 1.01368,2.19324 24.72436-42.03349 26.76402-95.83086.64712-141.06666-1.12846-1.95454-2.28772-3.86144-3.49467-5.7405zm-260.75199,152.92678c-.65683.46963-1.17719,1.12315-1.4798,1.93691-.80691,2.17006.29593,4.58927 2.46599,5.39621s4.58927-.29592 5.3962-2.46598-.32299-4.57365-2.49305-5.3806c-1.35628-.50432-2.79456-.26914-3.88934.51346zm281.22755-161.21209c-.65682.46963-1.1772,1.12313-1.4798,1.9369-.80695,2.17007.29593,4.58928 2.46599,5.39622s4.57364-.32301 5.38058-2.49305-.28032-4.56221-2.45037-5.36915c-1.35628-.50435-2.82164-.25352-3.9164.52908zm-264.90483,172.60886-2.77487,5.31878-.0226,1.0234c-.65605-.43123-1.3814-.58945-2.19998-.49798-.83735.0887-1.7318.48543-2.64606,1.16687-.63448.47312-1.06294.95901-1.31131,1.47877-.26712.51701-.38897,1.02767-.36909,1.5482 .001.51783.10147,1.02824.34405,1.53342 .23226.51289.54168,1.01043.88657,1.47279 .27266.36566.59352.78181 1.01338,1.25522s.83985.88528 1.26533,1.25411l11.17653-8.32917-1.49357-2.02443-4.67859,3.45896-.43858-1.00974 2.99975-5.30427-1.75082-2.34502zm65.57915-35.91356c-1.71791.99189-3.21568,2.12272-4.46933,3.44638-1.27725,1.28283-2.19107,2.71704-2.75231,4.29538-.58483,1.53752-.78538,3.25329-.58969,5.1036 .21299,1.78589.92235,3.72259 2.12671,5.80859 1.29885,2.24968 2.78607,3.93288 4.4606,5.03848s3.4174,1.87653 5.22389,2.36055c1.8474.46047 3.67752.7369 5.52325.81653 1.88662.056 3.65145.15697 5.26904.31377 1.65847.13323 3.16086.45703 4.48116.94907 1.29666.4512 2.31426,1.32098 3.06997,2.62985 1.84197,3.19043.71252,5.97556-3.37774,8.33707-1.63614.94463-3.30769,1.58986-5.02263,1.92555-1.715.3357-3.14086.48318-4.2423.46465l1.49874,8.40839c1.37679.0232 3.14539-.2693 5.31031-.86477 2.2058-.61907 4.59759-1.68014 7.13358-3.14429 2.00421-1.15713 3.64182-2.47618 4.97098-3.95253s2.26907-3.04987 2.82399-4.73369c.57214-1.74829.71687-3.59135.40946-5.54081-.26658-1.97303-1.03977-4.05085-2.29136-6.21873s-2.70796-3.79751-4.38247-4.90315c-1.69817-1.14649-3.45045-1.96564-5.29783-2.42612-1.83014-.52492-3.69494-.79896-5.58155-.85504-1.86934-.12052-3.64181-.23462-5.3003-.36787-1.6176-.15682-3.04877-.45033-4.32184-.86064-.68236-.23742-1.27732-.59734-1.78372-1.027-.17787.25262-.36185.49757-.5432.74665-.35674-.13544-.75386-.26273-1.12969-.39421-.0435-.52891-.0755-1.05883-.22019-1.56885-.19847-.69974-1.98719-1.43328-1.32169-1.72675 .46284-.20405.90626-.42542 1.37714-.6147-.005-.48658.0967-.96442.2921-1.4316 .0189-.0454.0407-.0985.0614-.14367-.0986-.008-.19606-.004-.29461-.0103 .14467-.10188.30152-.1884.44438-.29282 .54285-.98147 1.49546-1.87375 2.89128-2.67964 1.59521-.92095 3.2118-1.56972 4.79775-1.94005 1.62684-.39384 2.9148-.53304 3.89354-.44371l-1.52887-8.21058c-1.58765-.0104-3.40978.3129-5.44564.9429s-4.0763,1.55965-6.16236,2.76397zm130.61276-75.08456c-1.39067.80296-3.01102,1.8451-4.83902,3.11857s-3.46796,2.55789-4.93248,3.8942l24.54688,42.51645 7.71304-4.45313-10.23438-17.72647 3.78193-1.13704 17.25071,12.62913 8.90382-5.14062-17.38687-11.86493-3.60338-.55374c.92815-1.10544 1.60186-2.31817 2.04979-3.63717l-.31975-.42883c.29745-.84288.59666-1.68184.89974-2.50412 .0238-.31409.0676-.61832.0695-.9422 .0336-2.96442-.98168-6.20023-2.98896-9.67701-1.39331-2.41321-2.92428-4.14167-4.63972-5.22373-1.69815-1.14647-3.48279-1.80506-5.31122-1.94929-1.81114-.20865-3.63912.0115-5.50506.65244-1.88954.60015-3.69568,1.41207-5.45452,2.42748zm71.5908-41.18859c.0454.31563.11055.64571.21376.99521s.20853.68814.32618,1.00247c.11062.33179.23458.64505.34909.91707s.20551.49616.27822.6693c.24496.58088.55091,1.07.91782,1.5269s.77098.83417 1.24131,1.08755c.47553.26569 1.00362.4034 1.57948.42323 .59343.0269 1.24149-.0998 1.90923-.38061 .49458-.20807.8956-.45576 1.2022-.73024 .32419-.2673.56854-.55417.73266-.85602 .17648-.30701.27175-.63595.30576-.97039 .0392-.3221.0346-.63705-.0159-.96507l.12394-.0354c.25166.28709.52717.48925.83619.63583 .3142.15895.63597.27175.97038.30577 .34684.0288.66842-.006 1.0036-.0743 .35264-.061.71215-.13692 1.0337-.27206 .65542-.27552 1.12289-.6162 1.43744-1.01028 .32684-.39938.53275-.8423.60653-1.32445 .079-.46976.0501-.96405-.0765-1.50747-.12133-.53108-.27455-1.0778-.50338-1.62185-.24961-.59355-.55961-1.18749-.87608-1.76751-.29793-.57343-.56672-1.03039-.81251-1.4073l-12.78285,5.35945zm-186.34721,108.23713 24.79687,42.94944 21.70476-12.53125-4.10936-7.11763-13.99173,8.07813-6.37501-11.04183 12.47619-7.20313-4.10938-7.11765-12.47619,7.20313-6.09374-10.55468 5.25027-3.03125c-.0242-.0239-.051-.0406-.074-.0655 .15707-.0545.32198-.11407.47986-.16885l1.67793-.96875c-.80223.28564-1.60289.57049-2.39944.84405-.77998-.89301-1.54722-1.90967-2.37246-2.67171 .29122-.20498.4632-.34225.738-.53428-.37785-.0793-.75542-.12936-1.13279-.212 .90624-.29116 1.80543-.6051 2.70552-.87644 .50787-.34945 1.14343-.76016 1.58833-1.06142-.79101-.24587-1.52545-.61859-2.04402-1.16537 .39761-.19515.80023-.38776 1.19916-.54795 .70095.25941 1.37766.5535 2.05435.87074 .40724-.27126.67398-.43415 1.02424-.66351 .0872.42834.16646.84831.23047,1.27421 .0483.0262.0843.0775.13224.10405 1.08961-.30177 2.17626-.59209 3.27913-.88286 .10954.0707.22566.13015.33428.20396-1.27779.53292-2.29448.90238-2.97615,1.03266 .68797.42572.99769,1.30806 1.04912,2.31713l3.00402-1.73437-4.10938-7.11765-21.46118,12.39062zm21.51742-5.85573c-.009-.005-.007-.0222-.0156-.0271-.20021-.11903-.4186-.2145-.62163-.3267l-.12394.0354c-.006-.0464-.002-.0932-.008-.13955-.40755-.22135-.83654-.41468-1.25471-.61071-.36622.24412-.79245.5604-1.20944.84265 .40003.12435.81688.21086 1.23377.26198-.9383.26652-1.88353.51646-2.82214.79942l-1.57276,1.0884c1.92452.4041 3.85251.79547 5.79194,1.09442 .0612-.96351.0168-1.94175-.10609-2.93375 .1757-.0102.34872-.021.51531-.0449l.19364-.0396zm-.60286,3.01832c-.006.0886-.0185.17941-.0259.26754l.37888-.21874-.35293-.0488zm5.44508-12.38133 17.09376,29.60725c.24026-.94486.51126-2.04777.82243-3.3255 1.37378-.25452 2.74253-.46245 4.02578-.33965 .0529,2.08466.16765,4.17054.33411,6.2662-.0428.0664-.0982.12504-.1426.19053-.93162-.51484-1.87344-.99729-2.83221-1.46808-.56014-.27504-.9891-.18467-1.33673.12224l-.0897-.0926 6.92188,11.98904 22.81434-13.17187-4.10937-7.11764-15.10131,8.71874-7.3125-12.66562c-.43792-.32958-.76658-.68169-.9852-1.0189l.12582-.46958-12.51562-21.67769-7.71303,4.45312zm26.00783-15.01563 24.79687,42.94944 22.81435-13.17187-4.10936-7.11763-15.10132,8.71875-10.82813-18.75487-.22378.2374-.47904-.51729 .4216-.20727-9.57812-16.58979-7.71303,4.45312zm25.98076-15 24.79687,42.94944 21.73181-12.54687-4.10936-7.11763-13.99172,8.07812-6.375-11.04183 12.44911-7.1875-4.10938-7.11765-12.44911,7.1875-6.09375-10.55468 13.74816-7.9375-4.10938-7.11765-21.48825,12.40625zm-165.052,97.74656c.45776-.26544.88767-.38918 1.26584-.37 .49358.0337.91759.2988 1.29434.80435l.51864.71092-3.45768,2.57366c-.10433-.0727-.21162-.19013-.34266-.34343s-.26543-.32233-.39365-.49442c-.34473-.46249-.42899-.90783-.27738-1.35541 .14083-.4396.43702-.85651.92098-1.21732 .16127-.12035.31898-.21972.47149-.30835zm275.87593-159.16885 3.68706-1.55137 .3917.92855c.10925.25962.19371.5041.25534.75468 .0669.26291.0771.54021.019.7829-.0457.23752-.16473.4646-.3652.67995-.18816.21013-.49657.38646-.9045.55835-.64311.27027-1.18416.32104-1.65841.12755s-.84087-.56506-1.05915-1.08448c-.0833-.19776-.15932-.43255-.25108-.68498-.074-.24539-.11014-.39657-.11471-.51111zm5.54411-2.33485 3.59022-1.53155c.13815.18929.32524.55334.53962,1.05965 .0986.23503.13303.48085.1543.70476 .0389.23102.0415.42631-.0321.63195-.0612.20039-.1989.40288-.38501.58314s-.4477.34497-.76918.48023c-.49467.20789-.93401.22486-1.35234.0952-.41316-.11735-.75872-.32183-1.04545-.62329-.0723-.1004-.17474-.24206-.27719-.4173-.0848-.16809-.16611-.31251-.22281-.44872l-.2001-.53399zm-183.54154,108.09672c-.0408.18654-.10413.3692-.1487.55494-.002-.14304.002-.29095.002-.43414l.14673-.12086zm108.42177-59.45795c1.75883-1.01542 3.3828-1.1891 4.88569-.47526 1.47928.67302 2.74892,1.94878 3.81159,3.78937 1.41693,2.4542 1.99167,4.55761 1.69483,6.31054-.32045,1.71208-1.45038,3.11072-3.37281,4.22061l-2.6522,1.53125-7.57813-13.1257c.29727-.33524.75795-.70775 1.34786-1.10293s1.20875-.77004 1.86318-1.14787zm-194.68801,112.72795-1.7725,1.49244 2.92658,3.50649-2.75709,2.34957-2.63808-3.13179-1.7725,1.49245 2.63808,3.13179-2.65302,2.21734-2.90676-3.40969-1.77251,1.49245 4.5513,5.38306 10.73903-9.08695-4.58253-5.43716zm265.11151-151.43842 2.36333,6.71843 2.17875-.7888-1.51929-4.31899 3.41334-1.21293 1.3661,3.86617 2.22143-.77735-1.3661-3.86617 3.23534-1.14624 1.5151,4.24924 2.19437-.76173-2.33209-6.6643-13.27028,4.70267zm-239.18509,139.03178c.1451,1.00383.28785,2.0243.49028,3.03669-.67487.6468-1.44043,1.25297-2.06907,1.91627-.80252.84671-1.56497,1.74575-2.34889,2.61909 .93883,1.00295 1.87363,2.01007 2.83896,2.97972 .96746-.67311 1.92475-1.49429 2.83827-2.39645 .6848,2.51816 1.42896,4.93189 2.19484,7.17657 6.17612,5.59149 12.82749,10.53209 19.81874,14.82707l.38729-.0792c-.0682.0686-.14367.12833-.21233.19476 .87513.53574 1.72969,1.0781 2.61573,1.59306-.54753-.69011-.93478-1.40972-1.09073-2.07659 2.10822-.41872 4.20024-.65284 6.31084-.75681 2.2987,4.54498 2.14212,3.43964 2.80986-.0707 .30569-.001.60524.0129.91097.0153-.19154,1.89589-.65433,3.72887-1.54948,5.44121-.24961.47751-.62792.73502-1.09704.8499 6.19765,3.17611 12.60227,5.86627 19.18776,8.04665l.20086-.1521c.60227-.23953 1.17788-.48454 1.73317-.74805-.17093.22283-.30499.37118-.48184.60294-.15499.20322-.27661.43186-.4235.64145 16.01108,5.15929 32.95239,7.31308 49.9097,6.25865 1.4631-3.92106 3.31175-6.49531 5.6098-8.47106-7.87955.88034-15.78752,1.01545-23.60759.42295 2.01116.88339 3.49617,1.63338 4.51494,2.44511-2.5014-.007-5.01024-.22321-7.31053-.0372 .57149-.67839 1.07138-1.21187 1.46222-1.52984 .40059-.32573.82752-.60681 1.26359-.87391-32.05723-2.44634-62.73247-17.06075-84.90686-41.87553zm-20.63882,18.62751-.0926.0896 .10829-.0625-.0156-.0271zm-.76809.73214-.9419.86857 1.01643,1.07304c-.18904-.44883-.28853-.92334-.26592-1.3981 .0101-.21212.0792-.37791.19139-.54351zm1.42627-.0296c-.35654.74594-.73589,1.47908-1.09868,2.22203l2.13809,2.26578-8.54578,8.07324 1.72151,1.85675 10.25578-9.67395-4.47092-4.74385zm262.31952-150.8368c-.0998.37812-.15005.88252-.13277,1.52003 .021.65037.15006,1.36236.38172,2.16118 .18353.63103.42706,1.19651.74388,1.66342s.70215.81294 1.12887,1.08029c.44331.27649.92832.46522 1.48684.51278 .56227.0604 1.20766-.0276 1.89053-.22548s1.20937-.48106 1.62801-.86776c.43141-.3906.78823-.84426 1.04066-1.32252 .26899-.46907.4546-.94744.59815-1.46395 .16011-.50736.32494-.98016.47429-1.42854 .15304-.43548.33414-.81482.53371-1.13808 .21246-.32697.49688-.5349.85762-.63953 .3994-.11582.73148-.0757 1.01615.13502s.50644.56439.6521,1.06688c.009.0335.0108.064.0198.0968 .79264.097 1.6057.12061 2.43099.14809-.0571-.3249-.13104-.68332-.22937-1.02228-.15698-.54112-.38163-1.02273-.66159-1.45834-.26774-.43894-.6036-.78404-1.00082-1.04597-.38436-.26568-.85081-.43389-1.3744-.50553-.507-.0625-1.06695.0109-1.72398.20148-.70858.20561-1.2792.48509-1.69772.87198s-.77309.8145-1.02922,1.27984c-.25238.47826-.43528.98739-.58252,1.49103-.14353.51651-.29417.97743-.44723,1.4129-.14935.44835-.31982.85005-.54513,1.18077-.21247.32697-.54214.53987-.9545.65928-1.00494.2914-1.67572-.19867-2.04935-1.48707-.14947-.51535-.21276-1.01897-.18891-1.51472s.0582-.89584.13808-1.19835l-2.40393-.16372zm-257.13209,156.32166-1.60481,1.72041 3.57723,3.38342-8.07091,8.52078 1.8412,1.75154 9.69134-10.21408-5.43405-5.16207zm17.6861-6.24179c-.61656.33219-1.14708.73409-1.56437,1.22795 13.38197,11.93899 28.776,21.02538 45.26166,27.02048 .72509-.42094 1.42732-.85478 2.1338-1.30412-16.69236-5.86038-32.30532-14.93521-45.83109-26.94431zm43.69729,28.24843c35.81104,13.02289 76.665,11.4386 112.71939-7.45179l.45057-.65708c-.1584-.42915-.51708-.76661-1.13614-.96784-.1189-.0387-.22292-.0531-.34151-.0915-34.15847,17.85696-72.6726,19.99468-106.93051,8.7284-.007.0123-.005.0302-.0115.0428-.95157-.12675-1.90649-.15314-2.888-.0647-.60134.0542-1.24293.22512-1.86235.46179zm113.16996-8.10887c.0419.11369.0642.26036.0792.3873 1.06225-.56237 2.13266-1.1388 3.1862-1.73136-.24197-.57211-.5439-1.1677-.8917-1.79456l-.16237.0937c-.72448.98472-1.48134,1.99269-2.21135,3.04485zm85.23932-158.54865 .56922,2.48595 8.97561-2.07882-.21037-.23938 .49103-1.14951c-.465-.29978-.91484-.62152-1.37245-.93967l-8.45304,1.92143zm9.82549-.98176c.0105.008.0311.004.0427.0115 .17484.37643.3204.77739.45118,1.21896l1.68435-.39511 .51399,2.26523 .82754-.44164c-.024-.26007-.0101-.52725-.019-.78288 .28837.12153.57792.22137.87358.32557l.10829-.0625c-.1702-.74775-.34292-1.46414-.47853-2.14137 .0993-.12052.19875-.23584.30077-.35404l-.1783-.87133c-.10489.0266-.21254.0487-.31749.0751-.017-.13007-.0429-.28867-.0522-.40288-.11039-.915-.61716-1.78652-1.34484-2.57941 .25244-.39686.46841-.82421.68048-1.25889l-.90985.23661c-.0582.16735-.11918.33465-.17994.50084-.0119.0273-.0106.0589-.0229.0854-.15925-.14862-.32733-.29136-.50195-.4319l-.60795.13449 .7548,3.24484-1.04934.245-.44111,1.0485c-.0745.0144-.14616.0412-.22069.0553 .04.0713.0613.15581.0978.23222-.006.014-.006.0293-.0115.0428zm4.48256,2.13905 .0197.0968-.128-.0343-.8546.45726c.0415.44972.1098.88679.11803,1.26696l1.56047-.35967-.37529-1.58754c-.1128.0547-.22852.1041-.34047.16031zm-39.1822,16.88443c3.57623,26.15775-1.13603,52.70579-13.18607,75.84855 .46626.81557.97619,1.75881 1.37907,2.45141-.14793.338-.25229.59041-.34541.77676 .12516-.16476.31088-.31324.5173-.47904 .63887,1.09656 1.20911,2.01204 1.69475,2.81041-.42768-.1756-.8698-.34879-1.3161-.46703-1.40384-.37198-2.81639-.64939-4.24063-.90751-10.76795,18.90453-26.52477,35.30481-46.74232,46.97742-.88517.51106-1.79128.98985-2.68345,1.47712 .10927.11566.2355.2291.34266.34343 .15245.0228.3133.0315.46538.0561 .39336.0635.67773.68506.83538,1.32193 1.19149,1.33691 2.21216,2.60274 3.08283,3.77712-2.60562,1.11493-5.18568,2.30501-7.7404,3.53073l-2.15423-.66873c-.46071-1.1828-.79941-2.46125-1.32229-3.60278 .34084-.48133.67303-1.1631.99154-1.9076-12.48751,6.06097-25.53381,9.88993-38.68625,11.61846 .2006.37925.40858.75688.62905,1.15235-2.12258,2.53324-4.29449,5.02421-6.5096,7.47501 .502-.0393 1.00135-.10121 1.50329-.14622 1.86013-2.13483 3.69303-4.30112 5.49069-6.48982 .89235,1.54432 1.90857,3.19735 3.08426,4.96708-.19571.0138-.4176.004-.6007.0221-.60075.0583-.0595.082.72152.1247l.0625.10828c-.71485.19177-1.56475.35881-2.76495.58598 15.31449-2.071 30.48552-6.8102 44.86005-14.42511l.0541-.0313c1.05514-.76891 1.9068-1.34095 2.70103-1.88419l.21469.30904c.46865-.26481.93985-.54263 1.4073-.81251 2.21487-1.27875 4.39552-2.59156 6.50969-3.97486 .82657-1.00286 1.59404-2.04916 2.24565-3.17293 .18456.0738.3541.15853.53207.23408 .092.29794.18564.57234.27513.85152 4.1592-2.88604 8.11157-5.95514 11.85086-9.22368-.48936-.63435-1.00764-1.25736-1.53931-1.85369 .30145-.12473.60131-.24832.90148-.37607 1.52108-.64709 2.91454-1.63179 4.51037-2.0628 .22453-.0607.42368.0524.64033.17157 9.76974-9.3608 17.91059-20.03392 24.32949-31.54758-.14383.0205-.27744.0168-.41849.0251 .0138-.30914.0199-.62016.0424-.92658-.17376-.0672-.34435-.13476-.51645-.20703l.44332-.54462c-.28477-.68064-.52577-1.2532-.81474-1.91118l.86888,1.87992c.23979-.29386.47925-.58582.71702-.88306 .17599.28002.36539.60107.54688.94722 13.87887-25.71359 19.23704-55.55582 14.73546-84.78994-1.85509,1.53327-4.72498,2.49546-7.60508,3.45261zm-8.39427,81.27317c-.0123.0152-.0419.0161-.0541.0313 .20123.48093.41282.94952.58762,1.3928 .0226-.0407.0546-.0759.077-.11665l-.61046-1.30742zm-54.88508,48.93626c-.39814-.44659-.86522-.91245-1.30076-1.37798-.25406-.0382-.52063-.0598-.77565-.0934-.29463.15971-.60181.2889-.89726.44586 .69097.72948 1.54986,1.53039 2.70864,2.44153 .42142.33137.47715-.5591.26503-1.41597zm-165.08042,2.57233-1.48817,1.79739 3.48234,2.96912-2.34053,2.75859-3.11264-2.64128-1.50382,1.77031 3.11266,2.6413-2.22083,2.65341-3.4511-2.91499-1.50381,1.77034 5.36931,4.54991 9.09985-10.73862-5.44326-4.61548zm255.73041-141.18691c-.15243.3602-.27295.82934-.34621,1.46284-.0714.64678-.0519,1.41265.0642,2.23622 .0918.65089.27566,1.21165.5232,1.71868s.55967.93398.94361,1.25941c.39968.33648.8679.57294 1.41403.69916 .548.13947 1.16057.14134 1.86459.0421s1.29939-.3007 1.76863-.62418c.48245-.32542.88653-.72668 1.20416-1.16431 .33276-.42625.61193-.88876.82722-1.37971 .23041-.47958.44932-.93304.66065-1.35572 .21323-.40938.42256-.74235.66598-1.03401 .25663-.29357.59083-.46751.96285-.51976 .41181-.058.74555.0412.99747.29013s.41662.64261.48971,1.16064 .0736.98481.003,1.44191c-.0692.47033-.18549.83455-.31302,1.08284l2.32387.46254c.17147-.41707.29155-.9294.34201-1.5326s.0366-1.23711-.0589-1.91454c-.0786-.55794-.24124-1.0697-.45651-1.54067-.20215-.47274-.47081-.86688-.82703-1.18238-.3428-.31744-.76639-.56239-1.27453-.70754-.49302-.13367-1.07472-.13034-1.75217-.0348-.7305.10314-1.32645.31634-1.79566.6398s-.87326.69724-1.19272,1.12164c-.31763.43765-.58305.8864-.80017,1.36409-.21527.49097-.44747.9463-.66066,1.3557-.21137.4227-.4502.76974-.72009,1.06525-.25666.29359-.59185.4912-1.017.55102-1.03612.14609-1.64247-.46592-1.82976-1.79424-.0749-.53135-.0735-1.0399.0203-1.52727s.21399-.88005.3359-1.16822l-2.36655-.47397zm-250.20925,148.49982c-.48619.28879-.9233.71713-1.35092,1.28515s-.69189,1.12521-.79486,1.68577c-.11104.57126-.13952,1.12129-.0546,1.65536 .0661.5367.20749,1.07248.40237,1.57191 .17613.50206.34138.96428.49079,1.4126 .13866.4403.20774.85316.24193,1.23153 .0262.38905-.0756.74013-.30158,1.04015-.25014.33216-.53891.5136-.89309.51562s-.73152-.17637-1.14951-.49104-.75485-.65696-1.02789-1.03034c-.28427-.38118-.47718-.7085-.5625-.97428l-1.9787,1.32279c.17364.41614.44461.85968.83538,1.32191s.86245.90399 1.40901,1.31549c.45012.33887.93294.58827 1.4182.76893 .47721.19133.9525.25095 1.42742.22231 .4669-.0179.92768-.1489 1.3897-.40543 .4434-.25368.88954-.63751 1.301-1.18412 .44377-.58943.70331-1.16794.80628-1.72847s.10175-1.11373.0276-1.63973c-.0849-.53408-.20249-1.05354-.38674-1.54484-.19492-.49941-.37931-.95666-.51787-1.39698-.14939-.44835-.21244-.87445-.23049-1.27421-.0261-.38914.0819-.75553.34007-1.09846 .62938-.83598 1.47506-.83327 2.54652-.0268 .42869.32276.78089.67343 1.05912,1.08448s.49185.76551.60938,1.05547l2.02136-1.31142c-.14691-.36246-.4237-.79506-.81975-1.29485-.40692-.50781-.93931-1.02758-1.60376-1.5278-.52513-.39535-1.04395-.67396-1.57753-.85736s-1.06512-.25597-1.56691-.21396c-.52056.0447-1.03391.21379-1.50941.51061zm31.01461-14.4061c-.79392,1.70596-1.78871,3.36777-2.90519,4.78057 .12797-1.75027 1.41648-3.3101 2.90519-4.78057zm219.93785-124.74395 .59362,7.09066 2.3403-.19647-.4002-4.56816 3.60728-.31453 .34383,4.09554 1.61571-.13898 .67242-.46039-.29165-3.69263 3.45631-.26348 .35334,4.48699 2.34031-.19647-.58943-7.02093-14.04184,1.17886zm.67009,8.59814 .21167,7.49161 2.32161-.0414-.13068-4.97635 11.72775-.31192-.0539-2.53088-8.17768.21084c-.70764.0844-1.40922.15559-2.10398.1683 .0179-.0328.0324-.0683.0499-.10098l-3.8447.0908zm-238.13718,137.59676-6.23502,9.95063-2.82191-1.7627-1.2393,1.97848 7.77017,4.89583 1.2393-1.97847-2.82192-1.76269 6.26208-9.96628-2.1534-1.3548zm5.49125,4.94862c-.23479.11915-.45853.27904-.67241.46038-.44032.35479-.82897.84751-1.1718,1.47038s-.52764,1.22761-.55015,1.79709c-.029.58125.0491,1.09487.20873,1.61154 .14158.52188.344,1.02271.60743,1.48962 .24549.472.45741.92325.66886,1.34588 .19972.41614.34808.82218.43554,1.19191 .081.38146.0346.72976-.14645,1.05883-.20054.36427-.48026.57172-.83056.62392s-.764-.0524-1.22234-.30464-.83583-.55153-1.15902-.88248c-.3349-.33743-.55995-.61812-.68216-.86911l-1.75268,1.58926c.23151.38699.55678.78337 1.00919,1.18546s.96372.75242 1.56302,1.08225c.49362.27165 1.01213.45685 1.51809.5669 .49953.12179.98003.16287 1.44609.0672 .45943-.0842.91354-.30662 1.3345-.62608 .40268-.31435.76491-.7544 1.09478-1.35377 .35577-.64637.53912-1.27031.56162-1.83977s-.0337-1.11699-.18167-1.62718c-.15964-.51666-.36725-.98643-.61888-1.44691-.26369-.46673-.49607-.91421-.69587-1.33028-.21145-.42264-.34972-.84132-.42412-1.2346-.081-.38145-.022-.74107.18496-1.11714 .50454-.91668 1.3347-1.04951 2.50993-.40267 .4701.25874.8837.55351 1.21734.92097s.57167.67986.72903.9503l1.82246-1.59341c-.19641-.33818-.53053-.71989-.99358-1.15841-.47472-.44503-1.08325-.86225-1.81189-1.26329-.5757-.31733-1.15027-.53378-1.70447-.63974s-1.04799-.0904-1.53871.0224c-.25453.059-.52029.13555-.75469.25534zm232.82356-133.98775-.19541,7.47405 2.31437.0711 .13686-4.95042 7.40429.19959c-.15703-.5001-.28867-1.01389-.44086-1.51359 .5213-.31933 1.04849-.6505 1.56548-.976l-10.78473-.30472zm-224.88436,136.80135-1.02169,2.1054 4.13688,1.97778-1.53976,3.27055-3.69018-1.76657-1.02168,2.10539 3.69018,1.7666-1.49398,3.09984-4.07856-1.93929-.97899,2.11685 6.32767,3.02233 6.0988-12.68657-6.42867-3.07227zm224.59662-128.29972-.59635,7.09209 2.32273.21059 .3827-4.58715 3.61789.32885-.35788,4.06766 2.34981.19497 .31517-4.07909 3.44714.28312-.35982,4.50178 2.32275.21059 .58491-7.04941-14.02905-1.174zm-.7562,8.62774-.36877,2.48623 5.76372.8581-.41401,1.0329-5.85352,1.61139-.41342,2.90894 5.70148-1.81224 .75666-.68945c.15898.7688.55123,1.43022 1.19475,1.94437 .65482.52933 1.55074.8506 2.67905,1.01525 .78315.11422 1.45257.0861 1.99574-.1058 .55443-.17674.99494-.4689 1.34897-.85101 .36533-.36697.63017-.80828.81577-1.33702 .19884-.52682.33575-1.07843.41904-1.64921 .0658-.45133.1448-.98942.18272-1.62105s.0166-1.229-.0235-1.79067l-13.78465-2.0007zm-215.82445,124.93107c-.23633.13541-.47317.30655-.68385.50301-.43868.40052-.793.91936-1.0666,1.59009-.20271.49682-.30058.9666-.32335,1.37746-.0402.41825-.0304.78655.067,1.11604 .0923.34191.23343.63669.44587.89727 .20002.25544.44466.47512.71231.67127l-.0343.128c-.38096-.0251-.74698.0333-1.06916.14816-.33451.10988-.62112.26045-.88172.4728-.26555.22491-.49401.4697-.68272.75502-.20627.29252-.38748.59024-.5192.9132-.26858.65828-.37018,1.2678-.31385,1.76891 .0513.51355.22497.93412.51369,1.32721 .27633.38802.66656.7429 1.14031,1.03762 .46138.28966.94148.54172 1.48797.76471 .59621.24328 1.22563.47222 1.85959.65842 .61648.19353 1.13918.33052 1.57948.42321l5.24922-12.84554c-.25531-.19106-.53892-.37641-.85906-.55048s-.64624-.32179-.95171-.46088c-.3128-.15658-.59305-.32654-.86632-.43802s-.5133-.18179-.6872-.25277c-.58375-.23818-1.16773-.40519-1.75023-.46898s-1.13107.001-1.64278.15462c-.26207.0742-.48711.17408-.72343.30948zm1.40516,2.18373c.10534-.0772.23384-.15337.35182-.20313 .47216-.19858.97856-.17691 1.50022.036 .19871.081.38968.17029.63307.28402 .22597.12111.38234.23021.46652.30799l-1.51464,3.68907-.93191-.36408c-.26084-.10643-.50179-.24315-.72263-.37664-.23322-.13863-.41797-.30061-.54883-.51308-.13593-.20004-.20212-.44928-.21261-.74326-.0155-.28156.0647-.62607.23184-1.03596 .19765-.4844.43215-.8481.74715-1.08089zm221.50925-123.52221 4.25096.61286c.0223.12539.045.28721.0293.48828s-.0438.40813-.0748.6205c-.0833.57078-.33077.98391-.75441,1.19333-.41044.21121-.93302.249-1.53034.16187-.79648-.11619-1.34315-.35036-1.6816-.7251-.32527-.37278-.44645-.86687-.35549-1.49074l.11633-.861zm-223.48753,129.28322c.37439-.21038.78434-.3064 1.20028-.29605 .12193.0206.25746.0475.45395.0988 .17895.0585.33723.1394.47376.19558l.55913.21845-1.49177,3.60368c-.23137-.0366-.60483-.15934-1.11408-.36715-.23597-.0963-.43672-.22622-.61019-.36939-.19088-.13583-.32762-.28125-.42078-.47875-.0986-.18484-.143-.41868-.13869-.67771s.0814-.55788.21314-.88083c.20275-.49676.48737-.8431.87522-1.04658zm17.92093,2.10247c-1.57412,1.15068-2.17329,3.29208-1.32991,5.13402 .96386,2.10505 3.42379,3.04013 5.52884,2.07625s3.05155-3.46648 2.08767-5.57153-3.45084-3.02447-5.5559-2.06061c-.26316.12041-.50581.25751-.7307.42187zm158.38388-91.04605c-.10817.15021-.1779.27327-.20395.33425 .0348-.0495.11005-.14945.20395-.33425zm40.48476-22.94087c-1.57412,1.15068-2.18891,3.26502-1.34554,5.10696 .96388,2.10505 3.46649,3.05154 5.57153,2.08768s3.0245-3.4509 2.06061-5.5559-3.45083-3.02448-5.55589-2.06061c-.26318.12042-.50583.25751-.73071.42187zm-37.64468,26.17253c.14991.23845.23859.37325.37095.5797-.43495-.0357-.70989-.15692-.51337-.3892 .0509-.0602.0917-.13028.1426-.19052zm-143.26544,87.04448 1.78523,5.71708 .68944.75664c-.76877.15896-1.38753.56267-1.90171,1.20615-.52937.65483-.89331,1.53924-1.05792,2.6676-.11427.78313-.0861,1.45259.10578,1.99574 .17674.55445.46887.99492.851,1.34898 .36694.36531.82389.65727 1.35263.84285 .52683.19887 1.07845.33574 1.64923.41903 .45133.0658.97375.11771 1.6054.15566s1.24461.0436 1.80629.004l1.98509-13.81173-2.48623-.36877-.85809,5.76373-1.03289-.41403-1.61141-5.85351-2.88187-.42905zm171.61927-97.49673c-.19106.25532-.37641.53893-.55046.85909s-.32182.64624-.4609.9517c-.15656.31282-.28389.60449-.39533.87777l-.2684.66012c-.2382.58377-.40519,1.16774-.46896,1.75022s-.026,1.14669.12754,1.65841c.14854.52402.41924.98616.81251,1.4073 .40053.4387.94642.77736 1.61715,1.05098 .49683.2027.95514.34326 1.36602.36602 .41822.0402.7709.003 1.10039-.094 .34191-.0923.6638-.24909.92434-.4615 .25548-.20004.47511-.44466.67128-.71231l.10097.0499c-.025.38096.0334.74699.14819,1.06915 .1097.33461.26063.62102.4728.88171 .22492.26557.46968.49401.75501.68272 .29253.2063.61732.37188.94027.50359 .65829.26859 1.24075.38581 1.74184.32947 .51356-.0513.96126-.24042 1.35428-.52931 .38803-.27634.73141-.62394 1.02616-1.09763 .28967-.46137.55317-.98417.77617-1.53065 .24326-.59621.44518-1.21.63135-1.84397 .19354-.61646.33051-1.1392.4232-1.57947l-12.84558-5.24922zm-27.26357,17.65312c-5.55322,9.01879-12.20288,17.45723-19.85802,25.10492 1.02916-.0938 2.10092-.23039 3.22308-.41747 6.3562-6.59297 11.98566-13.74501 16.85152-21.31232-.0731-1.12655-.1438-2.24869-.21658-3.37513zm-102.4934,60.72622c-.023.28388-.015.57333.0232.85264l.42992-.0678c-.14425-.25184-.31506-.54419-.45313-.78485zm130.6585-75.25535 3.71611,1.49903-.39113.94751c-.10643.26085-.21609.48618-.34959.707-.1386.23321-.32767.4336-.54014.56445-.20005.13594-.4493.20213-.74326.21262-.28156.0155-.62606-.0646-1.03596-.23182-.64585-.26355-1.04277-.61539-1.24133-1.08755s-.20398-.96293.009-1.48458c.081-.19872.18175-.4324.29546-.67577 .12111-.22597.20316-.3667.28095-.45089zm-162.11466,95.83419-.19497,2.34979 4.57153.35563-.28618,3.62932-4.09471-.34224-.18352,2.3071 4.06764.35788-.28312,3.44713-4.5174-.38688-.16791,2.33419 7.0067.57347 1.17402-14.02905-7.09208-.59634zm157.31923-89.89012-3.07229,6.42867 2.10541,1.02168 2.00485-4.1525 3.2435,1.55538-1.7666,3.69019 2.10542,1.02167 1.76659-3.69018 3.12685,1.47839-1.93928,4.07856 2.10541,1.02166 3.03378-6.37035-12.71364-6.08317zm-164.79923,97.05937c.37278-.32527.88243-.41952 1.50634-.32842l.86102.1163-.61287,4.25096c-.12529.0225-.30279.018-.5039.002s-.40813-.0438-.6205-.0748c-.57079-.0833-.94138-.31922-1.15065-.74296-.21121-.41043-.27605-.91741-.18893-1.51472 .11621-.79648.33474-1.37021.70949-1.70865zm175.14751-100.76062 3.63074,1.47613c-.0366.23138-.15934.60486-.36714,1.11409-.0963.23598-.22617.4369-.3694.61019-.13594.19072-.30845.34292-.50581.43641-.18484.0986-.39157.12735-.65064.12306s-.54226-.0544-.8652-.18609c-.49675-.20272-.85872-.51442-1.0622-.90227-.2104-.37441-.31782-.74169-.3075-1.1576 .0206-.12193.059-.30017.1102-.49664 .0585-.17895.11224-.32176.16851-.45813l.21845-.55912zm-159.52078,94.26441-.0825,2.35707 4.95043.13687-.33148,11.73837 2.53924.0856 .414-14.09543-7.48966-.22248zm146.11307-82.98722c-.33819.19641-.73545.50359-1.17403.96652-.44506.47475-.86224,1.08326-1.2633,1.8119-.3173.5757-.53376,1.15029-.63973,1.70446s-.11746,1.06362-.005,1.55435c.11797.50898.38139.98295.74274,1.41148 .3548.44033.82048.84459 1.44332,1.18741s1.22761.52768 1.7971.55017c.58123.029 1.13758-.0377 1.65423-.1973 .52192-.1416 1.02271-.344 1.48961-.60743 .47202-.24551.90768-.48433 1.33029-.69588 .41612-.19971.79512-.33247 1.16482-.41994 .38148-.081.75683-.0503 1.0859.13084 .36426.20053.57174.48025.62392.83057s-.0524.76398-.30466,1.22232-.55151.83583-.88247,1.15902c-.33743.33491-.61839.5595-.8691.68216l1.5622,1.76832c.38799-.22978.78334-.55676 1.18546-1.0092s.77939-.97929 1.1093-1.57863c.27164-.49361.45687-1.01211.56692-1.5181 .12179-.49951.13579-.96441.0401-1.43048-.0842-.45941-.29098-.88647-.61046-1.30743-.31434-.40267-.77003-.79198-1.36939-1.12186-.64639-.35578-1.24325-.55473-1.81272-.57722s-1.10135.0608-1.61154.20873c-.5166.1598-1.02908.35588-1.48959.60744-.46674.2637-.91402.49642-1.33029.69588-.42263.21144-.79867.36111-1.19191.43555-.38146.081-.7838.0106-1.15983-.19639-.91667-.50454-1.04948-1.33472-.40267-2.50993 .25875-.47009.59628-.87212.96365-1.2059s.66456-.59814.93465-.75613l-1.57782-1.79537zm-137.60001,83.23228 .084,2.33305 4.93367-.14212 .32755,11.75482 2.53086-.0539-.38451-14.1035-7.49161.21166zm90.32531-50.48946c-3.91942,3.3964-8.06445,6.60612-12.43063,9.59449 .26712.69575.54606,1.33015.7991,1.88411 4.35511-2.96259 8.48816-6.1463 12.40778-9.50911-.22382-.67425-.48226-1.33251-.77625-1.96949zm40.8815-22.62867-1.3548,2.1534 9.96625,6.26207-1.78975,2.83755 1.97847,1.2393 4.90727-7.81285-1.97847-1.2393-1.78977,2.83752-9.9392-6.27769zm-122.19211,72.85705 .18087,2.31324 4.58378-.37313 .31452,3.60726-4.09553.34383 .2079,2.29761 4.06847-.32821 .29054,3.44071-4.49842.39602 .18084,2.31323 7.02092-.58941-1.16322-14.01478-7.09067.59363zm116.56475-63.97894c-.21516.13646-.46105.32058-.71092.51865-.50781.40692-1.00048.92368-1.50074,1.58814-.39534.52513-.68545,1.08661-.86881,1.62021s-.27159,1.03806-.22957,1.53984c.0151.17452.0713.34175.11471.51113l1.29904-.75c-.45025.31907-.81733.59459-1.24799.9009 .0872.28208.20473.56396.37197.83168 .2888.4862.69015.93888 1.25808,1.36655s1.15231.67624 1.71284.77922c.57127.11106 1.12129.13952 1.65536.0547 .53671-.0661 1.04545-.19188 1.54484-.38675 .50206-.17612.99134-.35702 1.43966-.50643 .4403-.13865.8532-.20776 1.23153-.24192 .38915-.0261.74001.0757 1.04016.30157 .33216.25015.48661.55451.48852.90874s-.14931.71591-.46398,1.13389-.6684.79753-1.04179,1.07058c-.38117.28427-.69713.43435-.96286.51976l1.29579,1.9943c.41616-.17365.85969-.44462 1.32192-.83539s.904-.86246 1.31547-1.40901c.33887-.45011.58828-.93295.76891-1.41819 .19134-.47726.29371-.94104.26503-1.41597-.0179-.4669-.16454-.95475-.42104-1.41678-.25368-.4434-.64904-.84682-1.19558-1.25831-.58945-.44378-1.18354-.73038-1.74408-.83335s-1.08665-.11738-1.61268-.0432c-.53404.0849-1.03784.2297-1.52922.4138-.4994.19491-.97231.35216-1.4126.49081-.4483.14948-.88588.25511-1.28564.27319-.38911.0261-.7441-.12462-1.08704-.38279-.83596-.62934-.8608-1.45916-.0539-2.53086 .32277-.4287.70055-.79656 1.11155-1.07475s.75384-.44955 1.04405-.56665l-1.32703-2.04841c-.18118.0735-.36834.16543-.58398.30101zm-105.55768,62.85623c-.50698.24755-.90691.54404-1.23234.92801-.33649.39969-.55731.89495-.68354,1.44109-.13948.548-.16842,1.17622-.0692,1.88022s.30071,1.29938.62419,1.76863c.32542.48244.71105.85948 1.14869,1.17709 .42625.33277.88873.61193 1.37972.82723l1.35571.66065c.40936.21322.75798.44963 1.04963.69304 .29359.25664.45188.56375.50406.93584 .058.41181-.0413.74537-.29014.99745s-.61552.40098-1.13357.47408-1.01189.0892-1.46898.0182c-.37396-.055-.64722-.12123-.88083-.21314l-.22786.16782-.4366,2.05628c.41708.17149.92939.29159 1.53259.34204s1.2371.0366 1.91454-.0589c.55789-.0787 1.08543-.214 1.55628-.42942 .47277-.20217.85157-.49743 1.16681-.85405 .31746-.3428.56241-.76639.70753-1.2745 .1337-.49303.15744-1.09036.0619-1.76779-.10299-.73062-.31618-1.32654-.6398-1.79569s-.69724-.87326-1.12164-1.19271c-.43766-.31765-.91346-.56739-1.39113-.78454-.49097-.21527-.9307-.42039-1.3401-.6336-.42266-.21137-.76974-.45019-1.06525-.72008-.2936-.25667-.46403-.60753-.524-1.0326-.1461-1.03612.42323-1.6539 1.75154-1.84119 .53135-.0749 1.03991-.0735 1.5273.0203s.88006.21396 1.1682.3359l.50104-2.38217c-.36016-.15245-.8564-.25734-1.4899-.33059-.6468-.0714-1.36997-.0405-2.19354.0757-.65089.0918-1.2544.26405-1.76137.51173zm100.06085-56.00201-.40482.48632 .59538-.34374-.19052-.1426zm.4707.37776c-.64882.4642-1.4114,1.01754-2.01301,1.45088l-3.04612,3.59898 1.77034,1.50381 2.96912-3.48235 2.75858,2.34053-2.64128,3.11265 1.7974,1.48819 2.64128-3.11267 2.62633,2.23645-2.91497,3.45112 1.79739,1.48816 4.54992-5.36931-10.29498-8.70644zm-87.93611,53.44018 2.62096,11.47716-3.26046.72773 .51399,2.26524 8.99123-2.05174-.51399-2.26524-3.28751.74335-2.60535-11.45009-2.45887.55359zm81.83939-47.25-5.135,5.41844 1.69334,1.62043 3.4105-3.59284 8.52077,8.0709 1.75156-1.84121-10.24117-9.67572zm-137.26389,79.50194 3.879-.21882c-1.13722.58383-2.5174.70219-3.879.21882zm64.22516-34.44624c-.46678.31695-.82857.67511-1.09592,1.10181-.27649.44335-.4496.9554-.49716,1.5139-.0604.56226.0119,1.18059.20985,1.86349s.49652,1.23648.88337,1.65505c.39045.4315.82864.76119 1.30689,1.0136 .46911.26902.96308.48169 1.47959.62521 .50737.16015.98017.32497 1.42852.4743 .43548.15305.81483.33413 1.13809.53371 .32699.21248.5349.49689.63954.85762 .11582.3994.0757.73147-.13503,1.01614s-.56444.50627-1.06688.65211-1.0095.20586-1.47203.20035c-.47541-.002-.82209-.0397-1.0859-.13083l-.12521,2.34562c.43715.11066.94283.15268 1.54709.11714s1.24074-.14734 1.89779-.33792c.54112-.15698 1.02275-.38164 1.45834-.6616 .43897-.26776.79965-.57657 1.0616-.97375 .26566-.38434.4339-.85079.50553-1.37439 .0625-.50698-.0265-1.09399-.21711-1.75105-.20544-.70865-.48524-1.2791-.87198-1.69771s-.79885-.74604-1.26419-1.00216c-.47828-.2524-.98742-.43529-1.49103-.58254-.51653-.14353-.97744-.29416-1.4129-.44721-.44835-.14932-.83861-.3625-1.16933-.58783-.32697-.21246-.55132-.49944-.67079-.91177-.29152-1.00507.21009-1.7184 1.49849-2.09202 .51536-.14946 1.01895-.21278 1.51472-.18892s.88437.10088 1.1869.18077l.14809-2.43099c-.37814-.0999-.86692-.12298-1.50441-.10572-.65038.021-1.37799.12302-2.17679.35469-.63103.18353-1.18094.45414-1.64778.77096zm67.67303-38.34936c.18313,1.49627.3692,2.92227.5344,4.2381l6.78811,7.19486 1.84114-1.74857-5.69357-5.98652c-.13034.0672-.26431.1242-.39453.19164 .0432-.15749.10232-.32167.15289-.48519l-3.22847-3.40437zm-61.51038,36.5234 .77735,2.22143 4.319-1.51928 1.21293,3.41333-3.86617,1.3661 .7888,2.17874 3.83911-1.35047 1.16186,3.2624-4.26488,1.48804 .77737,2.22143 6.64867-2.35917-4.67561-13.28592-6.71843,2.36337zm-62.29857,36.22069c-.5785.32176.89646.70363 6.74138,1.05142-.0248.27722-.0411.55229-.0622.82975 12.79384.55821 25.71797-.18389 38.52996-2.32667-1.80486-.0373-3.95579-.47395-6.05951-1.12036-.007-.002-.0202.0174-.0272.0157-12.52877,1.68774-25.12573,2.06154-37.57773,1.16349-.69757.11147-1.29919.25006-1.54484.38675zm110.37615-61.8854-1.99738,1.47794 3.486,4.66296-1.0368.45421-5.27721-3.01539-2.34499,1.75082 5.31876,2.77489 1.02339.0226c-.4312.65604-.60089,1.42408-.5094,2.24267 .0887.83736.4698,1.70475 1.15124,2.61901 .47313.63448.959,1.06293 1.47877,1.31131 .51703.26711 1.0433.41605 1.56383.39615 .51782-.001 1.0397-.14418 1.54485-.38675 .5129-.23227.98334-.52605 1.44577-.87086 .36576-.27249.80885-.60912 1.28229-1.02899s.88528-.83984 1.2541-1.26533l-7.21785-9.68918c-.2229.0247-.45664.0436-.68188.0689-.16352-.50854-.31781-1.01721-.48355-1.52504zm-36.59685,21.2374c-.25883.15406-.49804.30821-.72653.49163-.45689.3669-.81854.79805-1.07191,1.26839-.26572.47554-.40342,1.00358-.42322,1.57948-.0269.5934.0841,1.2144.36498,1.88217 .20788.49466.45575.89557.73031,1.20213 .26729.32416.55418.56851.85601.73267 .30706.17649.63594.27174.97039.30576 .32209.0392.63707.0346.96509-.0159l.0353.12399c-.28709.25166-.48925.52718-.63584.8362-.15896.31421-.27178.6359-.30576.97039-.0288.34679.0217.69549.0899,1.03064 .0611.35265.14836.66947.2835.99102 .27552.65541.60464,1.16567.99892,1.4801 .39936.32684.82669.50567 1.30882.57946 .46979.079 1.00676.0616 1.55017-.0651 .53101-.12149 1.06216-.30159 1.60623-.53042 .59356-.24962 1.17601-.51698 1.75603-.83345 .57331-.2981 1.05743-.58245 1.43435-.82813l-5.40215-12.7943c-.3156.0454-.64568.11052-.9952.21374s-.67255.23553-.98684.35325c-.3318.11062-.63374.19165-.90564.30638s-.48061.23244-.65371.30525c-.29043.12253-.58368.2617-.84314.41462zm1.92904-.28379c.66606.2337 1.31795.46835 2.03035.70418-.49628-.12797-1.00019-.18909-1.47847-.37329l-.51645-.207c-.0129-.0435-.0226-.0809-.0353-.124zm-.67292,2.08449c.11024-.0694.23791-.12096.36747-.17602 .19787-.0832.41686-.18652.66931-.27823 .24542-.074.43932-.0986.55384-.10324l1.55136,3.68704-.95561.40732c-.25966.10927-.50419.19352-.75469.25535-.26299.0667-.54017.077-.78289.019-.23751-.0457-.43754-.18034-.65289-.38084-.21004-.18818-.41365-.4809-.58538-.88889-.27044-.64303-.294-1.19977-.10049-1.67403 .14516-.35567.36153-.6557.68997-.86745zm44.95968-25.12756c-.59902.59362-1.19187,1.19184-1.76717,1.81415l.72488.88053-3.10474,2.62245 1.49246,1.7725 3.10472-2.62245 2.2444,2.63739-3.43675,2.92239 1.49245,1.77249 5.38305-4.55128-6.1333-7.24817zm-27.21976,17.91648c-.65682.46963-1.17719,1.12313-1.4798,1.93691-.80692,2.17005.29594,4.58927 2.46597,5.3962s4.57365-.32298 5.38059-2.49304-.30736-4.5466-2.47741-5.35353c-1.35627-.50433-2.79458-.26914-3.88935.51346zm20.11118-8.29142 2.57363,3.45766c-.0729.10433-.19004.2118-.34343.34268s-.29533.2496-.46735.37801c-.46248.34473-.93492.44452-1.38246.293-.43962-.14084-.82948-.45265-1.19026-.9366-.48102-.64536-.70385-1.2331-.67831-1.73736 .0336-.49358.29889-.91742.80434-1.29433l.68386-.50302zm-34.95097,20.90064c.16808-.0848.32816-.13901.46426-.19588l.54545-.24274 1.50448,3.60585c-.18924.13824-.5263.30963-1.03258.52399-.23505.0986-.4653.15998-.68914.18138-.23103.0389-.46915.0301-.67465-.0435-.20038-.0612-.38725-.17184-.56751-.35796s-.34497-.4477-.48031-.76912c-.20808-.4946-.2405-.96108-.11081-1.37941 .11734-.41317.32185-.75872.62329-1.04545 .10041-.0723.24208-.17475.41736-.2771zm85.54838-29.07586c.8447.48404 1.62138.90622 2.82497,1.5805-1.06205-.55571-2.10473-1.12024-2.82497-1.5805z" fill="#d40000"/>
 </g>
</svg>
