<svg version="1.2" xmlns="http://www.w3.org/2000/svg" width="500" height="500"><style>.a{fill:#ebebeb}.b{fill:#e6e6e6}.c{fill:#f0f0f0}.d{fill:#fafafa}.e{fill:#fff}.f{opacity:.6;fill:#ebebeb}.i{fill:#407bff}.j{opacity:.1;fill:#263238}.k{fill:#7f3e3b}.l{opacity:.2}.m{fill:#263238}.o{opacity:.3}</style><path class="a" d="M0 382.4h500v.2H0zM416.8 398.5h33.1v.2h-33.1zM322.5 401.2h8.7v.3h-8.7zM396.6 389.2h19.2v.3h-19.2zM52.5 390.9h43.2v.2H52.5zM104.6 390.9h6.3v.2h-6.3zM131.5 395.1h93.6v.3h-93.6z"/><path class="b" d="M101.3 76.2h291.8v136.5H101.3z"/><path class="c" d="M103.3 76.2h294.2v136.5H103.3z"/><path class="b" d="M101.3 212.7h291.8v6.9H101.3z"/><path class="c" d="M110.7 212.7h294.1v6.9H110.7z"/><path class="d" d="M391.3 82.3v124.2H109.5V82.3z"/><path class="e" d="m139.7 206.5 17.2-124.2h26.7l-17.1 124.2z"/><path class="c" d="M112.3 200.4c-.2 0-.4-.2-.4-.4V86.3c0-.2.2-.4.4-.4.3 0 .5.2.5.4V200c0 .2-.2.4-.5.4z"/><path class="e" d="m172.2 206.5 17.1-124.2h10.5l-17.2 124.2z"/><path class="b" d="M391.3 82.3v124.2h-.8V82.3z"/><path class="f" d="M398.9 91.6H107.1l-.5-6.9h291.8zM398.9 102.9H107.1l-.5-6.9h291.8zM398.9 114.2H107.1l-.5-6.9h291.8zM398.9 125.5H107.1l-.5-6.9h291.8zM398.9 136.8H107.1l-.5-6.9h291.8zM398.9 148.1H107.1l-.5-6.9h291.8z"/><path class="b" d="M394.5 247H439v135.4h-44.5z"/><path class="d" d="M427.1 382.4H439v-18.7h-24.4z"/><path class="b" d="M273.1 247h44.5v135.4h-44.5z"/><path class="d" d="M307.2 247H439v129H307.2z"/><path class="d" d="M319.1 382.4h-11.9v-18.7h24.4z"/><path class="c" d="M316.4 295.1h113.4v32.2H316.4zM316.4 334.2h113.4v32.3H316.4z"/><path class="d" d="M407.3 298.5h-68.4c-2.6 0-4.7-2.1-4.7-4.7v-1.5H412v1.5c0 2.6-2.1 4.7-4.7 4.7z"/><path class="c" d="M316.4 255.9h113.4v32.3H316.4z"/><path class="d" d="M407.3 259.3h-68.4c-2.6 0-4.7-2.1-4.7-4.6v-1.6H412v1.6c0 2.5-2.1 4.6-4.7 4.6zM407.3 337.7h-68.4c-2.6 0-4.7-2.1-4.7-4.7v-1.6H412v1.6c0 2.6-2.1 4.7-4.7 4.7z"/><path class="b" d="M53.4 275.9c2.5-7.2 22.1 2.5 30 14.3 5.3 7.9 8.5 16.3 10 27.6-.2-12.9-.4-26.7-.6-39.8-1.6-3.2-5.2-10.7-7.9-16.6-8.8-19.9-29.7-27.2-36.9-39.8-9.5-16.4-9.4-40.9-1.4-49.8 7-7.7 30.2 44.4 32.8 50.2 9 20.1 11.6 34.9 13.3 49.4-.2-12.3-.3-23.5-.5-32.2-.5-28.3-1.1-37.4-1.4-40.2-.9-1.4-2.1-3-2.8-3.8-5.6-7.3-18-15.9-24.3-26.4-9-15.3-7.6-33.7-1.2-40.5 6.7-7.2 18.5 9.7 24.7 26.5 6.3 16.7 3.6 32.7 5.3 46.6.4 2.8.8 13.1 1.1 27.5 1.9-15.5 5.7-25.8 12.7-35.5 8.6-11.8 16.1-26.3 23.2-24.4 7.1 1.8 3.3 21-2.3 34.4-5.1 12-29.7 23.9-33.4 33.5.5 19.5.8 44.1 1.1 67.1 2-11.9.6-12.9 8.6-31 4.7-10.8 24.2-24.1 26.5-16.7 2.3 7.3-1.2 21.4-8.6 31.3-5.9 7.9-19 7.9-22 12.8-.8 1.1-3.1 5.5-4.4 8.1.3 28 .4 52.8.3 61.2l-1.3.1c.1-2.2-.1-16.5-.3-35.3-3.2-10.1-24.7-16-31.3-26.4-7-10.9-12-23.7-9-32.2z"/><path class="c" d="M73.6 382.4h41.2c2.3 0 4.2-1.6 4.6-3.8l3-14.4H66l3 14.4c.4 2.2 2.3 3.8 4.6 3.8z"/><path class="c" d="M64.9 369.8h58.6c1.4 0 2.6-1.1 2.8-2.5l1.2-10.6c.2-1.7-1.1-3.1-2.8-3.1h-61c-1.7 0-3 1.4-2.8 3.1l1.2 10.6c.2 1.4 1.4 2.5 2.8 2.5z"/><path d="M142.6 317.6h35.2v64.8h-35.2z" style="fill:#e0e0e0"/><path class="b" d="M267.6 382.4H149.7l-12.4-87.9h117.9z"/><path class="c" d="M284.8 382.4H154.4L142 294.5h130.4z"/><path class="e" d="m167.1 368.7-10.4-60.5h102.9l10.5 60.5z"/><path class="d" d="m211.4 368.7-35-60.5h11l34.9 60.5zM227 368.7l-35-60.5h18.7l35 60.5z"/><path d="M250 427.6c-107.2 0-193.9-5.1-193.9-11.4 0-6.2 86.7-11.3 193.9-11.3s193.9 5.1 193.9 11.3c0 6.3-86.7 11.4-193.9 11.4z" style="fill:#f5f5f5"/><path class="i" d="M77.3 221.5c-.3 0-.4-.1-.5-.4l-2.2-26.7c0-.2.2-.4.4-.4s.4.1.5.4l2.2 26.7c0 .2-.2.4-.4.4zM78.6 237.4c-.2 0-.4-.2-.4-.4l-.7-8.1c0-.2.1-.4.4-.4.2-.1.4.1.4.3l.7 8.1c0 .3-.1.5-.4.5z"/><path class="e" d="M303.6 313.4H97.1c-5.3 0-10-4.3-10.4-9.6L75.1 164c-.5-5.2 3.5-9.6 8.8-9.6h206.4c5.3 0 10 4.4 10.4 9.6l11.6 139.8c.5 5.3-3.5 9.6-8.7 9.6z"/><path fill-rule="evenodd" class="i" d="M303.6 313.8H97.1c-5.5 0-10.3-4.5-10.8-10L74.7 164.1c-.2-2.7.6-5.2 2.3-7.1 1.8-1.9 4.2-3 6.9-3h206.4c5.5 0 10.3 4.5 10.8 10l11.6 139.8c.3 2.6-.6 5.1-2.3 7-1.8 1.9-4.2 3-6.8 3zm-219.7-159c-2.5 0-4.7 1-6.3 2.7-1.6 1.7-2.3 4-2.1 6.5l11.6 139.8c.4 5 4.9 9.2 10 9.2h206.5c2.4 0 4.6-1 6.2-2.7 1.6-1.7 2.3-4 2.1-6.5l-11.6-139.7c-.4-5.1-4.9-9.3-10-9.3z"/><path class="i" d="M290.3 154.4H83.9c-5.3 0-9.3 4.4-8.8 9.6h225.6c-.4-5.2-5.1-9.6-10.4-9.6z"/><path class="e" d="M88.7 159.2c.1 1.2-.8 2.1-1.9 2.1-1.1 0-2.1-.9-2.2-2.1-.1-1.1.7-2 1.9-2 1.1 0 2.1.9 2.2 2zM97.1 159.2c.1 1.2-.8 2.1-1.9 2.1-1.1 0-2.1-.9-2.2-2.1-.1-1.1.7-2 1.9-2 1.1 0 2.1.9 2.2 2zM105.5 159.2c.1 1.2-.8 2.1-1.9 2.1-1.1 0-2.1-.9-2.2-2.1-.1-1.1.7-2 1.9-2 1.1 0 2.1.9 2.2 2z"/><path class="c" d="M285.6 295.1H112c-4.2 0-7.9-3.5-8.3-7.7L95.6 190c-.4-4.2 2.8-7.7 7-7.7h173.7c4.1 0 7.9 3.5 8.2 7.7l8.1 97.4c.4 4.2-2.8 7.7-7 7.7z"/><path class="j" d="m231.9 199.4-53.8 64.8c-7.4 8.9-2.7 22.4 8.6 24.9l87.3 18.8c12 2.6 22.1-9.3 17.5-20.7l-33.4-83.7c-4.4-10.8-18.7-13.1-26.2-4.1zM112.2 208.5 93.4 259c-2.5 6.7 2.9 13.7 10.1 13l54.7-5.4c7.7-.7 11.5-9.7 6.7-15.7l-36-45.1c-4.7-5.9-14.1-4.4-16.7 2.7z"/><path class="i" d="m250.5 183.1-50.3 73c-6.9 10-.8 23.7 11.2 25.3l92.4 12.3c12.9 1.7 22.4-11.6 16.7-23.3l-42.2-85.3c-5.5-11.1-20.8-12.2-27.8-2z"/><path class="e" d="M213.6 274.8c-3.4-.4-6.3-2.6-7.8-5.7-1.6-3.1-1.4-6.5.4-9.2l50.5-73.2c1.8-2.6 4.9-4 8.2-3.5 3.4.4 6.3 2.6 7.9 5.7l42.2 85.5c1.6 3.1 1.4 6.6-.4 9.2-1.9 2.7-5 4-8.3 3.5z"/><path class="i" d="m260.6 209.1 5.9.8c3.8.5 6.7 3.9 6.5 7.6l-.3 7.7q-.1.5-.1.9l-4.2 23.1c-.6 3.3-3.7 5.5-7.1 5-3.5-.4-6.3-3.4-6.5-6.8l-1.7-23.9q-.1-.5-.1-.9l.4-7.7c.2-3.7 3.5-6.3 7.2-5.8zm-.4 51.5 1.6.2c3.4.5 6 3.6 5.8 6.9-.2 3.4-3.1 5.7-6.4 5.3l-1.6-.2c-3.4-.5-6-3.6-5.9-6.9.2-3.4 3.1-5.7 6.5-5.3zM131.5 194.3l-13.8 52.3c-1.8 7 4.2 13.4 11.3 12.1l53.5-10.5c7.6-1.5 10.5-10.7 5.2-16.2L148 190c-5.3-5.5-14.6-3.1-16.5 4.3z"/><path class="e" d="M128.9 254.4c-2 .4-4-.3-5.5-1.8-1.4-1.5-2-3.6-1.5-5.5l13.9-52.5c.5-1.9 1.9-3.3 3.9-3.6 1.9-.4 4 .3 5.4 1.8l39.9 42c1.4 1.5 2 3.6 1.5 5.5s-2 3.3-3.9 3.6z"/><path class="i" d="m142.3 206.9 3.4-.6c2.2-.5 4.5 1 5.1 3.2l1.2 4.6q.1.3.1.5l2.2 14.4c.3 2-1 3.9-3 4.3-2 .4-4.1-.8-4.9-2.8l-5.6-13.7q0-.2-.1-.5l-1.3-4.6c-.6-2.2.7-4.3 2.9-4.8zm9.6 30.3 1-.2c1.9-.4 4 1 4.5 2.9.6 2-.6 4-2.5 4.4l-1 .1c-1.9.4-4-.9-4.5-2.9-.6-2 .6-3.9 2.5-4.3z"/><path class="k" d="m388.4 206-7.8 2.6 6.2 7.3s3-2.5 4.6-5.3c.7-1.1.3-2.6-.9-3.3z"/><path class="k" d="m377 214.6 4.7 5.7 5.1-4.4-6.2-7.3zM390.9 145.7c1.9 5.2 3.6 10.4 5.2 15.6 1.7 5.3 3.2 10.6 4.5 16.2l.5 2.1.2 1.1.1.5.1.2v.2l.1.4c.2 2.3 0 4.1-.3 5.7-.7 3.3-1.7 6.1-2.9 8.7-2.4 5.4-5.2 10.2-8.6 14.8l-5.1-2.8c1.8-5 3.6-10.1 5-15.1.6-2.4 1.2-4.9 1.4-7.1 0-1 0-2-.2-2.5l-.4-1.5-.6-1.9c-1.5-5-3.3-10.1-5.1-15.2-1.7-5.2-3.5-10.3-5.2-15.5z"/><path class="m" d="M347.7 114.7c.1.7-.1 1.3-.5 1.4-.4.1-.9-.4-1-1-.1-.6.1-1.2.5-1.3.4-.1.8.3 1 .9z"/><path d="M347.6 115.9s-.6 4-1.8 6.1c1.3.8 3.1-.2 3.1-.2z" style="fill:#630f0f"/><path class="m" d="M346 111q-.2 0-.3-.2c-.1-.2-.1-.4.1-.5.1-.1 1.5-1.1 3.4-.3.2.1.3.3.2.5-.1.2-.3.3-.5.2-1.5-.6-2.6.2-2.7.2q-.1.1-.2.1z"/><path class="k" d="M369.1 116.7c.7 7.3-.3 14.3 1.3 20.6 0 0-1.8 5.9-12.5 5.9-11.8 0-5.4-5.9-5.4-5.9 6.5-1.5 6.5-6.3 5.5-10.8z"/><path class="m" d="M372.7 139.3c.9-1.8 1.5-4.4-.4-5.1-2.1-.7-13.2-1-17.3.4-4 1.4-3.1 5.1-3.1 5.1z"/><path fill-rule="evenodd" class="i" d="M395.1 402.6q-.6-.2-.7-.9c0-.3.1-.5.2-.6.8-.7 3.9.3 4.3.4q.1 0 .1.2 0 .1-.1.2c-.5.2-1.3.6-2.1.8-.6.1-1.3.2-1.7-.1zm-.2-1.2c-.1 0-.1.1-.1.2q.1.5.5.7c.5.3 1.6.1 3-.6-1.3-.3-3-.7-3.4-.3z"/><path fill-rule="evenodd" class="i" d="M398.8 401.9c-1-.3-3.1-1.7-3.2-2.7 0-.2.1-.5.6-.7q.4-.1.9.1c1.1.6 1.9 2.9 1.9 3q.1.1 0 .2l-.1.1h-.1zm-2.5-3c-.3.1-.3.2-.3.3.1.6 1.5 1.7 2.5 2.1-.3-.6-.9-2-1.6-2.3q-.3-.2-.5-.1h-.1zM340.5 408.4q-.4-.4-.4-1.1c0-.4.2-.5.3-.6 1-.5 3.8 1.2 4.1 1.4q.1.1.1.2t-.2.2c-.6.1-1.4.3-2.2.3-.7 0-1.3-.1-1.7-.4zm.1-1.3s-.1 0-.1.2q0 .5.3.7c.5.4 1.6.5 3 .2-1.1-.7-2.7-1.4-3.2-1.1z"/><path fill-rule="evenodd" class="i" d="M344.3 408.5c-.9-.5-2.6-2.4-2.4-3.4 0-.1.1-.4.6-.5q.5-.1.9.3c1 .8 1.2 3.3 1.2 3.4q0 .1-.1.2h-.2zm-1.8-3.5c-.2 0-.2.2-.2.2-.2.6.9 2 1.8 2.7-.1-.8-.3-2.2-1-2.7q-.2-.2-.5-.2h-.1z"/><path class="k" d="M353.7 408.2h-7.9l-.1-18.3h7.9zM408.7 401.4l-7.6 1.4-5.5-18 7.6-1.4z"/><path class="m" d="m399.6 400.8 8.6-2.1c.4 0 .7.1.8.4l2.9 6.6c.3.6-.2 1.4-.9 1.6-3 .7-4.5.8-8.3 1.7-2.3.6-7.1 2-10.3 2.7-3.2.8-4.3-2.3-3-2.9 5.6-2.7 7.5-5.1 9.1-7.2.2-.4.7-.7 1.1-.8zM345.9 407.3h8.6c.3 0 .6.2.6.5l1.3 7c.2.7-.4 1.4-1.2 1.4-3.1 0-7.6-.2-11.5-.2-4.5 0-6.2.2-11.5.2-3.3 0-4-3.2-2.7-3.5 6.3-1.4 9-1.5 14.4-4.8.6-.4 1.3-.6 2-.6z"/><path class="i" d="M388 139.4c7.4 5.1 9.6 18.5 9.6 18.5l-16.7 8.5s-4.3-8.2-6.1-16.6c-1.8-7.9 8-14.1 13.2-10.4z"/><path class="l" d="m379.6 147.9 6.6 15.7-5.3 2.8s-2.3-4.6-4.3-10.4z"/><path class="i" d="M338.9 174c0 8.8.6 19.8 1.9 33.4H383c.5-6.2-2.1-35.4 4.2-64.7.5-2.2-1-4.3-3.2-4.6-2.6-.5-6.3-.9-9.9-1.1-5.4-.3-13.2-.4-18 0-2.6.2-5.1.6-7.2 1-3.6.7-6.4 3.4-7.4 7-.9 3.4-1.8 8.6-2.3 16.4-.2 3.7-.3 7.8-.3 12.6z"/><path class="l" d="M352.2 157.5c-2.8 2-8.1 3-13 3.4q.1-2 .3-3.7l3.8-1.9z"/><g style="opacity:.2"><path d="M345.7 389.9v10.2h7.9v-10.2zM403.2 383.4l-7.6 1.4 2.8 9.3 7.6-1.4z"/></g><path class="k" d="M368 108.2c1.1 7.8 2.2 12.3-.8 17.2-4.5 7.3-14.6 6.2-18-1-3.1-6.5-4.5-18.1 2.3-23 6.7-4.9 15.3-.9 16.5 6.8z"/><path class="m" d="M351.8 113.9c-2.9-1.3-2.6-5.9-1.7-7.8-3.4 1.1-8.3 1.8-9.2-1.7-.9-3.4 2.1-4.5.3-7.5-1.8-2.9 4-6.1 6.7-2s9.4 2.3 13.8-1.7c3.1-2.9 7.8.9 5.9 4.6 0 0 9.5-.6 7.6 5.9-1.8 6.4-4.5 6.6-3.9 11.2.4 3.1.8 9.4-2.9 10.3-4.5 1.1-15.8-2.9-16.6-11.3z"/><path class="l" d="M351.8 122.3q-1.3.9-2.7 2l.1.1c.9 2 2.4 3.5 4.1 4.5.5-.5.8-2.4 1.9-2.4 3.2.1 9.3-1.2 10.3-4.8z"/><path class="k" d="M354.2 113.8c.3 2-.1 3.8-.7 5.1-.9 1.8-2.3.6-2.9-1.6-.5-2.1-.6-5.4.7-6.4 1.3-1 2.7.6 2.9 2.9z"/><path class="i" d="M355.8 207.4s6.6 60.3 10.6 82.9c4.5 24.8 27.4 102.4 27.4 102.4l14.2-3s-15.8-72.6-18-97.1c-2.3-26.6-7-85.2-7-85.2h-27.2z"/><path class="o" d="M355.8 207.4s6.6 60.3 10.6 82.9c4.5 24.8 27.4 102.4 27.4 102.4l14.2-3s-15.8-72.6-18-97.1c-2.2-25.3-2.2-25.3-7-85.2h-27.2z"/><path class="m" d="m390.6 388 2.5 5.1 15.9-3.3-1.2-4.9z"/><path class="l" d="M360.6 228.9c10.3 2 7.7 40.7 5.7 60.5-2.5-14-5.8-41-8-60.2q1-.6 2.3-.3z"/><path class="i" d="M340.8 207.4s-3.4 59-3.4 83.1c-.1 25 5.5 107 5.5 107h13.3s3.6-80.5 5.2-105.1c1.7-26.8 7.1-85 7.1-85z"/><path class="o" d="M340.8 207.4s-3.4 59-3.4 83.1c-.1 25 5.5 107 5.5 107h13.3s3.6-80.5 5.2-105.1c1.7-26.8 7.1-85 7.1-85z"/><path class="m" d="M340.5 392.2c-.1 0 .5 5.5.5 5.5h16.3l.6-4.9z"/><path class="k" d="M357.5 151.7c-1.6.2-2.9.3-4.4.3q-2.2.1-4.3.1c-2.9-.1-5.8-.2-8.7-.5-2.9-.3-5.8-.8-8.7-1.5-2.9-.7-5.9-1.7-8.8-3.2l-.4-.1c-2.5-1.3-3.6-4.4-2.3-7q.2-.4.5-.8c1.3-1.8 2.7-3.1 4-4.3 1.4-1.2 2.7-2.3 4.1-3.3 2.7-2.1 5.5-3.9 8.3-5.7q4.2-2.6 8.5-4.9c2.9-1.5 5.7-3.1 8.7-4.5 1.5-.7 3.3 0 4 1.5.6 1.3.2 2.8-.9 3.6-2.6 2-5.1 3.9-7.6 5.8q-3.9 2.9-7.5 5.9c-2.5 2-4.9 4-7.2 6-1.1 1-2.2 2.1-3.2 3.1-.9 1-1.8 2.1-2.3 2.9l-2.2-8c2 .8 4.3 1.4 6.7 1.8 2.4.4 4.9.7 7.4.9q3.8.2 7.7.2h3.8c1.3-.1 2.6-.1 3.8-.2h.1c3.3-.2 6.1 2.4 6.3 5.6.2 3.3-2.2 6-5.4 6.3z"/><path class="k" d="m363.1 114.7-5 1.1s-6.7-.8-8.2 4.2l3.9 3.4 6.2 1c.9.1 1.9 0 2.8-.5l1.6-.8c.7-.4 1.2-1.1 1.2-1.9l.4-3.9c.1-1.6-1.3-2.9-2.9-2.6z"/><path class="i" d="M353.4 157.6c-8.5 2.3-18-.6-18-.6l3.5-18.8s8.3-.8 13.6-.9c13.4-.3 16 16.1.9 20.3z"/></svg>