<svg version="1.2" xmlns="http://www.w3.org/2000/svg" viewBox="0 0 500 500" width="500" height="500"><style>.a{fill:#ebebeb}.b{fill:#e6e6e6}.c{fill:#f0f0f0}.d{fill:#fff}.e{fill:#e0e0e0}.f{fill:#f5f5f5}.g{fill:#fafafa}.h{fill:#407bff}.i{opacity:.3;fill:#fff}.j{opacity:.6;fill:#407bff}.k{fill:#263238}.l{fill:#ff8b7b}.m{fill:#ff5652}.n{opacity:.2}.o{opacity:.4}.p{opacity:.3}.q{opacity:.3;fill:#407bff}</style><path class="a" d="m0 382.4h500v0.2h-500z"/><path class="a" d="m290.2 389.2h25.5v0.3h-25.5z"/><path class="a" d="m395.1 394.6h60.3v0.3h-60.3z"/><path class="a" d="m222.5 389.3h62.3v0.3h-62.3z"/><path class="a" d="m169 396.8h13v0.3h-13z"/><path class="a" d="m194.7 396.8h59.4v0.3h-59.4z"/><path class="a" d="m52.5 392.6h38.4v0.2h-38.4z"/><path class="b" d="m196 295.7h-66.4l-4.1-46.5h66.4z"/><path class="c" d="m199.4 295.7h-66.4l-4-46.5h66.4z"/><path class="d" d="m142.1 285.7l-2.2-26.5h46.4l2.2 26.5z"/><path class="b" d="m203.1 295.7h7.8v86.7h-7.8z"/><path class="c" d="m207.9 295.7h5.4v86.7h-5.4z"/><path class="c" d="m213.3 305.2h-75.4v-9.5h75.4z"/><path class="b" d="m132.8 305.2h7.8v77.2h-7.8z"/><path class="c" d="m137.7 305.2h5.4v77.2h-5.4z"/><path class="b" d="m77.4 305.2h7.7v77.2h-7.7z"/><path class="c" d="m82.2 305.2h5.4v77.2h-5.4z"/><path class="b" d="m153.8 305.2h7.8v77.2h-7.8z"/><path class="c" d="m158.6 305.2h5.4v77.2h-5.4z"/><path class="b" d="m77.4 295.7h60.5v9.5h-60.5z"/><path class="e" d="m129.5 79.4h234.3v130.5h-234.3z"/><path class="f" d="m130.7 79.4h246v130.5h-246z"/><path class="d" d="m372.7 83.4v122.4h-238v-122.4z"/><path class="f" d="m231.1 205.8l44.9-122.4h-74.2l-44.9 122.4z"/><path class="f" d="m302.4 205.8l45-122.4h-56l-44.9 122.4z"/><path class="b" d="m418.2 257.8h19.9v124.6h-19.9z"/><path class="g" d="m432.9 382.4h5.2v-9.6h-10.7z"/><path class="b" d="m234.5 257.8h20v124.6h-20z"/><path class="g" d="m249.9 257.8h188.2v122h-188.2z"/><path fill-rule="evenodd" class="b" d="m434.5 297.2h-181.1v-34.5h181.1zm-180.1-1h179.1v-32.4h-179.1z"/><path fill-rule="evenodd" class="b" d="m402.7 279.4h-113.9c-5.2 0-10.3-4.2-13.9-11.7l-0.4-0.7h142.5l-0.4 0.7c-3.6 7.5-8.6 11.7-13.9 11.7zm-126.6-11.4c3.4 6.7 8 10.4 12.7 10.4h113.9c4.7 0 9.3-3.7 12.7-10.4z"/><path class="g" d="m255.1 382.4h-5.2v-9.6h10.7z"/><path fill-rule="evenodd" class="b" d="m434.5 336h-181.1v-34.4h181.1zm-180.1-1h179.1v-32.5h-179.1z"/><path fill-rule="evenodd" class="b" d="m402.7 318.3h-113.9c-5.2 0-10.3-4.3-13.9-11.7l-0.4-0.7h142.5l-0.4 0.7c-3.6 7.4-8.6 11.7-13.9 11.7zm-126.6-11.4c3.4 6.6 8 10.4 12.7 10.4h113.9c4.7 0 9.3-3.8 12.7-10.4z"/><path fill-rule="evenodd" class="b" d="m434.5 374.9h-181.1v-34.5h181.1zm-180.1-1h179.1v-32.4h-179.1z"/><path fill-rule="evenodd" class="b" d="m402.7 357.2h-113.9c-5.2 0-10.3-4.3-13.9-11.7l-0.4-0.7h142.5l-0.4 0.7c-3.6 7.4-8.6 11.7-13.9 11.7zm-126.6-11.4c3.4 6.6 8 10.4 12.7 10.4h113.9c4.7 0 9.3-3.8 12.7-10.4z"/><path class="b" d="m121 274.3v2.4h-1.6l-1.2 19h-18.9l-1.3-19h-1.5v-2.4z"/><path class="b" d="m114.8 227.2c-1.6-11.3-16.8-14.5-36.2-14.9-18.4-0.4-24.3-6.9-24.3-6.9 0 0 0.1 26.3 26.6 35.9 25.2 9.1 35.4-2.8 33.9-14.1z"/><path class="b" d="m105.4 252.8c0.3-4.6 7.7-13.2 25.6-9.3 12.9 2.8 17.7-3.9 17.7-3.9 0 0-1.2 18.9-20.6 24.6-18.5 5.4-23.3-3.2-22.7-11.4z"/><path class="b" d="m109.5 281.4q0.3 0 0.5-0.2c1.3-1.6 0.2-5.2-1.3-10.3-1.8-6.5-4.2-14.6-2.2-20.5 1.1-3.3 2.5-6.2 3.8-9 2.8-6 5.3-11.1 3.2-16.4-0.1-0.4-0.5-0.6-0.8-0.4-0.4 0.1-0.6 0.5-0.4 0.9 1.8 4.8-0.4 9.4-3.2 15.3-1.3 2.7-2.8 5.8-3.9 9.2-2.1 6.3 0.3 14.6 2.2 21.3 1.2 3.9 2.3 8 1.5 9-0.2 0.3-0.2 0.7 0.1 0.9q0.2 0.2 0.5 0.2z"/><path class="h" d="m250 361h-142l-7.8-228.3h142z"/><path class="h" d="m257 354h-142l-7.7-228.4h142z"/><path class="i" d="m257 355h-142l-7.7-228.4h142z"/><path class="h" d="m209.5 219.6c-15.2 15.5-40.5 15.3-56.5-0.5-16-15.8-16.7-41-1.5-56.5 15.3-15.5 40.5-15.3 56.5 0.5 16.1 15.7 16.7 41 1.5 56.5z"/><path class="d" d="m213.5 191.1c0.2 5.7-1.1 11-3.5 15.7-5.2 10.3-15.8 17.3-28.4 17.3-12.5 0-23.6-7-29.5-17.3-2.7-4.7-4.4-10-4.6-15.7-0.6-18.2 13.7-33 31.9-33 18.2 0 33.4 14.8 34.1 33z"/><path class="j" d="m210 206.8c-5.2 10.3-15.8 17.3-28.4 17.3-12.5 0-23.6-7-29.5-17.3 8.1-5.6 17.9-8.8 28.6-8.8 10.8 0 20.8 3.2 29.3 8.8z"/><path class="j" d="m190.8 190.3c-5.6 5.7-14.9 5.6-20.8-0.2-5.9-5.8-6.1-15.1-0.5-20.8 5.6-5.7 14.9-5.6 20.7 0.2 5.9 5.8 6.2 15.1 0.6 20.8z"/><path class="d" d="m228.5 271.3h-90.6l-0.6-18h90.6z"/><path class="d" d="m229.6 303.4h-90.6l-0.6-18h90.6z"/><path fill-rule="evenodd" class="h" d="m196.6 289.3l2.9 14.6c0.1 0.9-0.5 1.7-1.4 1.8l-21.8 3c-0.9 0.1-1.8-0.5-1.9-1.4l-2.9-14.6c-0.2-0.9 0.4-1.7 1.3-1.8l21.9-3c0.9-0.1 1.7 0.5 1.9 1.4zm-9.6 8.8c0.6-0.5 0.9-1.4 0.7-2.3-0.3-1.4-1.7-2.4-3.1-2.2-1.5 0.2-2.5 1.5-2.2 2.9 0.2 0.9 0.8 1.7 1.6 2l0.4 4.8 4-0.6z"/><path class="h" d="m192.5 287.1c-0.8 0.1-1.6-0.4-1.7-1.2l-0.3-1.4c-0.8-4-4.5-6.9-8.6-6.6-4.4 0.4-7.3 4.3-6.5 8.4l0.3 1.7c0.2 0.7-0.3 1.5-1.1 1.6-0.8 0.1-1.6-0.5-1.8-1.2l-0.2-1.4c-1.1-5.5 2.4-10.8 8-11.8 5.8-1 11.6 3 12.7 8.7l0.4 1.6c0.1 0.8-0.4 1.5-1.2 1.6z"/><path class="h" d="m214.7 328.6h-59l-0.4-11.7h59z"/><path class="k" d="m186.2 262.3c0.1 1.8-1.3 3.3-3.2 3.3-1.8 0-3.3-1.5-3.4-3.3 0-1.9 1.4-3.3 3.2-3.3 1.8 0 3.4 1.4 3.4 3.3z"/><path class="k" d="m172 262.3c0.1 1.8-1.3 3.3-3.1 3.3-1.9 0-3.4-1.5-3.4-3.3-0.1-1.9 1.3-3.3 3.1-3.3 1.9 0 3.4 1.4 3.4 3.3z"/><path class="k" d="m157.9 262.3c0 1.8-1.4 3.3-3.2 3.3-1.8 0-3.4-1.5-3.4-3.3-0.1-1.9 1.4-3.3 3.2-3.3 1.8 0 3.3 1.4 3.4 3.3z"/><path class="k" d="m200.4 262.3c0.1 1.8-1.4 3.3-3.2 3.3-1.8 0-3.3-1.5-3.4-3.3-0.1-1.9 1.4-3.3 3.2-3.3 1.8 0 3.3 1.4 3.4 3.3z"/><path class="k" d="m214.6 262.3c0 1.8-1.4 3.3-3.2 3.3-1.8 0-3.4-1.5-3.4-3.3-0.1-1.9 1.3-3.3 3.2-3.3 1.8 0 3.3 1.4 3.4 3.3z"/><path class="l" d="m333.9 174.3c1.3 2.1 2.4 4.2 3.6 6.3 1.1 2.1 2.2 4.3 3.2 6.4 2 4.4 3.7 9 5.1 13.8 0.1 0.6 0.3 1.2 0.4 1.8l0.2 0.9 0.2 0.5 0.1 0.8c0.3 2 0 3.7-0.3 5.1-0.7 2.9-1.9 5.3-3.1 7.5-2.6 4.4-5.5 8.1-8.9 11.6l-4.2-3.1c2-4 4.1-8.1 5.6-12.1 0.7-2 1.3-4 1.5-5.6 0.1-0.8 0.1-1.5-0.1-1.8l-0.3-1.2c-0.2-0.5-0.4-1-0.6-1.5-1.4-4-3.2-8.1-5.2-12.1-2-4-4.2-8-6.3-11.8z"/><path class="l" d="m331.2 224.4l-4.6 2.5 5.3 6.1c0 0 3.3-2.2 3.5-5.6z"/><path class="l" d="m320.5 230.7l5.6 4.5 5.8-2.2-5.3-6.1z"/><path class="k" d="m301.2 141.6c-0.2 0.5-0.5 0.9-0.9 0.8-0.4 0-0.6-0.5-0.5-1.1 0.1-0.6 0.5-0.9 0.9-0.9 0.4 0.1 0.6 0.6 0.5 1.2z"/><path class="m" d="m300.7 142.5c0 0-1.9 3-3.6 4.2 0.8 1.2 2.5 1.1 2.5 1.1z"/><path class="l" d="m298.9 162.1v-6.5l8.7 1c0 0-0.1 5.7-5 7.3z"/><path class="l" d="m301.4 150.9l6.1 1.7 0.1 4-8.7-1z"/><path class="n" d="m307.5 152.6l-6.1-1.7-1.2 2.2c0.2 3.9 2.5 7.1 5.6 8.5 1.7-2.2 1.8-5 1.8-5z"/><path class="k" d="m303.8 138.9q0.1 0 0.2-0.1c0.2-0.1 0.2-0.3 0.1-0.5-1.3-1.3-2.8-1.1-2.9-1.1-0.2 0.1-0.3 0.2-0.2 0.4 0 0.2 0.2 0.3 0.3 0.3 0.1 0 1.3-0.2 2.3 0.9q0.1 0.1 0.2 0.1z"/><path class="l" d="m316.6 151.7c-1 5.1-1.6 12.3 2 15.7 0 0-1.4 5.2-11 5.2-10.5 0-5.1-4.6-5.1-4.6 4.4-1.3 4.4-6.3 3.4-10.3z"/><path class="h" d="m320.5 170.8c1-1.3 0.9-5.5-0.1-6.2-1.6-1.2-8.5-1.5-17.8 0.6 1 4.1-1.1 6.2-1.1 6.2z"/><path fill-rule="evenodd" class="h" d="m351.8 408.2c-0.7 0.2-1.4 0.2-1.8-0.1-0.1-0.1-0.2-0.3-0.1-0.7q0.1-0.4 0.4-0.5c1-0.5 3.1 0.4 3.2 0.5q0.1 0 0.1 0.1 0 0.1-0.1 0.2c-0.3 0.1-1 0.4-1.7 0.5zm-1.1-1.1q-0.2 0-0.2 0.1-0.2 0.1-0.3 0.3c-0.1 0.3 0 0.4 0.1 0.4 0.3 0.3 1.7 0 2.7-0.4-0.6-0.2-1.7-0.5-2.3-0.4z"/><path fill-rule="evenodd" class="h" d="m353.5 407.7q0 0-0.1 0c-0.8-0.3-2.5-1.5-2.5-2.3 0-0.1 0.1-0.4 0.4-0.5q0.4-0.1 0.8 0c0.9 0.5 1.5 2.5 1.5 2.6q0.1 0.1 0 0.1 0 0.1-0.1 0.1zm-2-2.5q0 0-0.1 0c-0.2 0.1-0.2 0.2-0.2 0.2 0.1 0.5 1.2 1.4 2 1.8-0.2-0.5-0.7-1.6-1.3-2q-0.2-0.1-0.4 0z"/><path fill-rule="evenodd" class="h" d="m299.9 409.4c-0.9 0-1.8-0.1-2.1-0.5-0.1-0.2-0.2-0.4 0-0.7q0.2-0.3 0.5-0.4c1.2-0.3 3.7 1.1 3.8 1.1q0.1 0.1 0.1 0.2-0.1 0.1-0.2 0.1c-0.4 0.1-1.3 0.2-2.1 0.2zm-1.2-1.3q-0.1 0-0.3 0-0.2 0.1-0.3 0.2c-0.1 0.2-0.1 0.3 0 0.4 0.3 0.4 2.1 0.5 3.4 0.3-0.7-0.4-1.9-0.9-2.8-0.9z"/><path fill-rule="evenodd" class="h" d="m302 409.2q0 0-0.1 0c-0.8-0.4-2.5-1.9-2.4-2.7 0-0.2 0.2-0.4 0.6-0.5q0.6 0 1 0.3c0.9 0.8 1 2.7 1.1 2.7q0 0.1-0.1 0.2-0.1 0-0.1 0zm-1.7-2.8q-0.1 0-0.1 0c-0.3 0-0.3 0.1-0.4 0.2 0 0.4 1.1 1.6 2 2.2-0.1-0.6-0.4-1.7-0.9-2.2q-0.3-0.2-0.6-0.2z"/><path class="l" d="m309.7 409.1h-7l-0.7-16.3h7z"/><path class="l" d="m361.3 405.8l-6.8 1.5-6.9-15.2 6.8-1.5z"/><path class="k" d="m353.8 406.6l7.7-1.7c0.3 0 0.6 0.1 0.7 0.4l2.7 5.8c0.3 0.6-0.1 1.3-0.7 1.4-2.7 0.6-4.1 0.7-7.5 1.4-2.1 0.5-6.8 1.6-9.7 2.3-2.8 0.6-3.9-2.2-2.7-2.7 5-2.3 7.1-4.3 8.5-6.2 0.2-0.4 0.6-0.6 1-0.7z"/><path class="k" d="m302.7 408.2h7.7c0.3 0 0.6 0.2 0.6 0.5l1.4 6.3c0.1 0.6-0.3 1.2-1 1.2-2.8 0-6.8-0.2-10.3-0.2-4 0-7.6 0.2-12.3 0.2-2.9 0-3.7-2.9-2.5-3.1 5.5-1.3 10-1.4 14.7-4.3 0.6-0.3 1.1-0.6 1.7-0.6z"/><path class="h" d="m331.2 169c6.6 1.5 12 18.3 12 18.3l-13.2 10.1c0 0-4.9-4.6-7.1-13-2.2-8.8 1.5-17 8.3-15.4z"/><path class="o" d="m331.2 169c6.6 1.5 12 18.3 12 18.3l-13.2 10.1c0 0-4.9-4.6-7.1-13-2.2-8.8 1.5-17 8.3-15.4z"/><path class="l" d="m296.5 189.1c-1.6 1.7-3.3 3.3-5 4.9q-1.2 1.3-2.6 2.4l-1.3 1.2-0.3 0.3q-0.3 0.2-0.6 0.4c-0.4 0.4-0.9 0.7-1.9 1.2-0.6 0.2-1.3 0.5-2.5 0.5-0.5 0-1.3-0.1-2.1-0.4-0.7-0.3-1.5-0.8-2-1.3-1-1-1.3-1.9-1.5-2.6-0.2-0.6-0.3-1-0.3-1.4-0.1-0.8 0-1.3 0-1.8q0.1-0.7 0.2-1.3c0.3-1.6 0.7-2.8 1.1-4 0.5-1.3 1-2.5 1.6-3.7 0.6-1.2 1.3-2.2 1.9-3.2 2.4-4.2 5.3-7.9 8.4-11.5 3.2-3.5 6.5-6.7 10.3-9.7l3.6 3.8c-2.5 3.5-5.1 7.2-7.4 10.8-2.4 3.7-4.6 7.4-6.4 11.3-0.5 0.9-1 1.9-1.3 2.7-0.3 0.9-0.7 1.8-0.9 2.7-0.3 0.9-0.5 1.9-0.6 2.5q0 0.3 0 0.4c0 0.1 0 0.2 0-0.1 0-0.1 0-0.2-0.2-0.6-0.1-0.4-0.3-1-1.1-1.9-0.4-0.4-1-0.8-1.7-1-0.6-0.2-1.2-0.3-1.6-0.3-1 0-1.4 0.2-1.7 0.3-0.4 0.2-0.5 0.3-0.4 0.2l0.3-0.3 1.2-1.1 2.4-2.3c1.6-1.4 3.2-3 4.7-4.5z"/><path class="n" d="m325.5 181.4c3.6 3.5 4.8 10 5 15.6l-0.5 0.4c0 0-4.9-4.6-7.1-13q-0.2-0.8-0.3-1.6z"/><path class="h" d="m289.5 176c-1.4 7.6-2.3 23.2 1.8 54.1h37.7c0.2-5.7-3.4-33.9 2.2-61.1 0 0-6.5-1.3-12.6-1.6-4.8-0.2-11.8-0.4-16 0-1.8 0.2-3.5 0.4-5.1 0.7-4 0.7-7.2 3.9-8 7.9z"/><path class="o" d="m289.5 176c-1.4 7.6-2.3 23.2 1.8 54.1h37.7c0.2-5.7-3.4-33.9 2.2-61.1 0 0-6.5-1.3-12.6-1.6-4.8-0.2-11.8-0.4-16 0-1.8 0.2-3.5 0.4-5.1 0.7-4 0.7-7.2 3.9-8 7.9z"/><path class="n" d="m295.3 187.3l-6.8-1.7c-0.2 4.2-0.3 9.3 0 15.6 3.2-3.6 7.2-9.1 6.8-13.9z"/><path class="n" d="m302 392.8l0.4 8.4h7l-0.4-8.4z"/><path class="n" d="m354.5 390.6l-6.9 1.5 3.5 7.8 6.9-1.4z"/><path class="l" d="m319.9 144.2c-1.8 6.7-2.5 10.7-6.6 13.5-6.3 4.3-14.1-0.6-14.3-7.7-0.3-6.5 2.7-16.4 10-17.8 7.1-1.3 12.7 5.2 10.9 12z"/><path class="k" d="m304.1 144.4c-0.3-0.9-1.8-7.9-0.4-9.7 1.5-1.8 18.1-0.5 20.6 1.9 4.1 4.1 1.2 7.7-3.2 12.3-3.4 3.5-3.5 7.4-5.2 8-3 1-7.6 0-8.5-3.2-0.9-3.1-3.3-9.3-3.3-9.3z"/><path class="k" d="m322.3 128.7c-5.9-2.5-16.9 0.3-22.9-1.1-0.2 3 1.6 8 7.6 9.3 0 0 8.5 1.7 15 1.4 6.5-0.3 5.3-7.4 0.3-9.6z"/><path class="k" d="m323.2 136.9c0 0 3.6 0.4 6.2-1.2 1.1 2.6-4.9 3.4-6.2 1.2z"/><path class="l" d="m307.4 144.7c-0.2 1.8-1 3.5-2 4.7-1.6 1.6-3.2 0.6-3.4-1.5-0.3-1.8 0.2-4.9 2.1-5.9 1.9-0.9 3.4 0.6 3.3 2.7z"/><path class="h" d="m304.7 230.1c0 0 8 53.8 12.4 73.9 4.8 22.1 30.5 95 30.5 95l12.6-2.7c0 0-18-59.4-22-90.3-3.1-23.7-9.2-75.9-9.2-75.9z"/><path class="k" d="m344.6 394.8c-0.1 0.1 2.3 4.6 2.3 4.6l14.2-3.1-1.2-4.2z"/><path class="p" d="m309.7 249.3c9.3 1.8 8.3 36.2 7.2 53.9-2.7-12.5-6.6-36.6-9.2-53.7q0.9-0.4 2-0.2z"/><path class="h" d="m291.3 230.1c0 0-0.9 52.6-0.2 74.1 0.8 22.3 8.6 95.3 8.6 95.3h11.9c0 0 0.5-71.7 1-93.6 0.6-23.9 3.5-75.8 3.5-75.8z"/><path class="k" d="m297.4 394.8c0 0 0.7 4.9 0.7 4.9h14.5l0.4-4.4z"/><path class="h" d="m304.3 178.3c3.3 9.1-16.5 19.8-16.5 19.8l-8.6-11c0 0 5.8-11.4 12.8-16.5 8.7-6.4 9.7 0.8 12.3 7.7z"/><path class="o" d="m304.3 178.3c3.3 9.1-16.5 19.8-16.5 19.8l-8.6-11c0 0 5.8-11.4 12.8-16.5 8.7-6.4 9.7 0.8 12.3 7.7z"/><path class="h" d="m381.9 109.3c-20 0-36.1-10.2-36.1-23 0-12.7 16.1-23 36.1-23 19.9 0 36.1 10.3 36.1 23 0 12.8-16.2 23-36.1 23z"/><path fill-rule="evenodd" class="d" d="m368.8 97.9c-2 0-3.9-0.6-5.6-1.7-2.3-1.6-3.8-4-4.3-6.7-0.9-5.2 2.6-10.4 7.7-11.5 4.3-1 8.6 0.8 10.8 4.5l23.2-4.8c1.9-0.4 3.8 0.7 4.3 2.5 0.2 0.9 0.1 1.9-0.4 2.7-0.6 0.8-1.4 1.4-2.3 1.6l-0.6 0.1q-0.3 0.1-0.4 0.3-0.2 0.3-0.1 0.5l0.4 1.1c0.3 0.7 0.1 1.5-0.6 1.9-0.5 0.3-0.8 0.9-0.9 1.4-0.1 0.8-0.5 1.3-1.2 1.4l-0.5 0.1c-0.6 0.2-1.3-0.1-1.6-0.8-0.4-0.7-1.3-1.1-2.1-0.9-0.8 0.2-1.4 0.8-1.5 1.7-0.1 0.7-0.6 1.2-1.2 1.4l-0.5 0.1c-0.6 0.1-1.3-0.2-1.6-0.8-0.3-0.5-0.9-0.9-1.4-1-0.8-0.1-1.3-0.7-1.4-1.5v-1.1q0-0.3-0.2-0.5-0.3-0.2-0.6-0.1l-7.3 1.5c-0.7 4.2-3.8 7.5-8 8.4q-1 0.2-2.1 0.2zm-2-19c-4.6 1.1-7.7 5.8-6.9 10.4 0.4 2.5 1.8 4.6 3.8 6 2.1 1.4 4.6 1.9 7 1.4 3.9-0.8 6.8-4 7.2-7.9l0.1-0.3 8-1.7c0.5-0.1 1 0 1.4 0.3 0.3 0.3 0.6 0.7 0.6 1.2v1.2c0 0.2 0.3 0.5 0.5 0.5 0.9 0.2 1.7 0.7 2.1 1.5 0.1 0.2 0.3 0.3 0.6 0.3l0.5-0.1c0.2-0.1 0.4-0.3 0.4-0.5 0.1-1.3 1.1-2.3 2.3-2.6 1.3-0.2 2.5 0.3 3.2 1.4 0.1 0.2 0.3 0.4 0.5 0.3h0.5c0.3-0.1 0.4-0.4 0.4-0.6 0.1-0.9 0.6-1.6 1.4-2.1 0.2-0.2 0.3-0.5 0.2-0.7l-0.4-1.1c-0.2-0.4-0.1-0.9 0.1-1.4 0.2-0.4 0.6-0.7 1.1-0.8l0.6-0.1c0.7-0.1 1.2-0.5 1.6-1.1 0.4-0.6 0.5-1.3 0.3-2-0.3-1.2-1.7-2-3.1-1.7l-23.8 4.9-0.2-0.3c-2-3.5-6-5.3-10-4.4zm2.1 15.3c-1.3 0-2.5-0.3-3.5-1-1.5-1-2.5-2.4-2.8-4.1-0.3-1.7 0-3.4 0.9-4.8 1-1.4 2.4-2.4 4.1-2.8 1.7-0.3 3.4 0 4.8 1 1.4 0.9 2.4 2.3 2.7 4 0.4 1.7 0.1 3.4-0.9 4.8-0.9 1.5-2.4 2.4-4 2.8q-0.7 0.1-1.3 0.1zm0-11.8q-0.6 0-1.1 0.1c-1.4 0.3-2.7 1.1-3.4 2.3-0.8 1.2-1.1 2.7-0.8 4.1 0.3 1.4 1.1 2.6 2.3 3.4 1.2 0.8 2.7 1.1 4.1 0.8 1.4-0.3 2.6-1.1 3.4-2.3 0.8-1.2 1.1-2.7 0.8-4.1-0.3-1.4-1.2-2.6-2.4-3.4-0.8-0.6-1.9-0.9-2.9-0.9z"/><path class="j" d="m352.5 122.8c-6.6 0-11.9-3.4-11.9-7.5 0-4.2 5.3-7.6 11.9-7.6 6.6 0 11.9 3.4 11.9 7.6 0 4.1-5.3 7.5-11.9 7.5z"/><path class="q" d="m333.6 125.9c-2.7 0-4.8-1.4-4.8-3.1 0-1.7 2.1-3.1 4.8-3.1 2.7 0 4.9 1.4 4.9 3.1 0 1.7-2.2 3.1-4.9 3.1z"/></svg>