<svg version="1.2" xmlns="http://www.w3.org/2000/svg" width="500" height="500"><style>.a{fill:#ebebeb}.b{fill:#e6e6e6}.c{fill:#f0f0f0}.d{fill:#fff}.f{fill:#f5f5f5}.g{fill:#fafafa}.h,.j{fill:#407bff}.j{opacity:.6}.k{fill:#263238}.l{fill:#ff8b7b}.n{opacity:.2}.o{opacity:.4}</style><path class="a" d="M0 382.4h500v.2H0zM290.2 389.2h25.5v.3h-25.5zM395.1 394.6h60.3v.3h-60.3zM222.5 389.3h62.3v.3h-62.3zM169 396.8h13v.3h-13zM194.7 396.8h59.4v.3h-59.4zM52.5 392.6h38.4v.2H52.5z"/><path class="b" d="M196 295.7h-66.4l-4.1-46.5h66.4z"/><path class="c" d="M199.4 295.7H133l-4-46.5h66.4z"/><path class="d" d="m142.1 285.7-2.2-26.5h46.4l2.2 26.5z"/><path class="b" d="M203.1 295.7h7.8v86.7h-7.8z"/><path class="c" d="M207.9 295.7h5.4v86.7h-5.4z"/><path class="c" d="M213.3 305.2h-75.4v-9.5h75.4z"/><path class="b" d="M132.8 305.2h7.8v77.2h-7.8z"/><path class="c" d="M137.7 305.2h5.4v77.2h-5.4z"/><path class="b" d="M77.4 305.2h7.7v77.2h-7.7z"/><path class="c" d="M82.2 305.2h5.4v77.2h-5.4z"/><path class="b" d="M153.8 305.2h7.8v77.2h-7.8z"/><path class="c" d="M158.6 305.2h5.4v77.2h-5.4z"/><path class="b" d="M77.4 295.7h60.5v9.5H77.4z"/><path d="M129.5 79.4h234.3v130.5H129.5z" style="fill:#e0e0e0"/><path class="f" d="M130.7 79.4h246v130.5h-246z"/><path class="d" d="M372.7 83.4v122.4h-238V83.4z"/><path class="f" d="M231.1 205.8 276 83.4h-74.2l-44.9 122.4zM302.4 205.8l45-122.4h-56l-44.9 122.4z"/><path class="b" d="M418.2 257.8h19.9v124.6h-19.9z"/><path class="g" d="M432.9 382.4h5.2v-9.6h-10.7z"/><path class="b" d="M234.5 257.8h20v124.6h-20z"/><path class="g" d="M249.9 257.8h188.2v122H249.9z"/><path fill-rule="evenodd" class="b" d="M434.5 297.2H253.4v-34.5h181.1zm-180.1-1h179.1v-32.4H254.4z"/><path fill-rule="evenodd" class="b" d="M402.7 279.4H288.8c-5.2 0-10.3-4.2-13.9-11.7l-.4-.7H417l-.4.7c-3.6 7.5-8.6 11.7-13.9 11.7zM276.1 268c3.4 6.7 8 10.4 12.7 10.4h113.9c4.7 0 9.3-3.7 12.7-10.4z"/><path class="g" d="M255.1 382.4h-5.2v-9.6h10.7z"/><path fill-rule="evenodd" class="b" d="M434.5 336H253.4v-34.4h181.1zm-180.1-1h179.1v-32.5H254.4z"/><path fill-rule="evenodd" class="b" d="M402.7 318.3H288.8c-5.2 0-10.3-4.3-13.9-11.7l-.4-.7H417l-.4.7c-3.6 7.4-8.6 11.7-13.9 11.7zm-126.6-11.4c3.4 6.6 8 10.4 12.7 10.4h113.9c4.7 0 9.3-3.8 12.7-10.4zM434.5 374.9H253.4v-34.5h181.1zm-180.1-1h179.1v-32.4H254.4z"/><path fill-rule="evenodd" class="b" d="M402.7 357.2H288.8c-5.2 0-10.3-4.3-13.9-11.7l-.4-.7H417l-.4.7c-3.6 7.4-8.6 11.7-13.9 11.7zm-126.6-11.4c3.4 6.6 8 10.4 12.7 10.4h113.9c4.7 0 9.3-3.8 12.7-10.4z"/><path class="b" d="M121 274.3v2.4h-1.6l-1.2 19H99.3l-1.3-19h-1.5v-2.4zM114.8 227.2c-1.6-11.3-16.8-14.5-36.2-14.9-18.4-.4-24.3-6.9-24.3-6.9s.1 26.3 26.6 35.9c25.2 9.1 35.4-2.8 33.9-14.1z"/><path class="b" d="M105.4 252.8c.3-4.6 7.7-13.2 25.6-9.3 12.9 2.8 17.7-3.9 17.7-3.9s-1.2 18.9-20.6 24.6c-18.5 5.4-23.3-3.2-22.7-11.4z"/><path class="b" d="M109.5 281.4q.3 0 .5-.2c1.3-1.6.2-5.2-1.3-10.3-1.8-6.5-4.2-14.6-2.2-20.5 1.1-3.3 2.5-6.2 3.8-9 2.8-6 5.3-11.1 3.2-16.4-.1-.4-.5-.6-.8-.4-.4.1-.6.5-.4.9 1.8 4.8-.4 9.4-3.2 15.3-1.3 2.7-2.8 5.8-3.9 9.2-2.1 6.3.3 14.6 2.2 21.3 1.2 3.9 2.3 8 1.5 9-.2.3-.2.7.1.9q.2.2.5.2z"/><path class="h" d="M250 361H108l-7.8-228.3h142z"/><path class="h" d="M257 354H115l-7.7-228.4h142z"/><path d="M257 355H115l-7.7-228.4h142z" style="opacity:.3;fill:#fff"/><path class="h" d="M209.5 219.6c-15.2 15.5-40.5 15.3-56.5-.5s-16.7-41-1.5-56.5c15.3-15.5 40.5-15.3 56.5.5 16.1 15.7 16.7 41 1.5 56.5z"/><path class="d" d="M213.5 191.1c.2 5.7-1.1 11-3.5 15.7-5.2 10.3-15.8 17.3-28.4 17.3-12.5 0-23.6-7-29.5-17.3-2.7-4.7-4.4-10-4.6-15.7-.6-18.2 13.7-33 31.9-33s33.4 14.8 34.1 33z"/><path class="j" d="M210 206.8c-5.2 10.3-15.8 17.3-28.4 17.3-12.5 0-23.6-7-29.5-17.3 8.1-5.6 17.9-8.8 28.6-8.8 10.8 0 20.8 3.2 29.3 8.8zM190.8 190.3c-5.6 5.7-14.9 5.6-20.8-.2s-6.1-15.1-.5-20.8c5.6-5.7 14.9-5.6 20.7.2 5.9 5.8 6.2 15.1.6 20.8z"/><path class="d" d="M228.5 271.3h-90.6l-.6-18h90.6zM229.6 303.4H139l-.6-18H229z"/><path fill-rule="evenodd" class="h" d="m196.6 289.3 2.9 14.6c.1.9-.5 1.7-1.4 1.8l-21.8 3c-.9.1-1.8-.5-1.9-1.4l-2.9-14.6c-.2-.9.4-1.7 1.3-1.8l21.9-3c.9-.1 1.7.5 1.9 1.4zm-9.6 8.8c.6-.5.9-1.4.7-2.3-.3-1.4-1.7-2.4-3.1-2.2-1.5.2-2.5 1.5-2.2 2.9.2.9.8 1.7 1.6 2l.4 4.8 4-.6z"/><path class="h" d="M192.5 287.1c-.8.1-1.6-.4-1.7-1.2l-.3-1.4c-.8-4-4.5-6.9-8.6-6.6-4.4.4-7.3 4.3-6.5 8.4l.3 1.7c.2.7-.3 1.5-1.1 1.6-.8.1-1.6-.5-1.8-1.2l-.2-1.4c-1.1-5.5 2.4-10.8 8-11.8 5.8-1 11.6 3 12.7 8.7l.4 1.6c.1.8-.4 1.5-1.2 1.6zM214.7 328.6h-59l-.4-11.7h59z"/><path class="k" d="M186.2 262.3c.1 1.8-1.3 3.3-3.2 3.3-1.8 0-3.3-1.5-3.4-3.3 0-1.9 1.4-3.3 3.2-3.3 1.8 0 3.4 1.4 3.4 3.3zM172 262.3c.1 1.8-1.3 3.3-3.1 3.3-1.9 0-3.4-1.5-3.4-3.3-.1-1.9 1.3-3.3 3.1-3.3 1.9 0 3.4 1.4 3.4 3.3zM157.9 262.3c0 1.8-1.4 3.3-3.2 3.3-1.8 0-3.4-1.5-3.4-3.3-.1-1.9 1.4-3.3 3.2-3.3 1.8 0 3.3 1.4 3.4 3.3zM200.4 262.3c.1 1.8-1.4 3.3-3.2 3.3-1.8 0-3.3-1.5-3.4-3.3-.1-1.9 1.4-3.3 3.2-3.3 1.8 0 3.3 1.4 3.4 3.3zM214.6 262.3c0 1.8-1.4 3.3-3.2 3.3-1.8 0-3.4-1.5-3.4-3.3-.1-1.9 1.3-3.3 3.2-3.3 1.8 0 3.3 1.4 3.4 3.3z"/><path class="l" d="M333.9 174.3c1.3 2.1 2.4 4.2 3.6 6.3 1.1 2.1 2.2 4.3 3.2 6.4 2 4.4 3.7 9 5.1 13.8.1.6.3 1.2.4 1.8l.2.9.2.5.1.8c.3 2 0 3.7-.3 5.1-.7 2.9-1.9 5.3-3.1 7.5-2.6 4.4-5.5 8.1-8.9 11.6l-4.2-3.1c2-4 4.1-8.1 5.6-12.1.7-2 1.3-4 1.5-5.6.1-.8.1-1.5-.1-1.8l-.3-1.2-.6-1.5c-1.4-4-3.2-8.1-5.2-12.1s-4.2-8-6.3-11.8z"/><path class="l" d="m331.2 224.4-4.6 2.5 5.3 6.1s3.3-2.2 3.5-5.6z"/><path class="l" d="m320.5 230.7 5.6 4.5 5.8-2.2-5.3-6.1z"/><path class="k" d="M301.2 141.6c-.2.5-.5.9-.9.8-.4 0-.6-.5-.5-1.1.1-.6.5-.9.9-.9.4.1.6.6.5 1.2z"/><path d="M300.7 142.5s-1.9 3-3.6 4.2c.8 1.2 2.5 1.1 2.5 1.1z" style="fill:#ff5652"/><path class="l" d="M298.9 162.1v-6.5l8.7 1s-.1 5.7-5 7.3zM301.4 150.9l6.1 1.7.1 4-8.7-1z"/><path class="n" d="m307.5 152.6-6.1-1.7-1.2 2.2c.2 3.9 2.5 7.1 5.6 8.5 1.7-2.2 1.8-5 1.8-5z"/><path class="k" d="M303.8 138.9q.1 0 .2-.1c.2-.1.2-.3.1-.5-1.3-1.3-2.8-1.1-2.9-1.1-.2.1-.3.2-.2.4 0 .2.2.3.3.3.1 0 1.3-.2 2.3.9q.1.1.2.1z"/><path class="l" d="M316.6 151.7c-1 5.1-1.6 12.3 2 15.7 0 0-1.4 5.2-11 5.2-10.5 0-5.1-4.6-5.1-4.6 4.4-1.3 4.4-6.3 3.4-10.3z"/><path class="h" d="M320.5 170.8c1-1.3.9-5.5-.1-6.2-1.6-1.2-8.5-1.5-17.8.6 1 4.1-1.1 6.2-1.1 6.2z"/><path fill-rule="evenodd" class="h" d="M351.8 408.2c-.7.2-1.4.2-1.8-.1-.1-.1-.2-.3-.1-.7q.1-.4.4-.5c1-.5 3.1.4 3.2.5q.1 0 .1.1t-.1.2c-.3.1-1 .4-1.7.5zm-1.1-1.1q-.2 0-.2.1-.2.1-.3.3c-.1.3 0 .4.1.4.3.3 1.7 0 2.7-.4-.6-.2-1.7-.5-2.3-.4z"/><path fill-rule="evenodd" class="h" d="M353.5 407.7h-.1c-.8-.3-2.5-1.5-2.5-2.3 0-.1.1-.4.4-.5q.4-.1.8 0c.9.5 1.5 2.5 1.5 2.6q.1.1 0 .1 0 .1-.1.1zm-2-2.5h-.1c-.2.1-.2.2-.2.2.1.5 1.2 1.4 2 1.8-.2-.5-.7-1.6-1.3-2q-.2-.1-.4 0zM299.9 409.4c-.9 0-1.8-.1-2.1-.5-.1-.2-.2-.4 0-.7q.2-.3.5-.4c1.2-.3 3.7 1.1 3.8 1.1q.1.1.1.2-.1.1-.2.1c-.4.1-1.3.2-2.1.2zm-1.2-1.3h-.3q-.2.1-.3.2c-.1.2-.1.3 0 .4.3.4 2.1.5 3.4.3-.7-.4-1.9-.9-2.8-.9z"/><path fill-rule="evenodd" class="h" d="M302 409.2h-.1c-.8-.4-2.5-1.9-2.4-2.7 0-.2.2-.4.6-.5q.6 0 1 .3c.9.8 1 2.7 1.1 2.7q0 .1-.1.2h-.1zm-1.7-2.8h-.1c-.3 0-.3.1-.4.2 0 .4 1.1 1.6 2 2.2-.1-.6-.4-1.7-.9-2.2q-.3-.2-.6-.2z"/><path class="l" d="M309.7 409.1h-7l-.7-16.3h7zM361.3 405.8l-6.8 1.5-6.9-15.2 6.8-1.5z"/><path class="k" d="m353.8 406.6 7.7-1.7c.3 0 .6.1.7.4l2.7 5.8c.3.6-.1 1.3-.7 1.4-2.7.6-4.1.7-7.5 1.4-2.1.5-6.8 1.6-9.7 2.3-2.8.6-3.9-2.2-2.7-2.7 5-2.3 7.1-4.3 8.5-6.2.2-.4.6-.6 1-.7zM302.7 408.2h7.7c.3 0 .6.2.6.5l1.4 6.3c.1.6-.3 1.2-1 1.2-2.8 0-6.8-.2-10.3-.2-4 0-7.6.2-12.3.2-2.9 0-3.7-2.9-2.5-3.1 5.5-1.3 10-1.4 14.7-4.3.6-.3 1.1-.6 1.7-.6z"/><path class="h" d="M331.2 169c6.6 1.5 12 18.3 12 18.3L330 197.4s-4.9-4.6-7.1-13c-2.2-8.8 1.5-17 8.3-15.4z"/><path class="o" d="M331.2 169c6.6 1.5 12 18.3 12 18.3L330 197.4s-4.9-4.6-7.1-13c-2.2-8.8 1.5-17 8.3-15.4z"/><path class="l" d="M296.5 189.1c-1.6 1.7-3.3 3.3-5 4.9q-1.2 1.3-2.6 2.4l-1.3 1.2-.3.3-.6.4c-.4.4-.9.7-1.9 1.2-.6.2-1.3.5-2.5.5-.5 0-1.3-.1-2.1-.4-.7-.3-1.5-.8-2-1.3-1-1-1.3-1.9-1.5-2.6-.2-.6-.3-1-.3-1.4-.1-.8 0-1.3 0-1.8q.1-.7.2-1.3c.3-1.6.7-2.8 1.1-4 .5-1.3 1-2.5 1.6-3.7.6-1.2 1.3-2.2 1.9-3.2 2.4-4.2 5.3-7.9 8.4-11.5 3.2-3.5 6.5-6.7 10.3-9.7l3.6 3.8c-2.5 3.5-5.1 7.2-7.4 10.8-2.4 3.7-4.6 7.4-6.4 11.3-.5.9-1 1.9-1.3 2.7-.3.9-.7 1.8-.9 2.7-.3.9-.5 1.9-.6 2.5v.4-.1c0-.1 0-.2-.2-.6-.1-.4-.3-1-1.1-1.9-.4-.4-1-.8-1.7-1-.6-.2-1.2-.3-1.6-.3-1 0-1.4.2-1.7.3-.4.2-.5.3-.4.2l.3-.3 1.2-1.1 2.4-2.3c1.6-1.4 3.2-3 4.7-4.5z"/><path class="n" d="M325.5 181.4c3.6 3.5 4.8 10 5 15.6l-.5.4s-4.9-4.6-7.1-13q-.2-.8-.3-1.6z"/><path class="h" d="M289.5 176c-1.4 7.6-2.3 23.2 1.8 54.1H329c.2-5.7-3.4-33.9 2.2-61.1 0 0-6.5-1.3-12.6-1.6-4.8-.2-11.8-.4-16 0-1.8.2-3.5.4-5.1.7-4 .7-7.2 3.9-8 7.9z"/><path class="o" d="M289.5 176c-1.4 7.6-2.3 23.2 1.8 54.1H329c.2-5.7-3.4-33.9 2.2-61.1 0 0-6.5-1.3-12.6-1.6-4.8-.2-11.8-.4-16 0-1.8.2-3.5.4-5.1.7-4 .7-7.2 3.9-8 7.9z"/><path class="n" d="m295.3 187.3-6.8-1.7c-.2 4.2-.3 9.3 0 15.6 3.2-3.6 7.2-9.1 6.8-13.9zM302 392.8l.4 8.4h7l-.4-8.4zM354.5 390.6l-6.9 1.5 3.5 7.8 6.9-1.4z"/><path class="l" d="M319.9 144.2c-1.8 6.7-2.5 10.7-6.6 13.5-6.3 4.3-14.1-.6-14.3-7.7-.3-6.5 2.7-16.4 10-17.8 7.1-1.3 12.7 5.2 10.9 12z"/><path class="k" d="M304.1 144.4c-.3-.9-1.8-7.9-.4-9.7 1.5-1.8 18.1-.5 20.6 1.9 4.1 4.1 1.2 7.7-3.2 12.3-3.4 3.5-3.5 7.4-5.2 8-3 1-7.6 0-8.5-3.2-.9-3.1-3.3-9.3-3.3-9.3z"/><path class="k" d="M322.3 128.7c-5.9-2.5-16.9.3-22.9-1.1-.2 3 1.6 8 7.6 9.3 0 0 8.5 1.7 15 1.4 6.5-.3 5.3-7.4.3-9.6z"/><path class="k" d="M323.2 136.9s3.6.4 6.2-1.2c1.1 2.6-4.9 3.4-6.2 1.2z"/><path class="l" d="M307.4 144.7c-.2 1.8-1 3.5-2 4.7-1.6 1.6-3.2.6-3.4-1.5-.3-1.8.2-4.9 2.1-5.9 1.9-.9 3.4.6 3.3 2.7z"/><path class="h" d="M304.7 230.1s8 53.8 12.4 73.9c4.8 22.1 30.5 95 30.5 95l12.6-2.7s-18-59.4-22-90.3c-3.1-23.7-9.2-75.9-9.2-75.9z"/><path class="k" d="M344.6 394.8c-.1.1 2.3 4.6 2.3 4.6l14.2-3.1-1.2-4.2z"/><path d="M309.7 249.3c9.3 1.8 8.3 36.2 7.2 53.9-2.7-12.5-6.6-36.6-9.2-53.7q.9-.4 2-.2z" style="opacity:.3"/><path class="h" d="M291.3 230.1s-.9 52.6-.2 74.1c.8 22.3 8.6 95.3 8.6 95.3h11.9s.5-71.7 1-93.6c.6-23.9 3.5-75.8 3.5-75.8z"/><path class="k" d="m297.4 394.8.7 4.9h14.5l.4-4.4z"/><path class="h" d="M304.3 178.3c3.3 9.1-16.5 19.8-16.5 19.8l-8.6-11s5.8-11.4 12.8-16.5c8.7-6.4 9.7.8 12.3 7.7z"/><path class="o" d="M304.3 178.3c3.3 9.1-16.5 19.8-16.5 19.8l-8.6-11s5.8-11.4 12.8-16.5c8.7-6.4 9.7.8 12.3 7.7z"/><path class="h" d="M381.9 109.3c-20 0-36.1-10.2-36.1-23 0-12.7 16.1-23 36.1-23 19.9 0 36.1 10.3 36.1 23 0 12.8-16.2 23-36.1 23z"/><path fill-rule="evenodd" class="d" d="M368.8 97.9c-2 0-3.9-.6-5.6-1.7-2.3-1.6-3.8-4-4.3-6.7-.9-5.2 2.6-10.4 7.7-11.5 4.3-1 8.6.8 10.8 4.5l23.2-4.8c1.9-.4 3.8.7 4.3 2.5.2.9.1 1.9-.4 2.7-.6.8-1.4 1.4-2.3 1.6l-.6.1q-.3.1-.4.3-.2.3-.1.5l.4 1.1c.3.7.1 1.5-.6 1.9-.5.3-.8.9-.9 1.4-.1.8-.5 1.3-1.2 1.4l-.5.1c-.6.2-1.3-.1-1.6-.8-.4-.7-1.3-1.1-2.1-.9-.8.2-1.4.8-1.5 1.7-.1.7-.6 1.2-1.2 1.4l-.5.1c-.6.1-1.3-.2-1.6-.8-.3-.5-.9-.9-1.4-1-.8-.1-1.3-.7-1.4-1.5v-1.1q0-.3-.2-.5-.3-.2-.6-.1l-7.3 1.5c-.7 4.2-3.8 7.5-8 8.4q-1 .2-2.1.2zm-2-19c-4.6 1.1-7.7 5.8-6.9 10.4.4 2.5 1.8 4.6 3.8 6 2.1 1.4 4.6 1.9 7 1.4 3.9-.8 6.8-4 7.2-7.9l.1-.3 8-1.7c.5-.1 1 0 1.4.3.3.3.6.7.6 1.2v1.2c0 .2.3.5.5.5.9.2 1.7.7 2.1 1.5.1.2.3.3.6.3l.5-.1c.2-.1.4-.3.4-.5.1-1.3 1.1-2.3 2.3-2.6 1.3-.2 2.5.3 3.2 1.4.1.2.3.4.5.3h.5c.3-.1.4-.4.4-.6.1-.9.6-1.6 1.4-2.1.2-.2.3-.5.2-.7l-.4-1.1c-.2-.4-.1-.9.1-1.4.2-.4.6-.7 1.1-.8l.6-.1c.7-.1 1.2-.5 1.6-1.1.4-.6.5-1.3.3-2-.3-1.2-1.7-2-3.1-1.7L377 83.6l-.2-.3c-2-3.5-6-5.3-10-4.4zm2.1 15.3c-1.3 0-2.5-.3-3.5-1-1.5-1-2.5-2.4-2.8-4.1-.3-1.7 0-3.4.9-4.8 1-1.4 2.4-2.4 4.1-2.8 1.7-.3 3.4 0 4.8 1 1.4.9 2.4 2.3 2.7 4 .4 1.7.1 3.4-.9 4.8-.9 1.5-2.4 2.4-4 2.8q-.7.1-1.3.1zm0-11.8q-.6 0-1.1.1c-1.4.3-2.7 1.1-3.4 2.3-.8 1.2-1.1 2.7-.8 4.1.3 1.4 1.1 2.6 2.3 3.4 1.2.8 2.7 1.1 4.1.8 1.4-.3 2.6-1.1 3.4-2.3.8-1.2 1.1-2.7.8-4.1-.3-1.4-1.2-2.6-2.4-3.4-.8-.6-1.9-.9-2.9-.9z"/><path class="j" d="M352.5 122.8c-6.6 0-11.9-3.4-11.9-7.5 0-4.2 5.3-7.6 11.9-7.6 6.6 0 11.9 3.4 11.9 7.6 0 4.1-5.3 7.5-11.9 7.5z"/><path d="M333.6 125.9c-2.7 0-4.8-1.4-4.8-3.1 0-1.7 2.1-3.1 4.8-3.1 2.7 0 4.9 1.4 4.9 3.1 0 1.7-2.2 3.1-4.9 3.1z" style="opacity:.3;fill:#407bff"/></svg>