<svg xmlns="http://www.w3.org/2000/svg" viewBox="0 0 500 500" style="enable-background:new 0 0 500 500" xml:space="preserve"><ellipse style="fill:#f5f5f5" cx="250" cy="345.796" rx="223.403" ry="131.224"/><path style="fill:#e0e0e0" d="M93.965 345.907c12.927 7.463 12.927 19.564 0 27.028s-33.886 7.464-46.813 0c-12.927-7.463-12.927-19.564 0-27.028 12.927-7.463 33.886-7.463 46.813 0zM122.336 363.06 239.6 430.762c2.391 1.381 6.269 1.381 8.66 0l198.504-114.606c2.391-1.381 2.391-3.619 0-5L329.5 243.454c-2.392-1.381-6.269-1.381-8.66 0L122.336 358.06c-2.391 1.381-2.391 3.619 0 5z"/><path style="fill:#27debf" d="m418.277 291.877-8.17-4.721s-4.862-20.203-2.925-38.383c2.724-25.559 16.479-36.695 25.946-32.972 6.297 2.476 8.25 9.642-2.335 24.864-6.245 8.982-13.918 27.69-12.516 51.212z"/><path d="m418.277 291.877-8.17-4.721s-4.862-20.203-2.925-38.383c2.724-25.559 16.479-36.695 25.946-32.972 6.297 2.476 8.25 9.642-2.335 24.864-6.245 8.982-13.918 27.69-12.516 51.212z" style="opacity:.3"/><path style="fill:#fff" d="M414.891 281.951a.567.567 0 0 0 .529-.672c-4.478-23.574 3.757-50.065 13.955-61.089a.567.567 0 0 0-.833-.77c-10.384 11.224-18.78 38.147-14.236 62.069a.568.568 0 0 0 .585.462z"/><path style="fill:#27debf" d="M439.677 304.236c1.29.657 4.723-2.281 5.679-2.995 1.638-1.223 2.93-2.903 3.75-4.77.955-2.173 1.108-4.459.657-6.787-.234-1.207-.634-2.376-1.033-3.539l-1.175-3.427c-.386-1.127-.778-2.293-.687-3.481.184-2.393 2.211-4.166 4.058-5.7 2.042-1.696 4.146-3.905 3.99-6.768-.121-2.208-1.368-4.202-2.825-5.867s-3.158-3.114-4.488-4.882c-.957-1.273-1.73-2.785-1.665-4.376.04-.989.401-1.936.829-2.828.917-1.915 2.165-3.69 2.761-5.728.596-2.038.371-4.524-1.264-5.878-1.342-1.112-3.257-1.18-4.988-.977-1.601.187-3.134.991-4.501 1.844-4.418 2.757-6.741 8.271-11.466 10.459-1.822.844-3.852 1.111-5.766 1.721-1.914.61-3.841 1.701-4.648 3.539-1.592 3.625 1.913 7.818.858 11.635-.934 3.377-4.098 4.812-5.759 7.897-.727 1.35-.833 2.872-.629 4.392.347 2.571.82 4.447 2.204 7.256 1.144 2.321 4.364 6.709 4.364 6.709s21.547 12.45 21.744 12.551z"/><path d="M439.677 304.236c1.29.657 4.723-2.281 5.679-2.995 1.638-1.223 2.93-2.903 3.75-4.77.955-2.173 1.108-4.459.657-6.787-.234-1.207-.634-2.376-1.033-3.539l-1.175-3.427c-.386-1.127-.778-2.293-.687-3.481.184-2.393 2.211-4.166 4.058-5.7 2.042-1.696 4.146-3.905 3.99-6.768-.121-2.208-1.368-4.202-2.825-5.867s-3.158-3.114-4.488-4.882c-.957-1.273-1.73-2.785-1.665-4.376.04-.989.401-1.936.829-2.828.917-1.915 2.165-3.69 2.761-5.728.596-2.038.371-4.524-1.264-5.878-1.342-1.112-3.257-1.18-4.988-.977-1.601.187-3.134.991-4.501 1.844-4.418 2.757-6.741 8.271-11.466 10.459-1.822.844-3.852 1.111-5.766 1.721-1.914.61-3.841 1.701-4.648 3.539-1.592 3.625 1.913 7.818.858 11.635-.934 3.377-4.098 4.812-5.759 7.897-.727 1.35-.833 2.872-.629 4.392.347 2.571.82 4.447 2.204 7.256 1.144 2.321 4.364 6.709 4.364 6.709s21.547 12.45 21.744 12.551z" style="opacity:.15"/><path style="fill:#fff" d="m427.172 297.718.016-.001a.57.57 0 0 0 .521-.617c-2.068-22.423 7.268-47.763 14.603-55.359a.568.568 0 0 0-.816-.788c-7.483 7.748-17.014 33.512-14.917 56.25.029.306.292.53.593.515z"/><path style="fill:#fff" d="M429.4 270.071a.578.578 0 0 0 .166-.034c7.107-2.596 16.084-3.443 16.174-3.451a.568.568 0 0 0 .513-.617.55.55 0 0 0-.617-.513c-.092.009-9.212.869-16.459 3.516a.567.567 0 0 0 .223 1.099z"/><path style="fill:#37474f" d="M126.345 350.617c0 2.959 2.215 6.636 4.947 8.213l107.69 62.187c2.732 1.577 7.161 1.577 9.893 0l189.629-109.483c2.732-1.577 4.946-5.255 4.947-8.214 0-2.959-2.214-6.637-4.946-8.214l-107.69-62.187c-2.732-1.577-7.161-1.577-9.892 0L131.29 342.403c-2.731 1.577-4.946 5.255-4.945 8.214z"/><path style="fill:#455a64" d="m131.29 348.115 107.691 62.187c2.732 1.577 7.161 1.577 9.893 0l189.63-109.483c2.732-1.577 2.732-4.134 0-5.711l-107.69-62.187c-2.732-1.577-7.161-1.577-9.892 0L131.29 342.403c-2.731 1.577-2.731 4.135 0 5.712z"/><path style="fill:#263238" d="M243.93 411.494v10.703c-1.793 0-3.587-.388-4.946-1.177L131.29 358.83c-2.73-1.576-4.946-5.255-4.946-8.213 0-2.776 1.953-6.18 4.444-7.893-2.216 1.588-2.045 3.918.503 5.392l107.694 62.19c1.358.788 3.151 1.188 4.945 1.188z"/><path style="fill:#37474f" d="M121.705 342.58c-2.562-1.48-2.423-3.978-2.423-7.132l-.001-148.747c0-3.154 2.215-6.99 4.946-8.567L313.856 68.651c2.732-1.577 7.024-1.656 9.587-.177 2.563 1.48 2.424 3.978 2.424 7.132v148.747c0 3.154-2.215 6.99-4.946 8.567L131.29 342.403c-2.731 1.577-7.023 1.657-9.585.177z"/><path style="fill:#455a64" d="M325.869 75.603c0-3.148-2.217-4.425-4.948-2.855L131.288 182.235c-1.365.789-2.607 2.146-3.494 3.698l-7.059-4.106h-.009c.896-1.552 2.137-2.909 3.503-3.698L313.853 68.65c2.731-1.578 7.023-1.658 9.586-.177 2.563 1.481 2.43 3.982 2.43 7.13z"/><path style="fill:#263238" d="M130.706 342.702c-2.73 1.279-6.614 1.257-9.001-.126-2.559-1.474-2.421-3.973-2.421-7.126V186.697c0-1.576.548-3.324 1.451-4.866l7.059 4.088v.011c-.891 1.554-1.451 3.29-1.451 4.866v148.753c0 2.924 1.908 4.238 4.363 3.153z"/><path style="fill:#fafafa" d="M133.951 187.939 316.779 82.411c1.639-.946 2.968-.179 2.968 1.714v129.847c0 1.893-1.329 4.194-2.968 5.14L133.951 324.638c-1.639.946-2.968.179-2.968-1.713V193.079c0-1.892 1.329-4.194 2.968-5.14z"/><path style="fill:#263238" d="m144.979 342.695 176.018-101.622c1.366-.789 3.58-.789 4.946 0l2.931 1.61c1.366.789 1.366 2.067 0 2.855L152.829 347.145c-1.366.789-3.581.788-4.947 0l-2.904-1.594c-1.365-.788-1.365-2.067.001-2.856zM158.784 350.905 334.8 249.281c1.366-.789 3.389-.899 4.519-.246l45.815 26.452c1.13.652.939 1.82-.427 2.609L208.896 379.582c-1.366.788-3.392.902-4.525.254l-46.009-26.328c-1.132-.65-.944-1.815.422-2.603z"/><path style="fill:#455a64" d="m311.304 291.965 5.511-3.181c.234-.135.255-.343.048-.463l-5.273-3.044c-.208-.12-.567-.108-.801.028l-5.511 3.182c-.234.135-.255.342-.047.462l5.272 3.044c.209.119.567.106.801-.028zm-8.046-11.01-5.511 3.182c-.234.135-.255.342-.047.462l5.272 3.044c.208.12.567.107.8-.027l5.511-3.182c.234-.135.256-.342.048-.462l-5.273-3.044c-.208-.12-.566-.108-.8.027zm-17.805 10.28-9.327 5.385c-.234.135-.255.342-.047.462l5.273 3.044c.208.12.567.108.801-.027l9.326-5.384c.234-.135.255-.342.047-.462l-5.272-3.044c-.209-.122-.567-.109-.801.026zm9.75-5.63-5.511 3.182c-.233.135-.255.342-.047.462l5.273 3.044c.208.12.566.108.8-.027l5.511-3.182c.234-.135.256-.342.048-.462l-5.273-3.044c-.208-.12-.567-.108-.801.027zm-21.62 12.483-5.511 3.182c-.234.135-.255.342-.048.462l5.273 3.044c.208.12.566.108.8-.027l5.511-3.182c.234-.135.255-.342.047-.462l-5.272-3.044c-.208-.12-.566-.108-.8.027zm-8.055 4.65-5.511 3.182c-.234.135-.255.342-.047.462l5.273 3.044c.208.12.566.108.801-.027l5.511-3.182c.234-.135.255-.342.047-.462l-5.272-3.044c-.209-.12-.568-.108-.802.027zm20.666 12.421 5.511-3.182c.233-.135.255-.342.047-.462l-5.272-3.044c-.208-.12-.567-.108-.8.027l-5.511 3.182c-.234.135-.256.342-.048.462l5.273 3.044c.207.121.566.108.8-.027zm-8.055 4.651 5.511-3.181c.234-.136.255-.342.047-.463l-5.272-3.044c-.208-.12-.566-.108-.801.027l-5.511 3.182c-.234.135-.255.342-.048.462l5.273 3.044c.209.12.567.108.801-.027zm-8.054 4.65 5.511-3.182c.234-.135.255-.342.047-.462l-5.272-3.044c-.208-.12-.567-.108-.801.027l-5.511 3.182c-.234.135-.255.342-.047.462l5.272 3.044c.208.121.566.108.801-.027zm-8.055 4.65 5.511-3.182c.234-.135.255-.342.047-.462l-5.272-3.044c-.208-.12-.566-.108-.8.027l-5.511 3.182c-.234.135-.255.342-.047.462l5.272 3.044c.207.121.566.109.8-.027zm41.22-32.495 5.511-3.182c.234-.135.255-.342.047-.462l-5.273-3.044c-.208-.12-.566-.107-.8.027l-5.511 3.182c-.234.135-.256.342-.048.462l5.272 3.044c.209.121.568.108.802-.027zm-9.001 13.894 12.294-7.098c.234-.136.255-.342.047-.462l-12.804-7.393c-.208-.12-.566-.108-.801.027l-6.359 3.671c-.234.135-.255.342-.048.463l6.779 3.914c.208.12.186.327-.048.462l-5.087 2.937c-.234.135-.256.342-.047.462l5.273 3.044c.208.12.567.108.801-.027zm-36.775-3.121-5.511 3.182c-.234.135-.255.342-.047.462l5.272 3.044c.208.12.566.108.801-.027l5.511-3.181c.234-.135.255-.342.047-.462l-5.272-3.044c-.209-.121-.567-.108-.801.026zm-8.055 4.651-5.511 3.181c-.234.135-.255.342-.047.462l5.272 3.044c.208.12.567.108.801-.027l5.511-3.182c.234-.135.255-.342.047-.462l-5.273-3.044c-.208-.119-.566-.107-.8.028zm-44.572 49.652c.208.12.566.107.801-.028l5.511-3.182c.234-.135.255-.342.047-.462l-5.272-3.044c-.208-.12-.567-.108-.801.027l-5.511 3.182c-.234.135-.255.342-.048.462l5.273 3.045zm-19.866-12.449-5.511 3.182c-.234.135-.255.342-.047.462l5.272 3.043c.208.121.566.108.801-.027l5.511-3.182c.234-.135.255-.342.047-.462l-5.272-3.044c-.208-.119-.566-.107-.801.028zm10.214 9.324c.208.12.567.108.8-.027l5.512-3.182c.234-.135.255-.342.047-.462l-5.272-3.044c-.208-.12-.566-.108-.8.027l-5.511 3.182c-.234.135-.256.342-.047.462l5.271 3.044zm22.224 4.998 5.511-3.182c.234-.135.256-.342.048-.462l-5.273-3.044c-.208-.12-.566-.108-.801.028l-5.511 3.182c-.234.135-.255.342-.047.462l5.272 3.044c.208.119.567.108.801-.028zm-8.855 4.678c.208.12.566.108.8-.027l5.511-3.182c.234-.135.255-.342.048-.462l-5.273-3.044c-.208-.12-.566-.108-.8.027l-5.511 3.182c-.234.135-.255.342-.047.462l5.272 3.044zm-15.528-23.65-5.511 3.182c-.234.135-.255.342-.047.462l5.272 3.044c.208.12.566.108.8-.027l5.511-3.182c.234-.135.255-.342.047-.462l-5.272-3.044c-.207-.121-.566-.108-.8.027zm40.273-23.252-5.511 3.182c-.234.135-.255.342-.047.462l5.272 3.044c.208.12.566.108.801-.027l5.511-3.182c.234-.135.255-.342.047-.462l-5.273-3.044c-.207-.121-.566-.108-.8.027zm-32.218 18.602-5.511 3.182c-.234.135-.255.342-.047.462l5.272 3.044c.208.12.566.108.801-.027l5.511-3.182c.234-.135.255-.342.047-.462l-5.272-3.044c-.209-.121-.567-.109-.801.027zm40.273-23.253-5.511 3.182c-.234.135-.255.342-.047.462l5.272 3.044c.208.12.566.108.801-.027l5.511-3.181c.234-.136.255-.342.048-.462l-5.273-3.044c-.208-.121-.567-.109-.801.026zm-16.109 9.301-5.511 3.182c-.234.135-.256.342-.048.462l5.273 3.044c.208.12.566.108.801-.027l5.511-3.182c.234-.135.256-.342.048-.462l-5.273-3.044c-.208-.12-.567-.108-.801.027zm-8.055 4.651-5.511 3.182c-.234.135-.256.342-.048.462l5.273 3.044c.208.12.566.108.801-.027l5.511-3.181c.234-.135.255-.342.047-.463l-5.272-3.044c-.208-.121-.567-.108-.801.027zm-8.054 4.65-5.511 3.182c-.234.135-.255.342-.048.462l5.273 3.044c.208.12.566.108.8-.027l5.511-3.182c.234-.135.255-.342.047-.462l-5.272-3.044c-.208-.12-.566-.108-.8.027zm36.774 3.12 5.511-3.182c.234-.135.256-.342.048-.462l-5.273-3.044c-.208-.12-.566-.108-.8.028l-5.511 3.181c-.234.136-.255.342-.047.463l5.272 3.044c.208.12.566.107.8-.028zm75.143-67.736-5.511 3.182c-.234.135-.255.342-.048.462l5.273 3.044c.208.12.566.108.801-.027l5.511-3.182c.234-.135.255-.342.047-.462l-5.272-3.044c-.208-.12-.567-.108-.801.027zm-9.75 5.63-5.511 3.182c-.234.135-.255.342-.047.462l5.272 3.044c.208.12.567.108.801-.027l5.511-3.182c.234-.135.255-.342.048-.462l-5.273-3.044c-.209-.121-.567-.108-.801.027zm17.804-10.28-5.511 3.181c-.234.135-.255.342-.048.463l5.273 3.044c.208.12.566.108.8-.027l5.511-3.182c.234-.135.256-.342.048-.462l-5.272-3.044c-.208-.12-.566-.108-.801.027zm-44.52 41.359 5.511-3.182c.234-.136.255-.342.047-.463l-5.272-3.044c-.208-.12-.567-.108-.801.027l-5.511 3.182c-.234.135-.255.342-.048.462l5.273 3.044c.208.121.567.109.801-.026zm53.376-46.037c-.208-.12-.567-.108-.801.027l-5.51 3.182c-.234.135-.256.342-.048.462l5.273 3.044c.208.12.566.108.8-.027l5.511-3.182c.234-.135.256-.342.048-.462l-5.273-3.044zm-83.998 72.414 5.511-3.182c.234-.135.255-.342.047-.462l-5.272-3.044c-.208-.12-.566-.108-.8.027l-5.511 3.182c-.234.135-.255.342-.047.462l5.272 3.044c.208.12.566.108.8-.027zm98.776-57.029 5.511-3.181c.234-.135.255-.342.047-.463l-5.273-3.044c-.208-.12-.566-.108-.801.027l-5.511 3.182c-.234.135-.255.342-.047.462l5.272 3.044c.209.121.568.109.802-.027zm-15.587.303 5.511-3.182c.234-.135.255-.341.047-.462l-5.273-3.044c-.207-.12-.566-.108-.8.027l-5.511 3.182c-.234.136-.256.342-.048.462l5.273 3.044c.208.12.567.108.801-.027zm8.341-11.339c-.208-.12-.566-.108-.8.027l-5.511 3.182c-.233.135-.255.342-.047.462l5.273 3.044c.208.12.566.108.8-.027l5.511-3.182c.234-.135.256-.342.048-.462l-5.274-3.044zm1.696-.979 12.804 7.393c.208.12.566.108.8-.027l5.511-3.182c.234-.135.255-.342.048-.462l-12.805-7.393c-.208-.12-.567-.108-.801.027l-5.511 3.182c-.233.135-.255.342-.046.462zm-18.606 10.307-5.511 3.181c-.234.135-.256.342-.048.462l5.273 3.044c.208.12.566.108.801-.027l5.511-3.182c.234-.136.255-.342.047-.462l-5.272-3.044c-.208-.119-.567-.107-.801.028zm-60.622 35-5.511 3.182c-.234.135-.255.342-.047.462l5.272 3.044c.208.12.566.108.8-.027l5.511-3.182c.234-.135.255-.342.047-.462l-5.272-3.044c-.208-.121-.566-.108-.8.027zm75.923-28.614c.207.12.566.108.801-.027l5.511-3.182c.234-.136.255-.342.047-.462l-5.273-3.044c-.207-.12-.566-.108-.8.027l-5.511 3.182c-.234.135-.256.342-.047.462l5.272 3.044zm-67.868 23.964-5.511 3.182c-.234.135-.255.342-.047.462l5.272 3.044c.208.12.566.108.8-.027l5.511-3.182c.234-.135.255-.342.047-.462l-5.272-3.044c-.208-.121-.566-.108-.8.027zm-63.127 51.666c.208.12.567.108.801-.027l5.511-3.182c.233-.135.255-.342.047-.462l-5.273-3.044c-.208-.12-.566-.108-.8.027l-5.511 3.182c-.234.135-.255.342-.048.462l5.273 3.044zm-9.365-9.813-5.511 3.182c-.234.135-.255.342-.047.462l5.272 3.044c.208.12.566.108.8-.027l5.511-3.181c.234-.135.255-.342.047-.462l-5.272-3.044c-.208-.122-.566-.109-.8.026zm18.22 5.135 5.511-3.182c.234-.135.256-.342.048-.462l-5.273-3.044c-.208-.12-.566-.108-.801.027l-5.511 3.182c-.234.135-.255.342-.047.462l5.273 3.044c.208.12.567.109.8-.027zm8.055-4.65 5.511-3.182c.234-.136.256-.342.048-.462l-5.273-3.044c-.207-.12-.566-.108-.801.027l-5.511 3.182c-.234.135-.256.342-.047.462l5.273 3.044c.207.12.566.108.8-.027zm8.055-4.651 5.511-3.181c.234-.136.255-.342.048-.463l-5.273-3.044c-.208-.12-.566-.108-.801.028l-5.511 3.181c-.234.135-.255.342-.047.462l5.272 3.044c.208.121.567.109.801-.027zm-26.276-.484-5.511 3.181c-.234.135-.255.342-.048.462l5.273 3.044c.208.12.566.108.801-.027l5.511-3.182c.234-.135.255-.342.047-.462l-5.273-3.044c-.207-.119-.566-.108-.8.028zm8.055-4.651-5.511 3.182c-.234.135-.256.342-.048.462l5.273 3.044c.208.12.566.108.8-.027l5.511-3.182c.234-.135.255-.342.047-.462l-5.272-3.044c-.207-.12-.566-.108-.8.027zm32.219-18.601-5.511 3.181c-.234.136-.255.342-.047.462l5.272 3.044c.208.12.566.108.801-.027l5.511-3.181c.234-.135.255-.342.048-.463l-5.273-3.044c-.209-.119-.567-.107-.801.028zm-8.055 4.65-5.511 3.182c-.234.135-.255.342-.047.462l5.272 3.044c.208.12.567.108.801-.027l5.511-3.181c.234-.136.256-.342.048-.463l-5.273-3.044c-.209-.12-.567-.108-.801.027zm16.109-9.301-5.511 3.182c-.234.135-.255.342-.047.462l5.272 3.044c.208.12.566.108.801-.027l5.511-3.182c.234-.135.255-.342.047-.462l-5.272-3.044c-.208-.12-.567-.107-.801.027zM227.7 333.276l-5.511 3.182c-.234.135-.256.342-.048.462l5.273 3.044c.208.12.566.108.801-.027l5.511-3.182c.234-.136.255-.342.047-.462l-5.273-3.044c-.208-.12-.566-.108-.8.027zm8.054-4.65-5.511 3.182c-.234.135-.255.342-.047.462l5.273 3.044c.207.12.566.108.8-.027l5.511-3.182c.234-.135.256-.342.048-.462l-5.273-3.044c-.208-.121-.567-.108-.801.027zm-10.281 30.288 5.511-3.182c.234-.135.255-.342.048-.462l-5.273-3.044c-.208-.12-.566-.108-.801.027l-5.511 3.182c-.234.135-.256.342-.047.462l5.272 3.044c.209.12.567.108.801-.027zM183 356.909l-5.273-3.044c-.208-.12-.566-.108-.801.027l-5.511 3.182c-.234.135-.255.342-.047.462l5.272 3.044c.209.12.567.108.801-.028l5.511-3.181c.235-.135.255-.342.048-.462zm10.499 2.635-5.272-3.044c-.208-.12-.566-.108-.8.027l-8.479 4.895c-.234.135-.255.342-.047.462l5.272 3.044c.208.12.566.108.8-.027l8.479-4.895c.234-.135.255-.342.047-.462zm-18.369-8.647-5.272-3.044c-.208-.12-.566-.108-.8.027l-6.783 3.916c-.234.135-.255.342-.047.462l5.272 3.044c.208.12.567.108.801-.027l6.783-3.916c.233-.135.254-.342.046-.462zm5.201-3.002c.207.12.566.108.8-.027l5.511-3.182c.234-.135.256-.342.048-.462l-5.273-3.044c-.208-.12-.566-.108-.801.027l-5.511 3.182c-.234.136-.256.342-.048.462l5.274 3.044zm22.82 14.774-5.272-3.044c-.208-.12-.566-.107-.801.028l-10.598 6.118c-.234.136-.255.342-.047.462l5.272 3.044c.208.12.566.108.801-.027l10.598-6.119c.234-.135.255-.341.047-.462zm3.717 6.552-5.273-3.044c-.207-.12-.566-.108-.8.027l-6.783 3.916c-.234.135-.255.343-.047.462l5.272 3.044c.208.12.566.108.801-.027l6.783-3.916c.233-.135.254-.342.047-.462zm33.35-55.902c.208.12.566.108.8-.027l5.511-3.182c.234-.135.256-.342.048-.462l-5.272-3.044c-.208-.12-.567-.108-.801.027l-5.511 3.182c-.234.135-.256.342-.048.462l5.273 3.044zm-16.11 9.301c.208.12.567.108.801-.027l5.511-3.182c.234-.135.255-.342.047-.462l-5.272-3.044c-.208-.12-.566-.108-.8.027l-5.511 3.181c-.234.135-.255.342-.048.462l5.272 3.045zm-35.723 20.624c.208.12.567.108.801-.027l5.511-3.182c.234-.135.256-.342.048-.462l-5.272-3.044c-.208-.12-.566-.108-.801.028l-5.511 3.182c-.234.135-.255.342-.047.462l5.271 3.043zm43.778-25.275c.208.12.566.108.8-.027l5.511-3.182c.234-.135.255-.342.047-.462l-5.272-3.044c-.208-.12-.566-.108-.801.028l-5.511 3.182c-.234.135-.255.342-.048.462l5.274 3.043zm-16.11 9.301c.208.12.567.108.801-.028l5.511-3.181c.234-.135.256-.342.047-.463l-5.272-3.044c-.208-.12-.567-.108-.801.027l-5.511 3.182c-.234.135-.255.342-.047.462l5.272 3.045zm-5.23 42.277c-.208-.12-.566-.108-.801.027l-8.479 4.895c-.234.135-.255.342-.047.462l5.273 3.044c.208.12.566.108.8-.027l8.479-4.895c.234-.135.255-.342.047-.462l-5.272-3.044zm-6.329-35.603c.208.12.566.108.801-.027l5.511-3.182c.234-.135.255-.342.047-.462l-5.272-3.044c-.208-.12-.567-.107-.801.028l-5.511 3.182c-.234.135-.255.342-.047.462l5.272 3.043zm-8.055 4.65c.208.12.566.108.8-.027l5.511-3.182c.234-.135.255-.342.048-.462l-5.273-3.044c-.208-.12-.566-.108-.801.027l-5.511 3.182c-.234.135-.255.342-.047.462l5.273 3.044zm163.607-55.202c-.208-.12-.566-.108-.801.027l-13.565 7.832c-.234.135-.256.342-.048.463l5.273 3.044c.207.12.566.108.801-.027l13.565-7.832c.234-.135.255-.342.047-.462l-5.272-3.045zm-17.805 10.28c-.208-.12-.566-.108-.801.027l-5.511 3.181c-.234.135-.255.342-.047.462l5.272 3.044c.208.12.566.108.801-.028l5.511-3.182c.234-.135.255-.342.047-.462l-5.272-3.042zm-108.713 60.591 5.511-3.182c.234-.135.255-.342.047-.462l-5.272-3.044c-.208-.12-.566-.108-.801.027l-5.511 3.182c-.234.135-.255.342-.047.462l5.272 3.044c.208.121.567.108.801-.027zm92.604-51.29c-.208-.12-.567-.108-.801.027l-5.511 3.182c-.234.136-.255.342-.047.462l5.272 3.044c.208.12.566.108.8-.027l5.511-3.182c.234-.135.255-.342.048-.462l-5.272-3.044zm41.969-24.231c-.208-.12-.567-.108-.801.027l-5.511 3.182c-.234.135-.255.342-.047.462l5.272 3.044c.208.12.567.108.801-.027l5.511-3.182c.234-.135.255-.342.048-.462l-5.273-3.044zm13.327-1.606-12.805-7.393c-.208-.12-.566-.108-.8.027l-5.511 3.182c-.234.135-.255.342-.047.462l12.804 7.393c.208.12.566.108.8-.027l5.511-3.182c.235-.135.256-.343.048-.462zm-85.395 43.214c-.208-.12-.567-.108-.8.027l-6.783 3.916c-.234.135-.255.342-.047.462l5.272 3.044c.208.12.566.108.801-.027l6.783-3.916c.234-.135.256-.342.047-.462l-5.273-3.044zm20.349-11.748c-.208-.12-.566-.108-.801.027l-8.479 4.895c-.234.135-.255.342-.047.462l5.273 3.044c.208.12.566.108.801-.027l8.479-4.895c.234-.135.255-.342.047-.462l-5.273-3.044zM277.38 331.12c-.208-.12-.566-.108-.801.027l-45.36 26.189c-.234.135-.256.342-.048.462l5.273 3.044c.208.12.566.108.801-.027l45.36-26.189c.234-.135.255-.342.047-.462l-5.272-3.044zm-47.904 27.657c-.208-.12-.567-.108-.8.027l-6.783 3.916c-.234.135-.255.342-.047.462l5.272 3.044c.208.12.567.108.801-.028l6.784-3.916c.233-.135.255-.342.047-.462l-5.274-3.043zm57.23-33.042c-.208-.12-.566-.108-.801.027l-6.783 3.916c-.234.136-.256.342-.048.462l5.273 3.044c.207.121.566.108.801-.027l6.783-3.917c.234-.135.255-.341.047-.462l-5.272-3.043zm-66.557 38.426c-.208-.12-.566-.108-.8.027l-6.783 3.916c-.234.135-.255.342-.047.462l5.272 3.044c.208.12.566.108.801-.027l6.783-3.916c.234-.135.256-.342.048-.462l-5.274-3.044zm85.21-49.195c-.208-.12-.566-.108-.801.027l-6.783 3.916c-.233.135-.255.342-.047.462l5.273 3.044c.208.12.566.108.8-.027l6.783-3.916c.234-.135.255-.342.047-.462l-5.272-3.044zm28.828-16.644c-.208-.12-.566-.108-.801.027l-5.511 3.182c-.234.135-.255.342-.047.462l5.272 3.044c.208.12.566.107.801-.027l5.511-3.182c.234-.135.255-.342.047-.462l-5.272-3.044zm18.041-12.59 5.511-3.182c.234-.135.256-.342.048-.462l-5.273-3.044c-.208-.12-.566-.108-.801.027l-5.511 3.182c-.234.135-.255.342-.047.462l5.273 3.044c.208.12.566.108.8-.027zm-32.869 1.582 5.511-3.182c.234-.135.255-.342.048-.462l-5.273-3.044c-.208-.12-.566-.108-.8.027l-5.511 3.182c-.234.135-.255.342-.047.462l5.272 3.044c.208.12.566.108.8-.027zm-21.394 29.746 16.11-9.301c.234-.135.255-.342.047-.462l-5.272-3.044c-.208-.12-.566-.108-.8.027l-16.109 9.301c-.234.135-.255.342-.047.462l5.272 3.044c.207.121.565.109.799-.027zm45.408-26.651c.208.12.566.108.8-.027l5.511-3.182c.234-.135.256-.342.047-.462l-5.272-3.044c-.208-.12-.566-.108-.8.027l-5.512 3.182c-.234.135-.255.342-.047.462l5.273 3.044zm-6.731-4.375 5.511-3.182c.234-.135.255-.342.047-.462l-5.272-3.044c-.208-.12-.567-.108-.801.027l-5.511 3.182c-.234.135-.256.342-.048.462l5.273 3.044c.208.12.567.108.801-.027zm-46.732 35.677 5.511-3.182c.234-.135.255-.342.047-.462l-5.272-3.044c-.208-.12-.566-.108-.801.027l-5.511 3.182c-.234.135-.255.342-.047.462l5.272 3.044c.209.12.567.108.801-.027zm35.658-21.022c.208.12.566.108.801-.027l5.511-3.182c.234-.135.255-.342.047-.462l-5.273-3.044c-.208-.12-.566-.108-.8.027l-5.511 3.182c-.234.135-.255.342-.047.462l5.272 3.044zm-75.931 44.274 5.511-3.182c.234-.135.255-.342.047-.462l-5.272-3.044c-.208-.12-.566-.108-.8.027l-5.511 3.182c-.234.135-.255.342-.048.462l5.273 3.044c.208.12.566.108.8-.027zm8.055-4.651 5.511-3.182c.234-.135.255-.342.047-.462l-5.273-3.044c-.208-.12-.566-.108-.8.028l-5.511 3.182c-.234.135-.255.342-.048.462l5.273 3.044c.209.12.567.108.801-.028zm-16.109 9.301 5.511-3.182c.234-.135.256-.342.047-.462l-5.272-3.044c-.208-.12-.566-.108-.801.027l-5.511 3.182c-.234.135-.255.342-.048.462l5.273 3.044c.208.12.566.108.801-.027zm32.218-18.601 5.511-3.182c.234-.135.256-.342.047-.462l-5.272-3.044c-.208-.12-.566-.108-.801.027l-5.511 3.182c-.234.135-.255.342-.047.462l5.272 3.044c.209.12.567.108.801-.027zm-8.055 4.649 5.511-3.182c.234-.135.256-.342.048-.462l-5.273-3.044c-.208-.12-.566-.108-.801.027l-5.511 3.181c-.234.135-.255.342-.047.462l5.273 3.044c.208.122.567.11.8-.026zm16.11-9.3 5.511-3.182c.234-.135.255-.342.047-.462l-5.273-3.044c-.208-.12-.566-.108-.801.027l-5.511 3.182c-.234.135-.255.342-.047.462l5.272 3.044c.209.121.567.108.802-.027zm43.954-64.693c.208.12.567.108.801-.027l5.511-3.182c.234-.135.255-.342.047-.462l-1.403-.811c-.208-.12-.567-.108-.801.028l-5.511 3.182c-.233.135-.255.342-.047.462l1.403.81zm-40.034 25.348c.207.12.566.108.8-.027l5.511-3.182c.234-.135.255-.342.047-.462l-5.272-3.044c-.208-.121-.567-.108-.801.027l-5.511 3.182c-.234.135-.256.342-.048.462l5.274 3.044zm16.109-9.301c.208.12.566.108.8-.027l5.511-3.182c.234-.135.255-.342.048-.463l-5.273-3.044c-.208-.12-.566-.108-.8.027l-5.511 3.182c-.233.135-.255.342-.047.462l5.272 3.045zm-25.945 14.979c.208.12.566.108.801-.027l5.511-3.182c.234-.135.255-.342.047-.462l-5.272-3.044c-.208-.12-.566-.108-.801.028l-5.511 3.181c-.234.135-.255.342-.047.462l5.272 3.044zm17.891-10.329c.208.12.566.108.801-.027l5.511-3.182c.233-.135.255-.342.047-.462l-5.273-3.044c-.207-.12-.566-.108-.8.027l-5.511 3.182c-.234.135-.256.342-.048.462l5.273 3.044zm-34 19.63c.208.12.566.107.801-.028l5.511-3.182c.234-.135.255-.342.048-.463l-5.273-3.044c-.208-.12-.566-.108-.801.027l-5.511 3.182c-.234.136-.255.342-.047.462l5.272 3.046zm8.055-4.65c.208.12.566.108.801-.027l5.511-3.182c.234-.135.255-.342.047-.462l-5.272-3.044c-.208-.12-.566-.108-.801.027l-5.511 3.182c-.234.135-.255.342-.047.462l5.272 3.044zm41.815-26.376c.208.12.567.108.801-.027l5.511-3.182c.234-.135.255-.341.047-.462l-1.404-.81c-.208-.12-.566-.108-.8.027l-5.511 3.182c-.234.135-.256.342-.048.462l1.404.81zm24.164-13.951c.208.12.566.108.801-.027l5.511-3.182c.234-.135.255-.342.047-.462l-1.404-.811c-.208-.12-.566-.107-.801.028l-5.511 3.182c-.234.135-.256.342-.047.463l1.404.809zm11.076 6.394c.208.12.566.108.801-.027l5.511-3.182c.234-.135.255-.342.048-.462l-5.273-3.044c-.208-.12-.566-.108-.801.027l-5.511 3.182c-.234.135-.255.342-.047.462l5.272 3.044zm15.342 17.669 5.511-3.182c.234-.135.256-.342.048-.462l-5.273-3.044c-.208-.12-.566-.108-.801.027l-5.511 3.182c-.234.135-.255.342-.047.462l5.272 3.044c.208.121.567.108.801-.027zm-42.527-14.763c.208.12.566.108.801-.027l5.511-3.182c.234-.135.255-.342.047-.462l-1.404-.81c-.208-.12-.566-.108-.801.027l-5.511 3.182c-.234.135-.255.342-.047.462l1.404.81zm-65.98 40.327c.208.12.567.108.801-.027l5.511-3.182c.234-.135.256-.342.047-.462l-5.273-3.044c-.208-.12-.566-.108-.8.027l-5.511 3.182c-.234.135-.255.342-.047.462l5.272 3.044z"/><path style="fill:#37474f" d="m275.613 348.186 1.13.652 30.014 17.326 53.376-30.818 1.111-.633-31.144-17.977z"/><path style="fill:#263238" d="m276.743 348.838 30.014 17.326 53.376-30.818L330.1 318.02z"/><path style="fill:#27debf" d="m107.063 213.205-12.229-7.06c-.544-.314-.94-.393-1.154-.268-.256.15-1.275.738-1.49.861-.26.148-.255.59.073 1.271l2.975 6.159-2.22 2.038c-1.017.934-.873 2.25.323 2.94l12.228 7.06 1.493-.863v-12.138z"/><path style="opacity:.5;fill:#fff" d="m107.063 213.205-12.229-7.06c-.544-.314-.94-.393-1.154-.268-.256.15-1.275.738-1.49.861-.26.148-.255.59.073 1.271l2.975 6.159-2.22 2.038c-1.017.934-.873 2.25.323 2.94l12.228 7.06 1.493-.863v-12.138z"/><path style="fill:#27debf" d="M93.342 207.008c-1.196-.69-1.678-.242-1.078 1.001l2.975 6.159-2.22 2.038c-1.017.934-.873 2.25.323 2.94l12.228 7.06v-12.139l-12.228-7.059z"/><path style="fill:#455a64" d="M107.007 252.11a1.437 1.437 0 0 1-1.437-1.437v-40.62a1.437 1.437 0 0 1 2.874 0v40.62c0 .794-.643 1.437-1.437 1.437z"/><path style="fill:#263238" d="M54.385 360.274v-2.538h.626c.73-1.477 2.095-2.872 4.11-4.035 6.319-3.648 16.562-3.648 22.88 0 2.015 1.163 3.381 2.558 4.11 4.035h.619v2.457c.051 2.428-1.52 4.865-4.729 6.717-6.318 3.648-16.562 3.648-22.88 0-3.173-1.832-4.75-4.235-4.736-6.636z"/><path style="fill:#455a64" d="M82.001 351.131c-6.318-3.648-16.562-3.648-22.88 0-6.318 3.648-6.318 9.562 0 13.21 6.318 3.648 16.562 3.648 22.88 0 6.318-3.648 6.318-9.562 0-13.21z"/><path style="fill:#37474f" d="m74.728 269.775-.003 86.853c0 .615-.407 1.23-1.22 1.7-1.626.939-4.263.939-5.889 0-.813-.47-1.219-1.085-1.219-1.7l.003-86.853h8.328z"/><path style="fill:#263238" d="M66.397 280.279v8.17l8.33 4.797.001-8.148z"/><path style="fill:#27debf" d="m96.601 262.005 15.4 8.9c-.08.12-.19.24-.3.31l-26.94 15.55c-.23.13-.41.03-.41-.24v-19.41c0-3.38.78-7.14 2.25-10.88l10 5.77z"/><path style="opacity:.4" d="m96.601 262.005 15.4 8.9c-.08.12-.19.24-.3.31l-26.94 15.55c-.23.13-.41.03-.41-.24v-19.41c0-3.38.78-7.14 2.25-10.88l10 5.77z"/><path style="fill:#27debf" d="M112.118 249.253v21.72l-25.513-14.734c.025-.07.054-.143.082-.213 2.736-6.834 7.348-12.63 12.347-15.506 2.05-1.187 3.993-1.787 5.771-1.787 4.51.001 7.313 4.032 7.313 10.52z"/><path style="opacity:.3" d="M112.118 249.253v21.72l-25.513-14.734c.025-.07.054-.143.082-.213 2.736-6.834 7.348-12.63 12.347-15.506 2.05-1.187 3.993-1.787 5.771-1.787 4.51.001 7.313 4.032 7.313 10.52z"/><path style="fill:#27debf" d="m139.829 295.22-.001-1.94h-.184v.277a8.383 8.383 0 0 0-.506-1.57c-1.019-2.377-3.165-4.656-6.44-6.548l-18.232-10.525c-.759-.438-1.987-.438-2.749 0l-27.875 16.093c-.294-.263-.616-.522-.886-.977V291.985c0 .287.19.574.569.793l18.232 10.525c4.879 2.819 11.258 4.202 17.438 4.12 5.348-.07 10.547-1.238 14.509-3.53 4.099-2.356 6.119-5.482 6.119-8.673h.006z"/><path style="opacity:.4" d="m139.829 295.22-.001-1.94h-.184v.277a8.383 8.383 0 0 0-.506-1.57c-1.019-2.377-3.165-4.656-6.44-6.548l-18.232-10.525c-.759-.438-1.987-.438-2.749 0l-27.875 16.093c-.294-.263-.616-.522-.886-.977V291.985c0 .287.19.574.569.793l18.232 10.525c4.879 2.819 11.258 4.202 17.438 4.12 5.348-.07 10.547-1.238 14.509-3.53 4.099-2.356 6.119-5.482 6.119-8.673h.006z"/><path style="fill:#27debf" d="M139.138 291.987c-1.019-2.377-3.165-4.656-6.44-6.548l-18.232-10.525c-.759-.438-1.987-.438-2.749 0l-27.875 16.093 17.915 10.344c4.879 2.819 11.258 4.203 17.438 4.12 5.348-.073 10.547-1.241 14.509-3.53 3.679-2.117 5.688-4.85 6.059-7.697a8.13 8.13 0 0 0-.625-2.257z"/><path style="opacity:.2" d="M139.138 291.987c-1.019-2.377-3.165-4.656-6.44-6.548l-18.232-10.525c-.759-.438-1.987-.438-2.749 0l-27.875 16.093 17.915 10.344c4.879 2.819 11.258 4.203 17.438 4.12 5.348-.073 10.547-1.241 14.509-3.53 3.679-2.117 5.688-4.85 6.059-7.697a8.13 8.13 0 0 0-.625-2.257z"/><path style="fill:#27debf" d="M139.763 294.244a8.164 8.164 0 0 0-.625-2.257c-1.019-2.377-3.165-4.656-6.44-6.548l-18.232-10.525c-.759-.438-1.987-.438-2.749 0l-27.875 16.093-.317-.181c-.759-.438-.759-1.149 0-1.587l28.192-16.277c.762-.438 1.99-.438 2.749 0l18.232 10.525c3.276 1.892 5.421 4.171 6.44 6.548a8.17 8.17 0 0 1 .644 2.396 7.53 7.53 0 0 1-.019 1.813z"/><path style="opacity:.3" d="M139.763 294.244a8.164 8.164 0 0 0-.625-2.257c-1.019-2.377-3.165-4.656-6.44-6.548l-18.232-10.525c-.759-.438-1.987-.438-2.749 0l-27.875 16.093-.317-.181c-.759-.438-.759-1.149 0-1.587l28.192-16.277c.762-.438 1.99-.438 2.749 0l18.232 10.525c3.276 1.892 5.421 4.171 6.44 6.548a8.17 8.17 0 0 1 .644 2.396 7.53 7.53 0 0 1-.019 1.813z"/><path style="fill:#27debf" d="m84.138 288.961 28.192-16.277-.625-1.473-26.942 15.556z"/><path style="opacity:.1" d="m84.138 288.961 28.192-16.277-.625-1.473-26.942 15.556z"/><path style="fill:#f5f5f5" d="M109.633 247.958c0-.428-.3-.948-.671-1.162l-34.325-19.817c-.371-.214-.971-.214-1.342 0l-.756.437c-.371.214-.671.734-.671 1.162v26.31c0 .426.302.949.671 1.162l34.325 19.817c.369.213.973.213 1.342 0l.756-.437c.369-.213.671-.736.671-1.162v-26.31z"/><path style="fill:#e0e0e0" d="m109.437 247.298-1.904 1.098-35.467-20.479c.121-.21.289-.394.473-.501l.759-.435c.368-.216.971-.216 1.34 0l34.325 19.816c.185.107.353.291.474.501z"/><path style="fill:#27debf" d="M107.377 276.012c.04.01.08.01.13.01h-.04c-.04 0-.06 0-.09-.01z"/><path style="fill:#ebebeb" d="m107.537 248.392-.35.21c.21.08.35.29.35.57v26.31c0 .22-.08.37-.21.44-.09.04-.2.05-.32.01-.05-.02-.1-.04-.14-.06l-34.33-19.82c-.37-.22-.67-.74-.67-1.16v-26.31c0-.22.08-.46.2-.67l35.47 20.48z"/><path style="opacity:.2" d="m107.533 248.396-15.896 5.939a2.583 2.583 0 0 1-3.066-1.009l-2.553-3.911-14.08-21.571 13.571 21.718-13.64 5.338c.003.216.082.457.209.67l13.469-5.947 2.966 4.747a2.582 2.582 0 0 0 3.234.993l2.112-.932 13.466 21.491c.127-.067.206-.219.206-.441v-.438l-13.607-20.641 13.609-6.006z"/><path style="fill:#f5f5f5" d="M101.508 252.615c0-.428-.3-.948-.671-1.162l-34.325-19.817c-.371-.214-.971-.214-1.342 0l-.756.437c-.371.214-.671.734-.671 1.162v26.311c0 .426.302.949.671 1.162l34.325 19.817c.369.213.973.213 1.342 0l.756-.437c.369-.213.671-.736.671-1.162v-26.311z"/><path style="fill:#e0e0e0" d="m101.313 251.954-1.905 1.098-35.467-20.479a1.39 1.39 0 0 1 .473-.502l.759-.435c.368-.216.971-.216 1.34 0l34.325 19.816c.186.108.354.292.475.502z"/><path style="fill:#27debf" d="M99.252 280.669c.04.01.08.01.13.01h-.04c-.04 0-.06 0-.09-.01z"/><path style="fill:#ebebeb" d="m99.412 253.049-.35.21c.21.08.35.29.35.57v26.31c0 .22-.08.37-.21.44-.09.04-.2.05-.32.01-.05-.02-.1-.04-.14-.06l-34.33-19.82c-.37-.22-.67-.74-.67-1.16v-26.31c0-.22.08-.46.2-.67l35.47 20.48z"/><path style="opacity:.2" d="m99.408 253.052-15.896 5.939a2.583 2.583 0 0 1-3.066-1.009l-2.553-3.911L63.814 232.5l13.571 21.718-13.64 5.338c.003.216.083.457.209.67l13.469-5.947 2.966 4.747a2.582 2.582 0 0 0 3.234.993l2.112-.932 13.466 21.491c.127-.067.206-.219.206-.441v-.438L85.8 259.058l13.608-6.006z"/><path style="fill:#f5f5f5" d="M93.384 257.271c0-.428-.3-.948-.671-1.162l-34.325-19.817c-.371-.214-.971-.214-1.342 0l-.756.437c-.371.214-.671.734-.671 1.162v26.311c0 .426.302.949.671 1.162l34.325 19.817c.369.213.973.213 1.342 0l.756-.437c.369-.213.671-.736.671-1.162v-26.311z"/><path style="fill:#e0e0e0" d="m93.188 256.61-1.905 1.098-35.467-20.479c.121-.209.289-.394.473-.501l.759-.435c.368-.216.971-.216 1.34 0l34.325 19.816c.186.108.354.292.475.501z"/><path style="fill:#27debf" d="M91.128 285.325c.04.01.08.01.13.01h-.04c-.04 0-.06 0-.09-.01z"/><path style="fill:#ebebeb" d="m91.288 257.705-.35.21c.21.08.35.29.35.57v26.31c0 .22-.08.37-.21.44-.09.04-.2.05-.32.01-.05-.02-.1-.04-.14-.06l-34.33-19.82c-.37-.22-.67-.74-.67-1.16v-26.31c0-.22.08-.46.2-.67l35.47 20.48z"/><path style="opacity:.2" d="m91.284 257.708-15.896 5.939a2.583 2.583 0 0 1-3.066-1.009l-2.553-3.911-14.08-21.571 13.571 21.718-13.641 5.338c.003.216.083.457.209.67l13.469-5.947 2.966 4.747a2.582 2.582 0 0 0 3.234.993l2.112-.932 13.466 21.491c.127-.067.206-.219.206-.441v-.438l-13.607-20.641 13.61-6.006z"/><path style="fill:#27debf" d="M108.551 238.035c-2.73-1.43-6.35-1.18-10.31 1.11-4.45 2.56-8.46 7.19-11.27 12.51a39.18 39.18 0 0 0-1.76 3.78c-1.55 3.86-2.45 7.9-2.45 11.68v22.18c-.5 0-.99-.12-1.37-.33l-39.494-22.812c-.75-.44-1.37-1.51-1.37-2.38v-21.06c0-10.52 6.93-23.04 15.47-27.98 4.05-2.34 7.73-2.53 10.49-.98l.01-.02 42.054 24.302z"/><path style="opacity:.2" d="M108.551 238.035c-2.73-1.43-6.35-1.18-10.31 1.11-4.45 2.56-8.46 7.19-11.27 12.51a39.18 39.18 0 0 0-1.76 3.78c-1.55 3.86-2.45 7.9-2.45 11.68v22.18c-.5 0-.99-.12-1.37-.33l-39.494-22.812c-.75-.44-1.37-1.51-1.37-2.38v-21.06c0-10.52 6.93-23.04 15.47-27.98 4.05-2.34 7.73-2.53 10.49-.98l.01-.02 42.054 24.302z"/><path style="opacity:.1" d="m41.896 266.153 39.494 22.812c.38.21.87.33 1.37.33v-22.18c0-2.02.264-4.113.74-6.214l-42.243-24.389c-.472 2.096-.73 4.185-.73 6.201v21.06c-.001.87.619 1.94 1.369 2.38z"/><path style="fill:#27debf" d="M85.211 255.435c-1.55 3.86-2.45 7.9-2.45 11.68v22.18c-.17 0-.34-.02-.5-.05-.01-1.28-.02-8.4-.02-22.13 0-16.32 12.55-26.69 16-27.97-4.45 2.56-8.46 7.19-11.27 12.51a39.18 39.18 0 0 0-1.76 3.78z"/><path style="opacity:.4" d="M85.211 255.435c-1.55 3.86-2.45 7.9-2.45 11.68v22.18c-.17 0-.34-.02-.5-.05-.01-1.28-.02-8.4-.02-22.13 0-16.32 12.55-26.69 16-27.97-4.45 2.56-8.46 7.19-11.27 12.51a39.18 39.18 0 0 0-1.76 3.78z"/><path style="fill:#27debf" d="M84.763 286.767c-.228.132-.412.025-.412-.238v-19.413c0-3.384.781-7.139 2.254-10.878a37.061 37.061 0 0 1 1.961-4.209c2.736-5.06 6.478-9.214 10.468-11.509 2.05-1.187 3.993-1.787 5.771-1.787 1.124 0 2.143.251 3.038.727 2.698 1.438 4.275 4.923 4.275 9.792v21.244a.912.912 0 0 1-.412.714l.625 1.473c.048-.029.095-.057.14-.089.206-.143.4-.333.568-.549.003 0 .003-.003.003-.006.4-.505.663-1.162.663-1.736v-21.051c0-5.634-1.99-9.554-5.152-11.214-2.736-1.435-6.348-1.184-10.313 1.108-4.447 2.558-8.456 7.186-11.274 12.509a39.052 39.052 0 0 0-1.752 3.78c-1.549 3.86-2.45 7.897-2.45 11.681v22.174c.079 0 .159-.003.238-.01.416-.029.819-.136 1.136-.321l.625-2.192z"/><path style="opacity:.1" d="M84.763 286.767c-.228.132-.412.025-.412-.238v-19.413c0-3.384.781-7.139 2.254-10.878a37.061 37.061 0 0 1 1.961-4.209c2.736-5.06 6.478-9.214 10.468-11.509 2.05-1.187 3.993-1.787 5.771-1.787 1.124 0 2.143.251 3.038.727 2.698 1.438 4.275 4.923 4.275 9.792v21.244a.912.912 0 0 1-.412.714l.625 1.473c.048-.029.095-.057.14-.089.206-.143.4-.333.568-.549.003 0 .003-.003.003-.006.4-.505.663-1.162.663-1.736v-21.051c0-5.634-1.99-9.554-5.152-11.214-2.736-1.435-6.348-1.184-10.313 1.108-4.447 2.558-8.456 7.186-11.274 12.509a39.052 39.052 0 0 0-1.752 3.78c-1.549 3.86-2.45 7.897-2.45 11.681v22.174c.079 0 .159-.003.238-.01.416-.029.819-.136 1.136-.321l.625-2.192z"/><path style="fill:#27debf" d="M178.94 229.877c0-1.657 1.163-3.672 2.598-4.5l128.174-73.996c1.435-.828 3.761-.829 5.196 0l2.928 1.691c1.435.828 2.598 2.843 2.598 4.5V259.45c0 1.65-1.169 3.675-2.598 4.5l-128.174 73.995c-1.429.825-3.767.825-5.196 0l-2.928-1.69c-1.429-.825-2.598-2.85-2.598-4.5V229.877z"/><g style="opacity:.7"><path style="fill:#fff" d="M178.94 229.877c0-1.657 1.163-3.672 2.598-4.5l128.174-73.996c1.435-.828 3.761-.829 5.196 0l2.928 1.691c1.435.828 2.598 2.843 2.598 4.5V259.45c0 1.65-1.169 3.675-2.598 4.5l-128.174 73.995c-1.429.825-3.767.825-5.196 0l-2.928-1.69c-1.429-.825-2.598-2.85-2.598-4.5V229.877z"/></g><path style="fill:#27debf" d="m179.698 227.318 7.374 4.253 132.599-76.559c-.467-.811-1.118-1.524-1.831-1.942l-2.938-1.684c-1.426-.836-3.761-.836-5.187 0l-128.174 73.99c-.725.418-1.376 1.13-1.843 1.942z"/><path style="opacity:.8;fill:#fff" d="m179.698 227.318 7.374 4.253 132.599-76.559c-.467-.811-1.118-1.524-1.831-1.942l-2.938-1.684c-1.426-.836-3.761-.836-5.187 0l-128.174 73.99c-.725.418-1.376 1.13-1.843 1.942z"/><path style="opacity:.1;fill:#27debf" d="M178.936 229.874v101.877c0 1.659 1.168 3.675 2.606 4.498l2.925 1.696c.221.123.455.234.713.32.332.111.688.197 1.069.246a6.399 6.399 0 0 0 2.562-.2c.111-.037.226-.072.316-.111-.479.172-.911.126-1.255-.047-.492-.258-.799-.848-.799-1.708V234.569c0-1.069.541-1.881 1.352-2.212l-1.352-.786-7.374-4.253c-.468.811-.763 1.733-.763 2.556z"/><path style="opacity:.05" d="M178.936 229.874v101.877c0 1.659 1.168 3.675 2.606 4.498l2.925 1.696c.221.123.455.234.713.32.332.111.688.197 1.069.246a6.399 6.399 0 0 0 2.562-.2c.111-.037.226-.072.316-.111-.479.172-.911.126-1.255-.047-.492-.258-.799-.848-.799-1.708V234.569c0-1.069.541-1.881 1.352-2.212l-1.352-.786-7.374-4.253c-.468.811-.763 1.733-.763 2.556z"/><path style="opacity:.2;fill:#27debf" d="m187.072 231.57 61.552 22.996a10 10 0 0 0 11.873-3.908l9.884-15.143 49.29-80.503-47.32 81.072 48.082 23.411c-.012.836-.32 1.77-.811 2.593l-47.418-25.768-11.486 18.382c-2.642 4.216-7.977 5.863-12.524 3.847l-8.178-3.61-52.144 83.216c-.492-.258-.799-.848-.799-1.708v-1.696l52.688-79.924-52.689-23.257z"/><path style="opacity:.05" d="m187.072 231.57 61.552 22.996a10 10 0 0 0 11.873-3.908l9.884-15.143 49.29-80.503-47.32 81.072 48.082 23.411c-.012.836-.32 1.77-.811 2.593l-47.418-25.768-11.486 18.382c-2.642 4.216-7.977 5.863-12.524 3.847l-8.178-3.61-52.144 83.216c-.492-.258-.799-.848-.799-1.708v-1.696l52.688-79.924-52.689-23.257z"/><path style="fill:#27debf" d="M211.436 248.657c0-1.657 1.163-3.672 2.598-4.5l128.174-73.996c1.435-.828 3.761-.828 5.196 0l2.928 1.691c1.435.828 2.598 2.843 2.598 4.5v101.879c0 1.65-1.169 3.675-2.598 4.5l-128.174 73.995c-1.429.825-3.767.825-5.196 0l-2.928-1.69c-1.429-.825-2.598-2.85-2.598-4.5V248.657z"/><g style="opacity:.5"><path style="fill:#fff" d="M211.436 248.657c0-1.657 1.163-3.672 2.598-4.5l128.174-73.996c1.435-.828 3.761-.828 5.196 0l2.928 1.691c1.435.828 2.598 2.843 2.598 4.5v101.879c0 1.65-1.169 3.675-2.598 4.5l-128.174 73.995c-1.429.825-3.767.825-5.196 0l-2.928-1.69c-1.429-.825-2.598-2.85-2.598-4.5V248.657z"/></g><path style="fill:#27debf" d="m212.194 246.098 7.374 4.253 132.599-76.559c-.467-.811-1.118-1.524-1.831-1.942l-2.938-1.684c-1.426-.836-3.761-.836-5.187 0l-128.174 73.99c-.724.418-1.376 1.131-1.843 1.942z"/><path style="opacity:.6;fill:#fff" d="m212.194 246.098 7.374 4.253 132.599-76.559c-.467-.811-1.118-1.524-1.831-1.942l-2.938-1.684c-1.426-.836-3.761-.836-5.187 0l-128.174 73.99c-.724.418-1.376 1.131-1.843 1.942z"/><path style="opacity:.1" d="M211.432 248.655v101.877c0 1.659 1.168 3.675 2.606 4.498l2.925 1.696c.221.123.455.234.713.32.332.111.688.197 1.069.246a6.399 6.399 0 0 0 2.053-.074c.172-.037.344-.086.504-.135.111-.037.209-.074.307-.123-.479.172-.897.147-1.241-.025-.492-.258-.799-.848-.799-1.708V253.35c0-1.069.541-1.88 1.352-2.212l-1.352-.786-7.374-4.253c-.468.811-.763 1.732-.763 2.556z"/><path style="opacity:.4;fill:#27debf" d="m219.569 250.351 61.552 22.996a10 10 0 0 0 11.873-3.908l9.884-15.143 49.29-80.503-47.32 81.072 48.082 23.411c-.012.836-.32 1.77-.811 2.593L304.7 255.1l-11.486 18.382c-2.642 4.216-7.977 5.863-12.524 3.847l-8.178-3.61-52.144 83.216c-.492-.258-.799-.848-.799-1.708v-1.696l52.688-79.924-52.688-23.256z"/><path style="opacity:.05" d="m219.569 250.351 61.552 22.996a10 10 0 0 0 11.873-3.908l9.884-15.143 49.29-80.503-47.32 81.072 48.082 23.411c-.012.836-.32 1.77-.811 2.593L304.7 255.1l-11.486 18.382c-2.642 4.216-7.977 5.863-12.524 3.847l-8.178-3.61-52.144 83.216c-.492-.258-.799-.848-.799-1.708v-1.696l52.688-79.924-52.688-23.256z"/><path style="fill:#27debf" d="m244.202 268.255 133.381-77.008 5.337 3.081c1.38.797 2.509 2.752 2.509 4.346v98.393c0 1.593-1.129 3.549-2.509 4.346l-128.363 74.11c-1.38.797-3.638.797-5.018 0l-2.828-1.633c-1.38-.797-2.509-2.752-2.509-4.346V268.255z"/><path style="opacity:.2" d="m244.202 268.255 133.381-77.008 5.337 3.081c1.38.797 2.509 2.752 2.509 4.346v98.393c0 1.593-1.129 3.549-2.509 4.346l-128.363 74.11c-1.38.797-3.638.797-5.018 0l-2.828-1.633c-1.38-.797-2.509-2.752-2.509-4.346V268.255z"/><path style="fill:#27debf" d="m376.847 182.598.546-.297-2.073-1.204v.002a3.547 3.547 0 0 0-.55-.263l-58.701-21.752c-1.554-.576-3.572.066-4.508 1.433l-65.665 95.894c-.936 1.367-1.695 3.818-1.695 5.475v6.369l2.035 1.182 131.346-78.189v-6.37c.001-.776-.282-1.58-.735-2.28z"/><path style="opacity:.1" d="M314.279 160.982c-.26.2-.49.45-.68.72l-65.67 95.89c-.48.71-.92 1.71-1.22 2.74l-2.04-1.18c.15-.5.33-.99.53-1.45.01-.02.01-.03.02-.04.09-.2.18-.39.28-.58.02-.03.03-.06.05-.09.11-.21.23-.41.35-.58l65.66-95.89c.1-.15.21-.27.33-.4.11-.11.23-.22.35-.32l2.04 1.18z"/><path style="opacity:.35;fill:#fff" d="M377.369 182.292c-.18-.11-.37-.2-.56-.27l-58.71-21.76c-1.24-.46-2.78-.14-3.82.72l-2.04-1.18c1.05-.85 2.58-1.18 3.83-.72l58.7 21.75c.19.07.37.16.55.27l2.05 1.19z"/><path style="fill:#27debf" d="M245.546 256.988zM311.891 160.121zM244.666 259.154zM245.217 257.658z"/><path style="opacity:.2" d="m245.199 257.699.017-.041a.711.711 0 0 1-.017.041zM244.666 259.154zM312.243 159.802h-.001.001zM245.498 257.084c.016-.031.031-.066.048-.096-.017.03-.032.065-.048.096zM311.561 160.517z"/><path style="fill:#27debf" d="m313.596 161.699-65.664 95.894c-.936 1.367-1.695 3.818-1.695 5.475v6.368l133.383-77.013-.001-6.363c0-1.657-1.259-3.467-2.813-4.042l-58.701-21.752c-1.555-.576-3.573.066-4.509 1.433z"/><path style="opacity:.05" d="M379.618 186.06c0-.762-.274-1.551-.713-2.242l-132.196 76.513-.013.021c-.283.95-.46 1.923-.46 2.715v6.368l133.383-77.013-.001-6.362z"/><path style="fill:#f0f0f0" d="M373.921 159.031c0-.685-.239-1.168-.626-1.397-.392-.232-3.679-2.124-4.071-2.35-.392-.226-.933-.193-1.53.152l-109.405 63.162c-1.196.69-2.165 2.369-2.165 3.75l.001 131.023c0 .69.242 1.175.633 1.401l4.063 2.346c.392.226.933.194 1.531-.152l109.405-63.162c1.196-.69 2.165-2.369 2.165-3.75l-.001-131.023z"/><path style="fill:#fafafa" d="m262.352 356.966 109.405-63.162c1.196-.69 2.165-2.369 2.165-3.75l-.001-131.023c0-1.381-.969-1.94-2.165-1.25l-109.405 63.162c-1.196.69-2.165 2.369-2.165 3.75l.001 131.023c0 1.381.97 1.941 2.165 1.25z"/><path style="fill:#27debf" d="M332.466 232.964a19.175 19.175 0 0 1-.818 4.361c-.431 1.358-.956 2.577-1.576 3.659-.62 1.082-1.309 2.014-2.064 2.792-.756.78-1.518 1.364-2.285 1.757-1.37.701-2.421.953-3.151.759-.731-.194-1.275-.534-1.632-1.019a50.795 50.795 0 0 1-.747 1.558 9.708 9.708 0 0 1-.988 1.565 9.945 9.945 0 0 1-1.469 1.517c-.583.495-1.301.96-2.151 1.394-1.014.519-1.921.698-2.72.537-.798-.16-1.472-.629-2.017-1.409-.547-.78-.947-1.839-1.202-3.18-.256-1.339-.346-2.931-.272-4.773.074-1.841.29-3.59.652-5.246.362-1.655.837-3.165 1.429-4.524.591-1.362 1.303-2.55 2.136-3.564.832-1.014 1.756-1.781 2.771-2.301 1.123-.574 1.948-.751 2.477-.532.527.222.956.621 1.282 1.198l.022-.541c.018-.44.142-.875.373-1.308.233-.433.5-.727.801-.881l2.138-1.093c.3-.154.556-.128.763.081.205.208.3.533.282.972l-.511 12.791c-.039.961.145 1.595.549 1.897.404.303.88.315 1.428.035.548-.281 1.032-.793 1.451-1.537.418-.743.681-1.771.787-3.08.098-1.109.17-2.254.217-3.436.047-1.181.05-2.27.01-3.27-.077-2.117-.342-3.884-.795-5.299-.454-1.416-1.119-2.439-1.992-3.07-.875-.632-1.994-.873-3.354-.727-1.363.148-2.989.704-4.88 1.672a16.742 16.742 0 0 0-4.315 3.179 21.944 21.944 0 0 0-3.359 4.423 27.12 27.12 0 0 0-2.348 5.348 31.817 31.817 0 0 0-1.282 5.893 26.94 26.94 0 0 0-.185 2.124 183.172 183.172 0 0 0-.217 5.435 25.28 25.28 0 0 0 .017 2.108c.087 1.838.373 3.418.857 4.738.484 1.322 1.155 2.343 2.012 3.059.858.719 1.903 1.086 3.138 1.102 1.235.016 2.647-.383 4.237-1.197a24.8 24.8 0 0 0 2.929-1.733 19.453 19.453 0 0 0 2.185-1.765 17.839 17.839 0 0 0 1.62-1.741c.451-.565.863-1.118 1.234-1.661.314-.473.562-.825.747-1.058.184-.231.426-.424.728-.579l3.042-1.557c.301-.153.562-.14.784.041.22.18.307.539.258 1.073-.013.32-.12.67-.323 1.048a76.876 76.876 0 0 1-2.057 3.582 27.27 27.27 0 0 1-2.704 3.677c-1.042 1.2-2.269 2.377-3.685 3.533-1.416 1.155-3.083 2.225-5.001 3.206-2.385 1.22-4.461 1.78-6.229 1.686-1.768-.096-3.242-.695-4.418-1.799-1.179-1.104-2.078-2.625-2.698-4.563-.621-1.936-.964-4.126-1.027-6.563-.005-.546.005-1.286.028-2.221.023-.932.056-1.91.097-2.932.041-1.021.086-1.995.137-2.923.049-.929.099-1.661.147-2.194.236-2.551.75-5.157 1.541-7.818a38.143 38.143 0 0 1 3.183-7.6 32.924 32.924 0 0 1 4.795-6.6 23.044 23.044 0 0 1 6.374-4.819c2.796-1.43 5.146-2.143 7.052-2.137 1.906.005 3.448.549 4.627 1.632 1.177 1.085 2.03 2.631 2.554 4.636.524 2.007.815 4.288.874 6.847a69.509 69.509 0 0 1-.063 3.592 81.857 81.857 0 0 1-.23 3.743zm-18.777 7.311c-.079 1.962.121 3.35.599 4.165.477.815 1.194.977 2.155.486 1.013-.518 1.796-1.438 2.346-2.758.548-1.321.864-2.981.944-4.984.079-1.961-.115-3.363-.578-4.205-.463-.841-1.203-1.001-2.216-.484-.961.491-1.721 1.419-2.285 2.786-.566 1.368-.887 3.033-.965 4.994z"/><path style="fill:#e0e0e0" d="M260.183 355.715c0 .61.19 1.06.51 1.32-.73-.41-3.57-2.06-3.93-2.26-.4-.23-.64-.71-.64-1.4v-131.03c0-.69.24-1.45.64-2.13l4.06 2.34c-.4.68-.64 1.45-.64 2.14v131.02z"/><path style="fill:#27debf" d="M382.045 298.379c-.04.07-.079.13-.139.2l-55.583-17.625c-4.365-1.939-9.476-.36-12.012 3.698l-59.421 88.316-2.197 1.269-.02.01c-.666.37-1.263.42-1.7.19l61.111-91.035c2.536-4.057 7.656-5.636 12.021-3.707l57.94 18.684z"/><path style="opacity:.4;fill:#fff" d="m308.839 293.32.14-.12-54.09 79.771-2.2 1.27-.02.01c-.66.37-1.26.41-1.7.19l55.73-82.401 2.14 1.28zM382.049 298.382c-.04.07-.08.13-.14.2l-55.59-17.631c-4.36-1.94-9.47-.36-12.01 3.7l-2.2-1.28a9.595 9.595 0 0 1 12-3.68l57.94 18.691z"/><path style="fill:#27debf" d="M385.383 198.046h-.01c-.12-.72-.5-.92-.99-.58-.19.13-.41.35-.64.66l-.28.39-54.85 83.389-8.19 11.41c-.92 1.3-2.94 2.05-4.51 1.69l-7.07-1.68-53.97-19.869c-.39-.09-.76-.1-1.1-.04-.14.03-.28.07-.41.13l2.034-1.176 51.743 18.963 6.813 2.431c1.56.37 3.58-.38 4.51-1.69l8.19-11.4 55.12-83.779c.18-.25.4-.43.62-.57l-4.77-2.75 2-1.15 3.3 1.9c1.2.701 2.21 2.271 2.46 3.721z"/><path style="opacity:.4;fill:#fff" d="m328.609 281.9-8.19 11.41c-.92 1.3-2.94 2.05-4.51 1.69l-7.07-1.68.14-.12.34-.54 4.63 1.1c1.56.37 3.58-.38 4.51-1.69l8.11-11.28 2.04 1.11z"/><path style="opacity:.1" d="m382.919 194.322-3.3-1.9-2 1.15 4.77 2.75.012.009-.008-.005c-.24.151-.451.336-.62.57L326.65 280.67l-.08.11v.01l2.04 1.11 54.85-83.389.28-.39c.23-.31.45-.53.64-.66.49-.34.87-.14.99.58h.01c-.251-1.449-1.261-3.019-2.461-3.719z"/><path style="fill:#27debf" d="m255.969 275.052-11.768-6.797.001 101.29c0 1.594 1.129 3.549 2.509 4.346l2.828 1.633c1.38.797 3.639.797 5.018 0l1.412-.815v-99.657z"/><path style="opacity:.15" d="m255.969 275.052-11.768-6.797.001 101.29c0 1.594 1.129 3.549 2.509 4.346l2.828 1.633c1.38.797 3.639.797 5.018 0l1.412-.815v-99.657z"/><path style="fill:#27debf" d="M385.433 198.676v98.39c0 .83-.3 1.74-.78 2.54-.4.66-.9 1.25-1.47 1.65l-.1.05c-.06.04-.1.08-.16.11l-128.36 74.1-.02.01c-.67.38-1.27.43-1.71.2-.39-.2-.66-.61-.75-1.2-.02-.14-.03-.29-.03-.45v-98.4c0-1.59 1.25-2.59 2.82-2.22l53.97 19.869 7.07 1.68c1.57.36 3.59-.39 4.51-1.69l8.19-11.41 54.85-83.389.28-.39c.93-1.29 1.69-1.05 1.69.55z"/><path style="fill:#27debf" d="M382.922 301.417c.058-.029.106-.068.165-.106l.096-.058c.57-.396 1.072-.985 1.468-1.642.475-.788.769-1.688.779-2.498l-56.812-15.206 38.045 28.898 16.259-9.388z"/><path style="opacity:.2" d="M382.922 301.417c.058-.029.106-.068.165-.106l.096-.058c.57-.396 1.072-.985 1.468-1.642.475-.788.769-1.688.779-2.498l-56.812-15.206 38.045 28.898 16.259-9.388z"/><path style="fill:#27debf" d="M252.051 374.072c0 .831.299 1.4.782 1.652.444.232 1.043.183 1.71-.193l.019-.01 44.193-25.513 10.092-56.685-56.795 79.115-.001 1.634z"/><path style="opacity:.15" d="m314.289 284.64-61.46 91.081c-.48-.25-.78-.82-.78-1.65l.004-1.635 60.036-89.036c0-.01.01-.02.02-.03l2.18 1.27z"/><path style="fill:#27debf" d="M384.65 299.611c-.396.657-.898 1.246-1.468 1.642l-.096.058-128.524 74.21-.019.01c-.666.377-1.265.425-1.71.193l61.466-91.098a9.658 9.658 0 0 1 12.085-3.708l58.266 18.693z"/><path style="opacity:.15" d="m244.669 259.152 2.04 1.18c-.29.96-.47 1.94-.47 2.74v6.36l-2.04-1.18v-6.37c0-.79.18-1.77.47-2.73z"/><path style="fill:#27debf" d="m255.397 272.37-2.034 1.176-2.06-1.19-5.07-2.92 1.97-1.17z"/><path style="opacity:.1" d="m255.487 272.408-7.285-4.142-1.97 1.17 5.07 2.92 2.06 1.19.021-.012c.123-.054.254-.094.385-.122.34-.06.71-.05 1.1.04l4.101 1.513 47.112 17.344.737-1.093-51.331-18.808z"/><path style="fill:#f0f0f0" d="m145.026 102.074-7.618 4.398c.038-.34.064-.678.064-1.008v-2.207c0-3.928-2.757-5.52-6.159-3.556-1.378.795-2.645 2.056-3.671 3.53-.557-4.939-4.432-6.778-9.138-4.061-5.089 2.938-9.214 10.083-9.214 15.959v3.302c0 1.522.282 2.804.78 3.825l-6.328 3.653c-1.887 1.09-3.416 3.739-3.416 5.917 0 2.179 1.529 3.062 3.416 1.972l41.284-23.835c1.887-1.089 3.416-3.739 3.416-5.917.001-2.178-1.529-3.061-3.416-1.972zM108.142 76.958l-9.379 5.415c.046-.419.079-.835.079-1.241v-2.717c0-4.835-3.394-6.795-7.582-4.377-1.696.979-3.256 2.53-4.519 4.345-.686-6.08-5.456-8.345-11.249-5C69.227 77 64.149 85.796 64.149 93.03v4.065c0 1.874.347 3.452.96 4.709l-7.79 4.497c-2.323 1.341-4.206 4.602-4.206 7.284 0 2.682 1.883 3.769 4.206 2.428l50.823-29.342c2.323-1.341 4.206-4.603 4.206-7.285 0-2.682-1.883-3.769-4.206-2.428z"/><path style="fill:#27debf" d="m404.958 164.723 35.377-22.656 15.583 5.003zM404.958 164.723l30.576-25.499-6.795-7.846z"/><path style="fill:#27debf" d="M435.534 139.224v5.918l-30.576 19.581z"/><path style="opacity:.25" d="M435.534 139.224v5.918l-30.576 19.581z"/><path style="fill:#e0e0e0" d="M440.629 138.73a.751.751 0 0 1-.509-1.301 25.867 25.867 0 0 0 2.888-3.151.751.751 0 0 1 1.188.917 27.278 27.278 0 0 1-3.058 3.336.745.745 0 0 1-.509.199zm5.628-7.468a.75.75 0 0 1-.67-1.086 25.148 25.148 0 0 0 1.983-5.463.75.75 0 0 1 1.459.346 26.59 26.59 0 0 1-2.101 5.789.747.747 0 0 1-.671.414zm2.733-10.572-.034-.001a.75.75 0 0 1-.716-.783 27.687 27.687 0 0 0-.364-5.817.75.75 0 0 1 1.478-.251 29.205 29.205 0 0 1 .383 6.135.748.748 0 0 1-.747.717zm-1.614-10.813a.75.75 0 0 1-.709-.504 31.882 31.882 0 0 0-2.423-5.328.75.75 0 0 1 1.304-.742 33.49 33.49 0 0 1 2.536 5.579.749.749 0 0 1-.708.995zm-5.252-9.608a.748.748 0 0 1-.595-.292 38.788 38.788 0 0 0-3.943-4.361.748.748 0 0 1-.025-1.06.748.748 0 0 1 1.06-.026 40.323 40.323 0 0 1 4.096 4.53.75.75 0 0 1-.593 1.209zm-7.834-7.676a.748.748 0 0 1-.451-.151 47.956 47.956 0 0 0-4.924-3.254.75.75 0 0 1 .75-1.299 49.807 49.807 0 0 1 5.078 3.356c.33.25.396.72.147 1.051a.754.754 0 0 1-.6.297zm-78.593-2.9a.75.75 0 0 1-.376-1.399 73.706 73.706 0 0 1 5.37-2.81.75.75 0 1 1 .641 1.356c-1.79.844-3.56 1.77-5.261 2.752a.738.738 0 0 1-.374.101zm69.174-2.74a.74.74 0 0 1-.325-.075 70.384 70.384 0 0 0-5.447-2.356.75.75 0 1 1 .537-1.401 72.442 72.442 0 0 1 5.563 2.406.75.75 0 0 1-.328 1.426zm-59.269-2.017a.75.75 0 0 1-.273-1.449 76.048 76.048 0 0 1 5.728-1.979.75.75 0 1 1 .432 1.437 74.316 74.316 0 0 0-5.612 1.938.746.746 0 0 1-.275.053zm49.038-1.989a.728.728 0 0 1-.219-.033 72.145 72.145 0 0 0-5.744-1.496.751.751 0 0 1 .319-1.466 73.2 73.2 0 0 1 5.863 1.527.752.752 0 0 1-.219 1.468zm-38.538-1.253a.749.749 0 0 1-.166-1.48 76.842 76.842 0 0 1 5.951-1.125.75.75 0 1 1 .221 1.483c-1.954.29-3.918.661-5.836 1.103a.764.764 0 0 1-.17.019zm27.817-1.15a.811.811 0 0 1-.109-.008 73.738 73.738 0 0 0-5.905-.621.75.75 0 1 1 .098-1.497c2.01.13 4.037.344 6.024.634a.751.751 0 0 1-.108 1.492zm-16.957-.534a.75.75 0 0 1-.06-1.498 76.566 76.566 0 0 1 6.054-.253h.001a.75.75 0 0 1 .001 1.5 74.986 74.986 0 0 0-5.996.251z"/></svg>