<svg version="1.2" xmlns="http://www.w3.org/2000/svg" width="500" height="500"><style>.a{fill:#ebebeb}.b{fill:#f0f0f0}.c{fill:#f5f5f5}.d{fill:#e6e6e6}.e{fill:#e0e0e0}.f{fill:#407bff}.g{opacity:.3}.g,.i{fill:#fff}.j{opacity:.1}.k{fill:#263238}.l{opacity:.2}.n{opacity:.5;fill:#fff}.p{fill:#b55b52}.t{opacity:.6;fill:#fff}</style><path class="a" d="M416.8 398.5h33.1v.2h-33.1zM322.5 401.2h8.7v.3h-8.7zM396.6 389.2h19.2v.3h-19.2zM52.5 390.9h43.2v.2H52.5zM104.6 390.9h6.3v.2h-6.3zM131.5 395.1h93.6v.3h-93.6zM0 382.4h500v.2H0z"/><path class="b" d="M119.3 314.8c-.8-9.7-10.7-13.3-22.4-12.3-11.6 1-20.7 6.3-19.9 16zM96.6 298.1c5.4-.5 7.1-5.1 6.6-10.5-.4-5.4-2.9-9.6-8.4-9.1-5.4.4-7.1 5-6.6 10.4.4 5.4 2.9 9.7 8.4 9.2z"/><path class="c" d="M340.1 109c.3 3-1.9 5.6-4.9 5.9-3 .2-5.7-2-5.9-5-.3-3 1.9-5.6 4.9-5.9 3-.2 5.6 2 5.9 5zM370.2 106.3c.2 3-2 5.7-5 5.9-3 .3-5.6-1.9-5.9-4.9-.2-3 2-5.6 5-5.9 3-.3 5.6 1.9 5.9 4.9zM400.2 103.7c.3 3-1.9 5.6-4.9 5.9-3 .3-5.6-2-5.9-4.9-.2-3 2-5.7 5-5.9 2.9-.3 5.6 1.9 5.8 4.9zM342.8 139.6c.2 3-2 5.7-5 5.9-2.9.3-5.6-1.9-5.8-4.9-.3-3 1.9-5.7 4.9-5.9 3-.3 5.6 1.9 5.9 4.9zM372.9 137c.2 3-2 5.6-5 5.9-3 .2-5.6-2-5.9-5-.2-3 2-5.6 5-5.8 3-.3 5.6 1.9 5.9 4.9zM402.9 134.4c.3 3-1.9 5.6-4.9 5.8-3 .3-5.6-1.9-5.9-4.9-.3-3 2-5.6 4.9-5.9 3-.2 5.7 2 5.9 5zM345.5 170.3c.2 3-2 5.6-5 5.9-3 .2-5.6-2-5.9-5-.2-3 2-5.6 5-5.9 3-.2 5.6 2 5.9 5zM375.5 167.6c.3 3-1.9 5.7-4.9 5.9-3 .3-5.6-1.9-5.9-4.9-.3-3 2-5.6 4.9-5.9 3-.3 5.7 2 5.9 4.9zM405.6 165c.3 3-1.9 5.6-4.9 5.9-3 .3-5.7-1.9-5.9-4.9-.3-3 1.9-5.7 4.9-5.9 3-.3 5.6 1.9 5.9 4.9z"/><path class="d" d="m399.1 166.8-61.8 5.4 54.8-66.6-56.1 4.9c-.7.1-1.3-.4-1.3-1.1-.1-.6.4-1.2 1.1-1.2l61.8-5.5-54.8 66.6 56.1-4.9c.7-.1 1.2.4 1.3 1.1.1.6-.4 1.2-1.1 1.3z"/><path class="b" d="M400.1 285.6c-.2-.6-.8-1-1.4-1.1-2.8-.2-5.2-1.2-7.1-3.1-2.5-2.5-3.9-6.3-4.2-10.8 0-.8-.7-1.4-1.6-1.4-.9-.1-1.6.7-1.6 1.7.3 5.2 2.1 9.7 5.1 12.7 2.4 2.4 5.4 3.8 8.9 4.1h.2c1.2.1 2-1 1.7-2.1z"/><path class="b" d="M396.9 304.8c-13.3-1.2-22.8-10.2-25.9-24.3-.2-.9.4-1.8 1.3-1.9.9-.2 1.7.4 1.8 1.2 2.8 12.7 11.3 20.8 23 21.8 13 1.1 26.8-7.4 29.3-28.8.1-.8.9-1.5 1.7-1.4.9.1 1.6.9 1.5 1.7-2.4 20.2-15.7 33.2-32.7 31.7zM371.9 266.5c-.9-.1-1.6-.9-1.5-1.8 2.4-20.2 15.7-33.1 32.7-31.7 15 1.4 25.1 12.6 26.7 29.4 0 .9-.7 1.7-1.5 1.7-.9.1-1.7-.6-1.7-1.4-1.5-15.2-10.5-25.3-23.7-26.5-13-1.1-26.8 7.4-29.3 28.8-.1.9-.9 1.5-1.7 1.5z"/><path class="b" d="M397.5 296.2q-3.7-.3-6.9-1.7c-.8-.4-1.2-1.4-.7-2.2.3-.7 1.2-1.1 2-.7q3 1.3 6.5 1.5c9.8.6 20.2-6.4 21.2-23.2.6-10.3-2.9-18.6-9.5-22.6-.7-.4-1-1.3-.6-2.1s1.4-1.1 2.2-.6c7.7 4.6 11.8 14 11.1 25.5-1 16.2-11.1 27-24.5 26.2q-.4 0-.8-.1zM383.3 286.3c-.8.5-1.9.2-2.3-.6-2.9-4.9-4.2-11.2-3.8-18 .9-15.5 10.2-26 22.8-26.2.9 0 1.7.8 1.6 1.7 0 .9-.7 1.5-1.5 1.5-9.3.2-18.7 7.3-19.7 23.2-.4 6.2.8 11.9 3.4 16.3.4.7.2 1.6-.5 2.1z"/><path class="b" d="M405.1 284.9c-.3-.7 0-1.5.7-2 4.2-2.5 6.8-7.8 6.8-14.2.1-5.1-1.4-9.5-4.2-12.2-2.1-2.2-4.8-3.2-8.1-3.2-4.9 0-8.9 2.7-11.1 7.4-.4.8-1.2 1.1-2 .9-.9-.4-1.3-1.4-.9-2.2 2.7-5.9 7.9-9.3 14-9.3 4.1 0 7.7 1.4 10.4 4.1 3.3 3.4 5.2 8.5 5.1 14.5 0 7.6-3.2 13.9-8.4 17-.8.5-1.9.1-2.3-.7z"/><path class="b" d="M393.6 273.2c-.9.4-1.9-.2-2.2-1.1l-.2-1.4c-.9-5.9 2.3-11.2 7.5-12.1 2.6-.5 5 .2 6.8 1.8.8.7.7 1.8-.1 2.4l-.1.1c-.6.4-1.4.3-2-.2q-1.6-1.4-4.1-.9c-3.9.7-5.4 4.8-4.8 8.5q0 .5.2 1c.1.8-.2 1.6-1 1.9zM398.9 279.4v-.1c-1.1 0-1.7-1.3-1.1-2.2l.1-.2c.3-.5.8-.8 1.4-.7q.7 0 1.5-.1c3.4-.6 5-3.8 5-7.1 0-.8.5-1.5 1.3-1.6 1-.2 1.9.5 1.9 1.5.1 5.2-3 9.5-7.7 10.3q-1.2.3-2.4.2z"/><path class="b" d="M399.6 273.4c-1.7-.1-3-1.3-3.4-2.9-.3-.9.5-1.9 1.5-1.8l.4.1c.5 0 1 .4 1.2.9.1.3.3.5.6.6.8 0 .9-1.1.9-1.3 0-.2.1-.8-.2-1.1-.3-.4-.4-.8-.4-1.2.1-1.5 1.9-2 2.8-.9.8.9 1.1 2.1 1 3.5-.2 2.6-2.1 4.3-4.4 4.1zM369.5 237.7c-.8-.1-1.5-.9-1.4-1.8l1.2-13.8 13.9 1.2c.8 0 1.5.8 1.4 1.7-.1.9-.8 1.5-1.7 1.5l-10.7-1-.9 10.7c-.1.9-.9 1.5-1.8 1.5zM435.5 243.4c-.9-.1-1.6-.8-1.5-1.7l.9-10.7-10.6-.9c-.9-.1-1.6-.9-1.5-1.8.1-.8.9-1.5 1.7-1.4l13.9 1.2-1.2 13.9c-.1.8-.9 1.5-1.7 1.4zM430.5 318l-13.8-1.2c-.9-.1-1.6-.9-1.5-1.8.1-.9.9-1.5 1.8-1.4l10.6.9 1-10.7c0-.9.8-1.5 1.7-1.4.9 0 1.5.8 1.5 1.7zM375.3 313.1l-13.9-1.2 1.2-13.8c.1-.9.9-1.6 1.8-1.5.9.1 1.5.9 1.4 1.7l-.9 10.7 10.7.9c.9.1 1.5.9 1.4 1.8 0 .9-.8 1.5-1.7 1.4z"/><path class="e" d="M74.7 283.1c-.5.1-1-.3-1-.9l-.8-8.5 8.5-.7c.6-.1 1.1.3 1.1.9.1.5-.3 1-.9 1l-6.6.6.6 6.6c.1.5-.3 1-.9 1zM115.3 279.6c-.6 0-1.1-.4-1.1-.9l-.6-6.6-6.5.6c-.6 0-1.1-.4-1.1-.9-.1-.5.3-1 .9-1.1l8.5-.7.8 8.5c0 .6-.4 1-.9 1.1zM119.5 316.3l-8.6.7c-.5.1-1-.3-1-.9-.1-.5.3-1 .9-1l6.5-.6-.5-6.6c-.1-.5.3-1 .9-1 .5-.1 1 .3 1 .9zM85.5 319.3l-8.5.7-.8-8.5c0-.6.4-1 .9-1.1.6 0 1 .4 1.1.9l.6 6.6 6.5-.6c.6 0 1 .4 1.1.9 0 .5-.4 1-.9 1.1z"/><path fill-rule="evenodd" class="a" d="m122.9 147.9 2.3 26.7c.4 4.2-2.7 7.9-7 8.2L81.7 186c-4.2.4-7.9-2.7-8.3-6.9l-2.3-26.7c-.4-3.9 2.4-7.4 6.1-8.1l-.6-7.7c-.9-10.5 6.9-19.8 17.4-20.8 10.5-.9 19.8 6.9 20.7 17.4l.4 4.5-4.7.4-.4-4.4c-.7-8-7.7-13.8-15.6-13.2-7.9.7-13.8 7.7-13.1 15.7l.7 7.6 32.6-2.9c4.2-.3 7.9 2.8 8.3 7zm-20.6 9.7c-.3-2.5-2.5-4.4-5-4.1-2.6.2-4.4 2.4-4.2 4.9.1 1.6 1 2.8 2.2 3.6l.8 9.1c.1 1.5 1.4 2.6 2.9 2.5 1.5-.1 2.7-1.4 2.5-2.9l-.8-9.2c1.1-1 1.7-2.3 1.6-3.9z"/><path class="b" d="m170.4 156.4-3.3-5.4c-1.7.3-3.2.3-5 0l-3.3 5.4-.6-.2c-2.1-.5-4.2-1.4-6.1-2.5l-.6-.3 1.4-5.9c.1-.4.6-.7 1.1-.6.4.1.7.6.6 1l-1.1 4.6q2.2 1.2 4.5 1.8l3.2-5.2.6.1c1.9.3 3.8.3 5.6 0l.6-.1 3.3 5.2q2.3-.6 4.4-1.8l-1.4-6 .5-.3q1.9-1.5 3.4-3.3c.3-.4.9-.5 1.3-.2s.4.8.1 1.2q-1.4 1.9-3.3 3.3l1.4 6.2-.5.3c-1.9 1.1-4 2-6.1 2.5zm-20.2-11.7q-.5-.5-.8-1l-6.2 1.5-.3-.6c-1.1-1.9-2-4-2.5-6.1l-.2-.6 5.4-3.3q-.2-1.4-.2-2.5 0-1.2.2-2.6l-5.4-3.3.2-.6c.5-2.1 1.4-4.2 2.5-6.1l.3-.5 6.2 1.4q1.5-2 3.5-3.5l-1.1-4.7c-.1-.5.2-.9.7-1 .4-.2.9.1 1 .6l1.4 5.8-.5.3c-1.5 1.1-2.9 2.5-4 4l-.3.5-6-1.4q-1.2 2.1-1.9 4.4l5.3 3.3-.1.5q-.3 1.6-.2 2.9-.1 1.3.2 2.8l.1.6-5.3 3.2q.7 2.3 1.9 4.5l6-1.5.3.5q.5.7 1.1 1.3c.3.4.3.9-.1 1.2-.4.4-.9.4-1.2 0zm35.7.5-2.3-.6c-.4-.1-.7-.6-.6-1 .1-.5.6-.8 1-.7l1 .3q1.2-2.2 1.9-4.5l-5.3-3.2.1-.6q.3-1.5.3-2.8 0-1.3-.3-2.9l-.1-.5 5.3-3.3q-.7-2.3-1.9-4.4l-6 1.4-.3-.5c-1.1-1.5-2.5-2.9-4-4l-.5-.3 1.5-6q-2.2-1.2-4.5-1.9L168 115l-.6-.1c-1.9-.3-3.8-.3-5.7 0l-.5.1-3.3-5.3-.6.2c-.4.2-.9-.1-1.1-.5-.1-.5.1-1 .6-1.1q.6-.3 1.3-.4l.6-.2 3.3 5.4c1.8-.3 3.3-.3 5.1 0l3.3-5.4.6.2c2.1.5 4.2 1.4 6.1 2.5l.6.3-1.5 6.2q2 1.5 3.6 3.5l6.1-1.4.3.5c1.1 1.9 2 4 2.6 6.1l.1.6-5.4 3.3q.2 1.4.2 2.6 0 1.1-.2 2.5l5.4 3.3-.1.6c-.6 2.1-1.5 4.2-2.6 6.1zm-21.6-4.5c-4.4-.2-8.2-3.9-8.3-8.4-.1-4.5 3.3-8.2 7.6-8.7.5-.1 1 .3 1 .9 0 .4-.3.8-.8.8-3.8.5-6.7 4.1-5.9 8.2.5 2.6 2.7 4.8 5.3 5.3 4.4.8 8.2-2.5 8.2-6.7 0-1.4-.4-2.8-1.2-3.9-.3-.4-.2-.9.1-1.2.4-.3 1-.2 1.3.2 1 1.4 1.6 3.1 1.6 4.9 0 4.8-4 8.7-8.9 8.6z"/><path class="d" d="m108.3 229.6-2.1-3.5c-1.2.2-2.1.2-3.3 0l-2.1 3.5-.4-.1q-2.1-.6-3.9-1.7l-.4-.2.9-3.7c.1-.3.4-.5.7-.5.3.1.5.4.4.7l-.7 3q1.4.7 2.9 1.2l2.1-3.4h.3q1.9.3 3.7 0h.4l2 3.4q1.5-.5 2.9-1.2l-.9-3.9.3-.2q1.3-.9 2.3-2.2c.1-.2.5-.3.7-.1.3.2.4.6.2.8q-1 1.2-2.2 2.2l.9 3.9-.3.2q-1.9 1.1-4 1.7zm-13-7.6-.6-.6-3.9.9-.2-.3q-1.1-1.9-1.7-4l-.1-.4 3.5-2.1q-.1-.9-.1-1.7 0-.7.1-1.6l-3.5-2.1.1-.4q.6-2.1 1.7-4l.2-.3 3.9.9q1-1.3 2.3-2.3l-.7-3c0-.3.1-.6.4-.7.4 0 .7.2.7.5l.9 3.7-.3.2q-1.5 1.1-2.6 2.6l-.2.3-3.9-.9q-.7 1.4-1.2 2.9l3.4 2v.4q-.2 1-.2 1.8 0 .9.2 1.9v.3l-3.4 2.1q.5 1.5 1.2 2.9l3.9-.9.2.3q.4.4.7.8c.2.3.2.6 0 .8-.3.3-.6.2-.8 0zm23 .3-1.4-.3c-.3-.1-.5-.4-.4-.7 0-.3.3-.5.7-.4l.6.1q.7-1.4 1.2-2.9l-3.4-2.1v-.3q.2-1 .2-1.9 0-.8-.2-1.8v-.4l3.4-2q-.5-1.5-1.2-2.9l-3.9.9-.2-.3q-1.1-1.5-2.6-2.6l-.3-.2.9-3.9q-1.4-.7-2.9-1.2l-2 3.4h-.4q-1.8-.3-3.7 0h-.3l-2.1-3.4q-.2.1-.4.1c-.3.1-.6 0-.7-.3-.1-.3 0-.6.3-.7q.5-.2.9-.3l.4-.1 2.1 3.5c1.2-.2 2.1-.2 3.3 0l2.1-3.5.4.1q2.1.6 4 1.6l.3.3-.9 3.9q1.3 1 2.3 2.3l3.9-.9.3.3q1 1.9 1.6 4l.1.4-3.5 2.1q.1.9.1 1.6 0 .8-.1 1.7l3.5 2.1-.1.4q-.6 2.1-1.6 3.9zm-14-2.9c-2.9-.1-5.3-2.5-5.4-5.4 0-2.9 2.1-5.3 4.9-5.6.4-.1.7.2.7.5s-.2.6-.5.6c-2.5.3-4.4 2.6-3.8 5.3.3 1.7 1.7 3.1 3.4 3.4 2.8.5 5.3-1.6 5.3-4.3 0-.9-.3-1.8-.8-2.5-.2-.3-.1-.6.1-.8.2-.2.6-.2.8.1.7.9 1 2 1 3.2 0 3.1-2.6 5.6-5.7 5.5z"/><path class="c" d="M250 427c-107.2 0-193.9-5-193.9-11.3 0-6.3 86.7-11.3 193.9-11.3s193.9 5 193.9 11.3c0 6.3-86.7 11.3-193.9 11.3z"/><path class="f" d="M363.4 145.8h-32.5l-23 263.3h32.5c9.3 0 17.5-7.6 18.3-16.8l20.1-229.7c.8-9.2-6.1-16.8-15.3-16.8z"/><path class="f" d="M356.8 145.8H246.6c-9.3 0-17.4 7.6-18.3 16.8l-20 229.7c-.9 9.2 6 16.8 15.3 16.8h110.2c9.2 0 17.4-7.6 18.2-16.8l20.1-229.7c.8-9.2-6-16.8-15.3-16.8z"/><path class="g" d="M356.8 145.8H246.6c-9.3 0-17.4 7.6-18.3 16.8l-20 229.7c-.9 9.2 6 16.8 15.3 16.8h110.2c9.2 0 17.4-7.6 18.2-16.8l20.1-229.7c.8-9.2-6-16.8-15.3-16.8z"/><path d="M356.3 151.2h-29c-1.7 0-3.3 1.1-4 2.8-2.3 6-8.3 10.2-14.6 10.2h-17.2c-6.3 0-11.5-4.2-12.8-10.2-.4-1.7-1.8-2.8-3.5-2.8h-29.1c-6.3 0-11.8 5.1-12.4 11.4l-20.1 229.7c-.5 6.3 4.1 11.4 10.4 11.4h110.2c6.3 0 11.9-5.1 12.5-11.4l20-229.7c.6-6.3-4.1-11.4-10.4-11.4z" style="opacity:.4;fill:#fff"/><path class="i" d="M328.9 276h-77.1c-2.3 0-4-1.9-3.8-4.2l.4-4.4c.2-2.3 2.2-4.1 4.5-4.1H330c2.3 0 4 1.8 3.8 4.1l-.4 4.4c-.2 2.3-2.2 4.2-4.5 4.2zM327.2 295h-77.1c-2.3 0-4-1.9-3.8-4.1l.4-4.5c.2-2.2 2.2-4.1 4.5-4.1h77.1c2.3 0 4 1.9 3.8 4.1l-.4 4.5c-.2 2.2-2.2 4.1-4.5 4.1z"/><path class="j" d="M305.4 155.5c-.2 2.5-2.4 4.6-4.9 4.6-2.6 0-4.5-2.1-4.2-4.6.2-2.5 2.4-4.6 5-4.6 2.5 0 4.4 2.1 4.2 4.6z"/><path class="j" d="M303.4 155.5c-.2 1.4-1.4 2.5-2.8 2.5-1.3 0-2.4-1.1-2.2-2.5.1-1.4 1.3-2.5 2.7-2.5 1.4 0 2.4 1.1 2.3 2.5z"/><g style="opacity:.8"><path class="i" d="M342.8 163.2c-.8 0-1.3-.6-1.3-1.4l.3-2.4c0-.8.7-1.4 1.4-1.4.8 0 1.3.6 1.2 1.4l-.2 2.4c0 .8-.7 1.4-1.4 1.4zM353.5 163.2c-.7 0-1.3-.6-1.2-1.4l.5-5.7c.1-.8.7-1.4 1.5-1.4.7 0 1.3.6 1.2 1.4l-.5 5.7c-.1.8-.7 1.4-1.5 1.4zM348.1 163.2c-.7 0-1.2-.6-1.2-1.4l.4-4.1c0-.7.7-1.3 1.4-1.3.8 0 1.3.6 1.3 1.3l-.4 4.1c-.1.8-.7 1.4-1.5 1.4z"/></g><g style="opacity:.8"><path class="i" d="M250.6 163.2h-6.7c-.4 0-.8-.4-.7-.8l.3-3.6c0-.4.4-.8.8-.8h6.8c.4 0 .7.4.7.8l-.3 3.6c-.1.4-.4.8-.9.8zM253.8 162.2c-.5 0-.8-.4-.7-.8l.1-1.6c.1-.5.4-.8.8-.8.5 0 .8.3.7.8l-.1 1.6c0 .4-.4.8-.8.8z"/></g><path class="i" d="M316.2 247c-13.5 12.8-33.9 13.3-45.7.9-11.9-12.3-10.5-32.7 2.9-45.6 13.5-12.9 34-13.3 45.8-1 11.8 12.3 10.5 32.8-3 45.7z"/><path class="f" d="M294.9 223.4c-8.5 0-15.6 3.2-16.2 10.2l-.7 7.8h30.7l.7-7.8c.6-7-6-10.2-14.5-10.2zM295.2 220.2c3.9 0 5.8-3.2 6.1-7.2.3-3.9-.9-7.1-4.9-7.1-3.9 0-5.7 3.2-6 7.1-.4 4 .9 7.2 4.8 7.2zM325.4 269.4c-2.1 0-3.9.8-4.1 2.5l-.1 1.9h7.6l.1-1.9c.2-1.7-1.4-2.5-3.5-2.5zM325.4 268.6c1 0 1.5-.8 1.5-1.8.1-.9-.2-1.7-1.2-1.7-.9 0-1.4.8-1.5 1.7-.1 1 .3 1.8 1.2 1.8zM302 314h-30c-3.5 0-6.1-2.8-5.8-6.3.3-3.5 3.4-6.4 6.9-6.4h30c3.5 0 6.1 2.9 5.8 6.4-.3 3.5-3.4 6.3-6.9 6.3zM298.4 384.8h-32.1c-3.7 0-6.5-3-6.2-6.7l2.1-23.4c.3-3.7 3.6-6.7 7.3-6.7h32.1c3.7 0 6.4 3 6.1 6.7l-2 23.4c-.4 3.7-3.6 6.7-7.3 6.7z"/><path class="i" d="M288.5 360.6c.2-2.2-1.5-4-3.7-4s-4.2 1.8-4.4 4c-.1 1.3.4 2.5 1.4 3.2l-.8 8.1c-.1 1.3.9 2.4 2.2 2.4 1.4 0 2.5-1.1 2.6-2.4l.7-8.1c1.1-.7 1.9-1.9 2-3.2z" style="opacity:.6"/><path class="f" d="M301.9 352.9h-4.2l1.1-11.6c.6-7-4.6-12.7-11.6-12.7-6.9 0-13.1 5.7-13.7 12.7l-1 11.6h-4.2l1.1-11.6c.8-9.3 8.9-16.8 18.2-16.8 9.2 0 16.1 7.5 15.3 16.8z"/><path fill-rule="evenodd" class="f" d="m326.6 288-.2 2.9c-.1.5-.5.8-.9.8h-4.2c-.4 0-.7-.3-.7-.8l.3-2.9c0-.5.4-.9.8-.9l.1-1.1c.1-1.1 1.1-2 2.3-2 1.1 0 2 .9 1.9 2l-.1 1.1c.4 0 .8.4.7.9zm-4.2-2-.1 1.1h3.1l.1-1.1c0-.8-.6-1.5-1.5-1.5-.8 0-1.6.7-1.6 1.5z"/><path class="k" d="m263.8 288.3-1.4-.3c-.2 0-.2-.2-.2-.4l.6-1.4c.1-.3-.2-.5-.5-.3l-1 1.2c-.2.1-.4.1-.5 0l-.9-1.2c-.2-.2-.6 0-.5.3l.4 1.4c0 .2-.1.4-.3.4l-1.5.3c-.3.1-.3.5 0 .6l1.4.3c.2 0 .3.2.2.4l-.6 1.4c-.1.3.2.5.5.3l1-1.1c.2-.2.4-.2.5 0l.9 1.1c.2.2.6 0 .5-.3l-.3-1.4c-.1-.2 0-.4.2-.4l1.5-.3c.3-.1.4-.5 0-.6zM273.3 288.3l-1.4-.3c-.2 0-.3-.2-.2-.4l.6-1.4c.1-.3-.3-.5-.5-.3l-1.1 1.2c-.1.1-.3.1-.4 0l-.9-1.2c-.2-.2-.6 0-.5.3l.3 1.4c.1.2-.1.4-.2.4l-1.5.3c-.3.1-.4.5-.1.6l1.5.3c.1 0 .2.2.1.4l-.6 1.4c-.1.3.3.5.5.3l1.1-1.1c.1-.2.3-.2.4 0l.9 1.1c.2.2.6 0 .6-.3l-.4-1.4c0-.2.1-.4.3-.4l1.5-.3c.3-.1.3-.5 0-.6zM282.8 288.3l-1.5-.3c-.1 0-.2-.2-.2-.4l.6-1.4c.2-.3-.2-.5-.4-.3l-1.1 1.2c-.1.1-.3.1-.5 0l-.8-1.2c-.2-.2-.6 0-.6.3l.4 1.4c0 .2-.1.4-.3.4l-1.5.3c-.3.1-.3.5 0 .6l1.4.3c.2 0 .3.2.2.4l-.6 1.4c-.1.3.3.5.5.3l1.1-1.1c.1-.2.3-.2.4 0l.9 1.1c.2.2.6 0 .5-.3l-.3-1.4c-.1-.2.1-.4.2-.4l1.5-.3c.3-.1.4-.5.1-.6zM292.2 288.3l-1.4-.3c-.2 0-.3-.2-.2-.4l.6-1.4c.1-.3-.2-.5-.5-.3l-1 1.2c-.2.1-.4.1-.5 0l-.9-1.2c-.2-.2-.6 0-.5.3l.3 1.4c.1.2 0 .4-.2.4l-1.5.3c-.3.1-.4.5 0 .6l1.4.3c.2 0 .2.2.2.4l-.6 1.4c-.2.3.2.5.5.3l1-1.1c.2-.2.4-.2.5 0l.9 1.1c.2.2.6 0 .5-.3l-.4-1.4c0-.2.1-.4.3-.4l1.5-.3c.3-.1.3-.5 0-.6zM301.7 288.3l-1.4-.3c-.2 0-.3-.2-.2-.4l.6-1.4c.1-.3-.3-.5-.5-.3l-1.1 1.2c-.1.1-.3.1-.4 0l-.9-1.2c-.2-.2-.6 0-.5.3l.3 1.4c0 .2-.1.4-.2.4l-1.5.3c-.4.1-.4.5-.1.6l1.5.3c.1 0 .2.2.1.4l-.6 1.4c-.1.3.3.5.5.3l1.1-1.1c.1-.2.3-.2.4 0l.9 1.1c.2.2.6 0 .6-.3l-.4-1.4c0-.2.1-.4.3-.4l1.4-.3c.4-.1.4-.5.1-.6zM311.2 288.3l-1.5-.3c-.1 0-.2-.2-.2-.4l.6-1.4c.2-.3-.2-.5-.4-.3l-1.1 1.2c-.2.1-.4.1-.5 0l-.9-1.2c-.1-.2-.6 0-.5.3l.4 1.4c0 .2-.1.4-.3.4l-1.5.3c-.3.1-.3.5 0 .6l1.4.3c.2 0 .3.2.2.4l-.6 1.4c-.1.3.2.5.5.3l1.1-1.1c.1-.2.3-.2.4 0l.9 1.1c.2.2.6 0 .5-.3l-.3-1.4c-.1-.2 0-.4.2-.4l1.5-.3c.3-.1.4-.5.1-.6zM288.4 267.6h-17.8c-1.1 0-2.1.9-2.2 2-.1 1.1.7 2 1.8 2H288c1.1 0 2.1-.9 2.2-2 .1-1.1-.7-2-1.8-2zM306.4 267.6h-10.3c-1.1 0-2.1.9-2.2 2-.1 1.1.7 2 1.8 2H306c1.1 0 2.1-.9 2.2-2 .1-1.1-.7-2-1.8-2zM320 358.3c-6.7 2.6-12.6 6.5-16.6 11-2.3-2-5.7-3.4-9.7-4.1h-.5l-.2 2.3.3.1c3.9 1.5 7.2 4.2 9.3 7.7l.3.6.4-.6c4.1-6.6 10.1-12.2 16.9-15.6l.3-.1.1-1.6z"/><path class="l" d="M230.6 161.4c-1.2 2.2-2 4.6-2.3 7.2l-14.8 170.2h46l9.3-35.5-3.1-35.4 9.3-35.5-3-35.5 9.2-35.5h-50.6z"/><path class="f" d="m268 186.9 9.2-35.5H160.7l-9.3 35.5 3.1 35.5-9.3 35.5 3.1 35.4-9.3 35.5h116.5l9.3-35.5-3.1-35.4 9.3-35.5z"/><path d="m268 186.9 9.2-35.5H160.7l-9.3 35.5 3.1 35.5-9.3 35.5 3.1 35.4-9.3 35.5h116.5l9.3-35.5-3.1-35.4 9.3-35.5z" style="opacity:.7;fill:#fff"/><path class="n" d="M267.9 186.9H151.4l9.3-35.5h116.5zM261.7 257.9H145.2l9.3-35.5H271zM255.5 328.8H139l9.3-35.5h116.5z"/><path class="l" d="M252.4 201.7c-1 .3-2.3.5-3.7.5-2.1 0-3.9-.4-4.9-1q-.4-.3-.9-.3t-.9.3h-.1q-.5.3-1.4.6c-.9.2-2.1.4-3.4.4h-1c-1-.1-1.9-.3-2.7-.5q-.2-.1-.4-.1c-.9 0-1.7.7-1.7 1.6v1.1H186c-3.5 0-6.3 2.9-6.3 6.4v6.4c0 3.5 2.8 6.3 6.3 6.3h51.9q.8.7 1.7 1.4 1.1.8 2.3 1.7c.6.4 1.4.4 1.9 0 6.5-4.7 10.7-8 10.7-16.9v-6.4c0-1.1-1.1-1.8-2.1-1.5z"/><path class="f" d="M236.5 219.9H185c-3.5 0-6.3-2.9-6.3-6.4v-6.4c0-3.5 2.8-6.3 6.3-6.3h51.5c3.6 0 6.4 2.8 6.4 6.3v6.4c0 3.5-2.8 6.4-6.4 6.4z"/><path class="f" d="M247.7 198.7c-2.1 0-3.9-.4-4.9-1-.6-.4-1.2-.4-1.8 0-1 .6-2.8 1-4.9 1-1.4 0-2.7-.2-3.7-.5-1-.4-2.1.4-2.1 1.5v6.4c0 8.9 4.2 12.2 10.6 16.9.6.4 1.4.4 1.9 0 6.5-4.7 10.7-8 10.7-16.9v-6.4c0-1.1-1.1-1.9-2.1-1.5-1 .3-2.3.5-3.7.5z"/><path class="g" d="M247.7 198.7c-2.1 0-3.9-.4-4.9-1-.6-.4-1.2-.4-1.8 0-1 .6-2.8 1-4.9 1-1.4 0-2.7-.2-3.7-.5-1-.4-2.1.4-2.1 1.5v6.4c0 8.9 4.2 12.2 10.6 16.9.6.4 1.4.4 1.9 0 6.5-4.7 10.7-8 10.7-16.9v-6.4c0-1.1-1.1-1.9-2.1-1.5-1 .3-2.3.5-3.7.5z"/><path d="M241 197.7c-1 .6-2.8 1-4.9 1-1.4 0-2.7-.2-3.7-.5-1-.4-2.1.4-2.1 1.5v6.4c0 8.9 4.2 12.2 10.6 16.9q.5.3 1 .3v-25.9q-.5 0-.9.3z" style="opacity:.2;fill:#fff"/><path class="k" d="M251.2 204.4c-4.2 1.7-7.8 4.2-10.1 7.1-1.7-1.3-3.9-2.2-6.6-2.6l-.3-.1v1.6h.2c2.7 1 4.9 2.7 6.5 5l.2.4.2-.4c2.3-4.3 5.9-7.9 10.1-10.1l.2-.1v-1z"/><path class="f" d="M275.2 161.4h-4.5c-2.4 0-4.2-2-4-4.5l.4-4.4c.2-2.5 2.3-4.4 4.8-4.4h4.4c2.5 0 4.3 1.9 4.1 4.4l-.4 4.4c-.2 2.5-2.4 4.5-4.8 4.5z"/><path class="i" d="m277 152.5-1-1.1-2.4 2.3-2-2.3-1.2 1.1 2.1 2.2-2.4 2.2.9 1.1 2.4-2.2 2.1 2.2 1.1-1.1-2-2.2z"/><path class="p" d="M176.4 199.5c2.5 2.8 5 5.7 7.4 8.6q3.6 4.4 7.1 8.8c.1.2.1.1.1.2l.1.1.2.2q.2.2.5.3h.6c.1-.1.1 0 .2-.1l2.5-1.3c3.4-1.8 6.7-3.6 10.3-5.1l2.9 3.6c-2.8 2.6-5.8 5.8-8.7 8.2l-2.3 1.8s-.3.2-.4.3q-.3.2-.6.3-.5.3-1.1.6-1.1.5-2.4.7c-1.7.2-3.4 0-5-.5q-1.2-.5-2.3-1.2-.6-.4-1-.8-.3-.2-.5-.5l-.4-.4q-4-4-7.8-8.2c-2.6-2.8-5.1-5.6-7.5-8.5z"/><path class="p" d="m204 213.4 2.3-7.5 6.2 3.1s-.9 5.4-5.4 6.4z"/><path class="p" d="m208.8 203.8 5.5 1.5-1.8 3.7-6.2-3.1zM144.1 201.5c-.7 3.2-1.5 6.4-2.3 9.5q-1.3 4.7-2.8 9.4l-.4 1.1-.1.6c-.1.1-.1.2-.1.3q-.2.4-.2.9c0 .7.1 1.4.6 2.1 0 .1.3.4.6.7l.8.9 1.7 1.8c1.1 1.3 2.1 2.5 3.1 3.8l-3.4 4.1c-1.5-.9-2.9-1.7-4.2-2.6l-2.1-1.4-1-.7c-.4-.2-.6-.4-1.2-.8-1.9-1.6-3.3-3.9-3.8-6.5-.3-1.2-.4-2.6-.2-3.9 0-.3.1-.7.1-.9l.1-.6.3-1.2q.8-4.8 1.8-9.6c.7-3.2 1.4-6.4 2.2-9.5z"/><path class="p" d="m141.6 232.3 4.2-2.1 1.8 7s-3.3 1.3-5.9-.3z"/><path class="p" d="m151.5 228 .1 6.4-4.6 3-1.6-7z"/><path class="k" d="M164.9 168.5c.1.5.5.8.8.7.3 0 .5-.5.4-1-.1-.5-.4-.8-.8-.7-.3 0-.5.5-.4 1z"/><path d="M165.3 169.3s1.8 2.7 3.3 3.8c-.7 1-2.3.9-2.3.9z" style="fill:#a02724"/><path class="k" d="M162.6 166.1q-.1 0-.2-.1c-.2-.1-.2-.3 0-.4 1.1-1.2 2.4-1 2.5-1 .1 0 .2.2.2.3 0 .2-.2.3-.3.3-.1 0-1.1-.2-2 .8q-.1.1-.2.1z"/><path class="p" d="M150.5 175.4c1.1 4.6 2.2 13-1.7 16.1 0 0 1.5 4.6 12 4.6 11.5 0 5.5-3 5.5-3-6.3-1.2-6.1-6.6-5-10.2z"/><path class="k" d="M147.6 192.3c-.7-1.2-1.5-2.7.1-3.1 1.7-.6 12.7-1.5 16-.5-1 1.7.7 3.9.7 3.9z"/><path class="p" d="M156.7 406.9h7.2l.7-14.5h-7.2zM110.9 404.9l7.3.4 4.5-14.3-7.3-.4z"/><path class="k" d="m118 404.7-6.9-1.5c-.2 0-.5.1-.6.3l-2.4 5.2c-.2.6.1 1.2.7 1.3 2.4.5 3.6.6 6.6 1.3 1.9.4 6.1 1.4 8.6 1.9 2.6.6 3.5-1.9 2.5-2.3-4.5-2.1-6.4-3.9-7.6-5.6-.2-.3-.5-.5-.9-.6zM163.5 406.2h-6.8c-.3 0-.5.2-.6.4l-1.2 5.6c-.1.6.3 1.1.9 1.1 2.5 0 6-.2 9.2-.2 3.6 0 6.7.2 11 .2 2.6 0 3.3-2.6 2.2-2.8-4.9-1.1-8.9-1.2-13.2-3.8-.4-.3-.9-.5-1.5-.5zM135.7 193.6c-5.4 2.6-6.9 18.3-6.9 18.3l13.5 6.2s3.3-4.9 3.6-12.6c.2-8.2-4.6-14.5-10.2-11.9z"/><path d="M143 203.3c-2.4 3.8-2.2 9.6-1.3 14.5l.6.3s3.3-4.9 3.6-12.7V204z" style="opacity:.4"/><path class="f" d="M173.3 193.2s6.7 7.6.4 54.2h-33.6c-.2-5.1 3.1-30.2-1.9-54.5 0 0 5.7-1.1 11.2-1.4 4.3-.2 10.5-.4 14.3 0 4.9.4 9.6 1.7 9.6 1.7z"/><path d="M173.3 193.2s6.7 7.6.4 54.2h-33.6c-.2-5.1 3.1-30.2-1.9-54.5 0 0 5.7-1.1 11.2-1.4 4.3-.2 10.5-.4 14.3 0 4.9.4 9.6 1.7 9.6 1.7z" style="opacity:.6;fill:#fafafa"/><path class="l" d="m176.2 207.5-.1-.1-6.7-3.6c-.6 10.3 4 16.7 6.7 19.5.4-6.5.4-11.7.1-15.8zM164.6 392.4l-.3 7.5H157l.4-7.5zM115.4 390.6l7.3.4-2.3 7.4-7.3-.4z"/><path class="p" d="M148.2 170.8c1.6 6 2.2 9.6 6 12.1 5.5 3.7 12.5-.6 12.7-6.9.2-5.8-2.5-14.6-8.9-15.9-6.4-1.1-11.4 4.7-9.8 10.7z"/><path class="k" d="M161.8 247.4s-7.1 47.9-11 65.9c-4.3 19.7-27.3 84.7-27.3 84.7l-11.2-2.4s14.4-53 18-80.5c1.4-10.7 3.1-28 5.2-42.4 2.1-14 4.6-25.3 4.6-25.3z"/><path class="f" d="M126.2 394.2c.1.1-2.1 4.1-2.1 4.1l-12.6-2.7 1.1-3.8z"/><path class="t" d="M126.2 394.2c.1.1-2.1 4.1-2.1 4.1l-12.6-2.7 1.1-3.8z"/><path d="M157.3 264.5c-8.2 1.6-7.4 32.3-6.4 48.1 2.4-11.2 5.9-32.6 8.2-47.9q-.8-.4-1.8-.2z" style="opacity:.6"/><path class="k" d="M173.7 247.4s3.3 46.9 2.6 66c-.7 19.9-10.1 85-10.1 85h-10.6s-.4-63.9-.9-83.5c-.5-21.2-3.1-67.5-3.1-67.5z"/><path class="f" d="m168.3 394.2-.6 4.4h-13l-.3-3.9z"/><path class="t" d="m168.3 394.2-.6 4.4h-13l-.3-3.9z"/><path class="k" d="M169.4 202c0 12.6 6.7 17.8 6.7 17.8l10.9-10.7s-3.7-6.3-8.8-12.2c-6.3-7.2-8.8-3-8.8 5.1z"/><path class="l" d="M166.5 178.2c-.3.8-1 2.1-2.8 2.6-2.7.8-2.7 3-2.7 3v.1c2.6-.8 4.7-2.9 5.5-5.7z"/><path class="k" d="M163.7 158.8c2.2-2.8-1.2-2.9-1.2-2.9.9-3.4-3.1-1.6-3.1-1.6-2.5-3.3-3.8.7-3.8.7-2.5-2.8-3 1.8-3 1.8-2.5-3.6-3.8 1.6-3.8 1.6-2.3-3.7-3.8 1.1-3.8 1.1-4.7-1.7-2.5 3.3-2.5 3.3-4.1.1-.8 3.3-.8 3.3-4.9 0-.6 2.8-.6 2.8-3.8 2.6 1 3.2 1 3.2-3.1 5 2.3 3.2 2.3 3.2-2.2 4.9 2.7 2.7 2.7 2.7-.3 4.8 2.4 3.5 3.7 2.6.3.9.8 1.9 1.6 2.1 1.8.2 2.1-3 2.1-3s1.6 1.2 2.9.5c1.3-.6.8-2.3.8-2.3s1 .7 2 0c.5-.4.6-3.6-.2-4.7l2.6-1.1s2-.2 1.1-2.8c-.9-2.5-.1-4.5-.1-4.5 2.9-1.4.5-3.1.5-3.1 3.4-2.2-.4-2.9-.4-2.9z"/><path class="p" d="M158.4 171c.4 1.6 1.5 3 2.6 3.8 1.6 1.2 2.8 0 2.7-1.9-.1-1.6-1.1-4.3-2.9-4.7-1.8-.5-2.8 1-2.4 2.8z"/></svg>