<svg version="1.2" xmlns="http://www.w3.org/2000/svg" viewBox="0 0 500 500" width="500" height="500"><style>.a{fill:#ebebeb}.b{fill:#f0f0f0}.c{fill:#f5f5f5}.d{fill:#e6e6e6}.e{fill:#e0e0e0}.f{fill:#407bff}.g{opacity:.3;fill:#fff}.h{opacity:.4;fill:#fff}.i{fill:#fff}.j{opacity:.1}.k{fill:#263238}.l{opacity:.2}.m{opacity:.7;fill:#fff}.n{opacity:.5;fill:#fff}.o{opacity:.2;fill:#fff}.p{fill:#b55b52}.q{fill:#a02724}.r{opacity:.4}.s{opacity:.6;fill:#fafafa}.t{opacity:.6;fill:#fff}.u{opacity:.6}</style><path class="a" d="m416.8 398.5h33.1v0.2h-33.1z"/><path class="a" d="m322.5 401.2h8.7v0.3h-8.7z"/><path class="a" d="m396.6 389.2h19.2v0.3h-19.2z"/><path class="a" d="m52.5 390.9h43.2v0.2h-43.2z"/><path class="a" d="m104.6 390.9h6.3v0.2h-6.3z"/><path class="a" d="m131.5 395.1h93.6v0.3h-93.6z"/><path class="a" d="m0 382.4h500v0.2h-500z"/><path class="b" d="m119.3 314.8c-0.8-9.7-10.7-13.3-22.4-12.3-11.6 1-20.7 6.3-19.9 16z"/><path class="b" d="m96.6 298.1c5.4-0.5 7.1-5.1 6.6-10.5-0.4-5.4-2.9-9.6-8.4-9.1-5.4 0.4-7.1 5-6.6 10.4 0.4 5.4 2.9 9.7 8.4 9.2z"/><path class="c" d="m340.1 109c0.3 3-1.9 5.6-4.9 5.9-3 0.2-5.7-2-5.9-5-0.3-3 1.9-5.6 4.9-5.9 3-0.2 5.6 2 5.9 5z"/><path class="c" d="m370.2 106.3c0.2 3-2 5.7-5 5.9-3 0.3-5.6-1.9-5.9-4.9-0.2-3 2-5.6 5-5.9 3-0.3 5.6 1.9 5.9 4.9z"/><path class="c" d="m400.2 103.7c0.3 3-1.9 5.6-4.9 5.9-3 0.3-5.6-2-5.9-4.9-0.2-3 2-5.7 5-5.9 2.9-0.3 5.6 1.9 5.8 4.9z"/><path class="c" d="m342.8 139.6c0.2 3-2 5.7-5 5.9-2.9 0.3-5.6-1.9-5.8-4.9-0.3-3 1.9-5.7 4.9-5.9 3-0.3 5.6 1.9 5.9 4.9z"/><path class="c" d="m372.9 137c0.2 3-2 5.6-5 5.9-3 0.2-5.6-2-5.9-5-0.2-3 2-5.6 5-5.8 3-0.3 5.6 1.9 5.9 4.9z"/><path class="c" d="m402.9 134.4c0.3 3-1.9 5.6-4.9 5.8-3 0.3-5.6-1.9-5.9-4.9-0.3-3 2-5.6 4.9-5.9 3-0.2 5.7 2 5.9 5z"/><path class="c" d="m345.5 170.3c0.2 3-2 5.6-5 5.9-3 0.2-5.6-2-5.9-5-0.2-3 2-5.6 5-5.9 3-0.2 5.6 2 5.9 5z"/><path class="c" d="m375.5 167.6c0.3 3-1.9 5.7-4.9 5.9-3 0.3-5.6-1.9-5.9-4.9-0.3-3 2-5.6 4.9-5.9 3-0.3 5.7 2 5.9 4.9z"/><path class="c" d="m405.6 165c0.3 3-1.9 5.6-4.9 5.9-3 0.3-5.7-1.9-5.9-4.9-0.3-3 1.9-5.7 4.9-5.9 3-0.3 5.6 1.9 5.9 4.9z"/><path class="d" d="m399.1 166.8l-61.8 5.4 54.8-66.6-56.1 4.9c-0.7 0.1-1.3-0.4-1.3-1.1-0.1-0.6 0.4-1.2 1.1-1.2l61.8-5.5-54.8 66.6 56.1-4.9c0.7-0.1 1.2 0.4 1.3 1.1 0.1 0.6-0.4 1.2-1.1 1.3z"/><path class="b" d="m400.1 285.6c-0.2-0.6-0.8-1-1.4-1.1-2.8-0.2-5.2-1.2-7.1-3.1-2.5-2.5-3.9-6.3-4.2-10.8 0-0.8-0.7-1.4-1.6-1.4-0.9-0.1-1.6 0.7-1.6 1.7 0.3 5.2 2.1 9.7 5.1 12.7 2.4 2.4 5.4 3.8 8.9 4.1q0.1 0 0.2 0c1.2 0.1 2-1 1.7-2.1z"/><path class="b" d="m396.9 304.8c-13.3-1.2-22.8-10.2-25.9-24.3-0.2-0.9 0.4-1.8 1.3-1.9 0.9-0.2 1.7 0.4 1.8 1.2 2.8 12.7 11.3 20.8 23 21.8 13 1.1 26.8-7.4 29.3-28.8 0.1-0.8 0.9-1.5 1.7-1.4 0.9 0.1 1.6 0.9 1.5 1.7-2.4 20.2-15.7 33.2-32.7 31.7z"/><path class="b" d="m371.9 266.5c-0.9-0.1-1.6-0.9-1.5-1.8 2.4-20.2 15.7-33.1 32.7-31.7 15 1.4 25.1 12.6 26.7 29.4 0 0.9-0.7 1.7-1.5 1.7-0.9 0.1-1.7-0.6-1.7-1.4-1.5-15.2-10.5-25.3-23.7-26.5-13-1.1-26.8 7.4-29.3 28.8-0.1 0.9-0.9 1.5-1.7 1.5z"/><path class="b" d="m397.5 296.2q-3.7-0.3-6.9-1.7c-0.8-0.4-1.2-1.4-0.7-2.2 0.3-0.7 1.2-1.1 2-0.7q3 1.3 6.5 1.5c9.8 0.6 20.2-6.4 21.2-23.2 0.6-10.3-2.9-18.6-9.5-22.6-0.7-0.4-1-1.3-0.6-2.1 0.4-0.8 1.4-1.1 2.2-0.6 7.7 4.6 11.8 14 11.1 25.5-1 16.2-11.1 27-24.5 26.2q-0.4 0-0.8-0.1z"/><path class="b" d="m383.3 286.3c-0.8 0.5-1.9 0.2-2.3-0.6-2.9-4.9-4.2-11.2-3.8-18 0.9-15.5 10.2-26 22.8-26.2 0.9 0 1.7 0.8 1.6 1.7 0 0.9-0.7 1.5-1.5 1.5-9.3 0.2-18.7 7.3-19.7 23.2-0.4 6.2 0.8 11.9 3.4 16.3 0.4 0.7 0.2 1.6-0.5 2.1z"/><path class="b" d="m405.1 284.9c-0.3-0.7 0-1.5 0.7-2 4.2-2.5 6.8-7.8 6.8-14.2 0.1-5.1-1.4-9.5-4.2-12.2-2.1-2.2-4.8-3.2-8.1-3.2-4.9 0-8.9 2.7-11.1 7.4-0.4 0.8-1.2 1.1-2 0.9-0.9-0.4-1.3-1.4-0.9-2.2 2.7-5.9 7.9-9.3 14-9.3 4.1 0 7.7 1.4 10.4 4.1 3.3 3.4 5.2 8.5 5.1 14.5 0 7.6-3.2 13.9-8.4 17-0.8 0.5-1.9 0.1-2.3-0.7z"/><path class="b" d="m393.6 273.2c-0.9 0.4-1.9-0.2-2.2-1.1q-0.1-0.7-0.2-1.4c-0.9-5.9 2.3-11.2 7.5-12.1 2.6-0.5 5 0.2 6.8 1.8 0.8 0.7 0.7 1.8-0.1 2.4l-0.1 0.1c-0.6 0.4-1.4 0.3-2-0.2q-1.6-1.4-4.1-0.9c-3.9 0.7-5.4 4.8-4.8 8.5q0 0.5 0.2 1c0.1 0.8-0.2 1.6-1 1.9z"/><path class="b" d="m398.9 279.4q0-0.1 0-0.1c-1.1 0-1.7-1.3-1.1-2.2l0.1-0.2c0.3-0.5 0.8-0.8 1.4-0.7q0.7 0 1.5-0.1c3.4-0.6 5-3.8 5-7.1 0-0.8 0.5-1.5 1.3-1.6 1-0.2 1.9 0.5 1.9 1.5 0.1 5.2-3 9.5-7.7 10.3q-1.2 0.3-2.4 0.2z"/><path class="b" d="m399.6 273.4c-1.7-0.1-3-1.3-3.4-2.9-0.3-0.9 0.5-1.9 1.5-1.8l0.4 0.1c0.5 0 1 0.4 1.2 0.9 0.1 0.3 0.3 0.5 0.6 0.6 0.8 0 0.9-1.1 0.9-1.3 0-0.2 0.1-0.8-0.2-1.1-0.3-0.4-0.4-0.8-0.4-1.2 0.1-1.5 1.9-2 2.8-0.9 0.8 0.9 1.1 2.1 1 3.5-0.2 2.6-2.1 4.3-4.4 4.1z"/><path class="b" d="m369.5 237.7c-0.8-0.1-1.5-0.9-1.4-1.8l1.2-13.8 13.9 1.2c0.8 0 1.5 0.8 1.4 1.7-0.1 0.9-0.8 1.5-1.7 1.5l-10.7-1-0.9 10.7c-0.1 0.9-0.9 1.5-1.8 1.5z"/><path class="b" d="m435.5 243.4c-0.9-0.1-1.6-0.8-1.5-1.7l0.9-10.7-10.6-0.9c-0.9-0.1-1.6-0.9-1.5-1.8 0.1-0.8 0.9-1.5 1.7-1.4l13.9 1.2-1.2 13.9c-0.1 0.8-0.9 1.5-1.7 1.4z"/><path class="b" d="m430.5 318l-13.8-1.2c-0.9-0.1-1.6-0.9-1.5-1.8 0.1-0.9 0.9-1.5 1.8-1.4l10.6 0.9 1-10.7c0-0.9 0.8-1.5 1.7-1.4 0.9 0 1.5 0.8 1.5 1.7z"/><path class="b" d="m375.3 313.1l-13.9-1.2 1.2-13.8c0.1-0.9 0.9-1.6 1.8-1.5 0.9 0.1 1.5 0.9 1.4 1.7l-0.9 10.7 10.7 0.9c0.9 0.1 1.5 0.9 1.4 1.8 0 0.9-0.8 1.5-1.7 1.4z"/><path class="e" d="m74.7 283.1c-0.5 0.1-1-0.3-1-0.9l-0.8-8.5 8.5-0.7c0.6-0.1 1.1 0.3 1.1 0.9 0.1 0.5-0.3 1-0.9 1l-6.6 0.6 0.6 6.6c0.1 0.5-0.3 1-0.9 1z"/><path class="e" d="m115.3 279.6c-0.6 0-1.1-0.4-1.1-0.9l-0.6-6.6-6.5 0.6c-0.6 0-1.1-0.4-1.1-0.9-0.1-0.5 0.3-1 0.9-1.1l8.5-0.7 0.8 8.5c0 0.6-0.4 1-0.9 1.1z"/><path class="e" d="m119.5 316.3l-8.6 0.7c-0.5 0.1-1-0.3-1-0.9-0.1-0.5 0.3-1 0.9-1l6.5-0.6-0.5-6.6c-0.1-0.5 0.3-1 0.9-1 0.5-0.1 1 0.3 1 0.9z"/><path class="e" d="m85.5 319.3l-8.5 0.7-0.8-8.5c0-0.6 0.4-1 0.9-1.1 0.6 0 1 0.4 1.1 0.9l0.6 6.6 6.5-0.6c0.6 0 1 0.4 1.1 0.9 0 0.5-0.4 1-0.9 1.1z"/><path fill-rule="evenodd" class="a" d="m122.9 147.9l2.3 26.7c0.4 4.2-2.7 7.9-7 8.2l-36.5 3.2c-4.2 0.4-7.9-2.7-8.3-6.9l-2.3-26.7c-0.4-3.9 2.4-7.4 6.1-8.1l-0.6-7.7c-0.9-10.5 6.9-19.8 17.4-20.8 10.5-0.9 19.8 6.9 20.7 17.4l0.4 4.5-4.7 0.4-0.4-4.4c-0.7-8-7.7-13.8-15.6-13.2-7.9 0.7-13.8 7.7-13.1 15.7l0.7 7.6 32.6-2.9c4.2-0.3 7.9 2.8 8.3 7zm-20.6 9.7c-0.3-2.5-2.5-4.4-5-4.1-2.6 0.2-4.4 2.4-4.2 4.9 0.1 1.6 1 2.8 2.2 3.6l0.8 9.1c0.1 1.5 1.4 2.6 2.9 2.5 1.5-0.1 2.7-1.4 2.5-2.9l-0.8-9.2c1.1-1 1.7-2.3 1.6-3.9z"/><path class="b" d="m170.4 156.4l-3.3-5.4c-1.7 0.3-3.2 0.3-5 0l-3.3 5.4-0.6-0.2c-2.1-0.5-4.2-1.4-6.1-2.5l-0.6-0.3 1.4-5.9c0.1-0.4 0.6-0.7 1.1-0.6 0.4 0.1 0.7 0.6 0.6 1l-1.1 4.6q2.2 1.2 4.5 1.8l3.2-5.2 0.6 0.1c1.9 0.3 3.8 0.3 5.6 0l0.6-0.1 3.3 5.2q2.3-0.6 4.4-1.8l-1.4-6 0.5-0.3q1.9-1.5 3.4-3.3c0.3-0.4 0.9-0.5 1.3-0.2 0.4 0.3 0.4 0.8 0.1 1.2q-1.4 1.9-3.3 3.3l1.4 6.2-0.5 0.3c-1.9 1.1-4 2-6.1 2.5zm-20.2-11.7q-0.5-0.5-0.8-1l-6.2 1.5-0.3-0.6c-1.1-1.9-2-4-2.5-6.1l-0.2-0.6 5.4-3.3q-0.2-1.4-0.2-2.5 0-1.2 0.2-2.6l-5.4-3.3 0.2-0.6c0.5-2.1 1.4-4.2 2.5-6.1l0.3-0.5 6.2 1.4q1.5-2 3.5-3.5l-1.1-4.7c-0.1-0.5 0.2-0.9 0.7-1 0.4-0.2 0.9 0.1 1 0.6l1.4 5.8-0.5 0.3c-1.5 1.1-2.9 2.5-4 4l-0.3 0.5-6-1.4q-1.2 2.1-1.9 4.4l5.3 3.3-0.1 0.5q-0.3 1.6-0.2 2.9-0.1 1.3 0.2 2.8l0.1 0.6-5.3 3.2q0.7 2.3 1.9 4.5l6-1.5 0.3 0.5q0.5 0.7 1.1 1.3c0.3 0.4 0.3 0.9-0.1 1.2-0.4 0.4-0.9 0.4-1.2 0zm35.7 0.5l-2.3-0.6c-0.4-0.1-0.7-0.6-0.6-1 0.1-0.5 0.6-0.8 1-0.7l1 0.3q1.2-2.2 1.9-4.5l-5.3-3.2 0.1-0.6q0.3-1.5 0.3-2.8 0-1.3-0.3-2.9l-0.1-0.5 5.3-3.3q-0.7-2.3-1.9-4.4l-6 1.4-0.3-0.5c-1.1-1.5-2.5-2.9-4-4l-0.5-0.3 1.5-6q-2.2-1.2-4.5-1.9l-3.2 5.3-0.6-0.1c-1.9-0.3-3.8-0.3-5.7 0l-0.5 0.1-3.3-5.3q-0.3 0.1-0.6 0.2c-0.4 0.2-0.9-0.1-1.1-0.5-0.1-0.5 0.1-1 0.6-1.1q0.6-0.3 1.3-0.4l0.6-0.2 3.3 5.4c1.8-0.3 3.3-0.3 5.1 0l3.3-5.4 0.6 0.2c2.1 0.5 4.2 1.4 6.1 2.5l0.6 0.3-1.5 6.2q2 1.5 3.6 3.5l6.1-1.4 0.3 0.5c1.1 1.9 2 4 2.6 6.1l0.1 0.6-5.4 3.3q0.2 1.4 0.2 2.6 0 1.1-0.2 2.5l5.4 3.3-0.1 0.6c-0.6 2.1-1.5 4.2-2.6 6.1zm-21.6-4.5c-4.4-0.2-8.2-3.9-8.3-8.4-0.1-4.5 3.3-8.2 7.6-8.7 0.5-0.1 1 0.3 1 0.9 0 0.4-0.3 0.8-0.8 0.8-3.8 0.5-6.7 4.1-5.9 8.2 0.5 2.6 2.7 4.8 5.3 5.3 4.4 0.8 8.2-2.5 8.2-6.7 0-1.4-0.4-2.8-1.2-3.9-0.3-0.4-0.2-0.9 0.1-1.2 0.4-0.3 1-0.2 1.3 0.2 1 1.4 1.6 3.1 1.6 4.9 0 4.8-4 8.7-8.9 8.6z"/><path class="d" d="m108.3 229.6l-2.1-3.5c-1.2 0.2-2.1 0.2-3.3 0l-2.1 3.5-0.4-0.1q-2.1-0.6-3.9-1.7l-0.4-0.2 0.9-3.7c0.1-0.3 0.4-0.5 0.7-0.5 0.3 0.1 0.5 0.4 0.4 0.7l-0.7 3q1.4 0.7 2.9 1.2l2.1-3.4h0.3q1.9 0.3 3.7 0h0.4l2 3.4q1.5-0.5 2.9-1.2l-0.9-3.9 0.3-0.2q1.3-0.9 2.3-2.2c0.1-0.2 0.5-0.3 0.7-0.1 0.3 0.2 0.4 0.6 0.2 0.8q-1 1.2-2.2 2.2l0.9 3.9-0.3 0.2q-1.9 1.1-4 1.7zm-13-7.6q-0.3-0.3-0.6-0.6l-3.9 0.9-0.2-0.3q-1.1-1.9-1.7-4l-0.1-0.4 3.5-2.1q-0.1-0.9-0.1-1.7 0-0.7 0.1-1.6l-3.5-2.1 0.1-0.4q0.6-2.1 1.7-4l0.2-0.3 3.9 0.9q1-1.3 2.3-2.3l-0.7-3c0-0.3 0.1-0.6 0.4-0.7 0.4 0 0.7 0.2 0.7 0.5l0.9 3.7-0.3 0.2q-1.5 1.1-2.6 2.6l-0.2 0.3-3.9-0.9q-0.7 1.4-1.2 2.9l3.4 2v0.4q-0.2 1-0.2 1.8 0 0.9 0.2 1.9v0.3l-3.4 2.1q0.5 1.5 1.2 2.9l3.9-0.9 0.2 0.3q0.4 0.4 0.7 0.8c0.2 0.3 0.2 0.6 0 0.8-0.3 0.3-0.6 0.2-0.8 0zm23 0.3l-1.4-0.3c-0.3-0.1-0.5-0.4-0.4-0.7 0-0.3 0.3-0.5 0.7-0.4l0.6 0.1q0.7-1.4 1.2-2.9l-3.4-2.1v-0.3q0.2-1 0.2-1.9 0-0.8-0.2-1.8v-0.4l3.4-2q-0.5-1.5-1.2-2.9l-3.9 0.9-0.2-0.3q-1.1-1.5-2.6-2.6l-0.3-0.2 0.9-3.9q-1.4-0.7-2.9-1.2l-2 3.4h-0.4q-1.8-0.3-3.7 0h-0.3l-2.1-3.4q-0.2 0.1-0.4 0.1c-0.3 0.1-0.6 0-0.7-0.3-0.1-0.3 0-0.6 0.3-0.7q0.5-0.2 0.9-0.3l0.4-0.1 2.1 3.5c1.2-0.2 2.1-0.2 3.3 0l2.1-3.5 0.4 0.1q2.1 0.6 4 1.6l0.3 0.3-0.9 3.9q1.3 1 2.3 2.3l3.9-0.9 0.3 0.3q1 1.9 1.6 4l0.1 0.4-3.5 2.1q0.1 0.9 0.1 1.6 0 0.8-0.1 1.7l3.5 2.1-0.1 0.4q-0.6 2.1-1.6 3.9zm-14-2.9c-2.9-0.1-5.3-2.5-5.4-5.4 0-2.9 2.1-5.3 4.9-5.6 0.4-0.1 0.7 0.2 0.7 0.5 0 0.3-0.2 0.6-0.5 0.6-2.5 0.3-4.4 2.6-3.8 5.3 0.3 1.7 1.7 3.1 3.4 3.4 2.8 0.5 5.3-1.6 5.3-4.3 0-0.9-0.3-1.8-0.8-2.5-0.2-0.3-0.1-0.6 0.1-0.8 0.2-0.2 0.6-0.2 0.8 0.1 0.7 0.9 1 2 1 3.2 0 3.1-2.6 5.6-5.7 5.5z"/><path class="c" d="m250 427c-107.2 0-193.9-5-193.9-11.3 0-6.3 86.7-11.3 193.9-11.3 107.2 0 193.9 5 193.9 11.3 0 6.3-86.7 11.3-193.9 11.3z"/><path class="f" d="m363.4 145.8h-32.5l-23 263.3h32.5c9.3 0 17.5-7.6 18.3-16.8l20.1-229.7c0.8-9.2-6.1-16.8-15.3-16.8z"/><path class="f" d="m356.8 145.8h-110.2c-9.3 0-17.4 7.6-18.3 16.8l-20 229.7c-0.9 9.2 6 16.8 15.3 16.8h110.2c9.2 0 17.4-7.6 18.2-16.8l20.1-229.7c0.8-9.2-6-16.8-15.3-16.8z"/><path class="g" d="m356.8 145.8h-110.2c-9.3 0-17.4 7.6-18.3 16.8l-20 229.7c-0.9 9.2 6 16.8 15.3 16.8h110.2c9.2 0 17.4-7.6 18.2-16.8l20.1-229.7c0.8-9.2-6-16.8-15.3-16.8z"/><path class="h" d="m356.3 151.2h-29c-1.7 0-3.3 1.1-4 2.8-2.3 6-8.3 10.2-14.6 10.2h-17.2c-6.3 0-11.5-4.2-12.8-10.2-0.4-1.7-1.8-2.8-3.5-2.8h-29.1c-6.3 0-11.8 5.1-12.4 11.4l-20.1 229.7c-0.5 6.3 4.1 11.4 10.4 11.4h110.2c6.3 0 11.9-5.1 12.5-11.4l20-229.7c0.6-6.3-4.1-11.4-10.4-11.4z"/><path class="i" d="m328.9 276h-77.1c-2.3 0-4-1.9-3.8-4.2l0.4-4.4c0.2-2.3 2.2-4.1 4.5-4.1h77.1c2.3 0 4 1.8 3.8 4.1l-0.4 4.4c-0.2 2.3-2.2 4.2-4.5 4.2z"/><path class="i" d="m327.2 295h-77.1c-2.3 0-4-1.9-3.8-4.1l0.4-4.5c0.2-2.2 2.2-4.1 4.5-4.1h77.1c2.3 0 4 1.9 3.8 4.1l-0.4 4.5c-0.2 2.2-2.2 4.1-4.5 4.1z"/><path class="j" d="m305.4 155.5c-0.2 2.5-2.4 4.6-4.9 4.6-2.6 0-4.5-2.1-4.2-4.6 0.2-2.5 2.4-4.6 5-4.6 2.5 0 4.4 2.1 4.2 4.6z"/><path class="j" d="m303.4 155.5c-0.2 1.4-1.4 2.5-2.8 2.5-1.3 0-2.4-1.1-2.2-2.5 0.1-1.4 1.3-2.5 2.7-2.5 1.4 0 2.4 1.1 2.3 2.5z"/><g style="opacity:.8"><path class="i" d="m342.8 163.2c-0.8 0-1.3-0.6-1.3-1.4l0.3-2.4c0-0.8 0.7-1.4 1.4-1.4 0.8 0 1.3 0.6 1.2 1.4l-0.2 2.4c0 0.8-0.7 1.4-1.4 1.4z"/><path class="i" d="m353.5 163.2c-0.7 0-1.3-0.6-1.2-1.4l0.5-5.7c0.1-0.8 0.7-1.4 1.5-1.4 0.7 0 1.3 0.6 1.2 1.4l-0.5 5.7c-0.1 0.8-0.7 1.4-1.5 1.4z"/><path class="i" d="m348.1 163.2c-0.7 0-1.2-0.6-1.2-1.4l0.4-4.1c0-0.7 0.7-1.3 1.4-1.3 0.8 0 1.3 0.6 1.3 1.3l-0.4 4.1c-0.1 0.8-0.7 1.4-1.5 1.4z"/></g><g style="opacity:.8"><path class="i" d="m250.6 163.2h-6.7c-0.4 0-0.8-0.4-0.7-0.8l0.3-3.6c0-0.4 0.4-0.8 0.8-0.8h6.8c0.4 0 0.7 0.4 0.7 0.8l-0.3 3.6c-0.1 0.4-0.4 0.8-0.9 0.8z"/><path class="i" d="m253.8 162.2c-0.5 0-0.8-0.4-0.7-0.8l0.1-1.6c0.1-0.5 0.4-0.8 0.8-0.8 0.5 0 0.8 0.3 0.7 0.8l-0.1 1.6c0 0.4-0.4 0.8-0.8 0.8z"/></g><path class="i" d="m316.2 247c-13.5 12.8-33.9 13.3-45.7 0.9-11.9-12.3-10.5-32.7 2.9-45.6 13.5-12.9 34-13.3 45.8-1 11.8 12.3 10.5 32.8-3 45.7z"/><path class="f" d="m294.9 223.4c-8.5 0-15.6 3.2-16.2 10.2l-0.7 7.8h30.7l0.7-7.8c0.6-7-6-10.2-14.5-10.2z"/><path class="f" d="m295.2 220.2c3.9 0 5.8-3.2 6.1-7.2 0.3-3.9-0.9-7.1-4.9-7.1-3.9 0-5.7 3.2-6 7.1-0.4 4 0.9 7.2 4.8 7.2z"/><path class="f" d="m325.4 269.4c-2.1 0-3.9 0.8-4.1 2.5l-0.1 1.9h7.6l0.1-1.9c0.2-1.7-1.4-2.5-3.5-2.5z"/><path class="f" d="m325.4 268.6c1 0 1.5-0.8 1.5-1.8 0.1-0.9-0.2-1.7-1.2-1.7-0.9 0-1.4 0.8-1.5 1.7-0.1 1 0.3 1.8 1.2 1.8z"/><path class="f" d="m302 314h-30c-3.5 0-6.1-2.8-5.8-6.3 0.3-3.5 3.4-6.4 6.9-6.4h30c3.5 0 6.1 2.9 5.8 6.4-0.3 3.5-3.4 6.3-6.9 6.3z"/><path class="f" d="m298.4 384.8h-32.1c-3.7 0-6.5-3-6.2-6.7l2.1-23.4c0.3-3.7 3.6-6.7 7.3-6.7h32.1c3.7 0 6.4 3 6.1 6.7l-2 23.4c-0.4 3.7-3.6 6.7-7.3 6.7z"/><g style="opacity:.6"><path class="i" d="m288.5 360.6c0.2-2.2-1.5-4-3.7-4-2.2 0-4.2 1.8-4.4 4-0.1 1.3 0.4 2.5 1.4 3.2l-0.8 8.1c-0.1 1.3 0.9 2.4 2.2 2.4 1.4 0 2.5-1.1 2.6-2.4l0.7-8.1c1.1-0.7 1.9-1.9 2-3.2z"/></g><path class="f" d="m301.9 352.9h-4.2l1.1-11.6c0.6-7-4.6-12.7-11.6-12.7-6.9 0-13.1 5.7-13.7 12.7l-1 11.6h-4.2l1.1-11.6c0.8-9.3 8.9-16.8 18.2-16.8 9.2 0 16.1 7.5 15.3 16.8z"/><path fill-rule="evenodd" class="f" d="m326.6 288l-0.2 2.9c-0.1 0.5-0.5 0.8-0.9 0.8h-4.2c-0.4 0-0.7-0.3-0.7-0.8l0.3-2.9c0-0.5 0.4-0.9 0.8-0.9l0.1-1.1c0.1-1.1 1.1-2 2.3-2 1.1 0 2 0.9 1.9 2l-0.1 1.1c0.4 0 0.8 0.4 0.7 0.9zm-4.2-2l-0.1 1.1h3.1l0.1-1.1c0-0.8-0.6-1.5-1.5-1.5-0.8 0-1.6 0.7-1.6 1.5z"/><path class="k" d="m263.8 288.3l-1.4-0.3c-0.2 0-0.2-0.2-0.2-0.4l0.6-1.4c0.1-0.3-0.2-0.5-0.5-0.3l-1 1.2c-0.2 0.1-0.4 0.1-0.5 0l-0.9-1.2c-0.2-0.2-0.6 0-0.5 0.3l0.4 1.4c0 0.2-0.1 0.4-0.3 0.4l-1.5 0.3c-0.3 0.1-0.3 0.5 0 0.6l1.4 0.3c0.2 0 0.3 0.2 0.2 0.4l-0.6 1.4c-0.1 0.3 0.2 0.5 0.5 0.3l1-1.1c0.2-0.2 0.4-0.2 0.5 0l0.9 1.1c0.2 0.2 0.6 0 0.5-0.3l-0.3-1.4c-0.1-0.2 0-0.4 0.2-0.4l1.5-0.3c0.3-0.1 0.4-0.5 0-0.6z"/><path class="k" d="m273.3 288.3l-1.4-0.3c-0.2 0-0.3-0.2-0.2-0.4l0.6-1.4c0.1-0.3-0.3-0.5-0.5-0.3l-1.1 1.2c-0.1 0.1-0.3 0.1-0.4 0l-0.9-1.2c-0.2-0.2-0.6 0-0.5 0.3l0.3 1.4c0.1 0.2-0.1 0.4-0.2 0.4l-1.5 0.3c-0.3 0.1-0.4 0.5-0.1 0.6l1.5 0.3c0.1 0 0.2 0.2 0.1 0.4l-0.6 1.4c-0.1 0.3 0.3 0.5 0.5 0.3l1.1-1.1c0.1-0.2 0.3-0.2 0.4 0l0.9 1.1c0.2 0.2 0.6 0 0.6-0.3l-0.4-1.4c0-0.2 0.1-0.4 0.3-0.4l1.5-0.3c0.3-0.1 0.3-0.5 0-0.6z"/><path class="k" d="m282.8 288.3l-1.5-0.3c-0.1 0-0.2-0.2-0.2-0.4l0.6-1.4c0.2-0.3-0.2-0.5-0.4-0.3l-1.1 1.2c-0.1 0.1-0.3 0.1-0.5 0l-0.8-1.2c-0.2-0.2-0.6 0-0.6 0.3l0.4 1.4c0 0.2-0.1 0.4-0.3 0.4l-1.5 0.3c-0.3 0.1-0.3 0.5 0 0.6l1.4 0.3c0.2 0 0.3 0.2 0.2 0.4l-0.6 1.4c-0.1 0.3 0.3 0.5 0.5 0.3l1.1-1.1c0.1-0.2 0.3-0.2 0.4 0l0.9 1.1c0.2 0.2 0.6 0 0.5-0.3l-0.3-1.4c-0.1-0.2 0.1-0.4 0.2-0.4l1.5-0.3c0.3-0.1 0.4-0.5 0.1-0.6z"/><path class="k" d="m292.2 288.3l-1.4-0.3c-0.2 0-0.3-0.2-0.2-0.4l0.6-1.4c0.1-0.3-0.2-0.5-0.5-0.3l-1 1.2c-0.2 0.1-0.4 0.1-0.5 0l-0.9-1.2c-0.2-0.2-0.6 0-0.5 0.3l0.3 1.4c0.1 0.2 0 0.4-0.2 0.4l-1.5 0.3c-0.3 0.1-0.4 0.5 0 0.6l1.4 0.3c0.2 0 0.2 0.2 0.2 0.4l-0.6 1.4c-0.2 0.3 0.2 0.5 0.5 0.3l1-1.1c0.2-0.2 0.4-0.2 0.5 0l0.9 1.1c0.2 0.2 0.6 0 0.5-0.3l-0.4-1.4c0-0.2 0.1-0.4 0.3-0.4l1.5-0.3c0.3-0.1 0.3-0.5 0-0.6z"/><path class="k" d="m301.7 288.3l-1.4-0.3c-0.2 0-0.3-0.2-0.2-0.4l0.6-1.4c0.1-0.3-0.3-0.5-0.5-0.3l-1.1 1.2c-0.1 0.1-0.3 0.1-0.4 0l-0.9-1.2c-0.2-0.2-0.6 0-0.5 0.3l0.3 1.4c0 0.2-0.1 0.4-0.2 0.4l-1.5 0.3c-0.4 0.1-0.4 0.5-0.1 0.6l1.5 0.3c0.1 0 0.2 0.2 0.1 0.4l-0.6 1.4c-0.1 0.3 0.3 0.5 0.5 0.3l1.1-1.1c0.1-0.2 0.3-0.2 0.4 0l0.9 1.1c0.2 0.2 0.6 0 0.6-0.3l-0.4-1.4c0-0.2 0.1-0.4 0.3-0.4l1.4-0.3c0.4-0.1 0.4-0.5 0.1-0.6z"/><path class="k" d="m311.2 288.3l-1.5-0.3c-0.1 0-0.2-0.2-0.2-0.4l0.6-1.4c0.2-0.3-0.2-0.5-0.4-0.3l-1.1 1.2c-0.2 0.1-0.4 0.1-0.5 0l-0.9-1.2c-0.1-0.2-0.6 0-0.5 0.3l0.4 1.4c0 0.2-0.1 0.4-0.3 0.4l-1.5 0.3c-0.3 0.1-0.3 0.5 0 0.6l1.4 0.3c0.2 0 0.3 0.2 0.2 0.4l-0.6 1.4c-0.1 0.3 0.2 0.5 0.5 0.3l1.1-1.1c0.1-0.2 0.3-0.2 0.4 0l0.9 1.1c0.2 0.2 0.6 0 0.5-0.3l-0.3-1.4c-0.1-0.2 0-0.4 0.2-0.4l1.5-0.3c0.3-0.1 0.4-0.5 0.1-0.6z"/><path class="k" d="m288.4 267.6h-17.8c-1.1 0-2.1 0.9-2.2 2-0.1 1.1 0.7 2 1.8 2h17.8c1.1 0 2.1-0.9 2.2-2 0.1-1.1-0.7-2-1.8-2z"/><path class="k" d="m306.4 267.6h-10.3c-1.1 0-2.1 0.9-2.2 2-0.1 1.1 0.7 2 1.8 2h10.3c1.1 0 2.1-0.9 2.2-2 0.1-1.1-0.7-2-1.8-2z"/><path class="k" d="m320 358.3c-6.7 2.6-12.6 6.5-16.6 11-2.3-2-5.7-3.4-9.7-4.1h-0.5l-0.2 2.3 0.3 0.1c3.9 1.5 7.2 4.2 9.3 7.7l0.3 0.6 0.4-0.6c4.1-6.6 10.1-12.2 16.9-15.6l0.3-0.1 0.1-1.6z"/><path class="l" d="m230.6 161.4c-1.2 2.2-2 4.6-2.3 7.2l-14.8 170.2h46l9.3-35.5-3.1-35.4 9.3-35.5-3-35.5 9.2-35.5c0 0-50.6 0-50.6 0z"/><path class="f" d="m268 186.9l9.2-35.5h-116.5l-9.3 35.5 3.1 35.5-9.3 35.5 3.1 35.4-9.3 35.5h116.5l9.3-35.5-3.1-35.4 9.3-35.5z"/><path class="m" d="m268 186.9l9.2-35.5h-116.5l-9.3 35.5 3.1 35.5-9.3 35.5 3.1 35.4-9.3 35.5h116.5l9.3-35.5-3.1-35.4 9.3-35.5z"/><path class="n" d="m267.9 186.9h-116.5l9.3-35.5h116.5z"/><path class="n" d="m261.7 257.9h-116.5l9.3-35.5h116.5z"/><path class="n" d="m255.5 328.8h-116.5l9.3-35.5h116.5z"/><path class="l" d="m252.4 201.7c-1 0.3-2.3 0.5-3.7 0.5-2.1 0-3.9-0.4-4.9-1q-0.4-0.3-0.9-0.3-0.5 0-0.9 0.3 0 0 0 0 0 0-0.1 0-0.5 0.3-1.4 0.6c-0.9 0.2-2.1 0.4-3.4 0.4q-0.5 0-1 0c-1-0.1-1.9-0.3-2.7-0.5q-0.2-0.1-0.4-0.1c-0.9 0-1.7 0.7-1.7 1.6v1.1h-45.3c-3.5 0-6.3 2.9-6.3 6.4v6.4c0 3.5 2.8 6.3 6.3 6.3h51.5q0.2 0 0.4 0 0.8 0.7 1.7 1.4 1.1 0.8 2.3 1.7c0.6 0.4 1.4 0.4 1.9 0 6.5-4.7 10.7-8 10.7-16.9v-6.4c0-1.1-1.1-1.8-2.1-1.5z"/><path class="f" d="m236.5 219.9h-51.5c-3.5 0-6.3-2.9-6.3-6.4v-6.4c0-3.5 2.8-6.3 6.3-6.3h51.5c3.6 0 6.4 2.8 6.4 6.3v6.4c0 3.5-2.8 6.4-6.4 6.4z"/><path class="f" d="m247.7 198.7c-2.1 0-3.9-0.4-4.9-1-0.6-0.4-1.2-0.4-1.8 0-1 0.6-2.8 1-4.9 1-1.4 0-2.7-0.2-3.7-0.5-1-0.4-2.1 0.4-2.1 1.5v6.4c0 8.9 4.2 12.2 10.6 16.9 0.6 0.4 1.4 0.4 1.9 0 6.5-4.7 10.7-8 10.7-16.9v-6.4c0-1.1-1.1-1.9-2.1-1.5-1 0.3-2.3 0.5-3.7 0.5z"/><path class="g" d="m247.7 198.7c-2.1 0-3.9-0.4-4.9-1-0.6-0.4-1.2-0.4-1.8 0-1 0.6-2.8 1-4.9 1-1.4 0-2.7-0.2-3.7-0.5-1-0.4-2.1 0.4-2.1 1.5v6.4c0 8.9 4.2 12.2 10.6 16.9 0.6 0.4 1.4 0.4 1.9 0 6.5-4.7 10.7-8 10.7-16.9v-6.4c0-1.1-1.1-1.9-2.1-1.5-1 0.3-2.3 0.5-3.7 0.5z"/><path class="o" d="m241 197.7c-1 0.6-2.8 1-4.9 1-1.4 0-2.7-0.2-3.7-0.5-1-0.4-2.1 0.4-2.1 1.5v6.4c0 8.9 4.2 12.2 10.6 16.9q0.5 0.3 1 0.3v-25.9q-0.5 0-0.9 0.3z"/><path class="k" d="m251.2 204.4c-4.2 1.7-7.8 4.2-10.1 7.1-1.7-1.3-3.9-2.2-6.6-2.6l-0.3-0.1v1.6h0.2c2.7 1 4.9 2.7 6.5 5l0.2 0.4 0.2-0.4c2.3-4.3 5.9-7.9 10.1-10.1l0.2-0.1v-1z"/><path class="f" d="m275.2 161.4h-4.5c-2.4 0-4.2-2-4-4.5l0.4-4.4c0.2-2.5 2.3-4.4 4.8-4.4h4.4c2.5 0 4.3 1.9 4.1 4.4l-0.4 4.4c-0.2 2.5-2.4 4.5-4.8 4.5z"/><path class="i" d="m277 152.5l-1-1.1-2.4 2.3-2-2.3-1.2 1.1 2.1 2.2-2.4 2.2 0.9 1.1 2.4-2.2 2.1 2.2 1.1-1.1-2-2.2z"/><path class="p" d="m176.4 199.5c2.5 2.8 5 5.7 7.4 8.6q3.6 4.4 7.1 8.8c0.1 0.2 0.1 0.1 0.1 0.2q0 0 0 0 0.1 0.1 0.1 0.1 0.1 0.1 0.2 0.2 0.2 0.2 0.5 0.3 0.2 0 0.4 0 0.1 0 0.1 0 0.1 0 0.1 0c0.1-0.1 0.1 0 0.2-0.1l2.5-1.3c3.4-1.8 6.7-3.6 10.3-5.1l2.9 3.6c-2.8 2.6-5.8 5.8-8.7 8.2l-2.3 1.8c0 0-0.3 0.2-0.4 0.3q-0.3 0.2-0.6 0.3-0.5 0.3-1.1 0.6-1.1 0.5-2.4 0.7c-1.7 0.2-3.4 0-5-0.5q-1.2-0.5-2.3-1.2-0.6-0.4-1-0.8-0.3-0.2-0.5-0.5l-0.4-0.4q-4-4-7.8-8.2c-2.6-2.8-5.1-5.6-7.5-8.5z"/><path class="p" d="m204 213.4l2.3-7.5 6.2 3.1c0 0-0.9 5.4-5.4 6.4z"/><path class="p" d="m208.8 203.8l5.5 1.5-1.8 3.7-6.2-3.1z"/><path class="p" d="m144.1 201.5c-0.7 3.2-1.5 6.4-2.3 9.5q-1.3 4.7-2.8 9.4l-0.4 1.1-0.1 0.6c-0.1 0.1-0.1 0.2-0.1 0.3q-0.2 0.4-0.2 0.9c0 0.7 0.1 1.4 0.6 2.1 0 0.1 0.3 0.4 0.6 0.7l0.8 0.9 1.7 1.8c1.1 1.3 2.1 2.5 3.1 3.8l-3.4 4.1c-1.5-0.9-2.9-1.7-4.2-2.6l-2.1-1.4-1-0.7c-0.4-0.2-0.6-0.4-1.2-0.8-1.9-1.6-3.3-3.9-3.8-6.5-0.3-1.2-0.4-2.6-0.2-3.9 0-0.3 0.1-0.7 0.1-0.9l0.1-0.6 0.3-1.2q0.8-4.8 1.8-9.6c0.7-3.2 1.4-6.4 2.2-9.5z"/><path class="p" d="m141.6 232.3l4.2-2.1 1.8 7c0 0-3.3 1.3-5.9-0.3z"/><path class="p" d="m151.5 228l0.1 6.4-4.6 3-1.6-7z"/><path class="k" d="m164.9 168.5c0.1 0.5 0.5 0.8 0.8 0.7 0.3 0 0.5-0.5 0.4-1-0.1-0.5-0.4-0.8-0.8-0.7-0.3 0-0.5 0.5-0.4 1z"/><path class="q" d="m165.3 169.3c0 0 1.8 2.7 3.3 3.8-0.7 1-2.3 0.9-2.3 0.9z"/><path class="k" d="m162.6 166.1q-0.1 0-0.2-0.1c-0.2-0.1-0.2-0.3 0-0.4 1.1-1.2 2.4-1 2.5-1 0.1 0 0.2 0.2 0.2 0.3 0 0.2-0.2 0.3-0.3 0.3-0.1 0-1.1-0.2-2 0.8q-0.1 0.1-0.2 0.1z"/><path class="p" d="m150.5 175.4c1.1 4.6 2.2 13-1.7 16.1 0 0 1.5 4.6 12 4.6 11.5 0 5.5-3 5.5-3-6.3-1.2-6.1-6.6-5-10.2z"/><path class="k" d="m147.6 192.3c-0.7-1.2-1.5-2.7 0.1-3.1 1.7-0.6 12.7-1.5 16-0.5-1 1.7 0.7 3.9 0.7 3.9z"/><path class="p" d="m156.7 406.9h7.2l0.7-14.5h-7.2z"/><path class="p" d="m110.9 404.9l7.3 0.4 4.5-14.3-7.3-0.4z"/><path class="k" d="m118 404.7l-6.9-1.5c-0.2 0-0.5 0.1-0.6 0.3l-2.4 5.2c-0.2 0.6 0.1 1.2 0.7 1.3 2.4 0.5 3.6 0.6 6.6 1.3 1.9 0.4 6.1 1.4 8.6 1.9 2.6 0.6 3.5-1.9 2.5-2.3-4.5-2.1-6.4-3.9-7.6-5.6-0.2-0.3-0.5-0.5-0.9-0.6z"/><path class="k" d="m163.5 406.2h-6.8c-0.3 0-0.5 0.2-0.6 0.4l-1.2 5.6c-0.1 0.6 0.3 1.1 0.9 1.1 2.5 0 6-0.2 9.2-0.2 3.6 0 6.7 0.2 11 0.2 2.6 0 3.3-2.6 2.2-2.8-4.9-1.1-8.9-1.2-13.2-3.8-0.4-0.3-0.9-0.5-1.5-0.5z"/><path class="k" d="m135.7 193.6c-5.4 2.6-6.9 18.3-6.9 18.3l13.5 6.2c0 0 3.3-4.9 3.6-12.6 0.2-8.2-4.6-14.5-10.2-11.9z"/><path class="r" d="m143 203.3c-2.4 3.8-2.2 9.6-1.3 14.5l0.6 0.3c0 0 3.3-4.9 3.6-12.7q0-0.7 0-1.4z"/><path class="f" d="m173.3 193.2c0 0 6.7 7.6 0.4 54.2-10.1 0-28.6 0-33.6 0-0.2-5.1 3.1-30.2-1.9-54.5 0 0 5.7-1.1 11.2-1.4 4.3-0.2 10.5-0.4 14.3 0 4.9 0.4 9.6 1.7 9.6 1.7z"/><path class="s" d="m173.3 193.2c0 0 6.7 7.6 0.4 54.2-10.1 0-28.6 0-33.6 0-0.2-5.1 3.1-30.2-1.9-54.5 0 0 5.7-1.1 11.2-1.4 4.3-0.2 10.5-0.4 14.3 0 4.9 0.4 9.6 1.7 9.6 1.7z"/><path class="l" d="m176.2 207.5l-0.1-0.1-6.7-3.6c-0.6 10.3 4 16.7 6.7 19.5 0.4-6.5 0.4-11.7 0.1-15.8z"/><path class="l" d="m164.6 392.4l-0.3 7.5h-7.3l0.4-7.5z"/><path class="l" d="m115.4 390.6l7.3 0.4-2.3 7.4-7.3-0.4z"/><path class="p" d="m148.2 170.8c1.6 6 2.2 9.6 6 12.1 5.5 3.7 12.5-0.6 12.7-6.9 0.2-5.8-2.5-14.6-8.9-15.9-6.4-1.1-11.4 4.7-9.8 10.7z"/><path class="k" d="m161.8 247.4c0 0-7.1 47.9-11 65.9-4.3 19.7-27.3 84.7-27.3 84.7l-11.2-2.4c0 0 14.4-53 18-80.5 1.4-10.7 3.1-28 5.2-42.4 2.1-14 4.6-25.3 4.6-25.3z"/><path class="f" d="m126.2 394.2c0.1 0.1-2.1 4.1-2.1 4.1l-12.6-2.7 1.1-3.8z"/><path class="t" d="m126.2 394.2c0.1 0.1-2.1 4.1-2.1 4.1l-12.6-2.7 1.1-3.8z"/><path class="u" d="m157.3 264.5c-8.2 1.6-7.4 32.3-6.4 48.1 2.4-11.2 5.9-32.6 8.2-47.9q-0.8-0.4-1.8-0.2z"/><path class="k" d="m173.7 247.4c0 0 3.3 46.9 2.6 66-0.7 19.9-10.1 85-10.1 85h-10.6c0 0-0.4-63.9-0.9-83.5-0.5-21.2-3.1-67.5-3.1-67.5z"/><path class="f" d="m168.3 394.2c0 0-0.6 4.4-0.6 4.4h-13l-0.3-3.9z"/><path class="t" d="m168.3 394.2c0 0-0.6 4.4-0.6 4.4h-13l-0.3-3.9z"/><path class="k" d="m169.4 202c0 12.6 6.7 17.8 6.7 17.8l10.9-10.7c0 0-3.7-6.3-8.8-12.2-6.3-7.2-8.8-3-8.8 5.1z"/><path class="l" d="m166.5 178.2c-0.3 0.8-1 2.1-2.8 2.6-2.7 0.8-2.7 3-2.7 3v0.1c2.6-0.8 4.7-2.9 5.5-5.7z"/><path class="k" d="m163.7 158.8c2.2-2.8-1.2-2.9-1.2-2.9 0.9-3.4-3.1-1.6-3.1-1.6-2.5-3.3-3.8 0.7-3.8 0.7-2.5-2.8-3 1.8-3 1.8-2.5-3.6-3.8 1.6-3.8 1.6-2.3-3.7-3.8 1.1-3.8 1.1-4.7-1.7-2.5 3.3-2.5 3.3-4.1 0.1-0.8 3.3-0.8 3.3-4.9 0-0.6 2.8-0.6 2.8-3.8 2.6 1 3.2 1 3.2-3.1 5 2.3 3.2 2.3 3.2-2.2 4.9 2.7 2.7 2.7 2.7-0.3 4.8 2.4 3.5 3.7 2.6 0.3 0.9 0.8 1.9 1.6 2.1 1.8 0.2 2.1-3 2.1-3 0 0 1.6 1.2 2.9 0.5 1.3-0.6 0.8-2.3 0.8-2.3 0 0 1 0.7 2 0 0.5-0.4 0.6-3.6-0.2-4.7l2.6-1.1c0 0 2-0.2 1.1-2.8-0.9-2.5-0.1-4.5-0.1-4.5 2.9-1.4 0.5-3.1 0.5-3.1 3.4-2.2-0.4-2.9-0.4-2.9z"/><path class="p" d="m158.4 171c0.4 1.6 1.5 3 2.6 3.8 1.6 1.2 2.8 0 2.7-1.9-0.1-1.6-1.1-4.3-2.9-4.7-1.8-0.5-2.8 1-2.4 2.8z"/></svg>