<svg version="1.2" xmlns="http://www.w3.org/2000/svg" viewBox="0 0 500 500" width="500" height="500">
	<title>set-password-svg</title>
	<style>
		.s0 { fill: #ebebeb } 
		.s1 { fill: #e0e0e0 } 
		.s2 { fill: #f0f0f0 } 
		.s3 { fill: #f5f5f5 } 
		.s4 { fill: #407bff } 
		.s5 { opacity: .6;fill: #ffffff } 
		.s6 { fill: #ffffff } 
		.s7 { fill: #263238 } 
		.s8 { opacity: .2;fill: #000000 } 
		.s9 { opacity: .2;fill: #ffffff } 
		.s10 { opacity: .3;fill: #ffffff } 
		.s11 { opacity: .4;fill: #ffffff } 
		.s12 { opacity: .5;fill: #000000 } 
		.s13 { fill: #b55b52 } 
		.s14 { opacity: .7;fill: #ffffff } 
		.s15 { fill: #a02724 } 
		.s16 { opacity: .6;fill: #000000 } 
		.s17 { opacity: .5;fill: #ffffff } 
		.s18 { fill: #000000 } 
	</style>
	<g id="Background_Complete">
		<g id="Layer">
			<path id="Layer" class="s0" d="m0 382.4h500v0.2h-500z"/>
			<path id="Layer" class="s0" d="m416.8 398.5h33.1v0.2h-33.1z"/>
			<path id="Layer" class="s0" d="m322.5 401.2h8.7v0.3h-8.7z"/>
			<path id="Layer" class="s0" d="m396.6 389.2h19.2v0.3h-19.2z"/>
			<path id="Layer" class="s0" d="m52.5 390.9h43.2v0.2h-43.2z"/>
			<path id="Layer" class="s0" d="m104.6 390.9h6.3v0.2h-6.3z"/>
			<path id="Layer" class="s0" d="m131.5 395.1h93.6v0.3h-93.6z"/>
		</g>
		<g id="Layer">
			<path id="Layer" fill-rule="evenodd" class="s1" d="m264.9 158.9v22.7l-11.7 1.1c-1.6 7.6-4.6 14.7-8.7 20.9l7.5 9.1-16 16-9.1-7.5c-6.3 4.2-13.3 7.2-20.9 8.7l-1.1 11.7h-22.7l-1.1-11.7c-7.6-1.5-14.7-4.5-21-8.7l-9 7.5-16.1-16 7.5-9.1c-4.1-6.2-7.1-13.3-8.7-20.9l-11.6-1.1v-22.7l11.6-1.1c1.6-7.6 4.6-14.7 8.7-20.9l-7.5-9.1 16.1-16 9 7.5c6.3-4.1 13.4-7.2 21-8.7l1.1-11.7h22.7l1.1 11.7c7.6 1.5 14.6 4.6 20.9 8.7l9.1-7.5 16 16-7.5 9.1c4.1 6.2 7.1 13.3 8.7 20.9zm-71.4-19.3c-16.9 0-30.7 13.7-30.7 30.7 0 16.9 13.8 30.7 30.7 30.7 17 0 30.7-13.8 30.7-30.7 0-17-13.7-30.7-30.7-30.7z"/>
			<path id="Layer" fill-rule="evenodd" class="s1" d="m303.2 260.4l-6.5 5.4-11.5-11.5 5.4-6.5c-3-4.6-5.2-9.6-6.3-15.1l-8.4-0.8v-16.3l8.4-0.8c1.1-5.4 3.3-10.5 6.3-15l-5.4-6.5 11.5-11.6 6.5 5.4c4.5-2.9 9.6-5.1 15.1-6.2l0.7-8.4h16.3l0.8 8.4c5.5 1.1 10.6 3.3 15.1 6.2l6.5-5.4 11.5 11.6-5.4 6.5c3 4.5 5.1 9.6 6.3 15l8.4 0.8v16.3l-8.4 0.8c-1.2 5.5-3.3 10.5-6.3 15.1l5.4 6.5-11.5 11.5-6.5-5.4c-4.5 3-9.6 5.1-15.1 6.3l-0.8 8.3h-16.3l-0.7-8.3c-5.5-1.2-10.6-3.3-15.1-6.3zm46-36.6c0-12.2-9.8-22.1-22-22.1-12.2 0-22.1 9.9-22.1 22.1 0 12.1 9.9 22 22.1 22 12.2 0 22-9.9 22-22z"/>
			<path id="Layer" fill-rule="evenodd" class="s2" d="m102.8 343.7l-3.3 2.8-5.9-5.9 2.8-3.3c-1.5-2.3-2.6-4.9-3.2-7.7l-4.3-0.4v-8.3l4.3-0.4c0.6-2.8 1.7-5.4 3.2-7.7l-2.8-3.3 5.9-5.9 3.3 2.8c2.3-1.5 4.9-2.6 7.7-3.2l0.4-4.3h8.3l0.4 4.3c2.8 0.6 5.4 1.7 7.7 3.2l3.3-2.8 5.9 5.9-2.8 3.3c1.6 2.3 2.7 4.9 3.2 7.7l4.3 0.4v8.3l-4.3 0.4c-0.5 2.8-1.6 5.4-3.2 7.7l2.8 3.3-5.9 5.9-3.3-2.8c-2.3 1.5-4.9 2.6-7.7 3.2l-0.4 4.3h-8.3l-0.4-4.3c-2.8-0.6-5.4-1.7-7.7-3.2zm23.5-18.6c0-6.3-5-11.3-11.2-11.3-6.2 0-11.3 5-11.3 11.3 0 6.2 5.1 11.2 11.3 11.2 6.2 0 11.2-5 11.2-11.2z"/>
			<path id="Layer" fill-rule="evenodd" class="s2" d="m402.9 323.5l-2.7 2.3-4.8-4.8 2.2-2.8c-1.2-1.9-2.1-4-2.6-6.3l-3.5-0.3v-6.9l3.5-0.3c0.5-2.3 1.4-4.4 2.6-6.3l-2.2-2.7 4.8-4.9 2.7 2.3c1.9-1.3 4.1-2.2 6.3-2.6l0.4-3.6h6.8l0.3 3.6c2.3 0.4 4.5 1.3 6.4 2.6l2.7-2.3 4.8 4.9-2.2 2.7c1.2 1.9 2.1 4 2.6 6.3l3.5 0.3v6.9l-3.5 0.3c-0.5 2.3-1.4 4.4-2.6 6.3l2.2 2.8-4.8 4.8-2.7-2.3c-1.9 1.3-4.1 2.2-6.3 2.7l-0.4 3.5h-6.8l-0.4-3.5c-2.2-0.5-4.4-1.4-6.3-2.7zm19.4-15.3c0-5.2-4.2-9.3-9.3-9.3-5.1 0-9.3 4.1-9.3 9.3 0 5.1 4.2 9.2 9.3 9.2 5.1 0 9.3-4.1 9.3-9.2z"/>
			<path id="Layer" fill-rule="evenodd" class="s1" d="m230.8 370.8c-6.5-1.4-12.6-4-17.9-7.5l-7.8 6.4-13.7-13.7 6.4-7.7c-3.5-5.4-6.1-11.5-7.4-18l-10-0.9v-19.4l10-0.9c1.3-6.5 3.9-12.6 7.4-18l-6.4-7.7 13.7-13.7 7.8 6.4c5.3-3.5 11.4-6.1 17.9-7.5l0.9-9.9h19.4l1 9.9c6.5 1.4 12.5 4 17.9 7.5l7.7-6.4 13.7 13.7-6.4 7.7c3.6 5.4 6.1 11.5 7.5 18l10 0.9v19.4l-10 0.9c-1.4 6.5-3.9 12.6-7.5 18l6.4 7.7-13.7 13.7-7.7-6.4c-5.4 3.5-11.4 6.1-17.9 7.5l-1 10h-19.4zm36.9-51.1c0-14.5-11.7-26.3-26.2-26.3-14.5 0-26.3 11.8-26.3 26.3 0 14.5 11.8 26.3 26.3 26.3 14.5 0 26.2-11.8 26.2-26.3z"/>
			<path id="Layer" fill-rule="evenodd" class="s2" d="m343.4 343.5l11.8 22.4-34.3 18-11.8-22.3 3.3-1.8-1.1-1.9c-3.3-6.4-0.8-14.3 5.5-17.6l4.7-2.5c6.4-3.3 14.3-0.9 17.6 5.5l1.1 2zm-10.3 16.1c-0.7-1.4-2.4-1.9-3.8-1.2-1.3 0.7-1.8 2.4-1.1 3.8 0.4 0.9 1.3 1.3 2.3 1.4l2 3.9 2.5-1.3-2-3.9c0.4-0.8 0.5-1.8 0.1-2.7zm0.8-13.7c-1.8-3.5-6.2-4.9-9.7-3l-4.7 2.4c-3.6 1.9-4.9 6.3-3.1 9.8l1.1 2 17.4-9.2z"/>
			<path id="Layer" fill-rule="evenodd" class="s2" d="m103.8 227.6l-8.3 23.8-36.6-12.7 8.3-23.8 3.5 1.2 0.7-2.1c2.3-6.8 9.8-10.4 16.6-8.1l5 1.8c6.8 2.3 10.4 9.8 8 16.6l-0.7 2.1zm-18.8 3.5c0.5-1.5-0.3-3-1.7-3.5-1.4-0.5-3 0.2-3.5 1.7-0.4 0.9-0.1 1.9 0.5 2.6l-1.5 4.2 2.7 0.9 1.5-4.2c0.9-0.1 1.7-0.8 2-1.7zm10.6-8.8c1.3-3.7-0.7-7.8-4.5-9.2l-5-1.7c-3.8-1.3-7.9 0.7-9.2 4.5l-0.7 2.1 18.6 6.4z"/>
			<path id="Layer" class="s2" d="m427.9 214.7l-2.1-0.7c4.7-0.9 8.8-4.2 10.3-9 2.3-7-1.6-14.5-8.6-16.8-7-2.2-14.5 1.7-16.7 8.7-1.6 4.9-0.1 9.9 3.2 13.3l-2.1-0.6c-6.5-2.1-13.5 1.5-15.6 8l-2.1 6.7 39.6 12.6 2.2-6.7c2-6.5-1.6-13.5-8.1-15.5z"/>
			<path id="Layer" class="s2" d="m284.2 93.9l-1.3 0.6c1.9-2.4 2.5-5.7 1.3-8.8-1.9-4.3-6.9-6.4-11.3-4.6-4.3 1.9-6.4 6.9-4.5 11.3 1.2 3 4.1 4.9 7.1 5.1l-1.3 0.6c-4.1 1.7-6 6.4-4.3 10.4l1.8 4.2 24.7-10.3-1.8-4.2c-1.7-4.1-6.4-6-10.4-4.3z"/>
			<path id="Layer" class="s2" d="m105.5 122l-1.4-0.3c2.9-0.8 5.4-3.2 6-6.4 1-4.7-2-9.2-6.6-10.2-4.7-0.9-9.2 2-10.2 6.7-0.6 3.2 0.6 6.3 3 8.3l-1.4-0.3c-4.3-0.9-8.5 1.9-9.4 6.2l-1 4.4 26.2 5.5 1-4.5c0.9-4.3-1.9-8.5-6.2-9.4z"/>
		</g>
	</g>
	<g id="Shadow_1_">
		<path id="_x3C_Path_x3E__359_" class="s3" d="m250 427.6c-107.2 0-193.9-5.1-193.9-11.4 0-6.2 86.7-11.3 193.9-11.3 107.2 0 193.9 5.1 193.9 11.3 0 6.3-86.7 11.4-193.9 11.4z"/>
	</g>
	<g id="Interface">
		<g id="Layer">
			<path id="Layer" class="s4" d="m369.2 367.7h-178.9c-4.1 0-7.4-3.2-7.4-7.3v-219.7c0-4 3.3-7.3 7.4-7.3h178.9c4 0 7.3 3.3 7.3 7.3v219.7c0 4.1-3.3 7.3-7.3 7.3z"/>
			<path id="Layer" class="s5" d="m369.2 367.7h-178.9c-4.1 0-7.4-3.2-7.4-7.3v-219.7c0-4 3.3-7.3 7.4-7.3h178.9c4 0 7.3 3.3 7.3 7.3v219.7c0 4.1-3.3 7.3-7.3 7.3z"/>
			<g id="Layer">
				<path id="Layer" class="s6" d="m214.3 254.8h130.8v22.4h-130.8z"/>
				<g id="Layer" style="opacity: .4">
					<path id="Layer" class="s7" d="m220.9 266.5c0-1.9 1.4-3.2 3.4-3.2 0.9 0 1.7 0.3 2.3 0.9l-0.4 0.4c-0.5-0.5-1.2-0.7-1.9-0.7-1.6 0-2.7 1.1-2.7 2.6 0 1.6 1.1 2.7 2.7 2.7 0.7 0 1.4-0.2 1.9-0.8l0.4 0.4c-0.6 0.7-1.4 1-2.3 1-2 0-3.4-1.4-3.4-3.3z"/>
					<path id="Layer" fill-rule="evenodd" class="s7" d="m227.2 267.3c0-1.4 1.1-2.4 2.5-2.4 1.4 0 2.4 1 2.4 2.4 0 1.5-1 2.5-2.4 2.5-1.4 0-2.5-1-2.5-2.5zm4.3 0c0-1.1-0.8-1.9-1.8-1.9-1 0-1.8 0.8-1.8 1.9 0 1.2 0.8 1.9 1.8 1.9 1 0 1.8-0.7 1.8-1.9z"/>
					<path id="Layer" class="s7" d="m237.9 266.9v2.8h-0.7v-2.7c0-1-0.5-1.5-1.4-1.5-1 0-1.7 0.6-1.7 1.7v2.5h-0.6v-4.8h0.6v0.9c0.3-0.6 1-0.9 1.8-0.9 1.2 0 2 0.7 2 2z"/>
					<path id="Layer" class="s7" d="m241.2 262.9c0.4 0 0.8 0.1 1 0.3l-0.2 0.5q-0.3-0.3-0.7-0.3-0.9 0-0.9 0.9v0.6h1.5v0.6h-1.5v4.2h-0.6v-4.2h-0.9v-0.6h0.9v-0.6c0-0.8 0.5-1.4 1.4-1.4zm3.1 0.5c0 0.2-0.2 0.5-0.5 0.5-0.2 0-0.4-0.3-0.4-0.5 0-0.3 0.2-0.5 0.4-0.5 0.3 0 0.5 0.2 0.5 0.5zm-0.8 1.5h0.7v4.8h-0.7z"/>
					<path id="Layer" class="s7" d="m248.4 264.9v0.6q-0.1 0-0.1 0c-1.1 0-1.7 0.6-1.7 1.8v2.4h-0.6v-4.8h0.6v1q0.5-1 1.8-1z"/>
					<path id="Layer" class="s7" d="m257.5 266.9v2.8h-0.6v-2.7c0-1-0.5-1.5-1.4-1.5-1 0-1.6 0.6-1.6 1.7v2.5h-0.7v-2.7c0-1-0.5-1.5-1.4-1.5-0.9 0-1.6 0.6-1.6 1.7v2.5h-0.6v-4.8h0.6v0.9c0.3-0.6 1-0.9 1.8-0.9 0.8 0 1.4 0.3 1.7 1 0.3-0.6 1-1 1.9-1 1.2 0 1.9 0.7 1.9 2z"/>
					<path id="Layer" class="s7" d="m267.2 263.3v6.4h-0.5l-4.2-5.2v5.2h-0.6v-6.4h0.5l4.2 5.2v-5.2z"/>
					<path id="Layer" fill-rule="evenodd" class="s7" d="m273.4 267.5h-4.1c0.1 1 0.9 1.7 1.9 1.7 0.6 0 1.1-0.2 1.5-0.6l0.4 0.4c-0.5 0.5-1.1 0.8-1.9 0.8-1.5 0-2.5-1-2.5-2.5 0-1.4 1-2.4 2.3-2.4 1.4 0 2.4 1 2.4 2.4q0 0.1 0 0.2zm-4.1-0.5h3.5c-0.1-0.9-0.8-1.6-1.8-1.6-0.9 0-1.6 0.7-1.7 1.6z"/>
					<path id="Layer" class="s7" d="m281.7 264.9l-1.8 4.8h-0.6l-1.6-3.9-1.5 3.9h-0.6l-1.8-4.8h0.6l1.5 4.1 1.6-4.1h0.5l1.6 4.1 1.5-4.1z"/>
					<path id="Layer" fill-rule="evenodd" class="s7" d="m290.2 265.5c0 1.4-0.9 2.2-2.6 2.2h-1.7v2h-0.7v-6.4h2.4c1.7 0 2.6 0.8 2.6 2.2zm-0.6 0c0-1-0.7-1.6-2-1.6h-1.7v3.2h1.7c1.3 0 2-0.6 2-1.6z"/>
					<path id="Layer" fill-rule="evenodd" class="s7" d="m295.2 266.7v3h-0.7v-0.7c-0.2 0.5-0.8 0.8-1.6 0.8-1.1 0-1.8-0.6-1.8-1.4 0-0.8 0.5-1.4 1.9-1.4h1.5v-0.3c0-0.8-0.4-1.3-1.3-1.3-0.7 0-1.3 0.3-1.7 0.6l-0.2-0.5c0.4-0.4 1.2-0.6 1.9-0.6 1.3 0 2 0.6 2 1.8zm-0.7 1.6v-0.8h-1.5c-0.9 0-1.2 0.4-1.2 0.9 0 0.5 0.4 0.9 1.2 0.9 0.7 0 1.3-0.4 1.5-1z"/>
					<path id="Layer" class="s7" d="m296.3 269.2l0.3-0.5c0.4 0.3 1 0.5 1.7 0.5 0.9 0 1.3-0.3 1.3-0.8 0-1.2-3.2-0.2-3.2-2.1 0-0.8 0.7-1.4 2-1.4 0.6 0 1.3 0.2 1.7 0.4l-0.3 0.5c-0.4-0.2-0.9-0.4-1.4-0.4-0.9 0-1.3 0.4-1.3 0.8 0 1.3 3.1 0.4 3.1 2.2 0 0.8-0.7 1.4-2 1.4-0.8 0-1.5-0.3-1.9-0.6z"/>
					<path id="Layer" class="s7" d="m300.8 269.2l0.3-0.5c0.3 0.3 1 0.5 1.7 0.5 0.9 0 1.3-0.3 1.3-0.8 0-1.2-3.2-0.2-3.2-2.1 0-0.8 0.7-1.4 1.9-1.4 0.7 0 1.3 0.2 1.7 0.4l-0.2 0.5c-0.5-0.2-1-0.4-1.5-0.4-0.8 0-1.2 0.4-1.2 0.8 0 1.3 3.1 0.4 3.1 2.2 0 0.8-0.7 1.4-2 1.4-0.8 0-1.5-0.3-1.9-0.6z"/>
					<path id="Layer" class="s7" d="m312.9 264.9l-1.8 4.8h-0.6l-1.6-3.9-1.5 3.9h-0.6l-1.8-4.8h0.6l1.5 4.1 1.6-4.1h0.5l1.6 4.1 1.5-4.1z"/>
					<path id="Layer" fill-rule="evenodd" class="s7" d="m313.3 267.3c0-1.4 1-2.4 2.4-2.4 1.4 0 2.5 1 2.5 2.4 0 1.5-1.1 2.5-2.5 2.5-1.4 0-2.4-1-2.4-2.5zm4.2 0c0-1.1-0.8-1.9-1.8-1.9-1 0-1.8 0.8-1.8 1.9 0 1.2 0.8 1.9 1.8 1.9 1 0 1.8-0.7 1.8-1.9z"/>
					<path id="Layer" class="s7" d="m321.9 264.9v0.6q-0.1 0-0.1 0c-1 0-1.7 0.6-1.7 1.8v2.4h-0.6v-4.8h0.6v1q0.5-1 1.8-1z"/>
					<path id="Layer" fill-rule="evenodd" class="s7" d="m327.5 262.9v6.8h-0.7v-0.9c-0.4 0.6-1 1-1.8 1-1.4 0-2.4-1-2.4-2.5 0-1.4 1-2.4 2.4-2.4 0.7 0 1.4 0.3 1.8 0.9v-2.9c0 0 0.7 0 0.7 0zm-0.7 4.4c0-1.1-0.8-1.9-1.8-1.9-1 0-1.8 0.8-1.8 1.9 0 1.2 0.8 1.9 1.8 1.9 1 0 1.8-0.7 1.8-1.9z"/>
				</g>
			</g>
			<path id="Layer" class="s8" d="m214.3 284.6h130.8v22.4h-130.8z"/>
			<g id="Layer" style="opacity: .5">
			</g>
			<path id="Layer" class="s4" d="m214.3 284.2h130.8v22.4h-130.8z"/>
			<g id="Layer">
				<path id="Layer" class="s6" d="m242.8 298l0.4-0.8c0.6 0.5 1.6 0.9 2.6 0.9 1.3 0 1.9-0.5 1.9-1.2 0-1.9-4.7-0.7-4.7-3.5 0-1.2 0.9-2.2 3-2.2 0.9 0 1.8 0.2 2.4 0.6l-0.3 0.9c-0.7-0.4-1.5-0.6-2.1-0.6-1.4 0-1.9 0.5-1.9 1.2 0 1.9 4.6 0.7 4.6 3.5 0 1.2-0.9 2.2-2.9 2.2-1.2 0-2.4-0.4-3-1z"/>
				<path id="Layer" fill-rule="evenodd" class="s6" d="m255.4 296.4h-4.7c0.1 1 1 1.7 2.1 1.7q1 0 1.7-0.7l0.6 0.6c-0.6 0.7-1.4 1-2.3 1-1.9 0-3.1-1.3-3.1-3 0-1.7 1.2-2.9 2.9-2.9 1.6 0 2.8 1.2 2.8 2.9 0 0.1 0 0.3 0 0.4zm-4.7-0.8h3.7c-0.1-1-0.8-1.7-1.8-1.7-1 0-1.8 0.7-1.9 1.7z"/>
				<path id="Layer" class="s6" d="m260.2 298.6c-0.4 0.3-0.8 0.4-1.3 0.4-1.2 0-1.8-0.7-1.8-1.8v-3.2h-1v-0.9h1v-1.3h1v1.3h1.7v0.9h-1.7v3.1c0 0.6 0.3 1 0.9 1 0.3 0 0.6-0.1 0.8-0.3z"/>
				<path id="Layer" fill-rule="evenodd" class="s6" d="m270.7 293.9c0 1.7-1.2 2.7-3.2 2.7h-1.9v2.3h-1.1v-7.7h3c2 0 3.2 1.1 3.2 2.7zm-1.1 0c0-1.1-0.7-1.7-2.1-1.7h-1.9v3.4h1.9c1.4 0 2.1-0.6 2.1-1.7z"/>
				<path id="Layer" fill-rule="evenodd" class="s6" d="m276.7 295.4v3.5h-1v-0.8c-0.3 0.6-1 0.9-1.9 0.9-1.3 0-2.1-0.7-2.1-1.7 0-1 0.6-1.7 2.3-1.7h1.7v-0.2c0-0.9-0.5-1.4-1.6-1.4-0.7 0-1.4 0.2-1.8 0.6l-0.4-0.8c0.6-0.5 1.4-0.7 2.4-0.7 1.5 0 2.4 0.7 2.4 2.3zm-1 1.7v-0.8h-1.6c-1.1 0-1.4 0.4-1.4 0.9 0 0.6 0.5 1 1.3 1 0.8 0 1.4-0.4 1.7-1.1z"/>
				<path id="Layer" class="s6" d="m278 298.3l0.4-0.8c0.5 0.3 1.3 0.6 2 0.6 1 0 1.4-0.3 1.4-0.8 0-1.3-3.7-0.2-3.7-2.5 0-1 1-1.7 2.5-1.7 0.7 0 1.6 0.2 2.1 0.5l-0.5 0.8c-0.5-0.3-1.1-0.4-1.6-0.4-1 0-1.4 0.3-1.4 0.8 0 1.3 3.7 0.2 3.7 2.5 0 1-1 1.7-2.5 1.7-1 0-2-0.3-2.4-0.7z"/>
				<path id="Layer" class="s6" d="m283.4 298.3l0.5-0.8c0.5 0.3 1.3 0.6 2 0.6 1 0 1.4-0.3 1.4-0.8 0-1.3-3.7-0.2-3.7-2.5 0-1 1-1.7 2.5-1.7 0.7 0 1.6 0.2 2.1 0.5l-0.5 0.8c-0.5-0.3-1.1-0.4-1.7-0.4-0.9 0-1.3 0.3-1.3 0.8 0 1.3 3.7 0.2 3.7 2.5 0 1-1 1.7-2.6 1.7-0.9 0-1.9-0.3-2.3-0.7z"/>
				<path id="Layer" class="s6" d="m298.4 293.1l-2.2 5.8h-1l-1.7-4.4-1.7 4.4h-1l-2.2-5.8h1l1.7 4.6 1.8-4.6h0.9l1.7 4.7 1.7-4.7z"/>
				<path id="Layer" fill-rule="evenodd" class="s6" d="m298.7 296c0-1.7 1.3-2.9 3-2.9 1.8 0 3.1 1.2 3.1 2.9 0 1.7-1.3 3-3.1 3-1.7 0-3-1.3-3-3zm5 0c0-1.2-0.8-2-2-2-1.1 0-1.9 0.8-1.9 2 0 1.3 0.8 2.1 1.9 2.1 1.2 0 2-0.8 2-2.1z"/>
				<path id="Layer" class="s6" d="m309.3 293.1v1q-0.1 0-0.2 0c-1.1 0-1.8 0.7-1.8 1.9v2.9h-1.1v-5.8h1v1q0.6-1 2.1-1z"/>
				<path id="Layer" fill-rule="evenodd" class="s6" d="m316.1 290.8v8.1h-1v-0.9c-0.5 0.7-1.3 1-2.1 1-1.7 0-3-1.2-3-3 0-1.8 1.3-2.9 3-2.9 0.8 0 1.5 0.3 2 0.9v-3.2zm-1 5.2c0-1.2-0.9-2-2-2-1.1 0-1.9 0.8-1.9 2 0 1.3 0.8 2.1 1.9 2.1 1.1 0 2-0.8 2-2.1z"/>
			</g>
			<g id="Layer" style="opacity: .6">
				<path id="Layer" fill-rule="evenodd" class="s7" d="m238.4 203.2l-1.8-2.6q-0.3 0-0.5 0h-2.1v2.6h-1.2v-8.4h3.3c2.2 0 3.5 1.1 3.5 2.9 0 1.3-0.7 2.2-1.9 2.7l2 2.8zm0-5.5c0-1.2-0.8-1.9-2.4-1.9h-2v3.8h2c1.6 0 2.4-0.7 2.4-1.9z"/>
				<path id="Layer" fill-rule="evenodd" class="s7" d="m247.1 200.4h-5.2c0.2 1.1 1.1 1.8 2.3 1.8q1.1 0 1.9-0.7l0.6 0.7c-0.6 0.7-1.5 1-2.5 1-2.1 0-3.4-1.3-3.4-3.2 0-1.9 1.3-3.2 3.2-3.2 1.8 0 3.1 1.3 3.1 3.2 0 0.1 0 0.3 0 0.4zm-5.2-0.9h4.1c-0.1-1-0.9-1.8-2-1.8-1.1 0-2 0.8-2.1 1.8z"/>
				<path id="Layer" class="s7" d="m247.9 202.5l0.5-0.9c0.5 0.4 1.4 0.6 2.2 0.6 1.1 0 1.5-0.3 1.5-0.8 0-1.4-4-0.2-4-2.7 0-1.2 1-1.9 2.6-1.9 0.9 0 1.8 0.2 2.4 0.5l-0.5 0.9c-0.6-0.3-1.2-0.5-1.9-0.5-1 0-1.5 0.4-1.5 0.9 0 1.5 4.1 0.3 4.1 2.8 0 1.1-1.1 1.8-2.8 1.8-1 0-2.1-0.3-2.6-0.7z"/>
				<path id="Layer" fill-rule="evenodd" class="s7" d="m260.4 200.4h-5.1c0.1 1.1 1 1.8 2.3 1.8q1.1 0 1.8-0.7l0.6 0.7c-0.5 0.7-1.4 1-2.5 1-2 0-3.4-1.3-3.4-3.2 0-1.9 1.4-3.2 3.2-3.2 1.8 0 3.2 1.3 3.2 3.2 0 0.1-0.1 0.3-0.1 0.4zm-5.1-0.9h4c-0.1-1-0.9-1.8-2-1.8-1.1 0-1.9 0.8-2 1.8z"/>
				<path id="Layer" class="s7" d="m265.6 202.8c-0.3 0.3-0.8 0.4-1.4 0.4-1.2 0-2-0.7-2-1.9v-3.5h-1.1v-1h1.1v-1.4h1.2v1.4h1.8v1h-1.8v3.4c0 0.7 0.3 1.1 1 1.1 0.3 0 0.6-0.1 0.9-0.3z"/>
				<path id="Layer" fill-rule="evenodd" class="s7" d="m277.2 199.7c0 1.8-1.3 2.9-3.5 2.9h-2.1v2.6h-1.2v-8.4h3.3c2.2 0 3.5 1.1 3.5 2.9zm-1.2 0c0-1.2-0.8-1.9-2.3-1.9h-2.1v3.8h2.1c1.5 0 2.3-0.7 2.3-1.9z"/>
				<path id="Layer" fill-rule="evenodd" class="s7" d="m283.8 199.3v3.9h-1.1v-0.9c-0.4 0.6-1.1 0.9-2.1 0.9-1.4 0-2.4-0.7-2.4-1.8 0-1 0.7-1.9 2.6-1.9h1.8v-0.2c0-1-0.5-1.6-1.7-1.6-0.7 0-1.5 0.3-2 0.7l-0.5-0.8c0.7-0.6 1.6-0.8 2.6-0.8 1.8 0 2.8 0.8 2.8 2.5zm-1.2 1.9v-0.9h-1.8c-1.1 0-1.4 0.5-1.4 1 0 0.7 0.5 1.1 1.4 1.1 0.8 0 1.5-0.4 1.8-1.2z"/>
				<path id="Layer" class="s7" d="m285.1 202.5l0.5-0.9c0.5 0.4 1.4 0.6 2.2 0.6 1.1 0 1.5-0.3 1.5-0.8 0-1.4-4-0.2-4-2.7 0-1.2 1-1.9 2.7-1.9 0.8 0 1.7 0.2 2.3 0.5l-0.5 0.9c-0.6-0.3-1.2-0.5-1.9-0.5-1 0-1.5 0.4-1.5 0.9 0 1.5 4.1 0.3 4.1 2.8 0 1.1-1.1 1.8-2.8 1.8-1 0-2.1-0.3-2.6-0.7z"/>
				<path id="Layer" class="s7" d="m291.1 202.5l0.5-0.9c0.5 0.4 1.4 0.6 2.2 0.6 1.1 0 1.5-0.3 1.5-0.8 0-1.4-4-0.2-4-2.7 0-1.2 1-1.9 2.7-1.9 0.8 0 1.7 0.2 2.3 0.5l-0.5 0.9c-0.6-0.3-1.2-0.5-1.8-0.5-1 0-1.5 0.4-1.5 0.9 0 1.5 4 0.3 4 2.8 0 1.1-1.1 1.8-2.8 1.8-1 0-2.1-0.3-2.6-0.7z"/>
				<path id="Layer" class="s7" d="m307.4 196.8l-2.3 6.4h-1.1l-1.9-4.9-1.8 4.9h-1.1l-2.4-6.4h1.1l1.8 5.1 1.9-5.1h1l1.9 5.1 1.9-5.1z"/>
				<path id="Layer" fill-rule="evenodd" class="s7" d="m307.8 200c0-1.9 1.4-3.2 3.3-3.2 1.9 0 3.3 1.3 3.3 3.2 0 1.9-1.4 3.2-3.3 3.2-1.9 0-3.3-1.3-3.3-3.2zm5.5 0c0-1.4-0.9-2.2-2.2-2.2-1.2 0-2.1 0.8-2.1 2.2 0 1.3 0.9 2.2 2.1 2.2 1.3 0 2.2-0.9 2.2-2.2z"/>
				<path id="Layer" class="s7" d="m319.5 196.8v1.1q-0.2 0-0.3 0c-1.2 0-2 0.7-2 2.1v3.2h-1.2v-6.4h1.1v1.1c0.5-0.8 1.2-1.1 2.4-1.1z"/>
				<path id="Layer" fill-rule="evenodd" class="s7" d="m326.8 203.2h-1.1v-1c-0.5 0.7-1.3 1-2.3 1-1.8 0-3.2-1.3-3.2-3.2 0-2 1.4-3.2 3.2-3.2 0.9 0 1.7 0.3 2.3 1v-3.5c0 0 1.1 0 1.1 0zm-1.1-3.2c0-1.4-1-2.2-2.2-2.2-1.2 0-2.1 0.8-2.1 2.2 0 1.3 0.9 2.2 2.1 2.2 1.2 0 2.2-0.9 2.2-2.2z"/>
			</g>
			<g id="Layer">
				<path id="Layer" class="s6" d="m214.3 224.2h130.8v22.4h-130.8z"/>
				<g id="Layer" style="opacity: .4">
					<path id="Layer" class="s7" d="m226.8 232.7v6.4h-0.5l-4.2-5.2v5.2h-0.6v-6.4h0.5l4.2 5.2v-5.2z"/>
					<path id="Layer" fill-rule="evenodd" class="s7" d="m233 236.9h-4.1c0.1 1 0.9 1.7 1.9 1.7 0.6 0 1.2-0.2 1.5-0.6l0.4 0.4c-0.4 0.5-1.1 0.8-1.9 0.8-1.5 0-2.5-1-2.5-2.5 0-1.4 1-2.4 2.4-2.4 1.3 0 2.3 1 2.3 2.4q0 0.1 0 0.2zm-4.1-0.5h3.5c-0.1-0.9-0.8-1.6-1.7-1.6-1 0-1.7 0.7-1.8 1.6z"/>
					<path id="Layer" class="s7" d="m241.3 234.3l-1.8 4.8h-0.6l-1.6-3.9-1.5 3.9h-0.6l-1.8-4.8h0.6l1.5 4.1 1.6-4.1h0.5l1.6 4.1 1.5-4.1z"/>
					<path id="Layer" fill-rule="evenodd" class="s7" d="m249.9 235.9c0 1.4-1 2.2-2.7 2.2h-1.7v2h-0.7v-6.4h2.4c1.7 0 2.7 0.8 2.7 2.2zm-0.7 0c0-1-0.7-1.6-2-1.6h-1.7v3.2h1.7c1.3 0 2-0.6 2-1.6z"/>
					<path id="Layer" fill-rule="evenodd" class="s7" d="m254.8 236.1v3h-0.6v-0.7c-0.3 0.5-0.9 0.8-1.7 0.8-1.1 0-1.8-0.6-1.8-1.4 0-0.8 0.5-1.4 1.9-1.4h1.5v-0.3c0-0.8-0.4-1.3-1.3-1.3-0.7 0-1.2 0.3-1.6 0.6l-0.3-0.5c0.5-0.4 1.2-0.6 1.9-0.6 1.3 0 2 0.6 2 1.8zm-0.7 1.6v-0.8h-1.5c-0.9 0-1.2 0.4-1.2 0.9 0 0.5 0.4 0.9 1.2 0.9 0.7 0 1.3-0.4 1.5-1z"/>
					<path id="Layer" class="s7" d="m255.9 238.6l0.3-0.5c0.4 0.3 1 0.5 1.7 0.5 0.9 0 1.3-0.3 1.3-0.8 0-1.2-3.1-0.2-3.1-2.2 0-0.7 0.6-1.3 1.9-1.3 0.6 0 1.3 0.1 1.7 0.4l-0.3 0.5c-0.4-0.3-0.9-0.4-1.4-0.4-0.9 0-1.3 0.4-1.3 0.8 0 1.3 3.1 0.3 3.1 2.2 0 0.8-0.7 1.4-2 1.4-0.8 0-1.5-0.3-1.9-0.6z"/>
					<path id="Layer" class="s7" d="m260.4 238.6l0.3-0.5c0.3 0.3 1 0.5 1.7 0.5 0.9 0 1.3-0.3 1.3-0.8 0-1.2-3.2-0.2-3.2-2.2 0-0.7 0.7-1.3 2-1.3 0.6 0 1.3 0.1 1.7 0.4l-0.3 0.5c-0.4-0.3-1-0.4-1.4-0.4-0.9 0-1.3 0.4-1.3 0.8 0 1.3 3.1 0.3 3.1 2.2 0 0.8-0.7 1.4-2 1.4-0.8 0-1.5-0.3-1.9-0.6z"/>
					<path id="Layer" class="s7" d="m272.5 234.3l-1.8 4.8h-0.6l-1.6-3.9-1.5 3.9h-0.6l-1.8-4.8h0.6l1.5 4.1 1.6-4.1h0.5l1.6 4.1 1.5-4.1z"/>
					<path id="Layer" fill-rule="evenodd" class="s7" d="m272.9 236.7c0-1.4 1-2.4 2.4-2.4 1.4 0 2.5 1 2.5 2.4 0 1.5-1.1 2.5-2.5 2.5-1.4 0-2.4-1-2.4-2.5zm4.2 0c0-1.1-0.7-1.9-1.8-1.9-1 0-1.8 0.8-1.8 1.9 0 1.1 0.8 1.9 1.8 1.9 1.1 0 1.8-0.8 1.8-1.9z"/>
					<path id="Layer" class="s7" d="m281.5 234.3v0.6q0 0-0.1 0c-1 0-1.6 0.6-1.6 1.8v2.4h-0.7v-4.8h0.6v1q0.5-1 1.8-1z"/>
					<path id="Layer" fill-rule="evenodd" class="s7" d="m287.1 232.3v6.8h-0.7v-0.9c-0.4 0.6-1 1-1.8 1-1.4 0-2.4-1-2.4-2.5 0-1.4 1-2.4 2.4-2.4 0.7 0 1.4 0.3 1.8 0.9v-2.9zm-0.6 4.4c0-1.1-0.8-1.9-1.8-1.9-1 0-1.8 0.8-1.8 1.9 0 1.1 0.8 1.9 1.8 1.9 1 0 1.8-0.8 1.8-1.9z"/>
				</g>
			</g>
			<g id="Layer">
				<g id="Layer" style="opacity: .4">
				</g>
			</g>
		</g>
	</g>
	<g id="Plant">
		<g id="Layer">
			<path id="Layer" class="s4" d="m398.6 376.2c0 0-6.2 0.8-8.9 0-2.6-0.8-1.6-12.8-4.3-13.1-6.2-0.5-5.2 15.4-2.5 18.7 2.6 3.4 16.2 2 16.2 2z"/>
			<path id="Layer" class="s9" d="m398.6 376.2c0 0-6.2 0.8-8.9 0-2.6-0.8-1.6-12.8-4.3-13.1-6.2-0.5-5.2 15.4-2.5 18.7 2.6 3.4 16.2 2 16.2 2z"/>
			<path id="Layer" class="s4" d="m399.1 404.4c0 0-9.2-81.2 1.7-82.2 11-0.9 13.6 27.7 9.4 81.2z"/>
			<path id="Layer" class="s10" d="m399.1 404.4c0 0-9.2-81.2 1.7-82.2 11-0.9 13.6 27.7 9.4 81.2z"/>
			<g id="Layer">
				<path id="Layer" class="s7" d="m386.2 394.6h36l-3 23h-30z"/>
			</g>
			<path id="Layer" class="s4" d="m409.9 348.9c0 0 10 0.5 10.3 0 0.3-0.6 0.3-12.1 4.5-11.4 4.2 0.7 2.4 14.5 0 16.1-2.4 1.7-14.8 2.5-14.8 2.5 0 0-1.6-5.1 0-7.2z"/>
			<path id="Layer" class="s11" d="m409.9 348.9c0 0 10 0.5 10.3 0 0.3-0.6 0.3-12.1 4.5-11.4 4.2 0.7 2.4 14.5 0 16.1-2.4 1.7-14.8 2.5-14.8 2.5 0 0-1.6-5.1 0-7.2z"/>
			<g id="Layer">
				<path id="Layer" class="s4" d="m403.6 397c-1.4-12.4-2.5-24.8-3.3-37.2q-0.7-9.4-0.9-18.7c0-3.1 0-6.2 0.1-9.4 0.1-1.5 0.2-3.1 0.5-4.7 0.1-0.7 0.3-1.5 0.5-2.3 0.2-0.4 0.3-0.8 0.6-1.2q0.1-0.1 0.2-0.2 0.2-0.2 0.4-0.2 0.1-0.1 0.2-0.1 0.1 0 0.3 0c0.1 0 0.3 0.1 0.4 0.1 0.5 0.4 0.6 0.8 0.8 1.2q0.2 0.5 0.4 1.1 0.3 1.2 0.5 2.3 0.4 2.3 0.7 4.7c0.3 3.1 0.6 6.2 0.8 9.3q0.6 9.3 0.8 18.7 0.2 9.3 0.3 18.6 0 9.4-0.1 18.7-0.1-9.3-0.3-18.7-0.2-9.3-0.5-18.6c-0.2-6.2-0.5-12.5-0.9-18.7-0.2-3.1-0.5-6.2-0.8-9.3-0.2-1.5-0.4-3-0.7-4.5q-0.2-1.2-0.5-2.3-0.2-0.5-0.4-1c-0.2-0.4-0.4-0.7-0.5-0.8-0.1 0-0.1-0.1-0.1-0.1q0 0.1-0.1 0 0 0.1 0 0.1-0.1 0-0.1 0.1-0.1 0-0.2 0.1c-0.2 0.3-0.3 0.6-0.4 1-0.3 0.7-0.4 1.4-0.6 2.2-0.2 1.5-0.3 3-0.4 4.6-0.2 3.1-0.2 6.2-0.1 9.3 0 6.2 0.3 12.4 0.7 18.6q0.5 9.4 1.2 18.7 0.7 9.3 1.5 18.6z"/>
			</g>
			<g id="Layer">
				<path id="Layer" class="s4" d="m411.2 351.6l5.8-0.5c0.9 0 1.9-0.1 2.8-0.2q0.7-0.1 1.4-0.3c0.2 0 0.5-0.1 0.6-0.2 0 0 0.1 0 0 0 0 0 0 0 0 0.1 0 0 0 0.1 0 0.1 0-0.2-0.1-0.3-0.1-0.5 0.2-2 0.6-3.9 1-5.8 0.4-1.8 0.8-3.7 1.5-5.6q-0.3 1.5-0.5 2.9l-0.4 2.9-0.5 2.8c-0.1 1-0.3 1.9-0.3 2.8 0 0.1 0 0.2 0 0.3 0.1 0 0.1 0.2 0 0.3 0 0.1 0 0.1-0.1 0.2-0.1 0.1-0.1 0.1-0.2 0.2-0.3 0.2-0.6 0.2-0.8 0.3q-0.8 0.1-1.5 0.2-1.5 0.1-2.9 0.1-2.9 0.1-5.8-0.1z"/>
			</g>
			<g id="Layer">
				<path id="Layer" class="s4" d="m411.2 354.2c2.1-0.3 4.3-0.6 6.5-0.9l3.3-0.5c1-0.2 2.2-0.3 3.1-0.6 0 0 0.2-0.2 0.3-0.5q0.1-0.3 0.2-0.7 0.2-0.8 0.4-1.6c0.1-1 0.2-2.1 0.4-3.2 0.2-2.2 0.4-4.4 0.6-6.6q0.2 3.3 0 6.6-0.1 1.7-0.3 3.3-0.2 0.9-0.4 1.7-0.1 0.4-0.2 0.8c-0.2 0.3-0.2 0.6-0.7 0.9-0.6 0.2-1.1 0.3-1.7 0.4l-1.6 0.2c-1.1 0.1-2.2 0.3-3.3 0.4q-3.3 0.3-6.6 0.3z"/>
			</g>
			<g id="Layer">
				<path id="Layer" class="s4" d="m395.5 378.4q-2.8 0.2-5.5-0.1c-1-0.1-1.9-0.2-2.8-0.5-0.1-0.1-0.2-0.1-0.4-0.1q-0.2-0.2-0.3-0.3c-0.2-0.3-0.3-0.5-0.5-0.7-0.2-0.5-0.3-0.9-0.4-1.4-0.4-1.8-0.5-3.7-0.5-5.5-0.1-1.9 0-3.7 0.2-5.5 0.1 1.8 0.2 3.6 0.4 5.4 0.1 1.9 0.3 3.7 0.7 5.4 0.2 0.8 0.4 1.9 1 2 0.8 0.3 1.8 0.4 2.6 0.6 1.8 0.3 3.7 0.5 5.5 0.7z"/>
			</g>
			<g id="Layer">
				<path id="Layer" class="s4" d="m383.4 365.7l0.7 6.4c0.2 2.1 0.4 4.3 0.8 6.3q0.1 0.8 0.3 1.5c0.1 0.3 0.2 0.5 0.3 0.6l0.3 0.2q0.1 0.1 0.3 0.1c0.9 0.4 2 0.5 3 0.7 2.1 0.4 4.2 0.6 6.4 0.8q-3.2 0.1-6.5-0.2c-1-0.1-2.1-0.2-3.2-0.6q-0.2-0.1-0.4-0.2-0.2-0.1-0.4-0.3c-0.3-0.3-0.4-0.5-0.5-0.8q-0.2-0.8-0.4-1.6c-0.3-2.2-0.5-4.3-0.6-6.5-0.1-2.1-0.2-4.2-0.1-6.4z"/>
			</g>
		</g>
	</g>
	<g id="Padlock">
		<g id="Layer">
			<g id="Layer">
				<path id="Layer" class="s7" d="m361 139.6c6.4-11.3 20.9-15.3 32.2-8.8l-1 1.7 6.7-1.8-1.8-6.7-0.9 1.7c-14.2-8.1-32.3-3.2-40.4 10.9-6.3 11-4.9 24.7 3.4 34.2l4.5-3.9c-6.7-7.6-7.7-18.6-2.7-27.3z"/>
				<path id="Layer" class="s7" d="m404 132.2l-4.5 3.8c6.4 7.6 7.4 18.5 2.5 27.1-6.5 11.3-21 15.2-32.3 8.7l1-1.7-6.7 1.8 1.8 6.7 1-1.6c14.1 8.1 32.2 3.1 40.3-11 6.2-10.8 4.9-24.3-3.1-33.8z"/>
			</g>
			<g id="Layer" style="opacity: .6">
				<path id="Layer" class="s6" d="m361 139.6c6.4-11.3 20.9-15.3 32.2-8.8l-1 1.7 6.7-1.8-1.8-6.7-0.9 1.7c-14.2-8.1-32.3-3.2-40.4 10.9-6.3 11-4.9 24.7 3.4 34.2l4.5-3.9c-6.7-7.6-7.7-18.6-2.7-27.3z"/>
				<path id="Layer" class="s6" d="m404 132.2l-4.5 3.8c6.4 7.6 7.4 18.5 2.5 27.1-6.5 11.3-21 15.2-32.3 8.7l1-1.7-6.7 1.8 1.8 6.7 1-1.6c14.1 8.1 32.2 3.1 40.3-11 6.2-10.8 4.9-24.3-3.1-33.8z"/>
			</g>
			<g id="Layer">
				<g id="Layer">
					<path id="Layer" class="s7" d="m377.2 123.3h-6.5v-20c0-7.7-6.2-13.9-13.9-13.9-7.6 0-13.8 6.2-13.8 13.9v20h-6.6v-20c0-11.3 9.2-20.4 20.4-20.4 11.3 0 20.4 9.1 20.4 20.4z"/>
				</g>
				<g id="Layer" style="opacity: .3">
					<path id="Layer" class="s6" d="m377.2 123.3h-6.5v-20c0-7.7-6.2-13.9-13.9-13.9-7.6 0-13.8 6.2-13.8 13.9v20h-6.6v-20c0-11.3 9.2-20.4 20.4-20.4 11.3 0 20.4 9.1 20.4 20.4z"/>
				</g>
				<path id="Layer" class="s4" d="m384.7 118.2v32.7c0 2.1-1.7 3.8-3.8 3.8h-48.2c-2 0-3.7-1.7-3.7-3.8v-32.7c0-2.1 1.7-3.8 3.7-3.8h48.2c0.6 0 1.3 0.2 1.8 0.5 1.2 0.6 2 1.8 2 3.3z"/>
				<path id="Layer" class="s9" d="m383.7 116.9v32c0 2.1-1.7 3.8-3.8 3.8h-48.2q-0.9 0-1.7-0.4v-32.1c0-2.1 1.7-3.8 3.7-3.8h48.2c0.6 0 1.3 0.2 1.8 0.5z"/>
				<path id="Layer" class="s12" d="m364 130.5c0-4.1-3.2-7.4-7.2-7.4-3.9 0-7.1 3.3-7.1 7.4 0 3.1 1.9 5.7 4.6 6.8l-0.3 8.7h5.7l-0.9-8.6c3-0.9 5.2-3.6 5.2-6.9z"/>
			</g>
		</g>
	</g>
	<g id="Speech_bubble">
		<g id="Layer">
			<path id="Layer" class="s4" d="m127.4 139.6l3.3 10.6 3.3-10.6z"/>
			<path id="Layer" class="s4" d="m157.8 142.8h-54.3c-4.7 0-8.6-3.8-8.6-8.6v-11.5c0-4.8 3.9-8.6 8.6-8.6h54.3c4.8 0 8.6 3.8 8.6 8.6v11.5c0 4.8-3.8 8.6-8.6 8.6z"/>
			<g id="Layer">
				<path id="Layer" class="s6" d="m111.8 128.4l1.8 1.1-0.5 0.9-1.9-1.2v2.2h-0.9v-2.2l-1.9 1.2-0.5-0.9 1.9-1.1-1.9-1 0.5-0.9 1.9 1.1v-2.1h0.9v2.1l1.9-1.1 0.5 0.9z"/>
				<path id="Layer" class="s6" d="m118.4 128.4l1.9 1.1-0.5 0.9-1.9-1.2v2.2h-1l0.1-2.2-2 1.2-0.4-0.9 1.8-1.1-1.8-1 0.4-0.9 2 1.1-0.1-2.1h1v2.1l1.9-1.1 0.5 0.9z"/>
				<path id="Layer" class="s6" d="m125 128.4l1.9 1.1-0.5 0.9-1.9-1.2v2.2h-0.9v-2.2l-1.9 1.2-0.5-0.9 1.9-1.1-1.9-1 0.5-0.9 1.9 1.1v-2.1h0.9v2.1l1.9-1.1 0.5 0.9z"/>
				<path id="Layer" class="s6" d="m131.7 128.4l1.8 1.1-0.4 0.9-2-1.2 0.1 2.2h-1v-2.2l-1.9 1.2-0.5-0.9 1.9-1.1-1.9-1 0.5-0.9 1.9 1.1v-2.1h1l-0.1 2.1 2-1.1 0.4 0.9z"/>
				<path id="Layer" class="s6" d="m138.3 128.4l1.9 1.1-0.5 0.9-1.9-1.2v2.2h-0.9v-2.2l-1.9 1.2-0.5-0.9 1.9-1.1-1.9-1 0.5-0.9 1.9 1.1v-2.1h0.9v2.1l1.9-1.1 0.5 0.9z"/>
				<path id="Layer" class="s6" d="m144.9 128.4l1.9 1.1-0.5 0.9-1.9-1.2v2.2h-0.9v-2.2l-1.9 1.2-0.5-0.9 1.9-1.1-1.9-1 0.5-0.9 1.9 1.1v-2.1h0.9v2.1l1.9-1.1 0.5 0.9z"/>
				<path id="Layer" class="s6" d="m151.6 128.4l1.9 1.1-0.5 0.9-1.9-1.2v2.2h-1v-2.2l-1.9 1.2-0.5-0.9 1.9-1.1-1.9-1 0.5-0.9 1.9 1.1v-2.1h1v2.1l1.9-1.1 0.5 0.9z"/>
			</g>
		</g>
	</g>
	<g id="Character">
		<g id="Layer">
			<g id="Layer">
				<path id="Layer" class="s13" d="m174.1 214.1l6.1-4-6.9-4.2c0 0-5.2 3.9-3.1 6.5z"/>
				<path id="Layer" class="s13" d="m183.3 203.6l-7.1-1.6-2.9 3.9 6.9 4.2z"/>
			</g>
			<g id="Layer">
				<path id="Layer" class="s13" d="m148.9 201.2c2 3.1 4 6.3 6.1 9.3q1.6 2.3 3.2 4.4c1.1 1.3 2.3 2.6 3.2 3.4 0.2 0.2 0.4 0.4 0.5 0.4 0.1 0.1 0.1 0.1-0.3 0.1-0.2 0-0.1 0.1 0.3-0.1 0.8-0.3 2.1-1.4 3.1-2.6 1.1-1.3 2.2-2.8 3.2-4.3q0.7-1.1 1.4-2.3l0.6-1c0 0 0.1-0.1 0.1-0.1 0 0-0.1 0.1-0.1 0.2 0 0.1 0 0.2 0 0.4v0.2c0.1 0-0.2-0.2 0.4 1.1 0.8 1.4 2.8 1.3 2.8 1.2q0.3-0.1 0.7-0.3 0.3-0.2 0.6-0.5l0.1-0.1q0.1-0.1 0.1-0.2v-0.1q0.1 0 0 0 0 0 0 0.1c-0.1 0.1-0.3 0.3-0.4 0.5l-4.4-1.9q0.1-0.4 0.2-0.8 0.1-0.1 0.1-0.2 0-0.1 0.1-0.2l0.1-0.1q0-0.2 0.1-0.3c0.1-0.1 0 0 0.2-0.1q0.2-0.3 0.6-0.6 0.4-0.2 0.7-0.3c0-0.1 2-0.2 2.8 1.2 0.6 1.4 0.3 1.1 0.4 1.2v0.2c0 0.2 0 0.3 0 0.4l-0.1 0.4-0.1 0.3c-0.1 0.6-0.2 1.1-0.4 1.6q-0.4 1.5-0.9 3c-0.7 1.9-1.6 3.8-2.7 5.7-1.2 1.9-2.5 3.8-4.9 5.5-1.3 0.9-3 1.6-5.2 1.6-1.3-0.1-2.3-0.5-3.1-0.8-0.7-0.4-1.3-0.7-1.9-1.1-2.1-1.5-3.6-3.1-5-4.6-1.4-1.6-2.7-3.2-3.9-4.8-2.4-3.3-4.6-6.5-6.6-10.1z"/>
			</g>
			<path id="Layer" class="s4" d="m145.9 196.9c4 1.3 12.1 19.7 12.1 19.7l-13.7 6.6c0 0-2.9-14.5-2.3-19.2 0.5-4.6 3.9-7.1 3.9-7.1z"/>
			<path id="Layer" class="s14" d="m145.9 196.9c4 1.3 12.1 19.7 12.1 19.7l-13.7 6.6c0 0-2.9-14.5-2.3-19.2 0.5-4.6 3.9-7.1 3.9-7.1z"/>
			<path id="Layer" class="s13" d="m162.1 410.5l-7 2-1.7-10.9-0.9-5.9 7-1.9 1.2 7.8z"/>
			<path id="Layer" class="s13" d="m121.8 411.1l-7.3 1v-10.5l-0.1-6.5 7.2-1 0.1 7.5z"/>
			<path id="Layer" class="s8" d="m121.6 394.1l0.1 7.5h-7.2l-0.1-6.5z"/>
			<path id="Layer" class="s8" d="m160.7 401.6h-7.3l-0.9-5.9 7-1.9z"/>
			<g id="Layer">
				<path id="Layer" class="s7" d="m162 409.4l-7.9-0.2c-0.3 0-0.6 0.2-0.7 0.5l-1.7 6.4c-0.1 0.7 0.4 1.3 1.1 1.3 2.8 0.1 7 0 10.6 0.1 4.2 0.1 6.9-0.1 11.9 0.1 3 0 3.9-3 2.7-3.3-5.7-1.4-9.4-1.1-14.2-4.3-0.6-0.3-1.1-0.5-1.8-0.6z"/>
				<path id="Layer" fill-rule="evenodd" class="s4" d="m162.6 410.3q0-0.1 0.1-0.2c0.3-0.1 3.3-1.5 4.2-1q0.3 0.1 0.3 0.5 0 0.5-0.4 0.8c-0.8 0.7-2.9 0.3-4.1 0.1q0 0 0 0-0.1-0.1-0.1-0.2zm0.7-0.1c1.6 0.3 2.8 0.3 3.3-0.1q0.2-0.2 0.2-0.5 0-0.2-0.1-0.2 0 0 0 0c-0.6-0.2-2.2 0.3-3.4 0.8z"/>
				<path id="Layer" fill-rule="evenodd" class="s4" d="m162.7 410.4q-0.1 0-0.1-0.1c0-0.1 0.3-2.1 1.2-2.8q0.5-0.3 1-0.3c0.5 0.1 0.6 0.3 0.6 0.5 0.1 0.9-1.7 2.4-2.6 2.8q0 0-0.1 0 0-0.1 0-0.1zm2.1-2.8q-0.4-0.1-0.7 0.2c-0.7 0.5-1 1.6-1.1 2.2 0.9-0.5 2.2-1.7 2.1-2.2 0 0 0-0.1-0.2-0.2q0 0-0.1 0z"/>
			</g>
			<g id="Layer">
				<path id="Layer" class="s7" d="m121.5 409.4l-8-0.2c-0.3 0-0.6 0.2-0.6 0.5l-1.7 6.4c-0.2 0.7 0.3 1.3 1 1.3 2.9 0.1 7 0 10.6 0.1 4.3 0.1 7-0.1 11.9 0.1 3 0 3.9-3 2.7-3.3-5.7-1.4-9.4-1.1-14.2-4.3-0.5-0.3-1.1-0.5-1.7-0.6z"/>
				<path id="Layer" fill-rule="evenodd" class="s4" d="m122 410.3q0-0.1 0.1-0.2c0.4-0.1 3.4-1.5 4.2-1q0.3 0.1 0.3 0.5 0 0.5-0.4 0.8c-0.8 0.7-2.9 0.3-4 0.1q0 0 0 0-0.1-0.1-0.2-0.2zm0.8-0.1c1.6 0.3 2.8 0.3 3.2-0.1q0.3-0.2 0.3-0.5 0-0.2-0.1-0.2-0.1 0-0.1 0c-0.6-0.2-2.2 0.3-3.3 0.8z"/>
				<path id="Layer" fill-rule="evenodd" class="s4" d="m122.1 410.4q-0.1 0-0.1-0.1c0.1-0.1 0.3-2.1 1.3-2.8q0.4-0.3 0.9-0.3c0.5 0.1 0.6 0.3 0.7 0.5 0.1 0.9-1.7 2.4-2.6 2.8q-0.1 0-0.1 0-0.1-0.1-0.1-0.1zm2.1-2.8q-0.4-0.1-0.7 0.2c-0.6 0.5-0.9 1.6-1.1 2.2 1-0.5 2.2-1.7 2.1-2.2 0 0 0-0.1-0.1-0.2q-0.1 0-0.2 0z"/>
			</g>
			<path id="Layer" class="s7" d="m106.8 252c-3.8 16.6 2.8 147.4 2.8 147.4h12.7l5.4-109 20.1 109 13.5-1c-8.8-84.5-16.7-134.9-16.7-134.9v-6.3z"/>
			<path id="Layer" class="s9" d="m161.3 398.4l-13.5 1-15.8-85.8-4.3-23.2-5.4 109h-12.7c0 0-6.6-130.8-2.8-147.4l37.8 5.2v6.3c0 0 7.9 50.4 16.7 134.9z"/>
			<g id="Layer">
				<path id="Layer" class="s4" d="m106 195.8c1.4 8 2 16.1 2.2 23.7 0.1 5.6 0 10.9-0.2 15.6-0.5 11.2-1.6 19.7-1.5 22.6 5.6 0.1 26.6 0.5 38.1 0.7 9.1-39.9 1.3-61.5 1.3-61.5 0 0-4.1-1.2-8.9-2q-1-0.1-2-0.2c-4.3-0.5-11.3-0.4-16.2-0.3q-1.6 0.1-3.1 0.2c-5.1 0.3-9.7 1.2-9.7 1.2z"/>
			</g>
			<g id="Layer">
				<path id="Layer" class="s13" d="m136.2 196c0 0-2.3 3.3-4.1 3.5-2.6 0.3-12-5.4-12-5.4 2.2-1.6 3.2-5.1 3.7-8.9 0.4-3.2 0.4-6.6 0.2-9l8.8 9.5c-1.2 3-1.8 6.2 0.4 8.5q0.1 0 0.1 0 1 1 2.9 1.8z"/>
				<path id="Layer" class="s8" d="m133.2 194.2c-3.7-2-7.4-5.5-9.4-9 0.4-3.2 0.4-6.6 0.2-9l8.8 9.5c-1.2 3-1.9 6.3 0.4 8.5z"/>
			</g>
			<g id="Layer">
				<path id="Layer" class="s7" d="m143 167.6c0.8 2.7 0.1 8.3-3.7 6.4-3.7-2 2.5-11.2 3.7-6.4z"/>
				<path id="Layer" class="s13" d="m123.1 170.4c-0.7 7-1.5 11.1 1.4 15.2 4.5 6.2 13.6 4.4 16.4-2.3 2.6-6 3.3-16.5-3.1-20.3-6.2-3.8-14 0.4-14.7 7.4z"/>
				<path id="Layer" class="s7" d="m128.2 166.8l0.4-7.9c0 0-8.4-1-8.2 3.3-4.7 2.1-2.9 9.5 3.2 13.3 3.6-2.6 3.5-9.2 3.5-9.2q0.5 0.2 1.1 0.5z"/>
				<path id="Layer" class="s13" d="m119.5 175.8c0.2 1.8 1.3 3.4 2.6 4.3 1.9 1.4 3.7-0.1 3.9-2.3 0.1-2-0.7-5.2-2.9-5.6-2.3-0.5-3.9 1.4-3.6 3.6z"/>
				<path id="Layer" class="s7" d="m133.4 174c-0.1 0.6 0.1 1.1 0.5 1.1 0.4 0.1 0.7-0.3 0.8-0.9 0.1-0.6-0.1-1.1-0.5-1.1-0.3-0.1-0.7 0.3-0.8 0.9z"/>
				<path id="Layer" class="s7" d="m139.8 175c-0.1 0.6 0.1 1.1 0.5 1.1 0.4 0.1 0.8-0.3 0.9-0.9 0.1-0.6-0.2-1.1-0.5-1.1-0.4-0.1-0.8 0.3-0.9 0.9z"/>
				<path id="Layer" class="s15" d="m137.7 175c0 0 0.8 3.3 2 5.1-1.1 0.7-2.8 0-2.8 0z"/>
				<path id="Layer" class="s7" d="m133.5 181.8q0.4 0.1 0.8 0.2c0.1 0 0.1-0.1 0.2-0.2 0-0.1-0.1-0.2-0.2-0.2-2.5-0.4-3.4-2.3-3.4-2.3 0-0.1-0.1-0.1-0.2-0.1-0.1 0.1-0.1 0.2-0.1 0.2 0.1 0.1 0.8 1.8 2.9 2.4z"/>
				<path id="Layer" class="s7" d="m131.7 171.6q0.2 0.1 0.4-0.1c1.1-1 2.3-0.7 2.3-0.7 0.2 0 0.4-0.1 0.4-0.3 0.1-0.2-0.1-0.4-0.2-0.4-0.1 0-1.6-0.3-3 1-0.1 0.1-0.1 0.3 0 0.4q0.1 0.1 0.1 0.1z"/>
				<path id="Layer" class="s7" d="m142.9 173.2q0.1 0.1 0.2 0c0.2 0 0.3-0.2 0.3-0.4-0.6-1.8-2.1-2.2-2.1-2.2-0.2-0.1-0.4 0-0.4 0.2-0.1 0.2 0 0.4 0.2 0.4 0.1 0 1.2 0.4 1.6 1.8q0.1 0.2 0.2 0.2z"/>
				<path id="Layer" class="s7" d="m120.4 162.2c0 0-4.3-4.3 10.3-3.9 14.7 0.4 17.1 8.6 10.4 10.6l-0.3-1.4c0 0-3.4 2-7.5 0.4l1.1-0.7c0 0-10 1.1-14-5z"/>
			</g>
			<g id="Layer">
				<g id="Layer">
					<path id="Layer" class="s4" d="m132.1 199.5c0 0-1.9 2.2-4 4.3-3.2-1.6-10.4-5.8-10.1-9.7 0.4-1.1 3.4-1.8 3.4-1.8 0 0 3.2 4.2 10.7 7.2z"/>
				</g>
				<g id="Layer">
					<path id="Layer" class="s4" d="m132.1 199.5c0 0 2.4 1.9 4 4.3 2.3-1.5 1.1-8.7 0.3-9.5-1.8-1.1-3.9-1.1-3.9-1.1 0 0 1.6 3.3-0.4 6.3z"/>
				</g>
				<g id="Layer" style="opacity: .5">
					<g id="Layer">
						<path id="Layer" class="s6" d="m132.1 199.5c0 0-1.9 2.2-4 4.3-3.2-1.6-10.4-5.8-10.1-9.7 0.4-1.1 3.4-1.8 3.4-1.8 0 0 3.2 4.2 10.7 7.2z"/>
					</g>
					<g id="Layer">
						<path id="Layer" class="s6" d="m132.1 199.5c0 0 2.4 1.9 4 4.3 2.3-1.5 1.1-8.7 0.3-9.5-1.8-1.1-3.9-1.1-3.9-1.1 0 0 1.6 3.3-0.4 6.3z"/>
					</g>
				</g>
			</g>
			<path id="Layer" class="s8" d="m132 313.6l-4.3-23.2 0.9-12.3c0 0 5.8 21.3 3.4 35.5z"/>
			<g id="Layer">
				<path id="Layer" class="s13" d="m110 206.4l-6.6 10.7q-1.6 2.7-3.2 5.3c-1 1.8-2 3.6-2.8 5.3-0.4 0.8-0.7 1.5-1 2.3q-0.4 1.3-0.7 2.8c-0.5 2-1 4-1.4 6-0.9 4.1-1.8 8.3-2.7 12.4l-4.8-0.4c-0.2-4.3-0.1-8.6 0.1-13 0.2-2.1 0.3-4.3 0.6-6.5 0.2-1.1 0.3-2.3 0.6-3.4 0.3-1.3 0.7-2.6 1.1-3.7 0.9-2.3 1.8-4.2 2.8-6.2 1-2 2-3.9 3.1-5.8 2.1-3.7 4.3-7.4 6.7-11z"/>
			</g>
			<path id="Layer" class="s4" d="m106 195.8c-5.4 1.4-15 20.7-15 20.7l11.4 7.4 10.3-10c0 0 1.1-4.8-0.6-10.9-1.7-6-6.1-7.2-6.1-7.2z"/>
			<path id="Layer" class="s14" d="m106 195.8c-5.4 1.4-15 20.7-15 20.7l11.4 7.4 10.3-10c0 0 1.1-4.8-0.6-10.9-1.7-6-6.1-7.2-6.1-7.2z"/>
			<g id="Layer">
				<path id="Layer" class="s7" d="m198.1 179.5l-79.2 84.1-8.8-8.3 79.2-84.1c1.8-1.9 4.8-2 6.7-0.2l1.9 1.8c1.9 1.8 2 4.8 0.2 6.7z"/>
				<path id="Layer" class="s5" d="m198.1 179.5l-79.2 84.1-8.8-8.3 79.2-84.1c1.8-1.9 4.8-2 6.7-0.2l1.9 1.8c1.9 1.8 2 4.8 0.2 6.7z"/>
				<path id="Layer" class="s8" d="m196.6 171.6l1.3 1.2c1.9 1.8 2 4.8 0.2 6.7l-79.2 84.1-1.4-1.3 79.3-84c1.8-1.9 1.7-4.9-0.2-6.7z"/>
				<path id="Layer" class="s7" d="m171.3 204.1l14.7 13.9 1.9-2-1.9-1.8 3-3.2-1.1-1.1 4.6-4.8 1.1 1.1 2.8-3 1.9 1.7 2-2.1-1.1-1 2.8-3-2.2-2.1 1.8-2 3.4 3.2 3.4-3.6-14.7-13.9z"/>
				<path id="Layer" class="s5" d="m171.3 204.1l14.7 13.9 1.9-2-1.9-1.8 3-3.2-1.1-1.1 4.6-4.8 1.1 1.1 2.8-3 1.9 1.7 2-2.1-1.1-1 2.8-3-2.2-2.1 1.8-2 3.4 3.2 3.4-3.6-14.7-13.9z"/>
				<g id="Layer" style="opacity: .2">
					<path id="Layer" class="s16" d="m184.7 216.7l1.9-2 1.3 1.3-1.9 2z"/>
					<path id="Layer" class="s16" d="m193.6 206.2l-1.1-1.1-4.6 4.8 1.1 1.1-3 3.2-1.3-1.3 3-3.2-1.1-1 4.5-4.8 1.1 1 2.9-3 1.3 1.3z"/>
					<path id="Layer" class="s16" d="m197.8 200.5l2.9-3 1.3 1.3-2.8 3 1.1 1.1-2 2-1.3-1.2 2-2.1z"/>
					<path id="Layer" class="s16" d="m198.5 195.4l1.8-1.9 1.3 1.2-1.8 2z"/>
					<path id="Layer" class="s16" d="m203.7 196.6l3.4-3.6 1.3 1.2-3.4 3.7z"/>
				</g>
				<path id="Layer" class="s7" d="m197.6 181.7l-24.3 25.8c-0.4 0.4-1.1 0.4-1.5 0l-8.8-8.3c-0.5-0.4-0.5-1.1-0.1-1.5l24.3-25.8c0.4-0.4 1.1-0.4 1.5 0l8.8 8.3c0.5 0.4 0.5 1.1 0.1 1.5z"/>
				<g id="Layer">
					<path id="Layer" class="s7" d="m119.3 290.8c-7.7 8.2-20.7 8.6-28.9 0.8l-6.7-6.2c-8.2-7.8-8.6-20.8-0.8-29 7.7-8.2 20.7-8.6 28.9-0.8l6.7 6.2c8.2 7.8 8.6 20.7 0.8 29z"/>
					<path id="Layer" class="s6" d="m111.7 283.6c-3.9 4.1-10.3 4.3-14.4 0.4l-6.4-6c-4-3.8-4.2-10.3-0.4-14.4 3.9-4.1 10.3-4.3 14.4-0.4l6.4 6c4.1 3.8 4.2 10.3 0.4 14.4z"/>
				</g>
				<path id="Layer" class="s17" d="m197.6 181.7l-24.3 25.8c-0.4 0.4-1.1 0.4-1.5 0l-8.8-8.3c-0.5-0.4-0.5-1.1-0.1-1.5l24.3-25.8c0.4-0.4 1.1-0.4 1.5 0l8.8 8.3c0.5 0.4 0.5 1.1 0.1 1.5z"/>
				<g id="Layer" style="opacity: .5">
					<path id="Layer" class="s6" d="m119.3 290.8c-7.7 8.2-20.7 8.6-28.9 0.8l-6.7-6.2c-8.2-7.8-8.6-20.8-0.8-29 7.7-8.2 20.7-8.6 28.9-0.8l6.7 6.2c8.2 7.8 8.6 20.7 0.8 29z"/>
					<path id="Layer" class="s6" d="m111.7 283.6c-3.9 4.1-10.3 4.3-14.4 0.4l-6.4-6c-4-3.8-4.2-10.3-0.4-14.4 3.9-4.1 10.3-4.3 14.4-0.4l6.4 6c4.1 3.8 4.2 10.3 0.4 14.4z"/>
				</g>
				<path id="Layer" class="s8" d="m194.9 177.7l2.6 2.5c0.5 0.4 0.5 1.1 0.1 1.5l-24.3 25.8c-0.4 0.4-1.1 0.4-1.5 0l-2.7-2.5c0.4 0.4 1.1 0.4 1.5-0.1l24.3-25.7c0.4-0.5 0.4-1.1 0-1.5z"/>
				<g id="Layer" style="opacity: .2">
					<path id="Layer" class="s18" d="m102.9 261.3l2 1.9c-2-1.9-4.6-2.9-7.3-2.8-2.6 0.1-5.1 1.2-7.1 3.2-3.8 4.1-3.6 10.6 0.4 14.4l-1.9-1.8c-4.1-3.9-4.3-10.4-0.5-14.5 2-2 4.5-3.1 7.2-3.2 2.6 0 5.2 0.9 7.2 2.8z"/>
					<path id="Layer" class="s18" d="m116.5 260l2 1.8c8.2 7.8 8.6 20.7 0.8 29-7.7 8.2-20.7 8.6-28.9 0.8l-2-1.9c8.2 7.8 21.2 7.4 28.9-0.8 7.8-8.2 7.4-21.2-0.8-28.9z"/>
				</g>
				<g id="Layer" style="opacity: .2">
					<path id="Layer" class="s18" d="m102.9 261.3l2 1.9c-2-1.9-4.6-2.9-7.3-2.8-2.6 0.1-5.1 1.2-7.1 3.2-3.8 4.1-3.6 10.6 0.4 14.4l-1.9-1.8c-4.1-3.9-4.3-10.4-0.5-14.5 2-2 4.5-3.1 7.2-3.2 2.6 0 5.2 0.9 7.2 2.8z"/>
					<path id="Layer" class="s18" d="m102.9 261.3l2 1.9c-2-1.9-4.6-2.9-7.3-2.8-2.6 0.1-5.1 1.2-7.1 3.2-3.8 4.1-3.6 10.6 0.4 14.4l-1.9-1.8c-4.1-3.9-4.3-10.4-0.5-14.5 2-2 4.5-3.1 7.2-3.2 2.6 0 5.2 0.9 7.2 2.8z"/>
				</g>
			</g>
			<g id="Layer">
				<path id="Layer" class="s13" d="m87.8 262.2l7.3-1.8-0.8-5.4-9 1.8z"/>
				<path id="Layer" class="s13" d="m87.1 249.8l-1.8 7 9-1.8c0 0 0.1-6.3-3.2-6.7z"/>
			</g>
		</g>
	</g>
</svg>