<svg version="1.2" xmlns="http://www.w3.org/2000/svg" width="500" height="500"><style>.s0{fill:#ebebeb}.s1{fill:#e0e0e0}.s2{fill:#f0f0f0}.s4{fill:#407bff}.s5{opacity:.6}.s5,.s6{fill:#fff}.s7{fill:#263238}.s8,.s9{opacity:.2;fill:#000}.s9{fill:#fff}.s13{fill:#b55b52}.s14{opacity:.7;fill:#fff}.s16{opacity:.6}.s16,.s18{fill:#000}</style><g id="Background_Complete"><g id="Layer"><path class="s0" d="M0 382.4h500v.2H0zM416.8 398.5h33.1v.2h-33.1zM322.5 401.2h8.7v.3h-8.7zM396.6 389.2h19.2v.3h-19.2zM52.5 390.9h43.2v.2H52.5zM104.6 390.9h6.3v.2h-6.3zM131.5 395.1h93.6v.3h-93.6z"/></g><path fill-rule="evenodd" class="s1" d="M264.9 158.9v22.7l-11.7 1.1c-1.6 7.6-4.6 14.7-8.7 20.9l7.5 9.1-16 16-9.1-7.5c-6.3 4.2-13.3 7.2-20.9 8.7l-1.1 11.7h-22.7l-1.1-11.7c-7.6-1.5-14.7-4.5-21-8.7l-9 7.5-16.1-16 7.5-9.1c-4.1-6.2-7.1-13.3-8.7-20.9l-11.6-1.1v-22.7l11.6-1.1c1.6-7.6 4.6-14.7 8.7-20.9l-7.5-9.1 16.1-16 9 7.5c6.3-4.1 13.4-7.2 21-8.7l1.1-11.7h22.7l1.1 11.7c7.6 1.5 14.6 4.6 20.9 8.7l9.1-7.5 16 16-7.5 9.1c4.1 6.2 7.1 13.3 8.7 20.9zm-71.4-19.3c-16.9 0-30.7 13.7-30.7 30.7 0 16.9 13.8 30.7 30.7 30.7 17 0 30.7-13.8 30.7-30.7 0-17-13.7-30.7-30.7-30.7zM303.2 260.4l-6.5 5.4-11.5-11.5 5.4-6.5c-3-4.6-5.2-9.6-6.3-15.1l-8.4-.8v-16.3l8.4-.8c1.1-5.4 3.3-10.5 6.3-15l-5.4-6.5 11.5-11.6 6.5 5.4c4.5-2.9 9.6-5.1 15.1-6.2l.7-8.4h16.3l.8 8.4c5.5 1.1 10.6 3.3 15.1 6.2l6.5-5.4 11.5 11.6-5.4 6.5c3 4.5 5.1 9.6 6.3 15l8.4.8v16.3l-8.4.8c-1.2 5.5-3.3 10.5-6.3 15.1l5.4 6.5-11.5 11.5-6.5-5.4c-4.5 3-9.6 5.1-15.1 6.3l-.8 8.3H319l-.7-8.3c-5.5-1.2-10.6-3.3-15.1-6.3zm46-36.6c0-12.2-9.8-22.1-22-22.1s-22.1 9.9-22.1 22.1c0 12.1 9.9 22 22.1 22 12.2 0 22-9.9 22-22z"/><path fill-rule="evenodd" class="s2" d="m102.8 343.7-3.3 2.8-5.9-5.9 2.8-3.3c-1.5-2.3-2.6-4.9-3.2-7.7l-4.3-.4v-8.3l4.3-.4c.6-2.8 1.7-5.4 3.2-7.7l-2.8-3.3 5.9-5.9 3.3 2.8c2.3-1.5 4.9-2.6 7.7-3.2l.4-4.3h8.3l.4 4.3c2.8.6 5.4 1.7 7.7 3.2l3.3-2.8 5.9 5.9-2.8 3.3c1.6 2.3 2.7 4.9 3.2 7.7l4.3.4v8.3l-4.3.4c-.5 2.8-1.6 5.4-3.2 7.7l2.8 3.3-5.9 5.9-3.3-2.8c-2.3 1.5-4.9 2.6-7.7 3.2l-.4 4.3h-8.3l-.4-4.3c-2.8-.6-5.4-1.7-7.7-3.2zm23.5-18.6c0-6.3-5-11.3-11.2-11.3-6.2 0-11.3 5-11.3 11.3 0 6.2 5.1 11.2 11.3 11.2 6.2 0 11.2-5 11.2-11.2zM402.9 323.5l-2.7 2.3-4.8-4.8 2.2-2.8c-1.2-1.9-2.1-4-2.6-6.3l-3.5-.3v-6.9l3.5-.3c.5-2.3 1.4-4.4 2.6-6.3l-2.2-2.7 4.8-4.9 2.7 2.3c1.9-1.3 4.1-2.2 6.3-2.6l.4-3.6h6.8l.3 3.6c2.3.4 4.5 1.3 6.4 2.6l2.7-2.3 4.8 4.9-2.2 2.7c1.2 1.9 2.1 4 2.6 6.3l3.5.3v6.9l-3.5.3c-.5 2.3-1.4 4.4-2.6 6.3l2.2 2.8-4.8 4.8-2.7-2.3c-1.9 1.3-4.1 2.2-6.3 2.7l-.4 3.5h-6.8l-.4-3.5c-2.2-.5-4.4-1.4-6.3-2.7zm19.4-15.3c0-5.2-4.2-9.3-9.3-9.3-5.1 0-9.3 4.1-9.3 9.3 0 5.1 4.2 9.2 9.3 9.2 5.1 0 9.3-4.1 9.3-9.2z"/><path fill-rule="evenodd" class="s1" d="M230.8 370.8c-6.5-1.4-12.6-4-17.9-7.5l-7.8 6.4-13.7-13.7 6.4-7.7c-3.5-5.4-6.1-11.5-7.4-18l-10-.9V310l10-.9c1.3-6.5 3.9-12.6 7.4-18l-6.4-7.7 13.7-13.7 7.8 6.4c5.3-3.5 11.4-6.1 17.9-7.5l.9-9.9h19.4l1 9.9c6.5 1.4 12.5 4 17.9 7.5l7.7-6.4 13.7 13.7-6.4 7.7c3.6 5.4 6.1 11.5 7.5 18l10 .9v19.4l-10 .9c-1.4 6.5-3.9 12.6-7.5 18l6.4 7.7-13.7 13.7-7.7-6.4c-5.4 3.5-11.4 6.1-17.9 7.5l-1 10h-19.4zm36.9-51.1c0-14.5-11.7-26.3-26.2-26.3s-26.3 11.8-26.3 26.3S227 346 241.5 346s26.2-11.8 26.2-26.3z"/><path fill-rule="evenodd" class="s2" d="m343.4 343.5 11.8 22.4-34.3 18-11.8-22.3 3.3-1.8-1.1-1.9c-3.3-6.4-.8-14.3 5.5-17.6l4.7-2.5c6.4-3.3 14.3-.9 17.6 5.5l1.1 2zm-10.3 16.1c-.7-1.4-2.4-1.9-3.8-1.2-1.3.7-1.8 2.4-1.1 3.8.4.9 1.3 1.3 2.3 1.4l2 3.9 2.5-1.3-2-3.9c.4-.8.5-1.8.1-2.7zm.8-13.7c-1.8-3.5-6.2-4.9-9.7-3l-4.7 2.4c-3.6 1.9-4.9 6.3-3.1 9.8l1.1 2 17.4-9.2zM103.8 227.6l-8.3 23.8-36.6-12.7 8.3-23.8 3.5 1.2.7-2.1c2.3-6.8 9.8-10.4 16.6-8.1l5 1.8c6.8 2.3 10.4 9.8 8 16.6l-.7 2.1zM85 231.1c.5-1.5-.3-3-1.7-3.5s-3 .2-3.5 1.7c-.4.9-.1 1.9.5 2.6l-1.5 4.2 2.7.9 1.5-4.2c.9-.1 1.7-.8 2-1.7zm10.6-8.8c1.3-3.7-.7-7.8-4.5-9.2l-5-1.7c-3.8-1.3-7.9.7-9.2 4.5l-.7 2.1 18.6 6.4z"/><path class="s2" d="m427.9 214.7-2.1-.7c4.7-.9 8.8-4.2 10.3-9 2.3-7-1.6-14.5-8.6-16.8-7-2.2-14.5 1.7-16.7 8.7-1.6 4.9-.1 9.9 3.2 13.3l-2.1-.6c-6.5-2.1-13.5 1.5-15.6 8l-2.1 6.7 39.6 12.6 2.2-6.7c2-6.5-1.6-13.5-8.1-15.5zM284.2 93.9l-1.3.6c1.9-2.4 2.5-5.7 1.3-8.8-1.9-4.3-6.9-6.4-11.3-4.6-4.3 1.9-6.4 6.9-4.5 11.3 1.2 3 4.1 4.9 7.1 5.1l-1.3.6c-4.1 1.7-6 6.4-4.3 10.4l1.8 4.2 24.7-10.3-1.8-4.2c-1.7-4.1-6.4-6-10.4-4.3zM105.5 122l-1.4-.3c2.9-.8 5.4-3.2 6-6.4 1-4.7-2-9.2-6.6-10.2-4.7-.9-9.2 2-10.2 6.7-.6 3.2.6 6.3 3 8.3l-1.4-.3c-4.3-.9-8.5 1.9-9.4 6.2l-1 4.4 26.2 5.5 1-4.5c.9-4.3-1.9-8.5-6.2-9.4z"/></g><g id="Shadow_1_"><path id="_x3C_Path_x3E__359_" d="M250 427.6c-107.2 0-193.9-5.1-193.9-11.4 0-6.2 86.7-11.3 193.9-11.3s193.9 5.1 193.9 11.3c0 6.3-86.7 11.4-193.9 11.4z" style="fill:#f5f5f5"/></g><g id="Interface"><path class="s4" d="M369.2 367.7H190.3c-4.1 0-7.4-3.2-7.4-7.3V140.7c0-4 3.3-7.3 7.4-7.3h178.9c4 0 7.3 3.3 7.3 7.3v219.7c0 4.1-3.3 7.3-7.3 7.3z"/><path class="s5" d="M369.2 367.7H190.3c-4.1 0-7.4-3.2-7.4-7.3V140.7c0-4 3.3-7.3 7.4-7.3h178.9c4 0 7.3 3.3 7.3 7.3v219.7c0 4.1-3.3 7.3-7.3 7.3z"/><path class="s6" d="M214.3 254.8h130.8v22.4H214.3z"/><g style="opacity:.4"><path class="s7" d="M220.9 266.5c0-1.9 1.4-3.2 3.4-3.2.9 0 1.7.3 2.3.9l-.4.4c-.5-.5-1.2-.7-1.9-.7-1.6 0-2.7 1.1-2.7 2.6 0 1.6 1.1 2.7 2.7 2.7.7 0 1.4-.2 1.9-.8l.4.4c-.6.7-1.4 1-2.3 1-2 0-3.4-1.4-3.4-3.3z"/><path fill-rule="evenodd" class="s7" d="M227.2 267.3c0-1.4 1.1-2.4 2.5-2.4s2.4 1 2.4 2.4c0 1.5-1 2.5-2.4 2.5s-2.5-1-2.5-2.5zm4.3 0c0-1.1-.8-1.9-1.8-1.9s-1.8.8-1.8 1.9c0 1.2.8 1.9 1.8 1.9s1.8-.7 1.8-1.9z"/><path class="s7" d="M237.9 266.9v2.8h-.7V267c0-1-.5-1.5-1.4-1.5-1 0-1.7.6-1.7 1.7v2.5h-.6v-4.8h.6v.9c.3-.6 1-.9 1.8-.9 1.2 0 2 .7 2 2zM241.2 262.9c.4 0 .8.1 1 .3l-.2.5q-.3-.3-.7-.3-.9 0-.9.9v.6h1.5v.6h-1.5v4.2h-.6v-4.2h-.9v-.6h.9v-.6c0-.8.5-1.4 1.4-1.4zm3.1.5c0 .2-.2.5-.5.5-.2 0-.4-.3-.4-.5 0-.3.2-.5.4-.5.3 0 .5.2.5.5zm-.8 1.5h.7v4.8h-.7zM248.4 264.9v.6h-.1c-1.1 0-1.7.6-1.7 1.8v2.4h-.6v-4.8h.6v1q.5-1 1.8-1zM257.5 266.9v2.8h-.6V267c0-1-.5-1.5-1.4-1.5-1 0-1.6.6-1.6 1.7v2.5h-.7V267c0-1-.5-1.5-1.4-1.5-.9 0-1.6.6-1.6 1.7v2.5h-.6v-4.8h.6v.9c.3-.6 1-.9 1.8-.9s1.4.3 1.7 1c.3-.6 1-1 1.9-1 1.2 0 1.9.7 1.9 2zM267.2 263.3v6.4h-.5l-4.2-5.2v5.2h-.6v-6.4h.5l4.2 5.2v-5.2z"/><path fill-rule="evenodd" class="s7" d="M273.4 267.5h-4.1c.1 1 .9 1.7 1.9 1.7.6 0 1.1-.2 1.5-.6l.4.4c-.5.5-1.1.8-1.9.8-1.5 0-2.5-1-2.5-2.5 0-1.4 1-2.4 2.3-2.4 1.4 0 2.4 1 2.4 2.4v.2zm-4.1-.5h3.5c-.1-.9-.8-1.6-1.8-1.6-.9 0-1.6.7-1.7 1.6z"/><path class="s7" d="m281.7 264.9-1.8 4.8h-.6l-1.6-3.9-1.5 3.9h-.6l-1.8-4.8h.6l1.5 4.1 1.6-4.1h.5l1.6 4.1 1.5-4.1z"/><path fill-rule="evenodd" class="s7" d="M290.2 265.5c0 1.4-.9 2.2-2.6 2.2h-1.7v2h-.7v-6.4h2.4c1.7 0 2.6.8 2.6 2.2zm-.6 0c0-1-.7-1.6-2-1.6h-1.7v3.2h1.7c1.3 0 2-.6 2-1.6zM295.2 266.7v3h-.7v-.7c-.2.5-.8.8-1.6.8-1.1 0-1.8-.6-1.8-1.4 0-.8.5-1.4 1.9-1.4h1.5v-.3c0-.8-.4-1.3-1.3-1.3-.7 0-1.3.3-1.7.6l-.2-.5c.4-.4 1.2-.6 1.9-.6 1.3 0 2 .6 2 1.8zm-.7 1.6v-.8H293c-.9 0-1.2.4-1.2.9s.4.9 1.2.9c.7 0 1.3-.4 1.5-1z"/><path class="s7" d="m296.3 269.2.3-.5c.4.3 1 .5 1.7.5.9 0 1.3-.3 1.3-.8 0-1.2-3.2-.2-3.2-2.1 0-.8.7-1.4 2-1.4.6 0 1.3.2 1.7.4l-.3.5c-.4-.2-.9-.4-1.4-.4-.9 0-1.3.4-1.3.8 0 1.3 3.1.4 3.1 2.2 0 .8-.7 1.4-2 1.4-.8 0-1.5-.3-1.9-.6zM300.8 269.2l.3-.5c.3.3 1 .5 1.7.5.9 0 1.3-.3 1.3-.8 0-1.2-3.2-.2-3.2-2.1 0-.8.7-1.4 1.9-1.4.7 0 1.3.2 1.7.4l-.2.5c-.5-.2-1-.4-1.5-.4-.8 0-1.2.4-1.2.8 0 1.3 3.1.4 3.1 2.2 0 .8-.7 1.4-2 1.4-.8 0-1.5-.3-1.9-.6zM312.9 264.9l-1.8 4.8h-.6l-1.6-3.9-1.5 3.9h-.6l-1.8-4.8h.6l1.5 4.1 1.6-4.1h.5l1.6 4.1 1.5-4.1z"/><path fill-rule="evenodd" class="s7" d="M313.3 267.3c0-1.4 1-2.4 2.4-2.4s2.5 1 2.5 2.4c0 1.5-1.1 2.5-2.5 2.5s-2.4-1-2.4-2.5zm4.2 0c0-1.1-.8-1.9-1.8-1.9s-1.8.8-1.8 1.9c0 1.2.8 1.9 1.8 1.9s1.8-.7 1.8-1.9z"/><path class="s7" d="M321.9 264.9v.6h-.1c-1 0-1.7.6-1.7 1.8v2.4h-.6v-4.8h.6v1q.5-1 1.8-1z"/><path fill-rule="evenodd" class="s7" d="M327.5 262.9v6.8h-.7v-.9c-.4.6-1 1-1.8 1-1.4 0-2.4-1-2.4-2.5 0-1.4 1-2.4 2.4-2.4.7 0 1.4.3 1.8.9v-2.9h.7zm-.7 4.4c0-1.1-.8-1.9-1.8-1.9s-1.8.8-1.8 1.9c0 1.2.8 1.9 1.8 1.9s1.8-.7 1.8-1.9z"/></g><path class="s8" d="M214.3 284.6h130.8V307H214.3z"/><path class="s4" d="M214.3 284.2h130.8v22.4H214.3z"/><path class="s6" d="m242.8 298 .4-.8c.6.5 1.6.9 2.6.9 1.3 0 1.9-.5 1.9-1.2 0-1.9-4.7-.7-4.7-3.5 0-1.2.9-2.2 3-2.2.9 0 1.8.2 2.4.6l-.3.9c-.7-.4-1.5-.6-2.1-.6-1.4 0-1.9.5-1.9 1.2 0 1.9 4.6.7 4.6 3.5 0 1.2-.9 2.2-2.9 2.2-1.2 0-2.4-.4-3-1z"/><path fill-rule="evenodd" class="s6" d="M255.4 296.4h-4.7c.1 1 1 1.7 2.1 1.7q1 0 1.7-.7l.6.6c-.6.7-1.4 1-2.3 1-1.9 0-3.1-1.3-3.1-3s1.2-2.9 2.9-2.9c1.6 0 2.8 1.2 2.8 2.9v.4zm-4.7-.8h3.7c-.1-1-.8-1.7-1.8-1.7s-1.8.7-1.9 1.7z"/><path class="s6" d="M260.2 298.6c-.4.3-.8.4-1.3.4-1.2 0-1.8-.7-1.8-1.8V294h-1v-.9h1v-1.3h1v1.3h1.7v.9h-1.7v3.1c0 .6.3 1 .9 1 .3 0 .6-.1.8-.3z"/><path fill-rule="evenodd" class="s6" d="M270.7 293.9c0 1.7-1.2 2.7-3.2 2.7h-1.9v2.3h-1.1v-7.7h3c2 0 3.2 1.1 3.2 2.7zm-1.1 0c0-1.1-.7-1.7-2.1-1.7h-1.9v3.4h1.9c1.4 0 2.1-.6 2.1-1.7zM276.7 295.4v3.5h-1v-.8c-.3.6-1 .9-1.9.9-1.3 0-2.1-.7-2.1-1.7s.6-1.7 2.3-1.7h1.7v-.2c0-.9-.5-1.4-1.6-1.4-.7 0-1.4.2-1.8.6l-.4-.8c.6-.5 1.4-.7 2.4-.7 1.5 0 2.4.7 2.4 2.3zm-1 1.7v-.8h-1.6c-1.1 0-1.4.4-1.4.9 0 .6.5 1 1.3 1s1.4-.4 1.7-1.1z"/><path class="s6" d="m278 298.3.4-.8c.5.3 1.3.6 2 .6 1 0 1.4-.3 1.4-.8 0-1.3-3.7-.2-3.7-2.5 0-1 1-1.7 2.5-1.7.7 0 1.6.2 2.1.5l-.5.8c-.5-.3-1.1-.4-1.6-.4-1 0-1.4.3-1.4.8 0 1.3 3.7.2 3.7 2.5 0 1-1 1.7-2.5 1.7-1 0-2-.3-2.4-.7zM283.4 298.3l.5-.8c.5.3 1.3.6 2 .6 1 0 1.4-.3 1.4-.8 0-1.3-3.7-.2-3.7-2.5 0-1 1-1.7 2.5-1.7.7 0 1.6.2 2.1.5l-.5.8c-.5-.3-1.1-.4-1.7-.4-.9 0-1.3.3-1.3.8 0 1.3 3.7.2 3.7 2.5 0 1-1 1.7-2.6 1.7-.9 0-1.9-.3-2.3-.7zM298.4 293.1l-2.2 5.8h-1l-1.7-4.4-1.7 4.4h-1l-2.2-5.8h1l1.7 4.6 1.8-4.6h.9l1.7 4.7 1.7-4.7z"/><path fill-rule="evenodd" class="s6" d="M298.7 296c0-1.7 1.3-2.9 3-2.9 1.8 0 3.1 1.2 3.1 2.9s-1.3 3-3.1 3c-1.7 0-3-1.3-3-3zm5 0c0-1.2-.8-2-2-2-1.1 0-1.9.8-1.9 2 0 1.3.8 2.1 1.9 2.1 1.2 0 2-.8 2-2.1z"/><path class="s6" d="M309.3 293.1v1h-.2c-1.1 0-1.8.7-1.8 1.9v2.9h-1.1v-5.8h1v1q.6-1 2.1-1z"/><path fill-rule="evenodd" class="s6" d="M316.1 290.8v8.1h-1v-.9c-.5.7-1.3 1-2.1 1-1.7 0-3-1.2-3-3s1.3-2.9 3-2.9c.8 0 1.5.3 2 .9v-3.2zm-1 5.2c0-1.2-.9-2-2-2s-1.9.8-1.9 2c0 1.3.8 2.1 1.9 2.1 1.1 0 2-.8 2-2.1z"/><g style="opacity:.6"><path fill-rule="evenodd" class="s7" d="m238.4 203.2-1.8-2.6H234v2.6h-1.2v-8.4h3.3c2.2 0 3.5 1.1 3.5 2.9 0 1.3-.7 2.2-1.9 2.7l2 2.8zm0-5.5c0-1.2-.8-1.9-2.4-1.9h-2v3.8h2c1.6 0 2.4-.7 2.4-1.9zM247.1 200.4h-5.2c.2 1.1 1.1 1.8 2.3 1.8q1.1 0 1.9-.7l.6.7c-.6.7-1.5 1-2.5 1-2.1 0-3.4-1.3-3.4-3.2 0-1.9 1.3-3.2 3.2-3.2 1.8 0 3.1 1.3 3.1 3.2v.4zm-5.2-.9h4.1c-.1-1-.9-1.8-2-1.8s-2 .8-2.1 1.8z"/><path class="s7" d="m247.9 202.5.5-.9c.5.4 1.4.6 2.2.6 1.1 0 1.5-.3 1.5-.8 0-1.4-4-.2-4-2.7 0-1.2 1-1.9 2.6-1.9.9 0 1.8.2 2.4.5l-.5.9c-.6-.3-1.2-.5-1.9-.5-1 0-1.5.4-1.5.9 0 1.5 4.1.3 4.1 2.8 0 1.1-1.1 1.8-2.8 1.8-1 0-2.1-.3-2.6-.7z"/><path fill-rule="evenodd" class="s7" d="M260.4 200.4h-5.1c.1 1.1 1 1.8 2.3 1.8q1.1 0 1.8-.7l.6.7c-.5.7-1.4 1-2.5 1-2 0-3.4-1.3-3.4-3.2 0-1.9 1.4-3.2 3.2-3.2 1.8 0 3.2 1.3 3.2 3.2 0 .1-.1.3-.1.4zm-5.1-.9h4c-.1-1-.9-1.8-2-1.8s-1.9.8-2 1.8z"/><path class="s7" d="M265.6 202.8c-.3.3-.8.4-1.4.4-1.2 0-2-.7-2-1.9v-3.5h-1.1v-1h1.1v-1.4h1.2v1.4h1.8v1h-1.8v3.4c0 .7.3 1.1 1 1.1.3 0 .6-.1.9-.3z"/><path fill-rule="evenodd" class="s7" d="M277.2 199.7c0 1.8-1.3 2.9-3.5 2.9h-2.1v2.6h-1.2v-8.4h3.3c2.2 0 3.5 1.1 3.5 2.9zm-1.2 0c0-1.2-.8-1.9-2.3-1.9h-2.1v3.8h2.1c1.5 0 2.3-.7 2.3-1.9zM283.8 199.3v3.9h-1.1v-.9c-.4.6-1.1.9-2.1.9-1.4 0-2.4-.7-2.4-1.8 0-1 .7-1.9 2.6-1.9h1.8v-.2c0-1-.5-1.6-1.7-1.6-.7 0-1.5.3-2 .7l-.5-.8c.7-.6 1.6-.8 2.6-.8 1.8 0 2.8.8 2.8 2.5zm-1.2 1.9v-.9h-1.8c-1.1 0-1.4.5-1.4 1 0 .7.5 1.1 1.4 1.1.8 0 1.5-.4 1.8-1.2z"/><path class="s7" d="m285.1 202.5.5-.9c.5.4 1.4.6 2.2.6 1.1 0 1.5-.3 1.5-.8 0-1.4-4-.2-4-2.7 0-1.2 1-1.9 2.7-1.9.8 0 1.7.2 2.3.5l-.5.9c-.6-.3-1.2-.5-1.9-.5-1 0-1.5.4-1.5.9 0 1.5 4.1.3 4.1 2.8 0 1.1-1.1 1.8-2.8 1.8-1 0-2.1-.3-2.6-.7zM291.1 202.5l.5-.9c.5.4 1.4.6 2.2.6 1.1 0 1.5-.3 1.5-.8 0-1.4-4-.2-4-2.7 0-1.2 1-1.9 2.7-1.9.8 0 1.7.2 2.3.5l-.5.9c-.6-.3-1.2-.5-1.8-.5-1 0-1.5.4-1.5.9 0 1.5 4 .3 4 2.8 0 1.1-1.1 1.8-2.8 1.8-1 0-2.1-.3-2.6-.7zM307.4 196.8l-2.3 6.4H304l-1.9-4.9-1.8 4.9h-1.1l-2.4-6.4h1.1l1.8 5.1 1.9-5.1h1l1.9 5.1 1.9-5.1z"/><path fill-rule="evenodd" class="s7" d="M307.8 200c0-1.9 1.4-3.2 3.3-3.2s3.3 1.3 3.3 3.2c0 1.9-1.4 3.2-3.3 3.2s-3.3-1.3-3.3-3.2zm5.5 0c0-1.4-.9-2.2-2.2-2.2-1.2 0-2.1.8-2.1 2.2 0 1.3.9 2.2 2.1 2.2 1.3 0 2.2-.9 2.2-2.2z"/><path class="s7" d="M319.5 196.8v1.1h-.3c-1.2 0-2 .7-2 2.1v3.2H316v-6.4h1.1v1.1c.5-.8 1.2-1.1 2.4-1.1z"/><path fill-rule="evenodd" class="s7" d="M326.8 203.2h-1.1v-1c-.5.7-1.3 1-2.3 1-1.8 0-3.2-1.3-3.2-3.2 0-2 1.4-3.2 3.2-3.2.9 0 1.7.3 2.3 1v-3.5h1.1zm-1.1-3.2c0-1.4-1-2.2-2.2-2.2-1.2 0-2.1.8-2.1 2.2 0 1.3.9 2.2 2.1 2.2 1.2 0 2.2-.9 2.2-2.2z"/></g><path class="s6" d="M214.3 224.2h130.8v22.4H214.3z"/><g style="opacity:.4"><path class="s7" d="M226.8 232.7v6.4h-.5l-4.2-5.2v5.2h-.6v-6.4h.5l4.2 5.2v-5.2z"/><path fill-rule="evenodd" class="s7" d="M233 236.9h-4.1c.1 1 .9 1.7 1.9 1.7.6 0 1.2-.2 1.5-.6l.4.4c-.4.5-1.1.8-1.9.8-1.5 0-2.5-1-2.5-2.5 0-1.4 1-2.4 2.4-2.4 1.3 0 2.3 1 2.3 2.4v.2zm-4.1-.5h3.5c-.1-.9-.8-1.6-1.7-1.6-1 0-1.7.7-1.8 1.6z"/><path class="s7" d="m241.3 234.3-1.8 4.8h-.6l-1.6-3.9-1.5 3.9h-.6l-1.8-4.8h.6l1.5 4.1 1.6-4.1h.5l1.6 4.1 1.5-4.1z"/><path fill-rule="evenodd" class="s7" d="M249.9 235.9c0 1.4-1 2.2-2.7 2.2h-1.7v2h-.7v-6.4h2.4c1.7 0 2.7.8 2.7 2.2zm-.7 0c0-1-.7-1.6-2-1.6h-1.7v3.2h1.7c1.3 0 2-.6 2-1.6zM254.8 236.1v3h-.6v-.7c-.3.5-.9.8-1.7.8-1.1 0-1.8-.6-1.8-1.4 0-.8.5-1.4 1.9-1.4h1.5v-.3c0-.8-.4-1.3-1.3-1.3-.7 0-1.2.3-1.6.6l-.3-.5c.5-.4 1.2-.6 1.9-.6 1.3 0 2 .6 2 1.8zm-.7 1.6v-.8h-1.5c-.9 0-1.2.4-1.2.9s.4.9 1.2.9c.7 0 1.3-.4 1.5-1z"/><path class="s7" d="m255.9 238.6.3-.5c.4.3 1 .5 1.7.5.9 0 1.3-.3 1.3-.8 0-1.2-3.1-.2-3.1-2.2 0-.7.6-1.3 1.9-1.3.6 0 1.3.1 1.7.4l-.3.5c-.4-.3-.9-.4-1.4-.4-.9 0-1.3.4-1.3.8 0 1.3 3.1.3 3.1 2.2 0 .8-.7 1.4-2 1.4-.8 0-1.5-.3-1.9-.6zM260.4 238.6l.3-.5c.3.3 1 .5 1.7.5.9 0 1.3-.3 1.3-.8 0-1.2-3.2-.2-3.2-2.2 0-.7.7-1.3 2-1.3.6 0 1.3.1 1.7.4l-.3.5c-.4-.3-1-.4-1.4-.4-.9 0-1.3.4-1.3.8 0 1.3 3.1.3 3.1 2.2 0 .8-.7 1.4-2 1.4-.8 0-1.5-.3-1.9-.6zM272.5 234.3l-1.8 4.8h-.6l-1.6-3.9-1.5 3.9h-.6l-1.8-4.8h.6l1.5 4.1 1.6-4.1h.5l1.6 4.1 1.5-4.1z"/><path fill-rule="evenodd" class="s7" d="M272.9 236.7c0-1.4 1-2.4 2.4-2.4s2.5 1 2.5 2.4c0 1.5-1.1 2.5-2.5 2.5s-2.4-1-2.4-2.5zm4.2 0c0-1.1-.7-1.9-1.8-1.9-1 0-1.8.8-1.8 1.9 0 1.1.8 1.9 1.8 1.9 1.1 0 1.8-.8 1.8-1.9z"/><path class="s7" d="M281.5 234.3v.6h-.1c-1 0-1.6.6-1.6 1.8v2.4h-.7v-4.8h.6v1q.5-1 1.8-1z"/><path fill-rule="evenodd" class="s7" d="M287.1 232.3v6.8h-.7v-.9c-.4.6-1 1-1.8 1-1.4 0-2.4-1-2.4-2.5 0-1.4 1-2.4 2.4-2.4.7 0 1.4.3 1.8.9v-2.9zm-.6 4.4c0-1.1-.8-1.9-1.8-1.9s-1.8.8-1.8 1.9c0 1.1.8 1.9 1.8 1.9s1.8-.8 1.8-1.9z"/></g></g><g id="Plant"><path class="s4" d="M398.6 376.2s-6.2.8-8.9 0c-2.6-.8-1.6-12.8-4.3-13.1-6.2-.5-5.2 15.4-2.5 18.7 2.6 3.4 16.2 2 16.2 2z"/><path class="s9" d="M398.6 376.2s-6.2.8-8.9 0c-2.6-.8-1.6-12.8-4.3-13.1-6.2-.5-5.2 15.4-2.5 18.7 2.6 3.4 16.2 2 16.2 2z"/><path class="s4" d="M399.1 404.4s-9.2-81.2 1.7-82.2c11-.9 13.6 27.7 9.4 81.2z"/><path d="M399.1 404.4s-9.2-81.2 1.7-82.2c11-.9 13.6 27.7 9.4 81.2z" style="opacity:.3;fill:#fff"/><path class="s7" d="M386.2 394.6h36l-3 23h-30z"/><path class="s4" d="M409.9 348.9s10 .5 10.3 0c.3-.6.3-12.1 4.5-11.4 4.2.7 2.4 14.5 0 16.1-2.4 1.7-14.8 2.5-14.8 2.5s-1.6-5.1 0-7.2z"/><path d="M409.9 348.9s10 .5 10.3 0c.3-.6.3-12.1 4.5-11.4 4.2.7 2.4 14.5 0 16.1-2.4 1.7-14.8 2.5-14.8 2.5s-1.6-5.1 0-7.2z" style="opacity:.4;fill:#fff"/><path class="s4" d="M403.6 397c-1.4-12.4-2.5-24.8-3.3-37.2q-.7-9.4-.9-18.7c0-3.1 0-6.2.1-9.4.1-1.5.2-3.1.5-4.7.1-.7.3-1.5.5-2.3.2-.4.3-.8.6-1.2l.2-.2q.2-.2.4-.2.1-.1.2-.1h.3c.1 0 .3.1.4.1.5.4.6.8.8 1.2q.2.5.4 1.1.3 1.2.5 2.3.4 2.3.7 4.7c.3 3.1.6 6.2.8 9.3q.6 9.3.8 18.7.2 9.3.3 18.6 0 9.4-.1 18.7-.1-9.3-.3-18.7-.2-9.3-.5-18.6c-.2-6.2-.5-12.5-.9-18.7-.2-3.1-.5-6.2-.8-9.3-.2-1.5-.4-3-.7-4.5q-.2-1.2-.5-2.3l-.4-1c-.2-.4-.4-.7-.5-.8-.1 0-.1-.1-.1-.1q0 .1-.1 0v.1q-.1 0-.1.1-.1 0-.2.1c-.2.3-.3.6-.4 1-.3.7-.4 1.4-.6 2.2-.2 1.5-.3 3-.4 4.6-.2 3.1-.2 6.2-.1 9.3 0 6.2.3 12.4.7 18.6q.5 9.4 1.2 18.7.7 9.3 1.5 18.6zM411.2 351.6l5.8-.5c.9 0 1.9-.1 2.8-.2q.7-.1 1.4-.3c.2 0 .5-.1.6-.2 0 0 .1 0 0 0v.2c0-.2-.1-.3-.1-.5.2-2 .6-3.9 1-5.8.4-1.8.8-3.7 1.5-5.6q-.3 1.5-.5 2.9l-.4 2.9-.5 2.8c-.1 1-.3 1.9-.3 2.8v.3c.1 0 .1.2 0 .3 0 .1 0 .1-.1.2l-.2.2c-.3.2-.6.2-.8.3q-.8.1-1.5.2-1.5.1-2.9.1-2.9.1-5.8-.1z"/><path class="s4" d="M411.2 354.2c2.1-.3 4.3-.6 6.5-.9l3.3-.5c1-.2 2.2-.3 3.1-.6 0 0 .2-.2.3-.5q.1-.3.2-.7l.4-1.6c.1-1 .2-2.1.4-3.2l.6-6.6q.2 3.3 0 6.6-.1 1.7-.3 3.3-.2.9-.4 1.7l-.2.8c-.2.3-.2.6-.7.9-.6.2-1.1.3-1.7.4l-1.6.2c-1.1.1-2.2.3-3.3.4q-3.3.3-6.6.3zM395.5 378.4q-2.8.2-5.5-.1c-1-.1-1.9-.2-2.8-.5-.1-.1-.2-.1-.4-.1l-.3-.3c-.2-.3-.3-.5-.5-.7-.2-.5-.3-.9-.4-1.4-.4-1.8-.5-3.7-.5-5.5-.1-1.9 0-3.7.2-5.5.1 1.8.2 3.6.4 5.4.1 1.9.3 3.7.7 5.4.2.8.4 1.9 1 2 .8.3 1.8.4 2.6.6 1.8.3 3.7.5 5.5.7z"/><path class="s4" d="m383.4 365.7.7 6.4c.2 2.1.4 4.3.8 6.3q.1.8.3 1.5c.1.3.2.5.3.6l.3.2q.1.1.3.1c.9.4 2 .5 3 .7 2.1.4 4.2.6 6.4.8q-3.2.1-6.5-.2c-1-.1-2.1-.2-3.2-.6l-.4-.2q-.2-.1-.4-.3c-.3-.3-.4-.5-.5-.8l-.4-1.6c-.3-2.2-.5-4.3-.6-6.5-.1-2.1-.2-4.2-.1-6.4z"/></g><g id="Padlock"><path class="s7" d="M361 139.6c6.4-11.3 20.9-15.3 32.2-8.8l-1 1.7 6.7-1.8-1.8-6.7-.9 1.7c-14.2-8.1-32.3-3.2-40.4 10.9-6.3 11-4.9 24.7 3.4 34.2l4.5-3.9c-6.7-7.6-7.7-18.6-2.7-27.3zM404 132.2l-4.5 3.8c6.4 7.6 7.4 18.5 2.5 27.1-6.5 11.3-21 15.2-32.3 8.7l1-1.7-6.7 1.8 1.8 6.7 1-1.6c14.1 8.1 32.2 3.1 40.3-11 6.2-10.8 4.9-24.3-3.1-33.8z"/><g style="opacity:.6"><path class="s6" d="M361 139.6c6.4-11.3 20.9-15.3 32.2-8.8l-1 1.7 6.7-1.8-1.8-6.7-.9 1.7c-14.2-8.1-32.3-3.2-40.4 10.9-6.3 11-4.9 24.7 3.4 34.2l4.5-3.9c-6.7-7.6-7.7-18.6-2.7-27.3zM404 132.2l-4.5 3.8c6.4 7.6 7.4 18.5 2.5 27.1-6.5 11.3-21 15.2-32.3 8.7l1-1.7-6.7 1.8 1.8 6.7 1-1.6c14.1 8.1 32.2 3.1 40.3-11 6.2-10.8 4.9-24.3-3.1-33.8z"/></g><path class="s7" d="M377.2 123.3h-6.5v-20c0-7.7-6.2-13.9-13.9-13.9-7.6 0-13.8 6.2-13.8 13.9v20h-6.6v-20c0-11.3 9.2-20.4 20.4-20.4 11.3 0 20.4 9.1 20.4 20.4z"/><path class="s6" d="M377.2 123.3h-6.5v-20c0-7.7-6.2-13.9-13.9-13.9-7.6 0-13.8 6.2-13.8 13.9v20h-6.6v-20c0-11.3 9.2-20.4 20.4-20.4 11.3 0 20.4 9.1 20.4 20.4z" style="opacity:.3"/><path class="s4" d="M384.7 118.2v32.7c0 2.1-1.7 3.8-3.8 3.8h-48.2c-2 0-3.7-1.7-3.7-3.8v-32.7c0-2.1 1.7-3.8 3.7-3.8h48.2c.6 0 1.3.2 1.8.5 1.2.6 2 1.8 2 3.3z"/><path class="s9" d="M383.7 116.9v32c0 2.1-1.7 3.8-3.8 3.8h-48.2q-.9 0-1.7-.4v-32.1c0-2.1 1.7-3.8 3.7-3.8h48.2c.6 0 1.3.2 1.8.5z"/><path d="M364 130.5c0-4.1-3.2-7.4-7.2-7.4-3.9 0-7.1 3.3-7.1 7.4 0 3.1 1.9 5.7 4.6 6.8l-.3 8.7h5.7l-.9-8.6c3-.9 5.2-3.6 5.2-6.9z" style="opacity:.5;fill:#000"/></g><g id="Speech_bubble"><path class="s4" d="m127.4 139.6 3.3 10.6 3.3-10.6z"/><path class="s4" d="M157.8 142.8h-54.3c-4.7 0-8.6-3.8-8.6-8.6v-11.5c0-4.8 3.9-8.6 8.6-8.6h54.3c4.8 0 8.6 3.8 8.6 8.6v11.5c0 4.8-3.8 8.6-8.6 8.6z"/><path class="s6" d="m111.8 128.4 1.8 1.1-.5.9-1.9-1.2v2.2h-.9v-2.2l-1.9 1.2-.5-.9 1.9-1.1-1.9-1 .5-.9 1.9 1.1v-2.1h.9v2.1l1.9-1.1.5.9zM118.4 128.4l1.9 1.1-.5.9-1.9-1.2v2.2h-1l.1-2.2-2 1.2-.4-.9 1.8-1.1-1.8-1 .4-.9 2 1.1-.1-2.1h1v2.1l1.9-1.1.5.9zM125 128.4l1.9 1.1-.5.9-1.9-1.2v2.2h-.9v-2.2l-1.9 1.2-.5-.9 1.9-1.1-1.9-1 .5-.9 1.9 1.1v-2.1h.9v2.1l1.9-1.1.5.9zM131.7 128.4l1.8 1.1-.4.9-2-1.2.1 2.2h-1v-2.2l-1.9 1.2-.5-.9 1.9-1.1-1.9-1 .5-.9 1.9 1.1v-2.1h1l-.1 2.1 2-1.1.4.9zM138.3 128.4l1.9 1.1-.5.9-1.9-1.2v2.2h-.9v-2.2l-1.9 1.2-.5-.9 1.9-1.1-1.9-1 .5-.9 1.9 1.1v-2.1h.9v2.1l1.9-1.1.5.9zM144.9 128.4l1.9 1.1-.5.9-1.9-1.2v2.2h-.9v-2.2l-1.9 1.2-.5-.9 1.9-1.1-1.9-1 .5-.9 1.9 1.1v-2.1h.9v2.1l1.9-1.1.5.9zM151.6 128.4l1.9 1.1-.5.9-1.9-1.2v2.2h-1v-2.2l-1.9 1.2-.5-.9 1.9-1.1-1.9-1 .5-.9 1.9 1.1v-2.1h1v2.1l1.9-1.1.5.9z"/></g><g id="Character"><path class="s13" d="m174.1 214.1 6.1-4-6.9-4.2s-5.2 3.9-3.1 6.5zM183.3 203.6l-7.1-1.6-2.9 3.9 6.9 4.2z"/><path class="s13" d="M148.9 201.2c2 3.1 4 6.3 6.1 9.3q1.6 2.3 3.2 4.4c1.1 1.3 2.3 2.6 3.2 3.4.2.2.4.4.5.4.1.1.1.1-.3.1-.2 0-.1.1.3-.1.8-.3 2.1-1.4 3.1-2.6 1.1-1.3 2.2-2.8 3.2-4.3q.7-1.1 1.4-2.3l.6-1 .1-.1s-.1.1-.1.2V209.2c.1 0-.2-.2.4 1.1.8 1.4 2.8 1.3 2.8 1.2q.3-.1.7-.3.3-.2.6-.5l.1-.1q.1-.1.1-.2v-.1q.1 0 0 0v.1c-.1.1-.3.3-.4.5l-4.4-1.9.2-.8q.1-.1.1-.2t.1-.2l.1-.1q0-.2.1-.3c.1-.1 0 0 .2-.1q.2-.3.6-.6.4-.2.7-.3c0-.1 2-.2 2.8 1.2.6 1.4.3 1.1.4 1.2V209.4l-.1.4-.1.3c-.1.6-.2 1.1-.4 1.6q-.4 1.5-.9 3c-.7 1.9-1.6 3.8-2.7 5.7-1.2 1.9-2.5 3.8-4.9 5.5-1.3.9-3 1.6-5.2 1.6-1.3-.1-2.3-.5-3.1-.8-.7-.4-1.3-.7-1.9-1.1-2.1-1.5-3.6-3.1-5-4.6-1.4-1.6-2.7-3.2-3.9-4.8-2.4-3.3-4.6-6.5-6.6-10.1z"/><path class="s4" d="M145.9 196.9c4 1.3 12.1 19.7 12.1 19.7l-13.7 6.6s-2.9-14.5-2.3-19.2c.5-4.6 3.9-7.1 3.9-7.1z"/><path class="s14" d="M145.9 196.9c4 1.3 12.1 19.7 12.1 19.7l-13.7 6.6s-2.9-14.5-2.3-19.2c.5-4.6 3.9-7.1 3.9-7.1z"/><path class="s13" d="m162.1 410.5-7 2-1.7-10.9-.9-5.9 7-1.9 1.2 7.8zM121.8 411.1l-7.3 1v-10.5l-.1-6.5 7.2-1 .1 7.5z"/><path class="s8" d="m121.6 394.1.1 7.5h-7.2l-.1-6.5zM160.7 401.6h-7.3l-.9-5.9 7-1.9z"/><path class="s7" d="m162 409.4-7.9-.2c-.3 0-.6.2-.7.5l-1.7 6.4c-.1.7.4 1.3 1.1 1.3 2.8.1 7 0 10.6.1 4.2.1 6.9-.1 11.9.1 3 0 3.9-3 2.7-3.3-5.7-1.4-9.4-1.1-14.2-4.3-.6-.3-1.1-.5-1.8-.6z"/><path fill-rule="evenodd" class="s4" d="M162.6 410.3q0-.1.1-.2c.3-.1 3.3-1.5 4.2-1q.3.1.3.5 0 .5-.4.8c-.8.7-2.9.3-4.1.1q-.1-.1-.1-.2zm.7-.1c1.6.3 2.8.3 3.3-.1q.2-.2.2-.5 0-.2-.1-.2c-.6-.2-2.2.3-3.4.8z"/><path fill-rule="evenodd" class="s4" d="M162.7 410.4q-.1 0-.1-.1c0-.1.3-2.1 1.2-2.8q.5-.3 1-.3c.5.1.6.3.6.5.1.9-1.7 2.4-2.6 2.8h-.1v-.1zm2.1-2.8q-.4-.1-.7.2c-.7.5-1 1.6-1.1 2.2.9-.5 2.2-1.7 2.1-2.2 0 0 0-.1-.2-.2h-.1z"/><path class="s7" d="m121.5 409.4-8-.2c-.3 0-.6.2-.6.5l-1.7 6.4c-.2.7.3 1.3 1 1.3 2.9.1 7 0 10.6.1 4.3.1 7-.1 11.9.1 3 0 3.9-3 2.7-3.3-5.7-1.4-9.4-1.1-14.2-4.3-.5-.3-1.1-.5-1.7-.6z"/><path fill-rule="evenodd" class="s4" d="M122 410.3q0-.1.1-.2c.4-.1 3.4-1.5 4.2-1q.3.1.3.5 0 .5-.4.8c-.8.7-2.9.3-4 .1l-.2-.2zm.8-.1c1.6.3 2.8.3 3.2-.1q.3-.2.3-.5 0-.2-.1-.2h-.1c-.6-.2-2.2.3-3.3.8z"/><path fill-rule="evenodd" class="s4" d="M122.1 410.4q-.1 0-.1-.1c.1-.1.3-2.1 1.3-2.8q.4-.3.9-.3c.5.1.6.3.7.5.1.9-1.7 2.4-2.6 2.8h-.1l-.1-.1zm2.1-2.8q-.4-.1-.7.2c-.6.5-.9 1.6-1.1 2.2 1-.5 2.2-1.7 2.1-2.2 0 0 0-.1-.1-.2h-.2z"/><path class="s7" d="M106.8 252c-3.8 16.6 2.8 147.4 2.8 147.4h12.7l5.4-109 20.1 109 13.5-1c-8.8-84.5-16.7-134.9-16.7-134.9v-6.3z"/><path class="s9" d="m161.3 398.4-13.5 1-15.8-85.8-4.3-23.2-5.4 109h-12.7S103 268.6 106.8 252l37.8 5.2v6.3s7.9 50.4 16.7 134.9z"/><path class="s4" d="M106 195.8c1.4 8 2 16.1 2.2 23.7.1 5.6 0 10.9-.2 15.6-.5 11.2-1.6 19.7-1.5 22.6 5.6.1 26.6.5 38.1.7 9.1-39.9 1.3-61.5 1.3-61.5s-4.1-1.2-8.9-2l-2-.2c-4.3-.5-11.3-.4-16.2-.3q-1.6.1-3.1.2c-5.1.3-9.7 1.2-9.7 1.2z"/><path class="s13" d="M136.2 196s-2.3 3.3-4.1 3.5c-2.6.3-12-5.4-12-5.4 2.2-1.6 3.2-5.1 3.7-8.9.4-3.2.4-6.6.2-9l8.8 9.5c-1.2 3-1.8 6.2.4 8.5h.1q1 1 2.9 1.8z"/><path class="s8" d="M133.2 194.2c-3.7-2-7.4-5.5-9.4-9 .4-3.2.4-6.6.2-9l8.8 9.5c-1.2 3-1.9 6.3.4 8.5z"/><path class="s7" d="M143 167.6c.8 2.7.1 8.3-3.7 6.4-3.7-2 2.5-11.2 3.7-6.4z"/><path class="s13" d="M123.1 170.4c-.7 7-1.5 11.1 1.4 15.2 4.5 6.2 13.6 4.4 16.4-2.3 2.6-6 3.3-16.5-3.1-20.3-6.2-3.8-14 .4-14.7 7.4z"/><path class="s7" d="m128.2 166.8.4-7.9s-8.4-1-8.2 3.3c-4.7 2.1-2.9 9.5 3.2 13.3 3.6-2.6 3.5-9.2 3.5-9.2q.5.2 1.1.5z"/><path class="s13" d="M119.5 175.8c.2 1.8 1.3 3.4 2.6 4.3 1.9 1.4 3.7-.1 3.9-2.3.1-2-.7-5.2-2.9-5.6-2.3-.5-3.9 1.4-3.6 3.6z"/><path class="s7" d="M133.4 174c-.1.6.1 1.1.5 1.1.4.1.7-.3.8-.9.1-.6-.1-1.1-.5-1.1-.3-.1-.7.3-.8.9zM139.8 175c-.1.6.1 1.1.5 1.1.4.1.8-.3.9-.9.1-.6-.2-1.1-.5-1.1-.4-.1-.8.3-.9.9z"/><path d="M137.7 175s.8 3.3 2 5.1c-1.1.7-2.8 0-2.8 0z" style="fill:#a02724"/><path class="s7" d="m133.5 181.8.8.2c.1 0 .1-.1.2-.2 0-.1-.1-.2-.2-.2-2.5-.4-3.4-2.3-3.4-2.3 0-.1-.1-.1-.2-.1-.1.1-.1.2-.1.2.1.1.8 1.8 2.9 2.4zM131.7 171.6q.2.1.4-.1c1.1-1 2.3-.7 2.3-.7.2 0 .4-.1.4-.3.1-.2-.1-.4-.2-.4s-1.6-.3-3 1c-.1.1-.1.3 0 .4l.1.1zM142.9 173.2q.1.1.2 0c.2 0 .3-.2.3-.4-.6-1.8-2.1-2.2-2.1-2.2-.2-.1-.4 0-.4.2-.1.2 0 .4.2.4.1 0 1.2.4 1.6 1.8q.1.2.2.2zM120.4 162.2s-4.3-4.3 10.3-3.9c14.7.4 17.1 8.6 10.4 10.6l-.3-1.4s-3.4 2-7.5.4l1.1-.7s-10 1.1-14-5z"/><path class="s4" d="M132.1 199.5s-1.9 2.2-4 4.3c-3.2-1.6-10.4-5.8-10.1-9.7.4-1.1 3.4-1.8 3.4-1.8s3.2 4.2 10.7 7.2zM132.1 199.5s2.4 1.9 4 4.3c2.3-1.5 1.1-8.7.3-9.5-1.8-1.1-3.9-1.1-3.9-1.1s1.6 3.3-.4 6.3z"/><g style="opacity:.5"><path class="s6" d="M132.1 199.5s-1.9 2.2-4 4.3c-3.2-1.6-10.4-5.8-10.1-9.7.4-1.1 3.4-1.8 3.4-1.8s3.2 4.2 10.7 7.2zM132.1 199.5s2.4 1.9 4 4.3c2.3-1.5 1.1-8.7.3-9.5-1.8-1.1-3.9-1.1-3.9-1.1s1.6 3.3-.4 6.3z"/></g><path class="s8" d="m132 313.6-4.3-23.2.9-12.3s5.8 21.3 3.4 35.5z"/><path class="s13" d="m110 206.4-6.6 10.7q-1.6 2.7-3.2 5.3c-1 1.8-2 3.6-2.8 5.3-.4.8-.7 1.5-1 2.3q-.4 1.3-.7 2.8c-.5 2-1 4-1.4 6-.9 4.1-1.8 8.3-2.7 12.4l-4.8-.4c-.2-4.3-.1-8.6.1-13 .2-2.1.3-4.3.6-6.5.2-1.1.3-2.3.6-3.4.3-1.3.7-2.6 1.1-3.7.9-2.3 1.8-4.2 2.8-6.2 1-2 2-3.9 3.1-5.8 2.1-3.7 4.3-7.4 6.7-11z"/><path class="s4" d="M106 195.8c-5.4 1.4-15 20.7-15 20.7l11.4 7.4 10.3-10s1.1-4.8-.6-10.9c-1.7-6-6.1-7.2-6.1-7.2z"/><path class="s14" d="M106 195.8c-5.4 1.4-15 20.7-15 20.7l11.4 7.4 10.3-10s1.1-4.8-.6-10.9c-1.7-6-6.1-7.2-6.1-7.2z"/><path class="s7" d="m198.1 179.5-79.2 84.1-8.8-8.3 79.2-84.1c1.8-1.9 4.8-2 6.7-.2l1.9 1.8c1.9 1.8 2 4.8.2 6.7z"/><path class="s5" d="m198.1 179.5-79.2 84.1-8.8-8.3 79.2-84.1c1.8-1.9 4.8-2 6.7-.2l1.9 1.8c1.9 1.8 2 4.8.2 6.7z"/><path class="s8" d="m196.6 171.6 1.3 1.2c1.9 1.8 2 4.8.2 6.7l-79.2 84.1-1.4-1.3 79.3-84c1.8-1.9 1.7-4.9-.2-6.7z"/><path class="s7" d="M171.3 204.1 186 218l1.9-2-1.9-1.8 3-3.2-1.1-1.1 4.6-4.8 1.1 1.1 2.8-3 1.9 1.7 2-2.1-1.1-1 2.8-3-2.2-2.1 1.8-2 3.4 3.2 3.4-3.6-14.7-13.9z"/><path class="s5" d="M171.3 204.1 186 218l1.9-2-1.9-1.8 3-3.2-1.1-1.1 4.6-4.8 1.1 1.1 2.8-3 1.9 1.7 2-2.1-1.1-1 2.8-3-2.2-2.1 1.8-2 3.4 3.2 3.4-3.6-14.7-13.9z"/><g style="opacity:.2"><path class="s16" d="m184.7 216.7 1.9-2 1.3 1.3-1.9 2zM193.6 206.2l-1.1-1.1-4.6 4.8 1.1 1.1-3 3.2-1.3-1.3 3-3.2-1.1-1 4.5-4.8 1.1 1 2.9-3 1.3 1.3zM197.8 200.5l2.9-3 1.3 1.3-2.8 3 1.1 1.1-2 2-1.3-1.2 2-2.1zM198.5 195.4l1.8-1.9 1.3 1.2-1.8 2zM203.7 196.6l3.4-3.6 1.3 1.2-3.4 3.7z"/></g><path class="s7" d="m197.6 181.7-24.3 25.8c-.4.4-1.1.4-1.5 0l-8.8-8.3c-.5-.4-.5-1.1-.1-1.5l24.3-25.8c.4-.4 1.1-.4 1.5 0l8.8 8.3c.5.4.5 1.1.1 1.5zM119.3 290.8c-7.7 8.2-20.7 8.6-28.9.8l-6.7-6.2c-8.2-7.8-8.6-20.8-.8-29 7.7-8.2 20.7-8.6 28.9-.8l6.7 6.2c8.2 7.8 8.6 20.7.8 29z"/><path class="s6" d="M111.7 283.6c-3.9 4.1-10.3 4.3-14.4.4l-6.4-6c-4-3.8-4.2-10.3-.4-14.4 3.9-4.1 10.3-4.3 14.4-.4l6.4 6c4.1 3.8 4.2 10.3.4 14.4z"/><path d="m197.6 181.7-24.3 25.8c-.4.4-1.1.4-1.5 0l-8.8-8.3c-.5-.4-.5-1.1-.1-1.5l24.3-25.8c.4-.4 1.1-.4 1.5 0l8.8 8.3c.5.4.5 1.1.1 1.5z" style="opacity:.5;fill:#fff"/><g style="opacity:.5"><path class="s6" d="M119.3 290.8c-7.7 8.2-20.7 8.6-28.9.8l-6.7-6.2c-8.2-7.8-8.6-20.8-.8-29 7.7-8.2 20.7-8.6 28.9-.8l6.7 6.2c8.2 7.8 8.6 20.7.8 29z"/><path class="s6" d="M111.7 283.6c-3.9 4.1-10.3 4.3-14.4.4l-6.4-6c-4-3.8-4.2-10.3-.4-14.4 3.9-4.1 10.3-4.3 14.4-.4l6.4 6c4.1 3.8 4.2 10.3.4 14.4z"/></g><path class="s8" d="m194.9 177.7 2.6 2.5c.5.4.5 1.1.1 1.5l-24.3 25.8c-.4.4-1.1.4-1.5 0l-2.7-2.5c.4.4 1.1.4 1.5-.1l24.3-25.7c.4-.5.4-1.1 0-1.5z"/><g style="opacity:.2"><path class="s18" d="m102.9 261.3 2 1.9c-2-1.9-4.6-2.9-7.3-2.8-2.6.1-5.1 1.2-7.1 3.2-3.8 4.1-3.6 10.6.4 14.4l-1.9-1.8c-4.1-3.9-4.3-10.4-.5-14.5 2-2 4.5-3.1 7.2-3.2 2.6 0 5.2.9 7.2 2.8zM116.5 260l2 1.8c8.2 7.8 8.6 20.7.8 29-7.7 8.2-20.7 8.6-28.9.8l-2-1.9c8.2 7.8 21.2 7.4 28.9-.8 7.8-8.2 7.4-21.2-.8-28.9z"/></g><g style="opacity:.2"><path class="s18" d="m102.9 261.3 2 1.9c-2-1.9-4.6-2.9-7.3-2.8-2.6.1-5.1 1.2-7.1 3.2-3.8 4.1-3.6 10.6.4 14.4l-1.9-1.8c-4.1-3.9-4.3-10.4-.5-14.5 2-2 4.5-3.1 7.2-3.2 2.6 0 5.2.9 7.2 2.8z"/><path class="s18" d="m102.9 261.3 2 1.9c-2-1.9-4.6-2.9-7.3-2.8-2.6.1-5.1 1.2-7.1 3.2-3.8 4.1-3.6 10.6.4 14.4l-1.9-1.8c-4.1-3.9-4.3-10.4-.5-14.5 2-2 4.5-3.1 7.2-3.2 2.6 0 5.2.9 7.2 2.8z"/></g><path class="s13" d="m87.8 262.2 7.3-1.8-.8-5.4-9 1.8z"/><path class="s13" d="m87.1 249.8-1.8 7 9-1.8s.1-6.3-3.2-6.7z"/></g></svg>