<svg xmlns="http://www.w3.org/2000/svg" viewBox="0 0 500 500" style="enable-background:new 0 0 500 500" xml:space="preserve"><path style="fill:#ebebeb" d="M416.779 398.494h33.122v.25h-33.122zM322.527 401.208h8.693v.25h-8.693zM396.586 389.208h19.192v.25h-19.192zM52.459 390.888h43.193v.25H52.459zM104.556 390.888h6.333v.25h-6.333zM131.471 395.111h93.676v.25h-93.676zM238.401 337.8H45.302a5.715 5.715 0 0 1-5.708-5.708V60.66a5.715 5.715 0 0 1 5.708-5.708h193.099a5.715 5.715 0 0 1 5.707 5.708v271.432a5.715 5.715 0 0 1-5.707 5.708zM45.302 55.203a5.464 5.464 0 0 0-5.458 5.458v271.432a5.464 5.464 0 0 0 5.458 5.458h193.099a5.463 5.463 0 0 0 5.457-5.458V60.66a5.464 5.464 0 0 0-5.457-5.458H45.302zM454.698 338.058H261.599a5.714 5.714 0 0 1-5.707-5.708V60.919a5.715 5.715 0 0 1 5.707-5.708h193.099a5.714 5.714 0 0 1 5.708 5.708V332.35a5.714 5.714 0 0 1-5.708 5.708zM261.599 55.461a5.463 5.463 0 0 0-5.457 5.458V332.35a5.463 5.463 0 0 0 5.457 5.458h193.099a5.464 5.464 0 0 0 5.458-5.458V60.919a5.464 5.464 0 0 0-5.458-5.458H261.599zM0 382.398h500v.25H0z"/><path style="fill:#f5f5f5" d="M304.534 114.474h53.265s12.491-4.705 10.876-17.164c-1.615-12.46-20.473-2.078-20.473-2.078s5.716-17.384-12.546-12.452-20.042 22.167-20.042 22.167-23.987-4.187-11.08 9.527zM101.309 131.591c7.114 1.784 15.099-4.157 15.435-11.483.099-2.158-.365-4.329-.089-6.472.879-6.837 10.716-10.416 15.783-5.742.765-11.05 9.317-21.114 20.098-23.653 3.828-.902 8.054-.875 11.471 1.071s5.704 6.157 4.572 9.923c1.84-6.757 7.855-12.266 14.795-13.199s14.346 2.962 17.238 9.34c2.891 6.378.794 14.711-4.945 18.723 3.962-4.295 12.324-4.537 14.292-1.076.771 1.356 1.255 2.844 1.22 4.403-.188 8.503-6.468 14.222-14.217 17.728-7.748 3.505-89.272 3.791-95.653.437zM411.837 157.904l-.014.279c-.348.049.507 1.033.698.738.191-.294-.073-.669-.334-.903-2.202-1.973-5.509-2.619-8.292-1.621-2.783.998-4.925 3.599-5.372 6.522-1.985-2.368-5.747-2.414-8.541-1.095-4.164 1.964-6.913 6.594-6.644 11.19-2.295-1.126-5.344-.387-6.869 1.665-.679.913-1.063 2.016-1.727 2.94a5.912 5.912 0 0 1-4.5 2.416c6.72 1.377 33.733.714 40.385.843 2.907.057 5.848.31 8.7-.257 2.852-.566 5.685-2.116 6.961-4.729 1.276-2.613.397-6.319-2.282-7.449 1.692-3.019.977-7.18-1.626-9.461-2.605-2.282-7.772-3.153-10.543-1.078z"/><path style="fill:#ebebeb" d="M162.28 243.426v-3.571c0-.548-.852-.549-.852 0v3.92c0 .247.196.403.426.426 1.345.136 2.328 1.807 1.211 2.924-1.071 1.07-2.779.228-2.924-1.211-.055-.54-.907-.546-.852 0 .213 2.117 2.689 3.52 4.378 1.814 1.567-1.584.492-3.828-1.387-4.302z"/><path style="fill:#f0f0f0" d="M99.496 217.789v7.741l-8.142-8.142-.402.402h-.568V291.254h10.248V217.79h-1.136zm-7.976 56.043 7.173 7.173H91.52v-7.173zm0-18.224 7.173 7.173H91.52v-7.173zm0-18.224 7.173 7.173H91.52v-7.173zm0-18.224 7.173 7.173H91.52v-7.173zm7.173 8.309-7.173 7.173v-7.173h7.173zm.803.803v7.173h-7.173l7.173-7.173zm-.803 17.421-7.173 7.173v-7.173h7.173zm.803.803v7.173h-7.173l7.173-7.173zm-.803 17.421-7.173 7.173v-7.173h7.173zm.803.803v7.172h-7.173l7.173-7.172zm-.803 17.421-7.173 7.173v-7.173h7.173zm-6.37 7.976 7.173-7.173v7.173h-7.173zm7.173-9.915-7.173-7.173h7.173v7.173zm0-18.224-7.173-7.173h7.173v7.173zm0-18.224-7.173-7.173h7.173v7.173zM91.523 193.592V207.828h1.136v-5.463l5.864 5.864.402-.402h.568V193.591h-7.97zm6.031 1.136-4.894 4.895v-4.895h4.894zm.803 11.728-4.894-4.895h4.894v4.895zm-4.894-6.03 4.894-4.895v4.895h-4.894z"/><path style="fill:#e6e6e6" d="M59.148 217.789h13.668v13.668H59.148zM162.037 237.504h-.758v-26.275l-63.643-21.105h-4.21l-34.078 21.153-.399-.644 34.261-21.267h4.549l.058.019 64.22 21.297z"/><path style="fill:#f0f0f0" d="M154.256 218.38h.781l7.993-7.993H58.58v7.97h95.676v.023zm1.136-6.857h4.895l-4.895 4.895v-4.895zm-95.675 5.698v-4.895l4.895 4.895h-4.895zm5.697-.803-4.895-4.895h4.895v4.895zm1.136-4.895h4.895l-4.895 4.895v-4.895zm5.698 5.698h-4.895l4.895-4.895v4.895zm1.136 0v-4.895l4.895 4.895h-4.895zm5.698-.803-4.895-4.895h4.895v4.895zm1.136-4.895h4.895l-4.895 4.895v-4.895zm5.698 5.698h-4.895l4.895-4.895v4.895zm1.136 0v-4.895l4.895 4.895h-4.895zm5.698-.803-4.895-4.895h4.895v4.895zm1.136-4.895h4.895l-4.895 4.895v-4.895zm5.698 5.698H94.69l4.895-4.895v4.895zm1.136 0v-4.895l4.895 4.895h-4.895zm5.698-.803-4.895-4.895h4.895v4.895zm1.136-4.895h4.895l-4.895 4.895v-4.895zm5.698 5.698h-4.895l4.895-4.895v4.895zm1.136 0v-4.895l4.895 4.895h-4.895zm5.698-.803-4.895-4.895h4.895v4.895zm1.136-4.895h4.895l-4.895 4.895v-4.895zm5.698 5.698h-4.895l4.895-4.895v4.895zm1.136 0v-4.895l4.895 4.895h-4.895zm5.698-.803-4.895-4.895h4.895v4.895zm1.136-4.895h4.895l-4.895 4.895v-4.895zm5.698 5.698h-4.895l4.895-4.895v4.895zm1.136-5.698h4.895l-4.895 4.895v-4.895zm5.698 5.698h-4.895l4.895-4.895v4.895zm1.136 0v-4.895l4.895 4.895h-4.895zm.803-5.698h4.895v4.895l-4.895-4.895z"/><path style="fill:#f0f0f0" d="M105.685 220.893H84.667l.769-8.844a4.622 4.622 0 0 1 4.604-4.221h10.013a4.622 4.622 0 0 1 4.591 4.089l1.041 8.976z"/><path style="fill:#fafafa" d="M88.056 211.5h4.036v4.035h-4.036zM93.158 211.5h4.036v4.035h-4.036zM98.26 211.5h4.036v4.035H98.26z"/><circle style="fill:#e6e6e6" cx="95.508" cy="191.408" r="2.752"/><path style="fill:#e6e6e6" d="M161.854 242.206a2.352 2.352 0 0 1-2.351-2.351v-2.351h4.702v2.351a2.35 2.35 0 0 1-2.351 2.351zM275.233 234.393h76.34v132.003h-76.34zM289.893 215.945v18.447h47.019v-18.447z"/><path transform="rotate(-180 313.403 233.496)" style="fill:#f5f5f5" d="M273.657 232.5h79.492v1.993h-79.492z"/><path transform="rotate(-180 313.403 214.95)" style="fill:#f5f5f5" d="M287.897 213.953h51.013v1.993h-51.013z"/><path style="fill:#f0f0f0" d="M259.316 234.393h76.34v132.003h-76.34zM273.976 215.945v18.447h47.019v-18.447z"/><path style="fill:#fff" d="M264.203 239.28h9.774v9.774h-9.774zM283.134 239.28h9.774v9.774h-9.774zM302.065 239.28h9.774v9.774h-9.774zM320.996 239.28h9.774v9.774h-9.774zM264.203 257.038h9.774v9.774h-9.774zM283.134 257.038h9.774v9.774h-9.774zM302.065 257.038h9.774v9.774h-9.774zM320.996 257.038h9.774v9.774h-9.774zM264.203 274.796h9.774v9.774h-9.774zM283.134 274.796h9.774v9.774h-9.774zM302.065 274.796h9.774v9.774h-9.774zM283.134 223.93h9.774v9.773h-9.774zM302.065 223.93h9.774v9.773h-9.774zM320.996 274.796h9.774v9.774h-9.774zM264.203 292.555h9.774v9.774h-9.774zM283.134 292.555h9.774v9.774h-9.774zM302.065 292.555h9.774v9.774h-9.774zM320.996 292.555h9.774v9.774h-9.774zM264.203 310.313h9.774v9.774h-9.774zM283.134 310.313h9.774v9.774h-9.774zM302.065 310.313h9.774v9.774h-9.774zM320.996 310.313h9.774v9.774h-9.774zM264.203 328.071h9.774v9.774h-9.774zM283.134 328.071h9.774v9.774h-9.774zM302.065 328.071h9.774v9.774h-9.774zM320.996 328.071h9.774v9.774h-9.774zM264.203 345.83h9.774v9.774h-9.774zM283.134 345.83h9.774v9.774h-9.774zM302.065 345.83h9.774v9.774h-9.774zM320.996 345.83h9.774v9.774h-9.774z"/><path transform="rotate(-180 297.486 233.496)" style="fill:#f5f5f5" d="M257.74 232.5h79.492v1.993H257.74z"/><path transform="rotate(-180 297.486 214.95)" style="fill:#f5f5f5" d="M271.98 213.953h51.013v1.993H271.98z"/><path style="fill:#e6e6e6" d="M378.275 246.28h69.466v120.117h-69.466z"/><path transform="rotate(-180 413.007 245.464)" style="fill:#f5f5f5" d="M376.841 244.557h72.334v1.814h-72.334z"/><path style="fill:#f0f0f0" d="M363.791 246.28h69.466v120.117h-69.466z"/><path style="fill:#fff" d="M368.238 250.727h8.894v8.894h-8.894zM385.464 250.727h8.894v8.894h-8.894zM402.69 250.727h8.894v8.894h-8.894zM419.916 250.727h8.894v8.894h-8.894zM368.238 266.886h8.894v8.894h-8.894zM385.464 266.886h8.894v8.894h-8.894zM402.69 266.886h8.894v8.894h-8.894zM419.916 266.886h8.894v8.894h-8.894zM368.238 283.045h8.894v8.894h-8.894zM385.464 283.045h8.894v8.894h-8.894zM402.69 283.045h8.894v8.894h-8.894zM419.916 283.045h8.894v8.894h-8.894zM368.238 299.204h8.894v8.894h-8.894zM385.464 299.204h8.894v8.894h-8.894zM402.69 299.204h8.894v8.894h-8.894zM419.916 299.204h8.894v8.894h-8.894zM368.238 315.363h8.894v8.894h-8.894zM385.464 315.363h8.894v8.894h-8.894zM402.69 315.363h8.894v8.894h-8.894zM419.916 315.363h8.894v8.894h-8.894zM368.238 331.522h8.894v8.894h-8.894zM385.464 331.522h8.894v8.894h-8.894zM402.69 331.522h8.894v8.894h-8.894zM419.916 331.522h8.894v8.894h-8.894zM368.238 347.682h8.894v8.894h-8.894zM385.464 347.682h8.894v8.894h-8.894zM402.69 347.682h8.894v8.894h-8.894zM419.916 347.682h8.894v8.894h-8.894z"/><path transform="rotate(-180 398.524 245.464)" style="fill:#f5f5f5" d="M362.357 244.557h72.334v1.814h-72.334z"/><path style="fill:#e6e6e6" d="M168.613 234.393h76.34v132.003h-76.34zM183.273 215.945v18.447h47.019v-18.447z"/><path transform="rotate(-180 206.783 233.496)" style="fill:#f5f5f5" d="M167.037 232.5h79.492v1.993h-79.492z"/><path transform="rotate(-180 206.783 214.95)" style="fill:#f5f5f5" d="M181.277 213.953h51.013v1.993h-51.013z"/><path style="fill:#f0f0f0" d="M152.696 234.393h76.34v132.003h-76.34zM167.356 215.945v18.447H214.376v-18.447z"/><path style="fill:#fff" d="M157.583 239.28h9.774v9.774h-9.774zM176.514 239.28h9.774v9.774h-9.774zM195.445 239.28h9.774v9.774h-9.774zM214.376 239.28h9.774v9.774h-9.774zM157.583 257.038h9.774v9.774h-9.774zM176.514 257.038h9.774v9.774h-9.774zM195.445 257.038h9.774v9.774h-9.774zM214.376 257.038h9.774v9.774h-9.774zM157.583 274.796h9.774v9.774h-9.774zM176.514 274.796h9.774v9.774h-9.774zM195.445 274.796h9.774v9.774h-9.774zM176.514 223.93h9.774v9.773h-9.774zM195.445 223.93h9.774v9.773h-9.774zM214.376 274.796h9.774v9.774h-9.774zM157.583 292.555h9.774v9.774h-9.774zM176.514 292.555h9.774v9.774h-9.774zM195.445 292.555h9.774v9.774h-9.774zM214.376 292.555h9.774v9.774h-9.774zM157.583 310.313h9.774v9.774h-9.774zM176.514 310.313h9.774v9.774h-9.774zM195.445 310.313h9.774v9.774h-9.774zM214.376 310.313h9.774v9.774h-9.774zM157.583 328.071h9.774v9.774h-9.774zM176.514 328.071h9.774v9.774h-9.774zM195.445 328.071h9.774v9.774h-9.774zM214.376 328.071h9.774v9.774h-9.774zM157.583 345.83h9.774v9.774h-9.774zM176.514 345.83h9.774v9.774h-9.774zM195.445 345.83h9.774v9.774h-9.774zM214.376 345.83h9.774v9.774h-9.774z"/><path transform="rotate(-180 190.866 233.496)" style="fill:#f5f5f5" d="M151.12 232.5h79.492v1.993H151.12z"/><path transform="rotate(-180 190.866 214.95)" style="fill:#f5f5f5" d="M165.36 213.953h51.013v1.993H165.36z"/><path style="fill:#f5f5f5" d="M99.36 289.966H51.058v75.864h77.084V256.325z"/><path style="fill:#e6e6e6" d="M128.142 256.325h14.386V365.83h-14.386z"/><path style="fill:#e0e0e0" d="M54.654 305.343h11.472v11.473H54.654z"/><path style="opacity:.3;fill:#fff;enable-background:new" d="M55.931 305.343h10.196v11.473H55.931z"/><path style="fill:#e0e0e0" d="M54.654 324.644h11.472v11.473H54.654z"/><path style="opacity:.3;fill:#fff;enable-background:new" d="M55.931 324.644h10.196v11.473H55.931z"/><path style="fill:#e0e0e0" d="M54.654 343.945h11.472v11.473H54.654z"/><path style="opacity:.3;fill:#fff;enable-background:new" d="M55.931 343.945h10.196v11.473H55.931z"/><path style="opacity:.2;fill:#fff;enable-background:new" d="M55.931 343.944h11.468v11.468H55.931z"/><path style="fill:#e0e0e0" d="M73.992 305.343h11.473v11.473H73.992z"/><path style="opacity:.3;fill:#fff;enable-background:new" d="M75.269 305.343h10.195v11.473H75.269z"/><path style="fill:#e0e0e0" d="M73.992 324.644h11.473v11.473H73.992z"/><path style="opacity:.3;fill:#fff;enable-background:new" d="M75.269 324.644h10.195v11.473H75.269z"/><path style="fill:#e0e0e0" d="M73.992 343.945h11.473v11.473H73.992z"/><path style="opacity:.3;fill:#fff;enable-background:new" d="M75.269 343.945h10.195v11.473H75.269z"/><path style="opacity:.2;fill:#fff;enable-background:new" d="M75.27 343.944h11.468v11.468H75.27z"/><path style="fill:#e0e0e0" d="M93.33 305.343h11.472v11.473H93.33z"/><path style="opacity:.3;fill:#fff;enable-background:new" d="M94.608 305.343h10.195v11.473H94.608z"/><path style="fill:#e0e0e0" d="M93.33 324.644h11.472v11.473H93.33z"/><path style="opacity:.3;fill:#fff;enable-background:new" d="M94.608 324.644h10.195v11.473H94.608z"/><path style="fill:#e0e0e0" d="M93.33 343.945h11.472v11.473H93.33z"/><path style="opacity:.3;fill:#fff;enable-background:new" d="M94.608 343.945h10.195v11.473H94.608z"/><path style="opacity:.2;fill:#fff;enable-background:new" d="M94.608 343.944h11.468v11.468H94.608z"/><path style="fill:#e0e0e0" d="M112.669 305.343h11.473v11.473h-11.473z"/><path style="opacity:.3;fill:#fff;enable-background:new" d="M113.946 305.343h10.195v11.473h-10.195z"/><path style="fill:#e0e0e0" d="M112.669 324.644h11.473v11.473h-11.473z"/><path style="opacity:.3;fill:#fff;enable-background:new" d="M113.946 324.644h10.195v11.473h-10.195z"/><path style="fill:#e0e0e0" d="M112.669 343.945h11.473v11.473h-11.473z"/><path style="opacity:.3;fill:#fff;enable-background:new" d="M113.946 343.945h10.195v11.473h-10.195z"/><path style="opacity:.2;fill:#fff;enable-background:new" d="M113.946 343.944h11.468v11.468h-11.468z"/><ellipse style="fill:#f5f5f5" cx="250" cy="415.693" rx="193.889" ry="11.323"/><path style="fill:#407bff" d="M39.919 366.657h420.162v15.558H39.919z"/><g style="opacity:.7"><path style="fill:#fff" d="M39.919 366.657h420.162v15.558H39.919z"/></g><path style="fill:#fff" d="M61.582 366.657h1v16.308h-1zM155.562 366.657h1v16.308h-1zM249.542 366.657h1v16.308h-1zM343.523 366.657h1v16.308h-1zM437.503 366.657h1v16.308h-1z"/><path style="fill:#407bff" d="M39.919 383.366h420.162v4.901H39.919z"/><path style="opacity:.9;fill:#fff" d="M39.919 383.366h420.162v4.901H39.919z"/><path style="fill:#407bff" d="M386.262 334.014h-2.017a2.016 2.016 0 1 1 0-4.032h2.017v4.032zM415.211 329.981h2.016a2.017 2.017 0 0 1 0 4.032h-2.017v-4.032z"/><path style="fill:#407bff" d="M386.262 325.68h28.949v12.635h-28.949z"/><path style="opacity:.1" d="M386.262 325.68h28.949v12.635h-28.949z"/><path style="fill:#407bff" d="M384.246 323.932h4.033v16.131h-4.033zM413.195 323.932h4.033v16.131h-4.033z"/><path style="opacity:.2;fill:#fff" d="M384.246 323.932h4.033v16.131h-4.033zM413.195 323.932h4.033v16.131h-4.033z"/><path style="fill:#407bff" d="M408.514 361.341H392.96v-43.655a7.777 7.777 0 0 1 15.554 0v43.655z"/><path style="fill:#407bff" d="M411.323 366.71h-21.172v-1.823a6.148 6.148 0 0 1 6.148-6.148h8.876a6.148 6.148 0 0 1 6.148 6.148v1.823z"/><path style="opacity:.2;fill:#fff" d="M411.323 366.71h-21.172v-1.823a6.148 6.148 0 0 1 6.148-6.148h8.876a6.148 6.148 0 0 1 6.148 6.148v1.823z"/><circle style="opacity:.2;fill:#fff" cx="400.737" cy="331.973" r="6.656"/><path style="fill:#ebebeb" d="M402.321 331.973a1.584 1.584 0 1 1-3.168 0 1.584 1.584 0 0 1 3.168 0z"/><path style="fill:#407bff" d="M390.151 319.899c0-1.114.903-2.016 2.016-2.016h17.139a2.017 2.017 0 0 1 0 4.032h-17.139a2.015 2.015 0 0 1-2.016-2.016z"/><path style="opacity:.2;fill:#fff" d="M390.151 319.899c0-1.114.903-2.016 2.016-2.016h17.139a2.017 2.017 0 0 1 0 4.032h-17.139a2.015 2.015 0 0 1-2.016-2.016z"/><path style="fill:#407bff" d="M134.878 89.384c-14.059 1.818-35.489 6.502-52.253 15.308v3.339s23.166-13.465 52.359-15.88l-.106-2.767z"/><path style="fill:#407bff" d="M159.412 94.347c-.83-.706-1.855-1.431-2.967-1.908-2.42-1.042-17.061 1.148-22.078 1.943v-2.137l-.124-2.773c3.409-.353 6.465-.6 9.043-.759 4.221-.23 7.347-.371 9.661-.441a6.24 6.24 0 0 1 6.465 6.075z"/><path style="fill:#263238" d="M117.176 93.529h2.278v9.969h-2.278z"/><path style="fill:#263238" d="M82.617 128.18c-.975 0-1.758-.871-1.758-1.846 0-.899 0-2.768 9.399-11.267 1.092-.988 2.556-2.265 4.198-3.386 12.488-8.523 27.82-10.646 28.466-10.732a1.766 1.766 0 0 1 .469 3.501c-.151.02-15.166 2.11-26.942 10.149-1.466 1-2.811 2.176-3.82 3.088-6.113 5.527-8.063 8.137-8.252 8.807-.002.974-.784 1.686-1.76 1.686z"/><path style="fill:#263238" d="M84.267 366.471h-4.423V104.42c0-.134.109-.243.243-.243h3.936c.134 0 .243.109.243.243v262.051z"/><path style="fill:#407bff" d="M161.196 94.541v.141l-20.505 1.925-4.557-1.925v-.3c5.016-.795 19.658-2.985 22.078-1.943 1.113.477 2.137 1.201 2.967 1.908.017.053.017.124.017.194z"/><path style="opacity:.6;fill:#fff" d="M161.196 94.541v.141l-20.505 1.925-4.557-1.925v-.3c5.016-.795 19.658-2.985 22.078-1.943 1.113.477 2.137 1.201 2.967 1.908.017.053.017.124.017.194z"/><path style="fill:#263238" d="M324.086 194.663a.935.935 0 0 1-.048 1.331.859.859 0 0 1-.425.222l.222 7.9-.569.019-.212-7.957a.88.88 0 0 1-.338-.232.915.915 0 0 1-.251-.675l-3.887-1.746.039-.56 4.128 1.678.019-.019a.934.934 0 0 1 1.322.039z"/><path style="fill:#263238" d="M323.373 184.015c-6.366 0-11.516 5.16-11.516 11.516s5.151 11.517 11.516 11.517c6.356 0 11.517-5.16 11.517-11.517-.001-6.356-5.161-11.516-11.517-11.516zm0 20.621c-5.102 0-9.24-4.138-9.24-9.24a9.235 9.235 0 0 1 9.24-9.24 9.235 9.235 0 0 1 9.24 9.24c0 5.102-4.138 9.24-9.24 9.24z"/><path style="opacity:.8;fill:#263238" d="M324.038 195.994a.859.859 0 0 1-.425.222l.222 7.9-.569.019-.212-7.957a.88.88 0 0 1-.338-.232.915.915 0 0 1-.251-.675l-3.887-1.746.039-.56 4.128 1.678.019-.019a.93.93 0 0 1 1.321.039.934.934 0 0 1-.047 1.331z"/><path style="fill:#263238" d="M324.038 195.994a.859.859 0 0 1-.425.222.926.926 0 0 1-.897-.271.915.915 0 0 1-.251-.675.895.895 0 0 1 .28-.627l.019-.019a.93.93 0 0 1 1.321.039.934.934 0 0 1-.047 1.331z"/><path style="fill:#263238" d="m323.836 204.115-.569.02-.212-7.958-.02-.656-.569-.25-3.887-1.746.039-.56 4.128 1.679.839.347.029 1.225z"/><path style="fill:#f7978d" d="m223.942 350.974-19.268 7.139c-.483-.491-2.708-7.21-2.708-7.21l16.879-7.211 5.097 7.282z"/><path style="fill:#407bff" d="M204.644 359.981a.24.24 0 0 1 .092-.233.211.211 0 0 1 .239.012c.118.094 2.893 2.301 3.103 3.87.055.294-.009.598-.174.84a.749.749 0 0 1-.813.391c-.587-.108-1.154-1.087-1.588-2.175a15.882 15.882 0 0 1-.859-2.705zm2.937 3.328a9.51 9.51 0 0 0-2.364-2.79c.431 1.647 1.313 3.777 1.987 3.936.091.012.221.01.398-.241a.697.697 0 0 0 .107-.506 2.297 2.297 0 0 0-.118-.408l-.01.009z"/><path style="fill:#407bff" d="M204.689 359.84a.197.197 0 0 1 .164-.135c.096-.026 2.311-.789 3.586-.098.358.212.618.569.722.99.172.573-.045.838-.229.99-.826.576-3.359-.647-4.203-1.467l-.055-.076.015-.204zm3.536.17a4.486 4.486 0 0 0-2.893.014c1.017.764 2.955 1.554 3.416 1.175.041-.034.161-.116.058-.483l-.079-.109a1.092 1.092 0 0 0-.502-.597z"/><path style="fill:#263238" d="m205.582 358.007-2.921-8.32a.733.733 0 0 0-.819-.493l-7.058.943c-.703.145-.989 1.776-.96 1.853 1.321 5.27 4.953 16.289 6.289 19.874 1.336 3.584 4.848 2.642 4.604 1.049-1.096-7.143-.152-10.411.842-13.251.206-.528.214-1.12.023-1.655z"/><path d="m212.097 346.575 6.748-2.883 5.097 7.282-9.631 3.569z" style="opacity:.2"/><path style="fill:#263238" d="M255.139 264.162c-.919 2.16-1.194 2.858-1.734 5.165-2.201 9.403-6.074 57.813-8.228 58.753-6.437 2.809-15.084 3.701-29.849 15.303 1.526 3.947 3.022 6.752 4.36 11.359 0 0 30.182-6.873 38.877-14.974 8.971-8.359 18.279-49.068 22.058-59.806 2.145-6.096 4.63-13.39 1.479-18.914-1.77-3.101-20.011-13.219-26.963 3.114z"/><path style="fill:#263238" d="m283.225 249.681 3.059 1.059c-1.933 16.735-3.373 23.014-3.373 23.014l-3.249 9.408s-22.266 9.097-30.055-1.553c-10.465-14.31 3.236-41.951 3.236-41.951s19.257 5.782 30.382 10.023z"/><path style="opacity:.4" d="M252.386 273.644c2.318.877 23.06 23.096 23.06 23.096l-5.399 18.682-19.458-25.28 1.797-16.498z"/><path style="fill:#f7978d" d="m312.588 374.33.618 24.828c-.73.435-7.708 2.503-7.708 2.503l-2.98-23.511 10.07-3.82z"/><path style="fill:#407bff" d="M315.698 398.141a.245.245 0 0 1-.251-.108.283.283 0 0 1 .01-.289c.099-.144 2.423-3.532 4.099-3.81.314-.071.641.001.902.198.326.193.5.586.431.977-.107.711-1.147 1.411-2.306 1.952-.928.455-1.894.817-2.885 1.08zm3.521-3.601a10.65 10.65 0 0 0-2.953 2.9c1.758-.547 4.026-1.645 4.186-2.462.012-.11.007-.267-.264-.478a.675.675 0 0 0-.543-.121 2.254 2.254 0 0 0-.435.148l.009.013z"/><path style="fill:#407bff" d="M315.546 398.089a.231.231 0 0 1-.147-.196c-.03-.115-.878-2.78-.156-4.331.221-.435.6-.756 1.049-.888.61-.216.898.041 1.063.261.629.989-.644 4.068-1.51 5.101l-.081.068-.218-.015zm.131-4.274a6.073 6.073 0 0 0 .057 3.495c.804-1.241 1.621-3.594 1.208-4.145-.037-.049-.126-.193-.518-.062l-.115.097a1.208 1.208 0 0 0-.632.615z"/><path style="fill:#263238" d="m313.571 397.039-8.867 3.658c-.375.158-.591.576-.516.997l1.111 8.513c.165.847 1.916 1.167 1.998 1.131 5.623-1.677 17.37-6.237 21.189-7.907 3.818-1.67 2.759-5.898 1.057-5.579-7.632 1.436-11.145.345-14.2-.812a2.266 2.266 0 0 0-1.772-.001z"/><path d="m303.495 385.853-.977-7.702 10.07-3.821.318 10.773z" style="opacity:.2"/><path style="fill:#263238" d="M247.517 278.308c7.333 18.274 34.158 38.046 44.624 53.184 0 0 4.931 35.16 9.485 49.269 5.119-.812 9.634-.379 12.652-1.355 0 0 .647-39.353-.027-50.268-1.494-24.217-20.436-44.48-42.341-68.086-3.671-3.956-15.351-7.277-21.3-3.934-1.085.605-6.923 11.646-3.093 21.19z"/><path style="fill:#263238" d="M316.48 374.324c.091-.007-.242 7.031-.242 7.031l-17.133 1.451-.558-6.385 17.933-2.097z"/><path style="opacity:.6;fill:#fff" d="M316.48 374.324c.091-.007-.242 7.031-.242 7.031l-17.133 1.451-.558-6.385 17.933-2.097z"/><path style="fill:#263238" d="M224.943 355.492c.03.082-5.974 2.118-5.974 2.118l-6.23-16.973 5.219-2.645 6.985 17.5z"/><path style="opacity:.6;fill:#fff" d="M224.943 355.492c.03.082-5.974 2.118-5.974 2.118l-6.23-16.973 5.219-2.645 6.985 17.5z"/><path style="fill:#407bff" d="m286.043 252.227-35.41-10.821c.768-3.496 2.043-8.405 5.806-22.716a235.278 235.278 0 0 0 5.34-30.041l.012-.087a4.782 4.782 0 0 1 5.421-4.044l.082.025c2.408.366 5.405.902 8.282 1.631a150.194 150.194 0 0 1 16.245 4.964 44.68 44.68 0 0 1 5.071 2.55 7.27 7.27 0 0 1 3.809 6.385c-.068 8.57-1.742 18.367-14.658 52.154z"/><path style="opacity:.6;fill:#fff" d="m286.043 252.227-34.172-10.443c.778-3.493 1.436-3.636 9.906-53.136l.012-.086c.394-2.609 2.759-4.439 5.283-4.086l.079.024c2.325.341 5.218.845 7.993 1.543a139.313 139.313 0 0 1 15.66 4.786 41.78 41.78 0 0 1 4.879 2.491c2.255 1.241 3.644 3.669 3.62 6.327-.152 8.543-.43 18.767-13.26 52.58z"/><path style="fill:#263238" d="m286.508 196.322-1.31 2.129c-.243.394-.594.602-.911.543l-1.914-.335c-.277-.035-.483-.292-.555-.662l-.548-2.74 3.045-1.54 2.193 2.605z"/><path style="fill:#407bff" d="M275.219 185.445c-3.027-.765-6.193-1.333-8.735-1.719l-.082-.025a5.02 5.02 0 0 0-5.741 4.356c-.884 7.311-2.596 20.178-5.62 31.676-6.348 15.199-25.301 17.464-25.301 17.464a29.943 29.943 0 0 0 10.623 15.422l3.007 2.284c34.252-10.704 32.776-55.962 33.505-69.08l-1.656-.378z"/><path style="opacity:.2;enable-background:new" d="M255.958 216.042c2.03-8.64 3.377-17.63 4.235-24.198.088-.083.185-.158.288-.222 2.348-1.663 7.383 3.266 5.171 11.451-2.098 7.78-6.358 12.198-9.694 12.969z"/><path style="fill:#f7978d" d="M284.569 193.793c-8.183-2.021-9.637-7.736-9.637-7.736 4.609-2.452 6.168-12.396 6.56-17.997l3.243 4.932 4.417 6.72c-.414.738-.784 1.5-1.107 2.282-1.299 3.103-1.361 6.285 3.018 8.843 0 0 .489 4.65-6.494 2.956z"/><path style="fill:#407bff" d="m273.47 184.951 2.758-.157a25.676 25.676 0 0 0 7.801 8.835 9.89 9.89 0 0 0-4.781 3.209c-7.681-5.528-5.778-11.887-5.778-11.887z"/><path style="opacity:.7;fill:#fff" d="m273.47 184.951 2.758-.157a25.676 25.676 0 0 0 7.801 8.835 9.89 9.89 0 0 0-4.781 3.209c-7.681-5.528-5.778-11.887-5.778-11.887z"/><path style="fill:#407bff" d="m291.173 190.38-2.166-1.192s-2.403 4.526-4.988 4.476c3.661 2.879 3.721 5.137 3.721 5.137 6.562-.104 3.433-8.421 3.433-8.421zM314.522 231.068c1.373-1.895-3.447-7.464-8.595-12.72-3.164-3.241-6.464-6.369-8.504-8.451l1.105-6.045 1.66-9.155c.817 1.225 24.364 27.288 24.817 32.638l-10.483 3.733z"/><path style="opacity:.2;enable-background:new" d="M305.927 218.348c-3.164-3.241-6.464-6.369-8.504-8.451l1.105-6.045c1.514.975 2.989 2.519 4.262 4.814a32.14 32.14 0 0 1 3.137 9.682z"/><path style="fill:#407bff" d="m288.354 264.932-5.352-1.572c6.959-40.684 8.388-59.856 8.052-72.917a75.386 75.386 0 0 1 7.443 3.135 8.475 8.475 0 0 1 4.122 7.26c.243 7.316-6.871 25.308-14.265 64.094z"/><path style="opacity:.7;fill:#fff" d="m291.173 190.38-2.166-1.192s-2.403 4.526-4.988 4.476c3.661 2.879 3.721 5.137 3.721 5.137 6.562-.104 3.433-8.421 3.433-8.421z"/><path style="opacity:.2;enable-background:new" d="m288.375 181.266-4.235-6.403c-.279.737-.48 1.499-.598 2.275-.363 2.357 1.837 5.573 3.902 6.713l.931-2.585z"/><path style="fill:#263238" d="M294.566 170.8s-.072 3.738 3.927 2.66c.515-3.943 1.787-3.524 3.329-5.723a8.61 8.61 0 0 0 1.29-8.737l-2.354-1.46c-9.351-3.827-6.192 13.26-6.192 13.26z"/><path style="fill:#f7978d" d="M285.844 154.903c3.937-3.701 10.129-3.51 13.83.427 5.545 5.615 2.482 16.26-1.408 21.822a9.662 9.662 0 0 1-17.007-1.847c-2.054-5.028-.367-9.043 1.924-16.114a9.78 9.78 0 0 1 2.661-4.288z"/><path style="fill:#263238" d="M280.755 173.802s-.246-6.122 3.414-7.529c-.304-3.521 2.614-2.043 3.671-4.158 1.458-2.403 2.74-4.741.972-7.192l-4.057-1.696c-12.493-2.318-4 20.575-4 20.575z"/><path style="fill:#263238" d="M302.355 153.974c-.964-1.667-2.504-2.916-4.079-4.024-2.509-1.766-5.357-3.325-8.426-3.322-3.66.004-6.896 2.193-10.091 3.98-3.195 1.786-7.083 3.247-10.428 1.762a6.107 6.107 0 0 0 3.961 2.608 10.147 10.147 0 0 1-3.253-.263c1.947 3.707 6.874 5.518 10.759 3.954l-2.171 1.294c5.794.972 11.572-1.383 16.975-3.688a10.12 10.12 0 0 1-4.477 4.035 8.668 8.668 0 0 0 6.843-.68c.778-.438 1.518-1.01 2.4-1.152.852-.137 1.579.318 2.06.97 1.586-1.014.674-4.18-.073-5.474z"/><path style="fill:#ff5652" d="M296.369 173.633a3.411 3.411 0 0 0 2.872.175 22.227 22.227 0 0 1-1.696-5.748l-1.176 5.573z"/><path style="fill:#f7978d" d="M282.283 160.695c2.241.31 2.956 2.37 2.715 4.206.045 2.744-3.209 4.584-3.97 3.141a6.971 6.971 0 0 1-1.761-4.349c-.091-2.027 1.174-3.252 3.016-2.998z"/><path style="fill:#263238" d="M294.2 165.62c.361.16.456.799.251 1.307-.205.507-.675.834-1.039.683s-.43-.721-.254-1.298c.222-.563.681-.853 1.042-.692zM300.019 167.144c.361.16.475.735.254 1.298-.222.562-.694.898-1.055.738-.361-.16-.473-.744-.251-1.307.218-.554.691-.889 1.052-.729zM295.511 175.09c.293.13.385.596.205 1.052-.18.456-.563.728-.855.598s-.383-.603-.203-1.059c.178-.448.561-.72.853-.591zM300.411 164.289c.114.03.207.111.252.221a3 3 0 0 0 1.768 1.93.344.344 0 0 1 .244.421l-.005.017a.364.364 0 0 1-.438.239 3.663 3.663 0 0 1-2.238-2.38.363.363 0 0 1 .228-.449.446.446 0 0 1 .189.001zM292.882 163.512a.371.371 0 0 1 .324-.084c.875.277 1.83.138 2.59-.377a.345.345 0 0 1 .486.035l.011.014a.363.363 0 0 1-.049.497 3.665 3.665 0 0 1-3.227.513.364.364 0 0 1-.243-.441.45.45 0 0 1 .108-.157z"/><path style="fill:#f7978d" d="m292.883 223.883-4.659-.086a5.573 5.573 0 0 0-3.897 1.49l-4.053 3.766a1.342 1.342 0 0 0-.193 1.742l2.098 3.061c.384.56 1.126.745 1.728.431l5.112-2.669 5.456-3.284c-.002.001.2-4.417-1.592-4.451z"/><path style="fill:#407bff" d="m323.422 223.792-30.54.092.586 5.055s24.627 7.978 29.475 5.533a7.294 7.294 0 0 0 1.534-8.553l-1.055-2.127z"/><path style="fill:#263238" d="m294.935 230.684-2.308-.652.281-6.93 2.331.094z"/><path style="fill:#263238" d="m296.555 224.032-5.217-.212.022-.529a.981.981 0 0 1 1.02-.94l3.256.132a.981.981 0 0 1 .941 1.02l-.022.529z"/><path style="fill:#407bff" d="M202.436 238.967c2.059-1.359 2.683-3.176 4.144-4.94.997-1.203-.778-1.016.853-.501.583.184 1.146.66 1.655.983 1.332.845 2.585 1.817 3.937 2.631 1.161.699 3.447.948 4.381 1.782 1.524 1.362-1.042 5.497-1.691 6.868-.785 1.659 1.695 3.108 2.487 1.435 1.131-2.39 3.648-6.556 2.185-9.312-.907-1.709-2.823-1.791-4.426-2.456-3.024-1.254-5.671-4.783-9.052-5.112-1.149-.112-1.9.253-2.571 1.179-.761 1.051-.712 2.401-1.648 3.477a8.375 8.375 0 0 1-1.677 1.472c-1.538 1.016-.12 3.514 1.423 2.494z"/><path d="M202.436 238.967c2.059-1.359 2.683-3.176 4.144-4.94.997-1.203-.778-1.016.853-.501.583.184 1.146.66 1.655.983 1.332.845 2.585 1.817 3.937 2.631 1.161.699 3.447.948 4.381 1.782 1.524 1.362-1.042 5.497-1.691 6.868-.785 1.659 1.695 3.108 2.487 1.435 1.131-2.39 3.648-6.556 2.185-9.312-.907-1.709-2.823-1.791-4.426-2.456-3.024-1.254-5.671-4.783-9.052-5.112-1.149-.112-1.9.253-2.571 1.179-.761 1.051-.712 2.401-1.648 3.477a8.375 8.375 0 0 1-1.677 1.472c-1.538 1.016-.12 3.514 1.423 2.494z" style="opacity:.3"/><path style="fill:#407bff" d="m210.922 287.301-43.419-25.045a5.585 5.585 0 0 1-2.047-7.629l14.752-25.575a3.243 3.243 0 0 1 4.428-1.189l47.479 27.387a3.241 3.241 0 0 1 1.188 4.428l-14.753 25.576a5.583 5.583 0 0 1-7.628 2.047z"/><path style="opacity:.3;fill:#fff" d="m210.922 287.301-43.419-25.045a5.585 5.585 0 0 1-2.047-7.629l14.752-25.575a3.243 3.243 0 0 1 4.428-1.189l47.479 27.387a3.241 3.241 0 0 1 1.188 4.428l-14.753 25.576a5.583 5.583 0 0 1-7.628 2.047z"/><path transform="rotate(-59.263 197.104 264.279)" style="fill:#407bff" d="M184.772 263.754h24.658v1.035h-24.658z"/><path transform="rotate(-59.263 197.104 264.279)" d="M184.772 263.754h24.658v1.035h-24.658z" style="opacity:.3"/><path style="opacity:.2" d="m230.454 258.318-47.72-27.526a3.103 3.103 0 0 0-4.238 1.137l-.569.986a8.74 8.74 0 0 0 3.204 11.937l37.955 21.893a8.74 8.74 0 0 0 11.937-3.204l.569-.987a3.1 3.1 0 0 0-1.138-4.236z"/><path style="fill:#407bff" d="m232.236 255.32-47.72-27.526a3.103 3.103 0 0 0-4.238 1.137l-.569.986a8.74 8.74 0 0 0 3.204 11.937l37.955 21.893a8.74 8.74 0 0 0 11.937-3.204l.569-.987a3.103 3.103 0 0 0-1.138-4.236z"/><path style="fill:#407bff" d="m232.236 255.32-47.72-27.526a3.103 3.103 0 0 0-4.238 1.137l-.569.986a8.74 8.74 0 0 0 3.204 11.937l37.955 21.893a8.74 8.74 0 0 0 11.937-3.204l.569-.987a3.103 3.103 0 0 0-1.138-4.236z"/><path style="opacity:.5;fill:#fff" d="m232.236 255.32-47.72-27.526a3.103 3.103 0 0 0-4.238 1.137l-.569.986a8.74 8.74 0 0 0 3.204 11.937l37.955 21.893a8.74 8.74 0 0 0 11.937-3.204l.569-.987a3.103 3.103 0 0 0-1.138-4.236z"/><path style="fill:#407bff" d="m186.383 252.037-1.701-.981a1.95 1.95 0 0 1-.715-2.663l4.209-7.297a1.95 1.95 0 0 1 2.662-.714l1.701.981a1.95 1.95 0 0 1 .714 2.662l-4.209 7.297a1.947 1.947 0 0 1-2.661.715zM212.083 266.861l-1.701-.981a1.95 1.95 0 0 1-.715-2.662l4.209-7.298a1.948 1.948 0 0 1 2.662-.714l1.701.981a1.95 1.95 0 0 1 .715 2.662l-4.209 7.297a1.949 1.949 0 0 1-2.662.715z"/><path style="fill:#fff" d="m186.383 252.037-1.701-.981a1.95 1.95 0 0 1-.715-2.663l4.209-7.297a1.95 1.95 0 0 1 2.662-.714l1.701.981a1.95 1.95 0 0 1 .714 2.662l-4.209 7.297a1.947 1.947 0 0 1-2.661.715zM212.083 266.861l-1.701-.981a1.95 1.95 0 0 1-.715-2.662l4.209-7.298a1.948 1.948 0 0 1 2.662-.714l1.701.981a1.95 1.95 0 0 1 .715 2.662l-4.209 7.297a1.949 1.949 0 0 1-2.662.715z"/><path style="fill:#407bff" d="M228.835 194.755c-5.843 3.391-14.787 24.849-16.689 31.331 2.217-1.051 5.173-.101 6.364 2.044 2.012-4.109 9.418-15.656 13.741-21.17a8.187 8.187 0 0 1 4.892-2.983c8.282-1.611 22.504-1.563 25.366-4.48 4.632-4.721 8.276-17.048 1.65-15.811-6.25 1.168-30.667 8.366-35.324 11.069z"/><path style="fill:#f7978d" d="m217.657 226.034-2.954-1.388c-3.452-.66-4.177 6.094-4.177 6.094l8.165 4.636s.549-7.864-1.034-9.342z"/><path style="fill:#f7978d" d="m216.527 238.77 2.152-3.419-8.165-4.636-2.425 4.148a1.415 1.415 0 0 0 .693 2.03l6.022 2.417c.63.256 1.352.029 1.723-.54z"/><path style="fill:#263238" d="M282.416 198.15c-2.005 8.128-9.413 17.397-26.804 10.799-8.029-3.046-15.427 2.101-15.618 2.129-.002 0 0-.002-.002-.003-.521-.088-3.494 6.877-3.494 6.877l6.992 2.341c2.556-3.376 5.763-5.78 9.997-5.776 4.234.004 8.438.836 12.671.759 13.133-.239 16.696-10.42 18.365-16.97l-2.107-.156z"/><path style="fill:#407bff" d="M274.777 143.753c.37.021.738-.048 1.108-.068 1.522-.086 1.199-1.701-.706-1.709-1.125-.004-1.763 1.699-.402 1.777zM286.963 137.615c-.072-.641.689-1.196 1.357-.895 1.371.617 1.81 2.73 1.81 2.73s-3.063-.908-3.167-1.835zM303.29 141.699c-.238-.261-.48-.527-.626-.848-.147-.321-.185-.712-.013-1.02.172-.308.59-.484.901-.316.293.159.387.534.393.867a2.919 2.919 0 0 1-.404 1.533M227.88 114.487l8.345-4.079 4.354 8.205 9.149 1.605-1.301 9.197 6.458 6.676-6.458 6.676 1.301 9.197-9.149 1.605-4.354 8.205-8.345-4.079-8.345 4.079-4.353-8.205-9.149-1.605 1.3-9.197-6.458-6.676 6.458-6.676-1.3-9.197 9.149-1.605 4.353-8.205z"/><path style="fill:#fff" d="M224.545 148.928c0-1.904 1.505-3.409 3.586-3.409 2.036 0 3.497 1.505 3.497 3.409s-1.461 3.453-3.497 3.453c-2.081 0-3.586-1.55-3.586-3.453zm.31-27.847h6.552L230.3 141.8h-4.383l-1.062-20.719z"/><path style="fill:#407bff" d="M213.647 303.606c-2.395 0-4.78-.004-7.156-.012l.003-.723c11.961.043 24.206-.023 36.385-.189l.01.723c-9.766.134-19.572.201-29.242.201zM200.602 303.565a2074.98 2074.98 0 0 1-15.616-.16l.01-.723a2021.8 2021.8 0 0 0 15.61.16l-.004.723zM173.894 302.681h5.849v.723h-5.849zM136.632 233.181h36.693v.723h-36.693zM129.686 233.181h2.987v.723h-2.987zM213.991 189.536h16.675v.723h-16.675zM200.344 189.536h9.397v.723h-9.397z"/></svg>