<?xml version="1.0" encoding="utf-8"?>
<!-- Generator: Adobe Illustrator 27.5.0, SVG Export Plug-In . SVG Version: 6.00 Build 0)  -->
<svg version="1.1" xmlns="http://www.w3.org/2000/svg" xmlns:xlink="http://www.w3.org/1999/xlink" x="0px" y="0px"
	 viewBox="0 0 500 500" style="enable-background:new 0 0 500 500;" xml:space="preserve">
<g id="Background_Complete">
	<rect x="416.779" y="398.494" style="fill:#EBEBEB;" width="33.122" height="0.25"/>
	<rect x="322.527" y="401.208" style="fill:#EBEBEB;" width="8.693" height="0.25"/>
	<rect x="396.586" y="389.208" style="fill:#EBEBEB;" width="19.192" height="0.25"/>
	<rect x="52.459" y="390.888" style="fill:#EBEBEB;" width="43.193" height="0.25"/>
	<rect x="104.556" y="390.888" style="fill:#EBEBEB;" width="6.333" height="0.25"/>
	<rect x="131.471" y="395.111" style="fill:#EBEBEB;" width="93.676" height="0.25"/>
	<g>
		<path style="fill:#EBEBEB;" d="M238.401,337.8H45.302c-3.147,0-5.708-2.561-5.708-5.708V60.66c0-3.147,2.561-5.708,5.708-5.708
			h193.099c3.146,0,5.707,2.561,5.707,5.708v271.432C244.108,335.239,241.547,337.8,238.401,337.8z M45.302,55.203
			c-3.01,0-5.458,2.448-5.458,5.458v271.432c0,3.01,2.448,5.458,5.458,5.458h193.099c3.009,0,5.457-2.448,5.457-5.458V60.66
			c0-3.009-2.448-5.458-5.457-5.458H45.302z"/>
		<path style="fill:#EBEBEB;" d="M454.698,338.058H261.599c-3.146,0-5.707-2.56-5.707-5.708V60.919c0-3.147,2.561-5.708,5.707-5.708
			h193.099c3.148,0,5.708,2.561,5.708,5.708V332.35C460.406,335.498,457.845,338.058,454.698,338.058z M261.599,55.461
			c-3.009,0-5.457,2.448-5.457,5.458V332.35c0,3.01,2.448,5.458,5.457,5.458h193.099c3.01,0,5.458-2.448,5.458-5.458V60.919
			c0-3.009-2.448-5.458-5.458-5.458H261.599z"/>
	</g>
	<rect y="382.398" style="fill:#EBEBEB;" width="500" height="0.25"/>
	<g>
		<g>
			<path style="fill:#F5F5F5;" d="M304.534,114.474h53.265c0,0,12.491-4.705,10.876-17.164c-1.615-12.46-20.473-2.078-20.473-2.078
				s5.716-17.384-12.546-12.452c-18.262,4.932-20.042,22.167-20.042,22.167S291.627,100.76,304.534,114.474z"/>
		</g>
		<g>
			<g>
				<path style="fill:#F5F5F5;" d="M101.309,131.591c7.114,1.784,15.099-4.157,15.435-11.483c0.099-2.158-0.365-4.329-0.089-6.472
					c0.879-6.837,10.716-10.416,15.783-5.742c0.765-11.05,9.317-21.114,20.098-23.653c3.828-0.902,8.054-0.875,11.471,1.071
					c3.417,1.946,5.704,6.157,4.572,9.923c1.84-6.757,7.855-12.266,14.795-13.199s14.346,2.962,17.238,9.34
					c2.891,6.378,0.794,14.711-4.945,18.723c3.962-4.295,12.324-4.537,14.292-1.076c0.771,1.356,1.255,2.844,1.22,4.403
					c-0.188,8.503-6.468,14.222-14.217,17.728C189.214,134.659,107.69,134.945,101.309,131.591z"/>
			</g>
			<path style="fill:#F5F5F5;" d="M411.837,157.904c-0.005,0.093-0.009,0.186-0.014,0.279c-0.348,0.049,0.507,1.033,0.698,0.738
				c0.191-0.294-0.073-0.669-0.334-0.903c-2.202-1.973-5.509-2.619-8.292-1.621c-2.783,0.998-4.925,3.599-5.372,6.522
				c-1.985-2.368-5.747-2.414-8.541-1.095c-4.164,1.964-6.913,6.594-6.644,11.19c-2.295-1.126-5.344-0.387-6.869,1.665
				c-0.679,0.913-1.063,2.016-1.727,2.94c-1.03,1.431-2.739,2.348-4.5,2.416c6.72,1.377,33.733,0.714,40.385,0.843
				c2.907,0.057,5.848,0.31,8.7-0.257c2.852-0.566,5.685-2.116,6.961-4.729c1.276-2.613,0.397-6.319-2.282-7.449
				c1.692-3.019,0.977-7.18-1.626-9.461C419.775,156.7,414.608,155.829,411.837,157.904z"/>
		</g>
		<g>
			<g>
				<path style="fill:#EBEBEB;" d="M162.28,243.426c0-1.19,0-2.381,0-3.571c0-0.548-0.852-0.549-0.852,0c0,1.307,0,2.614,0,3.92
					c0,0.247,0.196,0.403,0.426,0.426c1.345,0.136,2.328,1.807,1.211,2.924c-1.071,1.07-2.779,0.228-2.924-1.211
					c-0.055-0.54-0.907-0.546-0.852,0c0.213,2.117,2.689,3.52,4.378,1.814C165.234,246.144,164.159,243.9,162.28,243.426z"/>
				<path style="fill:#F0F0F0;" d="M99.496,217.789v7.741l-8.142-8.142l-0.402,0.402h-0.568v9.112v0.568v8.544v0.568v8.544v0.568
					v8.544v0.568v8.544v0.568v8.544v0.568v8.544v0.568v9.112h10.248v-9.112v-0.568v-8.544v-0.568v-8.544v-0.568v-8.544v-0.568
					v-8.544v-0.568v-8.544v-0.568v-8.544v-0.568v-9.112H99.496z M91.52,273.832l7.173,7.173H91.52V273.832z M91.52,255.608
					l7.173,7.173H91.52V255.608z M91.52,237.384l7.173,7.173H91.52V237.384z M91.52,219.16l7.173,7.173H91.52V219.16z
					 M98.693,227.469l-7.173,7.173v-7.173H98.693z M99.496,228.272v7.173h-7.173L99.496,228.272z M98.693,245.693l-7.173,7.173
					v-7.173H98.693z M99.496,246.496v7.173h-7.173L99.496,246.496z M98.693,263.917l-7.173,7.173v-7.173H98.693z M99.496,264.72
					v7.172h-7.173L99.496,264.72z M98.693,282.141l-7.173,7.173v-7.173H98.693z M92.323,290.117l7.173-7.173v7.173H92.323z
					 M99.496,280.202l-7.173-7.173h7.173V280.202z M99.496,261.978l-7.173-7.173h7.173V261.978z M99.496,243.754l-7.173-7.173h7.173
					V243.754z"/>
				<path style="fill:#F0F0F0;" d="M91.523,193.592v6.834v0.568v6.834h1.136v-5.463l5.864,5.864l0.402-0.402h0.568v-6.834v-0.568
					v-6.834H91.523z M97.554,194.728l-4.894,4.895v-4.895H97.554z M98.357,206.456l-4.894-4.895h4.894V206.456z M93.463,200.426
					l4.894-4.895v4.895H93.463z"/>
				<rect x="59.148" y="217.789" style="fill:#E6E6E6;" width="13.668" height="13.668"/>
				<g>
					<polygon style="fill:#E6E6E6;" points="162.037,237.504 161.279,237.504 161.279,211.229 97.636,190.124 93.426,190.124 
						59.348,211.277 58.949,210.633 93.21,189.366 97.759,189.366 97.817,189.385 162.037,210.682 					"/>
				</g>
				<path style="fill:#F0F0F0;" d="M154.256,218.38h0.781l7.993-7.993h-8.205h-0.568h-6.266h-0.568h-6.266h-0.568h-6.266h-0.568
					h-6.266h-0.568h-6.266h-0.568h-6.266h-0.568h-6.266h-0.568h-6.266h-0.568h-6.266H92.75h-6.266h-0.568H79.65h-0.568h-6.266
					h-0.568h-6.266h-0.568h-6.834v7.97h6.834h0.568h6.266h0.568h6.266h0.568h6.266h0.568h6.266h0.568h6.266h0.568h6.266h0.568h6.266
					h0.568h6.266h0.568h6.266h0.568h6.266h0.568h6.266h0.568h6.266h0.568h6.266V218.38z M155.392,211.523h4.895l-4.895,4.895
					V211.523z M59.717,217.221v-4.895l4.895,4.895H59.717z M65.414,216.418l-4.895-4.895h4.895V216.418z M66.55,211.523h4.895
					l-4.895,4.895V211.523z M72.248,217.221h-4.895l4.895-4.895V217.221z M73.384,217.221v-4.895l4.895,4.895H73.384z
					 M79.082,216.418l-4.895-4.895h4.895V216.418z M80.218,211.523h4.895l-4.895,4.895V211.523z M85.916,217.221h-4.895l4.895-4.895
					V217.221z M87.052,217.221v-4.895l4.895,4.895H87.052z M92.75,216.418l-4.895-4.895h4.895V216.418z M93.886,211.523h4.895
					l-4.895,4.895V211.523z M99.584,217.221H94.69l4.895-4.895V217.221z M100.72,217.221v-4.895l4.895,4.895H100.72z
					 M106.418,216.418l-4.895-4.895h4.895V216.418z M107.554,211.523h4.895l-4.895,4.895V211.523z M113.252,217.221h-4.895
					l4.895-4.895V217.221z M114.388,217.221v-4.895l4.895,4.895H114.388z M120.086,216.418l-4.895-4.895h4.895V216.418z
					 M121.222,211.523h4.895l-4.895,4.895V211.523z M126.92,217.221h-4.895l4.895-4.895V217.221z M128.056,217.221v-4.895
					l4.895,4.895H128.056z M133.754,216.418l-4.895-4.895h4.895V216.418z M134.89,211.523h4.895l-4.895,4.895V211.523z
					 M140.588,217.221h-4.895l4.895-4.895V217.221z M141.724,211.523h4.895l-4.895,4.895V211.523z M147.422,217.221h-4.895
					l4.895-4.895V217.221z M148.558,217.221v-4.895l4.895,4.895H148.558z M149.361,211.523h4.895v4.895L149.361,211.523z"/>
				<g>
					<path style="fill:#F0F0F0;" d="M105.685,220.893H84.667l0.769-8.844c0.208-2.388,2.207-4.221,4.604-4.221h10.013
						c2.346,0,4.32,1.758,4.591,4.089L105.685,220.893z"/>
					<rect x="88.056" y="211.5" style="fill:#FAFAFA;" width="4.036" height="4.035"/>
					<rect x="93.158" y="211.5" style="fill:#FAFAFA;" width="4.036" height="4.035"/>
					<rect x="98.26" y="211.5" style="fill:#FAFAFA;" width="4.036" height="4.035"/>
				</g>
				<circle style="fill:#E6E6E6;" cx="95.508" cy="191.408" r="2.752"/>
				<path style="fill:#E6E6E6;" d="M161.854,242.206L161.854,242.206c-1.298,0-2.351-1.053-2.351-2.351v-2.351h4.702v2.351
					C164.205,241.154,163.152,242.206,161.854,242.206z"/>
			</g>
		</g>
		<g>
			<g>
				<g>
					<rect x="275.233" y="234.393" style="fill:#E6E6E6;" width="76.34" height="132.003"/>
					<polygon style="fill:#E6E6E6;" points="289.893,215.945 289.893,234.392 295.913,234.392 330.893,234.392 336.912,234.392 
						336.912,215.945 					"/>
					
						<rect x="273.657" y="232.5" transform="matrix(-1 -1.224647e-16 1.224647e-16 -1 626.8062 466.9925)" style="fill:#F5F5F5;" width="79.492" height="1.993"/>
					<g>
						
							<rect x="287.897" y="213.953" transform="matrix(-1 -1.224647e-16 1.224647e-16 -1 626.8064 429.8987)" style="fill:#F5F5F5;" width="51.013" height="1.993"/>
					</g>
				</g>
				<g>
					<rect x="259.316" y="234.393" style="fill:#F0F0F0;" width="76.34" height="132.003"/>
					<polygon style="fill:#F0F0F0;" points="273.976,215.945 273.976,234.392 279.996,234.392 314.976,234.392 320.995,234.392 
						320.995,215.945 					"/>
					<rect x="264.203" y="239.28" style="fill:#FFFFFF;" width="9.774" height="9.774"/>
					<rect x="283.134" y="239.28" style="fill:#FFFFFF;" width="9.774" height="9.774"/>
					<rect x="302.065" y="239.28" style="fill:#FFFFFF;" width="9.774" height="9.774"/>
					<rect x="320.996" y="239.28" style="fill:#FFFFFF;" width="9.774" height="9.774"/>
					<rect x="264.203" y="257.038" style="fill:#FFFFFF;" width="9.774" height="9.774"/>
					<rect x="283.134" y="257.038" style="fill:#FFFFFF;" width="9.774" height="9.774"/>
					<rect x="302.065" y="257.038" style="fill:#FFFFFF;" width="9.774" height="9.774"/>
					<rect x="320.996" y="257.038" style="fill:#FFFFFF;" width="9.774" height="9.774"/>
					<rect x="264.203" y="274.796" style="fill:#FFFFFF;" width="9.774" height="9.774"/>
					<rect x="283.134" y="274.796" style="fill:#FFFFFF;" width="9.774" height="9.774"/>
					<rect x="302.065" y="274.796" style="fill:#FFFFFF;" width="9.774" height="9.774"/>
					<rect x="283.134" y="223.93" style="fill:#FFFFFF;" width="9.774" height="9.773"/>
					<rect x="302.065" y="223.93" style="fill:#FFFFFF;" width="9.774" height="9.773"/>
					<rect x="320.996" y="274.796" style="fill:#FFFFFF;" width="9.774" height="9.774"/>
					<rect x="264.203" y="292.555" style="fill:#FFFFFF;" width="9.774" height="9.774"/>
					<rect x="283.134" y="292.555" style="fill:#FFFFFF;" width="9.774" height="9.774"/>
					<rect x="302.065" y="292.555" style="fill:#FFFFFF;" width="9.774" height="9.774"/>
					<rect x="320.996" y="292.555" style="fill:#FFFFFF;" width="9.774" height="9.774"/>
					<rect x="264.203" y="310.313" style="fill:#FFFFFF;" width="9.774" height="9.774"/>
					<rect x="283.134" y="310.313" style="fill:#FFFFFF;" width="9.774" height="9.774"/>
					<rect x="302.065" y="310.313" style="fill:#FFFFFF;" width="9.774" height="9.774"/>
					<rect x="320.996" y="310.313" style="fill:#FFFFFF;" width="9.774" height="9.774"/>
					<rect x="264.203" y="328.071" style="fill:#FFFFFF;" width="9.774" height="9.774"/>
					<rect x="283.134" y="328.071" style="fill:#FFFFFF;" width="9.774" height="9.774"/>
					<rect x="302.065" y="328.071" style="fill:#FFFFFF;" width="9.774" height="9.774"/>
					<rect x="320.996" y="328.071" style="fill:#FFFFFF;" width="9.774" height="9.774"/>
					<rect x="264.203" y="345.83" style="fill:#FFFFFF;" width="9.774" height="9.774"/>
					<rect x="283.134" y="345.83" style="fill:#FFFFFF;" width="9.774" height="9.774"/>
					<rect x="302.065" y="345.83" style="fill:#FFFFFF;" width="9.774" height="9.774"/>
					<rect x="320.996" y="345.83" style="fill:#FFFFFF;" width="9.774" height="9.774"/>
					
						<rect x="257.74" y="232.5" transform="matrix(-1 -1.224647e-16 1.224647e-16 -1 594.9723 466.9925)" style="fill:#F5F5F5;" width="79.492" height="1.993"/>
					<g>
						
							<rect x="271.98" y="213.953" transform="matrix(-1 -1.224647e-16 1.224647e-16 -1 594.9724 429.8987)" style="fill:#F5F5F5;" width="51.013" height="1.993"/>
					</g>
				</g>
			</g>
			<g>
				<g>
					<rect x="378.275" y="246.28" style="fill:#E6E6E6;" width="69.466" height="120.117"/>
					
						<rect x="376.841" y="244.557" transform="matrix(-1 -1.224647e-16 1.224647e-16 -1 826.0148 490.9276)" style="fill:#F5F5F5;" width="72.334" height="1.814"/>
				</g>
				<g>
					<rect x="363.791" y="246.28" style="fill:#F0F0F0;" width="69.466" height="120.117"/>
					<rect x="368.238" y="250.727" style="fill:#FFFFFF;" width="8.894" height="8.894"/>
					<rect x="385.464" y="250.727" style="fill:#FFFFFF;" width="8.894" height="8.894"/>
					<rect x="402.69" y="250.727" style="fill:#FFFFFF;" width="8.894" height="8.894"/>
					<rect x="419.916" y="250.727" style="fill:#FFFFFF;" width="8.894" height="8.894"/>
					<rect x="368.238" y="266.886" style="fill:#FFFFFF;" width="8.894" height="8.894"/>
					<rect x="385.464" y="266.886" style="fill:#FFFFFF;" width="8.894" height="8.894"/>
					<rect x="402.69" y="266.886" style="fill:#FFFFFF;" width="8.894" height="8.894"/>
					<rect x="419.916" y="266.886" style="fill:#FFFFFF;" width="8.894" height="8.894"/>
					<rect x="368.238" y="283.045" style="fill:#FFFFFF;" width="8.894" height="8.894"/>
					<rect x="385.464" y="283.045" style="fill:#FFFFFF;" width="8.894" height="8.894"/>
					<rect x="402.69" y="283.045" style="fill:#FFFFFF;" width="8.894" height="8.894"/>
					<rect x="419.916" y="283.045" style="fill:#FFFFFF;" width="8.894" height="8.894"/>
					<rect x="368.238" y="299.204" style="fill:#FFFFFF;" width="8.894" height="8.894"/>
					<rect x="385.464" y="299.204" style="fill:#FFFFFF;" width="8.894" height="8.894"/>
					<rect x="402.69" y="299.204" style="fill:#FFFFFF;" width="8.894" height="8.894"/>
					<rect x="419.916" y="299.204" style="fill:#FFFFFF;" width="8.894" height="8.894"/>
					<rect x="368.238" y="315.363" style="fill:#FFFFFF;" width="8.894" height="8.894"/>
					<rect x="385.464" y="315.363" style="fill:#FFFFFF;" width="8.894" height="8.894"/>
					<rect x="402.69" y="315.363" style="fill:#FFFFFF;" width="8.894" height="8.894"/>
					<rect x="419.916" y="315.363" style="fill:#FFFFFF;" width="8.894" height="8.894"/>
					<rect x="368.238" y="331.522" style="fill:#FFFFFF;" width="8.894" height="8.894"/>
					<rect x="385.464" y="331.522" style="fill:#FFFFFF;" width="8.894" height="8.894"/>
					<rect x="402.69" y="331.522" style="fill:#FFFFFF;" width="8.894" height="8.894"/>
					<rect x="419.916" y="331.522" style="fill:#FFFFFF;" width="8.894" height="8.894"/>
					<rect x="368.238" y="347.682" style="fill:#FFFFFF;" width="8.894" height="8.894"/>
					<rect x="385.464" y="347.682" style="fill:#FFFFFF;" width="8.894" height="8.894"/>
					<rect x="402.69" y="347.682" style="fill:#FFFFFF;" width="8.894" height="8.894"/>
					<rect x="419.916" y="347.682" style="fill:#FFFFFF;" width="8.894" height="8.894"/>
					
						<rect x="362.357" y="244.557" transform="matrix(-1 -1.224647e-16 1.224647e-16 -1 797.0475 490.9276)" style="fill:#F5F5F5;" width="72.334" height="1.814"/>
				</g>
			</g>
			<g>
				<g>
					<rect x="168.613" y="234.393" style="fill:#E6E6E6;" width="76.34" height="132.003"/>
					<polygon style="fill:#E6E6E6;" points="183.273,215.945 183.273,234.392 189.293,234.392 224.273,234.392 230.292,234.392 
						230.292,215.945 					"/>
					
						<rect x="167.037" y="232.5" transform="matrix(-1 -1.224647e-16 1.224647e-16 -1 413.5666 466.9925)" style="fill:#F5F5F5;" width="79.492" height="1.993"/>
					<g>
						
							<rect x="181.277" y="213.953" transform="matrix(-1 -1.224647e-16 1.224647e-16 -1 413.5668 429.8987)" style="fill:#F5F5F5;" width="51.013" height="1.993"/>
					</g>
				</g>
				<g>
					<rect x="152.696" y="234.393" style="fill:#F0F0F0;" width="76.34" height="132.003"/>
					<polygon style="fill:#F0F0F0;" points="167.356,215.945 167.356,234.392 173.376,234.392 208.356,234.392 214.376,234.392 
						214.376,215.945 					"/>
					<rect x="157.583" y="239.28" style="fill:#FFFFFF;" width="9.774" height="9.774"/>
					<rect x="176.514" y="239.28" style="fill:#FFFFFF;" width="9.774" height="9.774"/>
					<rect x="195.445" y="239.28" style="fill:#FFFFFF;" width="9.774" height="9.774"/>
					<rect x="214.376" y="239.28" style="fill:#FFFFFF;" width="9.774" height="9.774"/>
					<rect x="157.583" y="257.038" style="fill:#FFFFFF;" width="9.774" height="9.774"/>
					<rect x="176.514" y="257.038" style="fill:#FFFFFF;" width="9.774" height="9.774"/>
					<rect x="195.445" y="257.038" style="fill:#FFFFFF;" width="9.774" height="9.774"/>
					<rect x="214.376" y="257.038" style="fill:#FFFFFF;" width="9.774" height="9.774"/>
					<rect x="157.583" y="274.796" style="fill:#FFFFFF;" width="9.774" height="9.774"/>
					<rect x="176.514" y="274.796" style="fill:#FFFFFF;" width="9.774" height="9.774"/>
					<rect x="195.445" y="274.796" style="fill:#FFFFFF;" width="9.774" height="9.774"/>
					<rect x="176.514" y="223.93" style="fill:#FFFFFF;" width="9.774" height="9.773"/>
					<rect x="195.445" y="223.93" style="fill:#FFFFFF;" width="9.774" height="9.773"/>
					<rect x="214.376" y="274.796" style="fill:#FFFFFF;" width="9.774" height="9.774"/>
					<rect x="157.583" y="292.555" style="fill:#FFFFFF;" width="9.774" height="9.774"/>
					<rect x="176.514" y="292.555" style="fill:#FFFFFF;" width="9.774" height="9.774"/>
					<rect x="195.445" y="292.555" style="fill:#FFFFFF;" width="9.774" height="9.774"/>
					<rect x="214.376" y="292.555" style="fill:#FFFFFF;" width="9.774" height="9.774"/>
					<rect x="157.583" y="310.313" style="fill:#FFFFFF;" width="9.774" height="9.774"/>
					<rect x="176.514" y="310.313" style="fill:#FFFFFF;" width="9.774" height="9.774"/>
					<rect x="195.445" y="310.313" style="fill:#FFFFFF;" width="9.774" height="9.774"/>
					<rect x="214.376" y="310.313" style="fill:#FFFFFF;" width="9.774" height="9.774"/>
					<rect x="157.583" y="328.071" style="fill:#FFFFFF;" width="9.774" height="9.774"/>
					<rect x="176.514" y="328.071" style="fill:#FFFFFF;" width="9.774" height="9.774"/>
					<rect x="195.445" y="328.071" style="fill:#FFFFFF;" width="9.774" height="9.774"/>
					<rect x="214.376" y="328.071" style="fill:#FFFFFF;" width="9.774" height="9.774"/>
					<rect x="157.583" y="345.83" style="fill:#FFFFFF;" width="9.774" height="9.774"/>
					<rect x="176.514" y="345.83" style="fill:#FFFFFF;" width="9.774" height="9.774"/>
					<rect x="195.445" y="345.83" style="fill:#FFFFFF;" width="9.774" height="9.774"/>
					<rect x="214.376" y="345.83" style="fill:#FFFFFF;" width="9.774" height="9.774"/>
					
						<rect x="151.12" y="232.5" transform="matrix(-1 -1.224647e-16 1.224647e-16 -1 381.7327 466.9925)" style="fill:#F5F5F5;" width="79.492" height="1.993"/>
					<g>
						
							<rect x="165.36" y="213.953" transform="matrix(-1 -1.224647e-16 1.224647e-16 -1 381.7328 429.8987)" style="fill:#F5F5F5;" width="51.013" height="1.993"/>
					</g>
				</g>
			</g>
			<g>
				<g>
					<polygon style="fill:#F5F5F5;" points="99.36,289.966 51.058,289.966 51.058,365.83 128.142,365.83 128.142,289.966 
						128.142,256.325 					"/>
					<rect x="128.142" y="256.325" style="fill:#E6E6E6;" width="14.386" height="109.505"/>
				</g>
				<g>
					<g>
						<g>
							<rect x="54.654" y="305.343" style="fill:#E0E0E0;" width="11.472" height="11.473"/>
							<rect x="55.931" y="305.343" style="opacity:0.3;fill:#FFFFFF;enable-background:new    ;" width="10.196" height="11.473"/>
						</g>
						<g>
							<rect x="54.654" y="324.644" style="fill:#E0E0E0;" width="11.472" height="11.473"/>
							<rect x="55.931" y="324.644" style="opacity:0.3;fill:#FFFFFF;enable-background:new    ;" width="10.196" height="11.473"/>
						</g>
						<g>
							<rect x="54.654" y="343.945" style="fill:#E0E0E0;" width="11.472" height="11.473"/>
							<rect x="55.931" y="343.945" style="opacity:0.3;fill:#FFFFFF;enable-background:new    ;" width="10.196" height="11.473"/>
						</g>
						<rect x="55.931" y="343.944" style="opacity:0.2;fill:#FFFFFF;enable-background:new    ;" width="11.468" height="11.468"/>
					</g>
					<g>
						<g>
							<rect x="73.992" y="305.343" style="fill:#E0E0E0;" width="11.473" height="11.473"/>
							<rect x="75.269" y="305.343" style="opacity:0.3;fill:#FFFFFF;enable-background:new    ;" width="10.195" height="11.473"/>
						</g>
						<g>
							<rect x="73.992" y="324.644" style="fill:#E0E0E0;" width="11.473" height="11.473"/>
							<rect x="75.269" y="324.644" style="opacity:0.3;fill:#FFFFFF;enable-background:new    ;" width="10.195" height="11.473"/>
						</g>
						<g>
							<rect x="73.992" y="343.945" style="fill:#E0E0E0;" width="11.473" height="11.473"/>
							<rect x="75.269" y="343.945" style="opacity:0.3;fill:#FFFFFF;enable-background:new    ;" width="10.195" height="11.473"/>
						</g>
						<rect x="75.27" y="343.944" style="opacity:0.2;fill:#FFFFFF;enable-background:new    ;" width="11.468" height="11.468"/>
					</g>
					<g>
						<g>
							<rect x="93.33" y="305.343" style="fill:#E0E0E0;" width="11.472" height="11.473"/>
							<rect x="94.608" y="305.343" style="opacity:0.3;fill:#FFFFFF;enable-background:new    ;" width="10.195" height="11.473"/>
						</g>
						<g>
							<rect x="93.33" y="324.644" style="fill:#E0E0E0;" width="11.472" height="11.473"/>
							<rect x="94.608" y="324.644" style="opacity:0.3;fill:#FFFFFF;enable-background:new    ;" width="10.195" height="11.473"/>
						</g>
						<g>
							<rect x="93.33" y="343.945" style="fill:#E0E0E0;" width="11.472" height="11.473"/>
							<rect x="94.608" y="343.945" style="opacity:0.3;fill:#FFFFFF;enable-background:new    ;" width="10.195" height="11.473"/>
						</g>
						<rect x="94.608" y="343.944" style="opacity:0.2;fill:#FFFFFF;enable-background:new    ;" width="11.468" height="11.468"/>
					</g>
					<g>
						<g>
							<rect x="112.669" y="305.343" style="fill:#E0E0E0;" width="11.473" height="11.473"/>
							
								<rect x="113.946" y="305.343" style="opacity:0.3;fill:#FFFFFF;enable-background:new    ;" width="10.195" height="11.473"/>
						</g>
						<g>
							<rect x="112.669" y="324.644" style="fill:#E0E0E0;" width="11.473" height="11.473"/>
							
								<rect x="113.946" y="324.644" style="opacity:0.3;fill:#FFFFFF;enable-background:new    ;" width="10.195" height="11.473"/>
						</g>
						<g>
							<rect x="112.669" y="343.945" style="fill:#E0E0E0;" width="11.473" height="11.473"/>
							
								<rect x="113.946" y="343.945" style="opacity:0.3;fill:#FFFFFF;enable-background:new    ;" width="10.195" height="11.473"/>
						</g>
						<rect x="113.946" y="343.944" style="opacity:0.2;fill:#FFFFFF;enable-background:new    ;" width="11.468" height="11.468"/>
					</g>
				</g>
			</g>
		</g>
	</g>
</g>
<g id="Background_Simple" style="display:none;">
	<g style="display:inline;">
		<path style="fill:#407BFF;" d="M148.473,177.522c-17.911,9.314-31.834,24.936-42.791,41.891
			c-15.572,24.098-26.087,52.984-21.638,81.328c4.448,28.344,27.036,54.931,55.637,57.197c36.64,2.902,66.465-31.76,103.021-35.58
			c13.925-1.455,27.872,1.704,41.844,2.596c41.327,2.638,83.449-16,109.29-48.359c16.925-21.193,27.03-49.153,21.734-75.752
			c-5.503-27.646-27.35-50.469-53.493-61.01c-26.143-10.542-55.899-9.799-82.995-2.032c-25.096,7.194-45.118,20.98-67.609,33.362
			c-9.076,4.997-19.371-1.714-29.511-1.842C170.364,169.173,158.744,172.181,148.473,177.522z"/>
		<path style="opacity:0.9;fill:#FFFFFF;" d="M148.473,177.522c-17.911,9.314-31.834,24.936-42.791,41.891
			c-15.572,24.098-26.087,52.984-21.638,81.328c4.448,28.344,27.036,54.931,55.637,57.197c36.64,2.902,66.465-31.76,103.021-35.58
			c13.925-1.455,27.872,1.704,41.844,2.596c41.327,2.638,83.449-16,109.29-48.359c16.925-21.193,27.03-49.153,21.734-75.752
			c-5.503-27.646-27.35-50.469-53.493-61.01c-26.143-10.542-55.899-9.799-82.995-2.032c-25.096,7.194-45.118,20.98-67.609,33.362
			c-9.076,4.997-19.371-1.714-29.511-1.842C170.364,169.173,158.744,172.181,148.473,177.522z"/>
	</g>
</g>
<g id="Shadow">
	<ellipse id="_x3C_Path_x3E__359_" style="fill:#F5F5F5;" cx="250" cy="415.693" rx="193.889" ry="11.323"/>
</g>
<g id="Floor">
	<g>
		<g>
			<g>
				<g>
					<g>
						<rect x="39.919" y="366.657" style="fill:#407BFF;" width="420.162" height="15.558"/>
					</g>
				</g>
				<g style="opacity:0.7;">
					<g>
						<rect x="39.919" y="366.657" style="fill:#FFFFFF;" width="420.162" height="15.558"/>
					</g>
				</g>
			</g>
			<g>
				<g>
					<rect x="61.582" y="366.657" style="fill:#FFFFFF;" width="1" height="16.308"/>
				</g>
				<g>
					<rect x="155.562" y="366.657" style="fill:#FFFFFF;" width="1" height="16.308"/>
				</g>
				<g>
					<rect x="249.542" y="366.657" style="fill:#FFFFFF;" width="1" height="16.308"/>
				</g>
				<g>
					<rect x="343.523" y="366.657" style="fill:#FFFFFF;" width="1" height="16.308"/>
				</g>
				<g>
					<rect x="437.503" y="366.657" style="fill:#FFFFFF;" width="1" height="16.308"/>
				</g>
			</g>
		</g>
		<g>
			<rect x="39.919" y="383.366" style="fill:#407BFF;" width="420.162" height="4.901"/>
			<rect x="39.919" y="383.366" style="opacity:0.9;fill:#FFFFFF;" width="420.162" height="4.901"/>
		</g>
	</g>
</g>
<g id="Hydrant">
	<g>
		<path style="fill:#407BFF;" d="M386.262,334.014h-2.017c-1.113,0-2.016-0.903-2.016-2.016l0,0c0-1.114,0.903-2.016,2.016-2.016
			h2.017V334.014z"/>
		<path style="fill:#407BFF;" d="M415.211,329.981h2.016c1.114,0,2.016,0.903,2.016,2.016l0,0c0,1.113-0.903,2.016-2.016,2.016
			h-2.017V329.981z"/>
		<rect x="386.262" y="325.68" style="fill:#407BFF;" width="28.949" height="12.635"/>
		<rect x="386.262" y="325.68" style="opacity:0.1;" width="28.949" height="12.635"/>
		<rect x="384.246" y="323.932" style="fill:#407BFF;" width="4.033" height="16.131"/>
		<rect x="413.195" y="323.932" style="fill:#407BFF;" width="4.033" height="16.131"/>
		<rect x="384.246" y="323.932" style="opacity:0.2;fill:#FFFFFF;" width="4.033" height="16.131"/>
		<rect x="413.195" y="323.932" style="opacity:0.2;fill:#FFFFFF;" width="4.033" height="16.131"/>
		<g>
			<path style="fill:#407BFF;" d="M408.514,361.341H392.96v-43.655c0-4.295,3.482-7.777,7.777-7.777l0,0
				c4.295,0,7.777,3.482,7.777,7.777V361.341z"/>
			<path style="fill:#407BFF;" d="M411.323,366.71h-21.172v-1.823c0-3.395,2.752-6.148,6.148-6.148h8.876
				c3.395,0,6.148,2.752,6.148,6.148V366.71z"/>
			<path style="opacity:0.2;fill:#FFFFFF;" d="M411.323,366.71h-21.172v-1.823c0-3.395,2.752-6.148,6.148-6.148h8.876
				c3.395,0,6.148,2.752,6.148,6.148V366.71z"/>
		</g>
		<circle style="opacity:0.2;fill:#FFFFFF;" cx="400.737" cy="331.973" r="6.656"/>
		<path style="fill:#EBEBEB;" d="M402.321,331.973c0,0.875-0.709,1.584-1.584,1.584c-0.875,0-1.584-0.709-1.584-1.584
			s0.709-1.584,1.584-1.584C401.612,330.388,402.321,331.098,402.321,331.973z"/>
		<path style="fill:#407BFF;" d="M390.151,319.899L390.151,319.899c0-1.114,0.903-2.016,2.016-2.016h17.139
			c1.114,0,2.016,0.903,2.016,2.016l0,0c0,1.113-0.903,2.016-2.016,2.016h-17.139C391.054,321.916,390.151,321.013,390.151,319.899z
			"/>
		<path style="opacity:0.2;fill:#FFFFFF;" d="M390.151,319.899L390.151,319.899c0-1.114,0.903-2.016,2.016-2.016h17.139
			c1.114,0,2.016,0.903,2.016,2.016l0,0c0,1.113-0.903,2.016-2.016,2.016h-17.139C391.054,321.916,390.151,321.013,390.151,319.899z
			"/>
	</g>
</g>
<g id="Sreetlight">
	<g>
		<g>
			<g>
				<g>
					<path style="fill:#407BFF;" d="M134.878,89.384c-14.059,1.818-35.489,6.502-52.253,15.308v3.339
						c0,0,23.166-13.465,52.359-15.88L134.878,89.384z"/>
				</g>
				<g>
					<path style="fill:#407BFF;" d="M159.412,94.347c-0.83-0.706-1.855-1.431-2.967-1.908c-2.42-1.042-17.061,1.148-22.078,1.943
						v-2.137l-0.124-2.773c3.409-0.353,6.465-0.6,9.043-0.759c4.221-0.23,7.347-0.371,9.661-0.441
						C156.428,88.148,159.324,90.885,159.412,94.347z"/>
				</g>
				<rect x="117.176" y="93.529" style="fill:#263238;" width="2.278" height="9.969"/>
				<g>
					<path style="fill:#263238;" d="M82.617,128.18c-0.975,0-1.758-0.871-1.758-1.846c0-0.899,0-2.768,9.399-11.267
						c1.092-0.988,2.556-2.265,4.198-3.386c12.488-8.523,27.82-10.646,28.466-10.732c0.967-0.125,1.855,0.55,1.984,1.516
						c0.129,0.967-0.549,1.855-1.515,1.985c-0.151,0.02-15.166,2.11-26.942,10.149c-1.466,1-2.811,2.176-3.82,3.088
						c-6.113,5.527-8.063,8.137-8.252,8.807C84.375,127.468,83.593,128.18,82.617,128.18z"/>
				</g>
			</g>
			<path style="fill:#263238;" d="M84.267,366.471h-4.423V104.42c0-0.134,0.109-0.243,0.243-0.243h3.936
				c0.134,0,0.243,0.109,0.243,0.243V366.471z"/>
		</g>
		<g>
			<path style="fill:#407BFF;" d="M161.196,94.541v0.141l-20.505,1.925l-4.557-1.925v-0.3c5.016-0.795,19.658-2.985,22.078-1.943
				c1.113,0.477,2.137,1.201,2.967,1.908C161.196,94.4,161.196,94.471,161.196,94.541z"/>
			<path style="opacity:0.6;fill:#FFFFFF;" d="M161.196,94.541v0.141l-20.505,1.925l-4.557-1.925v-0.3
				c5.016-0.795,19.658-2.985,22.078-1.943c1.113,0.477,2.137,1.201,2.967,1.908C161.196,94.4,161.196,94.471,161.196,94.541z"/>
		</g>
	</g>
</g>
<g id="Clock">
	<g>
		<g>
			<path style="fill:#263238;" d="M324.086,194.663c0.357,0.386,0.338,0.974-0.048,1.331c-0.125,0.116-0.27,0.193-0.425,0.222
				l0.222,7.9l-0.569,0.019l-0.212-7.957c-0.125-0.048-0.241-0.125-0.338-0.232c-0.183-0.193-0.26-0.434-0.251-0.675l-3.887-1.746
				l0.039-0.56l4.128,1.678c0.01-0.01,0.01-0.01,0.019-0.019C323.141,194.268,323.73,194.287,324.086,194.663z"/>
			<path style="fill:#263238;" d="M323.373,184.015c-6.366,0-11.516,5.16-11.516,11.516c0,6.356,5.151,11.517,11.516,11.517
				c6.356,0,11.517-5.16,11.517-11.517C334.889,189.175,329.729,184.015,323.373,184.015z M323.373,204.636
				c-5.102,0-9.24-4.138-9.24-9.24c0-5.112,4.138-9.24,9.24-9.24c5.102,0,9.24,4.128,9.24,9.24
				C332.613,200.498,328.475,204.636,323.373,204.636z"/>
			<path style="opacity:0.8;fill:#263238;" d="M324.038,195.994c-0.125,0.116-0.27,0.193-0.425,0.222l0.222,7.9l-0.569,0.019
				l-0.212-7.957c-0.125-0.048-0.241-0.125-0.338-0.232c-0.183-0.193-0.26-0.434-0.251-0.675l-3.887-1.746l0.039-0.56l4.128,1.678
				c0.01-0.01,0.01-0.01,0.019-0.019c0.376-0.357,0.965-0.338,1.321,0.039C324.443,195.049,324.424,195.637,324.038,195.994z"/>
		</g>
		<g>
			<g>
				<path style="fill:#263238;" d="M324.038,195.994c-0.125,0.116-0.27,0.193-0.425,0.222c-0.183,0.048-0.376,0.029-0.559-0.039
					c-0.125-0.048-0.241-0.125-0.338-0.232c-0.183-0.193-0.26-0.434-0.251-0.675c0.01-0.232,0.096-0.453,0.28-0.627
					c0.01-0.01,0.01-0.01,0.019-0.019c0.376-0.357,0.965-0.338,1.321,0.039C324.443,195.049,324.424,195.637,324.038,195.994z"/>
			</g>
			<g>
				<polygon style="fill:#263238;" points="323.836,204.115 323.267,204.135 323.055,196.177 323.035,195.521 322.466,195.271 
					318.579,193.525 318.618,192.965 322.746,194.644 323.585,194.991 323.614,196.216 				"/>
			</g>
		</g>
	</g>
</g>
<g id="Character">
	<g>
		<g>
			<g id="Character--inject-2_2_">
				<g>
					<g>
						<path style="fill:#F7978D;" d="M223.942,350.974l-19.268,7.139c-0.483-0.491-2.708-7.21-2.708-7.21l16.879-7.211
							L223.942,350.974z"/>
						<g>
							<path style="fill:#407BFF;" d="M204.644,359.981c-0.015-0.09,0.021-0.181,0.092-0.233c0.075-0.046,0.168-0.041,0.239,0.012
								c0.118,0.094,2.893,2.301,3.103,3.87c0.055,0.294-0.009,0.598-0.174,0.84c-0.164,0.302-0.491,0.46-0.813,0.391
								c-0.587-0.108-1.154-1.087-1.588-2.175C205.138,361.816,204.85,360.91,204.644,359.981z M207.581,363.309
								c-0.609-1.085-1.412-2.032-2.364-2.79c0.431,1.647,1.313,3.777,1.987,3.936c0.091,0.012,0.221,0.01,0.398-0.241
								c0.099-0.146,0.137-0.329,0.107-0.506c-0.027-0.14-0.066-0.276-0.118-0.408L207.581,363.309z"/>
							<path style="fill:#407BFF;" d="M204.689,359.84c0.026-0.075,0.089-0.127,0.164-0.135c0.096-0.026,2.311-0.789,3.586-0.098
								c0.358,0.212,0.618,0.569,0.722,0.99c0.172,0.573-0.045,0.838-0.229,0.99c-0.826,0.576-3.359-0.647-4.203-1.467
								c-0.016-0.022-0.055-0.076-0.055-0.076L204.689,359.84z M208.225,360.01c-0.942-0.315-1.953-0.31-2.893,0.014
								c1.017,0.764,2.955,1.554,3.416,1.175c0.041-0.034,0.161-0.116,0.058-0.483l-0.079-0.109
								C208.635,360.349,208.456,360.135,208.225,360.01z"/>
							<path style="fill:#263238;" d="M205.582,358.007l-2.921-8.32c-0.126-0.352-0.47-0.558-0.819-0.493l-7.058,0.943
								c-0.703,0.145-0.989,1.776-0.96,1.853c1.321,5.27,4.953,16.289,6.289,19.874c1.336,3.584,4.848,2.642,4.604,1.049
								c-1.096-7.143-0.152-10.411,0.842-13.251C205.765,359.134,205.773,358.542,205.582,358.007z"/>
						</g>
						<g style="opacity:0.2;">
							<polygon points="212.097,346.575 218.845,343.692 223.942,350.974 214.311,354.543 							"/>
						</g>
					</g>
					<g>
						<g>
							<path style="fill:#263238;" d="M255.139,264.162c-0.919,2.16-1.194,2.858-1.734,5.165
								c-2.201,9.403-6.074,57.813-8.228,58.753c-6.437,2.809-15.084,3.701-29.849,15.303c1.526,3.947,3.022,6.752,4.36,11.359
								c0,0,30.182-6.873,38.877-14.974c8.971-8.359,18.279-49.068,22.058-59.806c2.145-6.096,4.63-13.39,1.479-18.914
								C280.332,257.947,262.091,247.829,255.139,264.162z"/>
						</g>
					</g>
					<g>
						<path style="fill:#263238;" d="M283.225,249.681l3.059,1.059c-1.933,16.735-3.373,23.014-3.373,23.014l-3.249,9.408l0,0
							c0,0-22.266,9.097-30.055-1.553c-10.465-14.31,3.236-41.951,3.236-41.951S272.1,245.44,283.225,249.681z"/>
					</g>
					<path style="opacity:0.4;" d="M252.386,273.644c2.318,0.877,23.06,23.096,23.06,23.096l-5.399,18.682l-19.458-25.28
						L252.386,273.644z"/>
					<g>
						<path style="fill:#F7978D;" d="M312.588,374.33l0.618,24.828c-0.73,0.435-7.708,2.503-7.708,2.503l-2.98-23.511
							L312.588,374.33z"/>
						<g>
							<path style="fill:#407BFF;" d="M315.698,398.141c-0.096,0.019-0.194-0.023-0.251-0.108c-0.05-0.09-0.046-0.203,0.01-0.289
								c0.099-0.144,2.423-3.532,4.099-3.81c0.314-0.071,0.641,0.001,0.902,0.198c0.326,0.193,0.5,0.586,0.431,0.977
								c-0.107,0.711-1.147,1.411-2.306,1.952C317.655,397.516,316.689,397.878,315.698,398.141z M319.219,394.54
								c-1.153,0.753-2.156,1.738-2.953,2.9c1.758-0.547,4.026-1.645,4.186-2.462c0.012-0.11,0.007-0.267-0.264-0.478
								c-0.158-0.117-0.354-0.161-0.543-0.121c-0.149,0.034-0.295,0.084-0.435,0.148L319.219,394.54z"/>
							<path style="fill:#407BFF;" d="M315.546,398.089c-0.081-0.03-0.138-0.106-0.147-0.196c-0.03-0.115-0.878-2.78-0.156-4.331
								c0.221-0.435,0.6-0.756,1.049-0.888c0.61-0.216,0.898,0.041,1.063,0.261c0.629,0.989-0.644,4.068-1.51,5.101
								c-0.023,0.019-0.081,0.068-0.081,0.068L315.546,398.089z M315.677,393.815c-0.324,1.143-0.304,2.365,0.057,3.495
								c0.804-1.241,1.621-3.594,1.208-4.145c-0.037-0.049-0.126-0.193-0.518-0.062l-0.115,0.097
								C316.034,393.313,315.808,393.532,315.677,393.815z"/>
							<path style="fill:#263238;" d="M313.571,397.039l-8.867,3.658c-0.375,0.158-0.591,0.576-0.516,0.997l1.111,8.513
								c0.165,0.847,1.916,1.167,1.998,1.131c5.623-1.677,17.37-6.237,21.189-7.907c3.818-1.67,2.759-5.898,1.057-5.579
								c-7.632,1.436-11.145,0.345-14.2-0.812C314.774,396.799,314.14,396.799,313.571,397.039z"/>
						</g>
						<g style="opacity:0.2;">
							<polygon points="303.495,385.853 302.518,378.151 312.588,374.33 312.906,385.103 							"/>
						</g>
					</g>
					<path style="fill:#263238;" d="M247.517,278.308c7.333,18.274,34.158,38.046,44.624,53.184c0,0,4.931,35.16,9.485,49.269
						c5.119-0.812,9.634-0.379,12.652-1.355c0,0,0.647-39.353-0.027-50.268c-1.494-24.217-20.436-44.48-42.341-68.086
						c-3.671-3.956-15.351-7.277-21.3-3.934C249.525,257.723,243.687,268.764,247.517,278.308z"/>
					<g>
						<g>
							<path style="fill:#263238;" d="M316.48,374.324c0.091-0.007-0.242,7.031-0.242,7.031l-17.133,1.451l-0.558-6.385
								L316.48,374.324z"/>
						</g>
					</g>
					<path style="opacity:0.6;fill:#FFFFFF;" d="M316.48,374.324c0.091-0.007-0.242,7.031-0.242,7.031l-17.133,1.451l-0.558-6.385
						L316.48,374.324z"/>
					<g>
						<path style="fill:#263238;" d="M224.943,355.492c0.03,0.082-5.974,2.118-5.974,2.118l-6.23-16.973l5.219-2.645
							L224.943,355.492z"/>
					</g>
					<path style="opacity:0.6;fill:#FFFFFF;" d="M224.943,355.492c0.03,0.082-5.974,2.118-5.974,2.118l-6.23-16.973l5.219-2.645
						L224.943,355.492z"/>
				</g>
				<path style="fill:#407BFF;" d="M286.043,252.227l-35.41-10.821c0.768-3.496,2.043-8.405,5.806-22.716
					c2.428-9.888,4.212-19.922,5.34-30.041c0.004-0.029,0.008-0.058,0.012-0.087c0.38-2.614,2.807-4.424,5.421-4.044l0.082,0.025
					c2.408,0.366,5.405,0.902,8.282,1.631c5.504,1.347,10.928,3.004,16.245,4.964c1.743,0.742,3.436,1.593,5.071,2.55
					c2.344,1.269,3.806,3.719,3.809,6.385C300.633,208.643,298.959,218.44,286.043,252.227z"/>
				<path style="opacity:0.6;fill:#FFFFFF;" d="M286.043,252.227l-34.172-10.443c0.778-3.493,1.436-3.636,9.906-53.136
					c0.004-0.029,0.008-0.058,0.012-0.086c0.394-2.609,2.759-4.439,5.283-4.086l0.079,0.024c2.325,0.341,5.218,0.845,7.993,1.543
					c5.31,1.287,10.538,2.885,15.66,4.786c1.678,0.722,3.307,1.554,4.879,2.491c2.255,1.241,3.644,3.669,3.62,6.327
					C299.151,208.19,298.873,218.414,286.043,252.227z"/>
				<path style="fill:#263238;" d="M286.508,196.322l-1.31,2.129c-0.243,0.394-0.594,0.602-0.911,0.543l-1.914-0.335
					c-0.277-0.035-0.483-0.292-0.555-0.662l-0.548-2.74l3.045-1.54L286.508,196.322z"/>
				<path style="fill:#407BFF;" d="M275.219,185.445c-3.027-0.765-6.193-1.333-8.735-1.719l-0.082-0.025
					c-0.05-0.008-0.1-0.015-0.149-0.02c-2.753-0.336-5.257,1.624-5.592,4.376c-0.884,7.311-2.596,20.178-5.62,31.676
					c-6.348,15.199-25.301,17.464-25.301,17.464l0,0c1.801,6.144,5.524,11.549,10.623,15.422l3.007,2.284
					c34.252-10.704,32.776-55.962,33.505-69.08L275.219,185.445z"/>
				<path style="opacity:0.2;enable-background:new    ;" d="M255.958,216.042c2.03-8.64,3.377-17.63,4.235-24.198
					c0.088-0.083,0.185-0.158,0.288-0.222c2.348-1.663,7.383,3.266,5.171,11.451C263.554,210.853,259.294,215.271,255.958,216.042z"
					/>
				<path style="fill:#F7978D;" d="M284.569,193.793c-8.183-2.021-9.637-7.736-9.637-7.736c4.609-2.452,6.168-12.396,6.56-17.997
					l3.243,4.932l4.417,6.72c-0.414,0.738-0.784,1.5-1.107,2.282c-1.299,3.103-1.361,6.285,3.018,8.843
					C291.063,190.837,291.552,195.487,284.569,193.793z"/>
				<path style="fill:#407BFF;" d="M273.47,184.951l2.758-0.157c1.88,3.51,4.551,6.535,7.801,8.835
					c-1.877,0.572-3.541,1.689-4.781,3.209C271.567,191.31,273.47,184.951,273.47,184.951z"/>
				<path style="opacity:0.7;fill:#FFFFFF;" d="M273.47,184.951l2.758-0.157c1.88,3.51,4.551,6.535,7.801,8.835
					c-1.877,0.572-3.541,1.689-4.781,3.209C271.567,191.31,273.47,184.951,273.47,184.951z"/>
				<path style="fill:#407BFF;" d="M291.173,190.38l-2.166-1.192c0,0-2.403,4.526-4.988,4.476c3.661,2.879,3.721,5.137,3.721,5.137
					C294.302,198.697,291.173,190.38,291.173,190.38z"/>
				<g>
					<g>
						<path style="fill:#407BFF;" d="M314.522,231.068c1.373-1.895-3.447-7.464-8.595-12.72c-3.164-3.241-6.464-6.369-8.504-8.451
							l1.105-6.045l1.66-9.155c0.817,1.225,24.364,27.288,24.817,32.638L314.522,231.068z"/>
					</g>
					<path style="opacity:0.2;enable-background:new    ;" d="M305.927,218.348c-3.164-3.241-6.464-6.369-8.504-8.451l1.105-6.045
						c1.514,0.975,2.989,2.519,4.262,4.814C304.35,211.714,305.402,214.987,305.927,218.348z"/>
				</g>
				<path style="fill:#407BFF;" d="M288.354,264.932l-5.352-1.572c6.959-40.684,8.388-59.856,8.052-72.917
					c2.535,0.911,5.02,1.958,7.443,3.135c2.553,1.528,4.118,4.284,4.122,7.26C302.862,208.154,295.748,226.146,288.354,264.932z"/>
				<path style="opacity:0.7;fill:#FFFFFF;" d="M291.173,190.38l-2.166-1.192c0,0-2.403,4.526-4.988,4.476
					c3.661,2.879,3.721,5.137,3.721,5.137C294.302,198.697,291.173,190.38,291.173,190.38z"/>
				<path style="opacity:0.2;enable-background:new    ;" d="M288.375,181.266l-4.235-6.403c-0.279,0.737-0.48,1.499-0.598,2.275
					c-0.363,2.357,1.837,5.573,3.902,6.713L288.375,181.266z"/>
				<path style="fill:#263238;" d="M294.566,170.8c0,0-0.072,3.738,3.927,2.66c0.515-3.943,1.787-3.524,3.329-5.723
					c2.005-2.453,2.5-5.809,1.29-8.737l-2.354-1.46C291.407,153.713,294.566,170.8,294.566,170.8z"/>
				<path style="fill:#F7978D;" d="M285.844,154.903c3.937-3.701,10.129-3.51,13.83,0.427c5.545,5.615,2.482,16.26-1.408,21.822
					c-1.093,1.627-2.656,2.884-4.48,3.602c-4.964,1.955-10.573-0.485-12.527-5.449c-2.054-5.028-0.367-9.043,1.924-16.114
					C283.68,157.553,284.597,156.075,285.844,154.903z"/>
				<path style="fill:#263238;" d="M280.755,173.802c0,0-0.246-6.122,3.414-7.529c-0.304-3.521,2.614-2.043,3.671-4.158
					c1.458-2.403,2.74-4.741,0.972-7.192l-4.057-1.696C272.262,150.909,280.755,173.802,280.755,173.802z"/>
				<path style="fill:#263238;" d="M302.355,153.974c-0.964-1.667-2.504-2.916-4.079-4.024c-2.509-1.766-5.357-3.325-8.426-3.322
					c-3.66,0.004-6.896,2.193-10.091,3.98c-3.195,1.786-7.083,3.247-10.428,1.762c0.896,1.355,2.362,2.32,3.961,2.608
					c-1.089,0.089-2.193-0.001-3.253-0.263c1.947,3.707,6.874,5.518,10.759,3.954c-0.724,0.432-1.447,0.863-2.171,1.294
					c5.794,0.972,11.572-1.383,16.975-3.688c-1.036,1.758-2.622,3.187-4.477,4.035c2.243,0.73,4.787,0.477,6.843-0.68
					c0.778-0.438,1.518-1.01,2.4-1.152c0.852-0.137,1.579,0.318,2.06,0.97C304.014,158.434,303.102,155.268,302.355,153.974z"/>
				<path style="fill:#FF5652;" d="M296.369,173.633c0.885,0.479,1.936,0.543,2.872,0.175c-0.822-1.831-1.393-3.764-1.696-5.748
					L296.369,173.633z"/>
				<path style="fill:#F7978D;" d="M282.283,160.695c2.241,0.31,2.956,2.37,2.715,4.206c0.045,2.744-3.209,4.584-3.97,3.141
					c-1.072-1.203-1.694-2.739-1.761-4.349C279.176,161.666,280.441,160.441,282.283,160.695z"/>
				<path style="fill:#263238;" d="M294.2,165.62c0.361,0.16,0.456,0.799,0.251,1.307c-0.205,0.507-0.675,0.834-1.039,0.683
					s-0.43-0.721-0.254-1.298C293.38,165.749,293.839,165.459,294.2,165.62z"/>
				<path style="fill:#263238;" d="M300.019,167.144c0.361,0.16,0.475,0.735,0.254,1.298c-0.222,0.562-0.694,0.898-1.055,0.738
					c-0.361-0.16-0.473-0.744-0.251-1.307C299.185,167.319,299.658,166.984,300.019,167.144z"/>
				<path style="fill:#263238;" d="M295.511,175.09c0.293,0.13,0.385,0.596,0.205,1.052c-0.18,0.456-0.563,0.728-0.855,0.598
					s-0.383-0.603-0.203-1.059C294.836,175.233,295.219,174.961,295.511,175.09z"/>
				<path style="fill:#263238;" d="M300.411,164.289c0.114,0.03,0.207,0.111,0.252,0.221c0.263,0.88,0.914,1.591,1.768,1.93
					c0.184,0.049,0.293,0.238,0.244,0.421c-0.002,0.006-0.003,0.011-0.005,0.017c-0.06,0.183-0.252,0.288-0.438,0.239l0,0
					c-1.078-0.398-1.907-1.28-2.238-2.38c-0.057-0.187,0.044-0.385,0.228-0.449C300.284,164.275,300.349,164.275,300.411,164.289z"
					/>
				<path style="fill:#263238;" d="M292.882,163.512c0.089-0.078,0.209-0.109,0.324-0.084c0.875,0.277,1.83,0.138,2.59-0.377
					c0.144-0.124,0.361-0.109,0.486,0.035c0.004,0.005,0.008,0.009,0.011,0.014c0.118,0.152,0.097,0.37-0.049,0.497l0,0
					c-0.936,0.668-2.13,0.857-3.227,0.513c-0.186-0.058-0.293-0.252-0.243-0.441C292.799,163.609,292.835,163.556,292.882,163.512z"
					/>
				<path style="fill:#F7978D;" d="M292.883,223.883l-4.659-0.086c-1.443-0.026-2.84,0.507-3.897,1.49l-4.053,3.766
					c-0.487,0.453-0.569,1.193-0.193,1.742l2.098,3.061c0.384,0.56,1.126,0.745,1.728,0.431l5.112-2.669l5.456-3.284
					C294.473,228.335,294.675,223.917,292.883,223.883z"/>
				<g>
					<g>
						<g>
							<g>
								<g>
									<g>
										<path style="fill:#407BFF;" d="M323.422,223.792l-30.54,0.092l0.586,5.055c0,0,24.627,7.978,29.475,5.533h0
											c2.339-2.202,2.962-5.675,1.534-8.553L323.422,223.792z"/>
									</g>
								</g>
							</g>
						</g>
					</g>
					<g>
						<polygon style="fill:#263238;" points="294.935,230.684 292.627,230.032 292.908,223.102 295.239,223.196 						"/>
						<path style="fill:#263238;" d="M296.555,224.032l-5.217-0.212l0.022-0.529c0.022-0.541,0.479-0.962,1.02-0.94l3.256,0.132
							c0.542,0.022,0.963,0.479,0.941,1.02L296.555,224.032z"/>
					</g>
				</g>
			</g>
			<g>
				<g>
					<g>
						<g>
							<path style="fill:#407BFF;" d="M202.436,238.967c2.059-1.359,2.683-3.176,4.144-4.94c0.997-1.203-0.778-1.016,0.853-0.501
								c0.583,0.184,1.146,0.66,1.655,0.983c1.332,0.845,2.585,1.817,3.937,2.631c1.161,0.699,3.447,0.948,4.381,1.782
								c1.524,1.362-1.042,5.497-1.691,6.868c-0.785,1.659,1.695,3.108,2.487,1.435c1.131-2.39,3.648-6.556,2.185-9.312
								c-0.907-1.709-2.823-1.791-4.426-2.456c-3.024-1.254-5.671-4.783-9.052-5.112c-1.149-0.112-1.9,0.253-2.571,1.179
								c-0.761,1.051-0.712,2.401-1.648,3.477c-0.482,0.554-1.063,1.067-1.677,1.472
								C199.475,237.489,200.893,239.987,202.436,238.967L202.436,238.967z"/>
						</g>
						<g style="opacity:0.3;">
							<path d="M202.436,238.967c2.059-1.359,2.683-3.176,4.144-4.94c0.997-1.203-0.778-1.016,0.853-0.501
								c0.583,0.184,1.146,0.66,1.655,0.983c1.332,0.845,2.585,1.817,3.937,2.631c1.161,0.699,3.447,0.948,4.381,1.782
								c1.524,1.362-1.042,5.497-1.691,6.868c-0.785,1.659,1.695,3.108,2.487,1.435c1.131-2.39,3.648-6.556,2.185-9.312
								c-0.907-1.709-2.823-1.791-4.426-2.456c-3.024-1.254-5.671-4.783-9.052-5.112c-1.149-0.112-1.9,0.253-2.571,1.179
								c-0.761,1.051-0.712,2.401-1.648,3.477c-0.482,0.554-1.063,1.067-1.677,1.472
								C199.475,237.489,200.893,239.987,202.436,238.967L202.436,238.967z"/>
						</g>
					</g>
				</g>
				<g>
					<path style="fill:#407BFF;" d="M210.922,287.301l-43.419-25.045c-2.672-1.541-3.589-4.957-2.047-7.629l14.752-25.575
						c0.895-1.551,2.877-2.083,4.428-1.189l47.479,27.387c1.551,0.895,2.083,2.877,1.188,4.428l-14.753,25.576
						C217.01,287.926,213.594,288.843,210.922,287.301z"/>
					<path style="opacity:0.3;fill:#FFFFFF;" d="M210.922,287.301l-43.419-25.045c-2.672-1.541-3.589-4.957-2.047-7.629
						l14.752-25.575c0.895-1.551,2.877-2.083,4.428-1.189l47.479,27.387c1.551,0.895,2.083,2.877,1.188,4.428l-14.753,25.576
						C217.01,287.926,213.594,288.843,210.922,287.301z"/>
					<g>
						<g>
							
								<rect x="184.772" y="263.754" transform="matrix(0.5111 -0.8595 0.8595 0.5111 -130.7837 298.6164)" style="fill:#407BFF;" width="24.658" height="1.035"/>
							<g style="opacity:0.3;">
								
									<rect x="184.772" y="263.754" transform="matrix(0.5111 -0.8595 0.8595 0.5111 -130.7837 298.6164)" width="24.658" height="1.035"/>
							</g>
						</g>
					</g>
					<path style="opacity:0.2;" d="M230.454,258.318l-47.72-27.526c-1.484-0.856-3.382-0.347-4.238,1.137l-0.569,0.986
						c-2.412,4.181-0.977,9.526,3.204,11.937l37.955,21.893c4.181,2.412,9.525,0.977,11.937-3.204l0.569-0.987
						C232.448,261.072,231.939,259.174,230.454,258.318z"/>
					<path style="fill:#407BFF;" d="M232.236,255.32l-47.72-27.526c-1.484-0.856-3.382-0.347-4.238,1.137l-0.569,0.986
						c-2.412,4.181-0.977,9.526,3.204,11.937l37.955,21.893c4.181,2.412,9.525,0.977,11.937-3.204l0.569-0.987
						C234.229,258.074,233.72,256.176,232.236,255.32z"/>
					<g>
						<path style="fill:#407BFF;" d="M232.236,255.32l-47.72-27.526c-1.484-0.856-3.382-0.347-4.238,1.137l-0.569,0.986
							c-2.412,4.181-0.977,9.526,3.204,11.937l37.955,21.893c4.181,2.412,9.525,0.977,11.937-3.204l0.569-0.987
							C234.229,258.074,233.72,256.176,232.236,255.32z"/>
						<path style="opacity:0.5;fill:#FFFFFF;" d="M232.236,255.32l-47.72-27.526c-1.484-0.856-3.382-0.347-4.238,1.137l-0.569,0.986
							c-2.412,4.181-0.977,9.526,3.204,11.937l37.955,21.893c4.181,2.412,9.525,0.977,11.937-3.204l0.569-0.987
							C234.229,258.074,233.72,256.176,232.236,255.32z"/>
					</g>
					<path style="fill:#407BFF;" d="M186.383,252.037l-1.701-0.981c-0.933-0.538-1.253-1.73-0.715-2.663l4.209-7.297
						c0.538-0.932,1.73-1.252,2.662-0.714l1.701,0.981c0.932,0.538,1.252,1.73,0.714,2.662l-4.209,7.297
						C188.507,252.255,187.315,252.575,186.383,252.037z"/>
					<path style="fill:#407BFF;" d="M212.083,266.861l-1.701-0.981c-0.932-0.538-1.253-1.73-0.715-2.662l4.209-7.298
						c0.538-0.933,1.73-1.252,2.662-0.714l1.701,0.981c0.932,0.538,1.252,1.73,0.715,2.662l-4.209,7.297
						C214.207,267.079,213.015,267.399,212.083,266.861z"/>
					<path style="fill:#FFFFFF;" d="M186.383,252.037l-1.701-0.981c-0.933-0.538-1.253-1.73-0.715-2.663l4.209-7.297
						c0.538-0.932,1.73-1.252,2.662-0.714l1.701,0.981c0.932,0.538,1.252,1.73,0.714,2.662l-4.209,7.297
						C188.507,252.255,187.315,252.575,186.383,252.037z"/>
					<path style="fill:#FFFFFF;" d="M212.083,266.861l-1.701-0.981c-0.932-0.538-1.253-1.73-0.715-2.662l4.209-7.298
						c0.538-0.933,1.73-1.252,2.662-0.714l1.701,0.981c0.932,0.538,1.252,1.73,0.715,2.662l-4.209,7.297
						C214.207,267.079,213.015,267.399,212.083,266.861z"/>
				</g>
			</g>
			<g>
				<path style="fill:#407BFF;" d="M228.835,194.755c-5.843,3.391-14.787,24.849-16.689,31.331c2.217-1.051,5.173-0.101,6.364,2.044
					c2.012-4.109,9.418-15.656,13.741-21.17c1.219-1.555,2.952-2.605,4.892-2.983c8.282-1.611,22.504-1.563,25.366-4.48
					c4.632-4.721,8.276-17.048,1.65-15.811C257.909,184.854,233.492,192.052,228.835,194.755z"/>
				<g>
					<path style="fill:#F7978D;" d="M217.657,226.034l-2.954-1.388c-3.452-0.66-4.177,6.094-4.177,6.094l8.165,4.636
						C218.691,235.376,219.24,227.512,217.657,226.034z"/>
					<path style="fill:#F7978D;" d="M216.527,238.77l2.152-3.419l-8.165-4.636l-2.425,4.148c-0.035,0.061-0.066,0.124-0.093,0.189
						c-0.291,0.725,0.06,1.55,0.786,1.841l6.022,2.417C215.434,239.566,216.156,239.339,216.527,238.77z"/>
				</g>
			</g>
		</g>
		<g>
			<path style="fill:#263238;" d="M282.416,198.15c-2.005,8.128-9.413,17.397-26.804,10.799c-8.029-3.046-15.427,2.101-15.618,2.129
				c-0.002,0,0-0.002-0.002-0.003c-0.521-0.088-3.494,6.877-3.494,6.877l6.992,2.341c2.556-3.376,5.763-5.78,9.997-5.776
				c4.234,0.004,8.438,0.836,12.671,0.759c13.133-0.239,16.696-10.42,18.365-16.97L282.416,198.15z"/>
		</g>
	</g>
	<g>
		<path style="fill:#407BFF;" d="M274.777,143.753c0.37,0.021,0.738-0.048,1.108-0.068c1.522-0.086,1.199-1.701-0.706-1.709
			C274.054,141.972,273.416,143.675,274.777,143.753z"/>
		<path style="fill:#407BFF;" d="M286.963,137.615c-0.072-0.641,0.689-1.196,1.357-0.895c1.371,0.617,1.81,2.73,1.81,2.73
			S287.067,138.542,286.963,137.615z"/>
		<path style="fill:#407BFF;" d="M303.29,141.699c-0.238-0.261-0.48-0.527-0.626-0.848c-0.147-0.321-0.185-0.712-0.013-1.02
			c0.172-0.308,0.59-0.484,0.901-0.316c0.293,0.159,0.387,0.534,0.393,0.867c0.01,0.535-0.131,1.072-0.404,1.533"/>
	</g>
</g>
<g id="Symbol">
	<g>
		<polygon style="fill:#407BFF;" points="227.88,114.487 236.225,110.408 240.579,118.613 249.728,120.218 248.427,129.415 
			254.885,136.091 248.427,142.767 249.728,151.964 240.579,153.569 236.225,161.774 227.88,157.695 219.535,161.774 
			215.182,153.569 206.033,151.964 207.333,142.767 200.875,136.091 207.333,129.415 206.033,120.218 215.182,118.613 
			219.535,110.408 		"/>
		<g>
			<path style="fill:#FFFFFF;" d="M224.545,148.928c0-1.904,1.505-3.409,3.586-3.409c2.036,0,3.497,1.505,3.497,3.409
				c0,1.904-1.461,3.453-3.497,3.453C226.05,152.381,224.545,150.831,224.545,148.928z M224.855,121.081h6.552L230.3,141.8h-4.383
				L224.855,121.081z"/>
		</g>
	</g>
</g>
<g id="Lines">
	<g>
		<g>
			<g>
				<path style="fill:#407BFF;" d="M213.647,303.606c-2.395,0-4.78-0.004-7.156-0.012l0.003-0.723
					c11.961,0.043,24.206-0.023,36.385-0.189l0.01,0.723C233.123,303.539,223.317,303.606,213.647,303.606z"/>
			</g>
			<g>
				<path style="fill:#407BFF;" d="M200.602,303.565c-5.141-0.033-10.395-0.087-15.616-0.16l0.01-0.723
					c5.219,0.074,10.471,0.127,15.61,0.16L200.602,303.565z"/>
			</g>
			<g>
				<rect x="173.894" y="302.681" style="fill:#407BFF;" width="5.849" height="0.723"/>
			</g>
		</g>
		<g>
			<g>
				<rect x="136.632" y="233.181" style="fill:#407BFF;" width="36.693" height="0.723"/>
			</g>
			<g>
				<rect x="129.686" y="233.181" style="fill:#407BFF;" width="2.987" height="0.723"/>
			</g>
		</g>
		<g>
			<g>
				<rect x="213.991" y="189.536" style="fill:#407BFF;" width="16.675" height="0.723"/>
			</g>
			<g>
				<rect x="200.344" y="189.536" style="fill:#407BFF;" width="9.397" height="0.723"/>
			</g>
		</g>
	</g>
</g>
</svg>
