<svg version="1.2" xmlns="http://www.w3.org/2000/svg" viewBox="0 0 500 500" width="500" height="500"><style>tspan{white-space:pre}.a{fill:#f0f0f0}.b{fill:#f5f5f5}.c{fill:#fff}.d{fill:#e6e6e6}.e{fill:#407bff}.f{opacity:.5;fill:#fff}.g{opacity:.7;fill:#fff}.h{opacity:.2;fill:#fff}.i{fill:#263238}.j{opacity:.2;fill:#263238}.k{font-size: 21px;fill: #407bff;font-weight: 800;font-family: "' Arial"}.l{fill:#ffb573}.m{opacity:.2}.n{opacity:.1}.o{fill:#e0e0e0}.p{fill:#fafafa}.q{opacity:.3}.r{opacity:.4;fill:#fafafa}.s{fill:#ed893e}.t{opacity:.5;fill:#407bff}.u{opacity:.3;fill:#fff}.v{opacity:.3;fill:#407bff}</style><path class="a" d="m153.3 66.8c0.1-8 6.6-14.4 14.6-14.4 1.9 0 3.8 0.4 5.5 1 2.8-5.8 8.8-9.8 15.8-9.8 8.4 0 15.4 5.9 17.2 13.7 7.9 0.5 14.1 7.1 14.1 15.2 0 8.3-6.8 15.1-15.1 15.1h-48.2c-6 0-10.8-4.8-10.8-10.7 0-4.6 2.9-8.5 6.9-10.1z"/><path class="b" d="m64.7 87.7c0-3 2.5-5.5 5.5-5.5q1.2 0 2.1 0.4c1.1-2.2 3.4-3.8 6.1-3.8 3.2 0 5.9 2.3 6.5 5.3 3 0.2 5.4 2.7 5.4 5.7 0 3.2-2.6 5.8-5.8 5.8h-18.3c-2.3 0-4.1-1.8-4.1-4.1 0-1.7 1-3.2 2.6-3.8z"/><path class="b" d="m433.9 57.8c-0.1-4.9-4.1-8.8-9-8.8q-1.8 0-3.3 0.6c-1.8-3.6-5.5-6-9.7-6-5.2 0-9.5 3.6-10.5 8.4-4.9 0.3-8.7 4.3-8.7 9.3 0 5.1 4.1 9.3 9.3 9.3h29.5c3.6 0 6.6-3 6.6-6.6 0-2.8-1.8-5.2-4.2-6.2z"/><path class="b" d="m412.3 326.1l-7.9-20.2c-1-2.5-3.9-3.8-6.5-2.8l-42.2 16.5c-2.6 1-3.9 4-2.9 6.5l7.9 20.2c1 2.6 3.9 3.9 6.5 2.9l42.2-16.6c2.6-1 3.9-3.9 2.9-6.5z"/><path class="c" d="m383.9 330.6q-0.1 0-0.2 0l-27-5.2c-0.6-0.1-0.9-0.7-0.8-1.2 0.1-0.5 0.6-0.9 1.2-0.8l26.4 5.1 15.9-21.7c0.3-0.4 1-0.5 1.4-0.2 0.5 0.3 0.6 1 0.2 1.4l-16.3 22.2c-0.2 0.3-0.5 0.4-0.8 0.4z"/><path class="b" d="m124.5 311.1l5.3-21c0.6-2.7-1-5.5-3.7-6.1l-44-11c-2.7-0.7-5.4 0.9-6.1 3.6l-5.3 21c-0.6 2.7 1 5.5 3.7 6.1l44 11.1c2.7 0.6 5.4-1 6.1-3.7z"/><path class="c" d="m99.3 298.5c-0.2 0-0.5-0.1-0.7-0.3l-19-19.9c-0.4-0.4-0.4-1.1 0-1.5 0.4-0.3 1.1-0.3 1.5 0.1l18.5 19.5 25.6-8.5c0.5-0.2 1.1 0.1 1.3 0.7 0.1 0.5-0.2 1.1-0.7 1.2l-26.1 8.7q-0.2 0-0.4 0z"/><path class="a" d="m408.2 174.1h-50.3c-5.8 0-10.5 4.7-10.5 10.5v30.1 9.8l9.8-9.8h51c5.7 0 10.5-4.7 10.5-10.5v-19.6c0-5.8-4.8-10.5-10.5-10.5z"/><path class="c" d="m406.4 188.5h-47.5c-1 0-1.7-0.8-1.7-1.8 0-0.9 0.7-1.7 1.7-1.7h47.5c1 0 1.8 0.8 1.8 1.7 0 1-0.8 1.8-1.8 1.8z"/><path class="c" d="m406.4 196.5h-47.5c-1 0-1.7-0.7-1.7-1.7 0-1 0.7-1.8 1.7-1.8h47.5c1 0 1.8 0.8 1.8 1.8 0 1-0.8 1.7-1.8 1.7z"/><path class="c" d="m390.2 204.6h-31.3c-1 0-1.7-0.8-1.7-1.8 0-0.9 0.7-1.7 1.7-1.7h31.3c1 0 1.8 0.8 1.8 1.7 0 1-0.8 1.8-1.8 1.8z"/><path class="b" d="m72.9 193.9h40.7c4.6 0 8.5 3.8 8.5 8.4v17.9 7.9l-7.9-7.9h-41.3c-4.6 0-8.4-3.8-8.4-8.5v-9.4c0-4.6 3.8-8.4 8.4-8.4z"/><path class="d" d="m74.4 205.5h38.3c0.8 0 1.5-0.7 1.5-1.4 0-0.8-0.7-1.4-1.5-1.4h-38.3c-0.8 0-1.5 0.6-1.5 1.4 0 0.7 0.7 1.4 1.5 1.4z"/><path class="d" d="m87.4 212h25.4c0.7 0 1.4-0.6 1.4-1.4 0-0.8-0.7-1.4-1.4-1.4h-25.4c-0.8 0-1.4 0.6-1.4 1.4 0 0.8 0.6 1.4 1.4 1.4z"/><path class="b" d="m250 427.6c-107.2 0-193.9-5.1-193.9-11.4 0-6.2 86.7-11.3 193.9-11.3 107.2 0 193.9 5.1 193.9 11.3 0 6.3-86.7 11.4-193.9 11.4z"/><path class="e" d="m277.3 171.1c-43.8 18.3-85.4 38.3-124.5 59.9 73 6.6 145.3 18.4 216.1 35.3-27.7-32.5-58.3-64.3-91.6-95.2z"/><path class="e" d="m163.7 226.9c66.4 6.4 132.1 17.2 196.7 32.1 11 2.5 17.7 11.4 15.1 19.4q-14.5 43.5-28.9 87.1c-2.7 8-12.8 12.7-22.5 10.4-57.3-13.2-115.5-22.7-174.3-28.4-10-1-17.6-8.5-16.8-16.8q4.4-45.2 8.7-90.4c0.8-8.4 10.7-14.5 22-13.4z"/><path class="f" d="m163.7 226.9c66.4 6.4 132.1 17.2 196.7 32.1 11 2.5 17.7 11.4 15.1 19.4q-14.5 43.5-28.9 87.1c-2.7 8-12.8 12.7-22.5 10.4-57.3-13.2-115.5-22.7-174.3-28.4-10-1-17.6-8.5-16.8-16.8q4.4-45.2 8.7-90.4c0.8-8.4 10.7-14.5 22-13.4z"/><path class="e" d="m149.8 347.5c58.8 5.7 117 15.2 174.3 28.4 4.4 1 8.9 0.6 12.8-0.9-25.3-30.2-53.4-59.7-84.1-88.3-40.4 17-78.7 35.7-114.6 55.9 2.9 2.7 7 4.5 11.6 4.9z"/><path class="g" d="m149.8 347.5c58.8 5.7 117 15.2 174.3 28.4 4.4 1 8.9 0.6 12.8-0.9-25.3-30.2-53.4-59.7-84.1-88.3-40.4 17-78.7 35.7-114.6 55.9 2.9 2.7 7 4.5 11.6 4.9z"/><path class="e" d="m248.2 308.4c38.5-16.7 79.1-31.8 121.6-45-2.5-2-5.7-3.6-9.4-4.4-64.6-14.9-130.3-25.7-196.6-32.1-3.8-0.3-7.5 0.1-10.7 1.2 34.2 25.7 65.9 52.6 95.1 80.3z"/><path class="h" d="m248.2 308.4c38.5-16.7 79.1-31.8 121.6-45-2.5-2-5.7-3.6-9.4-4.4-64.6-14.9-130.3-25.7-196.6-32.1-3.8-0.3-7.5 0.1-10.7 1.2 34.2 25.7 65.9 52.6 95.1 80.3z"/><path class="c" d="m409.2 151.9l-2.4-0.5-2.5-0.3-2.4-0.6-2.4-0.4-2.4-0.5-2.5-0.4-2.4-0.5-2.4-0.5-2.4-0.4-2.5-0.4-2.4-0.5-2.4-0.4-2.4-0.6-2.4-0.5-2.5-0.5-2.4-0.3-2.4-0.7-2.4-0.4-2.5-0.3-2.4-0.6-2.4-0.4-2.5-0.5-2.4-0.4-2.4-0.5-2.4-0.5-2.5-0.4-2.4-0.6-2.4-0.4-2.4-0.5-2.5-0.5-2.4-0.4-2.4-0.4-2.4-0.6-2.5-0.4-2.4-0.5-2.4-0.5-2.5-0.5-2.4-0.2-2.4-0.6-2.5-0.5-2.4-0.5-2.4-0.3-2.5-0.5-2.4-0.6-2.4-0.5-2.4-0.4-2.5-0.4-2.4-0.4-2.4-0.6-2.4-0.5-2.5-0.4-2.4-0.5-2.4-0.4-2.5-0.4-2.4-0.6-2.4-0.4-2.5-0.4-2.4-0.4-2.4-0.5-2.5-0.5-2.4-0.6-2.4-0.3-2.4-0.6-2.5-0.4-2.4-0.5 0.4-1.9 0.4-1.9 0.3-1.9 0.4-1.9 0.2-1.9 0.4-1.9 0.5-1.9 0.3-1.9 0.3-1.9 0.3-1.9 0.4-1.9 0.3-1.9 0.6-1.9 0.4-1.9 0.4-1.9 0.2-1.9 0.3-1.9 0.4-1.9 0.3-1.9 0.3-1.9 0.5-1.9 0.4-1.9 0.4-1.9 0.2-1.9 0.6-1.9 0.2-1.9 0.3-1.9 0.6-1.9 0.3-1.9 2.4 0.5 2.4 0.3 2.4 0.5 2.4 0.4 2.5 0.6 2.4 0.5 2.4 0.4 2.4 0.6 2.4 0.5 2.5 0.3 2.4 0.5 2.4 0.4 2.4 0.5 2.5 0.4 2.4 0.6 2.4 0.3 2.4 0.6 2.5 0.4 2.4 0.5 2.5 0.4 2.3 0.6 2.5 0.3 2.4 0.5 2.4 0.5 2.5 0.6 2.4 0.4 2.4 0.5 2.5 0.3 2.4 0.5 2.4 0.6 2.4 0.3 2.5 0.5 2.4 0.5 2.4 0.4 2.4 0.5 2.5 0.5 2.4 0.4 2.4 0.4 2.4 0.7 2.5 0.4 2.4 0.5 2.4 0.5 2.5 0.3 2.4 0.5 2.4 0.5 2.4 0.5 2.5 0.5 2.4 0.3 2.4 0.5 2.5 0.4 2.4 0.5 2.4 0.6 2.5 0.4 2.4 0.5 2.4 0.5 2.5 0.3 2.4 0.7 2.4 0.3 2.4 0.5 2.5 0.4 2.4 0.6 2.4 0.3 2.5 0.5 2.4 0.5 2.4 0.5-0.5 1.9-0.2 1.9-0.3 1.9-0.4 1.9-0.5 1.9-0.3 1.9-0.3 1.9-0.3 1.9-0.3 1.9-0.4 1.9-0.3 1.9-0.4 1.9-0.4 1.9-0.4 1.9-0.4 1.9-0.3 1.9-0.5 1.9-0.3 1.9-0.3 1.9-0.4 1.9-0.5 1.9-0.3 1.9-0.3 1.9-0.4 1.9-0.3 1.9-0.3 1.9-0.5 1.9-0.4 1.9z"/><path fill-rule="evenodd" class="i" d="m409.2 152.3q-0.1 0-0.1 0l-2.4-0.5-2.4-0.3-2.5-0.6-7.2-1.2-4.9-1-9.7-1.8-2.4-0.6-4.9-1-2.4-0.3-2.4-0.6-2.4-0.4-2.5-0.4-2.4-0.5-2.4-0.4-2.5-0.6-2.4-0.3-2.4-0.6-4.9-0.8-2.4-0.6-2.4-0.4-2.4-0.6-7.3-1.3-2.4-0.5-9.7-1.9-2.5-0.3-4.9-1-2.4-0.5-2.4-0.4-7.3-1.6-4.8-0.7-2.5-0.5-2.4-0.5-2.4-0.5-2.4-0.4-2.5-0.6-2.4-0.3-2.4-0.4-2.5-0.7-7.3-1.2-2.4-0.5-2.4-0.4-2.5-0.6-2.4-0.4-2.4-0.5-2.5-0.5-2.4-0.5c-0.2 0-0.4-0.3-0.3-0.5l0.7-3.8 0.3-1.9 0.4-1.9 0.2-1.9 0.4-1.9 0.6-1.9 0.2-1.9 0.4-1.9 0.2-1.9 0.8-3.8 0.6-1.9 0.3-1.9 0.4-1.9 0.5-3.8 0.4-1.9 0.7-3.8 0.9-3.8 0.3-1.9 0.2-1.9 0.6-1.9 0.2-1.9 0.3-1.9 0.7-1.9 0.2-1.8q0.1-0.2 0.2-0.4 0.2-0.1 0.4 0l2.3 0.4 2.5 0.4 2.4 0.5 2.4 0.4 4.9 1.1 2.4 0.3 2.4 0.6 2.4 0.5 2.4 0.4 2.5 0.5 2.4 0.4 2.4 0.5 2.5 0.3 2.4 0.7 2.4 0.2 2.5 0.7 2.4 0.3 4.8 0.9 2.5 0.7 2.4 0.2 4.8 1 2.5 0.6 4.8 0.9 2.4 0.3 2.5 0.5 2.4 0.7 2.4 0.2 4.9 1.1 2.4 0.4 4.9 0.9 2.4 0.4 2.4 0.5 2.5 0.6 7.2 1.4 2.4 0.4 2.5 0.4 2.4 0.6 4.9 1 2.4 0.3 2.4 0.5 2.5 0.4 2.4 0.5 2.4 0.5 2.4 0.4 2.5 0.6 2.4 0.4 2.4 0.3 2.5 0.7 2.4 0.4 2.4 0.5 2.5 0.4 2.4 0.5 2.4 0.4 2.5 0.5 4.8 1q0.2 0 0.3 0.2 0.1 0.1 0 0.3l-0.4 1.9-0.2 1.8-0.7 3.9-0.5 1.9-1.2 7.6-0.5 1.9-0.7 3.8-0.4 1.9-0.3 1.9-0.4 1.9-0.3 1.9-0.6 1.9-0.5 3.8-0.4 1.9-0.6 1.9-0.5 3.8-0.8 3.8-0.3 1.9-0.5 1.9-0.7 3.8q0 0.2-0.2 0.3-0.1 0-0.2 0zm-157.2-31l1.9 0.4 2.4 0.5 2.5 0.5 2.4 0.4 2.5 0.6 2.4 0.4 2.4 0.5 7.3 1.2 2.4 0.7 2.4 0.4 2.5 0.3 2.4 0.6 2.4 0.4 2.5 0.5 2.4 0.5 2.4 0.5 4.9 0.7 7.3 1.6 2.4 0.4 4.9 1 2.4 0.5 2.4 0.3 9.7 1.9 2.5 0.5 2.4 0.5 4.8 0.8 2.5 0.6 2.4 0.4 2.4 0.6 4.9 0.8 2.4 0.6 2.4 0.3 2.5 0.6 2.4 0.4 2.4 0.5 2.4 0.4 2.5 0.4 2.4 0.6 2.4 0.3 4.9 1 2.4 0.6 19.4 3.6 2.4 0.4 2.4 0.6 2.4 0.3 2 0.4 0.6-3.3 0.5-1.9 0.7-3.8 0.4-1.9 0.2-1.9 0.3-1.9 0.6-1.9 0.4-1.9 0.5-3.8 0.6-1.9 0.3-1.9 0.4-1.9 0.3-1.9 0.4-1.9 1.2-5.7 0.2-1.9 1-5.7 0.5-1.9 0.7-3.8 0.2-1.9 0.3-1.4-6.7-1.4-2.5-0.3-2.4-0.6-2.4-0.4-2.5-0.5-2.4-0.4-2.5-0.7-2.4-0.3-2.4-0.4-2.4-0.6-2.5-0.4-2.4-0.5-2.4-0.5-2.4-0.4-2.5-0.5-2.4-0.3-4.9-1-2.4-0.6-2.4-0.4-2.4-0.4-7.3-1.4-2.5-0.6-2.4-0.5-2.4-0.4-7.3-1.3-4.8-1.1-2.5-0.2-2.4-0.7-2.4-0.4-2.4-0.4-4.9-0.9-2.5-0.6-4.8-1-2.4-0.2-2.5-0.7-2.4-0.4-2.4-0.5-2.4-0.3-2.5-0.7-2.4-0.2-2.4-0.7-2.4-0.3-2.5-0.5-2.4-0.4-2.4-0.5-2.4-0.4-2.5-0.5-2.4-0.6-2.4-0.3-4.9-1.1-2.4-0.4-2.4-0.5-2.4-0.4-1.9-0.3-0.2 1.4-0.7 1.9-0.3 1.8-0.2 2-0.6 1.9-0.2 1.9-0.3 1.9-0.9 3.8-0.7 3.8-0.4 1.9-0.5 3.8-0.4 1.9-0.4 1.9-0.5 1.9-0.4 1.9-0.4 1.9-0.2 1.9-0.4 1.9-0.2 1.9-0.6 1.9-0.4 1.9-0.2 1.8-0.4 2-0.3 1.9z"/><path class="j" d="m257 93.2l-0.4 1.9-0.4 1.9-0.6 1.9-0.3 1.9-0.4 1.9-0.3 1.9-0.3 1.9-0.3 1.9-0.5 1.9-0.4 1.9-0.2 1.9-0.4 1.9-0.3 1.9-0.4 1.9-0.4 1.9 2.4 0.5 2.5 0.4 2.4 0.6 2.4 0.3 2.4 0.6z"/><text style="transform:matrix(.981,.196,-0.196,.981,281.839,94.849)" ><tspan x="0" y="0" class="k">Too many
</tspan></text><text style="transform:matrix(.981,.196,-0.196,.981,279.887,114.973)" ><tspan x="0" y="0" class="k">requests
</tspan></text><path class="i" d="m275.9 129.9c-8.4 3.6-8.4 15.7-2.3 13.3 6.1-2.4 7.3-15.4 2.3-13.3z"/><path class="l" d="m203 339.4l14.1-4.5 0.1 11.9-11.7 3.8z"/><path class="m" d="m203 339.4l14.1-4.5 0.1 6.7-12.8 4.1z"/><path class="i" d="m221.8 349.1l-1.4 0.7c-0.8 0.5-1.8 0.5-2.6 0.1l-0.5 0.9c-0.2 0.6-0.7 1.1-1.2 1.4l-18.9 10.2c-1.2-1.4-1.3-4.1-1.3-4.1 0 0 8-4.9 8.6-8.4 0-0.3 0.2-0.5 0.5-0.6 1.8-0.5 8.7-2.7 11.6-5.8 0.4-0.4 1.1-0.3 1.4 0.2 1.5 2.7 3.8 5.4 3.8 5.4z"/><path fill-rule="evenodd" class="i" d="m205 350.1q0 0 0 0c-0.1 0-3.2-0.3-4.1-1.3q-0.2-0.4-0.2-0.7 0.1-0.6 0.6-0.7c1-0.3 3.1 1.3 3.9 2.4q0.1 0.1 0 0.2-0.1 0.1-0.2 0.1zm-3.5-2.3q0 0-0.1 0c-0.1 0-0.2 0.1-0.2 0.3q-0.1 0.2 0.1 0.4c0.5 0.6 2.1 1 3.2 1.1-0.9-0.9-2.3-1.8-3-1.8z"/><path fill-rule="evenodd" class="i" d="m201.6 352.5q-0.4 0-0.6-0.2-0.4-0.4-0.2-0.9c0.3-0.9 2.8-1.7 4.2-1.7q0.2 0 0.2 0.1 0.1 0.2 0 0.3c-0.1 0.1-2.2 2.4-3.5 2.4q0 0-0.1 0zm2.9-2.3c-1.3 0.1-3.1 0.8-3.3 1.4-0.1 0.1-0.1 0.2 0.1 0.4q0.1 0.1 0.4 0.1c0.8 0 2-1.2 2.8-1.9z"/><path class="e" d="m266.6 226.9l3.6 13c5.4 19.2-4.6 39.9-21.9 45.7-10.1 3.4-24 3.9-32.1 5.7 4.3 14.5 5.5 33.6 5.7 47.4l-19.7 5.1c-5.1-16.2-13.2-41.4-18.6-57.7-1.9-5.9-0.2-12.6 4.2-16.6 22.1-20.5 78.7-42.6 78.7-42.6z"/><path class="l" d="m248.9 361.4l12.8-7.6 2.8 11.7-10.7 6.3z"/><path class="m" d="m249 361.4l12.7-7.6 1.6 6.6-11.6 6.8z"/><path class="i" d="m269.3 369.8l-1.4 0.7c-0.8 0.5-1.8 0.5-2.6 0l-0.5 1c-0.2 0.6-0.7 1.1-1.2 1.3l-19 10.1c-1.2-1.5-1.3-4.2-1.3-4.2 0 0 8.1-4.8 8.7-8.2 0.1-0.3 0.2-0.5 0.5-0.6 1.8-0.5 8.7-2.7 11.7-5.8 0.4-0.4 1.1-0.3 1.3 0.2 1.6 2.8 3.8 5.5 3.8 5.5z"/><path fill-rule="evenodd" class="i" d="m252.5 370.7q0 0 0 0c-0.1 0-3.2-0.4-4-1.4q-0.3-0.4-0.2-0.7 0-0.6 0.5-0.7c1-0.2 3.1 1.3 3.9 2.4q0.1 0.2 0 0.3-0.1 0.1-0.2 0.1zm-3.4-2.4q-0.1 0-0.2 0c-0.1 0.1-0.2 0.1-0.2 0.3q0 0.2 0.1 0.4c0.5 0.6 2.1 1 3.2 1.2-0.8-0.9-2.2-1.9-2.9-1.9z"/><path fill-rule="evenodd" class="i" d="m249.1 373.1q-0.4-0.1-0.6-0.3-0.4-0.4-0.2-0.9c0.4-0.9 2.9-1.7 4.2-1.7q0.2 0 0.2 0.2 0.1 0.1 0 0.2c-0.1 0.1-2.2 2.4-3.5 2.4q0 0-0.1 0zm2.9-2.3c-1.3 0.2-3.1 0.8-3.3 1.4-0.1 0.1-0.1 0.2 0.1 0.4q0.1 0.1 0.4 0.1c0.7 0 2-1.1 2.8-1.9z"/><path class="e" d="m293.6 239l5.9 11.4c8.7 16.9 2.4 39.3-13.9 49.6-9.5 5.9-22.8 13.2-30.6 17.2 5.1 12.3 8.7 28.1 10.3 40l-17.3 7.7c-7.9-14-19.2-33.9-26.8-46.9-3-5.2-2.5-12 1.2-17.1 18.5-25.5 71.2-61.9 71.2-61.9z"/><path class="n" d="m261.6 359.3c-0.2 0-0.4-0.1-0.4-0.4-1.9-9.6-11-37.9-17.1-49.9q0-0.1 0-0.3 0.1-0.2 0.3-0.3c26.1-9.6 42-19.4 46-28.4 7.1-15.7-1-30.8-8.2-37-0.2-0.2-0.3-0.5-0.1-0.7 0.2-0.2 0.5-0.2 0.6 0 7.5 6.4 15.9 21.9 8.6 38.1-4.2 9.2-19.7 18.9-46.1 28.7 6.1 12.3 15 40.1 16.9 49.7 0 0.2-0.1 0.5-0.4 0.5q0 0-0.1 0z"/><path class="l" d="m256.7 196.5l-1.1 0.7-1 0.7q-0.9 0.6-1.9 1.1-1.9 1.1-3.9 2.1c-2.6 1.4-5.3 2.5-8.1 3.6-5.6 2-11.6 3.5-18.3 3.7-0.8 0-1.6 0-2.5 0l-1.3-0.1-1.4-0.1c-1.9-0.3-3.6-0.7-5.1-1.2-2.9-0.9-5.7-2-8.2-3.3l-2-1-1.8-1q-1.9-1-3.6-2.2c-2.4-1.5-4.6-3.1-6.8-5.1-2.2-1.8-2.4-5.1-0.5-7.3 1.2-1.5 3.2-2.1 5-1.8l0.3 0.1c4.9 1 9.9 2.2 14.6 3.1 2.4 0.4 4.7 0.7 6.8 0.9 1.1 0.1 1.9 0.2 2.7 0.1l1.2-0.1c0.4 0 0.9-0.1 1.4-0.1 3.8-0.6 7.9-2 12-3.7 2-0.9 4.1-1.9 6.1-3q1.5-0.8 3-1.6l2.8-1.6 0.6-0.3c4.9-2.9 11.2-1.2 14.1 3.8 2.6 4.6 1.2 10.6-3.1 13.6z"/><path class="l" d="m198.8 187.4l-0.8 5.9c-3 5.5-9.4 0.4-9.4 0.4l-4.1-1.1c-1.3-0.4-2.2-1.9-2-3.6l0.5-4.1c0.2-1.9 1.8-3.3 3.4-3.1l3.7 0.4c1.1 0.2 2.1 0.5 3 1.2z"/><path class="o" d="m264.5 169c-2.3-3.5-10.8-1.5-15 4.3-1.9 0.1-8.8 7.7-14.5 9.7-5.6 2.1-9.1 9.5-7.1 13.3 3.7 7 6 10.3 11.5 10.4 5.5 0 12.2-4.2 17.5-9 5.2-4.8 14.9-17.4 7.6-28.7z"/><path class="p" d="m232.5 183.1c-4.8-2.4-8.7 2.9-8.2 9 0.6 6 2.6 11.2 5.1 14.5 2.6 3.4 6.4 2.7 10 2.2 3.1-0.5 4.6-1.7 2.8-4.4-1.8-2.7-7.7-6.3-9.3-14.2-0.8-3.9 1.9-5.9-0.4-7.1z"/><path class="p" d="m227.6 234.3c-1 1-1.9 4.8-0.2 10.7 1.2 4.1 6.7 2.3 6.7 2.3 0 0 0.6 7.4 7.2 9.2 10.9 3.1 52.4 4.1 59.7-1.1-22.1-1.1-73.4-21.1-73.4-21.1z"/><path class="e" d="m267.7 165.3c6.8 0.4 14.4 1.1 21.5 2.3 12.7 2.1 20.8 14.6 17.9 27.1-6.5 27.6-4 55.9-4.8 61.4 0 0-64 6.5-73-12.8-12.2-21.8 10.5-34.9 19.4-64.5 2.4-7.7 10.9-13.9 19-13.5z"/><path class="q" d="m267.7 165.3c6.8 0.4 14.4 1.1 21.5 2.3 12.7 2.1 20.8 14.6 17.9 27.1-6.5 27.6-4 55.9-4.8 61.4 0 0-64 6.5-73-12.8-12.2-21.8 10.5-34.9 19.4-64.5 2.4-7.7 10.9-13.9 19-13.5z"/><path class="r" d="m288.9 167.6h-0.1l-0.3-0.2-0.1 0.1c-5.4-0.9-10.9-1.5-16.2-1.9q-1.9-0.1-3.8-0.2c-1.6 0.7-3 2.1-3.8 4-1.8 4-0.8 8.5 2.6 12.2l0.3 0.3 0.4-0.1c7.8-0.4 22.7-6 23.5-10.8 0.1-0.8 0-2.4-2.5-3.4z"/><path class="l" d="m310.6 190.8l1 2.2q0.5 1 0.9 2c0.6 1.4 1.1 2.8 1.6 4.2 1 2.8 1.9 5.6 2.6 8.5q0.6 2.1 1 4.3 0.5 2.2 0.9 4.5c0.5 3 0.8 6 0.9 9.1l0.1 0.6c0.1 1.3-0.2 2.6-0.6 3.7-0.8 2.2-2.6 4.5-4.5 5.9-1.9 1.4-3.7 2.1-5.3 2.5-3.2 0.7-5.5 0.5-7.7 0.3-2.1-0.2-4-0.6-5.8-1.1q-2.7-0.7-5.2-1.6c-3.3-1.2-6.4-2.6-9.4-4.2-3-1.6-5.9-3.2-8.8-5.1-2.4-1.6-3-4.8-1.4-7.2 1.2-1.8 3.4-2.6 5.4-2.2l0.2 0.1c3 0.6 6.1 1.3 9.1 2 3 0.6 6 1.2 8.9 1.6 1.4 0.2 2.8 0.4 4.2 0.4 1.3 0.1 2.6 0.2 3.7 0.1 1-0.1 1.9-0.3 1.9-0.4-0.1-0.1-0.4-0.1-1.1 0.4-0.6 0.4-1.4 1.3-1.7 2.1l-0.5 4.2q-0.7-3.5-1.7-7.1-0.5-1.8-1.1-3.6-0.5-1.7-1.1-3.5c-0.8-2.4-1.6-4.8-2.6-7.2l-1.3-3.5-1.3-3.4-0.2-0.5c-2.1-5.3 0.5-11.3 5.8-13.3 5.1-2 10.8 0.3 13.1 5.2z"/><path class="l" d="m276.2 220.4l-1.6 3.4c-4.6 4.3-9.1-2.6-9.1-2.6l-3.4-2.4c-1.2-0.8-1.5-2.5-0.8-4l1.8-3.7c0.8-1.8 2.7-2.6 4.2-1.9l3.3 1.6c1 0.5 1.8 1.2 2.5 2l2.8 3.9c0.8 1.1 0.9 2.5 0.3 3.7z"/><path class="o" d="m298.8 172.1c4.2 0.3 13 10.1 12.6 17.2 1.4 1.3 3.3 8.4 6.4 13.5 3.1 5.2 1.1 13.2-2.9 14.8-7.3 3.1-11.2 4.1-15.5 0.7-4.2-3.4-8.3-14.1-8.8-21.2-0.6-10.5 0.8-25.7 8.2-25z"/><path class="p" d="m294.9 214.1c-2.8 4.6 2.2 8.9 8.3 8.8 6.1-0.1 11.3-1.7 14.9-4 3.5-2.3 3.2-6.2 2.9-9.8-0.2-3.2-1.4-4.7-4.2-3.1-2.8 1.6-6.8 7.2-14.8 8.2-4 0.5-5.8-2.3-7.1-0.1z"/><path class="l" d="m266.5 169.1c0.6-1.1 2.5-2.8 4.3-3.3 0.7-1.4 1-3.1 0.6-5.1l19.9-4.2c-2.2 6.2-3.9 11.1-1.9 14.5-4 1.9-11.4 5.3-18.9 4.3-7.5-0.9-5.6-3.6-4-6.2z"/><path class="m" d="m271.5 161.3l14.6 0.6c-5 4.4-12.1 5.5-15 3.2 0.4-1.1 0.6-2.3 0.4-3.8z"/><path class="l" d="m296.1 147.1c-3.2 8.7-5.5 14.6-11.8 16.8-12.4 4.5-17.1-2.2-16.7-11.7 0.5-8.6 5.6-21.4 15.3-22.3 9.6-0.9 16.3 8.5 13.2 17.2z"/><path class="i" d="m294 154.7c-6.1-2.7-6.9-7.3-3.7-8.8-1.9-2.6-3.2-6.5 0.2-8.3-1.3 1-7.5-2.6-6.8-5.4-6.3 3.1-13 2.2-10.6-3.8 2.4-5.9 12.8-8.3 14.5-5.3 9.8-4 15.8 3.6 12.5 6.3 6.9 0.5 9.3 8.7 4.7 12.1 5.9 4.6-0.5 12.3-10.8 13.2z"/><path class="i" d="m278.1 152.6q0.6 0.1 1.3 0.4c0.1 0 0.1 0.1 0.1 0.2-0.1 0.2-0.2 0.2-0.3 0.2-3.1-1.2-5.5 0.3-5.6 0.3-0.1 0.1-0.2 0.1-0.3 0 0-0.1 0-0.2 0.1-0.3 0.1-0.1 2.1-1.3 4.7-0.8z"/><path class="m" d="m283.9 145.4c0 0 2-0.3 3.2 0.8-1.8-0.1-3.2-0.8-3.2-0.8z"/><path class="m" d="m283.8 146.2c0 0 1.8 0 2.6 1.3-1.6-0.4-2.6-1.3-2.6-1.3z"/><path class="m" d="m271.6 141.9c0 0-0.5-1-1.2-0.7 0.6 0.7 1.2 0.7 1.2 0.7z"/><path class="m" d="m271.4 142.6c0 0-0.5-0.9-1-0.2 0.5 0.4 1 0.2 1 0.2z"/><path class="m" d="m276.8 134.5c0 0 4.6 0.1 8.1 1.6-4.6-0.6-8.1-1.6-8.1-1.6z"/><path class="m" d="m275.5 135.6c0 0 6.2 1 9 3-5.4-1.3-9-3-9-3z"/><path class="l" d="m298.2 155.3c-1.5 2-3.7 3.2-5.8 3.4-3.1 0.4-4.2-2.4-3-5.1 1.1-2.4 4-5.5 6.9-4.7 2.9 0.8 3.6 4.1 1.9 6.4z"/><path class="i" d="m281.4 145.2c-0.2 0.7-0.8 1.2-1.2 1-0.5-0.1-0.7-0.8-0.5-1.6 0.2-0.7 0.8-1.2 1.2-1 0.5 0.1 0.7 0.8 0.5 1.6z"/><path class="i" d="m273.7 143c-0.2 0.7-0.8 1.2-1.2 1.1-0.5-0.2-0.7-0.9-0.5-1.6 0.2-0.7 0.8-1.2 1.2-1.1 0.5 0.2 0.7 0.9 0.5 1.6z"/><path class="s" d="m276 144.3l-1.7 6.1c0 0-2.5-0.1-3.6-1.6 1.7-2.9 5.3-4.5 5.3-4.5z"/><path class="i" d="m282.5 139.8q-0.1 0-0.2 0c-0.3 0-0.4 0.2-0.4 0.5 0.2 2.4 2 3.4 2.1 3.4 0.2 0.2 0.5 0.1 0.6-0.1 0.1-0.3 0-0.5-0.2-0.6-0.1-0.1-1.5-0.9-1.6-2.8-0.1-0.2-0.2-0.3-0.3-0.4z"/><path class="i" d="m273.9 137.6q-0.2 0-0.4 0.1c-1.5 1.3-3 0.9-3.1 0.9-0.2 0-0.5 0.1-0.5 0.3-0.1 0.3 0.1 0.5 0.3 0.6 0.1 0 2.1 0.5 3.9-1.1 0.2-0.2 0.2-0.5 0-0.6q-0.1-0.1-0.2-0.2z"/><path class="p" d="m267.9 180.9c10.4-0.5 28.7-9.2 20.7-12.5-5.3 3.9-13.9 5.2-18 5-1.4-1.5-1.7-5.5 0.2-7.6-4.2-0.5-9.9 7.8-2.9 15.1z"/><path class="e" d="m270.6 173.4c3-1.9 12-5.7 17.7-7.4 2-0.5 3.3 2 1.7 3.3q0 0 0 0c0 0-4.6 4.7-19.4 4.1z"/><path class="e" d="m271 173.7c0.3 0.1 0.7 0 0.9-0.3l0.8-1.2c0.2-0.3 0.1-0.6-0.2-0.7-0.3-0.1-0.8 0-0.9 0.3l-0.9 1.2c-0.1 0.3 0 0.6 0.3 0.7z"/><path class="e" d="m270.3 173.6c0.3 0 0.7-0.2 0.8-0.5l0.6-1.3c0.1-0.4-0.1-0.6-0.4-0.7-0.4 0-0.8 0.2-0.9 0.5l-0.5 1.3c-0.2 0.4 0 0.6 0.4 0.7z"/><path class="e" d="m270.6 173.4c0 0 0.3-4.2 0.3-7.1-0.1-1.3-1.8-1.7-2.3-0.5-0.2 0.3-0.3 0.6-0.3 0.6 0 0 0.6 5.7 2.3 7z"/><path class="e" d="m190.9 206.7c1.7-0.2 2.9-1.8 2.7-3.5l-6.8-52.6-6.3 0.8 6.8 52.6c0.2 1.7 1.8 2.9 3.6 2.7z"/><path class="i" d="m180.5 151.4l6.3-0.8 0.9 7-6.2 1.2z"/><path class="c" d="m108.2 164.4l2.3-0.4h2.3l2.3-0.5 2.4-0.2 2.3-0.3 2.4-0.2 2.3-0.4 2.3-0.3 2.4-0.2 2.3-0.3 2.4-0.3 2.3-0.3 2.3-0.5 2.4-0.3 2.3-0.4h2.4l2.3-0.6 2.3-0.2 2.4-0.1 2.3-0.4 2.4-0.3 2.3-0.4 2.3-0.1 2.4-0.5 2.3-0.2 2.4-0.2 2.3-0.6 2.3-0.1 2.3-0.5 2.4-0.2 2.3-0.3 2.4-0.3 2.3-0.4 2.4-0.3 2.3-0.3 2.3-0.3 2.4-0.3h2.4l2.3-0.5 2.3-0.3 2.3-0.4 2.4-0.1 2.3-0.4 2.4-0.4 2.3-0.4 2.4-0.2 2.3-0.1 2.4-0.3 2.3-0.5 2.3-0.3 2.4-0.2 2.3-0.4 2.4-0.2 2.3-0.2 2.3-0.6 2.4-0.2 2.3-0.2 2.4-0.2 2.3-0.4 2.4-0.2 2.3-0.5 2.4-0.1 2.3-0.4 2.4-0.3 2.2-0.4-0.3-3-0.5-3-0.3-3.1-0.4-3-0.2-3-0.4-3.1-0.6-3-0.3-3-0.4-3-0.3-3.1-0.4-3-0.4-3-0.6-3-0.3-3-0.5-3.1-0.3-3-0.3-3-0.4-3.1-0.4-3-0.3-3-0.5-3.1-0.5-3-0.3-3-0.3-3-0.6-3.1-0.2-3-0.3-3-0.7-3.1-0.3-2.9-2.3 0.2-2.3 0.2-2.4 0.3-2.3 0.3-2.3 0.4-2.4 0.4-2.3 0.2-2.3 0.4-2.4 0.4-2.3 0.1-2.3 0.4-2.4 0.2-2.3 0.4-2.4 0.1-2.3 0.5-2.4 0.1-2.3 0.5-2.3 0.2-2.4 0.3-2.3 0.2-2.3 0.6h-2.4l-2.3 0.4-2.4 0.3-2.3 0.5-2.3 0.3-2.4 0.2-2.3 0.1-2.4 0.3-2.3 0.6h-2.4l-2.3 0.4-2.3 0.4-2.4 0.2-2.3 0.3-2.4 0.3-2.3 0.2-2.4 0.3-2.3 0.6-2.3 0.3-2.3 0.3-2.4 0.3-2.4 0.1-2.3 0.3-2.3 0.5-2.4 0.3-2.3 0.4h-2.4l-2.3 0.4-2.3 0.2-2.4 0.3-2.3 0.4-2.4 0.2-2.3 0.5-2.3 0.3h-2.4l-2.3 0.7-2.4 0.1-2.3 0.3-2.4 0.2-2.3 0.5-2.4 0.2-2.3 0.3-2.4 0.4-2.3 0.3 0.5 3 0.3 3 0.4 3 0.3 3.1 0.6 3 0.3 3 0.3 3 0.4 3.1 0.3 3 0.4 3 0.4 3.1 0.4 3 0.4 3 0.4 3 0.4 3 0.3 3.1 0.6 3 0.3 3 0.3 3.1 0.5 3 0.5 3 0.4 3 0.2 3.1 0.4 3 0.4 3 0.4 3.1 0.5 3 0.4 3z"/><path fill-rule="evenodd" class="i" d="m108.2 165q-0.2 0-0.4-0.1-0.2-0.2-0.2-0.4l-0.7-6-0.6-3-0.7-6.1-0.4-3-0.6-6.1-0.6-3-0.4-3.1-0.6-6.1-0.6-2.9-0.3-3.1-0.5-3-0.3-3-0.5-3-1.2-9.1-1.3-12.2-0.5-2.9-0.8-6.1-0.2-3.1-0.5-2.9q-0.1-0.2 0.1-0.4 0.1-0.2 0.4-0.3l2.3-0.3 2.3-0.4 2.4-0.3 2.4-0.1 2.2-0.5 2.4-0.2 2.3-0.3 2.4-0.2 2.2-0.6q0.1 0 0.2 0l2.4-0.1 2.2-0.3 2.3-0.4 2.4-0.2 2.3-0.5 2.4-0.3 2.4-0.2 2.3-0.3 2.4-0.1 4.6-0.7 2.3-0.5 2.4-0.2 2.4-0.1 7-1 2.2-0.5 2.4-0.4 2.4-0.1 2.3-0.3 2.3-0.4 2.4-0.2 2.3-0.4 2.3-0.3 2.4-0.1 2.3-0.5 2.4-0.3 2.4-0.1 2.3-0.3 2.3-0.3 2.3-0.5 2.4-0.3 2.3-0.4h2.4l2.2-0.5 2.5-0.3 2.3-0.3 2.3-0.1 2.3-0.6q0.1 0 0.1 0h2.3l2.3-0.6 2.4-0.1 2.3-0.4 2.4-0.1 2.3-0.5 2.4-0.1 2.3-0.3 2.3-0.5 2.4-0.2 4.6-0.8 2.4-0.2 2.3-0.4 2.4-0.1 2.2-0.3q0.3 0 0.5 0.1 0.1 0.2 0.2 0.4l0.3 3 0.6 2.9 0.3 3.1 0.3 3.1 0.6 2.9 0.2 3.2 0.4 3 1 6 0.7 6.1 0.4 3 0.6 6.1 0.4 3 0.4 3 0.6 3 0.8 6.1 0.3 3 0.3 3 0.4 3.1 0.5 2.9 0.4 3.1 0.3 3.1 0.4 3 0.3 3 0.8 6c0 0.3-0.2 0.6-0.5 0.6l-2.2 0.4-2.4 0.3-2.3 0.4-2.5 0.1-2.2 0.6-2.4 0.2-2.3 0.4-7.1 0.6-2.3 0.5-2.4 0.3-2.4 0.1-2.2 0.4-2.4 0.3-2.4 0.3-2.2 0.4-2.4 0.3-4.8 0.4-6.9 1.2-2.4 0.1-4.6 0.7-2.3 0.4q-0.1 0-0.1 0h-2.4l-7 1-2.3 0.3-2.3 0.4-2.4 0.3-4.7 0.5-2.3 0.4-2.4 0.2-2.2 0.5-2.4 0.2-2.4 0.3-2.3 0.4-2.4 0.2-2.2 0.4-2.4 0.2-2.3 0.4-2.5 0.1-2.3 0.2-2.2 0.6q-0.1 0.1-0.1 0.1h-2.4l-2.3 0.3-2.3 0.4-2.3 0.5-7 0.8-2.4 0.3-2.3 0.3-2.3 0.3-4.8 0.5-2.3 0.2-2.2 0.6q-0.1 0-0.2 0h-2.3l-2.2 0.4q-0.1 0-0.1 0zm-10.7-87.8l0.4 2.4 0.2 3.1 0.8 6 0.5 3 1.3 12.1 0.5 3 0.7 6.1 0.5 3 0.4 3.1 0.4 3 0.3 3 0.6 3 0.6 6.1 0.4 3 0.6 3 0.3 3.1 0.3 3 0.8 6.1 0.3 3 0.6 3 0.7 5.5 1.7-0.3h2.4l2.2-0.6 7.1-0.7 2.3-0.3 2.4-0.3 7-0.8 2.3-0.3 2.3-0.5 4.7-0.8h2.4l2.2-0.6 2.5-0.2 2.4-0.1 2.2-0.4 2.4-0.2 2.3-0.5 2.4-0.1 2.3-0.4 2.3-0.3 2.4-0.2 2.2-0.5 2.5-0.2 2.2-0.4 7.1-0.8 2.3-0.4 2.4-0.3 7-1h2.4l2.3-0.4 4.7-0.7 2.4-0.1 6.9-1.2 4.8-0.4 2.3-0.3 2.3-0.4 2.3-0.4 2.4-0.2 2.3-0.4 2.4-0.1 2.4-0.3 2.2-0.5 7.1-0.6 2.3-0.4 2.4-0.3 2.3-0.5 2.4-0.1 2.3-0.4 2.4-0.3 1.7-0.3-0.7-5.4-0.3-3.1-0.5-3-0.2-3.1-0.4-3-0.6-3-0.3-3-0.4-3-0.2-3.1-0.8-6-0.6-3-0.9-6.1-0.5-6.1-0.5-3-0.7-6.1-0.9-6-0.4-3-0.2-3.1-0.6-2.9-0.3-3.2-0.3-3-0.6-2.9-0.3-2.5-1.7 0.2-2.4 0.1-2.3 0.4-2.4 0.2-4.6 0.9-2.4 0.1-2.2 0.5-2.4 0.3-2.4 0.2-2.2 0.4-2.5 0.2-2.2 0.3-2.5 0.2-2.2 0.5q0 0-0.1 0h-2.3l-2.2 0.6q-0.1 0-0.1 0l-2.4 0.1-2.3 0.3-2.4 0.3-2.2 0.6q-0.1 0-0.1 0h-2.4l-2.2 0.3-2.4 0.3-2.3 0.5-2.4 0.3-2.3 0.3-2.4 0.1-2.3 0.3-2.2 0.6q-0.1 0-0.2 0h-2.4l-2.2 0.3-2.3 0.4-2.4 0.3-2.3 0.3-2.4 0.3-2.4 0.2-2.3 0.3-2.2 0.6-7.1 0.9-2.4 0.1-2.3 0.2-2.3 0.5-4.7 0.7-2.4 0.1-2.3 0.3-2.4 0.2-2.3 0.4-2.3 0.4-2.4 0.2-2.3 0.5-2.4 0.3h-2.3l-2.3 0.6q0 0-0.1 0l-2.3 0.2-2.3 0.3-2.4 0.2-2.3 0.5-2.4 0.1-2.3 0.3z"/><path class="t" d="m240.2 65.4l10.7 70.4-134.1 20.2-10.6-70.4z"/><path class="e" d="m242.5 77l-13.3-9.5 2.5-3.5 13.3 9.4z"/><path class="e" d="m124.3 157l-14.2-8 2.2-3.8 14.2 8z"/><path class="c" d="m135.3 88.5l12.3-2 0.5 3.2-7.7 1.2 0.4 2.4 7.1-1.1 0.5 3-7.1 1.1 0.5 3 7.9-1.3 0.5 3.3-12.5 2z"/><path fill-rule="evenodd" class="c" d="m152.7 100.9l-2.4-14.8 7.7-1.2q2.1-0.4 3.3-0.2 1.2 0.2 2 1.1 0.9 0.8 1.1 2.3 0.2 1.2-0.2 2.2-0.4 0.9-1.2 1.7-0.5 0.4-1.5 0.8 0.8 0.1 1.3 0.4 0.2 0.1 0.8 0.6 0.6 0.5 0.8 0.8l2.9 4-5.2 0.8-3.1-4.1q-0.6-0.8-1-1-0.6-0.3-1.2-0.2l-0.4 0.1 0.9 6zm3.2-9.6l2-0.3q0.3 0 1.1-0.4 0.5-0.2 0.7-0.6 0.2-0.4 0.1-0.9-0.1-0.7-0.6-1-0.5-0.3-1.8-0.1l-2 0.3z"/><path fill-rule="evenodd" class="c" d="m168.8 98.3l-2.3-14.8 7.6-1.2q2.1-0.4 3.3-0.2 1.2 0.2 2 1.1 0.9 0.8 1.1 2.2 0.2 1.3-0.2 2.3-0.4 0.9-1.2 1.6-0.5 0.5-1.5 0.9 0.9 0.1 1.3 0.4 0.3 0.1 0.8 0.6 0.6 0.5 0.8 0.8l2.9 4-5.1 0.8-3.2-4.1q-0.6-0.8-1-1-0.6-0.3-1.2-0.2l-0.4 0.1 1 6zm3.1-9.6l2-0.3q0.3 0 1.1-0.4 0.5-0.2 0.7-0.6 0.2-0.4 0.2-0.9-0.2-0.7-0.7-1-0.5-0.3-1.7-0.1l-2.1 0.3z"/><path fill-rule="evenodd" class="c" d="m182.8 88.5q-0.6-3.7 1.1-6 1.7-2.4 5.3-2.9 3.7-0.6 6 1 2.3 1.7 2.9 5.3 0.4 2.6-0.2 4.4-0.6 1.8-2.1 3-1.5 1.2-3.9 1.6-2.6 0.4-4.3-0.2-1.8-0.5-3.1-2.1-1.3-1.5-1.7-4.1zm4.6-0.7q0.3 2.2 1.3 3 1 0.9 2.4 0.7 1.5-0.3 2.2-1.4 0.6-1.1 0.2-3.5-0.3-2.1-1.3-3-1-0.8-2.5-0.6-1.3 0.3-2 1.4-0.7 1.1-0.3 3.4z"/><path fill-rule="evenodd" class="c" d="m201.9 93l-2.4-14.8 7.6-1.3q2.1-0.3 3.3-0.1 1.2 0.2 2 1 0.9 0.9 1.1 2.3 0.2 1.3-0.2 2.2-0.3 1-1.2 1.7-0.5 0.5-1.5 0.9 0.9 0.1 1.3 0.3 0.3 0.2 0.8 0.7 0.6 0.5 0.8 0.8l3 3.9-5.2 0.9-3.2-4.2q-0.6-0.8-1-1-0.6-0.2-1.2-0.1h-0.4l1 6.1zm3.1-9.6l2-0.3q0.3-0.1 1.2-0.4 0.4-0.2 0.6-0.6 0.3-0.4 0.2-0.9-0.1-0.7-0.7-1-0.5-0.4-1.7-0.2l-2 0.4z"/><path fill-rule="evenodd" class="c" d="m151.6 136.4l-17.8 2.9-1.3-8 14.3-24 8.6-1.4 3.4 21.6 4.5-0.7 1.2 7.6-4.4 0.7 1 6.5-8.5 1.4zm-1.2-7.6l-1.8-11-7.6 12.6z"/><path class="c" d="m197.2 135.8l-29.3 4.8q-0.2-4.5 1.7-8.7 1.9-4.2 8.1-10.6 3.8-3.9 4.7-5.7 1-1.9 0.7-3.4-0.2-1.6-1.6-2.5-1.4-1-3.2-0.7-1.8 0.3-2.8 1.7-1 1.4-1 4.4l-9.9 0.8q-0.1-4.2 1.1-6.8 1.2-2.5 3.8-4.2 2.6-1.7 7.5-2.5 5.2-0.8 8.2-0.1 3.1 0.7 5.1 2.8 2 2.2 2.5 5.2 0.5 3.3-0.9 6.5-1.4 3.2-5.8 7.5-2.6 2.5-3.5 3.5-0.8 1-2 2.5l15.3-2.4z"/><path fill-rule="evenodd" class="c" d="m200.5 127.2l9.5-2.8q0.7 2 1.8 2.7 1 0.7 2.4 0.4 2.3-0.3 3.2-2.9 0.7-1.9 0.3-7.7-1.5 2.1-3.2 3.3-1.7 1.1-4.1 1.5-4.7 0.7-8.5-2.1-3.8-2.8-4.7-8-0.5-3.5 0.7-6.6 1.2-3.1 3.8-5.1 2.7-1.9 7.1-2.6 5.2-0.9 8.7 0.4 3.5 1.3 6.1 4.9 2.5 3.7 3.5 10.1 1.6 9.6-1.7 14.6-3.3 5.1-10.4 6.3-4.2 0.6-6.8 0.1-2.6-0.6-4.5-2.2-1.9-1.6-3.2-4.3zm15.5-18.6q-0.5-2.9-2.2-4.2-1.7-1.4-3.8-1.1-1.9 0.3-2.9 2-1.1 1.7-0.6 4.6 0.5 2.9 2 4.3 1.6 1.3 3.6 1 2.1-0.3 3.2-2.1 1.1-1.7 0.7-4.5z"/><path class="e" d="m280.4 228.1q-9.6 4.4-18.3 9.6c10.4 1.3 20.7 3.5 30.7 6.6q-5.5-8.3-12.4-16.2z"/><path class="e" d="m263.7 237c9.5 1.3 18.8 3.4 28 6.1 1.5 0.4 2.4 1.9 2 3.3q-2.4 7.2-4.8 14.4c-0.5 1.3-2 2.1-3.3 1.6-8.2-2.4-16.4-4.2-24.8-5.3-1.5-0.2-2.5-1.5-2.3-2.9q1-7.5 1.9-15c0.2-1.4 1.7-2.4 3.3-2.2z"/><path class="f" d="m263.7 237c9.5 1.3 18.8 3.4 28 6.1 1.5 0.4 2.4 1.9 2 3.3q-2.4 7.2-4.8 14.4c-0.5 1.3-2 2.1-3.3 1.6-8.2-2.4-16.4-4.2-24.8-5.3-1.5-0.2-2.5-1.5-2.3-2.9q1-7.5 1.9-15c0.2-1.4 1.7-2.4 3.3-2.2z"/><path class="e" d="m260.8 257.1c8.4 1.1 16.7 2.9 24.8 5.3 0.6 0.2 1.2 0.2 1.8-0.1q-5.1-7.7-11.4-15-8.9 4.1-16.9 8.9c0.4 0.5 1 0.8 1.7 0.9z"/><path class="g" d="m260.8 257.1c8.4 1.1 16.7 2.9 24.8 5.3 0.6 0.2 1.2 0.2 1.8-0.1q-5.1-7.7-11.4-15-8.9 4.1-16.9 8.9c0.4 0.5 1 0.8 1.7 0.9z"/><path class="e" d="m275.2 250.9q8.5-4 17.8-7.1-0.5-0.5-1.3-0.7c-9.2-2.7-18.5-4.8-28-6.1q-0.8-0.1-1.5 0.2 7 6.6 13 13.7z"/><path class="h" d="m275.2 250.9q8.5-4 17.8-7.1-0.5-0.5-1.3-0.7c-9.2-2.7-18.5-4.8-28-6.1q-0.8-0.1-1.5 0.2 7 6.6 13 13.7z"/><path class="e" d="m354.9 297.7l-26.8-16.2c-1.5-0.9-3.5-0.4-4.4 1.1l-10.2 15.9c-1 1.5-0.5 3.5 1 4.4l26.8 16.1c1.5 0.9 3.5 0.5 4.5-1l10.1-16c1-1.5 0.5-3.4-1-4.3z"/><path class="u" d="m354.9 297.7l-26.8-16.2c-1.5-0.9-3.5-0.4-4.4 1.1l-10.2 15.9c-1 1.5-0.5 3.5 1 4.4l26.8 16.1c1.5 0.9 3.5 0.5 4.5-1l10.1-16c1-1.5 0.5-3.4-1-4.3z"/><path class="e" d="m341.3 319l-26.8-16.1c-0.7-0.4-1.2-1.1-1.4-1.8l23.1-3.1 7.3 21.4c-0.7 0.2-1.5 0-2.2-0.4z"/><path class="f" d="m341.3 319l-26.8-16.1c-0.7-0.4-1.2-1.1-1.4-1.8l23.1-3.1 7.3 21.4c-0.7 0.2-1.5 0-2.2-0.4z"/><path class="e" d="m333.7 301.9l-7.2-20.8q0.9 0 1.6 0.4l26.8 16.2q0.8 0.4 1.2 1.2z"/><path class="e" d="m324.6 252.7l-22.5-13.6c-1.3-0.7-3-0.4-3.8 0.9l-8.6 13.4c-0.7 1.3-0.3 2.9 0.9 3.7l22.6 13.5c1.2 0.8 2.9 0.4 3.7-0.8l8.6-13.5c0.8-1.2 0.4-2.8-0.9-3.6z"/><path class="u" d="m324.6 252.7l-22.5-13.6c-1.3-0.7-3-0.4-3.8 0.9l-8.6 13.4c-0.7 1.3-0.3 2.9 0.9 3.7l22.6 13.5c1.2 0.8 2.9 0.4 3.7-0.8l8.6-13.5c0.8-1.2 0.4-2.8-0.9-3.6z"/><path class="e" d="m313.2 270.6l-22.6-13.5c-0.6-0.4-1-0.9-1.1-1.5l19.3-2.6 6.2 18c-0.6 0.1-1.3 0-1.8-0.4z"/><path class="f" d="m313.2 270.6l-22.6-13.5c-0.6-0.4-1-0.9-1.1-1.5l19.3-2.6 6.2 18c-0.6 0.1-1.3 0-1.8-0.4z"/><path class="e" d="m306.8 256.3l-6.1-17.6q0.7 0 1.4 0.4l22.5 13.6q0.7 0.4 1 1z"/><path class="e" d="m195 283.3l-26.5-4c-1.5-0.2-2.9 0.8-3.1 2.3l-2.5 15.8c-0.3 1.4 0.8 2.8 2.3 3l26.5 4c1.5 0.2 2.9-0.8 3.1-2.3l2.5-15.8c0.3-1.4-0.8-2.8-2.3-3z"/><path class="u" d="m195 283.3l-26.5-4c-1.5-0.2-2.9 0.8-3.1 2.3l-2.5 15.8c-0.3 1.4 0.8 2.8 2.3 3l26.5 4c1.5 0.2 2.9-0.8 3.1-2.3l2.5-15.8c0.3-1.4-0.8-2.8-2.3-3z"/><path class="e" d="m191.7 304.4l-26.5-3.9c-0.7-0.1-1.3-0.5-1.7-1l16.9-9.9 13.2 14.4c-0.6 0.3-1.2 0.5-1.9 0.4z"/><path class="f" d="m191.7 304.4l-26.5-3.9c-0.7-0.1-1.3-0.5-1.7-1l16.9-9.9 13.2 14.4c-0.6 0.3-1.2 0.5-1.9 0.4z"/><path class="e" d="m179.8 293.5l-12.7-14q0.6-0.3 1.4-0.2l26.5 4q0.8 0.1 1.3 0.5z"/><path class="e" d="m321.3 275.1c-8.7 1.9-17.9 2.4-26.7 4.3-1.5 0.3-2.4 1.8-2 3.2q2.1 7.8 4.2 15.6c0.4 1.5 1.9 2.3 3.4 2 8.8-1.9 18-2.4 26.8-4.3 1.5-0.3 2.4-1.8 2-3.2q-2.1-7.8-4.2-15.6c-0.4-1.4-2-2.3-3.5-2z"/><path class="u" d="m321.3 275.1c-8.7 1.9-17.9 2.4-26.7 4.3-1.5 0.3-2.4 1.8-2 3.2q2.1 7.8 4.2 15.6c0.4 1.5 1.9 2.3 3.4 2 8.8-1.9 18-2.4 26.8-4.3 1.5-0.3 2.4-1.8 2-3.2q-2.1-7.8-4.2-15.6c-0.4-1.4-2-2.3-3.5-2z"/><path class="e" d="m327 295.9c-8.8 1.9-18 2.4-26.8 4.3-0.7 0.2-1.4 0.1-1.9-0.2 3.8-5.2 7.9-9.9 11.9-14.5 6.2 3.3 12.3 6.6 18.4 9.4-0.4 0.5-0.9 0.9-1.6 1z"/><path class="f" d="m327 295.9c-8.8 1.9-18 2.4-26.8 4.3-0.7 0.2-1.4 0.1-1.9-0.2 3.8-5.2 7.9-9.9 11.9-14.5 6.2 3.3 12.3 6.6 18.4 9.4-0.4 0.5-0.9 0.9-1.6 1z"/><path class="e" d="m311.2 289.3c-6-3.3-12-6.5-17.9-9.2q0.5-0.5 1.3-0.7c8.8-1.9 18-2.4 26.7-4.3q0.8-0.1 1.5 0.1c-3.8 5-7.7 9.5-11.6 14.1z"/><path class="e" d="m277.5 256.1q11.4 6.5 21.4 14c-13.1 0.4-26 1.8-38.8 4.4q8-9.5 17.4-18.4z"/><path class="e" d="m297 269.1c-11.9 0.5-23.7 1.8-35.3 4-2 0.4-3.3 2.1-2.9 3.8q2 9.2 4 18.4c0.3 1.7 2.1 2.8 3.8 2.4 10.4-1.9 20.8-3.1 31.3-3.5 1.8 0 3.2-1.5 3.2-3.2q-0.2-9.4-0.4-18.8c0-1.7-1.7-3.1-3.7-3.1z"/><path class="f" d="m297 269.1c-11.9 0.5-23.7 1.8-35.3 4-2 0.4-3.3 2.1-2.9 3.8q2 9.2 4 18.4c0.3 1.7 2.1 2.8 3.8 2.4 10.4-1.9 20.8-3.1 31.3-3.5 1.8 0 3.2-1.5 3.2-3.2q-0.2-9.4-0.4-18.8c0-1.7-1.7-3.1-3.7-3.1z"/><path class="e" d="m297.9 294.2c-10.5 0.4-20.9 1.6-31.3 3.5-0.8 0.2-1.6 0-2.2-0.3q7.3-8.9 16-17.1 10.5 6.1 19.6 13.1c-0.5 0.5-1.3 0.8-2.1 0.8z"/><path class="g" d="m297.9 294.2c-10.5 0.4-20.9 1.6-31.3 3.5-0.8 0.2-1.6 0-2.2-0.3q7.3-8.9 16-17.1 10.5 6.1 19.6 13.1c-0.5 0.5-1.3 0.8-2.1 0.8z"/><path class="e" d="m281 284.8q-10-5.9-21.1-10.9 0.8-0.6 1.8-0.8c11.6-2.2 23.4-3.5 35.3-4 0.7 0 1.3 0.2 1.9 0.4q-9.6 7.3-17.9 15.3z"/><path class="h" d="m281 284.8q-10-5.9-21.1-10.9 0.8-0.6 1.8-0.8c11.6-2.2 23.4-3.5 35.3-4 0.7 0 1.3 0.2 1.9 0.4q-9.6 7.3-17.9 15.3z"/><path class="e" d="m288.1 275.9l-31.1 4.7c-1.8 0.3-3 1.9-2.7 3.6l2.9 18.6c0.3 1.7 2 2.9 3.7 2.6l31.1-4.7c1.8-0.2 3-1.9 2.8-3.6l-3-18.5c-0.3-1.8-1.9-2.9-3.7-2.7z"/><path class="u" d="m288.1 275.9l-31.1 4.7c-1.8 0.3-3 1.9-2.7 3.6l2.9 18.6c0.3 1.7 2 2.9 3.7 2.6l31.1-4.7c1.8-0.2 3-1.9 2.8-3.6l-3-18.5c-0.3-1.8-1.9-2.9-3.7-2.7z"/><path class="e" d="m292 300.7l-31.1 4.7c-0.8 0.1-1.6 0-2.2-0.4l15.4-17 19.9 11.6c-0.5 0.6-1.1 1-2 1.1z"/><path class="f" d="m292 300.7l-31.1 4.7c-0.8 0.1-1.6 0-2.2-0.4l15.4-17 19.9 11.6c-0.5 0.6-1.1 1-2 1.1z"/><path class="e" d="m274.8 292.6l-19.4-11.3q0.7-0.6 1.6-0.7l31.1-4.7q0.9-0.1 1.7 0.2z"/><path class="e" d="m260.1 250l10.7 16.6-28.7-7.7z"/><path class="e" d="m269.7 265.4l-26-7c-1.5-0.4-3.1 0.5-3.5 1.9l-4.4 15.5c-0.4 1.4 0.5 2.9 2 3.3l25.9 7c1.5 0.4 3.1-0.4 3.5-1.9l4.4-15.5c0.4-1.4-0.5-2.9-1.9-3.3z"/><path class="f" d="m269.7 265.4l-26-7c-1.5-0.4-3.1 0.5-3.5 1.9l-4.4 15.5c-0.4 1.4 0.5 2.9 2 3.3l25.9 7c1.5 0.4 3.1-0.4 3.5-1.9l4.4-15.5c0.4-1.4-0.5-2.9-1.9-3.3z"/><path class="e" d="m263.7 286.1l-25.9-7c-0.7-0.1-1.3-0.6-1.6-1.1l18.1-7.9 11.4 15.9c-0.6 0.2-1.3 0.3-2 0.1z"/><path class="g" d="m263.7 286.1l-25.9-7c-0.7-0.1-1.3-0.6-1.6-1.1l18.1-7.9 11.4 15.9c-0.6 0.2-1.3 0.3-2 0.1z"/><path class="e" d="m253.3 273.9l-11.1-15.5q0.7-0.2 1.5 0l26 7q0.7 0.2 1.2 0.7z"/><path class="h" d="m253.3 273.9l-11.1-15.5q0.7-0.2 1.5 0l26 7q0.7 0.2 1.2 0.7z"/><path class="e" d="m261.5 281.5c-10.4-1.6-20.5-5-30.9-6.6-1.8-0.3-3.4 1-3.6 2.7q-1.2 9.3-2.3 18.7c-0.3 1.7 1 3.3 2.8 3.5 10.4 1.7 20.5 5 30.9 6.6 1.8 0.3 3.4-1 3.6-2.7q1.2-9.3 2.3-18.6c0.3-1.8-1-3.3-2.8-3.6z"/><path class="u" d="m261.5 281.5c-10.4-1.6-20.5-5-30.9-6.6-1.8-0.3-3.4 1-3.6 2.7q-1.2 9.3-2.3 18.7c-0.3 1.7 1 3.3 2.8 3.5 10.4 1.7 20.5 5 30.9 6.6 1.8 0.3 3.4-1 3.6-2.7q1.2-9.3 2.3-18.6c0.3-1.8-1-3.3-2.8-3.6z"/><path class="e" d="m258.4 306.4c-10.4-1.6-20.5-4.9-30.9-6.6-0.8-0.1-1.5-0.5-2-1 6.5-4 12.9-7.4 19.3-10.8 5.3 6.2 10.5 12.4 15.8 17.9-0.6 0.4-1.4 0.6-2.2 0.5z"/><path class="f" d="m258.4 306.4c-10.4-1.6-20.5-4.9-30.9-6.6-0.8-0.1-1.5-0.5-2-1 6.5-4 12.9-7.4 19.3-10.8 5.3 6.2 10.5 12.4 15.8 17.9-0.6 0.4-1.4 0.6-2.2 0.5z"/><path class="e" d="m244.3 292.6c-5.1-6-10.2-12-15.4-17.5q0.8-0.3 1.7-0.2c10.4 1.6 20.5 5 30.9 6.6q0.9 0.1 1.6 0.7c-6.3 3.8-12.6 7.1-18.8 10.4z"/><path class="e" d="m204.9 269.3q10.6 4.9 20.2 10.8c-11.6 1.4-23.1 3.7-34.3 7q6.3-9.1 14.1-17.8z"/><path class="e" d="m223.4 279.4c-10.6 1.3-21.1 3.5-31.3 6.4-1.7 0.5-2.8 2.1-2.3 3.6q2.6 8.1 5.2 16.1c0.4 1.5 2.1 2.3 3.6 1.9 9.1-2.6 18.4-4.5 27.7-5.6 1.6-0.2 2.8-1.6 2.6-3.2q-1-8.4-1.9-16.8c-0.2-1.5-1.8-2.6-3.6-2.4z"/><path class="f" d="m223.4 279.4c-10.6 1.3-21.1 3.5-31.3 6.4-1.7 0.5-2.8 2.1-2.3 3.6q2.6 8.1 5.2 16.1c0.4 1.5 2.1 2.3 3.6 1.9 9.1-2.6 18.4-4.5 27.7-5.6 1.6-0.2 2.8-1.6 2.6-3.2q-1-8.4-1.9-16.8c-0.2-1.5-1.8-2.6-3.6-2.4z"/><path class="e" d="m226.3 301.8c-9.3 1.1-18.6 3-27.7 5.6-0.7 0.2-1.4 0.1-2-0.1q5.8-8.5 12.9-16.6 9.8 4.6 18.7 10.1c-0.5 0.5-1.1 0.9-1.9 1z"/><path class="g" d="m226.3 301.8c-9.3 1.1-18.6 3-27.7 5.6-0.7 0.2-1.4 0.1-2-0.1q5.8-8.5 12.9-16.6 9.8 4.6 18.7 10.1c-0.5 0.5-1.1 0.9-1.9 1z"/><path class="e" d="m210.4 294.7q-9.5-4.5-19.8-8.1 0.6-0.6 1.5-0.8c10.2-3 20.7-5.1 31.3-6.4q0.9-0.1 1.7 0.2-8 7.3-14.7 15.1z"/><path class="h" d="m210.4 294.7q-9.5-4.5-19.8-8.1 0.6-0.6 1.5-0.8c10.2-3 20.7-5.1 31.3-6.4q0.9-0.1 1.7 0.2-8 7.3-14.7 15.1z"/><path class="e" d="m139.4 302.6l36.1 2.2c2 0.1 3.6 1.8 3.5 3.8l-1.4 21.5c-0.1 2-1.9 3.5-4 3.4l-36.1-2.2c-2-0.1-3.6-1.8-3.4-3.8l1.3-21.5c0.2-2 1.9-3.5 4-3.4z"/><path class="u" d="m139.4 302.6l36.1 2.2c2 0.1 3.6 1.8 3.5 3.8l-1.4 21.5c-0.1 2-1.9 3.5-4 3.4l-36.1-2.2c-2-0.1-3.6-1.8-3.4-3.8l1.3-21.5c0.2-2 1.9-3.5 4-3.4z"/><path class="e" d="m137.5 331.3l36.1 2.2c1 0.1 1.8-0.2 2.5-0.7l-19.4-17.8-21.5 15.3c0.6 0.6 1.4 1 2.3 1z"/><path class="f" d="m137.5 331.3l36.1 2.2c1 0.1 1.8-0.2 2.5-0.7l-19.4-17.8-21.5 15.3c0.6 0.6 1.4 1 2.3 1z"/><path class="e" d="m156.4 320.2l20.9-14.8q-0.8-0.6-1.8-0.6l-36.1-2.2c-0.7-0.1-1.4 0.1-1.9 0.4z"/><path class="e" d="m121.4 255.1l24 10c1.4 0.6 2 2.1 1.4 3.4l-6.3 14.3c-0.6 1.4-2.2 2-3.5 1.4l-24-10c-1.4-0.6-2-2.1-1.4-3.4l6.3-14.3c0.6-1.4 2.2-2 3.5-1.4z"/><path class="u" d="m121.4 255.1l24 10c1.4 0.6 2 2.1 1.4 3.4l-6.3 14.3c-0.6 1.4-2.2 2-3.5 1.4l-24-10c-1.4-0.6-2-2.1-1.4-3.4l6.3-14.3c0.6-1.4 2.2-2 3.5-1.4z"/><path class="e" d="m113 274.2l24 10c0.6 0.3 1.2 0.3 1.8 0.1l-8.7-16.7-18.5 5.3c0.3 0.6 0.8 1 1.4 1.3z"/><path class="f" d="m113 274.2l24 10c0.6 0.3 1.2 0.3 1.8 0.1l-8.7-16.7-18.5 5.3c0.3 0.6 0.8 1 1.4 1.3z"/><path class="e" d="m128.5 271.1l18-5.2q-0.4-0.5-1.1-0.8l-24-10q-0.7-0.3-1.4-0.2z"/><path class="e" d="m233.6 245.4l-27.6 5.9c-1.4 0.3-1.9 1.6-1.1 2.8l7.2 11.4c0.8 1.2 2.6 1.9 3.9 1.6l27.6-5.9c1.4-0.3 1.9-1.6 1.1-2.8l-7.2-11.3c-0.8-1.3-2.5-2-3.9-1.7z"/><path class="u" d="m233.6 245.4l-27.6 5.9c-1.4 0.3-1.9 1.6-1.1 2.8l7.2 11.4c0.8 1.2 2.6 1.9 3.9 1.6l27.6-5.9c1.4-0.3 1.9-1.6 1.1-2.8l-7.2-11.3c-0.8-1.3-2.5-2-3.9-1.7z"/><path class="e" d="m243.3 261.2l-27 5.9c-0.7 0.1-1.4 0.1-2.1-0.1l9.6-12.4 21.1 5.7c-0.3 0.5-0.8 0.8-1.6 0.9z"/><path class="f" d="m243.3 261.2l-27 5.9c-0.7 0.1-1.4 0.1-2.1-0.1l9.6-12.4 21.1 5.7c-0.3 0.5-0.8 0.8-1.6 0.9z"/><path class="e" d="m225.6 257.5l-20.6-5.6q0.5-0.4 1.3-0.6l27-5.9q0.8-0.1 1.6 0z"/><path class="e" d="m326.2 312.9l30.4-4.5c1.7-0.3 3.3 0.9 3.6 2.6l2.8 18.1c0.3 1.7-0.9 3.3-2.6 3.5l-30.4 4.6c-1.8 0.2-3.4-0.9-3.7-2.6l-2.8-18.2c-0.3-1.6 0.9-3.2 2.7-3.5z"/><path class="u" d="m326.2 312.9l30.4-4.5c1.7-0.3 3.3 0.9 3.6 2.6l2.8 18.1c0.3 1.7-0.9 3.3-2.6 3.5l-30.4 4.6c-1.8 0.2-3.4-0.9-3.7-2.6l-2.8-18.2c-0.3-1.6 0.9-3.2 2.7-3.5z"/><path class="e" d="m330 337.2l30.4-4.6c0.8-0.1 1.5-0.5 1.9-1l-19.4-11.4-15.1 16.5c0.6 0.4 1.4 0.6 2.2 0.5z"/><path class="f" d="m330 337.2l30.4-4.6c0.8-0.1 1.5-0.5 1.9-1l-19.4-11.4-15.1 16.5c0.6 0.4 1.4 0.6 2.2 0.5z"/><path class="e" d="m343.6 324.6l14.6-16q-0.8-0.3-1.6-0.2l-30.4 4.5q-0.9 0.1-1.6 0.7z"/><path class="e" d="m173.5 265.6l-18.2 19.5 39.8-3.5z"/><path class="e" d="m157.1 283.8l36-3.2c2.1-0.2 3.9 1.2 4.1 3.2l2 21.5c0.2 2-1.3 3.8-3.4 4l-36 3.2c-2 0.2-3.8-1.3-4-3.3l-2.1-21.5c-0.1-2 1.4-3.7 3.4-3.9z"/><path class="f" d="m157.1 283.8l36-3.2c2.1-0.2 3.9 1.2 4.1 3.2l2 21.5c0.2 2-1.3 3.8-3.4 4l-36 3.2c-2 0.2-3.8-1.3-4-3.3l-2.1-21.5c-0.1-2 1.4-3.7 3.4-3.9z"/><path class="e" d="m159.8 312.5l36-3.2c1-0.1 1.8-0.5 2.4-1.2l-22-14.6-18.9 18.3c0.7 0.5 1.6 0.8 2.5 0.7z"/><path class="g" d="m159.8 312.5l36-3.2c1-0.1 1.8-0.5 2.4-1.2l-22-14.6-18.9 18.3c0.7 0.5 1.6 0.8 2.5 0.7z"/><path class="e" d="m176.7 298.7l18.3-17.8q-0.8-0.4-1.9-0.3l-36 3.2c-0.7 0-1.3 0.3-1.8 0.6z"/><path class="h" d="m176.7 298.7l18.3-17.8q-0.8-0.4-1.9-0.3l-36 3.2c-0.7 0-1.3 0.3-1.8 0.6z"/><path class="e" d="m181.1 303.6c10.1 2.2 20.6 2.7 30.7 4.9 1.7 0.3 2.8 2.1 2.3 3.7q-2.4 8.9-4.8 17.9c-0.5 1.6-2.2 2.6-3.9 2.3-10.1-2.2-20.7-2.8-30.8-4.9-1.7-0.4-2.7-2.1-2.3-3.8q2.5-8.9 4.9-17.8c0.4-1.7 2.2-2.7 3.9-2.3z"/><path class="u" d="m181.1 303.6c10.1 2.2 20.6 2.7 30.7 4.9 1.7 0.3 2.8 2.1 2.3 3.7q-2.4 8.9-4.8 17.9c-0.5 1.6-2.2 2.6-3.9 2.3-10.1-2.2-20.7-2.8-30.8-4.9-1.7-0.4-2.7-2.1-2.3-3.8q2.5-8.9 4.9-17.8c0.4-1.7 2.2-2.7 3.9-2.3z"/><path class="e" d="m174.6 327.5c10.1 2.1 20.7 2.7 30.8 4.9 0.7 0.1 1.5 0 2.2-0.3-4.5-6-9.1-11.3-13.7-16.7-7.1 3.8-14.2 7.7-21.1 10.9 0.4 0.6 1.1 1 1.8 1.2z"/><path class="f" d="m174.6 327.5c10.1 2.1 20.7 2.7 30.8 4.9 0.7 0.1 1.5 0 2.2-0.3-4.5-6-9.1-11.3-13.7-16.7-7.1 3.8-14.2 7.7-21.1 10.9 0.4 0.6 1.1 1 1.8 1.2z"/><path class="e" d="m192.7 319.8c6.9-3.7 13.8-7.4 20.6-10.6q-0.6-0.5-1.5-0.7c-10.1-2.2-20.6-2.7-30.7-4.9q-0.9-0.2-1.7 0c4.3 5.8 8.8 11 13.3 16.2z"/><path class="e" d="m116.7 332.5c-3.6 9.1-6.6 18.2-9 27.3 12.1-8.6 24.8-16.3 38.2-22.8-9.4-2-19.2-3.6-29.2-4.5z"/><path class="e" d="m108.7 357.6c11-7.8 22.6-14.7 34.8-20.7 2-1.1 4.5-0.4 5.4 1.4q4.9 9.6 9.8 19.3c0.9 1.8 0.1 4-1.7 4.9-10.7 5.4-21 11.5-30.8 18.4-1.6 1.2-4 0.9-5.2-0.7q-6.7-8.6-13.4-17.2c-1.3-1.6-0.8-4 1.1-5.4z"/><path class="f" d="m108.7 357.6c11-7.8 22.6-14.7 34.8-20.7 2-1.1 4.5-0.4 5.4 1.4q4.9 9.6 9.8 19.3c0.9 1.8 0.1 4-1.7 4.9-10.7 5.4-21 11.5-30.8 18.4-1.6 1.2-4 0.9-5.2-0.7q-6.7-8.6-13.4-17.2c-1.3-1.6-0.8-4 1.1-5.4z"/><path class="e" d="m126.2 380.9c9.8-6.9 20.1-13 30.8-18.4 0.8-0.4 1.4-1.1 1.8-1.9-8.7-1.9-17.7-3.4-27-4.3-3.3 8.4-6 16.9-8.1 25.3 0.8 0.1 1.7-0.1 2.5-0.7z"/><path class="g" d="m126.2 380.9c9.8-6.9 20.1-13 30.8-18.4 0.8-0.4 1.4-1.1 1.8-1.9-8.7-1.9-17.7-3.4-27-4.3-3.3 8.4-6 16.9-8.1 25.3 0.8 0.1 1.7-0.1 2.5-0.7z"/><path class="e" d="m134.6 360.7c3.1-8.1 6.8-16.3 11-24.3-0.7 0-1.5 0.1-2.1 0.5-12.2 6-23.8 12.9-34.8 20.7-0.6 0.5-1.1 1.1-1.4 1.7 9.3-0.1 18.5 0.4 27.3 1.4z"/><path class="h" d="m134.6 360.7c3.1-8.1 6.8-16.3 11-24.3-0.7 0-1.5 0.1-2.1 0.5-12.2 6-23.8 12.9-34.8 20.7-0.6 0.5-1.1 1.1-1.4 1.7 9.3-0.1 18.5 0.4 27.3 1.4z"/><path class="e" d="m219.3 304.5l35.7 5.4c2 0.3 3.4 2.1 3.1 4.1l-3.4 21.3c-0.3 2-2.2 3.3-4.2 3l-35.8-5.3c-2-0.4-3.4-2.2-3.1-4.2l3.4-21.3c0.3-2 2.3-3.3 4.3-3z"/><path class="u" d="m219.3 304.5l35.7 5.4c2 0.3 3.4 2.1 3.1 4.1l-3.4 21.3c-0.3 2-2.2 3.3-4.2 3l-35.8-5.3c-2-0.4-3.4-2.2-3.1-4.2l3.4-21.3c0.3-2 2.3-3.3 4.3-3z"/><path class="e" d="m214.7 333l35.8 5.3c0.9 0.2 1.8 0 2.5-0.5l-17.6-19.4-22.9 13.3c0.5 0.7 1.3 1.1 2.2 1.3z"/><path class="f" d="m214.7 333l35.8 5.3c0.9 0.2 1.8 0 2.5-0.5l-17.6-19.4-22.9 13.3c0.5 0.7 1.3 1.1 2.2 1.3z"/><path class="e" d="m234.5 323.6l22.3-13q-0.8-0.6-1.8-0.7l-35.7-5.4c-0.7-0.1-1.4 0-2 0.2z"/><path class="c" d="m235.3 324.1l-26.4-1.5 2-33.5 26.5 1.5z"/><path class="v" d="m234.7 297.7l-22-1.3 0.1-1.6 22 1.2z"/><path class="v" d="m225.6 302.4l-13.2-0.8 0.1-1.7 13.2 0.8z"/><path class="v" d="m232.4 302.8l-4.3-0.3 0.1-1.7 4.3 0.3z"/><path class="v" d="m234.1 308l-22-1.2 0.1-1.7 22 1.3z"/><path class="v" d="m228.9 312.9l-17.2-0.9 0.1-1.7 17.2 1z"/><path class="v" d="m233.5 318.4l-13-0.7 0.1-1.7 13 0.7z"/><path class="v" d="m211.4 317.1l7 0.4 0.1-1.6-7-0.4z"/><path class="c" d="m180.1 298.5l-19.4 5.5-13.9-22.5 19.5-5.4z"/><path class="v" d="m167.7 281.4l-16.3 4.5-0.6-1.1 16.2-4.5z"/><path class="v" d="m163.4 286.7l-9.8 2.7-0.7-1.1 9.8-2.8z"/><path class="v" d="m168.4 285.3l-3.3 0.9-0.6-1.2 3.2-0.8z"/><path class="v" d="m172 288.3l-16.3 4.5-0.7-1.1 16.3-4.5z"/><path class="v" d="m170.5 292.8l-12.7 3.5-0.7-1.1 12.7-3.5z"/><path class="v" d="m176.2 295.2l-9.5 2.7-0.7-1.1 9.5-2.7z"/><path class="v" d="m160 299.8l5.1-1.5-0.7-1.1-5.1 1.4z"/><path class="e" d="m251.4 274.7l-12.2 19.1 32.9-8.8z"/><path class="e" d="m240.4 292.4l29.9-8c1.7-0.5 3.4 0.5 3.9 2.1l5.1 17.8c0.5 1.7-0.5 3.4-2.2 3.9l-29.9 8c-1.7 0.5-3.4-0.5-3.9-2.2l-5.1-17.8c-0.5-1.6 0.5-3.3 2.2-3.8z"/><path class="f" d="m240.4 292.4l29.9-8c1.7-0.5 3.4 0.5 3.9 2.1l5.1 17.8c0.5 1.7-0.5 3.4-2.2 3.9l-29.9 8c-1.7 0.5-3.4-0.5-3.9-2.2l-5.1-17.8c-0.5-1.6 0.5-3.3 2.2-3.8z"/><path class="e" d="m247.2 316.2l29.9-8c0.7-0.2 1.4-0.7 1.8-1.3l-20.9-9.1-13 18.2c0.7 0.3 1.4 0.4 2.2 0.2z"/><path class="g" d="m247.2 316.2l29.9-8c0.7-0.2 1.4-0.7 1.8-1.3l-20.9-9.1-13 18.2c0.7 0.3 1.4 0.4 2.2 0.2z"/><path class="e" d="m259.3 302.1l12.7-17.7q-0.9-0.2-1.7 0l-29.9 8q-0.8 0.3-1.4 0.8z"/><path class="h" d="m259.3 302.1l12.7-17.7q-0.9-0.2-1.7 0l-29.9 8q-0.8 0.3-1.4 0.8z"/><path class="e" d="m249.8 310.9c11.9-1.9 23.6-5.7 35.5-7.6 2-0.3 3.9 1.1 4.1 3.1q1.4 10.7 2.7 21.4c0.2 2-1.2 3.8-3.2 4.1-12 1.9-23.6 5.7-35.5 7.6-2.1 0.3-3.9-1.1-4.2-3.1q-1.3-10.7-2.7-21.4c-0.2-2 1.3-3.8 3.3-4.1z"/><path class="u" d="m249.8 310.9c11.9-1.9 23.6-5.7 35.5-7.6 2-0.3 3.9 1.1 4.1 3.1q1.4 10.7 2.7 21.4c0.2 2-1.2 3.8-3.2 4.1-12 1.9-23.6 5.7-35.5 7.6-2.1 0.3-3.9-1.1-4.2-3.1q-1.3-10.7-2.7-21.4c-0.2-2 1.3-3.8 3.3-4.1z"/><path class="e" d="m253.4 339.5c11.9-1.9 23.5-5.7 35.5-7.6 0.9-0.1 1.7-0.6 2.3-1.2-7.5-4.6-14.9-8.5-22.3-12.3-6 7.1-12 14.2-18.1 20.5 0.8 0.5 1.6 0.7 2.6 0.6z"/><path class="f" d="m253.4 339.5c11.9-1.9 23.5-5.7 35.5-7.6 0.9-0.1 1.7-0.6 2.3-1.2-7.5-4.6-14.9-8.5-22.3-12.3-6 7.1-12 14.2-18.1 20.5 0.8 0.5 1.6 0.7 2.6 0.6z"/><path class="e" d="m269.6 323.6c5.8-6.9 11.7-13.8 17.6-20q-0.9-0.4-1.9-0.3c-11.9 1.9-23.6 5.7-35.5 7.6-0.7 0.1-1.3 0.3-1.8 0.7 7.2 4.5 14.4 8.2 21.6 12z"/><path class="c" d="m284.2 298.4q12.5 4.6 25.1 9.1c8.1-9.1 4.2-22.7 12.3-31.9q-12.6-4.6-25.1-9.1c-8.2 9.1-4.2 22.7-12.3 31.9z"/><path class="v" d="m290.1 292.7q10.5 3.8 21 7.6-0.3 0.8-0.7 1.6-10.5-3.8-21-7.7 0.4-0.7 0.7-1.5z"/><path class="v" d="m299.9 290.6q6.3 2.3 12.6 4.6-0.2 0.9-0.4 1.7-6.3-2.3-12.6-4.6 0.2-0.8 0.4-1.7z"/><path class="v" d="m293.5 288.3q2 0.7 4.1 1.5-0.2 0.8-0.4 1.7-2.1-0.8-4.1-1.6 0.2-0.8 0.4-1.6z"/><path class="v" d="m292.6 282.3q10.5 3.9 20.9 7.7-0.1 0.8-0.3 1.7-10.5-3.8-21-7.7 0.2-0.8 0.4-1.7z"/><path class="v" d="m298.3 278.8q8.2 3 16.4 6-0.3 0.8-0.4 1.6-8.2-2.9-16.4-5.9 0.2-0.9 0.4-1.7z"/><path class="v" d="m295.4 272.1q6.2 2.3 12.3 4.5-0.3 0.8-0.6 1.6-6.2-2.2-12.4-4.5 0.3-0.8 0.7-1.6z"/><path class="v" d="m316.4 279.8q-3.3-1.2-6.6-2.4-0.4 0.8-0.7 1.5 3.3 1.2 6.6 2.4 0.3-0.8 0.7-1.5z"/><path class="e" d="m312.9 291.9c-9.1 4.2-17.8 8.8-25.9 13.9 14.8 1.7 29.5 4.7 43.8 8.9-5.4-7.8-11.4-15.4-17.9-22.8z"/><path class="e" d="m289.2 304.8c13.5 1.7 26.9 4.4 40 8.2 2.2 0.6 3.5 2.7 2.9 4.6q-3.3 10.3-6.6 20.6c-0.6 1.9-2.7 3-4.7 2.4-11.6-3.3-23.4-5.7-35.4-7.2-2-0.2-3.5-2-3.3-4q1.3-10.7 2.5-21.5c0.2-1.9 2.3-3.4 4.6-3.1z"/><path class="f" d="m289.2 304.8c13.5 1.7 26.9 4.4 40 8.2 2.2 0.6 3.5 2.7 2.9 4.6q-3.3 10.3-6.6 20.6c-0.6 1.9-2.7 3-4.7 2.4-11.6-3.3-23.4-5.7-35.4-7.2-2-0.2-3.5-2-3.3-4q1.3-10.7 2.5-21.5c0.2-1.9 2.3-3.4 4.6-3.1z"/><path class="e" d="m285.4 333.4c12 1.5 23.8 3.9 35.4 7.2 0.9 0.3 1.9 0.2 2.7-0.2-5-7.2-10.5-14.3-16.5-21.2-8.4 4-16.4 8.3-23.9 13 0.6 0.7 1.4 1.1 2.3 1.2z"/><path class="g" d="m285.4 333.4c12 1.5 23.8 3.9 35.4 7.2 0.9 0.3 1.9 0.2 2.7-0.2-5-7.2-10.5-14.3-16.5-21.2-8.4 4-16.4 8.3-23.9 13 0.6 0.7 1.4 1.1 2.3 1.2z"/><path class="e" d="m305.9 324.4c8-3.9 16.4-7.3 25.2-10.4-0.5-0.5-1.2-0.8-1.9-1-13.1-3.8-26.5-6.5-40-8.2-0.7-0.1-1.5 0-2.1 0.3 6.7 6.2 13 12.6 18.8 19.3z"/><path class="h" d="m305.9 324.4c8-3.9 16.4-7.3 25.2-10.4-0.5-0.5-1.2-0.8-1.9-1-13.1-3.8-26.5-6.5-40-8.2-0.7-0.1-1.5 0-2.1 0.3 6.7 6.2 13 12.6 18.8 19.3z"/><path class="e" d="m175.2 236.4q-5.3 9.3-9.3 18.8c9.5-5.1 19.5-9.3 29.8-12.6q-9.8-3.7-20.5-6.2z"/><path class="e" d="m166.8 253.7c8.7-4.5 17.8-8.4 27.2-11.5 1.6-0.5 3.3 0.2 3.7 1.6q2.5 7.4 5.1 14.9c0.4 1.3-0.4 2.8-1.8 3.3-8.3 2.8-16.3 6.2-24.1 10.2-1.3 0.7-3 0.2-3.7-1.1q-3.9-6.8-7.8-13.7c-0.7-1.2-0.1-2.9 1.4-3.7z"/><path class="f" d="m166.8 253.7c8.7-4.5 17.8-8.4 27.2-11.5 1.6-0.5 3.3 0.2 3.7 1.6q2.5 7.4 5.1 14.9c0.4 1.3-0.4 2.8-1.8 3.3-8.3 2.8-16.3 6.2-24.1 10.2-1.3 0.7-3 0.2-3.7-1.1q-3.9-6.8-7.8-13.7c-0.7-1.2-0.1-2.9 1.4-3.7z"/><path class="e" d="m176.9 272.2c7.8-4 15.8-7.4 24.1-10.2 0.7-0.2 1.2-0.6 1.5-1.2q-9.1-3.4-18.9-5.8-5 8.7-8.6 17.4c0.6 0.2 1.3 0.1 1.9-0.2z"/><path class="g" d="m176.9 272.2c7.8-4 15.8-7.4 24.1-10.2 0.7-0.2 1.2-0.6 1.5-1.2q-9.1-3.4-18.9-5.8-5 8.7-8.6 17.4c0.6 0.2 1.3 0.1 1.9-0.2z"/><path class="e" d="m185.1 258.5q4.6-8.3 10.5-16.4-0.8-0.2-1.6 0.1c-9.4 3.1-18.5 7-27.2 11.5q-0.8 0.4-1.2 1 10.1 1.4 19.5 3.8z"/><path class="h" d="m185.1 258.5q4.6-8.3 10.5-16.4-0.8-0.2-1.6 0.1c-9.4 3.1-18.5 7-27.2 11.5q-0.8 0.4-1.2 1 10.1 1.4 19.5 3.8z"/><path class="e" d="m402 271.4q-1.8-0.6-3.6-1.2l0.3-0.9q1.8 0.7 3.6 1.3z"/><path class="e" d="m395.6 269.3c-2.7-0.9-5.6-1.6-8.4-2.3l0.3-0.9c2.8 0.7 5.6 1.5 8.4 2.3z"/><path class="e" d="m386.7 269.1q-3.8 6.6-6.6 13.3c6.8-3.5 13.8-6.5 21.1-8.9q-7-2.6-14.5-4.4z"/><path class="e" d="m380.8 281.4c6.1-3.2 12.6-5.9 19.2-8.1 1.1-0.4 2.3 0.1 2.6 1.1q1.8 5.2 3.6 10.5c0.3 0.9-0.3 2-1.3 2.3q-8.8 3-17 7.2c-0.9 0.5-2.1 0.2-2.6-0.7q-2.8-4.9-5.5-9.7c-0.5-0.9-0.1-2.1 1-2.6z"/><path class="f" d="m380.8 281.4c6.1-3.2 12.6-5.9 19.2-8.1 1.1-0.4 2.3 0.1 2.6 1.1q1.8 5.2 3.6 10.5c0.3 0.9-0.3 2-1.3 2.3q-8.8 3-17 7.2c-0.9 0.5-2.1 0.2-2.6-0.7q-2.8-4.9-5.5-9.7c-0.5-0.9-0.1-2.1 1-2.6z"/><path class="e" d="m387.9 294.4q8.2-4.2 17-7.2c0.5-0.1 0.8-0.4 1.1-0.8q-6.4-2.4-13.4-4.1-3.5 6.1-6 12.3c0.4 0.1 0.9 0 1.3-0.2z"/><path class="g" d="m387.9 294.4q8.2-4.2 17-7.2c0.5-0.1 0.8-0.4 1.1-0.8q-6.4-2.4-13.4-4.1-3.5 6.1-6 12.3c0.4 0.1 0.9 0 1.3-0.2z"/><path class="e" d="m393.7 284.8q3.3-5.9 7.4-11.6-0.6-0.1-1.1 0.1-10 3.3-19.2 8.1-0.6 0.2-0.9 0.7 7.1 1 13.8 2.7z"/><path class="h" d="m393.7 284.8q3.3-5.9 7.4-11.6-0.6-0.1-1.1 0.1-10 3.3-19.2 8.1-0.6 0.2-0.9 0.7 7.1 1 13.8 2.7z"/><path class="e" d="m338.6 259.6l13.9 10.4-30.4-1.9z"/><path class="e" d="m351.2 269.3l-27.5-1.7c-1.6-0.1-3 0.7-3.1 1.7l-1.6 11.6c-0.1 1 1 2 2.6 2.1l27.5 1.7c1.6 0.1 3-0.7 3.1-1.7l1.6-11.6c0.1-1-1.1-2-2.6-2.1z"/><path class="f" d="m351.2 269.3l-27.5-1.7c-1.6-0.1-3 0.7-3.1 1.7l-1.6 11.6c-0.1 1 1 2 2.6 2.1l27.5 1.7c1.6 0.1 3-0.7 3.1-1.7l1.6-11.6c0.1-1-1.1-2-2.6-2.1z"/><path class="e" d="m349.1 284.7l-27.5-1.7c-0.7-0.1-1.4-0.3-1.8-0.6l16.8-7.9 14.4 9.8c-0.5 0.3-1.2 0.5-1.9 0.4z"/><path class="g" d="m349.1 284.7l-27.5-1.7c-0.7-0.1-1.4-0.3-1.8-0.6l16.8-7.9 14.4 9.8c-0.5 0.3-1.2 0.5-1.9 0.4z"/><path class="e" d="m336.2 277.3l-14-9.6q0.7-0.2 1.5-0.1l27.5 1.7q0.8 0.1 1.4 0.4z"/><path class="h" d="m336.2 277.3l-14-9.6q0.7-0.2 1.5-0.1l27.5 1.7q0.8 0.1 1.4 0.4z"/><path class="e" d="m283.1 286.5c-8.5 4.9-16.6 10.3-24.1 15.9 14.7 0.4 29.4 2.1 43.9 4.9-6-7.1-12.6-14.1-19.8-20.8z"/><path class="e" d="m261.1 301.3c13.4 0.5 26.8 2 40 4.5 2.2 0.4 3.7 2.4 3.3 4.3q-2.3 10.4-4.5 20.8c-0.5 1.9-2.4 3.2-4.4 2.8-11.7-2.2-23.6-3.6-35.5-4-2-0.1-3.6-1.7-3.6-3.7q0.3-10.6 0.5-21.2c0-2 1.9-3.6 4.2-3.5z"/><path class="f" d="m261.1 301.3c13.4 0.5 26.8 2 40 4.5 2.2 0.4 3.7 2.4 3.3 4.3q-2.3 10.4-4.5 20.8c-0.5 1.9-2.4 3.2-4.4 2.8-11.7-2.2-23.6-3.6-35.5-4-2-0.1-3.6-1.7-3.6-3.7q0.3-10.6 0.5-21.2c0-2 1.9-3.6 4.2-3.5z"/><path class="e" d="m260 329.7c11.9 0.4 23.8 1.8 35.5 4 0.9 0.2 1.8 0 2.5-0.4-5.5-6.7-11.5-13.2-18.1-19.4-7.9 4.6-15.3 9.6-22.3 14.9 0.7 0.5 1.5 0.9 2.4 0.9z"/><path class="g" d="m260 329.7c11.9 0.4 23.8 1.8 35.5 4 0.9 0.2 1.8 0 2.5-0.4-5.5-6.7-11.5-13.2-18.1-19.4-7.9 4.6-15.3 9.6-22.3 14.9 0.7 0.5 1.5 0.9 2.4 0.9z"/><path class="e" d="m279.3 319.1q11.2-6.8 23.8-12.4c-0.6-0.5-1.3-0.8-2-0.9-13.2-2.5-26.6-4-40-4.5-0.8 0-1.5 0.1-2.1 0.4q10.9 8.3 20.3 17.4z"/><path class="h" d="m279.3 319.1q11.2-6.8 23.8-12.4c-0.6-0.5-1.3-0.8-2-0.9-13.2-2.5-26.6-4-40-4.5-0.8 0-1.5 0.1-2.1 0.4q10.9 8.3 20.3 17.4z"/><path class="e" d="m389.7 372.3l-30.7-18.5c-1.7-1-4-0.5-5.1 1.2l-11.7 18.3c-1.1 1.7-0.5 4 1.2 5l30.7 18.5c1.8 1 4.1 0.5 5.2-1.2l11.7-18.3c1-1.7 0.5-3.9-1.3-5z"/><path class="u" d="m389.7 372.3l-30.7-18.5c-1.7-1-4-0.5-5.1 1.2l-11.7 18.3c-1.1 1.7-0.5 4 1.2 5l30.7 18.5c1.8 1 4.1 0.5 5.2-1.2l11.7-18.3c1-1.7 0.5-3.9-1.3-5z"/><path class="e" d="m374.1 396.8l-30.7-18.5c-0.8-0.5-1.3-1.2-1.6-2l26.4-3.6 8.5 24.6c-0.9 0.1-1.8 0-2.6-0.5z"/><path class="f" d="m374.1 396.8l-30.7-18.5c-0.8-0.5-1.3-1.2-1.6-2l26.4-3.6 8.5 24.6c-0.9 0.1-1.8 0-2.6-0.5z"/><path class="e" d="m365.4 377.2l-8.2-23.9q1 0 1.8 0.5l30.7 18.5c0.6 0.4 1.1 0.9 1.4 1.4z"/><path class="e" d="m335.3 320.9l-25.9-15.6c-1.4-0.8-3.4-0.4-4.3 1l-9.8 15.4c-1 1.5-0.5 3.4 1 4.2l25.8 15.6c1.5 0.9 3.4 0.4 4.3-1l9.9-15.4c0.9-1.4 0.4-3.3-1-4.2z"/><path class="u" d="m335.3 320.9l-25.9-15.6c-1.4-0.8-3.4-0.4-4.3 1l-9.8 15.4c-1 1.5-0.5 3.4 1 4.2l25.8 15.6c1.5 0.9 3.4 0.4 4.3-1l9.9-15.4c0.9-1.4 0.4-3.3-1-4.2z"/><path class="e" d="m322.1 341.5l-25.8-15.6c-0.7-0.4-1.2-1-1.4-1.7l22.3-3 7.1 20.7c-0.7 0.1-1.5 0-2.2-0.4z"/><path class="f" d="m322.1 341.5l-25.8-15.6c-0.7-0.4-1.2-1-1.4-1.7l22.3-3 7.1 20.7c-0.7 0.1-1.5 0-2.2-0.4z"/><path class="e" d="m314.8 325l-7-20.1q0.9 0 1.6 0.4l25.9 15.6q0.7 0.5 1.1 1.2z"/><path class="e" d="m387.3 346.5l-18.4 4.7c-1.1 0.3-1.7 1.3-1.4 2.3l2.9 11c0.3 1.1 1.4 1.7 2.4 1.4l18.5-4.7c1-0.3 1.7-1.3 1.4-2.3l-3-11c-0.3-1.1-1.4-1.7-2.4-1.4z"/><path class="u" d="m387.3 346.5l-18.4 4.7c-1.1 0.3-1.7 1.3-1.4 2.3l2.9 11c0.3 1.1 1.4 1.7 2.4 1.4l18.5-4.7c1-0.3 1.7-1.3 1.4-2.3l-3-11c-0.3-1.1-1.4-1.7-2.4-1.4z"/><path class="e" d="m391.3 361.2l-18.5 4.7c-0.4 0.1-0.9 0.1-1.3-0.1l8.2-11.2 12.7 5.8c-0.2 0.4-0.6 0.7-1.1 0.8z"/><path class="f" d="m391.3 361.2l-18.5 4.7c-0.4 0.1-0.9 0.1-1.3-0.1l8.2-11.2 12.7 5.8c-0.2 0.4-0.6 0.7-1.1 0.8z"/><path class="e" d="m380.4 357.3l-12.4-5.6q0.3-0.3 0.9-0.5l18.4-4.7q0.5-0.1 1 0z"/><path class="e" d="m187.1 353.6l-30.4-4.5c-1.7-0.2-3.3 0.9-3.6 2.6l-2.8 18.1c-0.3 1.7 0.9 3.3 2.6 3.6l30.4 4.5c1.7 0.2 3.4-0.9 3.6-2.6l2.9-18.1c0.2-1.7-1-3.3-2.7-3.6z"/><path class="u" d="m187.1 353.6l-30.4-4.5c-1.7-0.2-3.3 0.9-3.6 2.6l-2.8 18.1c-0.3 1.7 0.9 3.3 2.6 3.6l30.4 4.5c1.7 0.2 3.4-0.9 3.6-2.6l2.9-18.1c0.2-1.7-1-3.3-2.7-3.6z"/><path class="e" d="m183.3 377.9l-30.4-4.5c-0.8-0.2-1.5-0.6-1.9-1.1l19.4-11.4 15.1 16.5c-0.6 0.4-1.4 0.6-2.2 0.5z"/><path class="f" d="m183.3 377.9l-30.4-4.5c-0.8-0.2-1.5-0.6-1.9-1.1l19.4-11.4 15.1 16.5c-0.6 0.4-1.4 0.6-2.2 0.5z"/><path class="e" d="m169.7 365.3l-14.6-16q0.7-0.3 1.6-0.2l30.4 4.5q0.9 0.2 1.5 0.7z"/><path class="e" d="m346.4 350.1c-12.4 2.7-25.4 3.4-37.8 6.1-2.1 0.4-3.3 2.5-2.8 4.5q3 11 6 22c0.5 2 2.7 3.3 4.8 2.8 12.4-2.7 25.3-3.3 37.7-6 2.1-0.5 3.4-2.6 2.8-4.6q-2.9-11-5.9-22c-0.5-2-2.7-3.2-4.8-2.8z"/><path class="u" d="m346.4 350.1c-12.4 2.7-25.4 3.4-37.8 6.1-2.1 0.4-3.3 2.5-2.8 4.5q3 11 6 22c0.5 2 2.7 3.3 4.8 2.8 12.4-2.7 25.3-3.3 37.7-6 2.1-0.5 3.4-2.6 2.8-4.6q-2.9-11-5.9-22c-0.5-2-2.7-3.2-4.8-2.8z"/><path class="e" d="m354.3 379.5c-12.4 2.7-25.3 3.3-37.7 6-1 0.2-2 0.1-2.8-0.3 5.5-7.3 11.2-13.9 16.8-20.5 8.8 4.7 17.5 9.4 26 13.3-0.5 0.7-1.3 1.3-2.3 1.5z"/><path class="f" d="m354.3 379.5c-12.4 2.7-25.3 3.3-37.7 6-1 0.2-2 0.1-2.8-0.3 5.5-7.3 11.2-13.9 16.8-20.5 8.8 4.7 17.5 9.4 26 13.3-0.5 0.7-1.3 1.3-2.3 1.5z"/><path class="e" d="m332.1 370.1c-8.5-4.6-17-9.1-25.3-13 0.5-0.5 1.1-0.8 1.8-1 12.4-2.6 25.4-3.3 37.8-6 0.7-0.1 1.4-0.1 2.1 0.1-5.4 7.1-10.9 13.5-16.4 19.9z"/><path class="e" d="m281.8 322.5c8.7 5 16.8 10.4 24.5 16.1-15 0.4-29.9 2.1-44.5 5 6.1-7.3 12.8-14.4 20-21.1z"/><path class="e" d="m304.1 337.4c-13.6 0.5-27.1 2-40.5 4.6-2.3 0.4-3.8 2.4-3.3 4.3q2.3 10.6 4.6 21.1c0.4 2 2.4 3.2 4.4 2.8 11.8-2.2 23.8-3.6 35.9-4 2-0.1 3.7-1.7 3.6-3.7q-0.2-10.8-0.4-21.6c0-1.9-2-3.5-4.3-3.5z"/><path class="f" d="m304.1 337.4c-13.6 0.5-27.1 2-40.5 4.6-2.3 0.4-3.8 2.4-3.3 4.3q2.3 10.6 4.6 21.1c0.4 2 2.4 3.2 4.4 2.8 11.8-2.2 23.8-3.6 35.9-4 2-0.1 3.7-1.7 3.6-3.7q-0.2-10.8-0.4-21.6c0-1.9-2-3.5-4.3-3.5z"/><path class="e" d="m305.2 366.2c-12.1 0.4-24.1 1.8-35.9 4-0.9 0.2-1.8 0-2.6-0.4 5.6-6.7 11.7-13.3 18.4-19.6 8 4.7 15.5 9.7 22.5 15-0.6 0.6-1.5 1-2.4 1z"/><path class="g" d="m305.2 366.2c-12.1 0.4-24.1 1.8-35.9 4-0.9 0.2-1.8 0-2.6-0.4 5.6-6.7 11.7-13.3 18.4-19.6 8 4.7 15.5 9.7 22.5 15-0.6 0.6-1.5 1-2.4 1z"/><path class="e" d="m285.7 355.4c-7.6-4.5-15.6-8.7-24.1-12.5 0.6-0.5 1.2-0.8 2-0.9 13.4-2.6 26.9-4.1 40.5-4.6 0.8 0 1.5 0.2 2.2 0.5-7.4 5.5-14.2 11.4-20.6 17.5z"/><path class="h" d="m285.7 355.4c-7.6-4.5-15.6-8.7-24.1-12.5 0.6-0.5 1.2-0.8 2-0.9 13.4-2.6 26.9-4.1 40.5-4.6 0.8 0 1.5 0.2 2.2 0.5-7.4 5.5-14.2 11.4-20.6 17.5z"/><path class="e" d="m293.9 345.2l-35.7 5.4c-2 0.3-3.4 2.2-3.1 4.1l3.4 21.3c0.3 2 2.2 3.3 4.2 3l35.7-5.3c2.1-0.3 3.5-2.2 3.2-4.2l-3.4-21.3c-0.4-1.9-2.3-3.3-4.3-3z"/><path class="u" d="m293.9 345.2l-35.7 5.4c-2 0.3-3.4 2.2-3.1 4.1l3.4 21.3c0.3 2 2.2 3.3 4.2 3l35.7-5.3c2.1-0.3 3.5-2.2 3.2-4.2l-3.4-21.3c-0.4-1.9-2.3-3.3-4.3-3z"/><path class="e" d="m298.4 373.7l-35.7 5.3c-0.9 0.2-1.8 0-2.5-0.5l17.6-19.4 22.9 13.3c-0.5 0.7-1.3 1.1-2.3 1.3z"/><path class="f" d="m298.4 373.7l-35.7 5.3c-0.9 0.2-1.8 0-2.5-0.5l17.6-19.4 22.9 13.3c-0.5 0.7-1.3 1.1-2.3 1.3z"/><path class="e" d="m278.7 364.3l-22.3-12.9q0.8-0.6 1.8-0.8l35.7-5.4c0.7-0.1 1.3 0 1.9 0.2z"/><path class="c" d="m304.2 389l-30.9-9.4 12.6-39.2 30.8 9.4z"/><path class="v" d="m311.5 357.5l-25.8-7.8 0.6-1.9 25.8 7.8z"/><path class="v" d="m299.3 360.4l-15.5-4.7 0.6-1.9 15.5 4.7z"/><path class="v" d="m307.2 362.8l-5.1-1.5 0.6-2 5.1 1.6z"/><path class="v" d="m307.6 369.6l-25.8-7.8 0.6-2 25.8 7.8z"/><path class="v" d="m299.9 373.9l-20-6.1 0.6-1.9 20.1 6.1z"/><path class="v" d="m303.7 381.7l-15.1-4.6 0.6-2 15.1 4.6z"/><path class="v" d="m277.9 373.9l8.2 2.4 0.6-1.9-8.1-2.5z"/><path class="e" d="m261.8 315.4l12.2 19.2-32.9-8.9z"/><path class="e" d="m272.8 333.2l-29.9-8.1c-1.6-0.4-3.4 0.5-3.9 2.2l-5.1 17.8c-0.4 1.6 0.6 3.3 2.3 3.8l29.8 8c1.7 0.5 3.4-0.5 3.9-2.1l5.1-17.8c0.5-1.7-0.5-3.4-2.2-3.8z"/><path class="f" d="m272.8 333.2l-29.9-8.1c-1.6-0.4-3.4 0.5-3.9 2.2l-5.1 17.8c-0.4 1.6 0.6 3.3 2.3 3.8l29.8 8c1.7 0.5 3.4-0.5 3.9-2.1l5.1-17.8c0.5-1.7-0.5-3.4-2.2-3.8z"/><path class="e" d="m266 356.9l-29.8-8c-0.8-0.2-1.4-0.7-1.8-1.3l20.8-9.1 13 18.2c-0.6 0.4-1.4 0.4-2.2 0.2z"/><path class="g" d="m266 356.9l-29.8-8c-0.8-0.2-1.4-0.7-1.8-1.3l20.8-9.1 13 18.2c-0.6 0.4-1.4 0.4-2.2 0.2z"/><path class="e" d="m254 342.8l-12.7-17.7q0.8-0.2 1.6 0l29.9 8.1q0.8 0.2 1.4 0.8z"/><path class="h" d="m254 342.8l-12.7-17.7q0.8-0.2 1.6 0l29.9 8.1q0.8 0.2 1.4 0.8z"/><path class="e" d="m263.4 351.6c-11.9-1.9-23.5-5.7-35.4-7.5-2.1-0.3-3.9 1.1-4.2 3.1q-1.3 10.7-2.7 21.4c-0.2 1.9 1.3 3.7 3.3 4.1 11.9 1.8 23.5 5.6 35.4 7.5 2.1 0.3 3.9-1.1 4.2-3.1q1.3-10.7 2.7-21.4c0.2-2-1.3-3.8-3.3-4.1z"/><path class="u" d="m263.4 351.6c-11.9-1.9-23.5-5.7-35.4-7.5-2.1-0.3-3.9 1.1-4.2 3.1q-1.3 10.7-2.7 21.4c-0.2 1.9 1.3 3.7 3.3 4.1 11.9 1.8 23.5 5.6 35.4 7.5 2.1 0.3 3.9-1.1 4.2-3.1q1.3-10.7 2.7-21.4c0.2-2-1.3-3.8-3.3-4.1z"/><path class="e" d="m259.8 380.2c-11.9-1.9-23.5-5.7-35.4-7.5-0.9-0.2-1.7-0.6-2.3-1.3 7.4-4.6 14.8-8.4 22.2-12.3 6 7.1 12 14.2 18.1 20.5-0.7 0.5-1.6 0.7-2.6 0.6z"/><path class="f" d="m259.8 380.2c-11.9-1.9-23.5-5.7-35.4-7.5-0.9-0.2-1.7-0.6-2.3-1.3 7.4-4.6 14.8-8.4 22.2-12.3 6 7.1 12 14.2 18.1 20.5-0.7 0.5-1.6 0.7-2.6 0.6z"/><path class="e" d="m243.6 364.3c-5.8-6.9-11.6-13.8-17.6-20q0.9-0.4 2-0.2c11.9 1.8 23.5 5.6 35.4 7.5 0.7 0.1 1.3 0.4 1.8 0.8-7.2 4.4-14.4 8.1-21.6 11.9z"/><path class="e" d="m151.8 361.6c9.1 4.2 17.8 8.9 25.9 13.9-14.8 1.7-29.5 4.7-43.8 8.9 5.4-7.8 11.4-15.4 17.9-22.8z"/><path class="e" d="m175.5 374.6c-13.5 1.7-26.9 4.4-39.9 8.1-2.3 0.6-3.6 2.7-3 4.6q3.3 10.3 6.6 20.6c0.6 1.9 2.7 3 4.7 2.4 11.6-3.3 23.4-5.7 35.4-7.2 2-0.2 3.5-2 3.3-4q-1.3-10.7-2.5-21.4c-0.3-2-2.3-3.4-4.6-3.1z"/><path class="f" d="m175.5 374.6c-13.5 1.7-26.9 4.4-39.9 8.1-2.3 0.6-3.6 2.7-3 4.6q3.3 10.3 6.6 20.6c0.6 1.9 2.7 3 4.7 2.4 11.6-3.3 23.4-5.7 35.4-7.2 2-0.2 3.5-2 3.3-4q-1.3-10.7-2.5-21.4c-0.3-2-2.3-3.4-4.6-3.1z"/><path class="e" d="m179.3 403.1c-12 1.5-23.8 3.9-35.4 7.2-0.9 0.3-1.8 0.2-2.6-0.2 4.9-7.2 10.4-14.3 16.4-21.1 8.4 3.9 16.4 8.2 23.9 12.9-0.6 0.7-1.4 1.1-2.3 1.2z"/><path class="g" d="m179.3 403.1c-12 1.5-23.8 3.9-35.4 7.2-0.9 0.3-1.8 0.2-2.6-0.2 4.9-7.2 10.4-14.3 16.4-21.1 8.4 3.9 16.4 8.2 23.9 12.9-0.6 0.7-1.4 1.1-2.3 1.2z"/><path class="e" d="m158.9 394.1c-8-3.8-16.5-7.3-25.2-10.3 0.5-0.5 1.1-0.9 1.9-1.1 13-3.7 26.4-6.4 39.9-8.1 0.7-0.1 1.5 0 2.1 0.2q-10.1 9.3-18.7 19.3z"/><path class="h" d="m158.9 394.1c-8-3.8-16.5-7.3-25.2-10.3 0.5-0.5 1.1-0.9 1.9-1.1 13-3.7 26.4-6.4 39.9-8.1 0.7-0.1 1.5 0 2.1 0.2q-10.1 9.3-18.7 19.3z"/><path class="e" d="m101.5 381.2l41.4 2.5c2.3 0.2 4.1 2.1 4 4.4l-1.6 24.7c-0.1 2.3-2.2 4.1-4.5 3.9l-41.4-2.5c-2.4-0.1-4.2-2.1-4-4.4l1.5-24.7c0.2-2.3 2.2-4 4.6-3.9z"/><path class="u" d="m101.5 381.2l41.4 2.5c2.3 0.2 4.1 2.1 4 4.4l-1.6 24.7c-0.1 2.3-2.2 4.1-4.5 3.9l-41.4-2.5c-2.4-0.1-4.2-2.1-4-4.4l1.5-24.7c0.2-2.3 2.2-4 4.6-3.9z"/><path class="e" d="m99.4 414.2l41.4 2.5c1 0.1 2-0.2 2.8-0.8l-22.3-20.4-24.7 17.5c0.7 0.7 1.7 1.2 2.8 1.2z"/><path class="f" d="m99.4 414.2l41.4 2.5c1 0.1 2-0.2 2.8-0.8l-22.3-20.4-24.7 17.5c0.7 0.7 1.7 1.2 2.8 1.2z"/><path class="e" d="m121 401.5l24-17.1c-0.6-0.4-1.3-0.6-2.1-0.7l-41.4-2.5c-0.8 0-1.6 0.1-2.2 0.5z"/><path class="e" d="m235.6 313.8l-36.2 7.8c-1.8 0.4-2.5 2.1-1.5 3.7l9.5 14.8c1 1.6 3.3 2.6 5.1 2.2l36.2-7.8c1.8-0.4 2.5-2 1.5-3.6l-9.5-14.9c-1-1.6-3.3-2.6-5.1-2.2z"/><path class="u" d="m235.6 313.8l-36.2 7.8c-1.8 0.4-2.5 2.1-1.5 3.7l9.5 14.8c1 1.6 3.3 2.6 5.1 2.2l36.2-7.8c1.8-0.4 2.5-2 1.5-3.6l-9.5-14.9c-1-1.6-3.3-2.6-5.1-2.2z"/><path class="e" d="m248.4 334.6l-35.5 7.7c-0.9 0.2-1.9 0.1-2.8-0.2l12.6-16.2 27.6 7.5c-0.3 0.6-1 1-1.9 1.2z"/><path class="f" d="m248.4 334.6l-35.5 7.7c-0.9 0.2-1.9 0.1-2.8-0.2l12.6-16.2 27.6 7.5c-0.3 0.6-1 1-1.9 1.2z"/><path class="e" d="m225.1 329.6l-27-7.3q0.6-0.5 1.7-0.8l35.4-7.6c0.7-0.2 1.4-0.2 2.1-0.1z"/><path class="e" d="m339.7 386.6l38.3-5.7c2.2-0.3 4.2 1.1 4.5 3.2l3.6 22.8c0.4 2.2-1.1 4.1-3.3 4.5l-38.3 5.7c-2.1 0.3-4.2-1.2-4.5-3.3l-3.6-22.8c-0.3-2.1 1.2-4.1 3.3-4.4z"/><path class="u" d="m339.7 386.6l38.3-5.7c2.2-0.3 4.2 1.1 4.5 3.2l3.6 22.8c0.4 2.2-1.1 4.1-3.3 4.5l-38.3 5.7c-2.1 0.3-4.2-1.2-4.5-3.3l-3.6-22.8c-0.3-2.1 1.2-4.1 3.3-4.4z"/><path class="e" d="m344.5 417.1l38.3-5.7c1-0.2 1.8-0.7 2.4-1.4l-24.4-14.3-19 20.8c0.8 0.5 1.7 0.7 2.7 0.6z"/><path class="f" d="m344.5 417.1l38.3-5.7c1-0.2 1.8-0.7 2.4-1.4l-24.4-14.3-19 20.8c0.8 0.5 1.7 0.7 2.7 0.6z"/><path class="e" d="m361.6 401.3l18.5-20.2c-0.7-0.2-1.4-0.3-2.1-0.2l-38.3 5.7c-0.7 0.1-1.3 0.4-1.9 0.8z"/><path class="e" d="m156 342.5l-20.9 22.4 45.6-4z"/><path class="e" d="m137.2 363.4l41.3-3.7c2.3-0.2 4.4 1.4 4.6 3.7l2.3 24.7c0.3 2.2-1.5 4.3-3.8 4.5l-41.3 3.7c-2.4 0.2-4.5-1.5-4.7-3.8l-2.3-24.6c-0.2-2.3 1.5-4.3 3.9-4.5z"/><path class="f" d="m137.2 363.4l41.3-3.7c2.3-0.2 4.4 1.4 4.6 3.7l2.3 24.7c0.3 2.2-1.5 4.3-3.8 4.5l-41.3 3.7c-2.4 0.2-4.5-1.5-4.7-3.8l-2.3-24.6c-0.2-2.3 1.5-4.3 3.9-4.5z"/><path class="e" d="m140.3 396.3l41.3-3.7c1-0.1 2-0.6 2.7-1.3l-25.3-16.8-21.6 21c0.8 0.6 1.8 0.9 2.9 0.8z"/><path class="g" d="m140.3 396.3l41.3-3.7c1-0.1 2-0.6 2.7-1.3l-25.3-16.8-21.6 21c0.8 0.6 1.8 0.9 2.9 0.8z"/><path class="e" d="m159.6 380.5l21.1-20.5c-0.7-0.3-1.5-0.4-2.2-0.3l-41.3 3.7c-0.8 0-1.6 0.3-2.1 0.7z"/><path class="h" d="m159.6 380.5l21.1-20.5c-0.7-0.3-1.5-0.4-2.2-0.3l-41.3 3.7c-0.8 0-1.6 0.3-2.1 0.7z"/><path class="e" d="m170.1 379.8c11.6 2.5 23.6 3.1 35.2 5.6 2 0.4 3.2 2.4 2.7 4.3q-2.8 10.2-5.6 20.5c-0.5 1.9-2.5 3-4.5 2.6-11.6-2.5-23.6-3.1-35.2-5.6-2-0.4-3.2-2.4-2.7-4.3q2.8-10.2 5.6-20.5c0.5-1.9 2.5-3 4.5-2.6z"/><path class="u" d="m170.1 379.8c11.6 2.5 23.6 3.1 35.2 5.6 2 0.4 3.2 2.4 2.7 4.3q-2.8 10.2-5.6 20.5c-0.5 1.9-2.5 3-4.5 2.6-11.6-2.5-23.6-3.1-35.2-5.6-2-0.4-3.2-2.4-2.7-4.3q2.8-10.2 5.6-20.5c0.5-1.9 2.5-3 4.5-2.6z"/><path class="e" d="m162.7 407.2c11.6 2.5 23.6 3.1 35.2 5.6 0.9 0.2 1.8 0.1 2.6-0.3-5.1-6.8-10.4-13-15.7-19.1-8.2 4.4-16.3 8.7-24.2 12.4 0.4 0.7 1.2 1.2 2.1 1.4z"/><path class="f" d="m162.7 407.2c11.6 2.5 23.6 3.1 35.2 5.6 0.9 0.2 1.8 0.1 2.6-0.3-5.1-6.8-10.4-13-15.7-19.1-8.2 4.4-16.3 8.7-24.2 12.4 0.4 0.7 1.2 1.2 2.1 1.4z"/><path class="e" d="m183.4 398.4c7.9-4.3 15.9-8.5 23.6-12.1q-0.7-0.7-1.7-0.9c-11.6-2.5-23.6-3.1-35.2-5.6-0.7-0.2-1.3-0.1-2 0.1 5 6.6 10.2 12.5 15.3 18.5z"/><path class="e" d="m190.1 385.5q-7.5 7.3-13.8 15.1c10.3-2.2 20.7-3.6 31.3-4.1q-8.2-5.9-17.5-11z"/><path class="e" d="m177.5 399.5c9.4-2 18.9-3.2 28.5-3.7 1.7-0.1 3 1 3.1 2.4q0.3 7.6 0.6 15.2c0.1 1.4-1.1 2.6-2.5 2.6-8.5 0.5-17 1.6-25.3 3.3-1.4 0.3-2.8-0.5-3.1-1.9q-1.8-7.4-3.6-14.8c-0.3-1.4 0.7-2.8 2.3-3.1z"/><path class="f" d="m177.5 399.5c9.4-2 18.9-3.2 28.5-3.7 1.7-0.1 3 1 3.1 2.4q0.3 7.6 0.6 15.2c0.1 1.4-1.1 2.6-2.5 2.6-8.5 0.5-17 1.6-25.3 3.3-1.4 0.3-2.8-0.5-3.1-1.9q-1.8-7.4-3.6-14.8c-0.3-1.4 0.7-2.8 2.3-3.1z"/><path class="e" d="m181.9 419.3c8.3-1.7 16.8-2.8 25.3-3.3 0.6 0 1.2-0.3 1.7-0.7q-7.6-5.5-16.1-10.3-6.9 6.8-12.7 14.1c0.5 0.3 1.2 0.4 1.8 0.2z"/><path class="g" d="m181.9 419.3c8.3-1.7 16.8-2.8 25.3-3.3 0.6 0 1.2-0.3 1.7-0.7q-7.6-5.5-16.1-10.3-6.9 6.8-12.7 14.1c0.5 0.3 1.2 0.4 1.8 0.2z"/><path class="e" d="m193.3 408.7q6.6-6.6 14.2-12.7-0.6-0.3-1.5-0.2c-9.6 0.5-19.1 1.7-28.5 3.7q-0.8 0.2-1.4 0.6 9.1 3.9 17.2 8.6z"/><path class="h" d="m193.3 408.7q6.6-6.6 14.2-12.7-0.6-0.3-1.5-0.2c-9.6 0.5-19.1 1.7-28.5 3.7q-0.8 0.2-1.4 0.6 9.1 3.9 17.2 8.6z"/><path class="e" d="m228.8 351.8c-9.9 5.8-19.2 12-28 18.6 17.1 0.4 34.2 2.3 51.1 5.7-7.1-8.4-14.7-16.5-23.1-24.3z"/><path class="e" d="m203.3 369c15.6 0.6 31.1 2.3 46.4 5.3 2.7 0.4 4.4 2.7 3.9 5q-2.6 12.1-5.3 24.2c-0.5 2.2-2.8 3.6-5.1 3.2-13.6-2.6-27.3-4.1-41.2-4.6-2.3-0.1-4.2-2-4.2-4.3q0.3-12.4 0.5-24.7c0.1-2.3 2.3-4.1 5-4.1z"/><path class="f" d="m203.3 369c15.6 0.6 31.1 2.3 46.4 5.3 2.7 0.4 4.4 2.7 3.9 5q-2.6 12.1-5.3 24.2c-0.5 2.2-2.8 3.6-5.1 3.2-13.6-2.6-27.3-4.1-41.2-4.6-2.3-0.1-4.2-2-4.2-4.3q0.3-12.4 0.5-24.7c0.1-2.3 2.3-4.1 5-4.1z"/><path class="e" d="m202 402.1c13.9 0.5 27.6 2 41.2 4.6 1.1 0.2 2.1 0 3-0.5-6.4-7.7-13.5-15.3-21.1-22.5-9.2 5.4-17.8 11.1-25.9 17.3 0.8 0.6 1.7 1.1 2.8 1.1z"/><path class="g" d="m202 402.1c13.9 0.5 27.6 2 41.2 4.6 1.1 0.2 2.1 0 3-0.5-6.4-7.7-13.5-15.3-21.1-22.5-9.2 5.4-17.8 11.1-25.9 17.3 0.8 0.6 1.7 1.1 2.8 1.1z"/><path class="e" d="m224.4 389.7c8.7-5.2 17.9-10.1 27.6-14.4-0.6-0.5-1.4-0.9-2.3-1-15.3-3-30.8-4.7-46.4-5.3-0.9 0-1.8 0.2-2.5 0.5 8.4 6.4 16.3 13.2 23.6 20.2z"/><path class="h" d="m224.4 389.7c8.7-5.2 17.9-10.1 27.6-14.4-0.6-0.5-1.4-0.9-2.3-1-15.3-3-30.8-4.7-46.4-5.3-0.9 0-1.8 0.2-2.5 0.5 8.4 6.4 16.3 13.2 23.6 20.2z"/><path class="e" d="m215 378l41 6.1c2.3 0.4 3.9 2.5 3.5 4.8l-3.9 24.4c-0.3 2.3-2.5 3.9-4.9 3.5l-40.9-6.2c-2.4-0.3-4-2.4-3.6-4.7l3.9-24.5c0.3-2.2 2.5-3.8 4.9-3.4z"/><path class="u" d="m215 378l41 6.1c2.3 0.4 3.9 2.5 3.5 4.8l-3.9 24.4c-0.3 2.3-2.5 3.9-4.9 3.5l-40.9-6.2c-2.4-0.3-4-2.4-3.6-4.7l3.9-24.5c0.3-2.2 2.5-3.8 4.9-3.4z"/><path class="e" d="m209.8 410.6l40.9 6.2c1.1 0.2 2.1-0.1 3-0.6l-20.3-22.3-26.3 15.3c0.7 0.8 1.6 1.3 2.7 1.4z"/><path class="f" d="m209.8 410.6l40.9 6.2c1.1 0.2 2.1-0.1 3-0.6l-20.3-22.3-26.3 15.3c0.7 0.8 1.6 1.3 2.7 1.4z"/><path class="e" d="m232.5 399.9l25.5-14.9c-0.6-0.4-1.3-0.7-2-0.9l-41-6.1c-0.8-0.1-1.6 0-2.3 0.2z"/><path class="e" d="m251.9 343.8l-14.1 22 37.8-10.2z"/><path class="e" d="m239.2 364.1l34.3-9.2c1.9-0.5 4 0.6 4.5 2.5l5.8 20.4c0.6 1.9-0.6 3.9-2.5 4.4l-34.3 9.2c-1.9 0.6-4-0.6-4.5-2.5l-5.8-20.4c-0.6-1.9 0.6-3.8 2.5-4.4z"/><path class="f" d="m239.2 364.1l34.3-9.2c1.9-0.5 4 0.6 4.5 2.5l5.8 20.4c0.6 1.9-0.6 3.9-2.5 4.4l-34.3 9.2c-1.9 0.6-4-0.6-4.5-2.5l-5.8-20.4c-0.6-1.9 0.6-3.8 2.5-4.4z"/><path class="e" d="m247 391.4l34.3-9.2c0.8-0.2 1.6-0.8 2-1.5l-23.9-10.4-14.9 20.9c0.7 0.4 1.6 0.5 2.5 0.2z"/><path class="g" d="m247 391.4l34.3-9.2c0.8-0.2 1.6-0.8 2-1.5l-23.9-10.4-14.9 20.9c0.7 0.4 1.6 0.5 2.5 0.2z"/><path class="e" d="m260.8 375.3l14.6-20.4q-0.9-0.2-1.9 0l-34.3 9.2c-0.6 0.2-1.2 0.5-1.6 1z"/><path class="h" d="m260.8 375.3l14.6-20.4q-0.9-0.2-1.9 0l-34.3 9.2c-0.6 0.2-1.2 0.5-1.6 1z"/><path class="e" d="m250 385.3c13.6-2.1 27-6.5 40.7-8.6 2.3-0.4 4.4 1.2 4.7 3.5q1.6 12.3 3.1 24.6c0.3 2.2-1.4 4.3-3.7 4.7-13.7 2.1-27.1 6.5-40.7 8.6-2.3 0.4-4.5-1.3-4.8-3.5q-1.5-12.3-3-24.6c-0.3-2.3 1.3-4.3 3.7-4.7z"/><path class="u" d="m250 385.3c13.6-2.1 27-6.5 40.7-8.6 2.3-0.4 4.4 1.2 4.7 3.5q1.6 12.3 3.1 24.6c0.3 2.2-1.4 4.3-3.7 4.7-13.7 2.1-27.1 6.5-40.7 8.6-2.3 0.4-4.5-1.3-4.8-3.5q-1.5-12.3-3-24.6c-0.3-2.3 1.3-4.3 3.7-4.7z"/><path class="e" d="m254.1 418.1c13.6-2.1 27-6.5 40.7-8.6 1-0.2 2-0.7 2.6-1.4-8.5-5.3-17-9.7-25.5-14.2-6.8 8.2-13.7 16.3-20.7 23.6 0.8 0.5 1.8 0.8 2.9 0.6z"/><path class="f" d="m254.1 418.1c13.6-2.1 27-6.5 40.7-8.6 1-0.2 2-0.7 2.6-1.4-8.5-5.3-17-9.7-25.5-14.2-6.8 8.2-13.7 16.3-20.7 23.6 0.8 0.5 1.8 0.8 2.9 0.6z"/><path class="e" d="m272.7 399.9c6.7-7.9 13.4-15.8 20.2-23-0.7-0.3-1.4-0.4-2.2-0.2-13.7 2.1-27.1 6.5-40.7 8.6-0.8 0.1-1.5 0.4-2.1 0.9 8.3 5.1 16.6 9.4 24.8 13.7z"/><path class="e" d="m322.3 363.5c-10.4 4.9-20.3 10.2-29.7 16 17.1 2 33.9 5.4 50.4 10.2-6.2-8.9-13.1-17.7-20.7-26.2z"/><path class="e" d="m295.2 378.4c15.5 1.9 30.8 5 45.8 9.3 2.6 0.7 4.1 3.1 3.4 5.3q-3.8 11.8-7.6 23.7c-0.7 2.1-3.1 3.4-5.3 2.7-13.3-3.7-26.9-6.5-40.6-8.2-2.4-0.3-4.1-2.4-3.8-4.7q1.4-12.3 2.8-24.6c0.3-2.2 2.7-3.9 5.3-3.5z"/><path class="f" d="m295.2 378.4c15.5 1.9 30.8 5 45.8 9.3 2.6 0.7 4.1 3.1 3.4 5.3q-3.8 11.8-7.6 23.7c-0.7 2.1-3.1 3.4-5.3 2.7-13.3-3.7-26.9-6.5-40.6-8.2-2.4-0.3-4.1-2.4-3.8-4.7q1.4-12.3 2.8-24.6c0.3-2.2 2.7-3.9 5.3-3.5z"/><path class="e" d="m290.9 411.2c13.7 1.7 27.3 4.5 40.6 8.2 1 0.3 2.1 0.2 3-0.2-5.7-8.3-12-16.4-18.9-24.3-9.7 4.5-18.8 9.5-27.4 14.9 0.7 0.7 1.6 1.2 2.7 1.4z"/><path class="g" d="m290.9 411.2c13.7 1.7 27.3 4.5 40.6 8.2 1 0.3 2.1 0.2 3-0.2-5.7-8.3-12-16.4-18.9-24.3-9.7 4.5-18.8 9.5-27.4 14.9 0.7 0.7 1.6 1.2 2.7 1.4z"/><path class="e" d="m314.3 400.8c9.2-4.4 18.8-8.4 28.9-11.9-0.6-0.5-1.3-1-2.2-1.2-15-4.3-30.3-7.4-45.8-9.3-0.9-0.1-1.7 0-2.5 0.3 7.8 7.1 15 14.5 21.6 22.1z"/><path class="h" d="m314.3 400.8c9.2-4.4 18.8-8.4 28.9-11.9-0.6-0.5-1.3-1-2.2-1.2-15-4.3-30.3-7.4-45.8-9.3-0.9-0.1-1.7 0-2.5 0.3 7.8 7.1 15 14.5 21.6 22.1z"/><path class="e" d="m168.5 296.7c-5 8.9-9.5 17.8-13.3 26.8 13.6-7.2 27.9-13.2 42.5-18-9.3-3.4-19.1-6.3-29.2-8.8z"/><path class="e" d="m156.6 321.4c12.4-6.4 25.3-11.9 38.6-16.3 2.3-0.8 4.7 0.2 5.4 2.2q3.5 10.6 7.1 21.2c0.7 1.9-0.4 4-2.5 4.7-11.8 4-23.2 8.8-34.2 14.5-1.9 1-4.3 0.3-5.3-1.5q-5.6-9.7-11.1-19.5c-1-1.8-0.2-4.2 2-5.3z"/><path class="f" d="m156.6 321.4c12.4-6.4 25.3-11.9 38.6-16.3 2.3-0.8 4.7 0.2 5.4 2.2q3.5 10.6 7.1 21.2c0.7 1.9-0.4 4-2.5 4.7-11.8 4-23.2 8.8-34.2 14.5-1.9 1-4.3 0.3-5.3-1.5q-5.6-9.7-11.1-19.5c-1-1.8-0.2-4.2 2-5.3z"/><path class="e" d="m171 347.7c11-5.7 22.4-10.5 34.2-14.5 1-0.3 1.7-0.9 2.1-1.7-8.6-3.2-17.6-6-26.9-8.2-4.7 8.1-8.7 16.4-12.1 24.8 0.8 0.2 1.8 0.1 2.7-0.4z"/><path class="g" d="m171 347.7c11-5.7 22.4-10.5 34.2-14.5 1-0.3 1.7-0.9 2.1-1.7-8.6-3.2-17.6-6-26.9-8.2-4.7 8.1-8.7 16.4-12.1 24.8 0.8 0.2 1.8 0.1 2.7-0.4z"/><path class="e" d="m182.6 328.2c4.4-7.9 9.4-15.7 14.9-23.3-0.7-0.2-1.5-0.1-2.3 0.1-13.3 4.5-26.2 10-38.6 16.4-0.7 0.4-1.3 0.9-1.7 1.5 9.5 1.3 18.8 3.1 27.7 5.3z"/><path class="h" d="m182.6 328.2c4.4-7.9 9.4-15.7 14.9-23.3-0.7-0.2-1.5-0.1-2.3 0.1-13.3 4.5-26.2 10-38.6 16.4-0.7 0.4-1.3 0.9-1.7 1.5 9.5 1.3 18.8 3.1 27.7 5.3z"/><path class="c" d="m202 358.9q-15.2 5.5-30.3 11c-9.8-11.1-5.1-27.4-14.8-38.4q15.1-5.6 30.2-11.1c9.8 11.1 5.1 27.4 14.9 38.5z"/><path class="v" d="m194.8 352q-12.6 4.6-25.2 9.2 0.3 0.9 0.8 1.9 12.6-4.6 25.2-9.2-0.4-1-0.8-1.9z"/><path class="v" d="m183 349.5q-7.6 2.8-15.2 5.6 0.2 1 0.5 2 7.6-2.8 15.2-5.6-0.3-1-0.5-2z"/><path class="v" d="m190.8 346.7q-2.5 0.9-5 1.8 0.2 1 0.5 2 2.5-0.9 4.9-1.8-0.2-1-0.4-2z"/><path class="v" d="m191.9 339.6q-12.7 4.5-25.3 9.1 0.2 1.1 0.4 2.1 12.6-4.6 25.2-9.2-0.2-1-0.3-2.1z"/><path class="v" d="m184.9 335.3q-9.8 3.6-19.7 7.2 0.3 1 0.5 2 9.9-3.6 19.7-7.2-0.2-1-0.5-2z"/><path class="v" d="m188.5 327.3q-7.5 2.7-14.9 5.4 0.4 0.9 0.8 1.9 7.4-2.7 14.8-5.4-0.3-1-0.7-1.9z"/><path class="v" d="m163.2 336.5q4-1.5 7.9-2.9 0.5 0.9 0.8 1.9-4 1.4-7.9 2.9-0.4-1-0.8-1.9z"/><path class="e" d="m198.9 341.3c9 4.3 17.7 8.9 25.8 13.9-14.8 1.8-29.5 4.7-43.8 8.9 5.4-7.7 11.4-15.4 18-22.8z"/><path class="e" d="m222.5 354.3c-13.5 1.7-26.9 4.4-39.9 8.1-2.3 0.6-3.6 2.7-3 4.6q3.3 10.3 6.6 20.6c0.6 1.9 2.7 3 4.7 2.4 11.6-3.3 23.4-5.7 35.4-7.2 2-0.2 3.5-2 3.3-4q-1.3-10.7-2.5-21.4c-0.3-2-2.3-3.4-4.6-3.1z"/><path class="f" d="m222.5 354.3c-13.5 1.7-26.9 4.4-39.9 8.1-2.3 0.6-3.6 2.7-3 4.6q3.3 10.3 6.6 20.6c0.6 1.9 2.7 3 4.7 2.4 11.6-3.3 23.4-5.7 35.4-7.2 2-0.2 3.5-2 3.3-4q-1.3-10.7-2.5-21.4c-0.3-2-2.3-3.4-4.6-3.1z"/><path class="e" d="m226.3 382.8c-12 1.5-23.8 3.9-35.4 7.2-0.9 0.3-1.8 0.2-2.6-0.1 4.9-7.3 10.4-14.3 16.5-21.2 8.3 3.9 16.3 8.3 23.8 12.9-0.6 0.7-1.4 1.1-2.3 1.2z"/><path class="g" d="m226.3 382.8c-12 1.5-23.8 3.9-35.4 7.2-0.9 0.3-1.8 0.2-2.6-0.1 4.9-7.3 10.4-14.3 16.5-21.2 8.3 3.9 16.3 8.3 23.8 12.9-0.6 0.7-1.4 1.1-2.3 1.2z"/><path class="e" d="m205.9 373.8c-8-3.8-16.4-7.3-25.2-10.3 0.5-0.5 1.1-0.9 1.9-1.1 13-3.7 26.4-6.4 39.9-8.1 0.7-0.1 1.5 0 2.1 0.2-6.7 6.2-13 12.7-18.7 19.3z"/><path class="h" d="m205.9 373.8c-8-3.8-16.4-7.3-25.2-10.3 0.5-0.5 1.1-0.9 1.9-1.1 13-3.7 26.4-6.4 39.9-8.1 0.7-0.1 1.5 0 2.1 0.2-6.7 6.2-13 12.7-18.7 19.3z"/><path class="e" d="m110.4 319l-0.3-0.8c2.6-0.9 5.2-1.7 7.9-2.4l0.2 0.9c-2.6 0.7-5.3 1.4-7.8 2.3z"/><path class="e" d="m118.8 318.8q-7.1 1.8-13.6 4.4c6.9 2.1 13.7 4.8 20.1 8q-2.8-6.3-6.5-12.4z"/><path class="e" d="m106.4 322.9q9.4 3 18.3 7.3c1 0.5 1.4 1.7 1 2.5q-2.5 4.6-5.1 9.3c-0.4 0.8-1.5 1.2-2.4 0.7q-7.9-3.8-16.2-6.4c-1-0.3-1.5-1.3-1.3-2.3q1.6-5 3.2-10c0.3-0.9 1.4-1.4 2.5-1.1z"/><path class="f" d="m106.4 322.9q9.4 3 18.3 7.3c1 0.5 1.4 1.7 1 2.5q-2.5 4.6-5.1 9.3c-0.4 0.8-1.5 1.2-2.4 0.7q-7.9-3.8-16.2-6.4c-1-0.3-1.5-1.3-1.3-2.3q1.6-5 3.2-10c0.3-0.9 1.4-1.4 2.5-1.1z"/><path class="e" d="m102 336.3q8.3 2.6 16.2 6.4c0.4 0.2 0.8 0.3 1.3 0.2q-2.6-5.8-6-11.6-6.5 1.8-12.6 4.2c0.3 0.3 0.6 0.6 1.1 0.8z"/><path class="g" d="m102 336.3q8.3 2.6 16.2 6.4c0.4 0.2 0.8 0.3 1.3 0.2q-2.6-5.8-6-11.6-6.5 1.8-12.6 4.2c0.3 0.3 0.6 0.6 1.1 0.8z"/><path class="e" d="m112.5 333.7q6.3-1.7 13-2.8-0.3-0.4-0.8-0.7-8.9-4.3-18.3-7.3-0.6-0.1-1.1 0 4 5.3 7.2 10.8z"/><path class="h" d="m112.5 333.7q6.3-1.7 13-2.8-0.3-0.4-0.8-0.7-8.9-4.3-18.3-7.3-0.6-0.1-1.1 0 4 5.3 7.2 10.8z"/><path class="e" d="m342 330l18.2 13.7-39.7-2.5z"/><path class="e" d="m358.4 342.7l-35.9-2.2c-2.1-0.2-3.9 0.9-4.1 2.3l-2 15c-0.2 1.4 1.3 2.7 3.3 2.8l36 2.3c2 0.1 3.9-0.9 4.1-2.3l2-15.1c0.2-1.4-1.3-2.7-3.4-2.8z"/><path class="f" d="m358.4 342.7l-35.9-2.2c-2.1-0.2-3.9 0.9-4.1 2.3l-2 15c-0.2 1.4 1.3 2.7 3.3 2.8l36 2.3c2 0.1 3.9-0.9 4.1-2.3l2-15.1c0.2-1.4-1.3-2.7-3.4-2.8z"/><path class="e" d="m355.7 362.9l-36-2.3c-0.9-0.1-1.7-0.3-2.3-0.8l22-10.3 18.8 12.9c-0.7 0.3-1.6 0.5-2.5 0.5z"/><path class="g" d="m355.7 362.9l-36-2.3c-0.9-0.1-1.7-0.3-2.3-0.8l22-10.3 18.8 12.9c-0.7 0.3-1.6 0.5-2.5 0.5z"/><path class="e" d="m338.9 353.2l-18.4-12.5q0.9-0.3 2-0.2l35.9 2.2q1.1 0.1 1.9 0.5z"/><path class="h" d="m338.9 353.2l-18.4-12.5q0.9-0.3 2-0.2l35.9 2.2q1.1 0.1 1.9 0.5z"/></svg>