<svg version="1.2" xmlns="http://www.w3.org/2000/svg" width="500" height="500"><style>tspan{white-space:pre}.a{fill:#f0f0f0}.b{fill:#f5f5f5}.c{fill:#fff}.d{fill:#e6e6e6}.e{fill:#407bff}.f,.g,.h{opacity:.5;fill:#fff}.g,.h{opacity:.7}.h{opacity:.2}.i{fill:#263238}.k{font-size:21px;fill:#407bff;font-weight:800;font-family:&quot;&apos; Arial&quot;}.l{fill:#ffb573}.m{opacity:.2}.o{fill:#e0e0e0}.p{fill:#fafafa}.u,.v{opacity:.3;fill:#fff}.v{fill:#407bff}</style><path class="a" d="M153.3 66.8c.1-8 6.6-14.4 14.6-14.4 1.9 0 3.8.4 5.5 1 2.8-5.8 8.8-9.8 15.8-9.8 8.4 0 15.4 5.9 17.2 13.7 7.9.5 14.1 7.1 14.1 15.2 0 8.3-6.8 15.1-15.1 15.1h-48.2c-6 0-10.8-4.8-10.8-10.7 0-4.6 2.9-8.5 6.9-10.1z"/><path class="b" d="M64.7 87.7c0-3 2.5-5.5 5.5-5.5q1.2 0 2.1.4c1.1-2.2 3.4-3.8 6.1-3.8 3.2 0 5.9 2.3 6.5 5.3 3 .2 5.4 2.7 5.4 5.7 0 3.2-2.6 5.8-5.8 5.8H66.2c-2.3 0-4.1-1.8-4.1-4.1 0-1.7 1-3.2 2.6-3.8zM433.9 57.8c-.1-4.9-4.1-8.8-9-8.8q-1.8 0-3.3.6c-1.8-3.6-5.5-6-9.7-6-5.2 0-9.5 3.6-10.5 8.4-4.9.3-8.7 4.3-8.7 9.3 0 5.1 4.1 9.3 9.3 9.3h29.5c3.6 0 6.6-3 6.6-6.6 0-2.8-1.8-5.2-4.2-6.2zM412.3 326.1l-7.9-20.2c-1-2.5-3.9-3.8-6.5-2.8l-42.2 16.5c-2.6 1-3.9 4-2.9 6.5l7.9 20.2c1 2.6 3.9 3.9 6.5 2.9l42.2-16.6c2.6-1 3.9-3.9 2.9-6.5z"/><path class="c" d="M383.9 330.6h-.2l-27-5.2c-.6-.1-.9-.7-.8-1.2.1-.5.6-.9 1.2-.8l26.4 5.1 15.9-21.7c.3-.4 1-.5 1.4-.2.5.3.6 1 .2 1.4l-16.3 22.2c-.2.3-.5.4-.8.4z"/><path class="b" d="m124.5 311.1 5.3-21c.6-2.7-1-5.5-3.7-6.1l-44-11c-2.7-.7-5.4.9-6.1 3.6l-5.3 21c-.6 2.7 1 5.5 3.7 6.1l44 11.1c2.7.6 5.4-1 6.1-3.7z"/><path class="c" d="M99.3 298.5c-.2 0-.5-.1-.7-.3l-19-19.9c-.4-.4-.4-1.1 0-1.5.4-.3 1.1-.3 1.5.1l18.5 19.5 25.6-8.5c.5-.2 1.1.1 1.3.7.1.5-.2 1.1-.7 1.2l-26.1 8.7h-.4z"/><path class="a" d="M408.2 174.1h-50.3c-5.8 0-10.5 4.7-10.5 10.5V224.5l9.8-9.8h51c5.7 0 10.5-4.7 10.5-10.5v-19.6c0-5.8-4.8-10.5-10.5-10.5z"/><path class="c" d="M406.4 188.5h-47.5c-1 0-1.7-.8-1.7-1.8 0-.9.7-1.7 1.7-1.7h47.5c1 0 1.8.8 1.8 1.7 0 1-.8 1.8-1.8 1.8zM406.4 196.5h-47.5c-1 0-1.7-.7-1.7-1.7s.7-1.8 1.7-1.8h47.5c1 0 1.8.8 1.8 1.8s-.8 1.7-1.8 1.7zM390.2 204.6h-31.3c-1 0-1.7-.8-1.7-1.8 0-.9.7-1.7 1.7-1.7h31.3c1 0 1.8.8 1.8 1.7 0 1-.8 1.8-1.8 1.8z"/><path class="b" d="M72.9 193.9h40.7c4.6 0 8.5 3.8 8.5 8.4V228.1l-7.9-7.9H72.9c-4.6 0-8.4-3.8-8.4-8.5v-9.4c0-4.6 3.8-8.4 8.4-8.4z"/><path class="d" d="M74.4 205.5h38.3c.8 0 1.5-.7 1.5-1.4 0-.8-.7-1.4-1.5-1.4H74.4c-.8 0-1.5.6-1.5 1.4 0 .7.7 1.4 1.5 1.4zM87.4 212h25.4c.7 0 1.4-.6 1.4-1.4 0-.8-.7-1.4-1.4-1.4H87.4c-.8 0-1.4.6-1.4 1.4 0 .8.6 1.4 1.4 1.4z"/><path class="b" d="M250 427.6c-107.2 0-193.9-5.1-193.9-11.4 0-6.2 86.7-11.3 193.9-11.3s193.9 5.1 193.9 11.3c0 6.3-86.7 11.4-193.9 11.4z"/><path class="e" d="M277.3 171.1c-43.8 18.3-85.4 38.3-124.5 59.9 73 6.6 145.3 18.4 216.1 35.3-27.7-32.5-58.3-64.3-91.6-95.2z"/><path class="e" d="M163.7 226.9c66.4 6.4 132.1 17.2 196.7 32.1 11 2.5 17.7 11.4 15.1 19.4q-14.5 43.5-28.9 87.1c-2.7 8-12.8 12.7-22.5 10.4-57.3-13.2-115.5-22.7-174.3-28.4-10-1-17.6-8.5-16.8-16.8q4.4-45.2 8.7-90.4c.8-8.4 10.7-14.5 22-13.4z"/><path class="f" d="M163.7 226.9c66.4 6.4 132.1 17.2 196.7 32.1 11 2.5 17.7 11.4 15.1 19.4q-14.5 43.5-28.9 87.1c-2.7 8-12.8 12.7-22.5 10.4-57.3-13.2-115.5-22.7-174.3-28.4-10-1-17.6-8.5-16.8-16.8q4.4-45.2 8.7-90.4c.8-8.4 10.7-14.5 22-13.4z"/><path class="e" d="M149.8 347.5c58.8 5.7 117 15.2 174.3 28.4 4.4 1 8.9.6 12.8-.9-25.3-30.2-53.4-59.7-84.1-88.3-40.4 17-78.7 35.7-114.6 55.9 2.9 2.7 7 4.5 11.6 4.9z"/><path class="g" d="M149.8 347.5c58.8 5.7 117 15.2 174.3 28.4 4.4 1 8.9.6 12.8-.9-25.3-30.2-53.4-59.7-84.1-88.3-40.4 17-78.7 35.7-114.6 55.9 2.9 2.7 7 4.5 11.6 4.9z"/><path class="e" d="M248.2 308.4c38.5-16.7 79.1-31.8 121.6-45-2.5-2-5.7-3.6-9.4-4.4-64.6-14.9-130.3-25.7-196.6-32.1-3.8-.3-7.5.1-10.7 1.2 34.2 25.7 65.9 52.6 95.1 80.3z"/><path class="h" d="M248.2 308.4c38.5-16.7 79.1-31.8 121.6-45-2.5-2-5.7-3.6-9.4-4.4-64.6-14.9-130.3-25.7-196.6-32.1-3.8-.3-7.5.1-10.7 1.2 34.2 25.7 65.9 52.6 95.1 80.3z"/><path class="c" d="m409.2 151.9-2.4-.5-2.5-.3-2.4-.6-2.4-.4-2.4-.5-2.5-.4-2.4-.5-2.4-.5-2.4-.4-2.5-.4-2.4-.5-2.4-.4-2.4-.6-2.4-.5-2.5-.5-2.4-.3-2.4-.7-2.4-.4-2.5-.3-2.4-.6-2.4-.4-2.5-.5-2.4-.4-2.4-.5-2.4-.5-2.5-.4-2.4-.6-2.4-.4-2.4-.5-2.5-.5-2.4-.4-2.4-.4-2.4-.6-2.5-.4-2.4-.5-2.4-.5-2.5-.5-2.4-.2-2.4-.6-2.5-.5-2.4-.5-2.4-.3-2.5-.5-2.4-.6-2.4-.5-2.4-.4-2.5-.4-2.4-.4-2.4-.6-2.4-.5-2.5-.4-2.4-.5-2.4-.4-2.5-.4-2.4-.6-2.4-.4-2.5-.4-2.4-.4-2.4-.5-2.5-.5-2.4-.6-2.4-.3-2.4-.6-2.5-.4-2.4-.5.4-1.9.4-1.9.3-1.9.4-1.9.2-1.9.4-1.9.5-1.9.3-1.9.3-1.9.3-1.9.4-1.9.3-1.9.6-1.9.4-1.9.4-1.9.2-1.9.3-1.9.4-1.9.3-1.9.3-1.9.5-1.9.4-1.9.4-1.9.2-1.9.6-1.9.2-1.9.3-1.9.6-1.9.3-1.9 2.4.5 2.4.3 2.4.5 2.4.4 2.5.6 2.4.5 2.4.4 2.4.6 2.4.5 2.5.3 2.4.5 2.4.4 2.4.5 2.5.4 2.4.6 2.4.3 2.4.6 2.5.4 2.4.5 2.5.4 2.3.6 2.5.3 2.4.5 2.4.5 2.5.6 2.4.4 2.4.5 2.5.3 2.4.5 2.4.6 2.4.3 2.5.5 2.4.5 2.4.4 2.4.5 2.5.5 2.4.4 2.4.4 2.4.7 2.5.4 2.4.5 2.4.5 2.5.3 2.4.5 2.4.5 2.4.5 2.5.5 2.4.3 2.4.5 2.5.4 2.4.5 2.4.6 2.5.4 2.4.5 2.4.5 2.5.3 2.4.7 2.4.3 2.4.5 2.5.4 2.4.6 2.4.3 2.5.5 2.4.5 2.4.5-.5 1.9-.2 1.9-.3 1.9-.4 1.9-.5 1.9-.3 1.9-.3 1.9-.3 1.9-.3 1.9-.4 1.9-.3 1.9-.4 1.9-.4 1.9-.4 1.9-.4 1.9-.3 1.9-.5 1.9-.3 1.9-.3 1.9-.4 1.9-.5 1.9-.3 1.9-.3 1.9-.4 1.9-.3 1.9-.3 1.9-.5 1.9-.4 1.9z"/><path fill-rule="evenodd" class="i" d="M409.2 152.3h-.1l-2.4-.5-2.4-.3-2.5-.6-7.2-1.2-4.9-1-9.7-1.8-2.4-.6-4.9-1-2.4-.3-2.4-.6-2.4-.4-2.5-.4-2.4-.5-2.4-.4-2.5-.6-2.4-.3-2.4-.6-4.9-.8-2.4-.6-2.4-.4-2.4-.6-7.3-1.3-2.4-.5-9.7-1.9-2.5-.3-4.9-1-2.4-.5-2.4-.4-7.3-1.6-4.8-.7-2.5-.5-2.4-.5-2.4-.5-2.4-.4-2.5-.6-2.4-.3-2.4-.4-2.5-.7-7.3-1.2-2.4-.5-2.4-.4-2.5-.6-2.4-.4-2.4-.5-2.5-.5-2.4-.5c-.2 0-.4-.3-.3-.5l.7-3.8.3-1.9.4-1.9.2-1.9.4-1.9.6-1.9.2-1.9.4-1.9.2-1.9.8-3.8.6-1.9.3-1.9.4-1.9.5-3.8.4-1.9.7-3.8.9-3.8.3-1.9.2-1.9.6-1.9.2-1.9.3-1.9.7-1.9.2-1.8.2-.4q.2-.1.4 0l2.3.4 2.5.4 2.4.5 2.4.4 4.9 1.1 2.4.3 2.4.6 2.4.5 2.4.4 2.5.5 2.4.4 2.4.5 2.5.3 2.4.7 2.4.2 2.5.7 2.4.3 4.8.9 2.5.7 2.4.2 4.8 1 2.5.6 4.8.9 2.4.3 2.5.5 2.4.7 2.4.2 4.9 1.1 2.4.4 4.9.9 2.4.4 2.4.5 2.5.6 7.2 1.4 2.4.4 2.5.4 2.4.6 4.9 1 2.4.3 2.4.5 2.5.4 2.4.5 2.4.5 2.4.4 2.5.6 2.4.4 2.4.3 2.5.7 2.4.4 2.4.5 2.5.4 2.4.5 2.4.4 2.5.5 4.8 1q.2 0 .3.2.1.1 0 .3l-.4 1.9-.2 1.8-.7 3.9-.5 1.9-1.2 7.6-.5 1.9-.7 3.8-.4 1.9-.3 1.9-.4 1.9-.3 1.9-.6 1.9-.5 3.8-.4 1.9-.6 1.9-.5 3.8-.8 3.8-.3 1.9-.5 1.9-.7 3.8q0 .2-.2.3h-.2zm-157.2-31 1.9.4 2.4.5 2.5.5 2.4.4 2.5.6 2.4.4 2.4.5 7.3 1.2 2.4.7 2.4.4 2.5.3 2.4.6 2.4.4 2.5.5 2.4.5 2.4.5 4.9.7 7.3 1.6 2.4.4 4.9 1 2.4.5 2.4.3 9.7 1.9 2.5.5 2.4.5 4.8.8 2.5.6 2.4.4 2.4.6 4.9.8 2.4.6 2.4.3 2.5.6 2.4.4 2.4.5 2.4.4 2.5.4 2.4.6 2.4.3 4.9 1 2.4.6 19.4 3.6 2.4.4 2.4.6 2.4.3 2 .4.6-3.3.5-1.9.7-3.8.4-1.9.2-1.9.3-1.9.6-1.9.4-1.9.5-3.8.6-1.9.3-1.9.4-1.9.3-1.9.4-1.9 1.2-5.7.2-1.9 1-5.7.5-1.9.7-3.8.2-1.9.3-1.4-6.7-1.4-2.5-.3-2.4-.6-2.4-.4-2.5-.5-2.4-.4-2.5-.7-2.4-.3-2.4-.4-2.4-.6-2.5-.4-2.4-.5-2.4-.5-2.4-.4-2.5-.5-2.4-.3-4.9-1-2.4-.6-2.4-.4-2.4-.4-7.3-1.4-2.5-.6-2.4-.5-2.4-.4-7.3-1.3-4.8-1.1-2.5-.2-2.4-.7-2.4-.4-2.4-.4-4.9-.9-2.5-.6-4.8-1-2.4-.2-2.5-.7-2.4-.4-2.4-.5-2.4-.3-2.5-.7-2.4-.2-2.4-.7-2.4-.3-2.5-.5-2.4-.4-2.4-.5-2.4-.4-2.5-.5-2.4-.6-2.4-.3-4.9-1.1-2.4-.4-2.4-.5-2.4-.4-1.9-.3-.2 1.4-.7 1.9-.3 1.8-.2 2-.6 1.9-.2 1.9-.3 1.9-.9 3.8-.7 3.8-.4 1.9-.5 3.8-.4 1.9-.4 1.9-.5 1.9-.4 1.9-.4 1.9-.2 1.9-.4 1.9-.2 1.9-.6 1.9-.4 1.9-.2 1.8-.4 2-.3 1.9z"/><path d="m257 93.2-.4 1.9-.4 1.9-.6 1.9-.3 1.9-.4 1.9-.3 1.9-.3 1.9-.3 1.9-.5 1.9-.4 1.9-.2 1.9-.4 1.9-.3 1.9-.4 1.9-.4 1.9 2.4.5 2.5.4 2.4.6 2.4.3 2.4.6z" style="opacity:.2;fill:#263238"/><text style="transform:matrix(.981,.196,-.196,.981,281.839,94.849)"><tspan x="0" y="0" class="k">Too many
</tspan></text><text style="transform:matrix(.981,.196,-.196,.981,279.887,114.973)"><tspan x="0" y="0" class="k">requests
</tspan></text><path class="i" d="M275.9 129.9c-8.4 3.6-8.4 15.7-2.3 13.3 6.1-2.4 7.3-15.4 2.3-13.3z"/><path class="l" d="m203 339.4 14.1-4.5.1 11.9-11.7 3.8z"/><path class="m" d="m203 339.4 14.1-4.5.1 6.7-12.8 4.1z"/><path class="i" d="m221.8 349.1-1.4.7c-.8.5-1.8.5-2.6.1l-.5.9c-.2.6-.7 1.1-1.2 1.4l-18.9 10.2c-1.2-1.4-1.3-4.1-1.3-4.1s8-4.9 8.6-8.4c0-.3.2-.5.5-.6 1.8-.5 8.7-2.7 11.6-5.8.4-.4 1.1-.3 1.4.2 1.5 2.7 3.8 5.4 3.8 5.4z"/><path fill-rule="evenodd" class="i" d="M205 350.1c-.1 0-3.2-.3-4.1-1.3q-.2-.4-.2-.7.1-.6.6-.7c1-.3 3.1 1.3 3.9 2.4q.1.1 0 .2t-.2.1zm-3.5-2.3h-.1c-.1 0-.2.1-.2.3q-.1.2.1.4c.5.6 2.1 1 3.2 1.1-.9-.9-2.3-1.8-3-1.8z"/><path fill-rule="evenodd" class="i" d="M201.6 352.5q-.4 0-.6-.2-.4-.4-.2-.9c.3-.9 2.8-1.7 4.2-1.7q.2 0 .2.1.1.2 0 .3c-.1.1-2.2 2.4-3.5 2.4h-.1zm2.9-2.3c-1.3.1-3.1.8-3.3 1.4-.1.1-.1.2.1.4q.1.1.4.1c.8 0 2-1.2 2.8-1.9z"/><path class="e" d="m266.6 226.9 3.6 13c5.4 19.2-4.6 39.9-21.9 45.7-10.1 3.4-24 3.9-32.1 5.7 4.3 14.5 5.5 33.6 5.7 47.4l-19.7 5.1c-5.1-16.2-13.2-41.4-18.6-57.7-1.9-5.9-.2-12.6 4.2-16.6 22.1-20.5 78.7-42.6 78.7-42.6z"/><path class="l" d="m248.9 361.4 12.8-7.6 2.8 11.7-10.7 6.3z"/><path class="m" d="m249 361.4 12.7-7.6 1.6 6.6-11.6 6.8z"/><path class="i" d="m269.3 369.8-1.4.7c-.8.5-1.8.5-2.6 0l-.5 1c-.2.6-.7 1.1-1.2 1.3l-19 10.1c-1.2-1.5-1.3-4.2-1.3-4.2s8.1-4.8 8.7-8.2c.1-.3.2-.5.5-.6 1.8-.5 8.7-2.7 11.7-5.8.4-.4 1.1-.3 1.3.2 1.6 2.8 3.8 5.5 3.8 5.5z"/><path fill-rule="evenodd" class="i" d="M252.5 370.7c-.1 0-3.2-.4-4-1.4q-.3-.4-.2-.7 0-.6.5-.7c1-.2 3.1 1.3 3.9 2.4q.1.2 0 .3-.1.1-.2.1zm-3.4-2.4h-.2c-.1.1-.2.1-.2.3q0 .2.1.4c.5.6 2.1 1 3.2 1.2-.8-.9-2.2-1.9-2.9-1.9z"/><path fill-rule="evenodd" class="i" d="M249.1 373.1q-.4-.1-.6-.3-.4-.4-.2-.9c.4-.9 2.9-1.7 4.2-1.7q.2 0 .2.2.1.1 0 .2c-.1.1-2.2 2.4-3.5 2.4h-.1zm2.9-2.3c-1.3.2-3.1.8-3.3 1.4-.1.1-.1.2.1.4q.1.1.4.1c.7 0 2-1.1 2.8-1.9z"/><path class="e" d="m293.6 239 5.9 11.4c8.7 16.9 2.4 39.3-13.9 49.6-9.5 5.9-22.8 13.2-30.6 17.2 5.1 12.3 8.7 28.1 10.3 40l-17.3 7.7c-7.9-14-19.2-33.9-26.8-46.9-3-5.2-2.5-12 1.2-17.1 18.5-25.5 71.2-61.9 71.2-61.9z"/><path d="M261.6 359.3c-.2 0-.4-.1-.4-.4-1.9-9.6-11-37.9-17.1-49.9v-.3q.1-.2.3-.3c26.1-9.6 42-19.4 46-28.4 7.1-15.7-1-30.8-8.2-37-.2-.2-.3-.5-.1-.7.2-.2.5-.2.6 0 7.5 6.4 15.9 21.9 8.6 38.1-4.2 9.2-19.7 18.9-46.1 28.7 6.1 12.3 15 40.1 16.9 49.7 0 .2-.1.5-.4.5h-.1z" style="opacity:.1"/><path class="l" d="m256.7 196.5-1.1.7-1 .7q-.9.6-1.9 1.1-1.9 1.1-3.9 2.1c-2.6 1.4-5.3 2.5-8.1 3.6-5.6 2-11.6 3.5-18.3 3.7h-2.5l-1.3-.1-1.4-.1c-1.9-.3-3.6-.7-5.1-1.2-2.9-.9-5.7-2-8.2-3.3l-2-1-1.8-1q-1.9-1-3.6-2.2c-2.4-1.5-4.6-3.1-6.8-5.1-2.2-1.8-2.4-5.1-.5-7.3 1.2-1.5 3.2-2.1 5-1.8l.3.1c4.9 1 9.9 2.2 14.6 3.1 2.4.4 4.7.7 6.8.9 1.1.1 1.9.2 2.7.1l1.2-.1c.4 0 .9-.1 1.4-.1 3.8-.6 7.9-2 12-3.7 2-.9 4.1-1.9 6.1-3l3-1.6 2.8-1.6.6-.3c4.9-2.9 11.2-1.2 14.1 3.8 2.6 4.6 1.2 10.6-3.1 13.6z"/><path class="l" d="m198.8 187.4-.8 5.9c-3 5.5-9.4.4-9.4.4l-4.1-1.1c-1.3-.4-2.2-1.9-2-3.6l.5-4.1c.2-1.9 1.8-3.3 3.4-3.1l3.7.4c1.1.2 2.1.5 3 1.2z"/><path class="o" d="M264.5 169c-2.3-3.5-10.8-1.5-15 4.3-1.9.1-8.8 7.7-14.5 9.7-5.6 2.1-9.1 9.5-7.1 13.3 3.7 7 6 10.3 11.5 10.4 5.5 0 12.2-4.2 17.5-9 5.2-4.8 14.9-17.4 7.6-28.7z"/><path class="p" d="M232.5 183.1c-4.8-2.4-8.7 2.9-8.2 9 .6 6 2.6 11.2 5.1 14.5 2.6 3.4 6.4 2.7 10 2.2 3.1-.5 4.6-1.7 2.8-4.4-1.8-2.7-7.7-6.3-9.3-14.2-.8-3.9 1.9-5.9-.4-7.1zM227.6 234.3c-1 1-1.9 4.8-.2 10.7 1.2 4.1 6.7 2.3 6.7 2.3s.6 7.4 7.2 9.2c10.9 3.1 52.4 4.1 59.7-1.1-22.1-1.1-73.4-21.1-73.4-21.1z"/><path class="e" d="M267.7 165.3c6.8.4 14.4 1.1 21.5 2.3 12.7 2.1 20.8 14.6 17.9 27.1-6.5 27.6-4 55.9-4.8 61.4 0 0-64 6.5-73-12.8-12.2-21.8 10.5-34.9 19.4-64.5 2.4-7.7 10.9-13.9 19-13.5z"/><path d="M267.7 165.3c6.8.4 14.4 1.1 21.5 2.3 12.7 2.1 20.8 14.6 17.9 27.1-6.5 27.6-4 55.9-4.8 61.4 0 0-64 6.5-73-12.8-12.2-21.8 10.5-34.9 19.4-64.5 2.4-7.7 10.9-13.9 19-13.5z" style="opacity:.3"/><path d="M288.9 167.6h-.1l-.3-.2-.1.1c-5.4-.9-10.9-1.5-16.2-1.9l-3.8-.2c-1.6.7-3 2.1-3.8 4-1.8 4-.8 8.5 2.6 12.2l.3.3.4-.1c7.8-.4 22.7-6 23.5-10.8.1-.8 0-2.4-2.5-3.4z" style="opacity:.4;fill:#fafafa"/><path class="l" d="m310.6 190.8 1 2.2q.5 1 .9 2c.6 1.4 1.1 2.8 1.6 4.2 1 2.8 1.9 5.6 2.6 8.5q.6 2.1 1 4.3.5 2.2.9 4.5c.5 3 .8 6 .9 9.1l.1.6c.1 1.3-.2 2.6-.6 3.7-.8 2.2-2.6 4.5-4.5 5.9-1.9 1.4-3.7 2.1-5.3 2.5-3.2.7-5.5.5-7.7.3-2.1-.2-4-.6-5.8-1.1q-2.7-.7-5.2-1.6c-3.3-1.2-6.4-2.6-9.4-4.2s-5.9-3.2-8.8-5.1c-2.4-1.6-3-4.8-1.4-7.2 1.2-1.8 3.4-2.6 5.4-2.2l.2.1c3 .6 6.1 1.3 9.1 2 3 .6 6 1.2 8.9 1.6 1.4.2 2.8.4 4.2.4 1.3.1 2.6.2 3.7.1 1-.1 1.9-.3 1.9-.4-.1-.1-.4-.1-1.1.4-.6.4-1.4 1.3-1.7 2.1l-.5 4.2q-.7-3.5-1.7-7.1-.5-1.8-1.1-3.6-.5-1.7-1.1-3.5c-.8-2.4-1.6-4.8-2.6-7.2l-1.3-3.5-1.3-3.4-.2-.5c-2.1-5.3.5-11.3 5.8-13.3 5.1-2 10.8.3 13.1 5.2z"/><path class="l" d="m276.2 220.4-1.6 3.4c-4.6 4.3-9.1-2.6-9.1-2.6l-3.4-2.4c-1.2-.8-1.5-2.5-.8-4l1.8-3.7c.8-1.8 2.7-2.6 4.2-1.9l3.3 1.6c1 .5 1.8 1.2 2.5 2l2.8 3.9c.8 1.1.9 2.5.3 3.7z"/><path class="o" d="M298.8 172.1c4.2.3 13 10.1 12.6 17.2 1.4 1.3 3.3 8.4 6.4 13.5 3.1 5.2 1.1 13.2-2.9 14.8-7.3 3.1-11.2 4.1-15.5.7-4.2-3.4-8.3-14.1-8.8-21.2-.6-10.5.8-25.7 8.2-25z"/><path class="p" d="M294.9 214.1c-2.8 4.6 2.2 8.9 8.3 8.8 6.1-.1 11.3-1.7 14.9-4 3.5-2.3 3.2-6.2 2.9-9.8-.2-3.2-1.4-4.7-4.2-3.1-2.8 1.6-6.8 7.2-14.8 8.2-4 .5-5.8-2.3-7.1-.1z"/><path class="l" d="M266.5 169.1c.6-1.1 2.5-2.8 4.3-3.3.7-1.4 1-3.1.6-5.1l19.9-4.2c-2.2 6.2-3.9 11.1-1.9 14.5-4 1.9-11.4 5.3-18.9 4.3-7.5-.9-5.6-3.6-4-6.2z"/><path class="m" d="m271.5 161.3 14.6.6c-5 4.4-12.1 5.5-15 3.2.4-1.1.6-2.3.4-3.8z"/><path class="l" d="M296.1 147.1c-3.2 8.7-5.5 14.6-11.8 16.8-12.4 4.5-17.1-2.2-16.7-11.7.5-8.6 5.6-21.4 15.3-22.3 9.6-.9 16.3 8.5 13.2 17.2z"/><path class="i" d="M294 154.7c-6.1-2.7-6.9-7.3-3.7-8.8-1.9-2.6-3.2-6.5.2-8.3-1.3 1-7.5-2.6-6.8-5.4-6.3 3.1-13 2.2-10.6-3.8 2.4-5.9 12.8-8.3 14.5-5.3 9.8-4 15.8 3.6 12.5 6.3 6.9.5 9.3 8.7 4.7 12.1 5.9 4.6-.5 12.3-10.8 13.2zM278.1 152.6q.6.1 1.3.4c.1 0 .1.1.1.2-.1.2-.2.2-.3.2-3.1-1.2-5.5.3-5.6.3-.1.1-.2.1-.3 0 0-.1 0-.2.1-.3.1-.1 2.1-1.3 4.7-.8z"/><path class="m" d="M283.9 145.4s2-.3 3.2.8c-1.8-.1-3.2-.8-3.2-.8zM283.8 146.2s1.8 0 2.6 1.3c-1.6-.4-2.6-1.3-2.6-1.3zM271.6 141.9s-.5-1-1.2-.7c.6.7 1.2.7 1.2.7zM271.4 142.6s-.5-.9-1-.2c.5.4 1 .2 1 .2zM276.8 134.5s4.6.1 8.1 1.6c-4.6-.6-8.1-1.6-8.1-1.6zM275.5 135.6s6.2 1 9 3c-5.4-1.3-9-3-9-3z"/><path class="l" d="M298.2 155.3c-1.5 2-3.7 3.2-5.8 3.4-3.1.4-4.2-2.4-3-5.1 1.1-2.4 4-5.5 6.9-4.7 2.9.8 3.6 4.1 1.9 6.4z"/><path class="i" d="M281.4 145.2c-.2.7-.8 1.2-1.2 1-.5-.1-.7-.8-.5-1.6.2-.7.8-1.2 1.2-1 .5.1.7.8.5 1.6zM273.7 143c-.2.7-.8 1.2-1.2 1.1-.5-.2-.7-.9-.5-1.6.2-.7.8-1.2 1.2-1.1.5.2.7.9.5 1.6z"/><path d="m276 144.3-1.7 6.1s-2.5-.1-3.6-1.6c1.7-2.9 5.3-4.5 5.3-4.5z" style="fill:#ed893e"/><path class="i" d="M282.5 139.8h-.2c-.3 0-.4.2-.4.5.2 2.4 2 3.4 2.1 3.4.2.2.5.1.6-.1.1-.3 0-.5-.2-.6-.1-.1-1.5-.9-1.6-2.8-.1-.2-.2-.3-.3-.4zM273.9 137.6q-.2 0-.4.1c-1.5 1.3-3 .9-3.1.9-.2 0-.5.1-.5.3-.1.3.1.5.3.6.1 0 2.1.5 3.9-1.1.2-.2.2-.5 0-.6l-.2-.2z"/><path class="p" d="M267.9 180.9c10.4-.5 28.7-9.2 20.7-12.5-5.3 3.9-13.9 5.2-18 5-1.4-1.5-1.7-5.5.2-7.6-4.2-.5-9.9 7.8-2.9 15.1z"/><path class="e" d="M270.6 173.4c3-1.9 12-5.7 17.7-7.4 2-.5 3.3 2 1.7 3.3 0 0-4.6 4.7-19.4 4.1z"/><path class="e" d="M271 173.7c.3.1.7 0 .9-.3l.8-1.2c.2-.3.1-.6-.2-.7-.3-.1-.8 0-.9.3l-.9 1.2c-.1.3 0 .6.3.7z"/><path class="e" d="M270.3 173.6c.3 0 .7-.2.8-.5l.6-1.3c.1-.4-.1-.6-.4-.7-.4 0-.8.2-.9.5l-.5 1.3c-.2.4 0 .6.4.7z"/><path class="e" d="M270.6 173.4s.3-4.2.3-7.1c-.1-1.3-1.8-1.7-2.3-.5-.2.3-.3.6-.3.6s.6 5.7 2.3 7zM190.9 206.7c1.7-.2 2.9-1.8 2.7-3.5l-6.8-52.6-6.3.8 6.8 52.6c.2 1.7 1.8 2.9 3.6 2.7z"/><path class="i" d="m180.5 151.4 6.3-.8.9 7-6.2 1.2z"/><path class="c" d="m108.2 164.4 2.3-.4h2.3l2.3-.5 2.4-.2 2.3-.3 2.4-.2 2.3-.4 2.3-.3 2.4-.2 2.3-.3 2.4-.3 2.3-.3 2.3-.5 2.4-.3 2.3-.4h2.4l2.3-.6 2.3-.2 2.4-.1 2.3-.4 2.4-.3 2.3-.4 2.3-.1 2.4-.5 2.3-.2 2.4-.2 2.3-.6 2.3-.1 2.3-.5 2.4-.2 2.3-.3 2.4-.3 2.3-.4 2.4-.3 2.3-.3 2.3-.3 2.4-.3h2.4l2.3-.5 2.3-.3 2.3-.4 2.4-.1 2.3-.4 2.4-.4 2.3-.4 2.4-.2 2.3-.1 2.4-.3 2.3-.5 2.3-.3 2.4-.2 2.3-.4 2.4-.2 2.3-.2 2.3-.6 2.4-.2 2.3-.2 2.4-.2 2.3-.4 2.4-.2 2.3-.5 2.4-.1 2.3-.4 2.4-.3 2.2-.4-.3-3-.5-3-.3-3.1-.4-3-.2-3-.4-3.1-.6-3-.3-3-.4-3-.3-3.1-.4-3-.4-3-.6-3-.3-3-.5-3.1-.3-3-.3-3-.4-3.1-.4-3-.3-3-.5-3.1-.5-3-.3-3-.3-3-.6-3.1-.2-3-.3-3-.7-3.1-.3-2.9-2.3.2-2.3.2-2.4.3-2.3.3-2.3.4-2.4.4-2.3.2-2.3.4-2.4.4-2.3.1-2.3.4-2.4.2-2.3.4-2.4.1-2.3.5-2.4.1-2.3.5-2.3.2-2.4.3-2.3.2-2.3.6h-2.4l-2.3.4-2.4.3-2.3.5-2.3.3-2.4.2-2.3.1-2.4.3-2.3.6h-2.4l-2.3.4-2.3.4-2.4.2-2.3.3-2.4.3-2.3.2-2.4.3-2.3.6-2.3.3-2.3.3-2.4.3-2.4.1-2.3.3-2.3.5-2.4.3-2.3.4h-2.4l-2.3.4-2.3.2-2.4.3-2.3.4-2.4.2-2.3.5-2.3.3h-2.4l-2.3.7-2.4.1-2.3.3-2.4.2-2.3.5-2.4.2-2.3.3-2.4.4-2.3.3.5 3 .3 3 .4 3 .3 3.1.6 3 .3 3 .3 3 .4 3.1.3 3 .4 3 .4 3.1.4 3 .4 3 .4 3 .4 3 .3 3.1.6 3 .3 3 .3 3.1.5 3 .5 3 .4 3 .2 3.1.4 3 .4 3 .4 3.1.5 3 .4 3z"/><path fill-rule="evenodd" class="i" d="M108.2 165q-.2 0-.4-.1-.2-.2-.2-.4l-.7-6-.6-3-.7-6.1-.4-3-.6-6.1-.6-3-.4-3.1-.6-6.1-.6-2.9-.3-3.1-.5-3-.3-3-.5-3-1.2-9.1-1.3-12.2-.5-2.9-.8-6.1-.2-3.1-.5-2.9q-.1-.2.1-.4.1-.2.4-.3l2.3-.3 2.3-.4 2.4-.3 2.4-.1 2.2-.5 2.4-.2 2.3-.3 2.4-.2 2.2-.6h.2l2.4-.1 2.2-.3 2.3-.4 2.4-.2 2.3-.5 2.4-.3 2.4-.2 2.3-.3 2.4-.1 4.6-.7 2.3-.5 2.4-.2 2.4-.1 7-1 2.2-.5 2.4-.4 2.4-.1 2.3-.3 2.3-.4 2.4-.2 2.3-.4 2.3-.3 2.4-.1 2.3-.5 2.4-.3 2.4-.1 2.3-.3 2.3-.3 2.3-.5 2.4-.3 2.3-.4h2.4l2.2-.5 2.5-.3 2.3-.3 2.3-.1 2.3-.6h2.4l2.3-.6 2.4-.1 2.3-.4 2.4-.1 2.3-.5 2.4-.1 2.3-.3 2.3-.5 2.4-.2 4.6-.8 2.4-.2 2.3-.4 2.4-.1 2.2-.3q.3 0 .5.1l.2.4.3 3 .6 2.9.3 3.1.3 3.1.6 2.9.2 3.2.4 3 1 6 .7 6.1.4 3 .6 6.1.4 3 .4 3 .6 3 .8 6.1.3 3 .3 3 .4 3.1.5 2.9.4 3.1.3 3.1.4 3 .3 3 .8 6c0 .3-.2.6-.5.6l-2.2.4-2.4.3-2.3.4-2.5.1-2.2.6-2.4.2-2.3.4-7.1.6-2.3.5-2.4.3-2.4.1-2.2.4-2.4.3-2.4.3-2.2.4-2.4.3-4.8.4-6.9 1.2-2.4.1-4.6.7-2.3.4h-2.5l-7 1-2.3.3-2.3.4-2.4.3-4.7.5-2.3.4-2.4.2-2.2.5-2.4.2-2.4.3-2.3.4-2.4.2-2.2.4-2.4.2-2.3.4-2.5.1-2.3.2-2.2.6-.1.1h-2.4l-2.3.3-2.3.4-2.3.5-7 .8-2.4.3-2.3.3-2.3.3-4.8.5-2.3.2-2.2.6h-2.5l-2.2.4h-.1zM97.5 77.2l.4 2.4.2 3.1.8 6 .5 3 1.3 12.1.5 3 .7 6.1.5 3 .4 3.1.4 3 .3 3 .6 3 .6 6.1.4 3 .6 3 .3 3.1.3 3 .8 6.1.3 3 .6 3 .7 5.5 1.7-.3h2.4l2.2-.6 7.1-.7 2.3-.3 2.4-.3 7-.8 2.3-.3 2.3-.5 4.7-.8h2.4l2.2-.6 2.5-.2 2.4-.1 2.2-.4 2.4-.2 2.3-.5 2.4-.1 2.3-.4 2.3-.3 2.4-.2 2.2-.5 2.5-.2 2.2-.4 7.1-.8 2.3-.4 2.4-.3 7-1h2.4l2.3-.4 4.7-.7 2.4-.1 6.9-1.2 4.8-.4 2.3-.3 2.3-.4 2.3-.4 2.4-.2 2.3-.4 2.4-.1 2.4-.3 2.2-.5 7.1-.6 2.3-.4 2.4-.3 2.3-.5 2.4-.1 2.3-.4 2.4-.3 1.7-.3-.7-5.4-.3-3.1-.5-3-.2-3.1-.4-3-.6-3-.3-3-.4-3-.2-3.1-.8-6-.6-3-.9-6.1-.5-6.1-.5-3-.7-6.1-.9-6-.4-3-.2-3.1-.6-2.9-.3-3.2-.3-3-.6-2.9-.3-2.5-1.7.2-2.4.1-2.3.4-2.4.2-4.6.9-2.4.1-2.2.5-2.4.3-2.4.2-2.2.4-2.5.2-2.2.3-2.5.2-2.2.5h-2.4l-2.2.6h-.1l-2.4.1-2.3.3-2.4.3-2.2.6h-2.5l-2.2.3-2.4.3-2.3.5-2.4.3-2.3.3-2.4.1-2.3.3-2.2.6h-2.6l-2.2.3-2.3.4-2.4.3-2.3.3-2.4.3-2.4.2-2.3.3-2.2.6-7.1.9-2.4.1-2.3.2-2.3.5-4.7.7-2.4.1-2.3.3-2.4.2-2.3.4-2.3.4-2.4.2-2.3.5-2.4.3H118l-2.3.6h-.1l-2.3.2-2.3.3-2.4.2-2.3.5-2.4.1-2.3.3z"/><path d="m240.2 65.4 10.7 70.4L116.8 156l-10.6-70.4z" style="opacity:.5;fill:#407bff"/><path class="e" d="m242.5 77-13.3-9.5 2.5-3.5 13.3 9.4zM124.3 157l-14.2-8 2.2-3.8 14.2 8z"/><path class="c" d="m135.3 88.5 12.3-2 .5 3.2-7.7 1.2.4 2.4 7.1-1.1.5 3-7.1 1.1.5 3 7.9-1.3.5 3.3-12.5 2z"/><path fill-rule="evenodd" class="c" d="m152.7 100.9-2.4-14.8 7.7-1.2q2.1-.4 3.3-.2 1.2.2 2 1.1.9.8 1.1 2.3.2 1.2-.2 2.2-.4.9-1.2 1.7-.5.4-1.5.8.8.1 1.3.4.2.1.8.6.6.5.8.8l2.9 4-5.2.8-3.1-4.1q-.6-.8-1-1-.6-.3-1.2-.2l-.4.1.9 6zm3.2-9.6 2-.3q.3 0 1.1-.4.5-.2.7-.6.2-.4.1-.9-.1-.7-.6-1-.5-.3-1.8-.1l-2 .3zM168.8 98.3l-2.3-14.8 7.6-1.2q2.1-.4 3.3-.2 1.2.2 2 1.1.9.8 1.1 2.2.2 1.3-.2 2.3-.4.9-1.2 1.6-.5.5-1.5.9.9.1 1.3.4.3.1.8.6.6.5.8.8l2.9 4-5.1.8-3.2-4.1q-.6-.8-1-1-.6-.3-1.2-.2l-.4.1 1 6zm3.1-9.6 2-.3q.3 0 1.1-.4.5-.2.7-.6.2-.4.2-.9-.2-.7-.7-1-.5-.3-1.7-.1l-2.1.3zM182.8 88.5q-.6-3.7 1.1-6 1.7-2.4 5.3-2.9 3.7-.6 6 1 2.3 1.7 2.9 5.3.4 2.6-.2 4.4-.6 1.8-2.1 3t-3.9 1.6q-2.6.4-4.3-.2-1.8-.5-3.1-2.1-1.3-1.5-1.7-4.1zm4.6-.7q.3 2.2 1.3 3 1 .9 2.4.7 1.5-.3 2.2-1.4.6-1.1.2-3.5-.3-2.1-1.3-3-1-.8-2.5-.6-1.3.3-2 1.4-.7 1.1-.3 3.4zM201.9 93l-2.4-14.8 7.6-1.3q2.1-.3 3.3-.1 1.2.2 2 1 .9.9 1.1 2.3.2 1.3-.2 2.2-.3 1-1.2 1.7-.5.5-1.5.9.9.1 1.3.3.3.2.8.7.6.5.8.8l3 3.9-5.2.9-3.2-4.2q-.6-.8-1-1-.6-.2-1.2-.1h-.4l1 6.1zm3.1-9.6 2-.3 1.2-.4q.4-.2.6-.6.3-.4.2-.9-.1-.7-.7-1-.5-.4-1.7-.2l-2 .4zM151.6 136.4l-17.8 2.9-1.3-8 14.3-24 8.6-1.4 3.4 21.6 4.5-.7 1.2 7.6-4.4.7 1 6.5-8.5 1.4zm-1.2-7.6-1.8-11-7.6 12.6z"/><path class="c" d="m197.2 135.8-29.3 4.8q-.2-4.5 1.7-8.7 1.9-4.2 8.1-10.6 3.8-3.9 4.7-5.7 1-1.9.7-3.4-.2-1.6-1.6-2.5-1.4-1-3.2-.7-1.8.3-2.8 1.7-1 1.4-1 4.4l-9.9.8q-.1-4.2 1.1-6.8 1.2-2.5 3.8-4.2 2.6-1.7 7.5-2.5 5.2-.8 8.2-.1 3.1.7 5.1 2.8 2 2.2 2.5 5.2.5 3.3-.9 6.5t-5.8 7.5q-2.6 2.5-3.5 3.5l-2 2.5 15.3-2.4z"/><path fill-rule="evenodd" class="c" d="m200.5 127.2 9.5-2.8q.7 2 1.8 2.7 1 .7 2.4.4 2.3-.3 3.2-2.9.7-1.9.3-7.7-1.5 2.1-3.2 3.3-1.7 1.1-4.1 1.5-4.7.7-8.5-2.1t-4.7-8q-.5-3.5.7-6.6 1.2-3.1 3.8-5.1 2.7-1.9 7.1-2.6 5.2-.9 8.7.4 3.5 1.3 6.1 4.9 2.5 3.7 3.5 10.1 1.6 9.6-1.7 14.6-3.3 5.1-10.4 6.3-4.2.6-6.8.1-2.6-.6-4.5-2.2t-3.2-4.3zm15.5-18.6q-.5-2.9-2.2-4.2-1.7-1.4-3.8-1.1-1.9.3-2.9 2-1.1 1.7-.6 4.6.5 2.9 2 4.3 1.6 1.3 3.6 1 2.1-.3 3.2-2.1 1.1-1.7.7-4.5z"/><path class="e" d="M280.4 228.1q-9.6 4.4-18.3 9.6c10.4 1.3 20.7 3.5 30.7 6.6q-5.5-8.3-12.4-16.2z"/><path class="e" d="M263.7 237c9.5 1.3 18.8 3.4 28 6.1 1.5.4 2.4 1.9 2 3.3l-4.8 14.4c-.5 1.3-2 2.1-3.3 1.6-8.2-2.4-16.4-4.2-24.8-5.3-1.5-.2-2.5-1.5-2.3-2.9q1-7.5 1.9-15c.2-1.4 1.7-2.4 3.3-2.2z"/><path class="f" d="M263.7 237c9.5 1.3 18.8 3.4 28 6.1 1.5.4 2.4 1.9 2 3.3l-4.8 14.4c-.5 1.3-2 2.1-3.3 1.6-8.2-2.4-16.4-4.2-24.8-5.3-1.5-.2-2.5-1.5-2.3-2.9q1-7.5 1.9-15c.2-1.4 1.7-2.4 3.3-2.2z"/><path class="e" d="M260.8 257.1c8.4 1.1 16.7 2.9 24.8 5.3.6.2 1.2.2 1.8-.1q-5.1-7.7-11.4-15-8.9 4.1-16.9 8.9c.4.5 1 .8 1.7.9z"/><path class="g" d="M260.8 257.1c8.4 1.1 16.7 2.9 24.8 5.3.6.2 1.2.2 1.8-.1q-5.1-7.7-11.4-15-8.9 4.1-16.9 8.9c.4.5 1 .8 1.7.9z"/><path class="e" d="M275.2 250.9q8.5-4 17.8-7.1-.5-.5-1.3-.7c-9.2-2.7-18.5-4.8-28-6.1q-.8-.1-1.5.2 7 6.6 13 13.7z"/><path class="h" d="M275.2 250.9q8.5-4 17.8-7.1-.5-.5-1.3-.7c-9.2-2.7-18.5-4.8-28-6.1q-.8-.1-1.5.2 7 6.6 13 13.7z"/><path class="e" d="m354.9 297.7-26.8-16.2c-1.5-.9-3.5-.4-4.4 1.1l-10.2 15.9c-1 1.5-.5 3.5 1 4.4l26.8 16.1c1.5.9 3.5.5 4.5-1l10.1-16c1-1.5.5-3.4-1-4.3z"/><path class="u" d="m354.9 297.7-26.8-16.2c-1.5-.9-3.5-.4-4.4 1.1l-10.2 15.9c-1 1.5-.5 3.5 1 4.4l26.8 16.1c1.5.9 3.5.5 4.5-1l10.1-16c1-1.5.5-3.4-1-4.3z"/><path class="e" d="m341.3 319-26.8-16.1c-.7-.4-1.2-1.1-1.4-1.8l23.1-3.1 7.3 21.4c-.7.2-1.5 0-2.2-.4z"/><path class="f" d="m341.3 319-26.8-16.1c-.7-.4-1.2-1.1-1.4-1.8l23.1-3.1 7.3 21.4c-.7.2-1.5 0-2.2-.4z"/><path class="e" d="m333.7 301.9-7.2-20.8q.9 0 1.6.4l26.8 16.2q.8.4 1.2 1.2zM324.6 252.7l-22.5-13.6c-1.3-.7-3-.4-3.8.9l-8.6 13.4c-.7 1.3-.3 2.9.9 3.7l22.6 13.5c1.2.8 2.9.4 3.7-.8l8.6-13.5c.8-1.2.4-2.8-.9-3.6z"/><path class="u" d="m324.6 252.7-22.5-13.6c-1.3-.7-3-.4-3.8.9l-8.6 13.4c-.7 1.3-.3 2.9.9 3.7l22.6 13.5c1.2.8 2.9.4 3.7-.8l8.6-13.5c.8-1.2.4-2.8-.9-3.6z"/><path class="e" d="m313.2 270.6-22.6-13.5c-.6-.4-1-.9-1.1-1.5l19.3-2.6 6.2 18c-.6.1-1.3 0-1.8-.4z"/><path class="f" d="m313.2 270.6-22.6-13.5c-.6-.4-1-.9-1.1-1.5l19.3-2.6 6.2 18c-.6.1-1.3 0-1.8-.4z"/><path class="e" d="m306.8 256.3-6.1-17.6q.7 0 1.4.4l22.5 13.6q.7.4 1 1zM195 283.3l-26.5-4c-1.5-.2-2.9.8-3.1 2.3l-2.5 15.8c-.3 1.4.8 2.8 2.3 3l26.5 4c1.5.2 2.9-.8 3.1-2.3l2.5-15.8c.3-1.4-.8-2.8-2.3-3z"/><path class="u" d="m195 283.3-26.5-4c-1.5-.2-2.9.8-3.1 2.3l-2.5 15.8c-.3 1.4.8 2.8 2.3 3l26.5 4c1.5.2 2.9-.8 3.1-2.3l2.5-15.8c.3-1.4-.8-2.8-2.3-3z"/><path class="e" d="m191.7 304.4-26.5-3.9c-.7-.1-1.3-.5-1.7-1l16.9-9.9 13.2 14.4c-.6.3-1.2.5-1.9.4z"/><path class="f" d="m191.7 304.4-26.5-3.9c-.7-.1-1.3-.5-1.7-1l16.9-9.9 13.2 14.4c-.6.3-1.2.5-1.9.4z"/><path class="e" d="m179.8 293.5-12.7-14q.6-.3 1.4-.2l26.5 4q.8.1 1.3.5zM321.3 275.1c-8.7 1.9-17.9 2.4-26.7 4.3-1.5.3-2.4 1.8-2 3.2l4.2 15.6c.4 1.5 1.9 2.3 3.4 2 8.8-1.9 18-2.4 26.8-4.3 1.5-.3 2.4-1.8 2-3.2l-4.2-15.6c-.4-1.4-2-2.3-3.5-2z"/><path class="u" d="M321.3 275.1c-8.7 1.9-17.9 2.4-26.7 4.3-1.5.3-2.4 1.8-2 3.2l4.2 15.6c.4 1.5 1.9 2.3 3.4 2 8.8-1.9 18-2.4 26.8-4.3 1.5-.3 2.4-1.8 2-3.2l-4.2-15.6c-.4-1.4-2-2.3-3.5-2z"/><path class="e" d="M327 295.9c-8.8 1.9-18 2.4-26.8 4.3-.7.2-1.4.1-1.9-.2 3.8-5.2 7.9-9.9 11.9-14.5 6.2 3.3 12.3 6.6 18.4 9.4-.4.5-.9.9-1.6 1z"/><path class="f" d="M327 295.9c-8.8 1.9-18 2.4-26.8 4.3-.7.2-1.4.1-1.9-.2 3.8-5.2 7.9-9.9 11.9-14.5 6.2 3.3 12.3 6.6 18.4 9.4-.4.5-.9.9-1.6 1z"/><path class="e" d="M311.2 289.3c-6-3.3-12-6.5-17.9-9.2q.5-.5 1.3-.7c8.8-1.9 18-2.4 26.7-4.3q.8-.1 1.5.1c-3.8 5-7.7 9.5-11.6 14.1zM277.5 256.1q11.4 6.5 21.4 14c-13.1.4-26 1.8-38.8 4.4q8-9.5 17.4-18.4z"/><path class="e" d="M297 269.1c-11.9.5-23.7 1.8-35.3 4-2 .4-3.3 2.1-2.9 3.8l4 18.4c.3 1.7 2.1 2.8 3.8 2.4 10.4-1.9 20.8-3.1 31.3-3.5 1.8 0 3.2-1.5 3.2-3.2l-.4-18.8c0-1.7-1.7-3.1-3.7-3.1z"/><path class="f" d="M297 269.1c-11.9.5-23.7 1.8-35.3 4-2 .4-3.3 2.1-2.9 3.8l4 18.4c.3 1.7 2.1 2.8 3.8 2.4 10.4-1.9 20.8-3.1 31.3-3.5 1.8 0 3.2-1.5 3.2-3.2l-.4-18.8c0-1.7-1.7-3.1-3.7-3.1z"/><path class="e" d="M297.9 294.2c-10.5.4-20.9 1.6-31.3 3.5-.8.2-1.6 0-2.2-.3q7.3-8.9 16-17.1 10.5 6.1 19.6 13.1c-.5.5-1.3.8-2.1.8z"/><path class="g" d="M297.9 294.2c-10.5.4-20.9 1.6-31.3 3.5-.8.2-1.6 0-2.2-.3q7.3-8.9 16-17.1 10.5 6.1 19.6 13.1c-.5.5-1.3.8-2.1.8z"/><path class="e" d="M281 284.8q-10-5.9-21.1-10.9.8-.6 1.8-.8c11.6-2.2 23.4-3.5 35.3-4 .7 0 1.3.2 1.9.4q-9.6 7.3-17.9 15.3z"/><path class="h" d="M281 284.8q-10-5.9-21.1-10.9.8-.6 1.8-.8c11.6-2.2 23.4-3.5 35.3-4 .7 0 1.3.2 1.9.4q-9.6 7.3-17.9 15.3z"/><path class="e" d="m288.1 275.9-31.1 4.7c-1.8.3-3 1.9-2.7 3.6l2.9 18.6c.3 1.7 2 2.9 3.7 2.6l31.1-4.7c1.8-.2 3-1.9 2.8-3.6l-3-18.5c-.3-1.8-1.9-2.9-3.7-2.7z"/><path class="u" d="m288.1 275.9-31.1 4.7c-1.8.3-3 1.9-2.7 3.6l2.9 18.6c.3 1.7 2 2.9 3.7 2.6l31.1-4.7c1.8-.2 3-1.9 2.8-3.6l-3-18.5c-.3-1.8-1.9-2.9-3.7-2.7z"/><path class="e" d="m292 300.7-31.1 4.7c-.8.1-1.6 0-2.2-.4l15.4-17 19.9 11.6c-.5.6-1.1 1-2 1.1z"/><path class="f" d="m292 300.7-31.1 4.7c-.8.1-1.6 0-2.2-.4l15.4-17 19.9 11.6c-.5.6-1.1 1-2 1.1z"/><path class="e" d="m274.8 292.6-19.4-11.3q.7-.6 1.6-.7l31.1-4.7q.9-.1 1.7.2zM260.1 250l10.7 16.6-28.7-7.7z"/><path class="e" d="m269.7 265.4-26-7c-1.5-.4-3.1.5-3.5 1.9l-4.4 15.5c-.4 1.4.5 2.9 2 3.3l25.9 7c1.5.4 3.1-.4 3.5-1.9l4.4-15.5c.4-1.4-.5-2.9-1.9-3.3z"/><path class="f" d="m269.7 265.4-26-7c-1.5-.4-3.1.5-3.5 1.9l-4.4 15.5c-.4 1.4.5 2.9 2 3.3l25.9 7c1.5.4 3.1-.4 3.5-1.9l4.4-15.5c.4-1.4-.5-2.9-1.9-3.3z"/><path class="e" d="m263.7 286.1-25.9-7c-.7-.1-1.3-.6-1.6-1.1l18.1-7.9 11.4 15.9c-.6.2-1.3.3-2 .1z"/><path class="g" d="m263.7 286.1-25.9-7c-.7-.1-1.3-.6-1.6-1.1l18.1-7.9 11.4 15.9c-.6.2-1.3.3-2 .1z"/><path class="e" d="m253.3 273.9-11.1-15.5q.7-.2 1.5 0l26 7q.7.2 1.2.7z"/><path class="h" d="m253.3 273.9-11.1-15.5q.7-.2 1.5 0l26 7q.7.2 1.2.7z"/><path class="e" d="M261.5 281.5c-10.4-1.6-20.5-5-30.9-6.6-1.8-.3-3.4 1-3.6 2.7q-1.2 9.3-2.3 18.7c-.3 1.7 1 3.3 2.8 3.5 10.4 1.7 20.5 5 30.9 6.6 1.8.3 3.4-1 3.6-2.7q1.2-9.3 2.3-18.6c.3-1.8-1-3.3-2.8-3.6z"/><path class="u" d="M261.5 281.5c-10.4-1.6-20.5-5-30.9-6.6-1.8-.3-3.4 1-3.6 2.7q-1.2 9.3-2.3 18.7c-.3 1.7 1 3.3 2.8 3.5 10.4 1.7 20.5 5 30.9 6.6 1.8.3 3.4-1 3.6-2.7q1.2-9.3 2.3-18.6c.3-1.8-1-3.3-2.8-3.6z"/><path class="e" d="M258.4 306.4c-10.4-1.6-20.5-4.9-30.9-6.6-.8-.1-1.5-.5-2-1 6.5-4 12.9-7.4 19.3-10.8 5.3 6.2 10.5 12.4 15.8 17.9-.6.4-1.4.6-2.2.5z"/><path class="f" d="M258.4 306.4c-10.4-1.6-20.5-4.9-30.9-6.6-.8-.1-1.5-.5-2-1 6.5-4 12.9-7.4 19.3-10.8 5.3 6.2 10.5 12.4 15.8 17.9-.6.4-1.4.6-2.2.5z"/><path class="e" d="M244.3 292.6c-5.1-6-10.2-12-15.4-17.5q.8-.3 1.7-.2c10.4 1.6 20.5 5 30.9 6.6q.9.1 1.6.7c-6.3 3.8-12.6 7.1-18.8 10.4zM204.9 269.3q10.6 4.9 20.2 10.8c-11.6 1.4-23.1 3.7-34.3 7q6.3-9.1 14.1-17.8z"/><path class="e" d="M223.4 279.4c-10.6 1.3-21.1 3.5-31.3 6.4-1.7.5-2.8 2.1-2.3 3.6q2.6 8.1 5.2 16.1c.4 1.5 2.1 2.3 3.6 1.9 9.1-2.6 18.4-4.5 27.7-5.6 1.6-.2 2.8-1.6 2.6-3.2q-1-8.4-1.9-16.8c-.2-1.5-1.8-2.6-3.6-2.4z"/><path class="f" d="M223.4 279.4c-10.6 1.3-21.1 3.5-31.3 6.4-1.7.5-2.8 2.1-2.3 3.6q2.6 8.1 5.2 16.1c.4 1.5 2.1 2.3 3.6 1.9 9.1-2.6 18.4-4.5 27.7-5.6 1.6-.2 2.8-1.6 2.6-3.2q-1-8.4-1.9-16.8c-.2-1.5-1.8-2.6-3.6-2.4z"/><path class="e" d="M226.3 301.8c-9.3 1.1-18.6 3-27.7 5.6-.7.2-1.4.1-2-.1q5.8-8.5 12.9-16.6 9.8 4.6 18.7 10.1c-.5.5-1.1.9-1.9 1z"/><path class="g" d="M226.3 301.8c-9.3 1.1-18.6 3-27.7 5.6-.7.2-1.4.1-2-.1q5.8-8.5 12.9-16.6 9.8 4.6 18.7 10.1c-.5.5-1.1.9-1.9 1z"/><path class="e" d="M210.4 294.7q-9.5-4.5-19.8-8.1.6-.6 1.5-.8c10.2-3 20.7-5.1 31.3-6.4q.9-.1 1.7.2-8 7.3-14.7 15.1z"/><path class="h" d="M210.4 294.7q-9.5-4.5-19.8-8.1.6-.6 1.5-.8c10.2-3 20.7-5.1 31.3-6.4q.9-.1 1.7.2-8 7.3-14.7 15.1z"/><path class="e" d="m139.4 302.6 36.1 2.2c2 .1 3.6 1.8 3.5 3.8l-1.4 21.5c-.1 2-1.9 3.5-4 3.4l-36.1-2.2c-2-.1-3.6-1.8-3.4-3.8l1.3-21.5c.2-2 1.9-3.5 4-3.4z"/><path class="u" d="m139.4 302.6 36.1 2.2c2 .1 3.6 1.8 3.5 3.8l-1.4 21.5c-.1 2-1.9 3.5-4 3.4l-36.1-2.2c-2-.1-3.6-1.8-3.4-3.8l1.3-21.5c.2-2 1.9-3.5 4-3.4z"/><path class="e" d="m137.5 331.3 36.1 2.2c1 .1 1.8-.2 2.5-.7L156.7 315l-21.5 15.3c.6.6 1.4 1 2.3 1z"/><path class="f" d="m137.5 331.3 36.1 2.2c1 .1 1.8-.2 2.5-.7L156.7 315l-21.5 15.3c.6.6 1.4 1 2.3 1z"/><path class="e" d="m156.4 320.2 20.9-14.8q-.8-.6-1.8-.6l-36.1-2.2c-.7-.1-1.4.1-1.9.4zM121.4 255.1l24 10c1.4.6 2 2.1 1.4 3.4l-6.3 14.3c-.6 1.4-2.2 2-3.5 1.4l-24-10c-1.4-.6-2-2.1-1.4-3.4l6.3-14.3c.6-1.4 2.2-2 3.5-1.4z"/><path class="u" d="m121.4 255.1 24 10c1.4.6 2 2.1 1.4 3.4l-6.3 14.3c-.6 1.4-2.2 2-3.5 1.4l-24-10c-1.4-.6-2-2.1-1.4-3.4l6.3-14.3c.6-1.4 2.2-2 3.5-1.4z"/><path class="e" d="m113 274.2 24 10c.6.3 1.2.3 1.8.1l-8.7-16.7-18.5 5.3c.3.6.8 1 1.4 1.3z"/><path class="f" d="m113 274.2 24 10c.6.3 1.2.3 1.8.1l-8.7-16.7-18.5 5.3c.3.6.8 1 1.4 1.3z"/><path class="e" d="m128.5 271.1 18-5.2q-.4-.5-1.1-.8l-24-10q-.7-.3-1.4-.2zM233.6 245.4l-27.6 5.9c-1.4.3-1.9 1.6-1.1 2.8l7.2 11.4c.8 1.2 2.6 1.9 3.9 1.6l27.6-5.9c1.4-.3 1.9-1.6 1.1-2.8l-7.2-11.3c-.8-1.3-2.5-2-3.9-1.7z"/><path class="u" d="m233.6 245.4-27.6 5.9c-1.4.3-1.9 1.6-1.1 2.8l7.2 11.4c.8 1.2 2.6 1.9 3.9 1.6l27.6-5.9c1.4-.3 1.9-1.6 1.1-2.8l-7.2-11.3c-.8-1.3-2.5-2-3.9-1.7z"/><path class="e" d="m243.3 261.2-27 5.9c-.7.1-1.4.1-2.1-.1l9.6-12.4 21.1 5.7c-.3.5-.8.8-1.6.9z"/><path class="f" d="m243.3 261.2-27 5.9c-.7.1-1.4.1-2.1-.1l9.6-12.4 21.1 5.7c-.3.5-.8.8-1.6.9z"/><path class="e" d="m225.6 257.5-20.6-5.6q.5-.4 1.3-.6l27-5.9q.8-.1 1.6 0zM326.2 312.9l30.4-4.5c1.7-.3 3.3.9 3.6 2.6l2.8 18.1c.3 1.7-.9 3.3-2.6 3.5l-30.4 4.6c-1.8.2-3.4-.9-3.7-2.6l-2.8-18.2c-.3-1.6.9-3.2 2.7-3.5z"/><path class="u" d="m326.2 312.9 30.4-4.5c1.7-.3 3.3.9 3.6 2.6l2.8 18.1c.3 1.7-.9 3.3-2.6 3.5l-30.4 4.6c-1.8.2-3.4-.9-3.7-2.6l-2.8-18.2c-.3-1.6.9-3.2 2.7-3.5z"/><path class="e" d="m330 337.2 30.4-4.6c.8-.1 1.5-.5 1.9-1l-19.4-11.4-15.1 16.5c.6.4 1.4.6 2.2.5z"/><path class="f" d="m330 337.2 30.4-4.6c.8-.1 1.5-.5 1.9-1l-19.4-11.4-15.1 16.5c.6.4 1.4.6 2.2.5z"/><path class="e" d="m343.6 324.6 14.6-16q-.8-.3-1.6-.2l-30.4 4.5q-.9.1-1.6.7zM173.5 265.6l-18.2 19.5 39.8-3.5z"/><path class="e" d="m157.1 283.8 36-3.2c2.1-.2 3.9 1.2 4.1 3.2l2 21.5c.2 2-1.3 3.8-3.4 4l-36 3.2c-2 .2-3.8-1.3-4-3.3l-2.1-21.5c-.1-2 1.4-3.7 3.4-3.9z"/><path class="f" d="m157.1 283.8 36-3.2c2.1-.2 3.9 1.2 4.1 3.2l2 21.5c.2 2-1.3 3.8-3.4 4l-36 3.2c-2 .2-3.8-1.3-4-3.3l-2.1-21.5c-.1-2 1.4-3.7 3.4-3.9z"/><path class="e" d="m159.8 312.5 36-3.2c1-.1 1.8-.5 2.4-1.2l-22-14.6-18.9 18.3c.7.5 1.6.8 2.5.7z"/><path class="g" d="m159.8 312.5 36-3.2c1-.1 1.8-.5 2.4-1.2l-22-14.6-18.9 18.3c.7.5 1.6.8 2.5.7z"/><path class="e" d="m176.7 298.7 18.3-17.8q-.8-.4-1.9-.3l-36 3.2c-.7 0-1.3.3-1.8.6z"/><path class="h" d="m176.7 298.7 18.3-17.8q-.8-.4-1.9-.3l-36 3.2c-.7 0-1.3.3-1.8.6z"/><path class="e" d="M181.1 303.6c10.1 2.2 20.6 2.7 30.7 4.9 1.7.3 2.8 2.1 2.3 3.7q-2.4 8.9-4.8 17.9c-.5 1.6-2.2 2.6-3.9 2.3-10.1-2.2-20.7-2.8-30.8-4.9-1.7-.4-2.7-2.1-2.3-3.8q2.5-8.9 4.9-17.8c.4-1.7 2.2-2.7 3.9-2.3z"/><path class="u" d="M181.1 303.6c10.1 2.2 20.6 2.7 30.7 4.9 1.7.3 2.8 2.1 2.3 3.7q-2.4 8.9-4.8 17.9c-.5 1.6-2.2 2.6-3.9 2.3-10.1-2.2-20.7-2.8-30.8-4.9-1.7-.4-2.7-2.1-2.3-3.8q2.5-8.9 4.9-17.8c.4-1.7 2.2-2.7 3.9-2.3z"/><path class="e" d="M174.6 327.5c10.1 2.1 20.7 2.7 30.8 4.9.7.1 1.5 0 2.2-.3-4.5-6-9.1-11.3-13.7-16.7-7.1 3.8-14.2 7.7-21.1 10.9.4.6 1.1 1 1.8 1.2z"/><path class="f" d="M174.6 327.5c10.1 2.1 20.7 2.7 30.8 4.9.7.1 1.5 0 2.2-.3-4.5-6-9.1-11.3-13.7-16.7-7.1 3.8-14.2 7.7-21.1 10.9.4.6 1.1 1 1.8 1.2z"/><path class="e" d="M192.7 319.8c6.9-3.7 13.8-7.4 20.6-10.6q-.6-.5-1.5-.7c-10.1-2.2-20.6-2.7-30.7-4.9q-.9-.2-1.7 0c4.3 5.8 8.8 11 13.3 16.2zM116.7 332.5c-3.6 9.1-6.6 18.2-9 27.3 12.1-8.6 24.8-16.3 38.2-22.8-9.4-2-19.2-3.6-29.2-4.5z"/><path class="e" d="M108.7 357.6c11-7.8 22.6-14.7 34.8-20.7 2-1.1 4.5-.4 5.4 1.4q4.9 9.6 9.8 19.3c.9 1.8.1 4-1.7 4.9-10.7 5.4-21 11.5-30.8 18.4-1.6 1.2-4 .9-5.2-.7L107.6 363c-1.3-1.6-.8-4 1.1-5.4z"/><path class="f" d="M108.7 357.6c11-7.8 22.6-14.7 34.8-20.7 2-1.1 4.5-.4 5.4 1.4q4.9 9.6 9.8 19.3c.9 1.8.1 4-1.7 4.9-10.7 5.4-21 11.5-30.8 18.4-1.6 1.2-4 .9-5.2-.7L107.6 363c-1.3-1.6-.8-4 1.1-5.4z"/><path class="e" d="M126.2 380.9c9.8-6.9 20.1-13 30.8-18.4.8-.4 1.4-1.1 1.8-1.9-8.7-1.9-17.7-3.4-27-4.3-3.3 8.4-6 16.9-8.1 25.3.8.1 1.7-.1 2.5-.7z"/><path class="g" d="M126.2 380.9c9.8-6.9 20.1-13 30.8-18.4.8-.4 1.4-1.1 1.8-1.9-8.7-1.9-17.7-3.4-27-4.3-3.3 8.4-6 16.9-8.1 25.3.8.1 1.7-.1 2.5-.7z"/><path class="e" d="M134.6 360.7c3.1-8.1 6.8-16.3 11-24.3-.7 0-1.5.1-2.1.5-12.2 6-23.8 12.9-34.8 20.7-.6.5-1.1 1.1-1.4 1.7 9.3-.1 18.5.4 27.3 1.4z"/><path class="h" d="M134.6 360.7c3.1-8.1 6.8-16.3 11-24.3-.7 0-1.5.1-2.1.5-12.2 6-23.8 12.9-34.8 20.7-.6.5-1.1 1.1-1.4 1.7 9.3-.1 18.5.4 27.3 1.4z"/><path class="e" d="m219.3 304.5 35.7 5.4c2 .3 3.4 2.1 3.1 4.1l-3.4 21.3c-.3 2-2.2 3.3-4.2 3l-35.8-5.3c-2-.4-3.4-2.2-3.1-4.2l3.4-21.3c.3-2 2.3-3.3 4.3-3z"/><path class="u" d="m219.3 304.5 35.7 5.4c2 .3 3.4 2.1 3.1 4.1l-3.4 21.3c-.3 2-2.2 3.3-4.2 3l-35.8-5.3c-2-.4-3.4-2.2-3.1-4.2l3.4-21.3c.3-2 2.3-3.3 4.3-3z"/><path class="e" d="m214.7 333 35.8 5.3c.9.2 1.8 0 2.5-.5l-17.6-19.4-22.9 13.3c.5.7 1.3 1.1 2.2 1.3z"/><path class="f" d="m214.7 333 35.8 5.3c.9.2 1.8 0 2.5-.5l-17.6-19.4-22.9 13.3c.5.7 1.3 1.1 2.2 1.3z"/><path class="e" d="m234.5 323.6 22.3-13q-.8-.6-1.8-.7l-35.7-5.4c-.7-.1-1.4 0-2 .2z"/><path class="c" d="m235.3 324.1-26.4-1.5 2-33.5 26.5 1.5z"/><path class="v" d="m234.7 297.7-22-1.3.1-1.6 22 1.2zM225.6 302.4l-13.2-.8.1-1.7 13.2.8zM232.4 302.8l-4.3-.3.1-1.7 4.3.3zM234.1 308l-22-1.2.1-1.7 22 1.3zM228.9 312.9l-17.2-.9.1-1.7 17.2 1zM233.5 318.4l-13-.7.1-1.7 13 .7zM211.4 317.1l7 .4.1-1.6-7-.4z"/><path class="c" d="m180.1 298.5-19.4 5.5-13.9-22.5 19.5-5.4z"/><path class="v" d="m167.7 281.4-16.3 4.5-.6-1.1 16.2-4.5zM163.4 286.7l-9.8 2.7-.7-1.1 9.8-2.8zM168.4 285.3l-3.3.9-.6-1.2 3.2-.8zM172 288.3l-16.3 4.5-.7-1.1 16.3-4.5zM170.5 292.8l-12.7 3.5-.7-1.1 12.7-3.5zM176.2 295.2l-9.5 2.7-.7-1.1 9.5-2.7zM160 299.8l5.1-1.5-.7-1.1-5.1 1.4z"/><path class="e" d="m251.4 274.7-12.2 19.1 32.9-8.8z"/><path class="e" d="m240.4 292.4 29.9-8c1.7-.5 3.4.5 3.9 2.1l5.1 17.8c.5 1.7-.5 3.4-2.2 3.9l-29.9 8c-1.7.5-3.4-.5-3.9-2.2l-5.1-17.8c-.5-1.6.5-3.3 2.2-3.8z"/><path class="f" d="m240.4 292.4 29.9-8c1.7-.5 3.4.5 3.9 2.1l5.1 17.8c.5 1.7-.5 3.4-2.2 3.9l-29.9 8c-1.7.5-3.4-.5-3.9-2.2l-5.1-17.8c-.5-1.6.5-3.3 2.2-3.8z"/><path class="e" d="m247.2 316.2 29.9-8c.7-.2 1.4-.7 1.8-1.3l-20.9-9.1-13 18.2c.7.3 1.4.4 2.2.2z"/><path class="g" d="m247.2 316.2 29.9-8c.7-.2 1.4-.7 1.8-1.3l-20.9-9.1-13 18.2c.7.3 1.4.4 2.2.2z"/><path class="e" d="m259.3 302.1 12.7-17.7q-.9-.2-1.7 0l-29.9 8q-.8.3-1.4.8z"/><path class="h" d="m259.3 302.1 12.7-17.7q-.9-.2-1.7 0l-29.9 8q-.8.3-1.4.8z"/><path class="e" d="M249.8 310.9c11.9-1.9 23.6-5.7 35.5-7.6 2-.3 3.9 1.1 4.1 3.1q1.4 10.7 2.7 21.4c.2 2-1.2 3.8-3.2 4.1-12 1.9-23.6 5.7-35.5 7.6-2.1.3-3.9-1.1-4.2-3.1q-1.3-10.7-2.7-21.4c-.2-2 1.3-3.8 3.3-4.1z"/><path class="u" d="M249.8 310.9c11.9-1.9 23.6-5.7 35.5-7.6 2-.3 3.9 1.1 4.1 3.1q1.4 10.7 2.7 21.4c.2 2-1.2 3.8-3.2 4.1-12 1.9-23.6 5.7-35.5 7.6-2.1.3-3.9-1.1-4.2-3.1q-1.3-10.7-2.7-21.4c-.2-2 1.3-3.8 3.3-4.1z"/><path class="e" d="M253.4 339.5c11.9-1.9 23.5-5.7 35.5-7.6.9-.1 1.7-.6 2.3-1.2-7.5-4.6-14.9-8.5-22.3-12.3-6 7.1-12 14.2-18.1 20.5.8.5 1.6.7 2.6.6z"/><path class="f" d="M253.4 339.5c11.9-1.9 23.5-5.7 35.5-7.6.9-.1 1.7-.6 2.3-1.2-7.5-4.6-14.9-8.5-22.3-12.3-6 7.1-12 14.2-18.1 20.5.8.5 1.6.7 2.6.6z"/><path class="e" d="M269.6 323.6c5.8-6.9 11.7-13.8 17.6-20q-.9-.4-1.9-.3c-11.9 1.9-23.6 5.7-35.5 7.6-.7.1-1.3.3-1.8.7 7.2 4.5 14.4 8.2 21.6 12z"/><path class="c" d="M284.2 298.4q12.5 4.6 25.1 9.1c8.1-9.1 4.2-22.7 12.3-31.9q-12.6-4.6-25.1-9.1c-8.2 9.1-4.2 22.7-12.3 31.9z"/><path class="v" d="m290.1 292.7 21 7.6q-.3.8-.7 1.6-10.5-3.8-21-7.7.4-.7.7-1.5zM299.9 290.6l12.6 4.6q-.2.9-.4 1.7l-12.6-4.6q.2-.8.4-1.7zM293.5 288.3q2 .7 4.1 1.5-.2.8-.4 1.7-2.1-.8-4.1-1.6l.4-1.6zM292.6 282.3q10.5 3.9 20.9 7.7-.1.8-.3 1.7-10.5-3.8-21-7.7.2-.8.4-1.7zM298.3 278.8l16.4 6q-.3.8-.4 1.6-8.2-2.9-16.4-5.9.2-.9.4-1.7zM295.4 272.1q6.2 2.3 12.3 4.5l-.6 1.6q-6.2-2.2-12.4-4.5.3-.8.7-1.6zM316.4 279.8l-6.6-2.4q-.4.8-.7 1.5l6.6 2.4q.3-.8.7-1.5z"/><path class="e" d="M312.9 291.9c-9.1 4.2-17.8 8.8-25.9 13.9 14.8 1.7 29.5 4.7 43.8 8.9-5.4-7.8-11.4-15.4-17.9-22.8z"/><path class="e" d="M289.2 304.8c13.5 1.7 26.9 4.4 40 8.2 2.2.6 3.5 2.7 2.9 4.6l-6.6 20.6c-.6 1.9-2.7 3-4.7 2.4-11.6-3.3-23.4-5.7-35.4-7.2-2-.2-3.5-2-3.3-4q1.3-10.7 2.5-21.5c.2-1.9 2.3-3.4 4.6-3.1z"/><path class="f" d="M289.2 304.8c13.5 1.7 26.9 4.4 40 8.2 2.2.6 3.5 2.7 2.9 4.6l-6.6 20.6c-.6 1.9-2.7 3-4.7 2.4-11.6-3.3-23.4-5.7-35.4-7.2-2-.2-3.5-2-3.3-4q1.3-10.7 2.5-21.5c.2-1.9 2.3-3.4 4.6-3.1z"/><path class="e" d="M285.4 333.4c12 1.5 23.8 3.9 35.4 7.2.9.3 1.9.2 2.7-.2-5-7.2-10.5-14.3-16.5-21.2-8.4 4-16.4 8.3-23.9 13 .6.7 1.4 1.1 2.3 1.2z"/><path class="g" d="M285.4 333.4c12 1.5 23.8 3.9 35.4 7.2.9.3 1.9.2 2.7-.2-5-7.2-10.5-14.3-16.5-21.2-8.4 4-16.4 8.3-23.9 13 .6.7 1.4 1.1 2.3 1.2z"/><path class="e" d="M305.9 324.4c8-3.9 16.4-7.3 25.2-10.4-.5-.5-1.2-.8-1.9-1-13.1-3.8-26.5-6.5-40-8.2-.7-.1-1.5 0-2.1.3 6.7 6.2 13 12.6 18.8 19.3z"/><path class="h" d="M305.9 324.4c8-3.9 16.4-7.3 25.2-10.4-.5-.5-1.2-.8-1.9-1-13.1-3.8-26.5-6.5-40-8.2-.7-.1-1.5 0-2.1.3 6.7 6.2 13 12.6 18.8 19.3z"/><path class="e" d="M175.2 236.4q-5.3 9.3-9.3 18.8c9.5-5.1 19.5-9.3 29.8-12.6q-9.8-3.7-20.5-6.2z"/><path class="e" d="M166.8 253.7c8.7-4.5 17.8-8.4 27.2-11.5 1.6-.5 3.3.2 3.7 1.6q2.5 7.4 5.1 14.9c.4 1.3-.4 2.8-1.8 3.3-8.3 2.8-16.3 6.2-24.1 10.2-1.3.7-3 .2-3.7-1.1q-3.9-6.8-7.8-13.7c-.7-1.2-.1-2.9 1.4-3.7z"/><path class="f" d="M166.8 253.7c8.7-4.5 17.8-8.4 27.2-11.5 1.6-.5 3.3.2 3.7 1.6q2.5 7.4 5.1 14.9c.4 1.3-.4 2.8-1.8 3.3-8.3 2.8-16.3 6.2-24.1 10.2-1.3.7-3 .2-3.7-1.1q-3.9-6.8-7.8-13.7c-.7-1.2-.1-2.9 1.4-3.7z"/><path class="e" d="M176.9 272.2c7.8-4 15.8-7.4 24.1-10.2.7-.2 1.2-.6 1.5-1.2q-9.1-3.4-18.9-5.8-5 8.7-8.6 17.4c.6.2 1.3.1 1.9-.2z"/><path class="g" d="M176.9 272.2c7.8-4 15.8-7.4 24.1-10.2.7-.2 1.2-.6 1.5-1.2q-9.1-3.4-18.9-5.8-5 8.7-8.6 17.4c.6.2 1.3.1 1.9-.2z"/><path class="e" d="M185.1 258.5q4.6-8.3 10.5-16.4-.8-.2-1.6.1c-9.4 3.1-18.5 7-27.2 11.5q-.8.4-1.2 1 10.1 1.4 19.5 3.8z"/><path class="h" d="M185.1 258.5q4.6-8.3 10.5-16.4-.8-.2-1.6.1c-9.4 3.1-18.5 7-27.2 11.5q-.8.4-1.2 1 10.1 1.4 19.5 3.8z"/><path class="e" d="m402 271.4-3.6-1.2.3-.9q1.8.7 3.6 1.3zM395.6 269.3c-2.7-.9-5.6-1.6-8.4-2.3l.3-.9c2.8.7 5.6 1.5 8.4 2.3zM386.7 269.1q-3.8 6.6-6.6 13.3c6.8-3.5 13.8-6.5 21.1-8.9q-7-2.6-14.5-4.4z"/><path class="e" d="M380.8 281.4c6.1-3.2 12.6-5.9 19.2-8.1 1.1-.4 2.3.1 2.6 1.1q1.8 5.2 3.6 10.5c.3.9-.3 2-1.3 2.3q-8.8 3-17 7.2c-.9.5-2.1.2-2.6-.7q-2.8-4.9-5.5-9.7c-.5-.9-.1-2.1 1-2.6z"/><path class="f" d="M380.8 281.4c6.1-3.2 12.6-5.9 19.2-8.1 1.1-.4 2.3.1 2.6 1.1q1.8 5.2 3.6 10.5c.3.9-.3 2-1.3 2.3q-8.8 3-17 7.2c-.9.5-2.1.2-2.6-.7q-2.8-4.9-5.5-9.7c-.5-.9-.1-2.1 1-2.6z"/><path class="e" d="M387.9 294.4q8.2-4.2 17-7.2c.5-.1.8-.4 1.1-.8q-6.4-2.4-13.4-4.1-3.5 6.1-6 12.3c.4.1.9 0 1.3-.2z"/><path class="g" d="M387.9 294.4q8.2-4.2 17-7.2c.5-.1.8-.4 1.1-.8q-6.4-2.4-13.4-4.1-3.5 6.1-6 12.3c.4.1.9 0 1.3-.2z"/><path class="e" d="M393.7 284.8q3.3-5.9 7.4-11.6-.6-.1-1.1.1-10 3.3-19.2 8.1-.6.2-.9.7 7.1 1 13.8 2.7z"/><path class="h" d="M393.7 284.8q3.3-5.9 7.4-11.6-.6-.1-1.1.1-10 3.3-19.2 8.1-.6.2-.9.7 7.1 1 13.8 2.7z"/><path class="e" d="m338.6 259.6 13.9 10.4-30.4-1.9z"/><path class="e" d="m351.2 269.3-27.5-1.7c-1.6-.1-3 .7-3.1 1.7l-1.6 11.6c-.1 1 1 2 2.6 2.1l27.5 1.7c1.6.1 3-.7 3.1-1.7l1.6-11.6c.1-1-1.1-2-2.6-2.1z"/><path class="f" d="m351.2 269.3-27.5-1.7c-1.6-.1-3 .7-3.1 1.7l-1.6 11.6c-.1 1 1 2 2.6 2.1l27.5 1.7c1.6.1 3-.7 3.1-1.7l1.6-11.6c.1-1-1.1-2-2.6-2.1z"/><path class="e" d="m349.1 284.7-27.5-1.7c-.7-.1-1.4-.3-1.8-.6l16.8-7.9 14.4 9.8c-.5.3-1.2.5-1.9.4z"/><path class="g" d="m349.1 284.7-27.5-1.7c-.7-.1-1.4-.3-1.8-.6l16.8-7.9 14.4 9.8c-.5.3-1.2.5-1.9.4z"/><path class="e" d="m336.2 277.3-14-9.6q.7-.2 1.5-.1l27.5 1.7q.8.1 1.4.4z"/><path class="h" d="m336.2 277.3-14-9.6q.7-.2 1.5-.1l27.5 1.7q.8.1 1.4.4z"/><path class="e" d="M283.1 286.5c-8.5 4.9-16.6 10.3-24.1 15.9 14.7.4 29.4 2.1 43.9 4.9-6-7.1-12.6-14.1-19.8-20.8z"/><path class="e" d="M261.1 301.3c13.4.5 26.8 2 40 4.5 2.2.4 3.7 2.4 3.3 4.3q-2.3 10.4-4.5 20.8c-.5 1.9-2.4 3.2-4.4 2.8-11.7-2.2-23.6-3.6-35.5-4-2-.1-3.6-1.7-3.6-3.7q.3-10.6.5-21.2c0-2 1.9-3.6 4.2-3.5z"/><path class="f" d="M261.1 301.3c13.4.5 26.8 2 40 4.5 2.2.4 3.7 2.4 3.3 4.3q-2.3 10.4-4.5 20.8c-.5 1.9-2.4 3.2-4.4 2.8-11.7-2.2-23.6-3.6-35.5-4-2-.1-3.6-1.7-3.6-3.7q.3-10.6.5-21.2c0-2 1.9-3.6 4.2-3.5z"/><path class="e" d="M260 329.7c11.9.4 23.8 1.8 35.5 4 .9.2 1.8 0 2.5-.4-5.5-6.7-11.5-13.2-18.1-19.4-7.9 4.6-15.3 9.6-22.3 14.9.7.5 1.5.9 2.4.9z"/><path class="g" d="M260 329.7c11.9.4 23.8 1.8 35.5 4 .9.2 1.8 0 2.5-.4-5.5-6.7-11.5-13.2-18.1-19.4-7.9 4.6-15.3 9.6-22.3 14.9.7.5 1.5.9 2.4.9z"/><path class="e" d="M279.3 319.1q11.2-6.8 23.8-12.4c-.6-.5-1.3-.8-2-.9-13.2-2.5-26.6-4-40-4.5-.8 0-1.5.1-2.1.4q10.9 8.3 20.3 17.4z"/><path class="h" d="M279.3 319.1q11.2-6.8 23.8-12.4c-.6-.5-1.3-.8-2-.9-13.2-2.5-26.6-4-40-4.5-.8 0-1.5.1-2.1.4q10.9 8.3 20.3 17.4z"/><path class="e" d="M389.7 372.3 359 353.8c-1.7-1-4-.5-5.1 1.2l-11.7 18.3c-1.1 1.7-.5 4 1.2 5l30.7 18.5c1.8 1 4.1.5 5.2-1.2l11.7-18.3c1-1.7.5-3.9-1.3-5z"/><path class="u" d="M389.7 372.3 359 353.8c-1.7-1-4-.5-5.1 1.2l-11.7 18.3c-1.1 1.7-.5 4 1.2 5l30.7 18.5c1.8 1 4.1.5 5.2-1.2l11.7-18.3c1-1.7.5-3.9-1.3-5z"/><path class="e" d="m374.1 396.8-30.7-18.5c-.8-.5-1.3-1.2-1.6-2l26.4-3.6 8.5 24.6c-.9.1-1.8 0-2.6-.5z"/><path class="f" d="m374.1 396.8-30.7-18.5c-.8-.5-1.3-1.2-1.6-2l26.4-3.6 8.5 24.6c-.9.1-1.8 0-2.6-.5z"/><path class="e" d="m365.4 377.2-8.2-23.9q1 0 1.8.5l30.7 18.5c.6.4 1.1.9 1.4 1.4zM335.3 320.9l-25.9-15.6c-1.4-.8-3.4-.4-4.3 1l-9.8 15.4c-1 1.5-.5 3.4 1 4.2l25.8 15.6c1.5.9 3.4.4 4.3-1l9.9-15.4c.9-1.4.4-3.3-1-4.2z"/><path class="u" d="m335.3 320.9-25.9-15.6c-1.4-.8-3.4-.4-4.3 1l-9.8 15.4c-1 1.5-.5 3.4 1 4.2l25.8 15.6c1.5.9 3.4.4 4.3-1l9.9-15.4c.9-1.4.4-3.3-1-4.2z"/><path class="e" d="m322.1 341.5-25.8-15.6c-.7-.4-1.2-1-1.4-1.7l22.3-3 7.1 20.7c-.7.1-1.5 0-2.2-.4z"/><path class="f" d="m322.1 341.5-25.8-15.6c-.7-.4-1.2-1-1.4-1.7l22.3-3 7.1 20.7c-.7.1-1.5 0-2.2-.4z"/><path class="e" d="m314.8 325-7-20.1q.9 0 1.6.4l25.9 15.6q.7.5 1.1 1.2zM387.3 346.5l-18.4 4.7c-1.1.3-1.7 1.3-1.4 2.3l2.9 11c.3 1.1 1.4 1.7 2.4 1.4l18.5-4.7c1-.3 1.7-1.3 1.4-2.3l-3-11c-.3-1.1-1.4-1.7-2.4-1.4z"/><path class="u" d="m387.3 346.5-18.4 4.7c-1.1.3-1.7 1.3-1.4 2.3l2.9 11c.3 1.1 1.4 1.7 2.4 1.4l18.5-4.7c1-.3 1.7-1.3 1.4-2.3l-3-11c-.3-1.1-1.4-1.7-2.4-1.4z"/><path class="e" d="m391.3 361.2-18.5 4.7c-.4.1-.9.1-1.3-.1l8.2-11.2 12.7 5.8c-.2.4-.6.7-1.1.8z"/><path class="f" d="m391.3 361.2-18.5 4.7c-.4.1-.9.1-1.3-.1l8.2-11.2 12.7 5.8c-.2.4-.6.7-1.1.8z"/><path class="e" d="m380.4 357.3-12.4-5.6q.3-.3.9-.5l18.4-4.7q.5-.1 1 0zM187.1 353.6l-30.4-4.5c-1.7-.2-3.3.9-3.6 2.6l-2.8 18.1c-.3 1.7.9 3.3 2.6 3.6l30.4 4.5c1.7.2 3.4-.9 3.6-2.6l2.9-18.1c.2-1.7-1-3.3-2.7-3.6z"/><path class="u" d="m187.1 353.6-30.4-4.5c-1.7-.2-3.3.9-3.6 2.6l-2.8 18.1c-.3 1.7.9 3.3 2.6 3.6l30.4 4.5c1.7.2 3.4-.9 3.6-2.6l2.9-18.1c.2-1.7-1-3.3-2.7-3.6z"/><path class="e" d="m183.3 377.9-30.4-4.5c-.8-.2-1.5-.6-1.9-1.1l19.4-11.4 15.1 16.5c-.6.4-1.4.6-2.2.5z"/><path class="f" d="m183.3 377.9-30.4-4.5c-.8-.2-1.5-.6-1.9-1.1l19.4-11.4 15.1 16.5c-.6.4-1.4.6-2.2.5z"/><path class="e" d="m169.7 365.3-14.6-16q.7-.3 1.6-.2l30.4 4.5q.9.2 1.5.7zM346.4 350.1c-12.4 2.7-25.4 3.4-37.8 6.1-2.1.4-3.3 2.5-2.8 4.5l6 22c.5 2 2.7 3.3 4.8 2.8 12.4-2.7 25.3-3.3 37.7-6 2.1-.5 3.4-2.6 2.8-4.6q-2.9-11-5.9-22c-.5-2-2.7-3.2-4.8-2.8z"/><path class="u" d="M346.4 350.1c-12.4 2.7-25.4 3.4-37.8 6.1-2.1.4-3.3 2.5-2.8 4.5l6 22c.5 2 2.7 3.3 4.8 2.8 12.4-2.7 25.3-3.3 37.7-6 2.1-.5 3.4-2.6 2.8-4.6q-2.9-11-5.9-22c-.5-2-2.7-3.2-4.8-2.8z"/><path class="e" d="M354.3 379.5c-12.4 2.7-25.3 3.3-37.7 6-1 .2-2 .1-2.8-.3 5.5-7.3 11.2-13.9 16.8-20.5 8.8 4.7 17.5 9.4 26 13.3-.5.7-1.3 1.3-2.3 1.5z"/><path class="f" d="M354.3 379.5c-12.4 2.7-25.3 3.3-37.7 6-1 .2-2 .1-2.8-.3 5.5-7.3 11.2-13.9 16.8-20.5 8.8 4.7 17.5 9.4 26 13.3-.5.7-1.3 1.3-2.3 1.5z"/><path class="e" d="M332.1 370.1c-8.5-4.6-17-9.1-25.3-13 .5-.5 1.1-.8 1.8-1 12.4-2.6 25.4-3.3 37.8-6 .7-.1 1.4-.1 2.1.1-5.4 7.1-10.9 13.5-16.4 19.9zM281.8 322.5c8.7 5 16.8 10.4 24.5 16.1-15 .4-29.9 2.1-44.5 5 6.1-7.3 12.8-14.4 20-21.1z"/><path class="e" d="M304.1 337.4c-13.6.5-27.1 2-40.5 4.6-2.3.4-3.8 2.4-3.3 4.3q2.3 10.6 4.6 21.1c.4 2 2.4 3.2 4.4 2.8 11.8-2.2 23.8-3.6 35.9-4 2-.1 3.7-1.7 3.6-3.7l-.4-21.6c0-1.9-2-3.5-4.3-3.5z"/><path class="f" d="M304.1 337.4c-13.6.5-27.1 2-40.5 4.6-2.3.4-3.8 2.4-3.3 4.3q2.3 10.6 4.6 21.1c.4 2 2.4 3.2 4.4 2.8 11.8-2.2 23.8-3.6 35.9-4 2-.1 3.7-1.7 3.6-3.7l-.4-21.6c0-1.9-2-3.5-4.3-3.5z"/><path class="e" d="M305.2 366.2c-12.1.4-24.1 1.8-35.9 4-.9.2-1.8 0-2.6-.4 5.6-6.7 11.7-13.3 18.4-19.6 8 4.7 15.5 9.7 22.5 15-.6.6-1.5 1-2.4 1z"/><path class="g" d="M305.2 366.2c-12.1.4-24.1 1.8-35.9 4-.9.2-1.8 0-2.6-.4 5.6-6.7 11.7-13.3 18.4-19.6 8 4.7 15.5 9.7 22.5 15-.6.6-1.5 1-2.4 1z"/><path class="e" d="M285.7 355.4c-7.6-4.5-15.6-8.7-24.1-12.5.6-.5 1.2-.8 2-.9 13.4-2.6 26.9-4.1 40.5-4.6.8 0 1.5.2 2.2.5-7.4 5.5-14.2 11.4-20.6 17.5z"/><path class="h" d="M285.7 355.4c-7.6-4.5-15.6-8.7-24.1-12.5.6-.5 1.2-.8 2-.9 13.4-2.6 26.9-4.1 40.5-4.6.8 0 1.5.2 2.2.5-7.4 5.5-14.2 11.4-20.6 17.5z"/><path class="e" d="m293.9 345.2-35.7 5.4c-2 .3-3.4 2.2-3.1 4.1l3.4 21.3c.3 2 2.2 3.3 4.2 3l35.7-5.3c2.1-.3 3.5-2.2 3.2-4.2l-3.4-21.3c-.4-1.9-2.3-3.3-4.3-3z"/><path class="u" d="m293.9 345.2-35.7 5.4c-2 .3-3.4 2.2-3.1 4.1l3.4 21.3c.3 2 2.2 3.3 4.2 3l35.7-5.3c2.1-.3 3.5-2.2 3.2-4.2l-3.4-21.3c-.4-1.9-2.3-3.3-4.3-3z"/><path class="e" d="m298.4 373.7-35.7 5.3c-.9.2-1.8 0-2.5-.5l17.6-19.4 22.9 13.3c-.5.7-1.3 1.1-2.3 1.3z"/><path class="f" d="m298.4 373.7-35.7 5.3c-.9.2-1.8 0-2.5-.5l17.6-19.4 22.9 13.3c-.5.7-1.3 1.1-2.3 1.3z"/><path class="e" d="m278.7 364.3-22.3-12.9q.8-.6 1.8-.8l35.7-5.4c.7-.1 1.3 0 1.9.2z"/><path class="c" d="m304.2 389-30.9-9.4 12.6-39.2 30.8 9.4z"/><path class="v" d="m311.5 357.5-25.8-7.8.6-1.9 25.8 7.8zM299.3 360.4l-15.5-4.7.6-1.9 15.5 4.7zM307.2 362.8l-5.1-1.5.6-2 5.1 1.6zM307.6 369.6l-25.8-7.8.6-2 25.8 7.8zM299.9 373.9l-20-6.1.6-1.9 20.1 6.1zM303.7 381.7l-15.1-4.6.6-2 15.1 4.6zM277.9 373.9l8.2 2.4.6-1.9-8.1-2.5z"/><path class="e" d="m261.8 315.4 12.2 19.2-32.9-8.9z"/><path class="e" d="m272.8 333.2-29.9-8.1c-1.6-.4-3.4.5-3.9 2.2l-5.1 17.8c-.4 1.6.6 3.3 2.3 3.8l29.8 8c1.7.5 3.4-.5 3.9-2.1L275 337c.5-1.7-.5-3.4-2.2-3.8z"/><path class="f" d="m272.8 333.2-29.9-8.1c-1.6-.4-3.4.5-3.9 2.2l-5.1 17.8c-.4 1.6.6 3.3 2.3 3.8l29.8 8c1.7.5 3.4-.5 3.9-2.1L275 337c.5-1.7-.5-3.4-2.2-3.8z"/><path class="e" d="m266 356.9-29.8-8c-.8-.2-1.4-.7-1.8-1.3l20.8-9.1 13 18.2c-.6.4-1.4.4-2.2.2z"/><path class="g" d="m266 356.9-29.8-8c-.8-.2-1.4-.7-1.8-1.3l20.8-9.1 13 18.2c-.6.4-1.4.4-2.2.2z"/><path class="e" d="m254 342.8-12.7-17.7q.8-.2 1.6 0l29.9 8.1q.8.2 1.4.8z"/><path class="h" d="m254 342.8-12.7-17.7q.8-.2 1.6 0l29.9 8.1q.8.2 1.4.8z"/><path class="e" d="M263.4 351.6c-11.9-1.9-23.5-5.7-35.4-7.5-2.1-.3-3.9 1.1-4.2 3.1q-1.3 10.7-2.7 21.4c-.2 1.9 1.3 3.7 3.3 4.1 11.9 1.8 23.5 5.6 35.4 7.5 2.1.3 3.9-1.1 4.2-3.1q1.3-10.7 2.7-21.4c.2-2-1.3-3.8-3.3-4.1z"/><path class="u" d="M263.4 351.6c-11.9-1.9-23.5-5.7-35.4-7.5-2.1-.3-3.9 1.1-4.2 3.1q-1.3 10.7-2.7 21.4c-.2 1.9 1.3 3.7 3.3 4.1 11.9 1.8 23.5 5.6 35.4 7.5 2.1.3 3.9-1.1 4.2-3.1q1.3-10.7 2.7-21.4c.2-2-1.3-3.8-3.3-4.1z"/><path class="e" d="M259.8 380.2c-11.9-1.9-23.5-5.7-35.4-7.5-.9-.2-1.7-.6-2.3-1.3 7.4-4.6 14.8-8.4 22.2-12.3 6 7.1 12 14.2 18.1 20.5-.7.5-1.6.7-2.6.6z"/><path class="f" d="M259.8 380.2c-11.9-1.9-23.5-5.7-35.4-7.5-.9-.2-1.7-.6-2.3-1.3 7.4-4.6 14.8-8.4 22.2-12.3 6 7.1 12 14.2 18.1 20.5-.7.5-1.6.7-2.6.6z"/><path class="e" d="M243.6 364.3c-5.8-6.9-11.6-13.8-17.6-20q.9-.4 2-.2c11.9 1.8 23.5 5.6 35.4 7.5.7.1 1.3.4 1.8.8-7.2 4.4-14.4 8.1-21.6 11.9zM151.8 361.6c9.1 4.2 17.8 8.9 25.9 13.9-14.8 1.7-29.5 4.7-43.8 8.9 5.4-7.8 11.4-15.4 17.9-22.8z"/><path class="e" d="M175.5 374.6c-13.5 1.7-26.9 4.4-39.9 8.1-2.3.6-3.6 2.7-3 4.6l6.6 20.6c.6 1.9 2.7 3 4.7 2.4 11.6-3.3 23.4-5.7 35.4-7.2 2-.2 3.5-2 3.3-4q-1.3-10.7-2.5-21.4c-.3-2-2.3-3.4-4.6-3.1z"/><path class="f" d="M175.5 374.6c-13.5 1.7-26.9 4.4-39.9 8.1-2.3.6-3.6 2.7-3 4.6l6.6 20.6c.6 1.9 2.7 3 4.7 2.4 11.6-3.3 23.4-5.7 35.4-7.2 2-.2 3.5-2 3.3-4q-1.3-10.7-2.5-21.4c-.3-2-2.3-3.4-4.6-3.1z"/><path class="e" d="M179.3 403.1c-12 1.5-23.8 3.9-35.4 7.2-.9.3-1.8.2-2.6-.2 4.9-7.2 10.4-14.3 16.4-21.1 8.4 3.9 16.4 8.2 23.9 12.9-.6.7-1.4 1.1-2.3 1.2z"/><path class="g" d="M179.3 403.1c-12 1.5-23.8 3.9-35.4 7.2-.9.3-1.8.2-2.6-.2 4.9-7.2 10.4-14.3 16.4-21.1 8.4 3.9 16.4 8.2 23.9 12.9-.6.7-1.4 1.1-2.3 1.2z"/><path class="e" d="M158.9 394.1c-8-3.8-16.5-7.3-25.2-10.3.5-.5 1.1-.9 1.9-1.1 13-3.7 26.4-6.4 39.9-8.1.7-.1 1.5 0 2.1.2q-10.1 9.3-18.7 19.3z"/><path class="h" d="M158.9 394.1c-8-3.8-16.5-7.3-25.2-10.3.5-.5 1.1-.9 1.9-1.1 13-3.7 26.4-6.4 39.9-8.1.7-.1 1.5 0 2.1.2q-10.1 9.3-18.7 19.3z"/><path class="e" d="m101.5 381.2 41.4 2.5c2.3.2 4.1 2.1 4 4.4l-1.6 24.7c-.1 2.3-2.2 4.1-4.5 3.9l-41.4-2.5c-2.4-.1-4.2-2.1-4-4.4l1.5-24.7c.2-2.3 2.2-4 4.6-3.9z"/><path class="u" d="m101.5 381.2 41.4 2.5c2.3.2 4.1 2.1 4 4.4l-1.6 24.7c-.1 2.3-2.2 4.1-4.5 3.9l-41.4-2.5c-2.4-.1-4.2-2.1-4-4.4l1.5-24.7c.2-2.3 2.2-4 4.6-3.9z"/><path class="e" d="m99.4 414.2 41.4 2.5c1 .1 2-.2 2.8-.8l-22.3-20.4L96.6 413c.7.7 1.7 1.2 2.8 1.2z"/><path class="f" d="m99.4 414.2 41.4 2.5c1 .1 2-.2 2.8-.8l-22.3-20.4L96.6 413c.7.7 1.7 1.2 2.8 1.2z"/><path class="e" d="m121 401.5 24-17.1c-.6-.4-1.3-.6-2.1-.7l-41.4-2.5c-.8 0-1.6.1-2.2.5zM235.6 313.8l-36.2 7.8c-1.8.4-2.5 2.1-1.5 3.7l9.5 14.8c1 1.6 3.3 2.6 5.1 2.2l36.2-7.8c1.8-.4 2.5-2 1.5-3.6l-9.5-14.9c-1-1.6-3.3-2.6-5.1-2.2z"/><path class="u" d="m235.6 313.8-36.2 7.8c-1.8.4-2.5 2.1-1.5 3.7l9.5 14.8c1 1.6 3.3 2.6 5.1 2.2l36.2-7.8c1.8-.4 2.5-2 1.5-3.6l-9.5-14.9c-1-1.6-3.3-2.6-5.1-2.2z"/><path class="e" d="m248.4 334.6-35.5 7.7c-.9.2-1.9.1-2.8-.2l12.6-16.2 27.6 7.5c-.3.6-1 1-1.9 1.2z"/><path class="f" d="m248.4 334.6-35.5 7.7c-.9.2-1.9.1-2.8-.2l12.6-16.2 27.6 7.5c-.3.6-1 1-1.9 1.2z"/><path class="e" d="m225.1 329.6-27-7.3q.6-.5 1.7-.8l35.4-7.6c.7-.2 1.4-.2 2.1-.1zM339.7 386.6l38.3-5.7c2.2-.3 4.2 1.1 4.5 3.2l3.6 22.8c.4 2.2-1.1 4.1-3.3 4.5l-38.3 5.7c-2.1.3-4.2-1.2-4.5-3.3l-3.6-22.8c-.3-2.1 1.2-4.1 3.3-4.4z"/><path class="u" d="m339.7 386.6 38.3-5.7c2.2-.3 4.2 1.1 4.5 3.2l3.6 22.8c.4 2.2-1.1 4.1-3.3 4.5l-38.3 5.7c-2.1.3-4.2-1.2-4.5-3.3l-3.6-22.8c-.3-2.1 1.2-4.1 3.3-4.4z"/><path class="e" d="m344.5 417.1 38.3-5.7c1-.2 1.8-.7 2.4-1.4l-24.4-14.3-19 20.8c.8.5 1.7.7 2.7.6z"/><path class="f" d="m344.5 417.1 38.3-5.7c1-.2 1.8-.7 2.4-1.4l-24.4-14.3-19 20.8c.8.5 1.7.7 2.7.6z"/><path class="e" d="m361.6 401.3 18.5-20.2c-.7-.2-1.4-.3-2.1-.2l-38.3 5.7c-.7.1-1.3.4-1.9.8zM156 342.5l-20.9 22.4 45.6-4z"/><path class="e" d="m137.2 363.4 41.3-3.7c2.3-.2 4.4 1.4 4.6 3.7l2.3 24.7c.3 2.2-1.5 4.3-3.8 4.5l-41.3 3.7c-2.4.2-4.5-1.5-4.7-3.8l-2.3-24.6c-.2-2.3 1.5-4.3 3.9-4.5z"/><path class="f" d="m137.2 363.4 41.3-3.7c2.3-.2 4.4 1.4 4.6 3.7l2.3 24.7c.3 2.2-1.5 4.3-3.8 4.5l-41.3 3.7c-2.4.2-4.5-1.5-4.7-3.8l-2.3-24.6c-.2-2.3 1.5-4.3 3.9-4.5z"/><path class="e" d="m140.3 396.3 41.3-3.7c1-.1 2-.6 2.7-1.3L159 374.5l-21.6 21c.8.6 1.8.9 2.9.8z"/><path class="g" d="m140.3 396.3 41.3-3.7c1-.1 2-.6 2.7-1.3L159 374.5l-21.6 21c.8.6 1.8.9 2.9.8z"/><path class="e" d="m159.6 380.5 21.1-20.5c-.7-.3-1.5-.4-2.2-.3l-41.3 3.7c-.8 0-1.6.3-2.1.7z"/><path class="h" d="m159.6 380.5 21.1-20.5c-.7-.3-1.5-.4-2.2-.3l-41.3 3.7c-.8 0-1.6.3-2.1.7z"/><path class="e" d="M170.1 379.8c11.6 2.5 23.6 3.1 35.2 5.6 2 .4 3.2 2.4 2.7 4.3q-2.8 10.2-5.6 20.5c-.5 1.9-2.5 3-4.5 2.6-11.6-2.5-23.6-3.1-35.2-5.6-2-.4-3.2-2.4-2.7-4.3q2.8-10.2 5.6-20.5c.5-1.9 2.5-3 4.5-2.6z"/><path class="u" d="M170.1 379.8c11.6 2.5 23.6 3.1 35.2 5.6 2 .4 3.2 2.4 2.7 4.3q-2.8 10.2-5.6 20.5c-.5 1.9-2.5 3-4.5 2.6-11.6-2.5-23.6-3.1-35.2-5.6-2-.4-3.2-2.4-2.7-4.3q2.8-10.2 5.6-20.5c.5-1.9 2.5-3 4.5-2.6z"/><path class="e" d="M162.7 407.2c11.6 2.5 23.6 3.1 35.2 5.6.9.2 1.8.1 2.6-.3-5.1-6.8-10.4-13-15.7-19.1-8.2 4.4-16.3 8.7-24.2 12.4.4.7 1.2 1.2 2.1 1.4z"/><path class="f" d="M162.7 407.2c11.6 2.5 23.6 3.1 35.2 5.6.9.2 1.8.1 2.6-.3-5.1-6.8-10.4-13-15.7-19.1-8.2 4.4-16.3 8.7-24.2 12.4.4.7 1.2 1.2 2.1 1.4z"/><path class="e" d="M183.4 398.4c7.9-4.3 15.9-8.5 23.6-12.1q-.7-.7-1.7-.9c-11.6-2.5-23.6-3.1-35.2-5.6-.7-.2-1.3-.1-2 .1 5 6.6 10.2 12.5 15.3 18.5z"/><path class="e" d="M190.1 385.5q-7.5 7.3-13.8 15.1c10.3-2.2 20.7-3.6 31.3-4.1q-8.2-5.9-17.5-11z"/><path class="e" d="M177.5 399.5c9.4-2 18.9-3.2 28.5-3.7 1.7-.1 3 1 3.1 2.4l.6 15.2c.1 1.4-1.1 2.6-2.5 2.6-8.5.5-17 1.6-25.3 3.3-1.4.3-2.8-.5-3.1-1.9l-3.6-14.8c-.3-1.4.7-2.8 2.3-3.1z"/><path class="f" d="M177.5 399.5c9.4-2 18.9-3.2 28.5-3.7 1.7-.1 3 1 3.1 2.4l.6 15.2c.1 1.4-1.1 2.6-2.5 2.6-8.5.5-17 1.6-25.3 3.3-1.4.3-2.8-.5-3.1-1.9l-3.6-14.8c-.3-1.4.7-2.8 2.3-3.1z"/><path class="e" d="M181.9 419.3c8.3-1.7 16.8-2.8 25.3-3.3.6 0 1.2-.3 1.7-.7q-7.6-5.5-16.1-10.3-6.9 6.8-12.7 14.1c.5.3 1.2.4 1.8.2z"/><path class="g" d="M181.9 419.3c8.3-1.7 16.8-2.8 25.3-3.3.6 0 1.2-.3 1.7-.7q-7.6-5.5-16.1-10.3-6.9 6.8-12.7 14.1c.5.3 1.2.4 1.8.2z"/><path class="e" d="M193.3 408.7q6.6-6.6 14.2-12.7-.6-.3-1.5-.2c-9.6.5-19.1 1.7-28.5 3.7q-.8.2-1.4.6 9.1 3.9 17.2 8.6z"/><path class="h" d="M193.3 408.7q6.6-6.6 14.2-12.7-.6-.3-1.5-.2c-9.6.5-19.1 1.7-28.5 3.7q-.8.2-1.4.6 9.1 3.9 17.2 8.6z"/><path class="e" d="M228.8 351.8c-9.9 5.8-19.2 12-28 18.6 17.1.4 34.2 2.3 51.1 5.7-7.1-8.4-14.7-16.5-23.1-24.3z"/><path class="e" d="M203.3 369c15.6.6 31.1 2.3 46.4 5.3 2.7.4 4.4 2.7 3.9 5q-2.6 12.1-5.3 24.2c-.5 2.2-2.8 3.6-5.1 3.2-13.6-2.6-27.3-4.1-41.2-4.6-2.3-.1-4.2-2-4.2-4.3q.3-12.4.5-24.7c.1-2.3 2.3-4.1 5-4.1z"/><path class="f" d="M203.3 369c15.6.6 31.1 2.3 46.4 5.3 2.7.4 4.4 2.7 3.9 5q-2.6 12.1-5.3 24.2c-.5 2.2-2.8 3.6-5.1 3.2-13.6-2.6-27.3-4.1-41.2-4.6-2.3-.1-4.2-2-4.2-4.3q.3-12.4.5-24.7c.1-2.3 2.3-4.1 5-4.1z"/><path class="e" d="M202 402.1c13.9.5 27.6 2 41.2 4.6 1.1.2 2.1 0 3-.5-6.4-7.7-13.5-15.3-21.1-22.5-9.2 5.4-17.8 11.1-25.9 17.3.8.6 1.7 1.1 2.8 1.1z"/><path class="g" d="M202 402.1c13.9.5 27.6 2 41.2 4.6 1.1.2 2.1 0 3-.5-6.4-7.7-13.5-15.3-21.1-22.5-9.2 5.4-17.8 11.1-25.9 17.3.8.6 1.7 1.1 2.8 1.1z"/><path class="e" d="M224.4 389.7c8.7-5.2 17.9-10.1 27.6-14.4-.6-.5-1.4-.9-2.3-1-15.3-3-30.8-4.7-46.4-5.3-.9 0-1.8.2-2.5.5 8.4 6.4 16.3 13.2 23.6 20.2z"/><path class="h" d="M224.4 389.7c8.7-5.2 17.9-10.1 27.6-14.4-.6-.5-1.4-.9-2.3-1-15.3-3-30.8-4.7-46.4-5.3-.9 0-1.8.2-2.5.5 8.4 6.4 16.3 13.2 23.6 20.2z"/><path class="e" d="m215 378 41 6.1c2.3.4 3.9 2.5 3.5 4.8l-3.9 24.4c-.3 2.3-2.5 3.9-4.9 3.5l-40.9-6.2c-2.4-.3-4-2.4-3.6-4.7l3.9-24.5c.3-2.2 2.5-3.8 4.9-3.4z"/><path class="u" d="m215 378 41 6.1c2.3.4 3.9 2.5 3.5 4.8l-3.9 24.4c-.3 2.3-2.5 3.9-4.9 3.5l-40.9-6.2c-2.4-.3-4-2.4-3.6-4.7l3.9-24.5c.3-2.2 2.5-3.8 4.9-3.4z"/><path class="e" d="m209.8 410.6 40.9 6.2c1.1.2 2.1-.1 3-.6l-20.3-22.3-26.3 15.3c.7.8 1.6 1.3 2.7 1.4z"/><path class="f" d="m209.8 410.6 40.9 6.2c1.1.2 2.1-.1 3-.6l-20.3-22.3-26.3 15.3c.7.8 1.6 1.3 2.7 1.4z"/><path class="e" d="M232.5 399.9 258 385c-.6-.4-1.3-.7-2-.9l-41-6.1c-.8-.1-1.6 0-2.3.2zM251.9 343.8l-14.1 22 37.8-10.2z"/><path class="e" d="m239.2 364.1 34.3-9.2c1.9-.5 4 .6 4.5 2.5l5.8 20.4c.6 1.9-.6 3.9-2.5 4.4l-34.3 9.2c-1.9.6-4-.6-4.5-2.5l-5.8-20.4c-.6-1.9.6-3.8 2.5-4.4z"/><path class="f" d="m239.2 364.1 34.3-9.2c1.9-.5 4 .6 4.5 2.5l5.8 20.4c.6 1.9-.6 3.9-2.5 4.4l-34.3 9.2c-1.9.6-4-.6-4.5-2.5l-5.8-20.4c-.6-1.9.6-3.8 2.5-4.4z"/><path class="e" d="m247 391.4 34.3-9.2c.8-.2 1.6-.8 2-1.5l-23.9-10.4-14.9 20.9c.7.4 1.6.5 2.5.2z"/><path class="g" d="m247 391.4 34.3-9.2c.8-.2 1.6-.8 2-1.5l-23.9-10.4-14.9 20.9c.7.4 1.6.5 2.5.2z"/><path class="e" d="m260.8 375.3 14.6-20.4q-.9-.2-1.9 0l-34.3 9.2c-.6.2-1.2.5-1.6 1z"/><path class="h" d="m260.8 375.3 14.6-20.4q-.9-.2-1.9 0l-34.3 9.2c-.6.2-1.2.5-1.6 1z"/><path class="e" d="M250 385.3c13.6-2.1 27-6.5 40.7-8.6 2.3-.4 4.4 1.2 4.7 3.5q1.6 12.3 3.1 24.6c.3 2.2-1.4 4.3-3.7 4.7-13.7 2.1-27.1 6.5-40.7 8.6-2.3.4-4.5-1.3-4.8-3.5l-3-24.6c-.3-2.3 1.3-4.3 3.7-4.7z"/><path class="u" d="M250 385.3c13.6-2.1 27-6.5 40.7-8.6 2.3-.4 4.4 1.2 4.7 3.5q1.6 12.3 3.1 24.6c.3 2.2-1.4 4.3-3.7 4.7-13.7 2.1-27.1 6.5-40.7 8.6-2.3.4-4.5-1.3-4.8-3.5l-3-24.6c-.3-2.3 1.3-4.3 3.7-4.7z"/><path class="e" d="M254.1 418.1c13.6-2.1 27-6.5 40.7-8.6 1-.2 2-.7 2.6-1.4-8.5-5.3-17-9.7-25.5-14.2-6.8 8.2-13.7 16.3-20.7 23.6.8.5 1.8.8 2.9.6z"/><path class="f" d="M254.1 418.1c13.6-2.1 27-6.5 40.7-8.6 1-.2 2-.7 2.6-1.4-8.5-5.3-17-9.7-25.5-14.2-6.8 8.2-13.7 16.3-20.7 23.6.8.5 1.8.8 2.9.6z"/><path class="e" d="M272.7 399.9c6.7-7.9 13.4-15.8 20.2-23-.7-.3-1.4-.4-2.2-.2-13.7 2.1-27.1 6.5-40.7 8.6-.8.1-1.5.4-2.1.9 8.3 5.1 16.6 9.4 24.8 13.7zM322.3 363.5c-10.4 4.9-20.3 10.2-29.7 16 17.1 2 33.9 5.4 50.4 10.2-6.2-8.9-13.1-17.7-20.7-26.2z"/><path class="e" d="M295.2 378.4c15.5 1.9 30.8 5 45.8 9.3 2.6.7 4.1 3.1 3.4 5.3q-3.8 11.8-7.6 23.7c-.7 2.1-3.1 3.4-5.3 2.7-13.3-3.7-26.9-6.5-40.6-8.2-2.4-.3-4.1-2.4-3.8-4.7l2.8-24.6c.3-2.2 2.7-3.9 5.3-3.5z"/><path class="f" d="M295.2 378.4c15.5 1.9 30.8 5 45.8 9.3 2.6.7 4.1 3.1 3.4 5.3q-3.8 11.8-7.6 23.7c-.7 2.1-3.1 3.4-5.3 2.7-13.3-3.7-26.9-6.5-40.6-8.2-2.4-.3-4.1-2.4-3.8-4.7l2.8-24.6c.3-2.2 2.7-3.9 5.3-3.5z"/><path class="e" d="M290.9 411.2c13.7 1.7 27.3 4.5 40.6 8.2 1 .3 2.1.2 3-.2-5.7-8.3-12-16.4-18.9-24.3-9.7 4.5-18.8 9.5-27.4 14.9.7.7 1.6 1.2 2.7 1.4z"/><path class="g" d="M290.9 411.2c13.7 1.7 27.3 4.5 40.6 8.2 1 .3 2.1.2 3-.2-5.7-8.3-12-16.4-18.9-24.3-9.7 4.5-18.8 9.5-27.4 14.9.7.7 1.6 1.2 2.7 1.4z"/><path class="e" d="M314.3 400.8c9.2-4.4 18.8-8.4 28.9-11.9-.6-.5-1.3-1-2.2-1.2-15-4.3-30.3-7.4-45.8-9.3-.9-.1-1.7 0-2.5.3 7.8 7.1 15 14.5 21.6 22.1z"/><path class="h" d="M314.3 400.8c9.2-4.4 18.8-8.4 28.9-11.9-.6-.5-1.3-1-2.2-1.2-15-4.3-30.3-7.4-45.8-9.3-.9-.1-1.7 0-2.5.3 7.8 7.1 15 14.5 21.6 22.1z"/><path class="e" d="M168.5 296.7c-5 8.9-9.5 17.8-13.3 26.8 13.6-7.2 27.9-13.2 42.5-18-9.3-3.4-19.1-6.3-29.2-8.8z"/><path class="e" d="M156.6 321.4c12.4-6.4 25.3-11.9 38.6-16.3 2.3-.8 4.7.2 5.4 2.2q3.5 10.6 7.1 21.2c.7 1.9-.4 4-2.5 4.7-11.8 4-23.2 8.8-34.2 14.5-1.9 1-4.3.3-5.3-1.5q-5.6-9.7-11.1-19.5c-1-1.8-.2-4.2 2-5.3z"/><path class="f" d="M156.6 321.4c12.4-6.4 25.3-11.9 38.6-16.3 2.3-.8 4.7.2 5.4 2.2q3.5 10.6 7.1 21.2c.7 1.9-.4 4-2.5 4.7-11.8 4-23.2 8.8-34.2 14.5-1.9 1-4.3.3-5.3-1.5q-5.6-9.7-11.1-19.5c-1-1.8-.2-4.2 2-5.3z"/><path class="e" d="M171 347.7c11-5.7 22.4-10.5 34.2-14.5 1-.3 1.7-.9 2.1-1.7-8.6-3.2-17.6-6-26.9-8.2-4.7 8.1-8.7 16.4-12.1 24.8.8.2 1.8.1 2.7-.4z"/><path class="g" d="M171 347.7c11-5.7 22.4-10.5 34.2-14.5 1-.3 1.7-.9 2.1-1.7-8.6-3.2-17.6-6-26.9-8.2-4.7 8.1-8.7 16.4-12.1 24.8.8.2 1.8.1 2.7-.4z"/><path class="e" d="M182.6 328.2c4.4-7.9 9.4-15.7 14.9-23.3-.7-.2-1.5-.1-2.3.1-13.3 4.5-26.2 10-38.6 16.4-.7.4-1.3.9-1.7 1.5 9.5 1.3 18.8 3.1 27.7 5.3z"/><path class="h" d="M182.6 328.2c4.4-7.9 9.4-15.7 14.9-23.3-.7-.2-1.5-.1-2.3.1-13.3 4.5-26.2 10-38.6 16.4-.7.4-1.3.9-1.7 1.5 9.5 1.3 18.8 3.1 27.7 5.3z"/><path class="c" d="M202 358.9q-15.2 5.5-30.3 11c-9.8-11.1-5.1-27.4-14.8-38.4q15.1-5.6 30.2-11.1c9.8 11.1 5.1 27.4 14.9 38.5z"/><path class="v" d="m194.8 352-25.2 9.2q.3.9.8 1.9l25.2-9.2q-.4-1-.8-1.9zM183 349.5l-15.2 5.6q.2 1 .5 2l15.2-5.6q-.3-1-.5-2zM190.8 346.7l-5 1.8q.2 1 .5 2 2.5-.9 4.9-1.8l-.4-2zM191.9 339.6q-12.7 4.5-25.3 9.1.2 1.1.4 2.1l25.2-9.2q-.2-1-.3-2.1zM184.9 335.3q-9.8 3.6-19.7 7.2.3 1 .5 2 9.9-3.6 19.7-7.2-.2-1-.5-2zM188.5 327.3q-7.5 2.7-14.9 5.4.4.9.8 1.9l14.8-5.4q-.3-1-.7-1.9zM163.2 336.5q4-1.5 7.9-2.9.5.9.8 1.9-4 1.4-7.9 2.9-.4-1-.8-1.9z"/><path class="e" d="M198.9 341.3c9 4.3 17.7 8.9 25.8 13.9-14.8 1.8-29.5 4.7-43.8 8.9 5.4-7.7 11.4-15.4 18-22.8z"/><path class="e" d="M222.5 354.3c-13.5 1.7-26.9 4.4-39.9 8.1-2.3.6-3.6 2.7-3 4.6l6.6 20.6c.6 1.9 2.7 3 4.7 2.4 11.6-3.3 23.4-5.7 35.4-7.2 2-.2 3.5-2 3.3-4q-1.3-10.7-2.5-21.4c-.3-2-2.3-3.4-4.6-3.1z"/><path class="f" d="M222.5 354.3c-13.5 1.7-26.9 4.4-39.9 8.1-2.3.6-3.6 2.7-3 4.6l6.6 20.6c.6 1.9 2.7 3 4.7 2.4 11.6-3.3 23.4-5.7 35.4-7.2 2-.2 3.5-2 3.3-4q-1.3-10.7-2.5-21.4c-.3-2-2.3-3.4-4.6-3.1z"/><path class="e" d="M226.3 382.8c-12 1.5-23.8 3.9-35.4 7.2-.9.3-1.8.2-2.6-.1 4.9-7.3 10.4-14.3 16.5-21.2 8.3 3.9 16.3 8.3 23.8 12.9-.6.7-1.4 1.1-2.3 1.2z"/><path class="g" d="M226.3 382.8c-12 1.5-23.8 3.9-35.4 7.2-.9.3-1.8.2-2.6-.1 4.9-7.3 10.4-14.3 16.5-21.2 8.3 3.9 16.3 8.3 23.8 12.9-.6.7-1.4 1.1-2.3 1.2z"/><path class="e" d="M205.9 373.8c-8-3.8-16.4-7.3-25.2-10.3.5-.5 1.1-.9 1.9-1.1 13-3.7 26.4-6.4 39.9-8.1.7-.1 1.5 0 2.1.2-6.7 6.2-13 12.7-18.7 19.3z"/><path class="h" d="M205.9 373.8c-8-3.8-16.4-7.3-25.2-10.3.5-.5 1.1-.9 1.9-1.1 13-3.7 26.4-6.4 39.9-8.1.7-.1 1.5 0 2.1.2-6.7 6.2-13 12.7-18.7 19.3z"/><path class="e" d="m110.4 319-.3-.8c2.6-.9 5.2-1.7 7.9-2.4l.2.9c-2.6.7-5.3 1.4-7.8 2.3zM118.8 318.8q-7.1 1.8-13.6 4.4c6.9 2.1 13.7 4.8 20.1 8q-2.8-6.3-6.5-12.4z"/><path class="e" d="M106.4 322.9q9.4 3 18.3 7.3c1 .5 1.4 1.7 1 2.5q-2.5 4.6-5.1 9.3c-.4.8-1.5 1.2-2.4.7q-7.9-3.8-16.2-6.4c-1-.3-1.5-1.3-1.3-2.3l3.2-10c.3-.9 1.4-1.4 2.5-1.1z"/><path class="f" d="M106.4 322.9q9.4 3 18.3 7.3c1 .5 1.4 1.7 1 2.5q-2.5 4.6-5.1 9.3c-.4.8-1.5 1.2-2.4.7q-7.9-3.8-16.2-6.4c-1-.3-1.5-1.3-1.3-2.3l3.2-10c.3-.9 1.4-1.4 2.5-1.1z"/><path class="e" d="M102 336.3q8.3 2.6 16.2 6.4c.4.2.8.3 1.3.2q-2.6-5.8-6-11.6-6.5 1.8-12.6 4.2c.3.3.6.6 1.1.8z"/><path class="g" d="M102 336.3q8.3 2.6 16.2 6.4c.4.2.8.3 1.3.2q-2.6-5.8-6-11.6-6.5 1.8-12.6 4.2c.3.3.6.6 1.1.8z"/><path class="e" d="M112.5 333.7q6.3-1.7 13-2.8-.3-.4-.8-.7-8.9-4.3-18.3-7.3-.6-.1-1.1 0 4 5.3 7.2 10.8z"/><path class="h" d="M112.5 333.7q6.3-1.7 13-2.8-.3-.4-.8-.7-8.9-4.3-18.3-7.3-.6-.1-1.1 0 4 5.3 7.2 10.8z"/><path class="e" d="m342 330 18.2 13.7-39.7-2.5z"/><path class="e" d="m358.4 342.7-35.9-2.2c-2.1-.2-3.9.9-4.1 2.3l-2 15c-.2 1.4 1.3 2.7 3.3 2.8l36 2.3c2 .1 3.9-.9 4.1-2.3l2-15.1c.2-1.4-1.3-2.7-3.4-2.8z"/><path class="f" d="m358.4 342.7-35.9-2.2c-2.1-.2-3.9.9-4.1 2.3l-2 15c-.2 1.4 1.3 2.7 3.3 2.8l36 2.3c2 .1 3.9-.9 4.1-2.3l2-15.1c.2-1.4-1.3-2.7-3.4-2.8z"/><path class="e" d="m355.7 362.9-36-2.3c-.9-.1-1.7-.3-2.3-.8l22-10.3 18.8 12.9c-.7.3-1.6.5-2.5.5z"/><path class="g" d="m355.7 362.9-36-2.3c-.9-.1-1.7-.3-2.3-.8l22-10.3 18.8 12.9c-.7.3-1.6.5-2.5.5z"/><path class="e" d="m338.9 353.2-18.4-12.5q.9-.3 2-.2l35.9 2.2q1.1.1 1.9.5z"/><path class="h" d="m338.9 353.2-18.4-12.5q.9-.3 2-.2l35.9 2.2q1.1.1 1.9.5z"/></svg>