<svg version="1.2" xmlns="http://www.w3.org/2000/svg" width="500" height="500"><style>.b{fill:#e0e0e0}.e,.g{fill:#fff}.g{opacity:.1}.h{fill:#263238}.i{fill:#407bff}.k,.l{stroke-linecap:round;stroke-linejoin:round}.k{fill:none;stroke:#407bff}.l{stroke:#263238}.l,.m,.n{fill:none}.m{stroke:#fff;stroke-linecap:round;stroke-linejoin:round}.n{stroke:#407bff;stroke-miterlimit:10}.o{opacity:.5;fill:#fff}.q{fill:#ffb573}.s{opacity:.2}</style><path d="M250 442.6c-107.2 0-193.9-5.1-193.9-11.3 0-6.3 86.7-11.4 193.9-11.4s193.9 5.1 193.9 11.4c0 6.2-86.7 11.3-193.9 11.3z" style="fill:#f5f5f5"/><path class="b" d="M44.7 392.2h41.2v.3H44.7zM128.6 390.2h41.3v.3h-41.3zM213.7 390.2h10v.3h-10zM77.5 398.8l46.3-.1v.3H77.5zM262.1 392.1h21.6v.2h-21.6zM292.6 392.1h28v.2h-28zM392.8 396.3h62.5v.3h-62.5z"/><path d="M0 382.4h500v.2H0z" style="fill:#ebebeb"/><path d="m334.8 79.5-2.5 34.3c0 1.1-.6 2.2-1.4 3-.9 1-2.2 1.6-3.6 1.6h-27.4c-1.1 0-2-.3-2.7-.9-1.1-.8-1.8-2.2-1.7-3.7l2.5-34.3c.2-2.6 2.4-4.7 5-4.7h27.5c2.6 0 4.5 2.1 4.3 4.7z" style="opacity:.8;fill:#e0e0e0"/><path class="e" d="M322.9 95c-.3 5.1-4 9.2-8.2 9.2-4.1 0-7.2-4.1-6.8-9.2.3-5.1 4-9.2 8.1-9.2 4.2 0 7.3 4.1 6.9 9.2zM326.4 116.1h-25.2c-1.6 0-2.7-.8-2.7-1.9-.1-1.5 8.1-8.3 15.8-7.7h.2c4.7 0 9.2 2 13 5 3.7 3 .2 4.6-1.1 4.6z"/><path fill-rule="evenodd" class="b" d="M193 117.2c-5.3 0-10-4.3-10.5-9.6-.4-5.4 3.6-9.8 8.9-9.8 5.4-.1 10.1 4.2 10.5 9.5.5 5.4-3.5 9.8-8.9 9.9zm-1.2-14.3c-2.5 0-4.3 2.1-4.1 4.6.2 2.5 2.4 4.5 4.9 4.5 2.5 0 4.4-2.1 4.2-4.6-.2-2.5-2.4-4.5-5-4.5z"/><path class="b" d="M193.5 102.2h-3.7l-1.9-23.7 3.6-.1z"/><path class="b" d="m195 79.5-6.9.1-.3-3.7 6.9-.1zM195.4 84.3h-6.5l-.3-3.7h6.5zM196 90.9l-5.7.1-.3-3.7 5.7-.1z"/><path d="M79.3 318.8q0 .4.1.9c.4 1.9 1.4 3.6 2.7 4.9 1.7 1.5 3.8 2.5 6.1 2.5h84.5c4.2 0 7.5-3.3 7.7-7.4v-.9c-.2-2.3-1.3-4.4-2.9-5.9-1.6-1.5-3.7-2.4-6-2.4H87c-4.6 0-8 3.7-7.7 8.3z" style="fill:#f0f0f0"/><path class="b" d="M180.4 319.7q0 .4-.1.8c-.2-2.2-1.3-4.2-2.8-5.6-1.6-1.5-3.7-2.4-6-2.4l-89.9.1c1.4-1.3 3.3-2.1 5.4-2.1h84.5c2.3 0 4.4.9 6 2.4 1.6 1.5 2.7 3.6 2.9 5.9v.9z"/><path class="e" d="m165.9 314.5.3 4 3.8-1.4.9 2-3.9 1.3 2.7 3.4-1.8 1.3-2.6-3.6-2.1 3.6-1.9-1.3 2.2-3.4-4-1.3.6-2 4 1.4-.3-4zM142.8 314.5l.3 4 3.8-1.4.9 2-3.9 1.3 2.7 3.4-1.8 1.3-2.6-3.6-2.1 3.6-1.9-1.3 2.2-3.4-4-1.3.6-2 4 1.4-.3-4zM119.7 314.5l.3 4 3.8-1.4.8 2-3.8 1.3 2.7 3.4-1.8 1.3-2.6-3.6-2.1 3.6-1.9-1.3 2.2-3.4-4-1.3.6-2 4 1.4-.3-4zM96.6 314.5l.3 4 3.8-1.4.8 2-3.8 1.3 2.7 3.4-1.8 1.3-2.6-3.6-2.1 3.6-1.9-1.3 2.2-3.4-4-1.3.6-2 4 1.4-.3-4z"/><path class="b" d="M152.7 307.6h-3.9v-1h4zM169.7 307.6h-12.9v-1h12.9z"/><path class="b" d="m269.4 302.5 15.9 24.6 52.6-52.6c.4-.5-.2-1.2-.7-.8L287.1 313l-9.5-15.3z" style="opacity:.8"/><path class="g" d="m259.9 128-37.8 141.1h12.7L272.1 128zM279.4 128l-37.7 141.1h25.2L304.2 128z"/><path class="h" d="m415.3 255.3 8-113.3c.2-3.7-2.6-6.8-6.4-6.8l-197.7.2c-3.8 0-7 3.1-7.3 6.8L204 255.5c-.3 3.7 2.5 6.8 6.3 6.8l197.7-.2c3.8 0 7-3 7.3-6.8z"/><path class="i" d="m412.8 252.8 7.9-113.3c.3-3.7-2.5-6.7-6.3-6.7l-197.7.1c-3.8 0-7.1 3.1-7.3 6.8l-8 113.3c-.2 3.8 2.6 6.8 6.4 6.8l197.7-.2c3.7 0 7-3 7.3-6.8z"/><path d="M407.5 254.5c-.3.3-.7.6-1.5.6l-197.7.2c-1.3 0-2.4-1.2-2.3-2.5l7.9-113.3c.1-.7.4-1.2.7-1.5.3-.2.8-.5 1.5-.5l197.7-.2c1.4 0 2.5 1.2 2.4 2.5l-8 113.3c0 .7-.4 1.2-.7 1.4z" style="opacity:.6;fill:#fff"/><path class="e" d="M341.8 192.2h-69.4c-1.3 0-2.4 1-2.5 2.3l-1.1 10.1c-.1 1.2.8 2.2 2 2.2h69.4c1.3 0 2.4-1 2.5-2.2l1.1-10.1c.1-1.3-.8-2.3-2-2.3zM280.6 233.7h-10.8c-1.3 0-2.4 1-2.5 2.2l-1.1 10.2c-.1 1.2.8 2.2 2 2.2h10.9c1.2 0 2.3-1 2.5-2.2l1-10.2c.1-1.2-.8-2.2-2-2.2zM299.3 233.7h-10.8c-1.3 0-2.4 1-2.5 2.2l-1.1 10.2c-.1 1.2.8 2.2 2 2.2h10.9c1.2 0 2.3-1 2.5-2.2l1-10.2c.1-1.2-.8-2.2-2-2.2zM318 233.7h-10.8c-1.3 0-2.4 1-2.5 2.2l-1.1 10.2c-.1 1.2.8 2.2 2 2.2h10.9c1.2 0 2.3-1 2.5-2.2l1-10.2c.1-1.2-.7-2.2-2-2.2zM336.7 233.7h-10.8c-1.3 0-2.4 1-2.5 2.2l-1.1 10.2c-.1 1.2.8 2.2 2 2.2h10.9c1.2 0 2.3-1 2.5-2.2l1-10.2c.2-1.2-.7-2.2-2-2.2z"/><path fill-rule="evenodd" class="k" d="M281.1 226.8h43.4c2.1 0 4-1.7 4.2-3.8l.5-5c.2-2.1-1.3-3.8-3.4-3.8h-43.4c-2.1 0-4 1.7-4.2 3.8l-.6 5c-.2 2.1 1.3 3.8 3.5 3.8z"/><path class="e" d="M344.3 171.1h-69.4c-1.3 0-2.4 1-2.5 2.2l-1.1 10.2c-.1 1.2.8 2.2 2 2.2h69.4c1.3 0 2.4-1 2.5-2.2l1.1-10.2c.1-1.2-.8-2.2-2-2.2z"/><path class="h" d="M280.8 199.5c.1-1.3-.9-2.4-2.2-2.4-1.4 0-2.6 1.1-2.8 2.4-.1 1.4.9 2.5 2.3 2.5 1.3 0 2.5-1.1 2.7-2.5zM288.4 199.5c.2-1.3-.8-2.4-2.2-2.4-1.4 0-2.6 1.1-2.7 2.4-.2 1.4.8 2.5 2.2 2.5 1.4 0 2.6-1.1 2.7-2.5zM296.1 199.5c.1-1.3-.9-2.4-2.3-2.4-1.3 0-2.6 1.1-2.7 2.4-.2 1.4.8 2.5 2.2 2.5 1.4 0 2.6-1.1 2.8-2.5zM303.7 199.5c.1-1.3-.9-2.4-2.2-2.4-1.4 0-2.6 1.1-2.8 2.4-.1 1.4.9 2.5 2.3 2.5 1.3 0 2.6-1.1 2.7-2.5zM311.5 199.5c.1-1.3-.9-2.4-2.2-2.4-1.4 0-2.6 1.1-2.8 2.4-.1 1.4.9 2.5 2.2 2.5 1.4 0 2.6-1.1 2.8-2.5zM283.3 178.4c.1-1.4-.9-2.5-2.2-2.5-1.4 0-2.6 1.1-2.8 2.5-.1 1.4.9 2.5 2.3 2.5 1.3 0 2.6-1.1 2.7-2.5zM290.9 178.4c.2-1.4-.8-2.5-2.2-2.5-1.4 0-2.6 1.1-2.7 2.5-.2 1.4.8 2.5 2.2 2.5 1.4 0 2.6-1.1 2.7-2.5zM298.6 178.4c.1-1.4-.9-2.5-2.3-2.5-1.3 0-2.6 1.1-2.7 2.5-.2 1.4.8 2.5 2.2 2.5 1.4 0 2.6-1.1 2.8-2.5zM306.2 178.4c.1-1.4-.9-2.5-2.2-2.5-1.4 0-2.6 1.1-2.8 2.5-.1 1.4.9 2.5 2.3 2.5 1.3 0 2.6-1.1 2.7-2.5zM313.8 178.4c.2-1.4-.8-2.5-2.2-2.5-1.4 0-2.6 1.1-2.7 2.5-.2 1.4.8 2.5 2.2 2.5 1.4 0 2.6-1.1 2.7-2.5zM321.5 178.4c.1-1.4-.9-2.5-2.3-2.5-1.3 0-2.6 1.1-2.7 2.5-.1 1.4.8 2.5 2.2 2.5 1.4 0 2.6-1.1 2.8-2.5z"/><path class="i" d="m315 148.7-.6 5.1c0 .5-.4.9-.9.9s-.8-.4-.7-.9l.5-5.1c.2-1.6-1-3-2.7-3h-1.8c-1.7 0-3.2 1.4-3.4 3l-.4 4.8h-1.7l.4-4.8c.3-2.6 2.6-4.7 5.2-4.7h1.9c2.6 0 4.5 2.1 4.2 4.7z"/><path class="i" d="m315 153.7-1 9.9c-.1.7-.7 1.2-1.3 1.2h-10c-.7 0-1.1-.5-1.1-1.2l1.1-9.9c0-.5.3-.8.6-1q.3-.2.6-.2H314q.3 0 .6.2c.3.2.5.5.4 1z"/><path class="l" d="m393.3 132.1-24.4.2M406.6 132l-8.6.1"/><g style="opacity:.3"><path class="e" d="M235.1 137.4h28l-28.5 117.9h-22.5c-2.8 0-4.8-2.7-4.1-5.4zM275.5 137.4h11.9l-28.5 117.9h-11.8z"/></g><path class="i" d="M86.7 100.7h5.6c-5.7 0-10 4.6-9.6 10.3l12.1 172.3c.4 5.7 5.3 10.4 11 10.4h-5.7c-5.7 0-10.6-4.7-11-10.4L77 111c-.4-5.7 3.9-10.3 9.7-10.3z"/><path class="h" d="M86.7 100.7h5.6c-5.7 0-10 4.6-9.6 10.3l12.1 172.3c.4 5.7 5.3 10.4 11 10.4h-5.7c-5.7 0-11.4-4.7-11.8-10.4L76.2 111c-.4-5.7 4.7-10.3 10.5-10.3z"/><path class="i" d="M101.8 293.6h69.5c5.8 0 10.1-4.6 9.7-10.3L168.9 111c-.4-5.7-5.3-10.3-11.1-10.3H88.3c-5.7 0-10 4.6-9.6 10.3l12.1 172.3c.4 5.7 5.3 10.3 11 10.3z"/><path class="e" d="M157.7 104c3.9 0 7.4 3.2 7.7 7.2l12 172.3c.1 1.8-.5 3.6-1.7 4.8-1.2 1.3-2.8 2-4.7 2h-69.5c-3.9 0-7.4-3.2-7.7-7.2l-12-172.3c-.1-1.8.5-3.5 1.7-4.8 1.1-1.3 2.8-2 4.7-2h69.5z" style="opacity:.6"/><g style="opacity:.3"><path class="e" d="M138 290.3h-27.7L133.2 104h22.3c2 0 3.8.8 5.1 2.2zM105.3 290.3h-6.2L122 104h6.2z"/></g><path class="m" d="M103.2 185.4h50.3M109.7 192.8h39.4"/><path class="i" d="M104.7 151.1v2h-1.2l-.1-2-2.3-3.6h1.4l1.5 2.5 1.5-2.5h1.2z"/><path fill-rule="evenodd" class="i" d="M106.8 150.3c-.1-1.7 1.2-2.9 2.9-2.9 1.8 0 3.1 1.2 3.2 2.9 0 1.6-1.2 2.9-3 2.9-1.7 0-3.1-1.3-3.1-2.9zm4.8 0c-.1-1.1-.8-1.8-1.8-1.8s-1.8.7-1.7 1.8c0 1 .8 1.8 1.8 1.8s1.7-.8 1.7-1.8z"/><path class="i" d="m113.8 150.6-.1-3.1h1.3l.1 3.1c0 1 .5 1.5 1.3 1.5s1.2-.5 1.2-1.5l-.1-3.1h1.3l.1 3.1c0 1.6-.9 2.6-2.5 2.6s-2.5-1-2.6-2.6z"/><path fill-rule="evenodd" class="i" d="m123.8 153.1-1.1-1.6h-1.2v1.6h-1.3l-.2-5.6h2.4c1.5 0 2.5.7 2.5 2 .1.8-.3 1.5-1 1.8l1.3 1.8zm-1.4-4.6h-1.1l.1 2h1.1c.8 0 1.1-.4 1.1-1s-.4-1-1.2-1z"/><path class="i" d="M127.9 150.3c-.1-1.7 1.2-2.9 2.9-2.9 1 0 1.8.3 2.3 1l-.8.7q-.5-.6-1.4-.6c-1 0-1.7.7-1.7 1.8 0 1 .8 1.8 1.8 1.8q.9-.1 1.4-.7l.9.8c-.5.6-1.3 1-2.3 1-1.7 0-3-1.3-3.1-2.9z"/><path fill-rule="evenodd" class="i" d="M133.6 150.3c0-1.7 1.2-2.9 3-2.9 1.7 0 3.1 1.2 3.1 2.9.1 1.6-1.2 2.9-2.9 2.9-1.8 0-3.1-1.3-3.2-2.9zm4.8 0c0-1.1-.8-1.8-1.8-1.8s-1.7.7-1.7 1.8c.1 1 .8 1.8 1.8 1.8s1.8-.8 1.7-1.8zM140.6 147.5h2.5c1.9 0 3.1 1.1 3.2 2.8.1 1.7-1.1 2.8-3 2.8h-2.5zm2.6 4.5c1.1 0 1.8-.7 1.8-1.8 0-1-.8-1.7-1.9-1.7h-1.2l.1 3.5h1.2z"/><path class="i" d="M151.7 152v1.1h-4.3l-.2-5.6h4.2v1h-2.9v1.2h2.6l.1 1h-2.6v1.3z"/><path class="h" d="M114.4 173.8v2.3h-10.5v-1.8l5.5-5.4c1.4-1.3 1.6-2.2 1.6-3 0-1.3-.9-2-2.7-2-1.4 0-2.5.4-3.3 1.5l-1.9-1.5c1.1-1.5 3.1-2.3 5.4-2.3 3.1 0 5.1 1.5 5.2 4.1 0 1.4-.4 2.6-2.3 4.5l-3.8 3.6h6.8zM126 171.8c.1 2.4-1.7 4.5-5.6 4.5-2 0-4-.7-5.4-1.7l1.2-2.1c1 .9 2.5 1.4 4.2 1.4 1.9 0 3-.8 2.9-2.1 0-1.3-.9-2.1-3.1-2.1h-1.3v-1.9l3.1-3.8h-6.4l-.1-2.2h9.7l.1 1.7-3.4 4.2c2.7.3 4.1 1.9 4.1 4.1z"/><path fill-rule="evenodd" class="h" d="M139.3 171.9c.1 2.7-2.2 4.4-5.7 4.4-3.6 0-5.9-1.7-5.9-4.4-.1-1.5.7-2.7 2.2-3.4-1.2-.6-1.8-1.6-1.8-3-.1-2.4 2-3.9 5.2-3.9s5.4 1.5 5.4 3.9c0 1.4-.6 2.4-1.7 3 1.5.7 2.3 1.9 2.3 3.4zm-2.6 0c-.1-1.4-1.3-2.3-3.3-2.3-1.9 0-3.1.9-3.1 2.3.1 1.4 1.3 2.3 3.2 2.3 2 0 3.2-.9 3.2-2.3zm-6-6.2c0 1.2 1 2 2.7 2 1.7 0 2.7-.8 2.7-2 0-1.3-1.1-2.1-2.8-2.1-1.6 0-2.6.8-2.6 2.1zM152.6 171.9c.1 2.7-2.2 4.4-5.7 4.4-3.6 0-5.9-1.7-5.9-4.4-.1-1.5.7-2.7 2.2-3.4-1.2-.6-1.8-1.6-1.8-3-.1-2.4 2-3.9 5.2-3.9s5.4 1.5 5.4 3.9c0 1.4-.6 2.4-1.7 3 1.5.7 2.3 1.9 2.3 3.4zm-2.6 0c-.1-1.4-1.3-2.3-3.3-2.3-1.9 0-3.1.9-3.1 2.3.1 1.4 1.3 2.3 3.2 2.3 2 0 3.2-.9 3.2-2.3zm-6-6.2c0 1.2 1 2 2.7 2 1.7 0 2.7-.8 2.7-2 0-1.3-1.1-2.1-2.8-2.1-1.6 0-2.6.8-2.6 2.1z"/><path class="k" d="m76.7 125.6 1.8 24.2M75.9 114.6l.5 6.4M123.4 90.6V75.9M111.7 93.7 104.4 81M142.4 81 135 93.7"/><path class="n" d="M313.9 351.8c-5.1 20.2-7.1 41.2-6.1 62"/><path class="i" d="M309.2 350.9c.1 1.9 1.7 8.5 3.6 8.4 1.9 0 3.2-6.7 3.2-8.6-.1-1.8-1.6-3.3-3.5-3.3-1.8.1-3.3 1.6-3.3 3.5zM316.5 371.9c-.1-1.9-1.7-8.5-3.6-8.4-1.9 0-3.2 6.7-3.2 8.6.1 1.8 1.6 3.3 3.5 3.3 1.9-.1 3.3-1.6 3.3-3.5zM302.4 365c1.8 0 8.4-1.7 8.4-3.6-.1-1.8-6.7-3.2-8.6-3.1-1.9 0-3.3 1.6-3.3 3.4 0 1.9 1.6 3.4 3.5 3.3zM323.4 357.8c-1.9 0-8.5 1.7-8.5 3.5.1 1.9 6.7 3.3 8.6 3.2 1.9 0 3.4-1.6 3.3-3.4 0-1.9-1.6-3.4-3.4-3.3z"/><path class="i" d="M302.9 356.5c1.3 1.3 7.2 4.8 8.5 3.5 1.2-1.4-2.5-7.1-3.9-8.4-1.3-1.2-3.5-1.2-4.8.2-1.2 1.3-1.2 3.5.2 4.7zM322.9 366.2c-1.4-1.2-7.3-4.7-8.5-3.4-1.3 1.4 2.4 7.1 3.8 8.3 1.3 1.3 3.5 1.3 4.8-.1 1.3-1.3 1.2-3.5-.1-4.8zM308 371.4c1.3-1.4 4.8-7.2 3.4-8.5-1.3-1.3-7 2.5-8.3 3.8-1.3 1.4-1.2 3.5.1 4.8 1.4 1.3 3.5 1.2 4.8-.1zM317.7 351.4c-1.3 1.4-4.8 7.2-3.4 8.5 1.3 1.3 7-2.5 8.3-3.8 1.3-1.4 1.2-3.5-.1-4.8-1.4-1.3-3.5-1.3-4.8.1z"/><path class="e" d="M308.9 361.5c0 2.2 1.8 4 4.1 3.9 2.2-.1 3.9-1.9 3.9-4.1-.1-2.2-1.9-4-4.1-3.9-2.3 0-4 1.9-3.9 4.1z"/><path class="i" d="M308.3 391.3s.7-10.3 6.3-11.9c5.6-1.6 7.6-3.8 7.6-3.8s-.5 15.9-13.9 15.7z"/><path class="o" d="M308.3 391.3s.7-10.3 6.3-11.9c5.6-1.6 7.6-3.8 7.6-3.8s-.5 15.9-13.9 15.7z"/><path class="i" d="M307.5 399.1s-.7-10.2-6.3-11.9c-5.6-1.6-7.6-3.8-7.6-3.8s.5 15.9 13.9 15.7z"/><path class="o" d="M307.5 399.1s-.7-10.2-6.3-11.9c-5.6-1.6-7.6-3.8-7.6-3.8s.5 15.9 13.9 15.7z"/><path class="i" d="M328.7 420.3c0 8-9.5 14.5-21.2 14.5s-21.2-6.5-21.2-14.5c0-4 2.4-7.6 6.4-10.2 2.2-1.6 5-2.7 8.1-3.4h13.4c3.2.7 6 1.9 8.3 3.5 3.8 2.6 6.2 6.2 6.2 10.1z"/><path d="M314.2 406.7c3.2.7 6 1.9 8.3 3.5 3.8 2.6 6.2 6.2 6.2 10.1 0 8-9.5 14.5-21.2 14.5s-21.2-6.5-21.2-14.5c0-4 2.4-7.6 6.4-10.2 2.2-1.6 5-2.7 8.1-3.4z" style="opacity:.8;fill:#fff"/><path class="n" d="M307.6 408v7.1"/><path class="i" d="m323.5 406.4-1.2 3.6h-29.6l-.1-.2-1-3.3z"/><path class="h" d="M326.2 423.2c-2 3-5 5.3-8.1 7-5.1 2.7-26.5 3.4-29-8.7q-.1-.3-.1-.5c-.6-3.2 2.2-6 5.5-5.7 1.9.2 4 0 6-.3 7.7-1.2 15.6-.8 23.1 1.2 3 .8 4.4 4.4 2.6 7z"/><path fill-rule="evenodd" class="i" d="M170.8 419c-.8-.3-1.5-.8-2-1.2q-.1 0-.1-.2 0-.1.1-.1c.4-.1 3.5-.7 4.3.1.1.2.2.4.2.7q-.2.7-.8.9c-.5.2-1.1 0-1.7-.2zm-1.4-1.2c1.3.8 2.4 1.2 3 1q.3-.1.4-.6c.1-.2 0-.2 0-.3-.4-.4-2.1-.3-3.4-.1z"/><path fill-rule="evenodd" class="i" d="m168.8 417.9-.1-.1q-.1-.1 0-.2c0-.1 1-2.4 2.2-2.8q.5-.2.9.1c.5.2.5.6.5.7-.2 1-2.4 2.2-3.4 2.3h-.1zm2.7-2.7q-.2-.1-.5 0c-.7.2-1.4 1.4-1.8 2.2 1.1-.3 2.5-1.2 2.6-1.8.1-.1.1-.3-.2-.4h-.1z"/><path class="q" d="m159.4 413.8 8.2 3.3 7.1-18.8-8.2-3.3z"/><path class="h" d="m168.6 416.5-9.2-3.7c-.3-.2-.7 0-.8.3l-4.1 6.7c-.4.6 0 1.6.8 1.9 3.2 1.2 4.8 1.7 8.8 3.3 2.5 1 6 2.7 9.4 4.1 3.3 1.3 5-1.9 3.7-2.8-5.8-3.9-6.1-6.1-7.5-8.8-.2-.5-.6-.8-1.1-1z"/><path class="i" d="m174.6 407.5-14.2-5.7 1.3-5.1 15.2 5.5z"/><path class="q" d="M188.7 189.8c-2.9 8.3-11.4 27.9-17.9 19.8-1.2-1.5-2.2-3.1-2.9-4.8-2.7-6.9-3.4-18-3.8-20.4l-2.2-7.6q-.1-.2-.1-.4v-4.3c0-1.8 1.4-2.9 3.3-2.7 0 0 3.1-.4 3.1 1.5l.7 6.5h-.1c.3 2.3-.6 5.5 0 7.5 2 7.9 4.7 8.2 6.5 16.3 2.4-5.8 6.7-15.9 6.7-15.9 2.9.3 7.7 1.8 6.7 4.5z"/><path class="i" d="M178.5 212.5c-2 3-6.4 3.2-8.5.3-1.3-1.7-2.3-3.7-2.8-5.2-2.6-8.5-4.2-13.8-4.4-22.7 1.8-1.9 4.7-2.6 7.2-1.7l4.3 14.4s8.6-21.5 12.1-22.3c4.2-.9 5.9 2.8 7.6 7.3 1.3 3.3-9.9 21.2-15.5 29.9z"/><path class="q" d="M213.5 153.7c-1 5-3.2 16 .3 19.3 0 0-1.4 5.1-10.7 5.1-10.2 0-4.8-5.1-4.8-5.1 5.5-1.3 5.4-5.5 4.4-9.4z"/><path class="h" d="M197.8 141.9h.2c.2-.1.3-.3.2-.5-1-2-2.8-2.2-2.9-2.2-.2-.1-.4.1-.4.3-.1.2.1.4.3.5.1 0 1.5.2 2.3 1.7.1.2.2.2.3.2z"/><path d="M194.8 146.3s-1.5 2.8-2.9 4c.7 1 2.3.8 2.3.8z" style="fill:#ed893e"/><path class="h" d="M195.6 144.9c.1.6-.1 1.2-.5 1.3-.5.1-.9-.3-1.1-1-.1-.7.1-1.3.6-1.4.4-.1.9.4 1 1.1z"/><path class="h" d="m194.8 143.8-1.7-.1s1 1.1 1.7.1z"/><path class="q" d="M160 169.1z"/><path class="s" d="M188.3 185.6c1.8-1.7 3-1.2 3.8.1.8 3.8-3.9 11.6-5.9 14.6z"/><path class="i" d="M229.3 190.5c-.2 4.1-.6 9.3-1.2 15.8-.7 6.9-1.6 15.3-2.9 25.5-13.6 0-27.9-.2-34.5-.2.6-13.6.8-27.2-5.3-54.1-.3-1.4.6-2.8 2.1-3.1 2.7-.5 7.3-1.2 11.9-1.4 5.7-.3 10.5-.5 15.5 0 6.7.6 14.3 2.2 14.3 2.2s.8 2.4.1 15.3z"/><path class="s" d="M229.3 190.5c-.2 4.1-.6 9.3-1.2 15.8-3.7-4.2-7.2-18.8-6.1-23.8 2.7 1.8 5.2 4.7 7.1 7.2l.2.8z"/><path class="q" d="m264.6 208.8 7-3.9 1.3 7.1s-5.9 2.3-9.1.7z"/><path class="q" d="m276.2 205.7.5 2.3c.2.8-.1 1.5-.8 1.9l-3 2.1-1.3-7.1 2.4-.6c1-.3 2 .4 2.2 1.4zM222.6 183.4c2.2 4.6 10.4 21.7 14 25.7l.7.7.4.4.4.4q1 .9 2.1 1.6c1.5.9 2.9 1.4 4.4 1.7 2.8.8 5.5.9 8.1.8 5.3-.2 10.2-1.1 15.1-2.5l-.9-4.2c-2.3.2-4.7.3-7 .4-2.4 0-4.7 0-7-.3-2.2-.2-4.4-.5-6.3-1.2-.9-.3-1.7-.7-2.3-1.2q-.4-.3-.7-.6l-.3-.3-.2-.3-.5-.6c-2.8-3.5-10.1-20.2-12.3-24.3z"/><path class="i" d="M264.5 215.9c-5.7 3.1-12.6 3.7-18.8 1.8-5.8-1.8-11-6.1-14.1-11.4-3.6-5.3-13.2-20.3-12-24.2 1.5-4.7 4.5-7.5 9.6-6.3 3.6.9 10.4 18.2 13.7 25.1 1.3 2 3.7 5 6.5 6 4.9 1.7 8.5.9 13.6.2.9.6.9 1.4 1.4 2.4.9 2 1.1 4.4.1 6.4z"/><path class="q" d="M218.5 145.7c-1.5 8.3-2 11.8-6.7 15.5-7.1 5.6-16.9 1.9-17.8-6.6-.9-7.6 1.8-19.8 10.3-22.1 8.4-2.3 15.8 5 14.2 13.2z"/><path class="h" d="M247.7 191.2c-1.6 1.8-2.1 2.9-4.2 3.8-2.2 1-7 .2-8.5-1.7.5 1.5 3.4 4 4.9 4.2-3.4 2-8 1.2-10.5-1.8.2 1.8 1.9 3.3 3.6 3.9-19.2.5-11.1-8.5-23.1-21.3-13.3-14.2-10.4-26-10.4-26 0-2-.5-5.4-2.6-8.1-2-2.5-1.4-5.8-.8-7.7.9-2.7 3.6-3.6 6.2-3.8.5-2.7 6-2.2 6.7-1.8.6.4.7.4 1.3 0 1.4-.9 4.8-1.8 8.4 1.2 2.3 1.8 4.6 5 4.7 11.9.1 7.1-3.3 15.6 8.5 26.4 6.9 6.4 3.6 20.1 15.8 20.8z"/><path class="q" d="M197.9 146.3c-1 1.4-1.3 3.2-1.1 4.6.3 2.1 2.4 2.2 3.9.9 1.3-1.2 2.8-3.8 1.7-5.5-1.1-1.8-3.4-1.6-4.5 0z"/><path class="h" d="M216.4 231.8s-4 57.4-8.6 95.2a92.91 92.91 0 0 1-10.3 32.5L175 402.1l-11.6-4.6s8-40.4 23.6-62.5c0 0-11.7-65.9 3.6-103.4z"/><path class="s" d="M200.7 245.7s3.5 26 5.4 41.4c-7.1-9.3-12.6-22.2-5.4-41.4z"/><path fill-rule="evenodd" class="i" d="M244 425.2c-.8.1-1.7 0-2.3-.1q-.2 0-.2-.1 0-.2.1-.2c.3-.3 2.7-2.2 3.8-1.9.2.1.4.2.5.6q.1.6-.3 1.1c-.3.4-.9.5-1.6.6zm-1.8-.4c1.6.1 2.7 0 3.1-.5q.3-.3.2-.7c-.1-.2-.2-.3-.2-.3-.6-.2-2 .7-3.1 1.5z"/><path fill-rule="evenodd" class="i" d="M241.7 425.1h-.1q-.1-.1-.1-.2c0-.1-.3-2.6.6-3.5q.4-.3.9-.3c.5 0 .7.3.7.5.3.9-1.1 2.9-1.9 3.5h-.1zm1.2-3.6q-.3 0-.5.2c-.5.5-.6 2-.5 2.8.8-.7 1.6-2.2 1.4-2.8 0-.1-.1-.2-.3-.2h-.1z"/><path class="q" d="m231.5 425.9 8.8-.9-2.7-19.8-8.8.8z"/><path class="h" d="m240.9 424-9.9.9c-.3.1-.6.3-.6.7l-.4 7.8c0 .8.8 1.4 1.6 1.4 3.4-.4 5-.8 9.4-1.2 2.6-.3 6.6-.4 10.2-.7 3.6-.4 3.5-4 2-4.1-7-.8-8.3-2.7-10.8-4.4-.5-.3-1-.5-1.5-.4zM225.1 231.7s11.2 68.6 13.4 109.1l.4 72.7-9.1 1.8s-13.1-46.4-14.6-73.2c-4-71.1-27.2-71.2-13.3-110.5z"/><path class="i" d="m241.9 413.8-15 2.1-1.5-5.8 16-2.1z"/><path class="q" d="M160 169.1z"/><path class="i" d="M161 158.3h.5c-.5 0-1 .4-1 1l1 17.4c0 .6.5 1.1 1.1 1.1h-.6c-.6 0-1.1-.5-1.1-1.1l-.9-17.4c-.1-.6.4-1 1-1z"/><path class="g" d="M161 158.3h.5c-.5 0-1 .4-1 1l1 17.4c0 .6.5 1.1 1.1 1.1h-.6c-.6 0-1.1-.5-1.1-1.1l-.9-17.4c-.1-.6.4-1 1-1z"/><path class="i" d="M162.2 177.8h7c.6 0 1-.5 1-1.1l-.9-17.4c-.1-.6-.6-1-1.1-1h-7.1c-.5 0-1 .4-1 1l1 17.4c0 .6.5 1.1 1.1 1.1z"/><path d="M162.2 177.8h7c.6 0 1-.5 1-1.1l-.9-17.4c-.1-.6-.6-1-1.1-1h-7.1c-.5 0-1 .4-1 1l1 17.4c0 .6.5 1.1 1.1 1.1z" style="opacity:.4;fill:#fff"/><path class="h" d="M169.7 176.3q0 .3-.1.5-.2.2-.5.2h-6.8c-.4 0-.7-.3-.8-.7l-.8-16.9q-.1-.3.1-.5.2-.1.5-.2h6.8c.4 0 .7.4.7.8l.1 1.2z"/><g style="opacity:.1"><path class="e" d="m168.9 160.7-2.3 16.3h-2.7l2.6-18.3h1.6c.4 0 .7.4.7.8zM162.9 177h-.6l2.6-18.2h.6z"/></g><path class="i" d="M188.5 233.7c-5.1 10-7.8 21.1-8 32.3 17 13.2 32.8-2.2 52.3.4-.7-8.8-3.7-25-7.2-33.1-12.9.5-24.9-.8-37.1.4z"/><path class="e" d="M190.3 230.1s-1.4 3.6-1 3.6H225c.3 0 .5-.2.6-.4l.3-3c0-.2-.3-.4-.6-.4h-34.5c-.2 0-.4.1-.5.2z"/><path class="i" d="M195.3 234h-.9c-.2 0-.3-.1-.3-.3l.4-3.9c0-.1.2-.2.4-.2h.9c.2 0 .3.1.3.2l-.4 3.9c0 .2-.2.3-.4.3zM217.7 234h-.9c-.2 0-.4-.1-.4-.3l.5-3.9c0-.1.2-.2.3-.2h1c.1 0 .3.1.3.2l-.5 3.9c0 .2-.1.3-.3.3z"/></svg>