<svg version="1.2" xmlns="http://www.w3.org/2000/svg" viewBox="0 0 500 500" width="500" height="500"><style>.a{fill:#f5f5f5}.b{fill:#e0e0e0}.c{fill:#ebebeb}.d{opacity:.8;fill:#e0e0e0}.e{fill:#fff}.f{fill:#f0f0f0}.g{opacity:.1;fill:#fff}.h{fill:#263238}.i{fill:#407bff}.j{opacity:.6;fill:#fff}.k{fill:none;stroke:#407bff;stroke-linecap:round;stroke-linejoin:round}.l{fill:none;stroke:#263238;stroke-linecap:round;stroke-linejoin:round}.m{fill:none;stroke:#fff;stroke-linecap:round;stroke-linejoin:round}.n{fill:none;stroke:#407bff;stroke-miterlimit:10}.o{opacity:.5;fill:#fff}.p{opacity:.8;fill:#fff}.q{fill:#ffb573}.r{fill:#ed893e}.s{opacity:.2}.t{opacity:.4;fill:#fff}</style><path class="a" d="m250 442.6c-107.2 0-193.9-5.1-193.9-11.3 0-6.3 86.7-11.4 193.9-11.4 107.2 0 193.9 5.1 193.9 11.4 0 6.2-86.7 11.3-193.9 11.3z"/><path class="b" d="m44.7 392.2h41.2v0.3h-41.2z"/><path class="b" d="m128.6 390.2h41.3v0.3h-41.3z"/><path class="b" d="m213.7 390.2h10v0.3h-10z"/><path class="b" d="m77.5 398.8l46.3-0.1v0.3h-46.3z"/><path class="b" d="m262.1 392.1h21.6v0.2h-21.6z"/><path class="b" d="m292.6 392.1h28v0.2h-28z"/><path class="b" d="m392.8 396.3h62.5v0.3h-62.5z"/><path class="c" d="m0 382.4h500v0.2h-500z"/><path class="d" d="m334.8 79.5l-2.5 34.3c0 1.1-0.6 2.2-1.4 3-0.9 1-2.2 1.6-3.6 1.6h-27.4c-1.1 0-2-0.3-2.7-0.9-1.1-0.8-1.8-2.2-1.7-3.7l2.5-34.3c0.2-2.6 2.4-4.7 5-4.7h27.5c2.6 0 4.5 2.1 4.3 4.7z"/><path class="e" d="m322.9 95c-0.3 5.1-4 9.2-8.2 9.2-4.1 0-7.2-4.1-6.8-9.2 0.3-5.1 4-9.2 8.1-9.2 4.2 0 7.3 4.1 6.9 9.2z"/><path class="e" d="m326.4 116.1h-25.2c-1.6 0-2.7-0.8-2.7-1.9-0.1-1.5 8.1-8.3 15.8-7.7q0.1 0 0.1 0 0.1 0 0.1 0c4.7 0 9.2 2 13 5 3.7 3 0.2 4.6-1.1 4.6z"/><path fill-rule="evenodd" class="b" d="m193 117.2c-5.3 0-10-4.3-10.5-9.6-0.4-5.4 3.6-9.8 8.9-9.8 5.4-0.1 10.1 4.2 10.5 9.5 0.5 5.4-3.5 9.8-8.9 9.9zm-1.2-14.3c-2.5 0-4.3 2.1-4.1 4.6 0.2 2.5 2.4 4.5 4.9 4.5 2.5 0 4.4-2.1 4.2-4.6-0.2-2.5-2.4-4.5-5-4.5z"/><path class="b" d="m193.5 102.2h-3.7l-1.9-23.7 3.6-0.1z"/><path class="b" d="m195 79.5l-6.9 0.1-0.3-3.7 6.9-0.1z"/><path class="b" d="m195.4 84.3h-6.5l-0.3-3.7h6.5z"/><path class="b" d="m196 90.9l-5.7 0.1-0.3-3.7 5.7-0.1z"/><path class="f" d="m79.3 318.8q0 0.4 0.1 0.9c0.4 1.9 1.4 3.6 2.7 4.9 1.7 1.5 3.8 2.5 6.1 2.5h84.5c4.2 0 7.5-3.3 7.7-7.4q0-0.5 0-0.9c-0.2-2.3-1.3-4.4-2.9-5.9-1.6-1.5-3.7-2.4-6-2.4h-84.5c-4.6 0-8 3.7-7.7 8.3z"/><path class="b" d="m180.4 319.7q0 0.4-0.1 0.8c-0.2-2.2-1.3-4.2-2.8-5.6-1.6-1.5-3.7-2.4-6-2.4l-89.9 0.1c1.4-1.3 3.3-2.1 5.4-2.1h84.5c2.3 0 4.4 0.9 6 2.4 1.6 1.5 2.7 3.6 2.9 5.9q0 0.4 0 0.9z"/><path class="e" d="m165.9 314.5l0.3 4 3.8-1.4 0.9 2-3.9 1.3 2.7 3.4-1.8 1.3-2.6-3.6-2.1 3.6-1.9-1.3 2.2-3.4-4-1.3 0.6-2 4 1.4-0.3-4z"/><path class="e" d="m142.8 314.5l0.3 4 3.8-1.4 0.9 2-3.9 1.3 2.7 3.4-1.8 1.3-2.6-3.6-2.1 3.6-1.9-1.3 2.2-3.4-4-1.3 0.6-2 4 1.4-0.3-4z"/><path class="e" d="m119.7 314.5l0.3 4 3.8-1.4 0.8 2-3.8 1.3 2.7 3.4-1.8 1.3-2.6-3.6-2.1 3.6-1.9-1.3 2.2-3.4-4-1.3 0.6-2 4 1.4-0.3-4z"/><path class="e" d="m96.6 314.5l0.3 4 3.8-1.4 0.8 2-3.8 1.3 2.7 3.4-1.8 1.3-2.6-3.6-2.1 3.6-1.9-1.3 2.2-3.4-4-1.3 0.6-2 4 1.4-0.3-4z"/><path class="b" d="m152.7 307.6h-3.9v-1h4z"/><path class="b" d="m169.7 307.6h-12.9v-1h12.9z"/><g style="opacity:.8"><path class="b" d="m269.4 302.5l15.9 24.6 52.6-52.6c0.4-0.5-0.2-1.2-0.7-0.8l-50.1 39.3-9.5-15.3z"/></g><path class="g" d="m259.9 128l-37.8 141.1h12.7l37.3-141.1z"/><path class="g" d="m279.4 128l-37.7 141.1h25.2l37.3-141.1z"/><path class="h" d="m415.3 255.3l8-113.3c0.2-3.7-2.6-6.8-6.4-6.8l-197.7 0.2c-3.8 0-7 3.1-7.3 6.8l-7.9 113.3c-0.3 3.7 2.5 6.8 6.3 6.8l197.7-0.2c3.8 0 7-3 7.3-6.8z"/><path class="i" d="m412.8 252.8l7.9-113.3c0.3-3.7-2.5-6.7-6.3-6.7l-197.7 0.1c-3.8 0-7.1 3.1-7.3 6.8l-8 113.3c-0.2 3.8 2.6 6.8 6.4 6.8l197.7-0.2c3.7 0 7-3 7.3-6.8z"/><path class="j" d="m407.5 254.5c-0.3 0.3-0.7 0.6-1.5 0.6l-197.7 0.2c-1.3 0-2.4-1.2-2.3-2.5l7.9-113.3c0.1-0.7 0.4-1.2 0.7-1.5 0.3-0.2 0.8-0.5 1.5-0.5l197.7-0.2c1.4 0 2.5 1.2 2.4 2.5l-8 113.3c0 0.7-0.4 1.2-0.7 1.4z"/><path class="e" d="m341.8 192.2h-69.4c-1.3 0-2.4 1-2.5 2.3l-1.1 10.1c-0.1 1.2 0.8 2.2 2 2.2h69.4c1.3 0 2.4-1 2.5-2.2l1.1-10.1c0.1-1.3-0.8-2.3-2-2.3z"/><path class="e" d="m280.6 233.7h-10.8c-1.3 0-2.4 1-2.5 2.2l-1.1 10.2c-0.1 1.2 0.8 2.2 2 2.2h10.9c1.2 0 2.3-1 2.5-2.2l1-10.2c0.1-1.2-0.8-2.2-2-2.2z"/><path class="e" d="m299.3 233.7h-10.8c-1.3 0-2.4 1-2.5 2.2l-1.1 10.2c-0.1 1.2 0.8 2.2 2 2.2h10.9c1.2 0 2.3-1 2.5-2.2l1-10.2c0.1-1.2-0.8-2.2-2-2.2z"/><path class="e" d="m318 233.7h-10.8c-1.3 0-2.4 1-2.5 2.2l-1.1 10.2c-0.1 1.2 0.8 2.2 2 2.2h10.9c1.2 0 2.3-1 2.5-2.2l1-10.2c0.1-1.2-0.7-2.2-2-2.2z"/><path class="e" d="m336.7 233.7h-10.8c-1.3 0-2.4 1-2.5 2.2l-1.1 10.2c-0.1 1.2 0.8 2.2 2 2.2h10.9c1.2 0 2.3-1 2.5-2.2l1-10.2c0.2-1.2-0.7-2.2-2-2.2z"/><path fill-rule="evenodd" class="k" d="m281.1 226.8h43.4c2.1 0 4-1.7 4.2-3.8l0.5-5c0.2-2.1-1.3-3.8-3.4-3.8h-43.4c-2.1 0-4 1.7-4.2 3.8l-0.6 5c-0.2 2.1 1.3 3.8 3.5 3.8z"/><path class="e" d="m344.3 171.1h-69.4c-1.3 0-2.4 1-2.5 2.2l-1.1 10.2c-0.1 1.2 0.8 2.2 2 2.2h69.4c1.3 0 2.4-1 2.5-2.2l1.1-10.2c0.1-1.2-0.8-2.2-2-2.2z"/><path class="h" d="m280.8 199.5c0.1-1.3-0.9-2.4-2.2-2.4-1.4 0-2.6 1.1-2.8 2.4-0.1 1.4 0.9 2.5 2.3 2.5 1.3 0 2.5-1.1 2.7-2.5z"/><path class="h" d="m288.4 199.5c0.2-1.3-0.8-2.4-2.2-2.4-1.4 0-2.6 1.1-2.7 2.4-0.2 1.4 0.8 2.5 2.2 2.5 1.4 0 2.6-1.1 2.7-2.5z"/><path class="h" d="m296.1 199.5c0.1-1.3-0.9-2.4-2.3-2.4-1.3 0-2.6 1.1-2.7 2.4-0.2 1.4 0.8 2.5 2.2 2.5 1.4 0 2.6-1.1 2.8-2.5z"/><path class="h" d="m303.7 199.5c0.1-1.3-0.9-2.4-2.2-2.4-1.4 0-2.6 1.1-2.8 2.4-0.1 1.4 0.9 2.5 2.3 2.5 1.3 0 2.6-1.1 2.7-2.5z"/><path class="h" d="m311.5 199.5c0.1-1.3-0.9-2.4-2.2-2.4-1.4 0-2.6 1.1-2.8 2.4-0.1 1.4 0.9 2.5 2.2 2.5 1.4 0 2.6-1.1 2.8-2.5z"/><path class="h" d="m283.3 178.4c0.1-1.4-0.9-2.5-2.2-2.5-1.4 0-2.6 1.1-2.8 2.5-0.1 1.4 0.9 2.5 2.3 2.5 1.3 0 2.6-1.1 2.7-2.5z"/><path class="h" d="m290.9 178.4c0.2-1.4-0.8-2.5-2.2-2.5-1.4 0-2.6 1.1-2.7 2.5-0.2 1.4 0.8 2.5 2.2 2.5 1.4 0 2.6-1.1 2.7-2.5z"/><path class="h" d="m298.6 178.4c0.1-1.4-0.9-2.5-2.3-2.5-1.3 0-2.6 1.1-2.7 2.5-0.2 1.4 0.8 2.5 2.2 2.5 1.4 0 2.6-1.1 2.8-2.5z"/><path class="h" d="m306.2 178.4c0.1-1.4-0.9-2.5-2.2-2.5-1.4 0-2.6 1.1-2.8 2.5-0.1 1.4 0.9 2.5 2.3 2.5 1.3 0 2.6-1.1 2.7-2.5z"/><path class="h" d="m313.8 178.4c0.2-1.4-0.8-2.5-2.2-2.5-1.4 0-2.6 1.1-2.7 2.5-0.2 1.4 0.8 2.5 2.2 2.5 1.4 0 2.6-1.1 2.7-2.5z"/><path class="h" d="m321.5 178.4c0.1-1.4-0.9-2.5-2.3-2.5-1.3 0-2.6 1.1-2.7 2.5-0.1 1.4 0.8 2.5 2.2 2.5 1.4 0 2.6-1.1 2.8-2.5z"/><path class="i" d="m315 148.7l-0.6 5.1c0 0.5-0.4 0.9-0.9 0.9-0.5 0-0.8-0.4-0.7-0.9l0.5-5.1c0.2-1.6-1-3-2.7-3h-1.8c-1.7 0-3.2 1.4-3.4 3l-0.4 4.8h-1.7l0.4-4.8c0.3-2.6 2.6-4.7 5.2-4.7h1.9c2.6 0 4.5 2.1 4.2 4.7z"/><path class="i" d="m315 153.7l-1 9.9c-0.1 0.7-0.7 1.2-1.3 1.2h-10c-0.7 0-1.1-0.5-1.1-1.2l1.1-9.9c0-0.5 0.3-0.8 0.6-1q0.3-0.2 0.6-0.2h10.1q0.3 0 0.6 0.2c0.3 0.2 0.5 0.5 0.4 1z"/><path class="l" d="m393.3 132.1l-24.4 0.2"/><path class="l" d="m406.6 132l-8.6 0.1"/><g style="opacity:.3"><path class="e" d="m235.1 137.4h28l-28.5 117.9h-22.5q0 0 0 0c-2.8 0-4.8-2.7-4.1-5.4z"/><path class="e" d="m275.5 137.4h11.9l-28.5 117.9h-11.8z"/></g><path class="i" d="m86.7 100.7h5.6c-5.7 0-10 4.6-9.6 10.3l12.1 172.3c0.4 5.7 5.3 10.4 11 10.4h-5.7c-5.7 0-10.6-4.7-11-10.4l-12.1-172.3c-0.4-5.7 3.9-10.3 9.7-10.3z"/><path class="h" d="m86.7 100.7h5.6c-5.7 0-10 4.6-9.6 10.3l12.1 172.3c0.4 5.7 5.3 10.4 11 10.4h-5.7c-5.7 0-11.4-4.7-11.8-10.4l-12.1-172.3c-0.4-5.7 4.7-10.3 10.5-10.3z"/><path class="i" d="m101.8 293.6h69.5c5.8 0 10.1-4.6 9.7-10.3l-12.1-172.3c-0.4-5.7-5.3-10.3-11.1-10.3h-69.5c-5.7 0-10 4.6-9.6 10.3l12.1 172.3c0.4 5.7 5.3 10.3 11 10.3z"/><g style="opacity:.6"><path class="e" d="m157.7 104c3.9 0 7.4 3.2 7.7 7.2l12 172.3c0.1 1.8-0.5 3.6-1.7 4.8-1.2 1.3-2.8 2-4.7 2h-69.5c-3.9 0-7.4-3.2-7.7-7.2l-12-172.3c-0.1-1.8 0.5-3.5 1.7-4.8 1.1-1.3 2.8-2 4.7-2 0 0 69.5 0 69.5 0z"/></g><g style="opacity:.3"><path class="e" d="m138 290.3h-27.7l22.9-186.3h22.3c2 0 3.8 0.8 5.1 2.2z"/><path class="e" d="m105.3 290.3h-6.2l22.9-186.3h6.2z"/></g><path class="m" d="m103.2 185.4h50.3"/><path class="m" d="m109.7 192.8h39.4"/><path class="i" d="m104.7 151.1v2h-1.2l-0.1-2-2.3-3.6h1.4l1.5 2.5 1.5-2.5h1.2z"/><path fill-rule="evenodd" class="i" d="m106.8 150.3c-0.1-1.7 1.2-2.9 2.9-2.9 1.8 0 3.1 1.2 3.2 2.9 0 1.6-1.2 2.9-3 2.9-1.7 0-3.1-1.3-3.1-2.9zm4.8 0c-0.1-1.1-0.8-1.8-1.8-1.8-1 0-1.8 0.7-1.7 1.8 0 1 0.8 1.8 1.8 1.8 1 0 1.7-0.8 1.7-1.8z"/><path class="i" d="m113.8 150.6l-0.1-3.1h1.3l0.1 3.1c0 1 0.5 1.5 1.3 1.5 0.8 0 1.2-0.5 1.2-1.5l-0.1-3.1h1.3l0.1 3.1c0 1.6-0.9 2.6-2.5 2.6-1.6 0-2.5-1-2.6-2.6z"/><path fill-rule="evenodd" class="i" d="m123.8 153.1l-1.1-1.6h-1.2v1.6h-1.3l-0.2-5.6h2.4c1.5 0 2.5 0.7 2.5 2 0.1 0.8-0.3 1.5-1 1.8l1.3 1.8zm-1.4-4.6h-1.1l0.1 2h1.1c0.8 0 1.1-0.4 1.1-1 0-0.6-0.4-1-1.2-1z"/><path class="i" d="m127.9 150.3c-0.1-1.7 1.2-2.9 2.9-2.9 1 0 1.8 0.3 2.3 1l-0.8 0.7q-0.5-0.6-1.4-0.6c-1 0-1.7 0.7-1.7 1.8 0 1 0.8 1.8 1.8 1.8q0.9-0.1 1.4-0.7l0.9 0.8c-0.5 0.6-1.3 1-2.3 1-1.7 0-3-1.3-3.1-2.9z"/><path fill-rule="evenodd" class="i" d="m133.6 150.3c0-1.7 1.2-2.9 3-2.9 1.7 0 3.1 1.2 3.1 2.9 0.1 1.6-1.2 2.9-2.9 2.9-1.8 0-3.1-1.3-3.2-2.9zm4.8 0c0-1.1-0.8-1.8-1.8-1.8-1 0-1.7 0.7-1.7 1.8 0.1 1 0.8 1.8 1.8 1.8 1 0 1.8-0.8 1.7-1.8z"/><path fill-rule="evenodd" class="i" d="m140.6 147.5h2.5c1.9 0 3.1 1.1 3.2 2.8 0.1 1.7-1.1 2.8-3 2.8h-2.5zm2.6 4.5c1.1 0 1.8-0.7 1.8-1.8 0-1-0.8-1.7-1.9-1.7h-1.2l0.1 3.5c0 0 1.2 0 1.2 0z"/><path class="i" d="m151.7 152v1.1h-4.3l-0.2-5.6h4.2v1h-2.9v1.2h2.6l0.1 1h-2.6v1.3z"/><path class="h" d="m114.4 173.8v2.3h-10.5v-1.8l5.5-5.4c1.4-1.3 1.6-2.2 1.6-3 0-1.3-0.9-2-2.7-2-1.4 0-2.5 0.4-3.3 1.5l-1.9-1.5c1.1-1.5 3.1-2.3 5.4-2.3 3.1 0 5.1 1.5 5.2 4.1 0 1.4-0.4 2.6-2.3 4.5l-3.8 3.6c0 0 6.8 0 6.8 0z"/><path class="h" d="m126 171.8c0.1 2.4-1.7 4.5-5.6 4.5-2 0-4-0.7-5.4-1.7l1.2-2.1c1 0.9 2.5 1.4 4.2 1.4 1.9 0 3-0.8 2.9-2.1 0-1.3-0.9-2.1-3.1-2.1h-1.3v-1.9l3.1-3.8h-6.4l-0.1-2.2h9.7l0.1 1.7-3.4 4.2c2.7 0.3 4.1 1.9 4.1 4.1z"/><path fill-rule="evenodd" class="h" d="m139.3 171.9c0.1 2.7-2.2 4.4-5.7 4.4-3.6 0-5.9-1.7-5.9-4.4-0.1-1.5 0.7-2.7 2.2-3.4-1.2-0.6-1.8-1.6-1.8-3-0.1-2.4 2-3.9 5.2-3.9 3.2 0 5.4 1.5 5.4 3.9 0 1.4-0.6 2.4-1.7 3 1.5 0.7 2.3 1.9 2.3 3.4zm-2.6 0c-0.1-1.4-1.3-2.3-3.3-2.3-1.9 0-3.1 0.9-3.1 2.3 0.1 1.4 1.3 2.3 3.2 2.3 2 0 3.2-0.9 3.2-2.3zm-6-6.2c0 1.2 1 2 2.7 2 1.7 0 2.7-0.8 2.7-2 0-1.3-1.1-2.1-2.8-2.1-1.6 0-2.6 0.8-2.6 2.1z"/><path fill-rule="evenodd" class="h" d="m152.6 171.9c0.1 2.7-2.2 4.4-5.7 4.4-3.6 0-5.9-1.7-5.9-4.4-0.1-1.5 0.7-2.7 2.2-3.4-1.2-0.6-1.8-1.6-1.8-3-0.1-2.4 2-3.9 5.2-3.9 3.2 0 5.4 1.5 5.4 3.9 0 1.4-0.6 2.4-1.7 3 1.5 0.7 2.3 1.9 2.3 3.4zm-2.6 0c-0.1-1.4-1.3-2.3-3.3-2.3-1.9 0-3.1 0.9-3.1 2.3 0.1 1.4 1.3 2.3 3.2 2.3 2 0 3.2-0.9 3.2-2.3zm-6-6.2c0 1.2 1 2 2.7 2 1.7 0 2.7-0.8 2.7-2 0-1.3-1.1-2.1-2.8-2.1-1.6 0-2.6 0.8-2.6 2.1z"/><path class="k" d="m76.7 125.6l1.8 24.2"/><path class="k" d="m75.9 114.6l0.5 6.4"/><path class="k" d="m123.4 90.6v-14.7"/><path class="k" d="m111.7 93.7l-7.3-12.7"/><path class="k" d="m142.4 81l-7.4 12.7"/><path class="n" d="m313.9 351.8c-5.1 20.2-7.1 41.2-6.1 62"/><path class="i" d="m309.2 350.9c0.1 1.9 1.7 8.5 3.6 8.4 1.9 0 3.2-6.7 3.2-8.6-0.1-1.8-1.6-3.3-3.5-3.3-1.8 0.1-3.3 1.6-3.3 3.5z"/><path class="i" d="m316.5 371.9c-0.1-1.9-1.7-8.5-3.6-8.4-1.9 0-3.2 6.7-3.2 8.6 0.1 1.8 1.6 3.3 3.5 3.3 1.9-0.1 3.3-1.6 3.3-3.5z"/><path class="i" d="m302.4 365c1.8 0 8.4-1.7 8.4-3.6-0.1-1.8-6.7-3.2-8.6-3.1-1.9 0-3.3 1.6-3.3 3.4 0 1.9 1.6 3.4 3.5 3.3z"/><path class="i" d="m323.4 357.8c-1.9 0-8.5 1.7-8.5 3.5 0.1 1.9 6.7 3.3 8.6 3.2 1.9 0 3.4-1.6 3.3-3.4 0-1.9-1.6-3.4-3.4-3.3z"/><path class="i" d="m302.9 356.5c1.3 1.3 7.2 4.8 8.5 3.5 1.2-1.4-2.5-7.1-3.9-8.4-1.3-1.2-3.5-1.2-4.8 0.2-1.2 1.3-1.2 3.5 0.2 4.7z"/><path class="i" d="m322.9 366.2c-1.4-1.2-7.3-4.7-8.5-3.4-1.3 1.4 2.4 7.1 3.8 8.3 1.3 1.3 3.5 1.3 4.8-0.1 1.3-1.3 1.2-3.5-0.1-4.8z"/><path class="i" d="m308 371.4c1.3-1.4 4.8-7.2 3.4-8.5-1.3-1.3-7 2.5-8.3 3.8-1.3 1.4-1.2 3.5 0.1 4.8 1.4 1.3 3.5 1.2 4.8-0.1z"/><path class="i" d="m317.7 351.4c-1.3 1.4-4.8 7.2-3.4 8.5 1.3 1.3 7-2.5 8.3-3.8 1.3-1.4 1.2-3.5-0.1-4.8-1.4-1.3-3.5-1.3-4.8 0.1z"/><path class="e" d="m308.9 361.5c0 2.2 1.8 4 4.1 3.9 2.2-0.1 3.9-1.9 3.9-4.1-0.1-2.2-1.9-4-4.1-3.9-2.3 0-4 1.9-3.9 4.1z"/><path class="i" d="m308.3 391.3c0 0 0.7-10.3 6.3-11.9 5.6-1.6 7.6-3.8 7.6-3.8 0 0-0.5 15.9-13.9 15.7z"/><path class="o" d="m308.3 391.3c0 0 0.7-10.3 6.3-11.9 5.6-1.6 7.6-3.8 7.6-3.8 0 0-0.5 15.9-13.9 15.7z"/><path class="i" d="m307.5 399.1c0 0-0.7-10.2-6.3-11.9-5.6-1.6-7.6-3.8-7.6-3.8 0 0 0.5 15.9 13.9 15.7z"/><path class="o" d="m307.5 399.1c0 0-0.7-10.2-6.3-11.9-5.6-1.6-7.6-3.8-7.6-3.8 0 0 0.5 15.9 13.9 15.7z"/><path class="i" d="m328.7 420.3c0 8-9.5 14.5-21.2 14.5-11.7 0-21.2-6.5-21.2-14.5 0-4 2.4-7.6 6.4-10.2 2.2-1.6 5-2.7 8.1-3.4h13.4c3.2 0.7 6 1.9 8.3 3.5 3.8 2.6 6.2 6.2 6.2 10.1z"/><path class="p" d="m314.2 406.7c3.2 0.7 6 1.9 8.3 3.5 3.8 2.6 6.2 6.2 6.2 10.1 0 8-9.5 14.5-21.2 14.5-11.7 0-21.2-6.5-21.2-14.5 0-4 2.4-7.6 6.4-10.2 2.2-1.6 5-2.7 8.1-3.4z"/><path class="n" d="m307.6 408q0 3.5 0 7.1"/><path class="i" d="m323.5 406.4l-1.2 3.6h-29.6l-0.1-0.2-1-3.3z"/><path class="h" d="m326.2 423.2c-2 3-5 5.3-8.1 7-5.1 2.7-26.5 3.4-29-8.7q-0.1-0.3-0.1-0.5c-0.6-3.2 2.2-6 5.5-5.7 1.9 0.2 4 0 6-0.3 7.7-1.2 15.6-0.8 23.1 1.2 3 0.8 4.4 4.4 2.6 7z"/><path fill-rule="evenodd" class="i" d="m170.8 419c-0.8-0.3-1.5-0.8-2-1.2q-0.1 0-0.1-0.2 0-0.1 0.1-0.1c0.4-0.1 3.5-0.7 4.3 0.1 0.1 0.2 0.2 0.4 0.2 0.7q-0.2 0.7-0.8 0.9c-0.5 0.2-1.1 0-1.7-0.2zm-1.4-1.2c1.3 0.8 2.4 1.2 3 1q0.3-0.1 0.4-0.6c0.1-0.2 0-0.2 0-0.3-0.4-0.4-2.1-0.3-3.4-0.1z"/><path fill-rule="evenodd" class="i" d="m168.8 417.9q-0.1-0.1-0.1-0.1-0.1-0.1 0-0.2c0-0.1 1-2.4 2.2-2.8q0.5-0.2 0.9 0.1c0.5 0.2 0.5 0.6 0.5 0.7-0.2 1-2.4 2.2-3.4 2.3q-0.1 0-0.1 0zm2.7-2.7q-0.2-0.1-0.5 0c-0.7 0.2-1.4 1.4-1.8 2.2 1.1-0.3 2.5-1.2 2.6-1.8 0.1-0.1 0.1-0.3-0.2-0.4q0 0-0.1 0z"/><path class="q" d="m159.4 413.8l8.2 3.3 7.1-18.8-8.2-3.3z"/><path class="h" d="m168.6 416.5l-9.2-3.7c-0.3-0.2-0.7 0-0.8 0.3l-4.1 6.7c-0.4 0.6 0 1.6 0.8 1.9 3.2 1.2 4.8 1.7 8.8 3.3 2.5 1 6 2.7 9.4 4.1 3.3 1.3 5-1.9 3.7-2.8-5.8-3.9-6.1-6.1-7.5-8.8-0.2-0.5-0.6-0.8-1.1-1z"/><path class="i" d="m174.6 407.5l-14.2-5.7 1.3-5.1 15.2 5.5z"/><path class="q" d="m188.7 189.8c-2.9 8.3-11.4 27.9-17.9 19.8-1.2-1.5-2.2-3.1-2.9-4.8-2.7-6.9-3.4-18-3.8-20.4l-2.2-7.6q-0.1-0.2-0.1-0.4v-4.3c0-1.8 1.4-2.9 3.3-2.7 0 0 3.1-0.4 3.1 1.5l0.7 6.5h-0.1c0.3 2.3-0.6 5.5 0 7.5 2 7.9 4.7 8.2 6.5 16.3 2.4-5.8 6.7-15.9 6.7-15.9 2.9 0.3 7.7 1.8 6.7 4.5z"/><path class="i" d="m178.5 212.5c-2 3-6.4 3.2-8.5 0.3-1.3-1.7-2.3-3.7-2.8-5.2-2.6-8.5-4.2-13.8-4.4-22.7 1.8-1.9 4.7-2.6 7.2-1.7l4.3 14.4c0 0 8.6-21.5 12.1-22.3 4.2-0.9 5.9 2.8 7.6 7.3 1.3 3.3-9.9 21.2-15.5 29.9z"/><path class="q" d="m213.5 153.7c-1 5-3.2 16 0.3 19.3 0 0-1.4 5.1-10.7 5.1-10.2 0-4.8-5.1-4.8-5.1 5.5-1.3 5.4-5.5 4.4-9.4z"/><path class="h" d="m197.8 141.9q0.1 0 0.2 0c0.2-0.1 0.3-0.3 0.2-0.5-1-2-2.8-2.2-2.9-2.2-0.2-0.1-0.4 0.1-0.4 0.3-0.1 0.2 0.1 0.4 0.3 0.5 0.1 0 1.5 0.2 2.3 1.7 0.1 0.2 0.2 0.2 0.3 0.2z"/><path class="r" d="m194.8 146.3c0 0-1.5 2.8-2.9 4 0.7 1 2.3 0.8 2.3 0.8z"/><path class="h" d="m195.6 144.9c0.1 0.6-0.1 1.2-0.5 1.3-0.5 0.1-0.9-0.3-1.1-1-0.1-0.7 0.1-1.3 0.6-1.4 0.4-0.1 0.9 0.4 1 1.1z"/><path class="h" d="m194.8 143.8l-1.7-0.1c0 0 1 1.1 1.7 0.1z"/><path class="q" d="m160 169.1q0 0 0 0z"/><path class="s" d="m188.3 185.6c1.8-1.7 3-1.2 3.8 0.1 0.8 3.8-3.9 11.6-5.9 14.6z"/><path class="i" d="m229.3 190.5c-0.2 4.1-0.6 9.3-1.2 15.8-0.7 6.9-1.6 15.3-2.9 25.5-13.6 0-27.9-0.2-34.5-0.2 0.6-13.6 0.8-27.2-5.3-54.1-0.3-1.4 0.6-2.8 2.1-3.1 2.7-0.5 7.3-1.2 11.9-1.4 5.7-0.3 10.5-0.5 15.5 0 6.7 0.6 14.3 2.2 14.3 2.2 0 0 0.8 2.4 0.1 15.3z"/><path class="s" d="m229.3 190.5c-0.2 4.1-0.6 9.3-1.2 15.8-3.7-4.2-7.2-18.8-6.1-23.8 2.7 1.8 5.2 4.7 7.1 7.2q0.1 0.4 0.2 0.8z"/><path class="q" d="m264.6 208.8l7-3.9 1.3 7.1c0 0-5.9 2.3-9.1 0.7z"/><path class="q" d="m276.2 205.7l0.5 2.3c0.2 0.8-0.1 1.5-0.8 1.9l-3 2.1-1.3-7.1 2.4-0.6c1-0.3 2 0.4 2.2 1.4z"/><path class="q" d="m222.6 183.4c2.2 4.6 10.4 21.7 14 25.7l0.7 0.7 0.4 0.4c0.1 0.1 0.2 0.2 0.4 0.4q1 0.9 2.1 1.6c1.5 0.9 2.9 1.4 4.4 1.7 2.8 0.8 5.5 0.9 8.1 0.8 5.3-0.2 10.2-1.1 15.1-2.5l-0.9-4.2c-2.3 0.2-4.7 0.3-7 0.4-2.4 0-4.7 0-7-0.3-2.2-0.2-4.4-0.5-6.3-1.2-0.9-0.3-1.7-0.7-2.3-1.2q-0.4-0.3-0.7-0.6c-0.1-0.1-0.2-0.2-0.3-0.3l-0.2-0.3-0.5-0.6c-2.8-3.5-10.1-20.2-12.3-24.3z"/><path class="i" d="m264.5 215.9c-5.7 3.1-12.6 3.7-18.8 1.8-5.8-1.8-11-6.1-14.1-11.4-3.6-5.3-13.2-20.3-12-24.2 1.5-4.7 4.5-7.5 9.6-6.3 3.6 0.9 10.4 18.2 13.7 25.1 1.3 2 3.7 5 6.5 6 4.9 1.7 8.5 0.9 13.6 0.2 0.9 0.6 0.9 1.4 1.4 2.4 0.9 2 1.1 4.4 0.1 6.4z"/><path class="q" d="m218.5 145.7c-1.5 8.3-2 11.8-6.7 15.5-7.1 5.6-16.9 1.9-17.8-6.6-0.9-7.6 1.8-19.8 10.3-22.1 8.4-2.3 15.8 5 14.2 13.2z"/><path class="h" d="m247.7 191.2c-1.6 1.8-2.1 2.9-4.2 3.8-2.2 1-7 0.2-8.5-1.7 0.5 1.5 3.4 4 4.9 4.2-3.4 2-8 1.2-10.5-1.8 0.2 1.8 1.9 3.3 3.6 3.9-19.2 0.5-11.1-8.5-23.1-21.3-13.3-14.2-10.4-26-10.4-26 0-2-0.5-5.4-2.6-8.1-2-2.5-1.4-5.8-0.8-7.7 0.9-2.7 3.6-3.6 6.2-3.8 0.5-2.7 6-2.2 6.7-1.8 0.6 0.4 0.7 0.4 1.3 0 1.4-0.9 4.8-1.8 8.4 1.2 2.3 1.8 4.6 5 4.7 11.9 0.1 7.1-3.3 15.6 8.5 26.4 6.9 6.4 3.6 20.1 15.8 20.8z"/><path class="q" d="m197.9 146.3c-1 1.4-1.3 3.2-1.1 4.6 0.3 2.1 2.4 2.2 3.9 0.9 1.3-1.2 2.8-3.8 1.7-5.5-1.1-1.8-3.4-1.6-4.5 0z"/><path class="h" d="m216.4 231.8c0 0-4 57.4-8.6 95.2-1.4 11.4-4.9 22.4-10.3 32.5l-22.5 42.6-11.6-4.6c0 0 8-40.4 23.6-62.5 0 0-11.7-65.9 3.6-103.4z"/><path class="s" d="m200.7 245.7c0 0 3.5 26 5.4 41.4-7.1-9.3-12.6-22.2-5.4-41.4z"/><path fill-rule="evenodd" class="i" d="m244 425.2c-0.8 0.1-1.7 0-2.3-0.1q-0.2 0-0.2-0.1 0-0.2 0.1-0.2c0.3-0.3 2.7-2.2 3.8-1.9 0.2 0.1 0.4 0.2 0.5 0.6q0.1 0.6-0.3 1.1c-0.3 0.4-0.9 0.5-1.6 0.6zm-1.8-0.4c1.6 0.1 2.7 0 3.1-0.5q0.3-0.3 0.2-0.7c-0.1-0.2-0.2-0.3-0.2-0.3-0.6-0.2-2 0.7-3.1 1.5z"/><path fill-rule="evenodd" class="i" d="m241.7 425.1q0 0-0.1 0-0.1-0.1-0.1-0.2c0-0.1-0.3-2.6 0.6-3.5q0.4-0.3 0.9-0.3c0.5 0 0.7 0.3 0.7 0.5 0.3 0.9-1.1 2.9-1.9 3.5q0 0-0.1 0zm1.2-3.6q-0.3 0-0.5 0.2c-0.5 0.5-0.6 2-0.5 2.8 0.8-0.7 1.6-2.2 1.4-2.8 0-0.1-0.1-0.2-0.3-0.2q-0.1 0-0.1 0z"/><path class="q" d="m231.5 425.9l8.8-0.9-2.7-19.8-8.8 0.8z"/><path class="h" d="m240.9 424l-9.9 0.9c-0.3 0.1-0.6 0.3-0.6 0.7l-0.4 7.8c0 0.8 0.8 1.4 1.6 1.4 3.4-0.4 5-0.8 9.4-1.2 2.6-0.3 6.6-0.4 10.2-0.7 3.6-0.4 3.5-4 2-4.1-7-0.8-8.3-2.7-10.8-4.4-0.5-0.3-1-0.5-1.5-0.4z"/><path class="h" d="m225.1 231.7c0 0 11.2 68.6 13.4 109.1l0.4 72.7-9.1 1.8c0 0-13.1-46.4-14.6-73.2-4-71.1-27.2-71.2-13.3-110.5z"/><path class="i" d="m241.9 413.8l-15 2.1-1.5-5.8 16-2.1z"/><path class="q" d="m160 169.1q0 0 0 0z"/><path class="i" d="m161 158.3h0.5c-0.5 0-1 0.4-1 1l1 17.4c0 0.6 0.5 1.1 1.1 1.1h-0.6c-0.6 0-1.1-0.5-1.1-1.1l-0.9-17.4c-0.1-0.6 0.4-1 1-1z"/><path class="g" d="m161 158.3h0.5c-0.5 0-1 0.4-1 1l1 17.4c0 0.6 0.5 1.1 1.1 1.1h-0.6c-0.6 0-1.1-0.5-1.1-1.1l-0.9-17.4c-0.1-0.6 0.4-1 1-1z"/><path class="i" d="m162.2 177.8h7c0.6 0 1-0.5 1-1.1l-0.9-17.4c-0.1-0.6-0.6-1-1.1-1h-7.1c-0.5 0-1 0.4-1 1l1 17.4c0 0.6 0.5 1.1 1.1 1.1z"/><path class="t" d="m162.2 177.8h7c0.6 0 1-0.5 1-1.1l-0.9-17.4c-0.1-0.6-0.6-1-1.1-1h-7.1c-0.5 0-1 0.4-1 1l1 17.4c0 0.6 0.5 1.1 1.1 1.1z"/><path class="h" d="m169.7 176.3q0 0.3-0.1 0.5-0.2 0.2-0.5 0.2h-6.8c-0.4 0-0.7-0.3-0.8-0.7l-0.8-16.9q-0.1-0.3 0.1-0.5 0.2-0.1 0.5-0.2h6.8c0.4 0 0.7 0.4 0.7 0.8l0.1 1.2z"/><g style="opacity:.1"><path class="e" d="m168.9 160.7l-2.3 16.3h-2.7l2.6-18.3h1.6c0.4 0 0.7 0.4 0.7 0.8z"/><path class="e" d="m162.9 177h-0.6l2.6-18.2h0.6z"/></g><path class="i" d="m188.5 233.7c-5.1 10-7.8 21.1-8 32.3 17 13.2 32.8-2.2 52.3 0.4-0.7-8.8-3.7-25-7.2-33.1-12.9 0.5-24.9-0.8-37.1 0.4z"/><path class="e" d="m190.3 230.1c0 0-1.4 3.6-1 3.6h35.7c0.3 0 0.5-0.2 0.6-0.4l0.3-3c0-0.2-0.3-0.4-0.6-0.4h-34.5c-0.2 0-0.4 0.1-0.5 0.2z"/><path class="i" d="m195.3 234h-0.9c-0.2 0-0.3-0.1-0.3-0.3l0.4-3.9c0-0.1 0.2-0.2 0.4-0.2h0.9c0.2 0 0.3 0.1 0.3 0.2l-0.4 3.9c0 0.2-0.2 0.3-0.4 0.3z"/><path class="i" d="m217.7 234h-0.9c-0.2 0-0.4-0.1-0.4-0.3l0.5-3.9c0-0.1 0.2-0.2 0.3-0.2h1c0.1 0 0.3 0.1 0.3 0.2l-0.5 3.9c0 0.2-0.1 0.3-0.3 0.3z"/></svg>